<?xml version="1.0" encoding="utf-8"?>
<!-- Generator: Adobe Illustrator 25.0.1, SVG Export Plug-In . SVG Version: 6.00 Build 0)  -->
<svg version="1.1" id="Layer_1" xmlns="http://www.w3.org/2000/svg" xmlns:xlink="http://www.w3.org/1999/xlink" x="0px" y="0px"
	 viewBox="0 0 3132.54 2374.34" style="enable-background:new 0 0 3132.54 2374.34;" xml:space="preserve">
<style type="text/css">
	.st0{fill:none;stroke:#CF2031;stroke-width:4;stroke-miterlimit:10;}
	.st1{fill:#FCFCFC;stroke:#CF2031;stroke-width:4;stroke-miterlimit:10;}
	.st2{fill:#FFFFFF;}
</style>
<g>
	<rect x="715.9" y="356.92" class="st0" width="1695.35" height="1695.35"/>
	<rect x="1536.23" y="334.14" class="st1" width="45.57" height="45.57"/>
	<rect x="2388.46" y="334.14" class="st1" width="45.57" height="45.57"/>
	<rect x="693.11" y="334.14" class="st1" width="45.57" height="45.57"/>
	<rect x="693.11" y="2029.48" class="st1" width="45.57" height="45.57"/>
	<rect x="2388.46" y="2029.48" class="st1" width="45.57" height="45.57"/>
	<rect x="2388.46" y="1181.81" class="st1" width="45.57" height="45.57"/>
	<rect x="693.11" y="1181.81" class="st1" width="45.57" height="45.57"/>
	<rect x="1536.23" y="2029.48" class="st1" width="45.57" height="45.57"/>
</g>
<g>
	<polygon points="2944.61,794.81 1645.65,278.33 1562.53,401.03 2163.29,1638.61 2246.4,1515.89 2343.9,1283.44 2663.69,1543.99 
		2815.4,1370.48 2898.52,1247.76 2635.15,1027.63 2861.53,917.55 	"/>
	<polygon class="st2" points="2326.94,1215.52 2209.37,1495.85 2169.28,1555.01 1610.83,404.53 1661.48,329.7 2880.65,814.5 
		2833.1,884.74 2558.61,1018.27 2842.55,1255.62 2782.16,1344.82 2658.78,1485.92 	"/>
	<g>
		<polygon class="st2" points="2243.94,1426.73 1720.01,347.45 2853.68,798.23 2505.83,967.41 2846.12,1251.88 2742.49,1370.4 
			2388.51,1081.97 		"/>
	</g>
	<g>
		<g>
			<path d="M2746.8,1421.26l-343.41-279.75l-157,374.37L1645.65,278.33l1298.96,516.48l-371.69,180.8l325.59,272.16L2746.8,1421.26z
				 M2373.68,1022.47l364.51,297.03l55.53-63.53l-355-296.78l324.05-157.63l-968.34-384.98l447.1,920.99L2373.68,1022.47z"/>
		</g>
	</g>
</g>
</svg>
