<?xml version="1.0" encoding="utf-8"?>
<!-- Generator: Adobe Illustrator 24.0.3, SVG Export Plug-In . SVG Version: 6.00 Build 0)  -->
<svg version="1.1" xmlns="http://www.w3.org/2000/svg" xmlns:xlink="http://www.w3.org/1999/xlink" x="0px" y="0px"
	 viewBox="0 0 2722.3 1334" style="enable-background:new 0 0 2722.3 1334;" xml:space="preserve">
<style type="text/css">
	.st0{display:none;}
	.st1{display:inline;fill:none;stroke:#CE0E2D;stroke-miterlimit:10;}
	.st2{display:inline;opacity:0.17;fill:url(#SVGID_1_);}
	.st3{opacity:0.38;fill:none;stroke:url(#SVGID_2_);stroke-miterlimit:10;}
	.st4{opacity:0.38;fill:none;stroke:url(#SVGID_3_);stroke-miterlimit:10;}
	.st5{opacity:0.38;fill:none;stroke:url(#SVGID_4_);stroke-miterlimit:10;}
	.st6{opacity:0.38;fill:none;stroke:url(#SVGID_5_);stroke-miterlimit:10;}
	.st7{opacity:0.38;fill:none;stroke:url(#SVGID_6_);stroke-miterlimit:10;}
	.st8{opacity:0.38;fill:none;stroke:url(#SVGID_7_);stroke-miterlimit:10;}
	.st9{opacity:0.38;fill:none;stroke:url(#SVGID_8_);stroke-miterlimit:10;}
	.st10{opacity:0.38;fill:none;stroke:url(#SVGID_9_);stroke-miterlimit:10;}
	.st11{opacity:0.38;fill:none;stroke:url(#SVGID_10_);stroke-miterlimit:10;}
	.st12{opacity:0.38;fill:none;stroke:url(#SVGID_11_);stroke-miterlimit:10;}
	.st13{opacity:0.38;fill:none;stroke:url(#SVGID_12_);stroke-miterlimit:10;}
	.st14{opacity:0.38;fill:none;stroke:url(#SVGID_13_);stroke-miterlimit:10;}
	.st15{opacity:0.38;fill:none;stroke:url(#SVGID_14_);stroke-miterlimit:10;}
	.st16{opacity:0.38;fill:none;stroke:url(#SVGID_15_);stroke-miterlimit:10;}
	.st17{opacity:0.38;fill:none;stroke:url(#SVGID_16_);stroke-miterlimit:10;}
	.st18{opacity:0.38;fill:none;stroke:url(#SVGID_17_);stroke-miterlimit:10;}
	.st19{opacity:0.38;fill:none;stroke:url(#SVGID_18_);stroke-miterlimit:10;}
	.st20{opacity:0.38;fill:none;stroke:url(#SVGID_19_);stroke-miterlimit:10;}
	.st21{opacity:0.38;fill:none;stroke:url(#SVGID_20_);stroke-miterlimit:10;}
	.st22{opacity:0.38;fill:none;stroke:url(#SVGID_21_);stroke-miterlimit:10;}
	.st23{opacity:0.38;fill:none;stroke:url(#SVGID_22_);stroke-miterlimit:10;}
	.st24{opacity:0.38;fill:none;stroke:url(#SVGID_23_);stroke-miterlimit:10;}
	.st25{opacity:0.38;fill:none;stroke:url(#SVGID_24_);stroke-miterlimit:10;}
	.st26{opacity:0.38;fill:none;stroke:url(#SVGID_25_);stroke-miterlimit:10;}
	.st27{opacity:0.38;fill:none;stroke:url(#SVGID_26_);stroke-miterlimit:10;}
	.st28{opacity:0.38;fill:none;stroke:url(#SVGID_27_);stroke-miterlimit:10;}
	.st29{opacity:0.38;fill:none;stroke:url(#SVGID_28_);stroke-miterlimit:10;}
	.st30{opacity:0.38;fill:none;stroke:url(#SVGID_29_);stroke-miterlimit:10;}
	.st31{opacity:0.38;fill:none;stroke:url(#SVGID_30_);stroke-miterlimit:10;}
	.st32{opacity:0.38;fill:none;stroke:url(#SVGID_31_);stroke-miterlimit:10;}
	.st33{opacity:0.38;fill:none;stroke:url(#SVGID_32_);stroke-miterlimit:10;}
	.st34{opacity:0.38;fill:none;stroke:url(#SVGID_33_);stroke-miterlimit:10;}
	.st35{opacity:0.38;fill:none;stroke:url(#SVGID_34_);stroke-miterlimit:10;}
	.st36{opacity:0.38;fill:none;stroke:url(#SVGID_35_);stroke-miterlimit:10;}
	.st37{opacity:0.38;fill:none;stroke:url(#SVGID_36_);stroke-miterlimit:10;}
	.st38{opacity:0.38;fill:none;stroke:url(#SVGID_37_);stroke-miterlimit:10;}
	.st39{opacity:0.38;fill:none;stroke:url(#SVGID_38_);stroke-miterlimit:10;}
	.st40{opacity:0.38;fill:none;stroke:url(#SVGID_39_);stroke-miterlimit:10;}
	.st41{opacity:0.38;fill:none;stroke:url(#SVGID_40_);stroke-miterlimit:10;}
	.st42{opacity:0.38;fill:none;stroke:url(#SVGID_41_);stroke-miterlimit:10;}
	.st43{opacity:0.38;fill:none;stroke:url(#SVGID_42_);stroke-miterlimit:10;}
	.st44{opacity:0.38;fill:none;stroke:url(#SVGID_43_);stroke-miterlimit:10;}
	.st45{opacity:0.38;fill:none;stroke:url(#SVGID_44_);stroke-miterlimit:10;}
	.st46{opacity:0.38;fill:none;stroke:url(#SVGID_45_);stroke-miterlimit:10;}
	.st47{opacity:0.38;fill:none;stroke:url(#SVGID_46_);stroke-miterlimit:10;}
	.st48{opacity:0.38;fill:none;stroke:url(#SVGID_47_);stroke-miterlimit:10;}
	.st49{opacity:0.38;fill:none;stroke:url(#SVGID_48_);stroke-miterlimit:10;}
	.st50{opacity:0.38;fill:none;stroke:url(#SVGID_49_);stroke-miterlimit:10;}
	.st51{opacity:0.38;fill:none;stroke:url(#SVGID_50_);stroke-miterlimit:10;}
	.st52{opacity:0.38;fill:none;stroke:url(#SVGID_51_);stroke-miterlimit:10;}
	.st53{opacity:0.38;fill:none;stroke:url(#SVGID_52_);stroke-miterlimit:10;}
	.st54{opacity:0.38;fill:none;stroke:url(#SVGID_53_);stroke-miterlimit:10;}
	.st55{opacity:0.38;fill:none;stroke:url(#SVGID_54_);stroke-miterlimit:10;}
	.st56{opacity:0.38;fill:none;stroke:url(#SVGID_55_);stroke-miterlimit:10;}
	.st57{opacity:0.38;fill:none;stroke:url(#SVGID_56_);stroke-miterlimit:10;}
	.st58{opacity:0.38;fill:none;stroke:url(#SVGID_57_);stroke-miterlimit:10;}
	.st59{opacity:0.38;fill:none;stroke:url(#SVGID_58_);stroke-miterlimit:10;}
	.st60{opacity:0.38;fill:none;stroke:url(#SVGID_59_);stroke-miterlimit:10;}
	.st61{opacity:0.38;fill:none;stroke:url(#SVGID_60_);stroke-miterlimit:10;}
	.st62{opacity:0.38;fill:none;stroke:url(#SVGID_61_);stroke-miterlimit:10;}
	.st63{opacity:0.38;fill:none;stroke:url(#SVGID_62_);stroke-miterlimit:10;}
	.st64{opacity:0.38;fill:none;stroke:url(#SVGID_63_);stroke-miterlimit:10;}
	.st65{opacity:0.38;fill:none;stroke:url(#SVGID_64_);stroke-miterlimit:10;}
	.st66{opacity:0.38;fill:none;stroke:url(#SVGID_65_);stroke-miterlimit:10;}
	.st67{opacity:0.38;fill:none;stroke:url(#SVGID_66_);stroke-miterlimit:10;}
	.st68{opacity:0.38;fill:none;stroke:url(#SVGID_67_);stroke-miterlimit:10;}
	.st69{opacity:0.38;fill:none;stroke:url(#SVGID_68_);stroke-miterlimit:10;}
	.st70{opacity:0.38;fill:none;stroke:url(#SVGID_69_);stroke-miterlimit:10;}
	.st71{opacity:0.38;fill:none;stroke:url(#SVGID_70_);stroke-miterlimit:10;}
	.st72{opacity:0.38;fill:none;stroke:url(#SVGID_71_);stroke-miterlimit:10;}
	.st73{opacity:0.38;fill:none;stroke:url(#SVGID_72_);stroke-miterlimit:10;}
	.st74{opacity:0.38;fill:none;stroke:url(#SVGID_73_);stroke-miterlimit:10;}
	.st75{opacity:0.38;fill:none;stroke:url(#SVGID_74_);stroke-miterlimit:10;}
	.st76{opacity:0.38;fill:none;stroke:url(#SVGID_75_);stroke-miterlimit:10;}
	.st77{opacity:0.38;fill:none;stroke:url(#SVGID_76_);stroke-miterlimit:10;}
	.st78{opacity:0.38;fill:none;stroke:url(#SVGID_77_);stroke-miterlimit:10;}
	.st79{opacity:0.38;fill:none;stroke:url(#SVGID_78_);stroke-miterlimit:10;}
	.st80{opacity:0.38;fill:none;stroke:url(#SVGID_79_);stroke-miterlimit:10;}
	.st81{opacity:0.38;fill:none;stroke:url(#SVGID_80_);stroke-miterlimit:10;}
	.st82{opacity:0.38;fill:none;stroke:url(#SVGID_81_);stroke-miterlimit:10;}
	.st83{opacity:0.38;fill:none;stroke:url(#SVGID_82_);stroke-miterlimit:10;}
	.st84{opacity:0.38;fill:none;stroke:url(#SVGID_83_);stroke-miterlimit:10;}
	.st85{opacity:0.38;fill:none;stroke:url(#SVGID_84_);stroke-miterlimit:10;}
	.st86{opacity:0.38;fill:none;stroke:url(#SVGID_85_);stroke-miterlimit:10;}
	.st87{opacity:0.38;fill:none;stroke:url(#SVGID_86_);stroke-miterlimit:10;}
	.st88{opacity:0.38;fill:none;stroke:url(#SVGID_87_);stroke-miterlimit:10;}
	.st89{opacity:0.38;fill:none;stroke:url(#SVGID_88_);stroke-miterlimit:10;}
	.st90{opacity:0.38;fill:none;stroke:url(#SVGID_89_);stroke-miterlimit:10;}
	.st91{opacity:0.38;fill:none;stroke:url(#SVGID_90_);stroke-miterlimit:10;}
	.st92{opacity:0.38;fill:none;stroke:url(#SVGID_91_);stroke-miterlimit:10;}
	.st93{opacity:0.38;fill:none;stroke:url(#SVGID_92_);stroke-miterlimit:10;}
	.st94{opacity:0.38;fill:none;stroke:url(#SVGID_93_);stroke-miterlimit:10;}
	.st95{opacity:0.38;fill:none;stroke:url(#SVGID_94_);stroke-miterlimit:10;}
	.st96{opacity:0.38;fill:none;stroke:url(#SVGID_95_);stroke-miterlimit:10;}
	.st97{opacity:0.38;fill:none;stroke:url(#SVGID_96_);stroke-miterlimit:10;}
	.st98{opacity:0.38;fill:none;stroke:url(#SVGID_97_);stroke-miterlimit:10;}
	.st99{opacity:0.38;fill:none;stroke:url(#SVGID_98_);stroke-miterlimit:10;}
	.st100{opacity:0.38;fill:none;stroke:url(#SVGID_99_);stroke-miterlimit:10;}
	.st101{opacity:0.38;fill:none;stroke:url(#SVGID_100_);stroke-miterlimit:10;}
	.st102{opacity:0.38;fill:none;stroke:url(#SVGID_101_);stroke-miterlimit:10;}
	.st103{opacity:0.38;fill:none;stroke:url(#SVGID_102_);stroke-miterlimit:10;}
	.st104{opacity:0.38;fill:none;stroke:url(#SVGID_103_);stroke-miterlimit:10;}
	.st105{opacity:0.38;fill:none;stroke:url(#SVGID_104_);stroke-miterlimit:10;}
	.st106{opacity:0.38;fill:none;stroke:url(#SVGID_105_);stroke-miterlimit:10;}
	.st107{opacity:0.38;fill:none;stroke:url(#SVGID_106_);stroke-miterlimit:10;}
	.st108{opacity:0.38;fill:none;stroke:url(#SVGID_107_);stroke-miterlimit:10;}
	.st109{opacity:0.38;fill:none;stroke:url(#SVGID_108_);stroke-miterlimit:10;}
	.st110{opacity:0.38;fill:none;stroke:url(#SVGID_109_);stroke-miterlimit:10;}
	.st111{opacity:0.38;fill:none;stroke:url(#SVGID_110_);stroke-miterlimit:10;}
	.st112{opacity:0.38;fill:none;stroke:url(#SVGID_111_);stroke-miterlimit:10;}
	.st113{opacity:0.38;fill:none;stroke:url(#SVGID_112_);stroke-miterlimit:10;}
	.st114{opacity:0.38;fill:none;stroke:url(#SVGID_113_);stroke-miterlimit:10;}
	.st115{opacity:0.38;fill:none;stroke:url(#SVGID_114_);stroke-miterlimit:10;}
	.st116{opacity:0.38;fill:none;stroke:url(#SVGID_115_);stroke-miterlimit:10;}
	.st117{opacity:0.38;fill:none;stroke:url(#SVGID_116_);stroke-miterlimit:10;}
	.st118{opacity:0.38;fill:none;stroke:url(#SVGID_117_);stroke-miterlimit:10;}
	.st119{opacity:0.38;fill:none;stroke:url(#SVGID_118_);stroke-miterlimit:10;}
	.st120{opacity:0.38;fill:none;stroke:url(#SVGID_119_);stroke-miterlimit:10;}
	.st121{opacity:0.38;fill:none;stroke:url(#SVGID_120_);stroke-miterlimit:10;}
	.st122{opacity:0.38;fill:none;stroke:url(#SVGID_121_);stroke-miterlimit:10;}
	.st123{opacity:0.38;fill:none;stroke:url(#SVGID_122_);stroke-miterlimit:10;}
	.st124{opacity:0.38;fill:none;stroke:url(#SVGID_123_);stroke-miterlimit:10;}
</style>
<g id="Layer_1" class="st0">
	<rect class="st1" width="1603" height="1334"/>
	<image style="display:inline;overflow:visible;" width="1603" height="1334" xlink:href="../service-tab-bg.png" >
	</image>
</g>
<g id="Layer_3" class="st0">
	<linearGradient id="SVGID_1_" gradientUnits="userSpaceOnUse" x1="529.0699" y1="102.4375" x2="1271.9154" y2="1522.9268">
		<stop  offset="0" style="stop-color:#FFFFFF"/>
		<stop  offset="1" style="stop-color:#CE0E2D"/>
	</linearGradient>
	<path class="st2" d="M0,1052.6c0,0,80.4-84.6,0-120.2V0h1603v1164.9c0,0-209.2,51.3-364.9-5.3c-148.9-54.1-232.3-183.2-318.4-175.7
		c-91.2,7.9-57.5,91.9-34.3,108.3c165.1,117.6-234.7,208-323.7,218C245.3,1345.9,0,1246.8,0,1246.8"/>
</g>
<g id="Layer_2">
	<g>
		<linearGradient id="SVGID_2_" gradientUnits="userSpaceOnUse" x1="1129.6573" y1="734.7941" x2="1592.6321" y2="1620.1072">
			<stop  offset="0" style="stop-color:#FFFFFF"/>
			<stop  offset="1" style="stop-color:#CE0E2D"/>
		</linearGradient>
		<path class="st3" d="M0,1326c0,0,533.8,22.9,850.2-12.8c88.9-10,427.5-81.2,54.5-236.2c-218.8-91-56.8-100.4,34.3-108.3
			c86-7.5,169.5,121.6,318.4,175.7c155.7,56.6,797.1-18.5,797.1-18.5l667.8-97.1"/>
		<linearGradient id="SVGID_3_" gradientUnits="userSpaceOnUse" x1="1128.7341" y1="724.3174" x2="1593.5553" y2="1613.1611">
			<stop  offset="0" style="stop-color:#FFFFFF"/>
			<stop  offset="1" style="stop-color:#CE0E2D"/>
		</linearGradient>
		<path class="st4" d="M0,1315.1c0,0,531.2,21.8,847.3-10.7c89.8-9.2,427.9-76.7,56.6-231.4c-217.2-90.3-57-100.3,34.1-108.3
			c86-7.5,169.5,121.6,318.4,175.7c155.7,56.6,796.2-19.1,798.1-19.7c1.4-0.5,667.8-98.5,667.8-98.5"/>
		<linearGradient id="SVGID_4_" gradientUnits="userSpaceOnUse" x1="1127.8109" y1="713.8407" x2="1594.4784" y2="1606.2151">
			<stop  offset="0" style="stop-color:#FFFFFF"/>
			<stop  offset="1" style="stop-color:#CE0E2D"/>
		</linearGradient>
		<path class="st5" d="M0,1304.1c0,0,528.6,20.7,844.4-8.6c90.7-8.4,428.2-72.1,58.7-226.5c-215.6-89.7-57.3-100.3,33.9-108.2
			c86-7.5,169.5,121.6,318.4,175.7c155.7,56.6,795.4-19.6,799.1-20.8c2.8-0.9,667.8-99.8,667.8-99.8"/>
		<linearGradient id="SVGID_5_" gradientUnits="userSpaceOnUse" x1="1126.8877" y1="703.364" x2="1595.4016" y2="1599.2692">
			<stop  offset="0" style="stop-color:#FFFFFF"/>
			<stop  offset="1" style="stop-color:#CE0E2D"/>
		</linearGradient>
		<path class="st6" d="M0,1293.2c0,0,526.1,19.7,841.6-6.4c91.6-7.6,428.6-67.6,60.9-221.7c-214-89.1-57.5-100.2,33.7-108.1
			c86-7.5,169.5,121.6,318.4,175.7c155.7,56.6,794.6-20.2,800.1-22c4.2-1.4,667.8-101.2,667.8-101.2"/>
		<linearGradient id="SVGID_6_" gradientUnits="userSpaceOnUse" x1="1125.9644" y1="692.8874" x2="1596.3247" y2="1592.3231">
			<stop  offset="0" style="stop-color:#FFFFFF"/>
			<stop  offset="1" style="stop-color:#CE0E2D"/>
		</linearGradient>
		<path class="st7" d="M0,1282.2c0,0,523.6,18.7,838.7-4.3c92.6-6.8,429-63.1,63-216.9c-212.4-88.5-57.7-100.1,33.4-108.1
			c86-7.5,169.5,121.6,318.4,175.7c155.7,56.6,793.8-20.7,801.1-23.2c5.6-1.9,667.8-102.6,667.8-102.6"/>
		<linearGradient id="SVGID_7_" gradientUnits="userSpaceOnUse" x1="1125.0411" y1="682.4108" x2="1597.2478" y2="1585.3771">
			<stop  offset="0" style="stop-color:#FFFFFF"/>
			<stop  offset="1" style="stop-color:#CE0E2D"/>
		</linearGradient>
		<path class="st8" d="M0,1271.2c0,0,521.1,17.8,835.8-2.2c93.5-5.9,429.4-58.6,65.1-212c-210.7-87.9-57.9-100.1,33.2-108
			c86-7.5,169.5,121.6,318.4,175.7c155.7,56.6,792.9-21.2,802.1-24.3c7-2.4,667.8-104,667.8-104"/>
		<linearGradient id="SVGID_8_" gradientUnits="userSpaceOnUse" x1="1124.1179" y1="671.9342" x2="1598.1709" y2="1578.4312">
			<stop  offset="0" style="stop-color:#FFFFFF"/>
			<stop  offset="1" style="stop-color:#CE0E2D"/>
		</linearGradient>
		<path class="st9" d="M0,1260.3c0,0,518.6,17,832.9,0c94.4-5.1,430.1-54.8,67.2-207.2c-208.9-87.7-58.2-100,33-107.9
			c86-7.5,169.5,121.6,318.4,175.7c155.7,56.6,792.1-21.8,803.1-25.5c8.4-2.8,667.8-105.3,667.8-105.3"/>
		<linearGradient id="SVGID_9_" gradientUnits="userSpaceOnUse" x1="1123.1947" y1="661.4576" x2="1599.094" y2="1571.4852">
			<stop  offset="0" style="stop-color:#FFFFFF"/>
			<stop  offset="1" style="stop-color:#CE0E2D"/>
		</linearGradient>
		<path class="st10" d="M0,1249.3c0,0,516.2,16.1,830.1,2.1c95.4-4.3,430.5-50.4,69.3-202.4c-207.3-87.2-58.4-99.9,32.8-107.9
			c86-7.5,169.5,121.6,318.4,175.7c155.7,56.6,791.3-22.3,804.1-26.6c9.8-3.3,667.8-106.7,667.8-106.7"/>
		<linearGradient id="SVGID_10_" gradientUnits="userSpaceOnUse" x1="1122.2714" y1="650.9811" x2="1600.017" y2="1564.5392">
			<stop  offset="0" style="stop-color:#FFFFFF"/>
			<stop  offset="1" style="stop-color:#CE0E2D"/>
		</linearGradient>
		<path class="st11" d="M0,1238.4c0,0,513.8,15.4,827.2,4.2c96.3-3.4,431-46.1,71.4-197.6c-205.6-86.6-58.6-99.9,32.5-107.8
			c86-7.5,169.5,121.6,318.4,175.7c155.7,56.6,790.5-22.9,805.1-27.8c11.2-3.8,667.8-108.1,667.8-108.1"/>
		<linearGradient id="SVGID_11_" gradientUnits="userSpaceOnUse" x1="1121.3521" y1="640.4908" x2="1600.9487" y2="1557.5887">
			<stop  offset="0" style="stop-color:#FFFFFF"/>
			<stop  offset="1" style="stop-color:#CE0E2D"/>
		</linearGradient>
		<path class="st12" d="M0,1227.4c0,0,511.6-8.1,824.3,6.3c97.2,4.5,431.4-41.7,73.5-192.7c-204-86.1-58.8-99.8,32.3-107.7
			c86-7.5,169.5,121.6,318.4,175.7c155.7,56.6,789.7-23.4,806.1-29c12.6-4.3,667.8-109.4,667.8-109.4"/>
		<linearGradient id="SVGID_12_" gradientUnits="userSpaceOnUse" x1="1120.4292" y1="630.013" x2="1601.8727" y2="1550.6423">
			<stop  offset="0" style="stop-color:#FFFFFF"/>
			<stop  offset="1" style="stop-color:#CE0E2D"/>
		</linearGradient>
		<path class="st13" d="M0,1216.4c0,0,509.5-10.9,821.4,8.5c98.1,6.1,431.9-37.3,75.6-187.9c-202.3-85.5-59.1-99.7,32.1-107.6
			c86-7.5,169.5,121.6,318.4,175.7c155.7,56.6,788.8-24,807.1-30.1c14.1-4.7,667.8-110.8,667.8-110.8"/>
		<linearGradient id="SVGID_13_" gradientUnits="userSpaceOnUse" x1="1119.5063" y1="619.5353" x2="1602.7965" y2="1543.6959">
			<stop  offset="0" style="stop-color:#FFFFFF"/>
			<stop  offset="1" style="stop-color:#CE0E2D"/>
		</linearGradient>
		<path class="st14" d="M0,1205.5c0,0,507.5-13.5,818.6,10.6c99,7.7,432.3-32.9,77.7-183.1c-200.7-85-59.3-99.7,31.9-107.6
			c86-7.5,169.5,121.6,318.4,175.7c155.7,56.6,788-24.5,808.1-31.3c15.5-5.2,667.8-112.2,667.8-112.2"/>
		<linearGradient id="SVGID_14_" gradientUnits="userSpaceOnUse" x1="1118.5834" y1="609.0577" x2="1603.7202" y2="1536.7496">
			<stop  offset="0" style="stop-color:#FFFFFF"/>
			<stop  offset="1" style="stop-color:#CE0E2D"/>
		</linearGradient>
		<path class="st15" d="M0,1194.5c0,0,505.6-16,815.7,12.7c99.8,9.2,432.7-28.5,79.8-178.2c-199-84.4-59.5-99.6,31.6-107.5
			c86-7.5,169.5,121.6,318.4,175.7c155.7,56.6,787.2-25.1,809.1-32.4c16.9-5.7,667.8-113.5,667.8-113.5"/>
		<linearGradient id="SVGID_15_" gradientUnits="userSpaceOnUse" x1="1117.6605" y1="598.5802" x2="1604.6439" y2="1529.8032">
			<stop  offset="0" style="stop-color:#FFFFFF"/>
			<stop  offset="1" style="stop-color:#CE0E2D"/>
		</linearGradient>
		<path class="st16" d="M0,1183.6c0,0,503.7-18.3,812.8,14.9c100.7,10.8,433.2-24.1,81.9-173.4c-197.4-83.9-59.7-99.5,31.4-107.4
			c86-7.5,169.5,121.6,318.4,175.7c155.7,56.6,786.4-25.6,810.1-33.6c18.3-6.2,667.8-114.9,667.8-114.9"/>
		<linearGradient id="SVGID_16_" gradientUnits="userSpaceOnUse" x1="1116.7375" y1="588.1028" x2="1605.5676" y2="1522.8569">
			<stop  offset="0" style="stop-color:#FFFFFF"/>
			<stop  offset="1" style="stop-color:#CE0E2D"/>
		</linearGradient>
		<path class="st17" d="M0,1172.6c0,0,501.8-20.5,809.9,17c101.5,12.4,433.6-19.7,84-168.6c-195.8-83.4-60-99.4,31.2-107.4
			c86-7.5,169.5,121.6,318.4,175.7c155.7,56.6,785.5-26.2,811.1-34.8c19.7-6.6,667.8-116.3,667.8-116.3"/>
		<linearGradient id="SVGID_17_" gradientUnits="userSpaceOnUse" x1="1115.8147" y1="577.6254" x2="1606.4913" y2="1515.9106">
			<stop  offset="0" style="stop-color:#FFFFFF"/>
			<stop  offset="1" style="stop-color:#CE0E2D"/>
		</linearGradient>
		<path class="st18" d="M0,1161.7c0,0,500-22.6,807.1,19.1c102.3,13.9,434.1-15.3,86.1-163.7c-194.1-82.8-60.2-99.4,31-107.3
			c86-7.5,169.5,121.6,318.4,175.7c155.7,56.6,784.7-26.7,812.1-35.9c21.1-7.1,667.8-117.7,667.8-117.7"/>
		<linearGradient id="SVGID_18_" gradientUnits="userSpaceOnUse" x1="1114.8917" y1="567.1481" x2="1607.4149" y2="1508.9644">
			<stop  offset="0" style="stop-color:#FFFFFF"/>
			<stop  offset="1" style="stop-color:#CE0E2D"/>
		</linearGradient>
		<path class="st19" d="M0,1150.7c0,0,498.2-24.6,804.2,21.2c103.1,15.4,434.5-10.9,88.2-158.9c-192.5-82.3-60.4-99.3,30.7-107.2
			c86-7.5,169.5,121.6,318.4,175.7c155.7,56.6,783.9-27.2,813.1-37.1c22.5-7.6,667.8-119,667.8-119"/>
		<linearGradient id="SVGID_19_" gradientUnits="userSpaceOnUse" x1="1113.9688" y1="556.6709" x2="1608.3385" y2="1502.0182">
			<stop  offset="0" style="stop-color:#FFFFFF"/>
			<stop  offset="1" style="stop-color:#CE0E2D"/>
		</linearGradient>
		<path class="st20" d="M0,1139.7c0,0,496.4-26.4,801.3,23.4c104,17,434.9-6.5,90.3-154.1c-190.8-81.7-60.7-99.2,30.5-107.2
			c86-7.5,169.5,121.6,318.4,175.7c155.7,56.6,783.1-27.8,814.1-38.2c23.9-8.1,667.8-120.4,667.8-120.4"/>
		<linearGradient id="SVGID_20_" gradientUnits="userSpaceOnUse" x1="1113.0458" y1="546.1937" x2="1609.262" y2="1495.0719">
			<stop  offset="0" style="stop-color:#FFFFFF"/>
			<stop  offset="1" style="stop-color:#CE0E2D"/>
		</linearGradient>
		<path class="st21" d="M0,1128.8c0,0,494.6-28.1,798.4,25.5c104.8,18.5,435.4-2.1,92.4-149.3c-189.2-81.2-60.9-99.2,30.3-107.1
			c86-7.5,169.5,121.6,318.4,175.7c155.7,56.6,782.2-28.3,815.1-39.4c25.3-8.5,667.8-121.8,667.8-121.8"/>
		<linearGradient id="SVGID_21_" gradientUnits="userSpaceOnUse" x1="1112.1227" y1="535.7166" x2="1610.1854" y2="1488.1257">
			<stop  offset="0" style="stop-color:#FFFFFF"/>
			<stop  offset="1" style="stop-color:#CE0E2D"/>
		</linearGradient>
		<path class="st22" d="M0,1117.8c0,0,492.9-29.7,795.6,27.6c105.6,20,435.8,2.3,94.5-144.4c-187.5-80.6-61.1-99.1,30.1-107
			c86-7.5,169.5,121.6,318.4,175.7c155.7,56.6,781.4-28.9,816.1-40.6c26.7-9,667.8-123.1,667.8-123.1"/>
		<linearGradient id="SVGID_22_" gradientUnits="userSpaceOnUse" x1="1111.1997" y1="525.2396" x2="1611.1089" y2="1481.1796">
			<stop  offset="0" style="stop-color:#FFFFFF"/>
			<stop  offset="1" style="stop-color:#CE0E2D"/>
		</linearGradient>
		<path class="st23" d="M0,1106.9c0,0,491.2-31.2,792.7,29.7c106.4,21.5,436.3,6.7,96.6-139.6c-185.9-80-61.3-99,29.8-107
			c86-7.5,169.5,121.6,318.4,175.7c155.7,56.6,780.6-29.4,817.1-41.7c28.1-9.5,667.8-124.5,667.8-124.5"/>
		<linearGradient id="SVGID_23_" gradientUnits="userSpaceOnUse" x1="1110.2684" y1="514.7882" x2="1612.0153" y2="1474.2423">
			<stop  offset="0" style="stop-color:#FFFFFF"/>
			<stop  offset="1" style="stop-color:#CE0E2D"/>
		</linearGradient>
		<path class="st24" d="M0,1095.9c0,0,483.5,9.1,789.8,31.9c109.3,8.1,436.7,11.1,98.7-134.8c-184.2-79.5-61.6-99,29.6-106.9
			c86-7.5,169.5,121.6,318.4,175.7c155.7,56.6,779.8-30,818.1-42.9c29.5-10,667.8-125.9,667.8-125.9"/>
		<linearGradient id="SVGID_24_" gradientUnits="userSpaceOnUse" x1="1109.3451" y1="504.312" x2="1612.9381" y2="1467.2965">
			<stop  offset="0" style="stop-color:#FFFFFF"/>
			<stop  offset="1" style="stop-color:#CE0E2D"/>
		</linearGradient>
		<path class="st25" d="M0,1084.9c0,0,481.2,8.9,786.9,34c110.4,9.1,437.2,15.5,100.8-129.9c-182.6-78.9-61.8-98.9,29.4-106.8
			c86-7.5,169.5,121.6,318.4,175.7c155.7,56.6,778.9-30.5,819.1-44c30.9-10.4,667.8-127.2,667.8-127.2"/>
		<linearGradient id="SVGID_25_" gradientUnits="userSpaceOnUse" x1="1108.4216" y1="493.8358" x2="1613.861" y2="1460.3506">
			<stop  offset="0" style="stop-color:#FFFFFF"/>
			<stop  offset="1" style="stop-color:#CE0E2D"/>
		</linearGradient>
		<path class="st26" d="M0,1074c0,0,479,8.7,784.1,36.1c111.4,10,437.6,19.9,102.9-125.1c-181-78.4-62-98.8,29.1-106.8
			c86-7.5,169.5,121.6,318.4,175.7c155.7,56.6,778.1-31.1,820.1-45.2c32.3-10.9,667.8-128.6,667.8-128.6"/>
		<linearGradient id="SVGID_26_" gradientUnits="userSpaceOnUse" x1="1107.4983" y1="483.3597" x2="1614.7838" y2="1453.4048">
			<stop  offset="0" style="stop-color:#FFFFFF"/>
			<stop  offset="1" style="stop-color:#CE0E2D"/>
		</linearGradient>
		<path class="st27" d="M0,1063c0,0,476.7,8.6,781.2,38.3c112.4,11,438,24.3,105-120.3c-179.3-77.8-62.2-98.8,28.9-106.7
			c86-7.5,169.5,121.6,318.4,175.7c155.7,56.6,777.3-31.6,821.1-46.4c33.7-11.4,667.8-130,667.8-130"/>
		<linearGradient id="SVGID_27_" gradientUnits="userSpaceOnUse" x1="1106.575" y1="472.8835" x2="1615.7065" y2="1446.459">
			<stop  offset="0" style="stop-color:#FFFFFF"/>
			<stop  offset="1" style="stop-color:#CE0E2D"/>
		</linearGradient>
		<path class="st28" d="M0,1052.1c0,0,474.5,8.5,778.3,40.4c113.5,11.9,438.5,28.7,107.1-115.5c-177.7-77.3-62.5-98.7,28.7-106.6
			c86-7.5,169.5,121.6,318.4,175.7c155.7,56.6,776.5-32.1,822.1-47.5c35.1-11.8,667.8-131.4,667.8-131.4"/>
		<linearGradient id="SVGID_28_" gradientUnits="userSpaceOnUse" x1="1105.6515" y1="462.4074" x2="1616.6294" y2="1439.5131">
			<stop  offset="0" style="stop-color:#FFFFFF"/>
			<stop  offset="1" style="stop-color:#CE0E2D"/>
		</linearGradient>
		<path class="st29" d="M0,1041.1c0,0,472.2,8.4,775.4,42.5c114.5,12.9,438.9,33.1,109.2-110.6c-176-76.7-62.7-98.6,28.5-106.6
			c86-7.5,169.5,121.6,318.4,175.7c155.7,56.6,775.6-32.7,823.1-48.7c36.5-12.3,667.8-132.7,667.8-132.7"/>
		<linearGradient id="SVGID_29_" gradientUnits="userSpaceOnUse" x1="1104.7281" y1="451.9313" x2="1617.5521" y2="1432.5673">
			<stop  offset="0" style="stop-color:#FFFFFF"/>
			<stop  offset="1" style="stop-color:#CE0E2D"/>
		</linearGradient>
		<path class="st30" d="M0,1030.1c0,0,470,8.3,772.6,44.6c115.6,13.9,439.4,37.5,111.3-105.8c-174.4-76.2-62.9-98.6,28.2-106.5
			c86-7.5,169.5,121.6,318.4,175.7c155.7,56.6,774.8-33.2,824.1-49.8c37.9-12.8,667.8-134.1,667.8-134.1"/>
		<linearGradient id="SVGID_30_" gradientUnits="userSpaceOnUse" x1="1103.8047" y1="441.4552" x2="1618.4749" y2="1425.6215">
			<stop  offset="0" style="stop-color:#FFFFFF"/>
			<stop  offset="1" style="stop-color:#CE0E2D"/>
		</linearGradient>
		<path class="st31" d="M0,1019.2c0,0,467.7,8.3,769.7,46.8c116.6,14.8,439.8,41.9,113.4-101c-172.7-75.6-63.1-98.5,28-106.4
			c86-7.5,169.5,121.6,318.4,175.7c155.7,56.6,774-33.8,825.1-51c39.3-13.3,667.8-135.5,667.8-135.5"/>
		<linearGradient id="SVGID_31_" gradientUnits="userSpaceOnUse" x1="1102.8813" y1="430.9792" x2="1619.3976" y2="1418.6757">
			<stop  offset="0" style="stop-color:#FFFFFF"/>
			<stop  offset="1" style="stop-color:#CE0E2D"/>
		</linearGradient>
		<path class="st32" d="M0,1008.2c0,0,465.5,8.3,766.8,48.9c117.7,15.8,440.2,46.3,115.5-96.1c-171.1-75-63.4-98.4,27.8-106.3
			c86-7.5,169.5,121.6,318.4,175.7c155.7,56.6,773.2-34.3,826.1-52.2c40.7-13.7,667.8-136.8,667.8-136.8"/>
		<linearGradient id="SVGID_32_" gradientUnits="userSpaceOnUse" x1="1101.9579" y1="420.5031" x2="1620.3203" y2="1411.7299">
			<stop  offset="0" style="stop-color:#FFFFFF"/>
			<stop  offset="1" style="stop-color:#CE0E2D"/>
		</linearGradient>
		<path class="st33" d="M0,997.3c0,0,463.3,8.4,763.9,51c118.7,16.8,440.7,50.7,117.6-91.3c-169.5-74.5-63.6-98.4,27.6-106.3
			c86-7.5,169.5,121.6,318.4,175.7c155.7,56.6,772.3-34.9,827.1-53.3c42.2-14.2,667.8-138.2,667.8-138.2"/>
		<linearGradient id="SVGID_33_" gradientUnits="userSpaceOnUse" x1="1101.0344" y1="410.0271" x2="1621.243" y2="1404.7841">
			<stop  offset="0" style="stop-color:#FFFFFF"/>
			<stop  offset="1" style="stop-color:#CE0E2D"/>
		</linearGradient>
		<path class="st34" d="M0,986.3c0,0,461,8.4,761.1,53.2c119.8,17.9,441.1,55.1,119.7-86.5c-167.8-73.9-63.8-98.3,27.3-106.2
			c86-7.5,169.5,121.6,318.4,175.7c155.7,56.6,771.5-35.4,828-54.5c43.6-14.7,667.8-139.6,667.8-139.6"/>
		<linearGradient id="SVGID_34_" gradientUnits="userSpaceOnUse" x1="1100.1111" y1="399.5511" x2="1622.1658" y2="1397.8383">
			<stop  offset="0" style="stop-color:#FFFFFF"/>
			<stop  offset="1" style="stop-color:#CE0E2D"/>
		</linearGradient>
		<path class="st35" d="M0,975.3c0,0,458.8,8.5,758.2,55.3c120.8,18.9,441.6,59.5,121.8-81.6c-166.2-73.3-64-98.2,27.1-106.1
			c86-7.5,169.5,121.6,318.4,175.7c155.7,56.6,770.7-36,829-55.6c45-15.2,667.8-140.9,667.8-140.9"/>
		<linearGradient id="SVGID_35_" gradientUnits="userSpaceOnUse" x1="1099.1876" y1="389.0751" x2="1623.0884" y2="1390.8925">
			<stop  offset="0" style="stop-color:#FFFFFF"/>
			<stop  offset="1" style="stop-color:#CE0E2D"/>
		</linearGradient>
		<path class="st36" d="M0,964.4c0,0,456.5,8.6,755.3,57.4c121.9,19.9,442,63.9,123.9-76.8c-164.5-72.8-64.3-98.1,26.9-106.1
			c86-7.5,169.5,121.6,318.4,175.7c155.7,56.6,769.9-36.5,830-56.8c46.4-15.6,667.8-142.3,667.8-142.3"/>
		<linearGradient id="SVGID_36_" gradientUnits="userSpaceOnUse" x1="1098.2642" y1="378.5992" x2="1624.0111" y2="1383.9467">
			<stop  offset="0" style="stop-color:#FFFFFF"/>
			<stop  offset="1" style="stop-color:#CE0E2D"/>
		</linearGradient>
		<path class="st37" d="M0,953.4c0,0,454.3,8.8,752.4,59.5c122.9,20.9,442.4,68.3,126-72c-162.9-72.2-64.5-98.1,26.7-106
			c86-7.5,169.5,121.6,318.4,175.7c155.7,56.6,769-37,831-58c47.8-16.1,667.8-143.7,667.8-143.7"/>
		<linearGradient id="SVGID_37_" gradientUnits="userSpaceOnUse" x1="1097.3407" y1="368.1232" x2="1624.9337" y2="1377.0009">
			<stop  offset="0" style="stop-color:#FFFFFF"/>
			<stop  offset="1" style="stop-color:#CE0E2D"/>
		</linearGradient>
		<path class="st38" d="M0,942.5c0,0,452.1,9,749.6,61.7c124,22,442.9,72.7,128.1-67.2c-161.2-71.6-64.7-98,26.4-105.9
			c86-7.5,169.5,121.6,318.4,175.7c155.7,56.6,768.2-37.6,832-59.1c49.2-16.6,667.8-145.1,667.8-145.1"/>
		<linearGradient id="SVGID_38_" gradientUnits="userSpaceOnUse" x1="1096.4172" y1="357.6473" x2="1625.8563" y2="1370.0552">
			<stop  offset="0" style="stop-color:#FFFFFF"/>
			<stop  offset="1" style="stop-color:#CE0E2D"/>
		</linearGradient>
		<path class="st39" d="M0,931.5c0,0,449.8,9.1,746.7,63.8c125,23,443.3,77.1,130.2-62.3c-159.6-71.1-64.9-97.9,26.2-105.9
			c86-7.5,169.5,121.6,318.4,175.7c155.7,56.6,767.4-38.1,833-60.3c50.6-17.1,667.8-146.4,667.8-146.4"/>
		<linearGradient id="SVGID_39_" gradientUnits="userSpaceOnUse" x1="1095.4938" y1="347.1714" x2="1626.7791" y2="1363.1094">
			<stop  offset="0" style="stop-color:#FFFFFF"/>
			<stop  offset="1" style="stop-color:#CE0E2D"/>
		</linearGradient>
		<path class="st40" d="M0,920.6c0,0,447.6,9.4,743.8,65.9c126.1,24.1,443.8,81.5,132.3-57.5c-158-70.5-65.2-97.9,26-105.8
			c86-7.5,169.5,121.6,318.4,175.7c155.7,56.6,766.6-38.7,834-61.4c52-17.5,667.8-147.8,667.8-147.8"/>
		<linearGradient id="SVGID_40_" gradientUnits="userSpaceOnUse" x1="1094.5703" y1="336.6955" x2="1627.7017" y2="1356.1636">
			<stop  offset="0" style="stop-color:#FFFFFF"/>
			<stop  offset="1" style="stop-color:#CE0E2D"/>
		</linearGradient>
		<path class="st41" d="M0,909.6c0,0,445.3,9.6,740.9,68c127.1,25.1,444.2,85.9,134.4-52.7C719,855,809.9,827.2,901.1,819.2
			c86-7.5,169.5,121.6,318.4,175.7c155.7,56.6,765.7-39.2,835-62.6c53.4-18,667.8-149.2,667.8-149.2"/>
		<linearGradient id="SVGID_41_" gradientUnits="userSpaceOnUse" x1="1093.6469" y1="326.2197" x2="1628.6243" y2="1349.2179">
			<stop  offset="0" style="stop-color:#FFFFFF"/>
			<stop  offset="1" style="stop-color:#CE0E2D"/>
		</linearGradient>
		<path class="st42" d="M0,898.6c0,0,443.1,9.9,738.1,70.2c128.2,26.2,444.7,90.3,136.5-47.8c-154.7-69.4-65.6-97.7,25.5-105.7
			c86-7.5,169.5,121.6,318.4,175.7c155.7,56.6,764.9-39.8,836-63.8c54.8-18.5,667.8-150.5,667.8-150.5"/>
		<linearGradient id="SVGID_42_" gradientUnits="userSpaceOnUse" x1="1092.7234" y1="315.7438" x2="1629.5468" y2="1342.2721">
			<stop  offset="0" style="stop-color:#FFFFFF"/>
			<stop  offset="1" style="stop-color:#CE0E2D"/>
		</linearGradient>
		<path class="st43" d="M0,887.7c0,0,440.8,10.1,735.2,72.3c129.2,27.3,445.1,94.7,138.6-43c-153.1-68.8-65.9-97.7,25.3-105.6
			c86-7.5,169.5,121.6,318.4,175.7c155.7,56.6,764.1-40.3,837-64.9c56.2-19,667.8-151.9,667.8-151.9"/>
		<linearGradient id="SVGID_43_" gradientUnits="userSpaceOnUse" x1="1091.7999" y1="305.268" x2="1630.4694" y2="1335.3264">
			<stop  offset="0" style="stop-color:#FFFFFF"/>
			<stop  offset="1" style="stop-color:#CE0E2D"/>
		</linearGradient>
		<path class="st44" d="M0,876.7c0,0,438.6,10.4,732.3,74.4c130.3,28.4,445.5,99.2,140.7-38.2c-151.4-68.2-66.1-97.6,25.1-105.5
			c86-7.5,169.5,121.6,318.4,175.7c155.7,56.6,763.3-40.9,838-66.1c57.6-19.4,667.8-153.3,667.8-153.3"/>
		<linearGradient id="SVGID_44_" gradientUnits="userSpaceOnUse" x1="1090.8763" y1="294.7922" x2="1631.392" y2="1328.3806">
			<stop  offset="0" style="stop-color:#FFFFFF"/>
			<stop  offset="1" style="stop-color:#CE0E2D"/>
		</linearGradient>
		<path class="st45" d="M0,865.8c0,0,436.3,10.8,729.4,76.6c131.3,29.5,446,103.6,142.8-33.4c-149.8-67.6-66.3-97.5,24.8-105.5
			c86-7.5,169.5,121.6,318.4,175.7c155.7,56.6,762.4-41.4,839-67.2c59-19.9,667.8-154.7,667.8-154.7"/>
		<linearGradient id="SVGID_45_" gradientUnits="userSpaceOnUse" x1="1089.9529" y1="284.3164" x2="1632.3145" y2="1321.4349">
			<stop  offset="0" style="stop-color:#FFFFFF"/>
			<stop  offset="1" style="stop-color:#CE0E2D"/>
		</linearGradient>
		<path class="st46" d="M0,854.8c0,0,434,11.1,726.6,78.7c132.4,30.6,446.4,108,144.9-28.5c-148.1-67.1-66.5-97.5,24.6-105.4
			c86-7.5,169.5,121.6,318.4,175.7c155.7,56.6,761.6-42,840-68.4c60.4-20.4,667.8-156,667.8-156"/>
		<linearGradient id="SVGID_46_" gradientUnits="userSpaceOnUse" x1="1089.0294" y1="273.8406" x2="1633.2371" y2="1314.4893">
			<stop  offset="0" style="stop-color:#FFFFFF"/>
			<stop  offset="1" style="stop-color:#CE0E2D"/>
		</linearGradient>
		<path class="st47" d="M0,843.8c0,0,431.8,11.5,723.7,80.8c133.4,31.7,446.9,112.4,147-23.7c-146.5-66.5-66.8-97.4,24.4-105.3
			c86-7.5,169.5,121.6,318.4,175.7c155.7,56.6,760.8-42.5,841-69.6c61.8-20.9,667.8-157.4,667.8-157.4"/>
		<linearGradient id="SVGID_47_" gradientUnits="userSpaceOnUse" x1="1088.1058" y1="263.3648" x2="1634.1595" y2="1307.5435">
			<stop  offset="0" style="stop-color:#FFFFFF"/>
			<stop  offset="1" style="stop-color:#CE0E2D"/>
		</linearGradient>
		<path class="st48" d="M0,832.9c0,0,429.5,11.8,720.8,82.9c134.5,32.8,447.3,116.8,149.1-18.9c-144.9-65.9-67-97.3,24.2-105.3
			c86-7.5,169.5,121.6,318.4,175.7c155.7,56.6,760-43,842-70.7c63.2-21.3,667.8-158.8,667.8-158.8"/>
		<linearGradient id="SVGID_48_" gradientUnits="userSpaceOnUse" x1="1087.1824" y1="252.8891" x2="1635.082" y2="1300.5978">
			<stop  offset="0" style="stop-color:#FFFFFF"/>
			<stop  offset="1" style="stop-color:#CE0E2D"/>
		</linearGradient>
		<path class="st49" d="M0,821.9c0,0,427.2,12.2,717.9,85.1c135.5,33.9,447.7,121.2,151.2-14c-143.2-65.3-67.2-97.3,23.9-105.2
			c86-7.5,169.5,121.6,318.4,175.7c155.7,56.6,759.1-43.6,843-71.9c64.6-21.8,667.8-160.1,667.8-160.1"/>
		<linearGradient id="SVGID_49_" gradientUnits="userSpaceOnUse" x1="1086.2589" y1="242.4134" x2="1636.0045" y2="1293.6521">
			<stop  offset="0" style="stop-color:#FFFFFF"/>
			<stop  offset="1" style="stop-color:#CE0E2D"/>
		</linearGradient>
		<path class="st50" d="M0,811c0,0,425,12.6,715.1,87.2c136.5,35.1,448.2,125.6,153.3-9.2c-141.6-64.8-67.4-97.2,23.7-105.1
			c86-7.5,169.5,121.6,318.4,175.7c155.7,56.6,758.3-44.1,844-73c66-22.3,667.8-161.5,667.8-161.5"/>
		<linearGradient id="SVGID_50_" gradientUnits="userSpaceOnUse" x1="1085.3353" y1="231.9377" x2="1636.927" y2="1286.7064">
			<stop  offset="0" style="stop-color:#FFFFFF"/>
			<stop  offset="1" style="stop-color:#CE0E2D"/>
		</linearGradient>
		<path class="st51" d="M0,800c0,0,422.7,13.1,712.2,89.3c137.6,36.2,448.6,130.1,155.4-4.4c-140-64.2-67.7-97.1,23.5-105
			c86-7.5,169.5,121.6,318.4,175.7c155.7,56.6,757.5-44.7,845-74.2c67.4-22.7,667.8-162.9,667.8-162.9"/>
		<linearGradient id="SVGID_51_" gradientUnits="userSpaceOnUse" x1="1084.4117" y1="221.462" x2="1637.8495" y2="1279.7607">
			<stop  offset="0" style="stop-color:#FFFFFF"/>
			<stop  offset="1" style="stop-color:#CE0E2D"/>
		</linearGradient>
		<path class="st52" d="M0,789c0,0,420.4,13.5,709.3,91.5c138.6,37.4,449.1,134.5,157.5,0.5c-138.3-63.6-67.9-97.1,23.3-105
			c86-7.5,169.5,121.6,318.4,175.7c155.7,56.6,756.7-45.2,846-75.4c68.8-23.2,667.8-164.2,667.8-164.2"/>
		<linearGradient id="SVGID_52_" gradientUnits="userSpaceOnUse" x1="1083.4883" y1="210.9863" x2="1638.772" y2="1272.8151">
			<stop  offset="0" style="stop-color:#FFFFFF"/>
			<stop  offset="1" style="stop-color:#CE0E2D"/>
		</linearGradient>
		<path class="st53" d="M0,778.1c0,0,418.1,14,706.4,93.6c139.6,38.5,449.5,138.9,159.6,5.3c-136.7-63-68.1-97,23-104.9
			c86-7.5,169.5,121.6,318.4,175.7c155.7,56.6,755.8-45.8,847-76.5c70.3-23.7,667.8-165.6,667.8-165.6"/>
		<linearGradient id="SVGID_53_" gradientUnits="userSpaceOnUse" x1="1082.5647" y1="200.5107" x2="1639.6945" y2="1265.8694">
			<stop  offset="0" style="stop-color:#FFFFFF"/>
			<stop  offset="1" style="stop-color:#CE0E2D"/>
		</linearGradient>
		<path class="st54" d="M0,767.1c0,0,415.8,14.5,703.6,95.7c140.7,39.7,450,143.3,161.7,10.1C730.2,810.5,797,776,888.1,768.1
			c86-7.5,169.5,121.6,318.4,175.7c155.7,56.6,755-46.3,848-77.7c71.7-24.2,667.8-167,667.8-167"/>
		<linearGradient id="SVGID_54_" gradientUnits="userSpaceOnUse" x1="1081.6411" y1="190.035" x2="1640.6169" y2="1258.9237">
			<stop  offset="0" style="stop-color:#FFFFFF"/>
			<stop  offset="1" style="stop-color:#CE0E2D"/>
		</linearGradient>
		<path class="st55" d="M0,756.2c0,0,413.5,14.9,700.7,97.8c141.7,40.9,450.4,147.7,163.8,14.9c-133.4-61.8-68.6-96.8,22.6-104.8
			c86-7.5,169.5,121.6,318.4,175.7c155.7,56.6,754.2-46.9,849-78.8c73.1-24.6,667.8-168.4,667.8-168.4"/>
		<linearGradient id="SVGID_55_" gradientUnits="userSpaceOnUse" x1="1080.7177" y1="179.5594" x2="1641.5393" y2="1251.978">
			<stop  offset="0" style="stop-color:#FFFFFF"/>
			<stop  offset="1" style="stop-color:#CE0E2D"/>
		</linearGradient>
		<path class="st56" d="M0,745.2c0,0,411.2,15.5,697.8,100c142.7,42.1,450.8,152.2,165.9,19.8C732,803.7,795,768.2,886.1,760.2
			c86-7.5,169.5,121.6,318.4,175.7c155.7,56.6,753.4-47.4,850-80c74.5-25.1,667.8-169.7,667.8-169.7"/>
		<linearGradient id="SVGID_56_" gradientUnits="userSpaceOnUse" x1="1079.7941" y1="169.0838" x2="1642.4618" y2="1245.0323">
			<stop  offset="0" style="stop-color:#FFFFFF"/>
			<stop  offset="1" style="stop-color:#CE0E2D"/>
		</linearGradient>
		<path class="st57" d="M0,734.3c0,0,408.9,16,694.9,102.1c143.7,43.3,451.3,156.6,168,24.6c-130.2-60.7-69-96.7,22.1-104.6
			c86-7.5,169.5,121.6,318.4,175.7c155.7,56.6,752.5-47.9,851-81.2c75.9-25.6,667.8-171.1,667.8-171.1"/>
		<linearGradient id="SVGID_57_" gradientUnits="userSpaceOnUse" x1="1078.8705" y1="158.6083" x2="1643.3842" y2="1238.0867">
			<stop  offset="0" style="stop-color:#FFFFFF"/>
			<stop  offset="1" style="stop-color:#CE0E2D"/>
		</linearGradient>
		<path class="st58" d="M0,723.3c0,0,406.6,16.5,692.1,104.2c144.8,44.5,451.7,161,170.1,29.4c-128.5-60.1-69.2-96.6,21.9-104.6
			c86-7.5,169.5,121.6,318.4,175.7c155.7,56.6,751.7-48.5,852-82.3c77.3-26.1,667.8-172.5,667.8-172.5"/>
		<linearGradient id="SVGID_58_" gradientUnits="userSpaceOnUse" x1="1077.9469" y1="148.1327" x2="1644.3065" y2="1231.141">
			<stop  offset="0" style="stop-color:#FFFFFF"/>
			<stop  offset="1" style="stop-color:#CE0E2D"/>
		</linearGradient>
		<path class="st59" d="M0,712.3c0,0,404.2,17,689.2,106.3c145.8,45.7,452.2,165.4,172.2,34.3c-126.9-59.5-69.5-96.6,21.7-104.5
			c86-7.5,169.5,121.6,318.4,175.7c155.7,56.6,750.9-49,853-83.5c78.7-26.5,667.8-173.8,667.8-173.8"/>
		<linearGradient id="SVGID_59_" gradientUnits="userSpaceOnUse" x1="1077.0233" y1="137.6572" x2="1645.229" y2="1224.1953">
			<stop  offset="0" style="stop-color:#FFFFFF"/>
			<stop  offset="1" style="stop-color:#CE0E2D"/>
		</linearGradient>
		<path class="st60" d="M0,701.4c0,0,401.9,17.6,686.3,108.5c146.8,46.9,452.6,169.9,174.4,39.1c-125.3-58.9-69.7-96.5,21.5-104.4
			c86-7.5,169.5,121.6,318.4,175.7c155.7,56.6,750.1-49.6,854-84.6c80.1-27,667.8-175.2,667.8-175.2"/>
		<linearGradient id="SVGID_60_" gradientUnits="userSpaceOnUse" x1="1076.0997" y1="127.1816" x2="1646.1514" y2="1217.2496">
			<stop  offset="0" style="stop-color:#FFFFFF"/>
			<stop  offset="1" style="stop-color:#CE0E2D"/>
		</linearGradient>
		<path class="st61" d="M0,690.4c0,0,399.6,18.2,683.4,110.6c147.8,48.1,453,174.3,176.5,43.9c-123.6-58.3-69.9-96.4,21.2-104.4
			c86-7.5,169.5,121.6,318.4,175.7c155.7,56.6,749.2-50.1,855-85.8c81.5-27.5,667.8-176.6,667.8-176.6"/>
		<linearGradient id="SVGID_61_" gradientUnits="userSpaceOnUse" x1="1075.1761" y1="116.7061" x2="1647.0737" y2="1210.3041">
			<stop  offset="0" style="stop-color:#FFFFFF"/>
			<stop  offset="1" style="stop-color:#CE0E2D"/>
		</linearGradient>
		<path class="st62" d="M0,679.5c0,0,397.2,18.7,680.6,112.7c148.8,49.4,453.5,178.7,178.6,48.8c-122-57.7-70.2-96.4,21-104.3
			c86-7.5,169.5,121.6,318.4,175.7c155.7,56.6,748.4-50.7,856-87c82.9-28,667.8-177.9,667.8-177.9"/>
		<linearGradient id="SVGID_62_" gradientUnits="userSpaceOnUse" x1="1074.2526" y1="106.2306" x2="1647.9961" y2="1203.3584">
			<stop  offset="0" style="stop-color:#FFFFFF"/>
			<stop  offset="1" style="stop-color:#CE0E2D"/>
		</linearGradient>
		<path class="st63" d="M0,668.5c0,0,394.9,19.3,677.7,114.9c149.8,50.6,453.9,183.2,180.7,53.6C738,779.8,788,740.6,879.1,732.7
			c86-7.5,169.5,121.6,318.4,175.7c155.7,56.6,747.6-51.2,857-88.1c84.3-28.4,667.8-179.3,667.8-179.3"/>
		<linearGradient id="SVGID_63_" gradientUnits="userSpaceOnUse" x1="1073.329" y1="95.7552" x2="1648.9183" y2="1196.4127">
			<stop  offset="0" style="stop-color:#FFFFFF"/>
			<stop  offset="1" style="stop-color:#CE0E2D"/>
		</linearGradient>
		<path class="st64" d="M0,657.5c0,0,392.5,19.9,674.8,117c150.8,51.8,454.3,187.6,182.8,58.4c-118.8-56.5-70.6-96.2,20.6-104.2
			c86-7.5,169.5,121.6,318.4,175.7c155.7,56.6,746.8-51.8,858-89.3c85.7-28.9,667.8-180.7,667.8-180.7"/>
		<linearGradient id="SVGID_64_" gradientUnits="userSpaceOnUse" x1="1072.4054" y1="85.2797" x2="1649.8407" y2="1189.4672">
			<stop  offset="0" style="stop-color:#FFFFFF"/>
			<stop  offset="1" style="stop-color:#CE0E2D"/>
		</linearGradient>
		<path class="st65" d="M0,646.6c0,0,390.2,20.5,671.9,119.1c151.8,53.1,454.8,192,184.9,63.2C739.7,773,786,732.8,877.1,724.8
			c86-7.5,169.5,121.6,318.4,175.7c155.7,56.6,745.9-52.3,859-90.4c87.1-29.4,667.8-182.1,667.8-182.1"/>
		<linearGradient id="SVGID_65_" gradientUnits="userSpaceOnUse" x1="1071.4818" y1="74.8043" x2="1650.7631" y2="1182.5215">
			<stop  offset="0" style="stop-color:#FFFFFF"/>
			<stop  offset="1" style="stop-color:#CE0E2D"/>
		</linearGradient>
		<path class="st66" d="M0,635.6c0,0,387.8,21.2,669.1,121.2c152.8,54.4,455.2,196.5,187,68.1c-115.5-55.3-71.1-96.1,20.1-104
			c86-7.5,169.5,121.6,318.4,175.7c155.7,56.6,745.1-52.8,860-91.6c88.5-29.9,667.8-183.4,667.8-183.4"/>
		<linearGradient id="SVGID_66_" gradientUnits="userSpaceOnUse" x1="1070.5582" y1="64.3288" x2="1651.6853" y2="1175.5759">
			<stop  offset="0" style="stop-color:#FFFFFF"/>
			<stop  offset="1" style="stop-color:#CE0E2D"/>
		</linearGradient>
		<path class="st67" d="M0,624.7c0,0,385.4,21.8,666.2,123.4c153.8,55.6,455.7,200.9,189.1,72.9c-113.9-54.7-71.3-96,19.9-104
			c86-7.5,169.5,121.6,318.4,175.7c155.7,56.6,744.3-53.4,861-92.8c89.9-30.3,667.8-184.8,667.8-184.8"/>
		<linearGradient id="SVGID_67_" gradientUnits="userSpaceOnUse" x1="1069.6346" y1="53.8534" x2="1652.6077" y2="1168.6302">
			<stop  offset="0" style="stop-color:#FFFFFF"/>
			<stop  offset="1" style="stop-color:#CE0E2D"/>
		</linearGradient>
		<path class="st68" d="M0,613.7c0,0,383,22.4,663.3,125.5c154.7,56.9,456.1,205.4,191.2,77.7C742.2,762.9,783,721,874.1,713
			c86-7.5,169.5,121.6,318.4,175.7c155.7,56.6,743.5-53.9,862-93.9c91.3-30.8,667.8-186.2,667.8-186.2"/>
		<linearGradient id="SVGID_68_" gradientUnits="userSpaceOnUse" x1="1068.7111" y1="43.3781" x2="1653.5299" y2="1161.6847">
			<stop  offset="0" style="stop-color:#FFFFFF"/>
			<stop  offset="1" style="stop-color:#CE0E2D"/>
		</linearGradient>
		<path class="st69" d="M0,602.7c0,0,380.7,23.1,660.4,127.6c155.7,58.2,456.5,209.8,193.3,82.6C743.1,759.5,782,717,873.1,709.1
			c86-7.5,169.5,121.6,318.4,175.7c155.7,56.6,742.6-54.5,863-95.1c92.7-31.3,667.8-187.5,667.8-187.5"/>
		<linearGradient id="SVGID_69_" gradientUnits="userSpaceOnUse" x1="1067.7874" y1="32.9027" x2="1654.4521" y2="1154.739">
			<stop  offset="0" style="stop-color:#FFFFFF"/>
			<stop  offset="1" style="stop-color:#CE0E2D"/>
		</linearGradient>
		<path class="st70" d="M0,591.8c0,0,378.3,23.7,657.6,129.7c156.7,59.5,457,214.2,195.4,87.4c-109-52.9-72-95.8,19.2-103.7
			c86-7.5,169.5,121.6,318.4,175.7c155.7,56.6,741.8-55,864-96.2c94.1-31.7,667.8-188.9,667.8-188.9"/>
		<linearGradient id="SVGID_70_" gradientUnits="userSpaceOnUse" x1="1066.8638" y1="22.4274" x2="1655.3744" y2="1147.7935">
			<stop  offset="0" style="stop-color:#FFFFFF"/>
			<stop  offset="1" style="stop-color:#CE0E2D"/>
		</linearGradient>
		<path class="st71" d="M0,580.8c0,0,375.9,24.4,654.7,131.9c157.7,60.8,457.4,218.7,197.5,92.2c-107.4-52.2-72.2-95.8,19-103.7
			c86-7.5,169.5,121.6,318.4,175.7c155.7,56.6,741-55.6,865-97.4c95.5-32.2,667.8-190.3,667.8-190.3"/>
		<linearGradient id="SVGID_71_" gradientUnits="userSpaceOnUse" x1="1065.9402" y1="11.952" x2="1656.2968" y2="1140.8479">
			<stop  offset="0" style="stop-color:#FFFFFF"/>
			<stop  offset="1" style="stop-color:#CE0E2D"/>
		</linearGradient>
		<path class="st72" d="M0,569.9c0,0,373.5,25.1,651.8,134c158.6,62.1,457.8,223.1,199.6,97c-105.8-51.6-72.4-95.7,18.7-103.6
			c86-7.5,169.5,121.6,318.4,175.7c155.7,56.6,740.2-56.1,866-98.6c97-32.7,667.8-191.6,667.8-191.6"/>
		<linearGradient id="SVGID_72_" gradientUnits="userSpaceOnUse" x1="1065.0165" y1="1.4767" x2="1657.219" y2="1133.9022">
			<stop  offset="0" style="stop-color:#FFFFFF"/>
			<stop  offset="1" style="stop-color:#CE0E2D"/>
		</linearGradient>
		<path class="st73" d="M0,558.9c0,0,371,25.8,648.9,136.1c159.6,63.4,458.3,227.6,201.7,101.9c-104.1-51-72.6-95.6,18.5-103.5
			c86-7.5,169.5,121.6,318.4,175.7c155.7,56.6,739.3-56.7,867-99.7c98.4-33.2,667.8-193,667.8-193"/>
		<linearGradient id="SVGID_73_" gradientUnits="userSpaceOnUse" x1="1064.0929" y1="-8.9986" x2="1658.1411" y2="1126.9567">
			<stop  offset="0" style="stop-color:#FFFFFF"/>
			<stop  offset="1" style="stop-color:#CE0E2D"/>
		</linearGradient>
		<path class="st74" d="M0,547.9c0,0,368.6,26.4,646.1,138.3c160.5,64.7,458.7,232,203.8,106.7c-102.5-50.4-72.9-95.5,18.3-103.5
			c86-7.5,169.5,121.6,318.4,175.7c155.7,56.6,738.5-57.2,868-100.9c99.8-33.6,667.8-194.4,667.8-194.4"/>
		<linearGradient id="SVGID_74_" gradientUnits="userSpaceOnUse" x1="1063.1693" y1="-19.4738" x2="1659.0634" y2="1120.0111">
			<stop  offset="0" style="stop-color:#FFFFFF"/>
			<stop  offset="1" style="stop-color:#CE0E2D"/>
		</linearGradient>
		<path class="st75" d="M0,537c0,0,366.2,27.1,643.2,140.4c161.5,66,459.1,236.5,205.9,111.5c-100.9-49.8-73.1-95.5,18.1-103.4
			c86-7.5,169.5,121.6,318.4,175.7c155.7,56.6,737.7-57.8,869-102c101.2-34.1,667.8-195.8,667.8-195.8"/>
		<linearGradient id="SVGID_75_" gradientUnits="userSpaceOnUse" x1="1062.2456" y1="-29.9491" x2="1659.9856" y2="1113.0656">
			<stop  offset="0" style="stop-color:#FFFFFF"/>
			<stop  offset="1" style="stop-color:#CE0E2D"/>
		</linearGradient>
		<path class="st76" d="M0,526c0,0,363.8,27.8,640.3,142.5c162.4,67.4,459.6,241,208,116.4c-99.3-49.2-73.3-95.4,17.8-103.3
			c86-7.5,169.5,121.6,318.4,175.7c155.7,56.6,736.9-58.3,870-103.2c102.6-34.6,667.8-197.1,667.8-197.1"/>
		<linearGradient id="SVGID_76_" gradientUnits="userSpaceOnUse" x1="1061.322" y1="-40.4243" x2="1660.9078" y2="1106.1199">
			<stop  offset="0" style="stop-color:#FFFFFF"/>
			<stop  offset="1" style="stop-color:#CE0E2D"/>
		</linearGradient>
		<path class="st77" d="M0,515.1c0,0,361.3,28.5,637.4,144.6c163.4,68.7,460,245.4,210.1,121.2c-97.7-48.5-73.5-95.3,17.6-103.3
			c86-7.5,169.5,121.6,318.4,175.7c155.7,56.6,736-58.8,871-104.4c104-35.1,667.8-198.5,667.8-198.5"/>
		<linearGradient id="SVGID_77_" gradientUnits="userSpaceOnUse" x1="1060.3983" y1="-50.8995" x2="1661.83" y2="1099.1743">
			<stop  offset="0" style="stop-color:#FFFFFF"/>
			<stop  offset="1" style="stop-color:#CE0E2D"/>
		</linearGradient>
		<path class="st78" d="M0,504.1c0,0,358.9,29.3,634.6,146.8c164.3,70,460.4,249.9,212.2,126c-96-47.9-73.8-95.3,17.4-103.2
			c86-7.5,169.5,121.6,318.4,175.7c155.7,56.6,735.2-59.4,872-105.5c105.4-35.5,667.8-199.9,667.8-199.9"/>
		<linearGradient id="SVGID_78_" gradientUnits="userSpaceOnUse" x1="1059.4747" y1="-61.3747" x2="1662.7521" y2="1092.2288">
			<stop  offset="0" style="stop-color:#FFFFFF"/>
			<stop  offset="1" style="stop-color:#CE0E2D"/>
		</linearGradient>
		<path class="st79" d="M0,493.2c0,0,356.4,30,631.7,148.9c165.2,71.4,460.9,254.4,214.3,130.9c-94.4-47.3-74-95.2,17.2-103.1
			c86-7.5,169.5,121.6,318.4,175.7c155.7,56.6,734.4-59.9,873-106.7c106.8-36,667.8-201.2,667.8-201.2"/>
		<linearGradient id="SVGID_79_" gradientUnits="userSpaceOnUse" x1="1058.551" y1="-71.8499" x2="1663.6743" y2="1085.2832">
			<stop  offset="0" style="stop-color:#FFFFFF"/>
			<stop  offset="1" style="stop-color:#CE0E2D"/>
		</linearGradient>
		<path class="st80" d="M0,482.2c0,0,354,30.7,628.8,151C795,706,1090.1,892,845.2,768.9c-92.8-46.7-74.2-95.1,16.9-103.1
			c86-7.5,169.5,121.6,318.4,175.7c155.7,56.6,733.6-60.5,874-107.8c108.2-36.5,667.8-202.6,667.8-202.6"/>
		<linearGradient id="SVGID_80_" gradientUnits="userSpaceOnUse" x1="1057.6274" y1="-82.3251" x2="1664.5964" y2="1078.3376">
			<stop  offset="0" style="stop-color:#FFFFFF"/>
			<stop  offset="1" style="stop-color:#CE0E2D"/>
		</linearGradient>
		<path class="st81" d="M0,471.2c0,0,351.5,31.4,625.9,153.2c167.1,74.1,461.7,263.3,218.5,140.5c-91.2-46-74.4-95.1,16.7-103
			c86-7.5,169.5,121.6,318.4,175.7c155.7,56.6,732.7-61,875-109c109.6-37,667.8-204,667.8-204"/>
		<linearGradient id="SVGID_81_" gradientUnits="userSpaceOnUse" x1="1056.7037" y1="-92.8002" x2="1665.5186" y2="1071.3921">
			<stop  offset="0" style="stop-color:#FFFFFF"/>
			<stop  offset="1" style="stop-color:#CE0E2D"/>
		</linearGradient>
		<path class="st82" d="M0,460.3c0,0,349,32.2,623.1,155.3c168,75.5,462.2,267.8,220.6,145.3c-89.6-45.4-74.7-95,16.5-102.9
			c86-7.5,169.5,121.6,318.4,175.7c155.7,56.6,731.9-61.6,876-110.2c111-37.4,667.8-205.3,667.8-205.3"/>
		<linearGradient id="SVGID_82_" gradientUnits="userSpaceOnUse" x1="1055.78" y1="-103.2753" x2="1666.4407" y2="1064.4465">
			<stop  offset="0" style="stop-color:#FFFFFF"/>
			<stop  offset="1" style="stop-color:#CE0E2D"/>
		</linearGradient>
		<path class="st83" d="M0,449.3c0,0,346.6,32.9,620.2,157.4c168.9,76.9,462.6,272.3,222.7,150.2c-88-44.8-74.9-94.9,16.3-102.9
			c86-7.5,169.5,121.6,318.4,175.7c155.7,56.6,731.1-62.1,877-111.3c112.4-37.9,667.8-206.7,667.8-206.7"/>
		<linearGradient id="SVGID_83_" gradientUnits="userSpaceOnUse" x1="1054.8564" y1="-113.7504" x2="1667.3628" y2="1057.501">
			<stop  offset="0" style="stop-color:#FFFFFF"/>
			<stop  offset="1" style="stop-color:#CE0E2D"/>
		</linearGradient>
		<path class="st84" d="M0,438.4c0,0,344.1,33.6,617.3,159.5c169.8,78.2,463,276.7,224.8,155c-86.3-44.1-75.1-94.9,16-102.8
			c86-7.5,169.5,121.6,318.4,175.7c155.7,56.6,730.3-62.7,878-112.5c113.8-38.4,667.8-208.1,667.8-208.1"/>
		<linearGradient id="SVGID_84_" gradientUnits="userSpaceOnUse" x1="1053.9327" y1="-124.2254" x2="1668.2849" y2="1050.5554">
			<stop  offset="0" style="stop-color:#FFFFFF"/>
			<stop  offset="1" style="stop-color:#CE0E2D"/>
		</linearGradient>
		<path class="st85" d="M0,427.4c0,0,341.6,34.4,614.4,161.7c170.7,79.6,463.4,281.2,226.9,159.8c-84.7-43.5-75.4-94.8,15.8-102.7
			c86-7.5,169.5,121.6,318.4,175.7c155.7,56.6,729.4-63.2,879-113.6c115.2-38.9,667.8-209.5,667.8-209.5"/>
		<linearGradient id="SVGID_85_" gradientUnits="userSpaceOnUse" x1="1053.009" y1="-134.7005" x2="1669.207" y2="1043.61">
			<stop  offset="0" style="stop-color:#FFFFFF"/>
			<stop  offset="1" style="stop-color:#CE0E2D"/>
		</linearGradient>
		<path class="st86" d="M0,416.4c0,0,339.1,35.1,611.6,163.8c171.6,81,463.8,285.7,229,164.7c-83.1-42.9-75.6-94.7,15.6-102.7
			c86-7.5,169.5,121.6,318.4,175.7c155.7,56.6,728.6-63.7,880-114.8c116.6-39.3,667.8-210.8,667.8-210.8"/>
		<linearGradient id="SVGID_86_" gradientUnits="userSpaceOnUse" x1="1052.0854" y1="-145.1755" x2="1670.129" y2="1036.6644">
			<stop  offset="0" style="stop-color:#FFFFFF"/>
			<stop  offset="1" style="stop-color:#CE0E2D"/>
		</linearGradient>
		<path class="st87" d="M0,405.5c0,0,336.6,35.9,608.7,165.9c172.5,82.4,464.3,290.2,231.1,169.5c-81.5-42.2-75.8-94.7,15.3-102.6
			c86-7.5,169.5,121.6,318.4,175.7c155.7,56.6,727.8-64.3,881-116c118-39.8,667.8-212.2,667.8-212.2"/>
		<linearGradient id="SVGID_87_" gradientUnits="userSpaceOnUse" x1="1051.1617" y1="-155.6505" x2="1671.0511" y2="1029.7189">
			<stop  offset="0" style="stop-color:#FFFFFF"/>
			<stop  offset="1" style="stop-color:#CE0E2D"/>
		</linearGradient>
		<path class="st88" d="M0,394.5c0,0,334.1,36.7,605.8,168c173.4,83.8,464.7,294.7,233.2,174.3c-79.9-41.6-76-94.6,15.1-102.5
			c86-7.5,169.5,121.6,318.4,175.7c155.7,56.6,727-64.8,882-117.1c119.4-40.3,667.8-213.6,667.8-213.6"/>
		<linearGradient id="SVGID_88_" gradientUnits="userSpaceOnUse" x1="1050.238" y1="-166.1255" x2="1671.9731" y2="1022.7733">
			<stop  offset="0" style="stop-color:#FFFFFF"/>
			<stop  offset="1" style="stop-color:#CE0E2D"/>
		</linearGradient>
		<path class="st89" d="M0,383.6c0,0,331.5,37.4,602.9,170.2C777.2,639,1068,853,838.2,732.9c-78.3-40.9-76.3-94.5,14.9-102.5
			c86-7.5,169.5,121.6,318.4,175.7c155.7,56.6,726.2-65.4,883-118.3c120.8-40.8,667.8-214.9,667.8-214.9"/>
		<linearGradient id="SVGID_89_" gradientUnits="userSpaceOnUse" x1="1049.3145" y1="-176.6004" x2="1672.8953" y2="1015.8278">
			<stop  offset="0" style="stop-color:#FFFFFF"/>
			<stop  offset="1" style="stop-color:#CE0E2D"/>
		</linearGradient>
		<path class="st90" d="M0,372.6c0,0,329,38.2,600.1,172.3c175.2,86.7,465.5,303.7,237.4,184c-76.7-40.3-76.5-94.5,14.7-102.4
			c86-7.5,169.5,121.6,318.4,175.7c155.7,56.6,725.3-65.9,884-119.4c122.2-41.2,667.8-216.3,667.8-216.3"/>
		<linearGradient id="SVGID_90_" gradientUnits="userSpaceOnUse" x1="1048.3907" y1="-187.0753" x2="1673.8173" y2="1008.8823">
			<stop  offset="0" style="stop-color:#FFFFFF"/>
			<stop  offset="1" style="stop-color:#CE0E2D"/>
		</linearGradient>
		<path class="st91" d="M0,361.6c0,0,326.5,39,597.2,174.4c176,88.1,465.9,308.3,239.5,188.8c-75.1-39.6-76.7-94.4,14.4-102.3
			c86-7.5,169.5,121.6,318.4,175.7c155.7,56.6,724.5-66.5,885-120.6C2178.2,636,2722.3,460,2722.3,460"/>
		<linearGradient id="SVGID_91_" gradientUnits="userSpaceOnUse" x1="1047.467" y1="-197.5502" x2="1674.7393" y2="1001.9368">
			<stop  offset="0" style="stop-color:#FFFFFF"/>
			<stop  offset="1" style="stop-color:#CE0E2D"/>
		</linearGradient>
		<path class="st92" d="M0,350.7c0,0,323.9,39.7,594.3,176.6c176.9,89.5,466.3,312.8,241.6,193.6c-73.5-39-76.9-94.3,14.2-102.2
			c86-7.5,169.5,121.6,318.4,175.7c155.7,56.6,723.7-67,886-121.8c125.1-42.2,667.8-219.1,667.8-219.1"/>
		<linearGradient id="SVGID_92_" gradientUnits="userSpaceOnUse" x1="1046.5433" y1="-208.0251" x2="1675.6613" y2="994.9913">
			<stop  offset="0" style="stop-color:#FFFFFF"/>
			<stop  offset="1" style="stop-color:#CE0E2D"/>
		</linearGradient>
		<path class="st93" d="M0,339.7c0,0,321.4,40.5,591.4,178.7c177.7,90.9,466.7,317.3,243.7,198.5c-71.9-38.3-77.2-94.3,14-102.2
			c86-7.5,169.5,121.6,318.4,175.7c155.7,56.6,722.9-67.6,887-122.9c126.5-42.6,667.8-220.4,667.8-220.4"/>
		<linearGradient id="SVGID_93_" gradientUnits="userSpaceOnUse" x1="1045.6196" y1="-218.5" x2="1676.5833" y2="988.0458">
			<stop  offset="0" style="stop-color:#FFFFFF"/>
			<stop  offset="1" style="stop-color:#CE0E2D"/>
		</linearGradient>
		<path class="st94" d="M0,328.8c0,0,318.8,41.3,588.6,180.8c178.6,92.4,467.1,321.8,245.8,203.3c-70.3-37.6-77.4-94.2,13.8-102.1
			c86-7.5,169.5,121.6,318.4,175.7c155.7,56.6,722-68.1,888-124.1c127.9-43.1,667.8-221.8,667.8-221.8"/>
		<linearGradient id="SVGID_94_" gradientUnits="userSpaceOnUse" x1="1044.696" y1="-228.9748" x2="1677.5052" y2="981.1003">
			<stop  offset="0" style="stop-color:#FFFFFF"/>
			<stop  offset="1" style="stop-color:#CE0E2D"/>
		</linearGradient>
		<path class="st95" d="M0,317.8c0,0,316.3,42.1,585.7,182.9c179.5,93.8,467.5,326.4,247.9,208.1c-68.7-37-77.6-94.1,13.5-102
			c86-7.5,169.5,121.6,318.4,175.7c155.7,56.6,721.2-68.6,889-125.2c129.3-43.6,667.8-223.2,667.8-223.2"/>
		<linearGradient id="SVGID_95_" gradientUnits="userSpaceOnUse" x1="1043.7723" y1="-239.4496" x2="1678.4272" y2="974.1548">
			<stop  offset="0" style="stop-color:#FFFFFF"/>
			<stop  offset="1" style="stop-color:#CE0E2D"/>
		</linearGradient>
		<path class="st96" d="M0,306.9c0,0,313.7,42.8,582.8,185.1c180.3,95.3,467.9,330.9,250,213c-67.1-36.3-77.8-94,13.3-102
			c86-7.5,169.5,121.6,318.4,175.7c155.7,56.6,720.4-69.2,890-126.4c130.7-44.1,667.8-224.5,667.8-224.5"/>
		<linearGradient id="SVGID_96_" gradientUnits="userSpaceOnUse" x1="1042.8486" y1="-249.9244" x2="1679.3491" y2="967.2093">
			<stop  offset="0" style="stop-color:#FFFFFF"/>
			<stop  offset="1" style="stop-color:#CE0E2D"/>
		</linearGradient>
		<path class="st97" d="M0,295.9c0,0,311.1,43.6,579.9,187.2c181.1,96.7,468.3,335.5,252.1,217.8c-65.5-35.6-78.1-94,13.1-101.9
			c86-7.5,169.5,121.6,318.4,175.7c155.7,56.6,719.6-69.7,891-127.6c132.1-44.5,667.8-225.9,667.8-225.9"/>
		<linearGradient id="SVGID_97_" gradientUnits="userSpaceOnUse" x1="1041.9249" y1="-260.3991" x2="1680.2711" y2="960.2638">
			<stop  offset="0" style="stop-color:#FFFFFF"/>
			<stop  offset="1" style="stop-color:#CE0E2D"/>
		</linearGradient>
		<path class="st98" d="M0,284.9c0,0,308.5,44.4,577.1,189.3c182,98.2,468.7,340,254.2,222.6c-63.9-35-78.3-93.9,12.9-101.8
			c86-7.5,169.5,121.6,318.4,175.7c155.7,56.6,718.7-70.3,892-128.7c133.5-45,667.8-227.3,667.8-227.3"/>
		<linearGradient id="SVGID_98_" gradientUnits="userSpaceOnUse" x1="1041.0012" y1="-270.8738" x2="1681.193" y2="953.3184">
			<stop  offset="0" style="stop-color:#FFFFFF"/>
			<stop  offset="1" style="stop-color:#CE0E2D"/>
		</linearGradient>
		<path class="st99" d="M0,274c0,0,306,45.2,574.2,191.5C757,565.1,1043.3,810,830.5,692.9c-62.3-34.3-78.5-93.8,12.6-101.8
			c86-7.5,169.5,121.6,318.4,175.7c155.7,56.6,717.9-70.8,893-129.9c134.9-45.5,667.8-228.6,667.8-228.6"/>
		<linearGradient id="SVGID_99_" gradientUnits="userSpaceOnUse" x1="1040.0775" y1="-281.3485" x2="1682.115" y2="946.3729">
			<stop  offset="0" style="stop-color:#FFFFFF"/>
			<stop  offset="1" style="stop-color:#CE0E2D"/>
		</linearGradient>
		<path class="st100" d="M0,263c0,0,303.4,46,571.3,193.6c183.6,101.1,469.5,349.2,258.4,232.3c-60.7-33.6-78.7-93.8,12.4-101.7
			c86-7.5,169.5,121.6,318.4,175.7c155.7,56.6,717.1-71.4,894-131c136.3-46,667.8-230,667.8-230"/>
		<linearGradient id="SVGID_100_" gradientUnits="userSpaceOnUse" x1="1039.1539" y1="-291.8232" x2="1683.0369" y2="939.4274">
			<stop  offset="0" style="stop-color:#FFFFFF"/>
			<stop  offset="1" style="stop-color:#CE0E2D"/>
		</linearGradient>
		<path class="st101" d="M0,252.1c0,0,300.8,46.8,568.4,195.7C752.9,550.4,1038.3,801.5,829,684.9c-59.1-32.9-79-93.7,12.2-101.6
			c86-7.5,169.5,121.6,318.4,175.7c155.7,56.6,716.3-71.9,895-132.2c137.7-46.4,667.8-231.4,667.8-231.4"/>
		<linearGradient id="SVGID_101_" gradientUnits="userSpaceOnUse" x1="1038.2302" y1="-302.2978" x2="1683.9587" y2="932.4819">
			<stop  offset="0" style="stop-color:#FFFFFF"/>
			<stop  offset="1" style="stop-color:#CE0E2D"/>
		</linearGradient>
		<path class="st102" d="M0,241.1c0,0,298.2,47.6,565.6,197.8C750.8,543,1035.8,797.3,828.2,680.9c-57.5-32.3-79.2-93.6,12-101.6
			c86-7.5,169.5,121.6,318.4,175.7c155.7,56.6,715.4-72.5,896-133.4c139.1-46.9,667.8-232.8,667.8-232.8"/>
		<linearGradient id="SVGID_102_" gradientUnits="userSpaceOnUse" x1="1037.3065" y1="-312.7724" x2="1684.8806" y2="925.5364">
			<stop  offset="0" style="stop-color:#FFFFFF"/>
			<stop  offset="1" style="stop-color:#CE0E2D"/>
		</linearGradient>
		<path class="st103" d="M0,230.1c0,0,295.5,48.4,562.7,200c186.1,105.6,470.6,363,264.7,246.8c-55.9-31.6-79.4-93.6,11.7-101.5
			c86-7.5,169.5,121.6,318.4,175.7c155.7,56.6,714.6-73,897-134.5c140.5-47.4,667.8-234.1,667.8-234.1"/>
		<linearGradient id="SVGID_103_" gradientUnits="userSpaceOnUse" x1="1036.3828" y1="-323.2469" x2="1685.8025" y2="918.591">
			<stop  offset="0" style="stop-color:#FFFFFF"/>
			<stop  offset="1" style="stop-color:#CE0E2D"/>
		</linearGradient>
		<path class="st104" d="M0,219.2c0,0,292.9,49.2,559.8,202.1c186.9,107.1,470.9,367.6,266.8,251.6c-54.3-30.9-79.7-93.5,11.5-101.4
			c86-7.5,169.5,121.6,318.4,175.7c155.7,56.6,713.8-73.6,898-135.7c141.9-47.9,667.8-235.5,667.8-235.5"/>
		<linearGradient id="SVGID_104_" gradientUnits="userSpaceOnUse" x1="1035.4591" y1="-333.7214" x2="1686.7244" y2="911.6456">
			<stop  offset="0" style="stop-color:#FFFFFF"/>
			<stop  offset="1" style="stop-color:#CE0E2D"/>
		</linearGradient>
		<path class="st105" d="M0,208.2c0,0,290.3,50,556.9,204.2C744.6,521,1028.2,784.7,825.9,668.9c-52.8-30.2-79.9-93.4,11.3-101.4
			c86-7.5,169.5,121.6,318.4,175.7c155.7,56.6,713-74.1,899-136.8c143.3-48.3,667.8-236.9,667.8-236.9"/>
		<linearGradient id="SVGID_105_" gradientUnits="userSpaceOnUse" x1="1034.5354" y1="-344.1959" x2="1687.6461" y2="904.7001">
			<stop  offset="0" style="stop-color:#FFFFFF"/>
			<stop  offset="1" style="stop-color:#CE0E2D"/>
		</linearGradient>
		<path class="st106" d="M0,197.3c0,0,287.7,50.8,554.1,206.3c188.5,110.1,471.6,376.9,271,261.3c-51.2-29.5-80.1-93.4,11.1-101.3
			c86-7.5,169.5,121.6,318.4,175.7c155.7,56.6,712.1-74.6,900-138c144.7-48.8,667.8-238.2,667.8-238.2"/>
		<linearGradient id="SVGID_106_" gradientUnits="userSpaceOnUse" x1="1033.6118" y1="-354.6704" x2="1688.568" y2="897.7546">
			<stop  offset="0" style="stop-color:#FFFFFF"/>
			<stop  offset="1" style="stop-color:#CE0E2D"/>
		</linearGradient>
		<path class="st107" d="M0,186.3c0,0,285,51.6,551.2,208.5c189.2,111.6,471.9,381.6,273.1,266.1c-49.6-28.8-80.3-93.3,10.8-101.2
			c86-7.5,169.5,121.6,318.4,175.7c155.7,56.6,711.3-75.2,901-139.2c146.1-49.3,667.8-239.6,667.8-239.6"/>
		<linearGradient id="SVGID_107_" gradientUnits="userSpaceOnUse" x1="1032.6881" y1="-365.1448" x2="1689.4897" y2="890.8092">
			<stop  offset="0" style="stop-color:#FFFFFF"/>
			<stop  offset="1" style="stop-color:#CE0E2D"/>
		</linearGradient>
		<path class="st108" d="M0,175.3c0,0,282.4,52.4,548.3,210.6c190,113.1,472.2,386.3,275.2,270.9c-48-28.1-80.6-93.2,10.6-101.2
			c86-7.5,169.5,121.6,318.4,175.7c155.7,56.6,710.5-75.7,902-140.3c147.5-49.8,667.8-241,667.8-241"/>
		<linearGradient id="SVGID_108_" gradientUnits="userSpaceOnUse" x1="1031.7644" y1="-375.6192" x2="1690.4115" y2="883.8638">
			<stop  offset="0" style="stop-color:#FFFFFF"/>
			<stop  offset="1" style="stop-color:#CE0E2D"/>
		</linearGradient>
		<path class="st109" d="M0,164.4c0,0,279.7,53.2,545.4,212.7c190.8,114.6,472.5,391,277.3,275.7c-46.4-27.4-80.8-93.2,10.4-101.1
			c86-7.5,169.5,121.6,318.4,175.7c155.7,56.6,709.7-76.3,903-141.5c148.9-50.2,667.8-242.3,667.8-242.3"/>
		<linearGradient id="SVGID_109_" gradientUnits="userSpaceOnUse" x1="1030.8407" y1="-386.0935" x2="1691.3334" y2="876.9184">
			<stop  offset="0" style="stop-color:#FFFFFF"/>
			<stop  offset="1" style="stop-color:#CE0E2D"/>
		</linearGradient>
		<path class="st110" d="M0,153.4c0,0,277.1,54,542.6,214.9C734.1,484.4,1015.4,764,822,648.9c-44.9-26.7-81-93.1,10.1-101
			c86-7.5,169.5,121.6,318.4,175.7c155.7,56.6,708.8-76.8,904-142.6c150.3-50.7,667.8-243.7,667.8-243.7"/>
		<linearGradient id="SVGID_110_" gradientUnits="userSpaceOnUse" x1="1029.917" y1="-396.5679" x2="1692.2551" y2="869.973">
			<stop  offset="0" style="stop-color:#FFFFFF"/>
			<stop  offset="1" style="stop-color:#CE0E2D"/>
		</linearGradient>
		<path class="st111" d="M0,142.5c0,0,274.4,54.8,539.7,217C732,477.1,1012.8,759.9,821.2,644.9c-43.3-26-81.2-93,9.9-100.9
			c86-7.5,169.5,121.6,318.4,175.7c155.7,56.6,708-77.4,905-143.8c151.8-51.2,667.8-245.1,667.8-245.1"/>
		<linearGradient id="SVGID_111_" gradientUnits="userSpaceOnUse" x1="1028.9934" y1="-407.0421" x2="1693.1769" y2="863.0275">
			<stop  offset="0" style="stop-color:#FFFFFF"/>
			<stop  offset="1" style="stop-color:#CE0E2D"/>
		</linearGradient>
		<path class="st112" d="M0,131.5c0,0,271.8,55.6,536.8,219.1c193.1,119.1,473.4,405.2,283.6,290.2c-41.7-25.3-81.5-93,9.7-100.9
			c86-7.5,169.5,121.6,318.4,175.7c155.7,56.6,707.2-77.9,906-145c153.2-51.7,667.8-246.5,667.8-246.5"/>
		<linearGradient id="SVGID_112_" gradientUnits="userSpaceOnUse" x1="1028.0697" y1="-417.5164" x2="1694.0985" y2="856.0822">
			<stop  offset="0" style="stop-color:#FFFFFF"/>
			<stop  offset="1" style="stop-color:#CE0E2D"/>
		</linearGradient>
		<path class="st113" d="M0,120.5c0,0,269.1,56.4,533.9,221.2c193.9,120.7,473.6,410,285.7,295.1C779.5,612.3,738,544,829.2,536
			c86-7.5,169.5,121.6,318.4,175.7c155.7,56.6,706.4-78.5,907-146.1c154.6-52.1,667.8-247.8,667.8-247.8"/>
		<linearGradient id="SVGID_113_" gradientUnits="userSpaceOnUse" x1="1027.146" y1="-427.9905" x2="1695.0203" y2="849.1367">
			<stop  offset="0" style="stop-color:#FFFFFF"/>
			<stop  offset="1" style="stop-color:#CE0E2D"/>
		</linearGradient>
		<path class="st114" d="M0,109.6c0,0,266.4,57.2,531.1,223.4c194.6,122.2,473.8,414.8,287.8,299.9C780.3,609,737,540,828.2,532.1
			c86-7.5,169.5,121.6,318.4,175.7c155.7,56.6,705.5-79,908-147.3c156-52.6,667.8-249.2,667.8-249.2"/>
		<linearGradient id="SVGID_114_" gradientUnits="userSpaceOnUse" x1="1026.2224" y1="-438.4647" x2="1695.942" y2="842.1913">
			<stop  offset="0" style="stop-color:#FFFFFF"/>
			<stop  offset="1" style="stop-color:#CE0E2D"/>
		</linearGradient>
		<path class="st115" d="M0,98.6c0,0,263.7,58,528.2,225.5c195.4,123.7,474,419.7,290,304.7c-37-23.1-82.1-92.7,9-100.7
			c86-7.5,169.5,121.6,318.4,175.7c155.7,56.6,704.7-79.5,909-148.4c157.4-53.1,667.8-250.6,667.8-250.6"/>
		<linearGradient id="SVGID_115_" gradientUnits="userSpaceOnUse" x1="1025.2987" y1="-448.9388" x2="1696.8636" y2="835.2459">
			<stop  offset="0" style="stop-color:#FFFFFF"/>
			<stop  offset="1" style="stop-color:#CE0E2D"/>
		</linearGradient>
		<path class="st116" d="M0,87.7c0,0,261,58.8,525.3,227.6c196.1,125.3,474.2,424.6,292.1,309.5c-35.5-22.4-82.4-92.7,8.8-100.6
			c86-7.5,169.5,121.6,318.4,175.7c155.7,56.6,703.9-80.1,910-149.6c158.8-53.5,667.8-251.9,667.8-251.9"/>
		<linearGradient id="SVGID_116_" gradientUnits="userSpaceOnUse" x1="1024.375" y1="-459.4129" x2="1697.7853" y2="828.3005">
			<stop  offset="0" style="stop-color:#FFFFFF"/>
			<stop  offset="1" style="stop-color:#CE0E2D"/>
		</linearGradient>
		<path class="st117" d="M0,76.7c0,0,258.3,59.6,522.4,229.8C719.3,433.3,996.8,736,816.6,620.8c-33.9-21.7-82.6-92.6,8.6-100.5
			c86-7.5,169.5,121.6,318.4,175.7c155.7,56.6,703.1-80.6,911-150.8c160.2-54,667.8-253.3,667.8-253.3"/>
		<linearGradient id="SVGID_117_" gradientUnits="userSpaceOnUse" x1="1023.4514" y1="-469.8869" x2="1698.7069" y2="821.3552">
			<stop  offset="0" style="stop-color:#FFFFFF"/>
			<stop  offset="1" style="stop-color:#CE0E2D"/>
		</linearGradient>
		<path class="st118" d="M0,65.8c0,0,255.6,60.4,519.6,231.9C717.1,426,994,732.1,815.8,616.8c-32.4-20.9-82.8-92.5,8.3-100.5
			c86-7.5,169.5,121.6,318.4,175.7c155.7,56.6,702.2-81.2,912-151.9c161.6-54.5,667.8-254.7,667.8-254.7"/>
		<linearGradient id="SVGID_118_" gradientUnits="userSpaceOnUse" x1="1022.5277" y1="-480.3608" x2="1699.6285" y2="814.4098">
			<stop  offset="0" style="stop-color:#FFFFFF"/>
			<stop  offset="1" style="stop-color:#CE0E2D"/>
		</linearGradient>
		<path class="st119" d="M0,54.8c0,0,252.9,61.2,516.7,234C715,418.7,991.2,728.3,815,612.8c-30.8-20.2-83-92.5,8.1-100.4
			c86-7.5,169.5,121.6,318.4,175.7c155.7,56.6,701.4-81.7,913-153.1c163-55,667.8-256,667.8-256"/>
		<linearGradient id="SVGID_119_" gradientUnits="userSpaceOnUse" x1="1021.6041" y1="-490.8347" x2="1700.5502" y2="807.4644">
			<stop  offset="0" style="stop-color:#FFFFFF"/>
			<stop  offset="1" style="stop-color:#CE0E2D"/>
		</linearGradient>
		<path class="st120" d="M0,43.8c0,0,250.2,62,513.8,236.1c199,131.4,474.5,444.6,300.5,328.9c-29.3-19.5-83.3-92.4,7.9-100.3
			c86-7.5,169.5,121.6,318.4,175.7c155.7,56.6,700.6-82.3,914-154.2c164.4-55.4,667.8-257.4,667.8-257.4"/>
		<linearGradient id="SVGID_120_" gradientUnits="userSpaceOnUse" x1="1020.6805" y1="-501.3086" x2="1701.4718" y2="800.519">
			<stop  offset="0" style="stop-color:#FFFFFF"/>
			<stop  offset="1" style="stop-color:#CE0E2D"/>
		</linearGradient>
		<path class="st121" d="M0,32.9c0,0,247.5,62.8,510.9,238.3c199.7,133,474.5,449.8,302.6,333.7c-27.7-18.7-83.5-92.3,7.7-100.3
			c86-7.5,169.5,121.6,318.4,175.7c155.7,56.6,699.8-82.8,915-155.4c165.8-55.9,667.8-258.8,667.8-258.8"/>
		<linearGradient id="SVGID_121_" gradientUnits="userSpaceOnUse" x1="1019.7568" y1="-511.7824" x2="1702.3933" y2="793.5737">
			<stop  offset="0" style="stop-color:#FFFFFF"/>
			<stop  offset="1" style="stop-color:#CE0E2D"/>
		</linearGradient>
		<path class="st122" d="M0,21.9c0,0,244.7,63.6,508.1,240.4c200.4,134.6,474.4,455,304.7,338.5c-26.2-18-83.7-92.3,7.4-100.2
			c86-7.5,169.5,121.6,318.4,175.7c155.7,56.6,698.9-83.4,916-156.6c167.2-56.4,667.8-260.2,667.8-260.2"/>
		<linearGradient id="SVGID_122_" gradientUnits="userSpaceOnUse" x1="1018.8332" y1="-522.2554" x2="1703.3146" y2="786.6285">
			<stop  offset="0" style="stop-color:#FFFFFF"/>
			<stop  offset="1" style="stop-color:#CE0E2D"/>
		</linearGradient>
		<path class="st123" d="M0,11c0,0,241.7,64.9,505.2,242.5C706.1,389.9,979.4,713.8,812,596.8c-24.7-17.2-83.9-92.2,7.2-100.1
			c86-7.5,169.5,121.6,318.4,175.7c155.7,56.6,698.1-83.9,917-157.7c168.6-56.9,667.8-261.5,667.8-261.5"/>
		<linearGradient id="SVGID_123_" gradientUnits="userSpaceOnUse" x1="1017.9096" y1="-532.7299" x2="1704.2365" y2="779.683">
			<stop  offset="0" style="stop-color:#FFFFFF"/>
			<stop  offset="1" style="stop-color:#CE0E2D"/>
		</linearGradient>
		<path class="st124" d="M0,0c0,0,239.3,65.2,502.3,244.6c201.8,137.7,474,465.8,308.9,348.2c-23.1-16.5-84.2-92.1,7-100.1
			c86-7.5,169.5,121.6,318.4,175.7c155.7,56.6,697.3-84.4,918-158.9c170-57.3,667.8-262.9,667.8-262.9"/>
	</g>
</g>
<g id="Layer_4">
	<g>
	</g>
	<g>
	</g>
	<g>
	</g>
	<g>
	</g>
	<g>
	</g>
	<g>
	</g>
</g>
</svg>
