<?xml version="1.0" encoding="utf-8"?>
<!-- Generator: Adobe Illustrator 24.0.3, SVG Export Plug-In . SVG Version: 6.00 Build 0)  -->
<svg version="1.1" xmlns="http://www.w3.org/2000/svg" xmlns:xlink="http://www.w3.org/1999/xlink" x="0px" y="0px"
	 viewBox="0 0 2811.6 809" style="enable-background:new 0 0 2811.6 809;" xml:space="preserve">
<style type="text/css">
	.st0{display:none;}
	.st1{opacity:0.19;}
	.st2{fill:none;stroke:#CE202F;stroke-linecap:round;stroke-linejoin:round;stroke-miterlimit:10;}
	.st3{opacity:0.25;}
	.st4{fill:none;stroke:#CE202F;stroke-width:0.5;stroke-linecap:round;stroke-linejoin:round;stroke-miterlimit:10;}
	.st5{fill:none;stroke:#CE202F;stroke-width:0.5156;stroke-linecap:round;stroke-linejoin:round;stroke-miterlimit:10;}
	.st6{fill:none;stroke:#CE202F;stroke-width:0.5312;stroke-linecap:round;stroke-linejoin:round;stroke-miterlimit:10;}
	.st7{fill:none;stroke:#CE202F;stroke-width:0.5469;stroke-linecap:round;stroke-linejoin:round;stroke-miterlimit:10;}
	.st8{fill:none;stroke:#CE202F;stroke-width:0.5625;stroke-linecap:round;stroke-linejoin:round;stroke-miterlimit:10;}
	.st9{fill:none;stroke:#CE202F;stroke-width:0.5781;stroke-linecap:round;stroke-linejoin:round;stroke-miterlimit:10;}
	.st10{fill:none;stroke:#CE202F;stroke-width:0.5938;stroke-linecap:round;stroke-linejoin:round;stroke-miterlimit:10;}
	.st11{fill:none;stroke:#CE202F;stroke-width:0.6094;stroke-linecap:round;stroke-linejoin:round;stroke-miterlimit:10;}
	.st12{fill:none;stroke:#CE202F;stroke-width:0.625;stroke-linecap:round;stroke-linejoin:round;stroke-miterlimit:10;}
	.st13{fill:none;stroke:#CE202F;stroke-width:0.6406;stroke-linecap:round;stroke-linejoin:round;stroke-miterlimit:10;}
	.st14{fill:none;stroke:#CE202F;stroke-width:0.6562;stroke-linecap:round;stroke-linejoin:round;stroke-miterlimit:10;}
	.st15{fill:none;stroke:#CE202F;stroke-width:0.6719;stroke-linecap:round;stroke-linejoin:round;stroke-miterlimit:10;}
	.st16{fill:none;stroke:#CE202F;stroke-width:0.6875;stroke-linecap:round;stroke-linejoin:round;stroke-miterlimit:10;}
	.st17{fill:none;stroke:#CE202F;stroke-width:0.7031;stroke-linecap:round;stroke-linejoin:round;stroke-miterlimit:10;}
	.st18{fill:none;stroke:#CE202F;stroke-width:0.7188;stroke-linecap:round;stroke-linejoin:round;stroke-miterlimit:10;}
	.st19{fill:none;stroke:#CE202F;stroke-width:0.7344;stroke-linecap:round;stroke-linejoin:round;stroke-miterlimit:10;}
	.st20{fill:none;stroke:#CE202F;stroke-width:0.75;stroke-linecap:round;stroke-linejoin:round;stroke-miterlimit:10;}
	.st21{fill:none;stroke:#CE202F;stroke-width:0.25;stroke-linecap:round;stroke-linejoin:round;stroke-miterlimit:10;}
</style>
<g id="Layer_1" class="st0">
	
		<image style="display:inline;overflow:visible;" width="860" height="809" xlink:href="home-hero-bg.png"  transform="matrix(1 0 0 1 1436.5815 0)">
	</image>
</g>
<g id="Layer_2">
	<g>
		<defs>
			<rect id="SVGID_1_" x="1436.6" width="860" height="809"/>
		</defs>
		<clipPath id="SVGID_2_">
			<use xlink:href="#SVGID_1_"  style="overflow:visible;"/>
		</clipPath>
	</g>
	<g class="st1">
		<path class="st2" d="M2811.6,794.4c-26.1,61.9-638.3-285-754.3-285c-116,0-475.7,357.6-475.7,241.5"/>
		<path class="st2" d="M2811.6,784.6c-25.7,62.5-638.2-280.1-754.3-280.1c-116,0-477.4,362.2-477.4,246.2"/>
		<path class="st2" d="M2811.6,774.8c-25.4,63.2-638.2-275.3-754.2-275.3c-116,0-479.1,366.8-479.1,250.8"/>
		<path class="st2" d="M2811.6,765.1c-25.1,63.9-638.1-270.4-754.2-270.4c-116,0-480.9,371.4-480.9,255.4"/>
		<path class="st2" d="M2811.6,755.3c-24.8,64.6-638.1-265.5-754.1-265.5c-116,0-482.6,376-482.6,260"/>
		<path class="st2" d="M2811.6,745.6c-24.4,65.2-638.1-260.7-754.1-260.7c-116,0-484.3,380.6-484.3,264.6"/>
		<path class="st2" d="M2811.6,735.8c-24.1,65.9-638-255.8-754-255.8c-116,0-486,385.3-486,269.2"/>
		<path class="st2" d="M2811.6,726.1c-23.8,66.6-638-251-754-251c-116,0-487.7,389.9-487.7,273.9"/>
		<path class="st2" d="M2811.6,716.3c-23.5,67.2-637.9-246.1-753.9-246.1c-116,0-489.4,394.5-489.4,278.5"/>
		<path class="st2" d="M2811.6,706.5c-23.2,67.9-637.9-241.3-753.9-241.3c-116,0-491.1,399.1-491.1,283.1"/>
		<path class="st2" d="M2811.6,696.8c-22.8,68.6-637.8-236.4-753.8-236.4c-116,0-492.9,403.7-492.9,287.7"/>
		<path class="st2" d="M2811.6,687c-22.5,69.2-637.8-231.5-753.8-231.5c-116,0-494.6,408.4-494.6,292.3"/>
		<path class="st2" d="M2811.6,677.3c-22.2,69.9-637.7-226.7-753.8-226.7c-116,0-496.3,413-496.3,297"/>
		<path class="st2" d="M2811.6,667.5c-21.9,70.6-637.7-221.8-753.7-221.8c-116,0-498,417.6-498,301.6"/>
		<path class="st2" d="M2811.6,657.8c-21.6,71.2-637.7-217-753.7-217c-116,0-499.7,422.2-499.7,306.2"/>
		<path class="st2" d="M2811.6,648c-21.2,71.9-637.6-212.1-753.6-212.1c-116,0-501.4,426.8-501.4,310.8"/>
		<path class="st2" d="M2811.6,638.2C2790.7,710.8,2174,431,2058,431c-116,0-503.1,431.4-503.1,315.4"/>
		<path class="st2" d="M2811.6,628.5c-20.6,73.2-637.5-202.4-753.5-202.4c-116,0-504.8,436.1-504.8,320"/>
		<path class="st2" d="M2811.6,618.7c-20.3,73.9-637.5-197.5-753.5-197.5c-116,0-506.6,440.7-506.6,324.7"/>
		<path class="st2" d="M2811.6,609c-19.9,74.6-637.4-192.7-753.4-192.7c-116,0-508.3,445.3-508.3,329.3"/>
		<path class="st2" d="M2811.6,599.2c-19.6,75.2-637.4-187.8-753.4-187.8c-116,0-510,449.9-510,333.9"/>
		<path class="st2" d="M2811.6,589.5c-19.3,75.9-637.3-183-753.4-183c-116,0-511.7,454.5-511.7,338.5"/>
		<path class="st2" d="M2811.6,579.7c-19,76.6-637.3-178.1-753.3-178.1c-116,0-513.4,459.1-513.4,343.1"/>
		<path class="st2" d="M2811.6,569.9c-18.7,77.3-637.2-173.3-753.3-173.3c-116,0-515.1,463.8-515.1,347.7"/>
		<path class="st2" d="M2811.6,560.2c-18.3,77.9-637.2-168.4-753.2-168.4c-116,0-516.8,468.4-516.8,352.4"/>
		<path class="st2" d="M2811.6,550.4c-18,78.6-637.2-163.5-753.2-163.5c-116,0-518.5,473-518.5,357"/>
		<path class="st2" d="M2811.6,540.7c-17.7,79.3-637.1-158.7-753.1-158.7c-116,0-520.3,477.6-520.3,361.6"/>
		<path class="st2" d="M2811.6,530.9c-17.4,79.9-637.1-153.8-753.1-153.8c-116,0-522,482.2-522,366.2"/>
		<path class="st2" d="M2811.6,521.2c-17,80.6-637-149-753-149c-116,0-523.7,486.8-523.7,370.8"/>
		<path class="st2" d="M2811.6,511.4c-16.7,81.3-637-144.1-753-144.1c-116,0-525.4,491.5-525.4,375.4"/>
		<path class="st2" d="M2811.6,501.6c-16.4,81.9-636.9-139.3-753-139.3c-116,0-527.1,496.1-527.1,380.1"/>
		<path class="st2" d="M2811.6,491.9c-16.1,82.6-636.9-134.4-752.9-134.4c-116,0-528.8,500.7-528.8,384.7"/>
		<path class="st2" d="M2811.6,482.1c-15.8,83.3-636.8-129.5-752.9-129.5c-116,0-530.5,505.3-530.5,389.3"/>
		<path class="st2" d="M2811.6,472.4c-15.4,83.9-636.8-124.7-752.8-124.7c-116,0-532.2,509.9-532.2,393.9"/>
		<path class="st2" d="M2811.6,462.6c-15.1,84.6-636.8-119.8-752.8-119.8c-116,0-534,514.6-534,398.5"/>
		<path class="st2" d="M2811.6,452.9c-14.8,85.3-636.7-115-752.7-115c-116,0-535.7,519.2-535.7,403.2"/>
		<path class="st2" d="M2811.6,443.1C2797.1,529,2174.9,333,2058.9,333c-116,0-537.4,523.8-537.4,407.8"/>
		<path class="st2" d="M2811.6,433.3c-14.2,86.6-636.6-105.3-752.6-105.3c-116,0-539.1,528.4-539.1,412.4"/>
		<path class="st2" d="M2811.6,423.6c-13.8,87.3-636.6-100.4-752.6-100.4c-116,0-540.8,533-540.8,417"/>
		<path class="st2" d="M2811.6,413.8c-13.5,87.9-636.5-95.5-752.5-95.5c-116,0-542.5,537.6-542.5,421.6"/>
		<path class="st2" d="M2811.6,404.1c-13.2,88.6-636.5-90.7-752.5-90.7c-116,0-544.2,542.3-544.2,426.2"/>
		<path class="st2" d="M2811.6,394.3c-12.9,89.3-636.4-85.8-752.5-85.8c-116,0-545.9,546.9-545.9,430.9"/>
		<path class="st2" d="M2811.6,384.5c-12.5,90-636.4-81-752.4-81c-116,0-547.7,551.5-547.7,435.5"/>
		<path class="st2" d="M2811.6,374.8c-12.2,90.6-636.4-76.1-752.4-76.1c-116,0-549.4,556.1-549.4,440.1"/>
		<path class="st2" d="M2811.6,365c-11.9,91.3-636.3-71.3-752.3-71.3c-116,0-551.1,560.7-551.1,444.7"/>
		<path class="st2" d="M2811.6,355.3c-11.6,92-636.3-66.4-752.3-66.4c-116,0-552.8,565.3-552.8,449.3"/>
		<path class="st2" d="M2811.6,345.5c-11.3,92.6-636.2-61.5-752.2-61.5c-116,0-554.5,570-554.5,453.9"/>
		<path class="st2" d="M2811.6,335.8c-10.9,93.3-636.2-56.7-752.2-56.7c-116,0-556.2,574.6-556.2,458.6"/>
		<path class="st2" d="M2811.6,326c-10.6,94-636.1-51.8-752.1-51.8c-116,0-557.9,579.2-557.9,463.2"/>
		<path class="st2" d="M2811.6,316.2c-10.3,94.6-636.1-47-752.1-47c-116,0-559.7,583.8-559.7,467.8"/>
		<path class="st2" d="M2811.6,306.5c-10,95.3-636-42.1-752.1-42.1c-116,0-561.4,588.4-561.4,472.4"/>
		<path class="st2" d="M2811.6,296.7c-9.6,96-636-37.3-752-37.3c-116,0-563.1,593-563.1,477"/>
		<path class="st2" d="M2811.6,287c-9.3,96.6-635.9-32.4-752-32.4c-116,0-564.8,597.7-564.8,481.6"/>
		<path class="st2" d="M2811.6,277.2c-9,97.3-635.9-27.5-751.9-27.5c-116,0-566.5,602.3-566.5,486.3"/>
		<path class="st2" d="M2811.6,267.5c-8.7,98-635.9-22.7-751.9-22.7c-116,0-568.2,606.9-568.2,490.9"/>
		<path class="st2" d="M2811.6,257.7c-8.4,98.6-635.8-17.8-751.8-17.8c-116,0-569.9,611.5-569.9,495.5"/>
		<path class="st2" d="M2811.6,247.9c-8,99.3-635.8-13-751.8-13c-116,0-571.6,616.1-571.6,500.1"/>
		<path class="st2" d="M2811.6,238.2c-7.7,100-635.7-8.1-751.7-8.1c-116,0-573.4,620.8-573.4,504.7"/>
		<path class="st2" d="M2811.6,228.4c-7.4,100.6-635.7-3.3-751.7-3.3c-116,0-575.1,625.4-575.1,509.4"/>
		<path class="st2" d="M2811.6,218.7c-7.1,101.3-635.6,1.6-751.7,1.6c-116,0-576.8,630-576.8,514"/>
		<path class="st2" d="M2811.6,208.9c-6.8,102-635.6,6.5-751.6,6.5c-116,0-578.5,634.6-578.5,518.6"/>
		<path class="st2" d="M2811.6,199.2c-6.4,102.7-635.5,11.3-751.6,11.3c-116,0-580.2,639.2-580.2,523.2"/>
		<path class="st2" d="M2811.6,189.4c-6.1,103.3-635.5,16.2-751.5,16.2c-116,0-581.9,643.8-581.9,527.8"/>
		<path class="st2" d="M2811.6,179.6c-5.8,104-635.5,21-751.5,21c-116,0-583.6,648.5-583.6,532.4"/>
		<path class="st2" d="M2811.6,169.9c-5.5,104.7-635.4,25.9-751.4,25.9c-116,0-585.3,653.1-585.3,537.1"/>
		<path class="st2" d="M2811.6,160.1c-5.1,105.3-635.4,30.7-751.4,30.7c-116,0-587.1,657.7-587.1,541.7"/>
		<path class="st2" d="M2811.6,150.4c-4.8,106-635.3,35.6-751.3,35.6c-116,0-588.8,662.3-588.8,546.3"/>
		<path class="st2" d="M2811.6,140.6c-4.5,106.7-635.3,40.5-751.3,40.5c-116,0-590.5,666.9-590.5,550.9"/>
		<path class="st2" d="M2811.6,130.9c-4.2,107.3-635.2,45.3-751.2,45.3c-116,0-592.2,671.5-592.2,555.5"/>
		<path class="st2" d="M2811.6,121.1c-3.9,108-635.2,50.2-751.2,50.2c-116,0-593.9,676.2-593.9,560.1"/>
		<path class="st2" d="M2811.6,111.3c-3.5,108.7-635.1,55-751.2,55c-116,0-595.6,680.8-595.6,564.8"/>
		<path class="st2" d="M2811.6,101.6c-3.2,109.3-635.1,59.9-751.1,59.9c-116,0-597.3,685.4-597.3,569.4"/>
		<path class="st2" d="M2811.6,91.8c-2.9,110-635.1,64.7-751.1,64.7c-116,0-599,690-599,574"/>
		<path class="st2" d="M2811.6,82.1c-2.6,110.7-635,69.6-751,69.6c-116,0-600.8,694.6-600.8,578.6"/>
		<path class="st2" d="M2811.6,72.3c-2.3,111.3-635,74.5-751,74.5c-116,0-602.5,699.2-602.5,583.2"/>
		<path class="st2" d="M2811.6,62.6c-1.9,112-634.9,79.3-750.9,79.3c-116,0-604.2,703.9-604.2,587.8"/>
		<path class="st2" d="M2811.6,52.8c-1.6,112.7-634.9,84.2-750.9,84.2c-116,0-605.9,708.5-605.9,592.5"/>
		<path class="st2" d="M2811.6,43c-1.3,113.3-634.8,89-750.8,89c-116,0-607.6,713.1-607.6,597.1"/>
		<path class="st2" d="M2811.6,33.3c-1,114-634.8,93.9-750.8,93.9c-116,0-609.3,717.7-609.3,601.7"/>
		<path class="st2" d="M2811.6,23.5c-0.6,114.7-634.7,98.7-750.8,98.7c-116,0-611,722.3-611,606.3"/>
		<path class="st2" d="M2811.6,13.8c-0.3,115.3-634.7,103.6-750.7,103.6c-116,0-612.8,727-612.8,610.9"/>
		<path class="st2" d="M2811.6,4c0,116-634.6,108.5-750.7,108.5c-116,0-614.5,731.6-614.5,615.6"/>
	</g>
</g>
<g id="Layer_3">
	<g class="st3">
		<path class="st4" d="M1586.5,768.4c0,0,2.7-121.7-109.2-121.7s-408.1,150.3-408.1,150.3"/>
		<path class="st5" d="M1577.8,766.4c0,0,4.9-118.2-109.3-119.1c-109.4-0.8-394.5,140.5-406.3,141.9"/>
		<path class="st6" d="M1569.1,764.4c0,0,7.1-114.7-109.5-116.5c-106.9-1.6-380.9,130.6-404.4,133.5"/>
		<path class="st7" d="M1560.5,762.3c0,0,9.3-111.2-109.6-113.9c-104.5-2.4-367.3,120.7-402.5,125.1"/>
		<path class="st8" d="M1551.8,760.3c0,0,11.6-107.6-109.8-111.3c-102.1-3.1-353.7,110.8-400.6,116.6"/>
		<path class="st9" d="M1543.1,758.3c0,0,13.8-104-110-108.6c-99.6-3.7-340,100.9-398.7,108.2"/>
		<path class="st10" d="M1534.4,756.2c0,0,16-100.4-110.1-106c-97.2-4.4-326.4,91-396.9,99.8"/>
		<path class="st11" d="M1525.8,754.2c0,0,18.2-96.7-110.3-103.4c-94.7-4.9-312.8,81.1-395,91.3"/>
		<path class="st12" d="M1517.1,752.2c0,0,20.5-93-110.5-100.8c-92.3-5.5-299.2,71.3-393.1,82.9"/>
		<path class="st13" d="M1508.4,750.2c0,0,22.7-89.2-110.6-98.2c-89.9-6-285.6,61.4-391.2,74.5"/>
		<path class="st14" d="M1499.7,748.1c0,0,24.9-85.4-110.8-95.6c-87.4-6.5-272,51.5-389.4,66.1"/>
		<path class="st15" d="M1491,746.1c0,0,27.1-81.6-110.9-92.9c-85-7-258.3,41.6-387.5,57.6"/>
		<path class="st16" d="M1482.4,744.1c0,0,29.3-77.7-111.1-90.3c-82.6-7.4-244.7,31.7-385.6,49.2"/>
		<path class="st17" d="M1473.7,742c0,0,31.5-73.7-111.3-87.7c-80.1-7.9-231.1,21.8-383.7,40.8"/>
		<path class="st18" d="M1465,740c0,0,33.7-69.7-111.4-85.1c-77.7-8.3-217.5,11.9-381.9,32.3"/>
		<path class="st19" d="M1456.3,738c0,0,35.9-65.5-111.6-82.5c-75.3-8.6-203.9,2.1-380,23.9"/>
		<path class="st20" d="M1447.6,735.9c0,0,84.2-135.6-489.9-64.4"/>
	</g>
</g>
<g id="Layer_4">
	<g class="st3">
		<path class="st21" d="M1069.2,797.1c0,0-310.6-200.9-470.8-56.6C495.6,833.2,0,809,0,809"/>
		<path class="st21" d="M1062.2,789.2c0,0-304.6-185.2-466.6-45.2C491.1,834.1,0,758.4,0,758.4"/>
		<path class="st21" d="M1055.3,781.4c0,0-298.7-169.5-462.5-33.8C486.7,835,0,707.9,0,707.9"/>
		<path class="st21" d="M1048.3,773.5c0,0-292.7-153.8-458.4-22.4C482.2,836,0,657.3,0,657.3"/>
		<path class="st21" d="M1041.4,765.7c0,0-286.8-138.1-454.3-11C477.7,836.9,0,606.8,0,606.8"/>
		<path class="st21" d="M1034.4,757.8c0,0-280.5-122-450.2,0.3C473.4,838.1,0,556.2,0,556.2"/>
		<path class="st21" d="M1027.4,750c0,0-274.6-106.3-446.1,11.7C469,839,0,505.6,0,505.6"/>
		<path class="st21" d="M1020.5,742.1c0,0-268.6-90.6-441.9,23.1C464.5,840,0,455.1,0,455.1"/>
		<path class="st21" d="M1013.5,734.3c0,0-262.7-74.8-437.8,34.5C460.1,840.9,0,404.5,0,404.5"/>
		<path class="st21" d="M1006.5,726.5c0,0-256.7-59.1-433.7,45.9C455.6,841.9,0,353.9,0,353.9"/>
		<path class="st21" d="M999.6,718.6c0,0-250.8-43.5-429.6,57.2C451.1,842.8,0,303.4,0,303.4"/>
		<path class="st21" d="M992.6,710.8c0,0-244.9-27.8-425.5,68.6C446.6,843.7,0,252.8,0,252.8"/>
		<path class="st21" d="M985.6,702.9c0,0-239.1-12.5-421.4,80C442,844.4,0,202.2,0,202.2"/>
		<path class="st21" d="M978.7,695.1c0,0-233.2,3.2-417.3,91.4C437.6,845.3,0,151.7,0,151.7"/>
		<path class="st21" d="M971.7,687.2c0,0-227.2,18.9-413.1,102.7C433.1,846.2,0,101.1,0,101.1"/>
		<path class="st21" d="M964.8,679.4c0,0-221.3,34.6-409,114.1C428.6,847.2,0,50.6,0,50.6"/>
		<path class="st21" d="M957.8,671.6c0,0-215.3,50.3-404.9,125.5C424.2,848.1,0,0,0,0"/>
	</g>
</g>
</svg>
