<?xml version="1.0" encoding="utf-8"?>
<!-- Generator: Adobe Illustrator 24.0.3, SVG Export Plug-In . SVG Version: 6.00 Build 0)  -->
<svg version="1.1" id="Layer_1" xmlns="http://www.w3.org/2000/svg" xmlns:xlink="http://www.w3.org/1999/xlink" x="0px" y="0px"
	 viewBox="0 0 16382.95 16382.95" style="enable-background:new 0 0 16382.95 16382.95;" xml:space="preserve">
<style type="text/css">
	.st0{fill:#CE0E2D;}
</style>
<g>
	<path class="st0" d="M2261.43,11200.24c0-22,17.82-39.96,39.75-39.96c22,0,39.83,17.61,39.83,39.54v0.42
		c0,22-17.83,39.75-39.83,39.75C2279.25,11239.99,2261.43,11222.24,2261.43,11200.24"/>
	<path class="st0" d="M2261.43,12010.39c0-22,17.82-40.25,39.75-40.25c22,0,39.83,17.4,39.83,39.4v0.85
		c0,21.93-17.83,39.75-39.83,39.75C2279.25,12050.14,2261.43,12032.31,2261.43,12010.39 M2261.43,12820.49
		c0-22,17.82-40.18,39.75-40.18c22,0,39.83,17.4,39.83,39.4v0.78c0,21.93-17.83,39.75-39.83,39.75
		C2279.25,12860.24,2261.43,12842.42,2261.43,12820.49 M2261.43,13630.67c0-22,17.82-40.25,39.75-40.25c22,0,39.83,17.47,39.83,39.4
		v0.85c0,21.93-17.83,39.75-39.83,39.75C2279.25,13670.42,2261.43,13652.6,2261.43,13630.67 M2261.43,14440.77
		c0-22,17.82-40.18,39.75-40.18c22,0,39.83,17.47,39.83,39.4v0.78c0,21.93-17.83,39.75-39.83,39.75
		C2279.25,14480.53,2261.43,14462.7,2261.43,14440.77 M2261.43,15250.95c0-22,17.82-40.18,39.75-40.18c22,0,39.83,17.4,39.83,39.33
		v0.85c0,22-17.83,39.75-39.83,39.75C2279.25,15290.7,2261.43,15272.95,2261.43,15250.95"/>
	<path class="st0" d="M2261.43,16060.72c0-22,17.82-39.96,39.75-39.96c22,0,39.83,17.61,39.83,39.54v0.42
		c0,22-17.83,39.75-39.83,39.75C2279.25,16100.47,2261.43,16082.72,2261.43,16060.72"/>
	<path class="st0" d="M1375.19,11200.24c0-22,17.82-39.96,39.75-39.96c22,0,39.83,17.61,39.83,39.54v0.42
		c0,22-17.83,39.75-39.83,39.75C1393.01,11239.99,1375.19,11222.24,1375.19,11200.24"/>
	<path class="st0" d="M1375.19,12010.39c0-22,17.82-40.25,39.75-40.25c22,0,39.83,17.4,39.83,39.4v0.85
		c0,21.93-17.83,39.75-39.83,39.75C1393.01,12050.14,1375.19,12032.31,1375.19,12010.39 M1375.19,12820.49
		c0-22,17.82-40.18,39.75-40.18c22,0,39.83,17.4,39.83,39.4v0.78c0,21.93-17.83,39.75-39.83,39.75
		C1393.01,12860.24,1375.19,12842.42,1375.19,12820.49 M1375.19,13630.67c0-22,17.82-40.25,39.75-40.25c22,0,39.83,17.47,39.83,39.4
		v0.85c0,21.93-17.83,39.75-39.83,39.75C1393.01,13670.42,1375.19,13652.6,1375.19,13630.67 M1375.19,14440.77
		c0-22,17.82-40.18,39.75-40.18c22,0,39.83,17.47,39.83,39.4v0.78c0,21.93-17.83,39.75-39.83,39.75
		C1393.01,14480.53,1375.19,14462.7,1375.19,14440.77 M1375.19,15250.95c0-22,17.82-40.18,39.75-40.18c22,0,39.83,17.4,39.83,39.33
		v0.85c0,22-17.83,39.75-39.83,39.75C1393.01,15290.7,1375.19,15272.95,1375.19,15250.95"/>
	<path class="st0" d="M1375.19,16060.72c0-22,17.82-39.96,39.75-39.96c22,0,39.83,17.61,39.83,39.54v0.42
		c0,22-17.83,39.75-39.83,39.75C1393.01,16100.47,1375.19,16082.72,1375.19,16060.72"/>
	<path class="st0" d="M489.02,11200.24c0-22,17.82-39.96,39.75-39.96c22,0,39.83,17.61,39.83,39.54v0.42
		c0,22-17.83,39.75-39.83,39.75C506.84,11239.99,489.02,11222.24,489.02,11200.24"/>
	<path class="st0" d="M489.02,12010.39c0-22,17.82-40.25,39.75-40.25c22,0,39.83,17.4,39.83,39.4v0.85
		c0,21.93-17.83,39.75-39.83,39.75C506.84,12050.14,489.02,12032.31,489.02,12010.39 M489.02,12820.49c0-22,17.82-40.18,39.75-40.18
		c22,0,39.83,17.4,39.83,39.4v0.78c0,21.93-17.83,39.75-39.83,39.75C506.84,12860.24,489.02,12842.42,489.02,12820.49
		 M489.02,13630.67c0-22,17.82-40.25,39.75-40.25c22,0,39.83,17.47,39.83,39.4v0.85c0,21.93-17.83,39.75-39.83,39.75
		C506.84,13670.42,489.02,13652.6,489.02,13630.67 M489.02,14440.77c0-22,17.82-40.18,39.75-40.18c22,0,39.83,17.47,39.83,39.4v0.78
		c0,21.93-17.83,39.75-39.83,39.75C506.84,14480.53,489.02,14462.7,489.02,14440.77 M489.02,15250.95c0-22,17.82-40.18,39.75-40.18
		c22,0,39.83,17.4,39.83,39.33v0.85c0,22-17.83,39.75-39.83,39.75C506.84,15290.7,489.02,15272.95,489.02,15250.95"/>
	<path class="st0" d="M489.02,16060.72c0-22,17.82-39.96,39.75-39.96c22,0,39.83,17.61,39.83,39.54v0.42
		c0,22-17.83,39.75-39.83,39.75C506.84,16100.47,489.02,16082.72,489.02,16060.72"/>
</g>
<g>
	<path class="st0" d="M15875.71,423.85c0-22,17.82-39.96,39.75-39.96c22,0,39.83,17.61,39.83,39.54v0.42
		c0,22-17.83,39.75-39.83,39.75C15893.53,463.6,15875.71,445.85,15875.71,423.85"/>
	<path class="st0" d="M15875.71,1234c0-22,17.82-40.25,39.75-40.25c22,0,39.83,17.4,39.83,39.4v0.85
		c0,21.93-17.83,39.75-39.83,39.75C15893.53,1273.75,15875.71,1255.93,15875.71,1234 M15875.71,2044.11
		c0-22,17.82-40.18,39.75-40.18c22,0,39.83,17.4,39.83,39.4v0.78c0,21.93-17.83,39.75-39.83,39.75
		C15893.53,2083.86,15875.71,2066.03,15875.71,2044.11 M15875.71,2854.28c0-22,17.82-40.25,39.75-40.25c22,0,39.83,17.47,39.83,39.4
		v0.85c0,21.93-17.83,39.75-39.83,39.75C15893.53,2894.03,15875.71,2876.21,15875.71,2854.28 M15875.71,3664.39
		c0-22,17.82-40.18,39.75-40.18c22,0,39.83,17.47,39.83,39.4v0.78c0,21.93-17.83,39.75-39.83,39.75
		C15893.53,3704.14,15875.71,3686.32,15875.71,3664.39 M15875.71,4474.57c0-22,17.82-40.18,39.75-40.18c22,0,39.83,17.4,39.83,39.33
		v0.85c0,22-17.83,39.75-39.83,39.75C15893.53,4514.32,15875.71,4496.56,15875.71,4474.57"/>
	<path class="st0" d="M15875.71,5284.33c0-22,17.82-39.96,39.75-39.96c22,0,39.83,17.61,39.83,39.54v0.42
		c0,22-17.83,39.75-39.83,39.75C15893.53,5324.08,15875.71,5306.33,15875.71,5284.33"/>
	<path class="st0" d="M14989.48,423.85c0-22,17.82-39.96,39.75-39.96c22,0,39.83,17.61,39.83,39.54v0.42
		c0,22-17.83,39.75-39.83,39.75C15007.3,463.6,14989.48,445.85,14989.48,423.85"/>
	<path class="st0" d="M14989.48,1234c0-22,17.82-40.25,39.75-40.25c22,0,39.83,17.4,39.83,39.4v0.85
		c0,21.93-17.83,39.75-39.83,39.75C15007.3,1273.75,14989.48,1255.93,14989.48,1234 M14989.48,2044.11c0-22,17.82-40.18,39.75-40.18
		c22,0,39.83,17.4,39.83,39.4v0.78c0,21.93-17.83,39.75-39.83,39.75C15007.3,2083.86,14989.48,2066.03,14989.48,2044.11
		 M14989.48,2854.28c0-22,17.82-40.25,39.75-40.25c22,0,39.83,17.47,39.83,39.4v0.85c0,21.93-17.83,39.75-39.83,39.75
		C15007.3,2894.03,14989.48,2876.21,14989.48,2854.28 M14989.48,3664.39c0-22,17.82-40.18,39.75-40.18c22,0,39.83,17.47,39.83,39.4
		v0.78c0,21.93-17.83,39.75-39.83,39.75C15007.3,3704.14,14989.48,3686.32,14989.48,3664.39 M14989.48,4474.57
		c0-22,17.82-40.18,39.75-40.18c22,0,39.83,17.4,39.83,39.33v0.85c0,22-17.83,39.75-39.83,39.75
		C15007.3,4514.32,14989.48,4496.56,14989.48,4474.57"/>
	<path class="st0" d="M14989.48,5284.33c0-22,17.82-39.96,39.75-39.96c22,0,39.83,17.61,39.83,39.54v0.42
		c0,22-17.83,39.75-39.83,39.75C15007.3,5324.08,14989.48,5306.33,14989.48,5284.33"/>
	<path class="st0" d="M14103.31,423.85c0-22,17.82-39.96,39.75-39.96c22,0,39.83,17.61,39.83,39.54v0.42
		c0,22-17.83,39.75-39.83,39.75C14121.13,463.6,14103.31,445.85,14103.31,423.85"/>
	<path class="st0" d="M14103.31,1234c0-22,17.82-40.25,39.75-40.25c22,0,39.83,17.4,39.83,39.4v0.85
		c0,21.93-17.83,39.75-39.83,39.75C14121.13,1273.75,14103.31,1255.93,14103.31,1234 M14103.31,2044.11
		c0-22,17.82-40.18,39.75-40.18c22,0,39.83,17.4,39.83,39.4v0.78c0,21.93-17.83,39.75-39.83,39.75
		C14121.13,2083.86,14103.31,2066.03,14103.31,2044.11 M14103.31,2854.28c0-22,17.82-40.25,39.75-40.25c22,0,39.83,17.47,39.83,39.4
		v0.85c0,21.93-17.83,39.75-39.83,39.75C14121.13,2894.03,14103.31,2876.21,14103.31,2854.28 M14103.31,3664.39
		c0-22,17.82-40.18,39.75-40.18c22,0,39.83,17.47,39.83,39.4v0.78c0,21.93-17.83,39.75-39.83,39.75
		C14121.13,3704.14,14103.31,3686.32,14103.31,3664.39 M14103.31,4474.57c0-22,17.82-40.18,39.75-40.18c22,0,39.83,17.4,39.83,39.33
		v0.85c0,22-17.83,39.75-39.83,39.75C14121.13,4514.32,14103.31,4496.56,14103.31,4474.57"/>
	<path class="st0" d="M14103.31,5284.33c0-22,17.82-39.96,39.75-39.96c22,0,39.83,17.61,39.83,39.54v0.42
		c0,22-17.83,39.75-39.83,39.75C14121.13,5324.08,14103.31,5306.33,14103.31,5284.33"/>
</g>
</svg>
