<?xml version="1.0" encoding="utf-8"?>
<!-- Generator: Adobe Illustrator 24.0.3, SVG Export Plug-In . SVG Version: 6.00 Build 0)  -->
<svg version="1.1" id="Layer_1" xmlns="http://www.w3.org/2000/svg" xmlns:xlink="http://www.w3.org/1999/xlink" x="0px" y="0px"
	 viewBox="0 0 400 400" style="enable-background:new 0 0 400 400;" xml:space="preserve">
<style type="text/css">
	.st0{fill:#6B6B6B;}
	.st1{fill:#FFFFFF;stroke:#000000;stroke-width:1.5;stroke-linecap:round;stroke-linejoin:round;stroke-miterlimit:10;}
	.st2{fill:none;stroke:#000000;stroke-width:1.5;stroke-linecap:round;stroke-linejoin:round;stroke-miterlimit:10;}
	.st3{fill:#CF202F;stroke:#000000;stroke-width:1.5;stroke-linecap:round;stroke-linejoin:round;stroke-miterlimit:10;}
</style>
<rect class="st0" width="400" height="400"/>
<g>
	<g>
		<g>
			<path class="st1" d="M147.1,155.5v24.6c-6.3,0-11.4-5.1-11.4-11.5V167c0-0.8,0.1-1.6,0.2-2.3c0.5-2.2,1.5-4.2,3.1-5.8
				C141.1,156.8,144,155.5,147.1,155.5z"/>
		</g>
		<g>
			<path class="st1" d="M263,167v1.7c0,6.4-5.1,11.5-11.4,11.5v-24.6c3.2,0,6,1.3,8.1,3.4c1.5,1.5,2.6,3.4,3,5.6
				c0,0.1,0.1,0.1,0.1,0.2C262.9,165.4,263,166.2,263,167z"/>
		</g>
		<g>
			<path class="st1" d="M251.5,180.2v-14.6c-0.3-11.5,0-32.6,0-38.5c-12.8-30.9-25.8-43.8-25.8-43.8s-33.3,7.9-49.7,17
				c-15.6,7.9-25.9,15.3-27.9,26.8c-0.7,3.3-1.1,6.6-1.1,10.1v47.2c0,24.4,17.8,44.7,41.2,48.4h22c0.2,0,0.5-0.1,0.7-0.1
				c23-4,40.6-24.1,40.6-48.3L251.5,180.2C251.5,180.2,251.5,180.2,251.5,180.2z M175,155.2c-2.5,0-4.6-2-4.6-4.6
				c0-2.5,2-4.6,4.6-4.6c2.5,0,4.6,2.1,4.6,4.6C179.6,153.1,177.6,155.2,175,155.2z M225.6,155.2c-2.6,0-4.6-2-4.6-4.6
				c0-2.5,2-4.6,4.6-4.6c2.5,0,4.6,2.1,4.6,4.6C230.2,153.1,228.2,155.2,225.6,155.2z"/>
			<path class="st1" d="M261.1,82.9c-1.1-6-3.2-11.2-5.9-15.8c0,0,0-0.1,0-0.1c-22.8-35.7-30.8-43.3-30.8-43.3l-16.8,16
				c0.1-6.8-2.3-16-2.3-16c-2.1,3.4-31.5,26.9-31.5,26.9L171.6,40c0,0-5.7,9.6-17,16.3C132.2,67.6,135.9,89,135.9,89v75.6
				c0.5-2.2,1.5-4.2,3.1-5.8c2.1-2.1,4.9-3.4,8.1-3.4v-18.3c0-3.5,0.4-6.9,1.1-10.1c2-11.5,12.3-18.9,27.9-26.8
				c16.3-9.1,49.7-17,49.7-17s12.9,12.9,25.8,43.8c0,5.8-0.3,26.9,0,38.5v-10c0,0,0,0,0.1,0c3.2,0,6,1.3,8.1,3.4
				c1.5,1.5,2.6,3.4,3,5.6C262.8,160.5,264.4,99.9,261.1,82.9z M236.2,79.4c0.5,0.8,8.7,14.4,11.7,22.9L236.2,79.4z"/>
			<path class="st2" d="M262.7,164.7c0,0,0-0.1,0-0.2"/>
		</g>
	</g>
	<g>
		<path class="st2" d="M193.8,164.8v19.5c0,3.4,2.8,6.2,6.2,6.2c3.4,0,6.2-2.8,6.2-6.2v-19.5"/>
		<path class="st2" d="M187.2,203.7c0,0,11,11.6,25.5,0"/>
		<g>
			<g>
				<path class="st1" d="M179.6,150.6c0,2.5-2.1,4.6-4.6,4.6c-2.5,0-4.6-2-4.6-4.6c0-2.5,2-4.6,4.6-4.6
					C177.6,146,179.6,148.1,179.6,150.6z"/>
				<path class="st2" d="M162.7,150.6c0,0,6.9-9.2,23.4-2"/>
			</g>
			<g>
				<path class="st1" d="M230.2,150.6c0,2.5-2,4.6-4.6,4.6c-2.6,0-4.6-2-4.6-4.6c0-2.5,2-4.6,4.6-4.6
					C228.2,146,230.2,148.1,230.2,150.6z"/>
				<path class="st2" d="M213.9,150.6c0,0,6.9-9.2,23.4-2"/>
			</g>
		</g>
		<g>
			<line class="st2" x1="226.6" y1="122.8" x2="238.3" y2="128.5"/>
			<path class="st2" d="M161.7,132.6c0,0,8-5.6,11.6-7"/>
		</g>
	</g>
	<path class="st2" d="M146.2,89.4c0,0-0.7-12.1,5.9-16.9c5.4-4,6.3-4.7,12.1-11.1"/>
	<g>
		<g>
			<path class="st1" d="M247.4,244.2l-37.7,156.1h-19.3l-37.7-156.1c0.7-0.1,1.5-0.1,2.2-0.2c1.2-0.1,2.4-0.1,3.5-0.1H189v-11.2
				h21.3c0.2,0,0.5-0.1,0.7-0.1V244h30.6C243.5,244,245.5,244.1,247.4,244.2z"/>
			<path class="st3" d="M190.4,400.3h-16.4l-28.3-102.7l6.9-9l-26.6-36c4.4-2.6,9.1-4.6,14-6.1c4.1-1.2,8.3-2,12.7-2.4L190.4,400.3z
				"/>
			<path class="st1" d="M173.9,400.3H93.9v-91.8c0-14,4.4-26.9,12-37.5c5.3-7.5,12.2-13.8,20.1-18.4l26.6,36l-6.9,9L173.9,400.3z"/>
			<path class="st1" d="M306.1,308.5v91.8h-80.4l28.1-102.7l-6.9-9l26.9-36.1c8.2,4.7,15.2,11.2,20.6,18.9
				C301.8,281.9,306.1,294.7,306.1,308.5z"/>
			<path class="st3" d="M246.9,288.7l6.9,9l-28.1,102.7h-16.1l37.7-156.1c2.1,0.2,4.2,0.5,6.2,0.9v0c2.2,0.4,4.3,0.9,6.4,1.5
				c4.9,1.4,9.5,3.4,13.7,5.9L246.9,288.7z"/>
			<g>
				<line class="st2" x1="189" y1="263.8" x2="189" y2="244"/>
				<line class="st2" x1="211" y1="263.8" x2="211" y2="244"/>
			</g>
		</g>
		<g>
			<line class="st2" x1="152.6" y1="244.2" x2="152.6" y2="244.1"/>
			<line class="st2" x1="247.5" y1="244.1" x2="247.4" y2="244.2"/>
		</g>
	</g>
</g>
<g>
</g>
<g>
</g>
<g>
</g>
<g>
</g>
<g>
</g>
<g>
</g>
</svg>
