<?xml version="1.0" encoding="utf-8"?>
<!-- Generator: Adobe Illustrator 24.0.3, SVG Export Plug-In . SVG Version: 6.00 Build 0)  -->
<svg version="1.1" id="Layer_1" xmlns="http://www.w3.org/2000/svg" xmlns:xlink="http://www.w3.org/1999/xlink" x="0px" y="0px"
	 viewBox="0 0 400 400" style="enable-background:new 0 0 400 400;" xml:space="preserve">
<style type="text/css">
	.st0{fill:none;stroke:#000000;stroke-width:1.5;stroke-linecap:round;stroke-linejoin:round;stroke-miterlimit:10;}
	.st1{fill:#FFFFFF;stroke:#000000;stroke-width:1.5;stroke-linecap:round;stroke-linejoin:round;stroke-miterlimit:10;}
	.st2{fill:#CF202F;stroke:#000000;stroke-width:1.5;stroke-linecap:round;stroke-linejoin:round;stroke-miterlimit:10;}
</style>
<rect width="400" height="400"/>
<g>
	<path class="st0" d="M174.4,134c0,2.8-2.3,5.1-5.1,5.1c-2.8,0-5.1-2.3-5.1-5.1c0-1.8,0.9-3.3,2.3-4.3c0,0,0,0,0.1,0
		c0.8-0.5,1.7-0.8,2.8-0.8c0.5,0,0.9,0.1,1.3,0.2h0C172.8,129.7,174.4,131.7,174.4,134z"/>
	<path class="st0" d="M234,134c0,2.8-2.3,5.1-5.1,5.1c-2.8,0-5.1-2.3-5.1-5.1c0-1.8,0.9-3.3,2.3-4.3c0,0,0,0,0.1,0
		c0.8-0.5,1.7-0.8,2.8-0.8c0.5,0,0.9,0.1,1.3,0.2h0C232.4,129.7,234,131.7,234,134z"/>
	<g>
		<path class="st1" d="M234,240.7c0,18.8-15.2,34-34,34c0,0,0,0,0-0.1c0,0,0,0.1,0,0.1c-18.8,0-34-15.2-34-34c0-6,1.6-11.7,4.3-16.5
			h17.3v-12.6c2.9,0.5,5.8,0.7,8.9,0.7h7.1c3,0,5.9-0.2,8.8-0.7v12.6h17.3C232.4,229.1,234,234.7,234,240.7z"/>
		<path class="st2" d="M301.5,400.1H100.2c0,0-4.8-100.4,18.4-120.5c24.4-15.4,22.7-54.4,22.7-54.4c3.9-0.6,7.9-1,12-1h17.1
			c-2.7,4.9-4.3,10.5-4.3,16.5c0,18.8,15.2,34,33.9,34h0.1c18.8,0,34-15.2,34-34c0-6-1.6-11.7-4.3-16.5h17.1
			c5.1,0,10.1,0.5,14.8,1.5c0,0-1.8,38.4,22.7,53.8C307.4,299.7,301.5,400.1,301.5,400.1z"/>
		<path class="st1" d="M118.6,279.5c-23.2,20.1-18.4,120.5-18.4,120.5H80.6V296.8c0-15.7,5-30.3,13.5-42.1
			c9.3-13,22.7-22.8,38.4-27.5c2.8-0.9,5.8-1.5,8.8-2C141.3,225.2,143,264.1,118.6,279.5z"/>
		<path class="st1" d="M319.4,296.8v103.2h-18c0,0,6-100.4-17.2-120.5c-24.4-15.4-22.7-53.8-22.7-53.8c2,0.4,4,0.9,5.9,1.5
			c15.8,4.7,29.4,14.7,38.7,27.9C314.5,266.9,319.4,281.3,319.4,296.8z"/>
		<g>
			<line class="st0" x1="187.6" y1="240.7" x2="187.6" y2="224.2"/>
			<line class="st0" x1="212.4" y1="240.7" x2="212.4" y2="224.2"/>
		</g>
	</g>
	<g>
		<path class="st1" d="M258.7,152.4v-27.7c-1.2-0.2-2.4-0.3-3.6-0.6c-1.5-0.2-3.1-0.5-4.6-0.8c-1.6-0.3-3.2-0.6-4.7-0.9
			c-2.8-0.6-5.6-1.2-8.2-1.9c-1.3-0.3-2.6-0.7-3.9-1c-0.2-0.1-0.5-0.1-0.7-0.2c-1.2-0.3-2.3-0.7-3.4-1c-1.5-0.4-2.8-0.9-4.2-1.4
			c-1-0.3-1.9-0.7-2.8-1c-0.3-0.1-0.7-0.2-1-0.4c-0.1,0-0.1,0-0.1-0.1c-1.2-0.5-2.4-1-3.6-1.5c0,0,0,0,0,0c-1.2-0.5-2.4-1-3.5-1.6
			c-1.2-0.5-2.3-1-3.3-1.6c-1.1-0.6-2.1-1.1-3.1-1.7c-2.1-1.2-4.1-2.4-6-3.6c-0.8-0.5-1.6-1-2.3-1.6c-1.2-0.8-2.3-1.7-3.3-2.5
			c-0.8-0.6-1.5-1.2-2.2-1.9c-1.8-1.6-3.4-3.2-4.8-4.7c-0.7-0.7-1.3-1.5-1.9-2.2c-1.8-2.2-3.3-4.3-4.5-6.3c-0.3-0.6-0.7-1.1-1-1.7
			c-0.3-0.6-0.6-1.2-0.9-1.8c-0.2-0.3-0.3-0.6-0.4-0.8c-0.3-0.6-0.5-1.1-0.7-1.6c-0.4-1-0.8-2-1.1-2.9c-0.1-0.4-0.2-0.8-0.3-1.2
			c-0.1-0.2-0.1-0.5-0.2-0.7c-0.1-0.3-0.1-0.5-0.2-0.7c-0.1-0.3-0.1-0.6-0.2-0.8c0-0.2-0.1-0.4-0.1-0.5c0-0.3-0.1-0.5-0.1-0.5
			c-0.3,1.5-0.6,3-1,4.5c-3.6,15.5-8.9,25.9-14.2,32.8c-0.3,0.3-0.5,0.7-0.8,1c-0.8,1-1.5,1.8-2.3,2.7c-0.8,0.8-1.5,1.6-2.3,2.3
			c-0.4,0.3-0.8,0.7-1.1,1c0,0-0.1,0.1-0.1,0.1c-1.1,0.9-2.1,1.7-3.1,2.4c0,0-0.1,0.1-0.1,0.1c-0.4,0.3-0.9,0.6-1.4,0.9
			c-0.4,0.3-0.9,0.6-1.3,0.8c-0.4,0.2-0.8,0.5-1.2,0.7c-0.4,0.2-0.8,0.4-1.2,0.6c-0.6,0.3-1.1,0.5-1.6,0.7c-0.5,0.2-1,0.4-1.5,0.5
			c-0.6,0.2-1.1,0.3-1.5,0.4c-0.2,0.1-0.4,0.1-0.6,0.1c-0.8,0.1-1.2,0.2-1.2,0.2v32.5c0,5.9,0.9,11.6,2.7,17
			c0.1,0.3,0.1,0.5,0.2,0.8c1.7,4.9,4,9.4,6.8,13.5c8.4,12.1,21.5,20.8,36.6,23.2c2.9,0.5,5.8,0.7,8.9,0.7h7.1c3,0,5.9-0.2,8.8-0.7
			c15.4-2.5,28.7-11.3,37.1-23.8c2.9-4.4,5.3-9.3,6.9-14.5c0.1-0.2,0.1-0.4,0.2-0.6c1.5-5,2.3-10.2,2.3-15.7L258.7,152.4
			C258.7,152.4,258.7,152.4,258.7,152.4z M169.3,139.2c-2.8,0-5.1-2.3-5.1-5.1c0-1.8,0.9-3.3,2.3-4.3c0,0,0,0,0.1,0
			c0.8-0.5,1.7-0.8,2.8-0.8c0.5,0,0.9,0.1,1.3,0.2h0c2.2,0.6,3.8,2.6,3.8,4.9C174.4,136.9,172.1,139.2,169.3,139.2z M228.9,139.2
			c-2.8,0-5.1-2.3-5.1-5.1c0-1.8,0.9-3.3,2.3-4.3c0,0,0,0,0.1,0c0.8-0.5,1.7-0.8,2.8-0.8c0.5,0,0.9,0.1,1.3,0.2h0
			c2.2,0.6,3.8,2.6,3.8,4.9C234,136.9,231.7,139.2,228.9,139.2z"/>
		<path class="st1" d="M143.9,174.1c-0.8,0.2-1.7,0.3-2.6,0.3c-5.7,0-10.3-4.6-10.3-10.3c0-5.7,4.6-10.3,10.3-10.3v3.3
			C141.3,163.1,142.2,168.8,143.9,174.1z"/>
		<path class="st1" d="M151,188.4c-1.5,4-5.2,6.7-9.7,6.7c-5.7,0-10.3-4.6-10.3-10.3c0-5.7,4.7-10.3,10.3-10.3c1,0,1.9,0.1,2.9,0.4
			C145.8,179.7,148.1,184.3,151,188.4z"/>
		<path class="st1" d="M151.6,205.4c0,5.7-4.6,10.3-10.3,10.3c-5.7,0-10.3-4.6-10.3-10.3c0-5.7,4.6-10.3,10.3-10.3
			C147,195.1,151.6,199.7,151.6,205.4z"/>
		<path class="st1" d="M151.6,226.1c0,5.7-4.6,10.3-10.3,10.3c-5.7,0-10.3-4.6-10.3-10.3c0-5.7,4.6-10.3,10.3-10.3
			C147,215.8,151.6,220.4,151.6,226.1z"/>
		<path class="st1" d="M151.6,246.8c0,5.7-4.6,10.3-10.3,10.3c-5.7,0-10.3-4.6-10.3-10.3c0-5.7,4.6-10.3,10.3-10.3
			C147,236.4,151.6,241.1,151.6,246.8z"/>
	</g>
	<path class="st0" d="M206.3,150.9c0.8,1,1.2,2.3,1.2,3.6c0,3.4-2.7,6.1-6.1,6.1c-3.4,0-6.1-2.7-6.1-6.1c0-1.1,0.3-2.2,0.9-3.1"/>
	<path class="st1" d="M141.3,124.7v27.7c-7.1,0-12.9-5.8-12.9-12.9v-1.9c0-0.9,0.1-1.8,0.3-2.6c0.5-2.5,1.7-4.7,3.5-6.5
		C134.5,126.1,137.7,124.7,141.3,124.7z"/>
	<path class="st1" d="M271.6,137.6v1.9c0,7.1-5.7,12.9-12.8,12.9v-27.7c3.1,0,5.9,1.1,8.1,2.9c0.3,0.3,0.6,0.6,0.9,0.8
		c1.8,1.7,3,4,3.5,6.5C271.5,135.8,271.6,136.7,271.6,137.6z"/>
	<path class="st1" d="M177.6,18.9v54c-0.3,1.5-0.6,3-1,4.5c-3.6,15.5-8.9,25.9-14.2,32.8c-0.3,0.3-0.5,0.7-0.8,1
		c-0.8,1-1.5,1.8-2.3,2.7c-0.8,0.8-1.5,1.6-2.3,2.3c-0.4,0.3-0.8,0.7-1.1,1c0,0-0.1,0.1-0.1,0.1c-1.8,1.1-2.9,2.2-3.1,2.4
		c0,0-0.1,0.1-0.1,0.1c-0.4,0.3-0.9,0.6-1.4,0.9c-0.4,0.3-0.9,0.6-1.3,0.8c-0.4,0.2-0.8,0.5-1.2,0.7c-0.4,0.2-0.8,0.4-1.2,0.6
		c-0.6,0.3-1.1,0.5-1.6,0.7c-0.5,0.2-1,0.4-1.5,0.5c-0.6,0.2-1.1,0.3-1.5,0.4c-0.2,0.1-0.4,0.1-0.6,0.1c-0.8,0.1-1.2,0.2-1.2,0.2
		c-3.5,0-6.8,1.4-9.1,3.8V75.6C132.2,47.9,151.6,24.7,177.6,18.9z"/>
	<path class="st0" d="M156,117.3c-1.1,0.9-2.1,1.7-3.1,2.4C153.1,119.4,154.1,118.4,156,117.3z"/>
	<path class="st1" d="M266.9,75.6v52c-2.2-1.8-5.1-2.9-8.1-2.9c0,0,0,0-0.1,0c-1.2-0.2-2.4-0.3-3.6-0.6c-1.5-0.2-3.1-0.5-4.6-0.8
		c-1.6-0.3-3.2-0.6-4.7-0.9c-2.8-0.6-5.6-1.2-8.2-1.9c-1.3-0.3-2.6-0.7-3.9-1c-0.2-0.1-0.5-0.1-0.7-0.2c-1.2-0.3-2.3-0.7-3.4-1
		c-1.5-0.4-2.8-0.9-4.2-1.4c-1-0.3-1.9-0.7-2.8-1c-0.3-0.1-0.7-0.2-1-0.4c-0.1,0-0.1,0-0.1-0.1c-1.2-0.5-2.4-1-3.6-1.5c0,0,0,0,0,0
		c-1.2-0.5-2.4-1-3.5-1.6c-1.2-0.5-2.3-1.1-3.3-1.6c-1.1-0.6-2.1-1.1-3.1-1.7c-2.1-1.2-4.1-2.4-6-3.6c-0.8-0.5-1.6-1-2.3-1.6
		c-1.2-0.8-2.3-1.7-3.3-2.5c-0.8-0.6-1.5-1.2-2.2-1.9c-1.8-1.6-3.4-3.2-4.8-4.7c-0.7-0.7-1.3-1.4-1.9-2.2c-1.8-2.2-3.3-4.3-4.5-6.3
		c-0.3-0.6-0.7-1.1-1-1.7c-0.3-0.6-0.6-1.2-0.9-1.8c-0.1-0.3-0.3-0.6-0.4-0.8c-0.3-0.6-0.5-1.1-0.7-1.6c-0.4-1-0.8-2-1.1-2.9
		c-0.1-0.4-0.2-0.8-0.3-1.2c-0.1-0.2-0.1-0.5-0.2-0.7c-0.1-0.3-0.1-0.5-0.2-0.7c-0.1-0.3-0.1-0.6-0.2-0.8c0-0.2-0.1-0.4-0.1-0.5
		c0-0.3-0.1-0.5-0.1-0.5v-54c1.2-0.3,2.4-0.5,3.7-0.7c2.9-0.5,6-0.7,9-0.7h18.5C240.9,17.5,266.9,43.5,266.9,75.6z"/>
	<g>
		<g>
			<path class="st0" d="M183.5,134.3c-5-3.9-9.4-5.2-12.9-5.2"/>
			<path class="st0" d="M170.6,129.1c-1.5,0-2.9,0.3-4.1,0.6"/>
			<path class="st0" d="M166.5,129.8c-4.4,1.4-6.7,4.5-6.7,4.5"/>
			<path class="st1" d="M174.4,134c0,2.8-2.3,5.1-5.1,5.1c-2.8,0-5.1-2.3-5.1-5.1c0-1.8,0.9-3.3,2.3-4.3c0,0,0,0,0.1,0
				c0.8-0.5,1.7-0.8,2.8-0.8c0.5,0,0.9,0.1,1.3,0.2h0C172.8,129.7,174.4,131.7,174.4,134z"/>
		</g>
		<g>
			<path class="st0" d="M243.1,134.3c-5-3.9-9.4-5.2-12.9-5.2"/>
			<path class="st0" d="M230.2,129.1c-1.5,0-2.9,0.3-4.1,0.6"/>
			<path class="st0" d="M226,129.8c-4.4,1.4-6.7,4.5-6.7,4.5"/>
			<path class="st1" d="M234,134c0,2.8-2.3,5.1-5.1,5.1c-2.8,0-5.1-2.3-5.1-5.1c0-1.8,0.9-3.3,2.3-4.3c0,0,0,0,0.1,0
				c0.8-0.5,1.7-0.8,2.8-0.8c0.5,0,0.9,0.1,1.3,0.2h0C232.4,129.7,234,131.7,234,134z"/>
		</g>
	</g>
	<path class="st0" d="M182.4,174.7c0,0-5.8,7.5,3.6,9.2c9.4,1.7,42.9,3.4,34.9-9.2"/>
	<path class="st0" d="M156,117.2c4.7-2.9,14.7-6.4,30.1,1.1"/>
	<path class="st0" d="M221.5,115.4c-4.7,1.7-7,4.4-7,4.4"/>
	<g>
		<path class="st0" d="M138.9,256.8c0,0-10.4,6.1-6.3,22.4"/>
		<path class="st0" d="M143.7,256.8c0,0,9.6,6.1,5.5,22.4"/>
		<line class="st0" x1="141.3" y1="257.1" x2="141.3" y2="275.6"/>
	</g>
	<g>
		<g>
			<path class="st1" d="M269.1,162.8c0,5.7-4.6,10.3-10.3,10.3c-0.8,0-1.5-0.1-2.3-0.3c1.5-5,2.3-10.2,2.3-15.7v-4.7
				C264.5,152.4,269.1,157,269.1,162.8z"/>
			<path class="st1" d="M269.1,183.4c0,5.7-4.6,10.3-10.3,10.3c-4.1,0-7.7-2.4-9.3-5.9c2.9-4.4,5.3-9.3,6.9-14.5
				c0.8-0.2,1.6-0.3,2.4-0.3C264.5,173.1,269.1,177.7,269.1,183.4z"/>
			<path class="st1" d="M269.1,204.1c0,5.7-4.6,10.3-10.3,10.3c-5.7,0-10.3-4.6-10.3-10.3c0-5.7,4.6-10.3,10.3-10.3
				C264.5,193.7,269.1,198.4,269.1,204.1z"/>
			<path class="st1" d="M269.1,224.7c0,5.7-4.6,10.3-10.3,10.3c-5.7,0-10.3-4.6-10.3-10.3c0-5.7,4.6-10.3,10.3-10.3
				C264.5,214.4,269.1,219,269.1,224.7z"/>
			<path class="st1" d="M269.1,245.4c0,5.7-4.6,10.3-10.3,10.3c-5.7,0-10.3-4.6-10.3-10.3c0-5.7,4.6-10.3,10.3-10.3
				C264.5,235.1,269.1,239.7,269.1,245.4z"/>
		</g>
		<g>
			<path class="st0" d="M256.8,255.7c0,0-10.4,6.1-6.3,22.4"/>
			<path class="st0" d="M261.5,255.7c0,0,9.6,6.1,5.5,22.4"/>
			<line class="st0" x1="259.1" y1="256" x2="259.1" y2="274.5"/>
		</g>
	</g>
	<path class="st0" d="M201.4,84.3c0,0,16.6,20.1,48.1,24.3"/>
	<path class="st0" d="M221.5,84.3c0,0,13.4,11.2,26.9,12.1"/>
</g>
<g>
</g>
<g>
</g>
<g>
</g>
<g>
</g>
<g>
</g>
<g>
</g>
</svg>
