<?xml version="1.0" encoding="utf-8"?>
<!-- Generator: Adobe Illustrator 24.0.3, SVG Export Plug-In . SVG Version: 6.00 Build 0)  -->
<svg version="1.1" id="Layer_1" xmlns="http://www.w3.org/2000/svg" xmlns:xlink="http://www.w3.org/1999/xlink" x="0px" y="0px"
	 viewBox="0 0 400 400" style="enable-background:new 0 0 400 400;" xml:space="preserve">
<style type="text/css">
	.st0{fill:#FFFFFF;}
	.st1{fill:#E7811D;}
	.st2{fill:#503629;}
</style>
<rect class="st0" width="400" height="400"/>
<g>
	<path class="st1" d="M330,121c2.7,15.3,3.3,31.3,1.3,47.6c-10.7,87.8-90.6,150.2-178.5,139.6c-61.4-7.5-110.4-48.6-130.8-102.7
		C34.2,272.8,89,327.4,160.6,336.1c87.9,10.7,167.8-51.8,178.5-139.6C342.3,170.1,338.8,144.3,330,121z"/>
	<path class="st1" d="M306.6,90c2.5,14.1,3.1,28.8,1.2,43.8c-9.8,80.8-83.4,138.3-164.3,128.5C87,255.5,41.8,217.6,23,167.8
		c11.2,62,61.6,112.3,127.6,120.3c81,9.8,154.5-47.7,164.4-128.5C317.9,135.2,314.7,111.5,306.6,90z"/>
	<path class="st2" d="M279.6,371.1C342.9,342.4,387.1,280,389,205.9c2.6-104.5-79.9-191.4-184.4-194C103,9.3,18.2,87.1,11,187.3
		C18,95.2,96.1,23.8,189.5,26.2c96.4,2.4,174.3,82.6,170.1,179c-1.9,44.7-17.4,78.6-42.9,103.1c-15.3,13.6-32.8,24.7-51.8,32.7
		c-12.7,5.1-26.3,9.1-40.9,12c-17.5,3-35.8,3.6-54.3,1.3C98,345.5,40.8,297.4,17,234.3C31.1,313,95.1,376.7,178.8,386.8
		c33.9,4.1,66.7-1.1,96-13.6c1.1-0.4,2.1-0.9,3.2-1.4C278.5,371.6,279,371.4,279.6,371.1z"/>
</g>
<g>
</g>
<g>
</g>
<g>
</g>
<g>
</g>
<g>
</g>
<g>
</g>
</svg>
