<?xml version="1.0" encoding="utf-8"?>
<!-- Generator: Adobe Illustrator 24.0.3, SVG Export Plug-In . SVG Version: 6.00 Build 0)  -->
<svg version="1.1" id="Layer_1" xmlns="http://www.w3.org/2000/svg" xmlns:xlink="http://www.w3.org/1999/xlink" x="0px" y="0px"
	 viewBox="0 0 400 400" style="enable-background:new 0 0 400 400;" xml:space="preserve">
<style type="text/css">
	.st0{fill:#CF202F;stroke:#000000;stroke-width:1.5;stroke-linecap:round;stroke-linejoin:round;stroke-miterlimit:10;}
	.st1{fill:none;stroke:#000000;stroke-width:1.5;stroke-linecap:round;stroke-linejoin:round;stroke-miterlimit:10;}
	.st2{fill:#FFFFFF;stroke:#000000;stroke-width:1.5;stroke-linecap:round;stroke-linejoin:round;stroke-miterlimit:10;}
</style>
<rect width="400" height="400"/>
<g>
	<g>
		<g>
			<path class="st0" d="M261.1,189.7c1.7,2.6,2.6,5.7,2.6,9c0,1.6-0.2,3.2-0.7,4.7c2.3,2.8,3.6,6.4,3.6,10.3
				c0,9.2-7.5,16.7-16.7,16.7c-3.1,0-5.9-0.8-8.4-2.3c-0.1,2.3-0.6,4.4-1.5,6.4c-2.6,5.7-8.4,9.7-15.1,9.7c-4.9,0-9.3-2.1-12.3-5.5
				c-0.4-0.4-0.7-0.8-1-1.3c-0.1-0.1-0.1-0.1-0.1-0.1c-0.4,0.7-1,1.3-1.5,1.8c-1,1-2.1,1.9-3.4,2.6c-2.5,1.5-5.5,2.4-8.6,2.4
				c-3.1,0-6.1-0.9-8.6-2.4c-0.4-0.2-0.8-0.5-1.1-0.7c-0.9-0.6-1.7-1.3-2.4-2.1c-2.9,4.8-8.2,8-14.3,8c-7.8,0-14.3-5.3-16.1-12.5
				c-0.4-1.3-0.5-2.7-0.5-4.1c0-1.3,0.2-2.6,0.5-3.8c-1.7,0.6-3.6,1-5.5,1c-9.2,0-16.7-7.4-16.7-16.7c0-3.9,1.3-7.5,3.6-10.3
				c-0.8-2-1.3-4.1-1.3-6.4c0-4.4,1.7-8.4,4.5-11.4c-4.7-1.6-8-6.1-8-11.4v-1.8c0-0.8,0.1-1.7,0.2-2.5c0.5-2.3,1.7-4.4,3.3-6.1
				c2.2-2.2,5.2-3.5,8.5-3.5v-12.9c10.3,3.8,28.5,8.4,45.5,1.7v9c0,4.6,3.8,8.4,8.4,8.4c4.7,0,8.4-3.8,8.4-8.4v-9.5
				c17.4,6.9,37,2.2,47.7-1.6c0,4.9,0,9.4,0,13.2h0.1c9.3,0,16.8,7.5,16.8,16.8C271.2,181.2,267.1,187.1,261.1,189.7z"/>
		</g>
		<g>
			<path class="st1" d="M254.4,86c0,1.4,0,5.9-0.1,12.2"/>
			<path class="st2" d="M254.3,98.1c0,12.1-0.1,30.8-0.1,46.1c-10.7,3.8-30.2,8.5-47.7,1.6v9.5c0,4.6-3.8,8.4-8.4,8.4
				c-4.6,0-8.4-3.8-8.4-8.4v-9c-17,6.7-35.2,2.2-45.5-1.7V89.9c0,0,5.4-10.4,24-11.7c18.6-1.2,13.7,14.2,38.3,5.9
				c17.3-5.9,30.9-1.2,39.6,5.5C249.7,92.3,252.4,95.3,254.3,98.1z"/>
		</g>
	</g>
	<g>
		<g>
			<path class="st2" d="M312,302.6v96.8H88v-96.8c0-14.7,4.7-28.4,12.6-39.5c5.6-7.9,12.9-14.5,21.3-19.4c2.7-1.6,5.5-3,8.4-4.2
				c11.1,28.5,38.9,48.8,71.3,48.8c32,0,59.4-19.6,70.8-47.5c1.8,0.8,3.6,1.7,5.3,2.7c8.6,5,16.1,11.8,21.8,19.9
				C307.4,274.5,312,288,312,302.6z"/>
		</g>
		<g>
			<line class="st1" x1="150" y1="234.7" x2="149.9" y2="234.6"/>
			<line class="st1" x1="250.1" y1="234.6" x2="250" y2="234.7"/>
		</g>
	</g>
	<path class="st2" d="M272.5,240.8c-11.4,27.9-38.9,47.5-70.8,47.5c-32.5,0-60.2-20.2-71.3-48.8c2.1-0.8,4.2-1.6,6.4-2.2
		c4.3-1.3,8.7-2.2,13.3-2.6c0.8-0.1,1.6-0.1,2.4-0.2c1-0.1,2.1-0.1,3.2-0.1c1.8,7.2,8.3,12.5,16.1,12.5c6.1,0,11.3-3.2,14.3-8
		c0.7,0.8,1.5,1.5,2.4,2.1c0.4,0.3,0.7,0.5,1.1,0.7c2.5,1.5,5.4,2.4,8.6,2.4c3.1,0,6.1-0.9,8.6-2.4c1.2-0.7,2.3-1.6,3.4-2.6
		c0.5-0.6,1.1-1.2,1.5-1.8c0,0.1,0.1,0.1,0.1,0.1c0.3,0.4,0.7,0.9,1,1.3c3,3.4,7.4,5.5,12.3,5.5c6.7,0,12.5-4,15.1-9.7h3.8
		c2,0,4.1,0.1,6.1,0.3h0c2.2,0.2,4.4,0.5,6.6,0.9v0c2.3,0.4,4.6,1,6.7,1.6C266.5,238.3,269.6,239.4,272.5,240.8z"/>
	<line class="st1" x1="211.6" y1="237.3" x2="211.6" y2="260.9"/>
	<line class="st1" x1="188.4" y1="260.9" x2="188.4" y2="241.1"/>
	<path class="st1" d="M188.4,174.3c0,0,9.7,8.5,18.1,0"/>
	<line class="st1" x1="189.7" y1="146.3" x2="189.7" y2="137.8"/>
	<line class="st1" x1="206.5" y1="145.8" x2="206.5" y2="137.8"/>
	<g>
		<path class="st1" d="M157.9,126.9c0-6.9,16.9-12.9,20.7,0"/>
		<path class="st1" d="M216.9,126.9c0-6.9,16.9-12.9,20.7,0"/>
		<line class="st1" x1="157.9" y1="108.4" x2="178.6" y2="108.4"/>
		<line class="st1" x1="216.9" y1="108.4" x2="237.6" y2="108.4"/>
	</g>
	<path class="st0" d="M254.4,98.2C254.3,98.2,254.3,98.2,254.4,98.2c-1.9-2.9-4.7-6-8.3-8.7c-8.7-6.6-22.2-11.3-39.6-5.5
		c-24.6,8.3-19.7-7.1-38.3-5.9c-18.6,1.3-24,11.7-24,11.7v-0.3l0-29.9c0-16.4-12.1-25.5-12.1-25.5c23.4-19.2,46.4,0.1,46.4,0.1
		c3.4-16.3-2.2-20-2.2-20C204.4,6,220.6,29,220.6,29c5-2.5,21-9.6,21-9.6C257.3,30.8,254.4,98.2,254.4,98.2z"/>
	<path class="st1" d="M189.7,22.1c0,0,14.9,2.1,21.6,14.8"/>
	<path class="st1" d="M237.6,31.2c0,0,9.2,24.3,8.4,58.4"/>
	<g>
		<path class="st2" d="M266.6,143.3v1.8c0,6.7-5.4,12.1-12.1,12.1v-26c3.3,0,6.4,1.3,8.6,3.5c0.6,0.6,1.1,1.2,1.5,1.9v0
			c0.8,1.2,1.4,2.5,1.7,4c0,0.1,0.1,0.1,0.1,0.2C266.6,141.6,266.6,142.4,266.6,143.3z"/>
	</g>
	<g>
		<path class="st2" d="M144.2,131.2v26c-6.7,0-12.1-5.4-12.1-12.1v-1.8c0-0.8,0.1-1.7,0.2-2.5c0-0.1,0.1-0.1,0.1-0.2
			c0.3-1.4,0.9-2.8,1.7-4v0c0.4-0.7,1-1.3,1.5-1.9C137.8,132.5,140.9,131.2,144.2,131.2z"/>
	</g>
	<path class="st1" d="M130.3,239.6c2.1-0.8,4.2-1.6,6.4-2.2c4.3-1.3,8.7-2.2,13.3-2.6c0.8-0.1,1.6-0.1,2.4-0.2
		c1-0.1,2.1-0.1,3.2-0.1c1.8,7.2,8.3,12.5,16.1,12.5c6.1,0,11.3-3.2,14.3-8c0.7,0.8,1.5,1.5,2.4,2.1c0.4,0.3,0.7,0.5,1.1,0.7
		c2.5,1.5,5.4,2.4,8.6,2.4c3.1,0,6.1-0.9,8.6-2.4c1.2-0.7,2.3-1.6,3.4-2.6c0.5-0.6,1.1-1.2,1.5-1.8c0,0.1,0.1,0.1,0.1,0.1
		c0.3,0.4,0.7,0.9,1,1.3c3,3.4,7.4,5.5,12.3,5.5c6.7,0,12.5-4,15.1-9.7h3.8c2,0,4.1,0.1,6.1,0.3h0c2.2,0.2,4.4,0.5,6.6,0.9v0
		c2.3,0.4,4.6,1,6.7,1.6c3.2,1,6.2,2.1,9.2,3.5"/>
</g>
<g>
</g>
<g>
</g>
<g>
</g>
<g>
</g>
<g>
</g>
<g>
</g>
</svg>
