<?xml version="1.0" encoding="utf-8"?>
<!-- Generator: Adobe Illustrator 25.0.1, SVG Export Plug-In . SVG Version: 6.00 Build 0)  -->
<svg version="1.1" id="Capa_1" xmlns="http://www.w3.org/2000/svg" xmlns:xlink="http://www.w3.org/1999/xlink" x="0px" y="0px"
	 viewBox="0 0 1279 1279" style="enable-background:new 0 0 1279 1279;" xml:space="preserve">
<style type="text/css">
	.st0{opacity:0.29;fill:url(#SVGID_1_);}
	.st1{opacity:0.24;}
	.st2{opacity:0.65;}
	.st3{opacity:0.5;}
	.st4{fill:#474747;}
	.st5{fill:#7A867D;}
	.st6{opacity:0.61;}
	.st7{opacity:0.29;fill:url(#SVGID_2_);}
</style>
<g>
	
		<linearGradient id="SVGID_1_" gradientUnits="userSpaceOnUse" x1="226.5065" y1="651.7502" x2="708.0502" y2="651.7502" gradientTransform="matrix(0.9997 -0.0246 0.0246 0.9997 -25.3996 -0.7059)">
		<stop  offset="0" style="stop-color:#1A1A1A"/>
		<stop  offset="1" style="stop-color:#FFFFFF"/>
	</linearGradient>
	<path class="st0" d="M451.87,398.66c-132.95,3.27-238.06,113.68-234.79,246.6c3.27,132.94,113.68,238.07,246.62,234.78
		c132.93-3.26,238.04-113.7,234.77-246.62C695.21,500.51,584.77,395.41,451.87,398.66z M462.88,872.14
		C334,875.32,226.93,773.41,223.76,644.5c-3.16-128.9,98.76-235.95,227.64-239.13c128.9-3.17,235.96,98.75,239.14,227.65
		C693.7,761.93,591.78,868.98,462.88,872.14z"/>
	<g class="st1">
		<path d="M409.33,647.84l45.84-208.68c0,0,25.97-22.93,34.61,12.62c-8.45,55.6-41.33,208.43-41.33,208.43L409.33,647.84z"/>
		<polygon points="342.45,694.18 346.5,702.95 743.88,489.04 		"/>
		<path d="M423.73,665.68l174.54,261.77c0,0,20.39,11.54,24.53-12.96c-38.9-56.44-179.95-261.78-179.95-261.78L423.73,665.68z"/>
	</g>
	<g class="st2">
		<path d="M725.76,625.89c-0.17-7.35,0.87-12.4,3.17-15.17c2.3-2.78,6.89-4.23,13.77-4.4l7.24-0.19l3.64,14.06l-15.69,0.39
			l1.26,51.39c0.1,3.79,0.89,6.07,2.41,6.84c1.17,0.66,3.07,0.96,5.72,0.89l11.9-0.28c2.63-0.05,4.54-0.45,5.67-1.18
			c1.59-0.97,2.33-3.28,2.25-6.95l-0.79-31.56l11.39-0.28l0.69,28.28c0.1,3.56,1.07,5.85,2.94,6.82c1.16,0.68,3.64,0.95,7.43,0.85
			l5.18-0.13c3.78-0.09,6.31-0.49,7.56-1.21c1.68-1.2,2.5-3.54,2.4-6.96l-1.18-47.61l-13.8,0.35l2.44-13.52l5.52-0.13
			c6.89-0.17,11.56,1.06,13.97,3.69c2.41,2.65,3.73,7.64,3.92,15.01l1.12,45.17c0.18,7.38-0.89,12.44-3.17,15.18
			c-2.28,2.76-6.87,4.23-13.77,4.41l-8.13,0.2c-5.05,0.11-8.88-0.8-11.44-2.74c-2.58-1.96-4.5-5.39-5.78-10.3
			c-1.34,11.17-7.23,16.91-17.7,17.17l-9.31,0.23c-7.14,0.17-12.05-1.07-14.75-3.78c-3.08-2.9-4.7-8.28-4.9-16.09L725.76,625.89z"/>
	</g>
	<g class="st3">
		<path d="M754.23,442.44c5.05-2.44,8.91-3.08,11.58-1.94c2.7,1.15,5.33,4.41,7.93,9.82l15.21,31.49c2.6,5.4,3.53,9.5,2.75,12.31
			c-0.76,2.82-3.68,5.45-8.72,7.9l-4.05,1.95c-3.45,1.65-6.31,2.37-8.55,2.1c-2.26-0.27-5.13-1.55-8.61-3.8l-46.53-29.65
			l20.66,42.79l12.39-5.93l1.57,11.95l-5.17,2.5c-5.06,2.43-8.93,3.06-11.63,1.87c-2.7-1.19-5.35-4.47-7.95-9.85l-24.74-51.25
			l4.04-1.95c2.52-1.21,4.58-1.79,6.17-1.73c2.5,0.04,5.62,1.22,9.34,3.58l49.1,30.77l12.74-6.15l-18.53-38.35L748,458.2
			l-2.23-11.69L754.23,442.44z"/>
	</g>
	<g class="st2">
		<path d="M482.37,919.09c-1.39-0.08-3.22-0.08-5.52-0.04c-34.38,0.84-52.61,10.09-54.69,27.74c12.68-2.85,25.82-4.42,39.37-4.75
			c13.46-0.33,22.86,1.05,28.25,4.15c5.35,3.07,8.14,9.05,8.36,17.89l0.3,12.07c0.36,14.5-9.01,21.97-28.08,22.44l-35.36,0.86
			c-10.46,0.26-17.69-1.48-21.68-5.25c-4.02-3.76-6.15-10.91-6.4-21.49l-0.3-11.74c-0.41-16.65,4.64-29.62,15.18-38.92
			c10.53-9.28,25.56-14.16,45.11-14.66c1.49-0.03,3.5,0.04,6.04,0.21L482.37,919.09z M420.86,957.87c-0.29,2.19-0.43,3.98-0.4,5.37
			c0.3,11.61,1.36,18.59,3.21,20.96c1.84,2.38,7.25,3.45,16.25,3.23l27.15-0.66c6.8-0.17,11.35-1.2,13.67-3.1
			c2.31-1.88,3.41-5.61,3.28-11.14l-0.15-5.68c-0.13-5.4-1.66-9.01-4.59-10.84c-2.93-1.83-8.54-2.64-16.84-2.44
			C447.25,953.93,433.37,955.37,420.86,957.87z"/>
	</g>
	<g class="st2">
		<path d="M180.27,673.83c0.15-2.77,0.24-4.56,0.21-5.36c-0.85-34.49-10.1-52.79-27.74-54.88c2.84,12.68,4.44,25.89,4.77,39.56
			c0.33,13.34-1.09,22.68-4.23,28.07c-3.16,5.35-9.15,8.14-18.01,8.38l-11.89,0.29c-14.49,0.35-21.96-9-22.44-28.1l-0.84-35.16
			c-0.27-10.47,1.47-17.74,5.23-21.79c3.76-4.06,10.93-6.22,21.5-6.48l11.73-0.28c16.66-0.42,29.56,4.66,38.68,15.17
			c9.11,10.54,13.92,25.56,14.39,45.12c0.06,2.76,0.06,4.76-0.02,6.04L180.27,673.83z M141.67,612.64
			c-2.31-0.29-4.15-0.42-5.54-0.38c-11.6,0.28-18.57,1.34-20.89,3.11c-2.3,1.79-3.35,7.15-3.13,16.13l0.66,27.06
			c0.17,6.79,1.2,11.37,3.1,13.73c1.89,2.38,5.6,3.49,11.11,3.35l5.7-0.13c5.41-0.16,9.02-1.67,10.84-4.59
			c1.83-2.91,2.64-8.51,2.44-16.79C145.61,638.96,144.16,625.14,141.67,612.64z"/>
	</g>
	<g class="st2">
		<path d="M411.26,370.95l-1.85-75.01l-19.31,0.48l-0.22-8.98l32.8-6.49l2.21,89.66L411.26,370.95z"/>
		<path d="M452.25,298.35c-0.17-6.91,1.07-11.56,3.72-13.99c2.65-2.41,7.65-3.72,15.03-3.91l43.03-1.06
			c7.38-0.18,12.44,0.89,15.22,3.17c2.75,2.29,4.23,6.89,4.4,13.78l0.13,5.52c0.12,4.71-0.53,8.26-1.98,10.66
			c-1.44,2.39-4.32,4.96-8.63,7.72l-56.87,37.11l58.46-1.44l-0.36-16.89l14.21,4.32l0.18,7.06c0.16,6.9-1.09,11.56-3.79,13.99
			c-2.71,2.42-7.74,3.72-15.11,3.91l-70,1.71l-0.13-5.51c-0.09-3.45,0.3-6.04,1.18-7.79c1.32-2.79,4.24-5.68,8.76-8.68l59.43-39.42
			l-0.42-17.41l-52.44,1.29l0.52,20.85l-14.25-3.43L452.25,298.35z"/>
	</g>
	<g class="st3">
		<path d="M768.5,824.01l-14.43-9.41l-29.93,45.89l-7.52-4.89l-10.85-69.33l7.5-11.51l39.34,25.65l9.02-13.87l7.51,4.91l-9.01,13.84
			l14.44,9.42L768.5,824.01z M746.54,809.71l-32.06-20.91l9.1,56.13L746.54,809.71z"/>
	</g>
	<g class="st3">
		<path d="M621.36,399.74l34.81-50.05l-12.89-8.97l4.16-5.99l24.62,11.5l-41.61,59.83L621.36,399.74z"/>
	</g>
	<path class="st4" d="M431.72,640.01l51.45-207.37c0,0,26.59-22.23,34.26,13.53c-9.94,55.35-46.92,207.25-46.92,207.25
		L431.72,640.01z"/>
	<path class="st5" d="M446.4,615.49l43.2-174.4c0,0,14.63-12.21,18.84,7.46c-5.48,30.46-40.72,174.32-40.72,174.32L446.4,615.49z"/>
	<g class="st3">
		<path d="M606,960.26c12.78-4.97,23.73-10.54,32.85-16.75c7.09-4.83,11.65-9.23,13.65-13.19c1.99-3.97,1.54-8.06-1.35-12.32
			c-2.94-4.32-6.74-6.31-11.35-5.99c-4.65,0.34-10.63,3.01-17.97,7.99c-8.88,6.05-17.86,13.97-26.91,23.75l-18.56-34l48.43-32.96
			l4.74,8.46l-40.2,27.37l7.84,15.99c6.3-6.66,13.15-12.49,20.48-17.46c20.01-13.63,34.65-13.61,43.92,0.03
			c4.93,7.23,5.85,14.1,2.76,20.59c-3.1,6.51-10.28,13.59-21.56,21.27c-7.11,4.84-16.22,9.79-27.34,14.88L606,960.26z"/>
	</g>
	<g class="st3">
		<path d="M246.25,942.95l69.33-32.15l-44.74-27.81l-8.96,14.38l-8.06-7.49l12.96-20.81l64.03,39.83l-4.96,7.96l-67.7,33.49
			L246.25,942.95z"/>
	</g>
	<g class="st3">
		<path d="M133.23,805.6c-3.57-5.26-5.03-9.57-4.37-12.94c0.52-3.06,3.17-6.21,7.96-9.47l6.28-4.25c6.89-4.66,13.33-3.71,19.35,2.83
			c-3.52-6.99-1.81-12.81,5.08-17.48l5.45-3.7c4.66-3.14,8.37-4.33,11.2-3.6c2.81,0.76,5.89,3.6,9.25,8.55l23.72,35.04
			c3.35,4.96,4.85,8.89,4.5,11.77c-0.35,2.9-2.86,5.92-7.5,9.05l-5.45,3.7c-6.82,4.61-12.88,3.97-18.2-1.89
			c3.89,8.08,2.39,14.45-4.5,19.12l-6.26,4.23c-4.72,3.19-8.71,4.47-11.98,3.78c-3.29-0.66-6.7-3.61-10.27-8.89L133.23,805.6z
			 M151.22,787.52l-6.55,4.42c-2.49,1.67-3.87,3.21-4.14,4.58c-0.26,1.37,0.41,3.25,2.03,5.66l21.68,32.03
			c1.63,2.4,3.13,3.73,4.49,3.99c1.37,0.25,3.3-0.43,5.78-2.13l6.56-4.43c2.48-1.7,3.86-3.2,4.14-4.59
			c0.25-1.35-0.42-3.24-2.04-5.63l-21.68-32.03c-1.62-2.41-3.13-3.74-4.55-3.96C155.53,785.17,153.63,785.88,151.22,787.52z
			 M176.88,771.85l-4.65,3.14c-2.4,1.61-3.78,3.12-4.14,4.48c-0.36,1.39,0.3,3.31,1.97,5.8l20.12,29.7
			c1.68,2.48,3.19,3.83,4.57,4.01c1.38,0.2,3.29-0.54,5.78-2.21l4.64-3.14c2.39-1.62,3.77-3.13,4.14-4.5
			c0.37-1.38-0.29-3.31-1.95-5.78l-20.11-29.72c-1.68-2.45-3.23-3.81-4.64-3.98C181.18,769.5,179.28,770.22,176.88,771.85z"/>
	</g>
	<g class="st3">
		<path d="M180.8,530.64l-51.92-31.93l-8.22,13.36l-6.23-3.82l10.1-25.2l62.07,38.17L180.8,530.64z"/>
		<path d="M148.09,478.43c-5.64-3.47-8.93-6.74-9.83-9.82c-0.9-3.08,0.24-7.2,3.42-12.38l24.09-39.15c3.14-5.09,6.28-7.95,9.47-8.57
			c3.18-0.63,7.59,0.81,13.24,4.27l32.47,19.97c5.66,3.49,8.91,6.77,9.79,9.89c0.89,3.11-0.23,7.23-3.37,12.32l-24.08,39.15
			c-3.18,5.18-6.36,8.06-9.51,8.65c-3.16,0.57-7.55-0.88-13.21-4.34L148.09,478.43z M192.73,492.24l28.21-45.84l-44.87-27.61
			l-28.22,45.83L192.73,492.24z"/>
	</g>
	<g class="st3">
		<path d="M295.57,404.07l-30.5-52.77l-13.59,7.84l-3.64-6.3l20.87-17.4l36.45,63.1L295.57,404.07z"/>
		<path d="M337.81,379.67l-30.5-52.77l-13.59,7.85l-3.65-6.32l20.87-17.39l36.46,63.09L337.81,379.67z"/>
	</g>
	<polygon class="st4" points="363.62,684.52 367.44,693.41 770.45,490.27 	"/>
	<g class="st3">
		<path d="M340.57,404.68c0.12,5.45-4.18,9.98-9.64,10.12c-5.46,0.15-10-4.18-10.13-9.63c-0.13-5.47,4.18-9.99,9.63-10.11
			C335.9,394.9,340.42,399.24,340.57,404.68z"/>
		<path d="M240.63,506.89c0.14,5.45-4.19,10-9.65,10.13c-5.45,0.12-9.98-4.19-10.11-9.64c-0.12-5.46,4.18-9.99,9.63-10.13
			C235.97,497.12,240.5,501.42,240.63,506.89z"/>
		<path d="M240.7,765.71c0.13,5.46-4.17,9.99-9.64,10.15c-5.45,0.11-9.98-4.21-10.12-9.65c-0.14-5.46,4.18-10,9.64-10.13
			C236.04,755.94,240.57,760.26,240.7,765.71z"/>
		<path d="M331.11,860.54c0.13,5.45-4.19,10-9.63,10.13c-5.46,0.12-10-4.19-10.12-9.64c-0.14-5.46,4.18-10,9.63-10.12
			C326.44,850.78,330.97,855.09,331.11,860.54z"/>
		<path d="M598.25,870.15c0.14,5.46-4.18,9.99-9.63,10.12c-5.47,0.14-9.99-4.17-10.12-9.62c-0.14-5.46,4.17-9.99,9.63-10.13
			C593.58,860.38,598.13,864.69,598.25,870.15z"/>
		<path d="M699.31,776.92c0.13,5.45-4.18,9.98-9.65,10.11c-5.46,0.15-9.98-4.19-10.12-9.62c-0.13-5.47,4.18-9.99,9.62-10.14
			C694.64,767.14,699.17,771.46,699.31,776.92z"/>
		<path d="M703.61,513.49c0.14,5.43-4.18,9.97-9.64,10.12c-5.46,0.13-9.99-4.2-10.11-9.65c-0.15-5.45,4.17-9.98,9.63-10.11
			C698.94,503.72,703.47,508.02,703.61,513.49z"/>
		<path d="M624.13,423.77c0.13,5.47-4.2,10-9.65,10.13c-5.45,0.14-9.99-4.19-10.12-9.64c-0.13-5.46,4.18-9.97,9.64-10.13
			C619.45,414,623.98,418.3,624.13,423.77z"/>
	</g>
	<path class="st4" d="M445.66,658.22l167.4,266.38c0,0,20.08,12.09,24.88-12.26c-37.37-57.52-172.81-266.56-172.81-266.56
		L445.66,658.22z"/>
	<path class="st5" d="M460.93,671.72l154.98,244.34c0,0,9.81,5.92,12.15-6.01c-18.26-28.09-157.61-244.43-157.61-244.43
		L460.93,671.72z"/>
	<path d="M471.41,645.6c0.28,11.57-8.87,21.19-20.45,21.47c-11.57,0.28-21.17-8.87-21.47-20.44c-0.28-11.56,8.87-21.17,20.45-21.45
		C461.5,624.88,471.11,634.03,471.41,645.6z"/>
	<path class="st5" d="M465.12,645.78c0.19,8.25-6.33,15.11-14.61,15.32c-8.26,0.21-15.12-6.34-15.33-14.6
		c-0.19-8.27,6.33-15.14,14.6-15.35C458.05,630.96,464.92,637.5,465.12,645.78z"/>
	<g class="st6">
		
			<linearGradient id="SVGID_2_" gradientUnits="userSpaceOnUse" x1="226.7894" y1="651.9211" x2="708.322" y2="651.9211" gradientTransform="matrix(0.9997 -0.0246 0.0246 0.9997 -25.3996 -0.7059)">
			<stop  offset="0" style="stop-color:#1A1A1A"/>
			<stop  offset="1" style="stop-color:#FFFFFF"/>
		</linearGradient>
		<path class="st7" d="M452.14,398.83c-132.95,3.29-238.05,113.69-234.78,246.62c3.27,132.93,113.68,238.06,246.62,234.77
			c132.92-3.27,238.04-113.67,234.77-246.62C695.48,500.69,585.05,395.56,452.14,398.83z M463.16,872.33
			c-128.88,3.17-235.94-98.76-239.12-227.66c-3.17-128.9,98.76-235.95,227.64-239.12c128.9-3.18,235.98,98.75,239.12,227.65
			C693.97,762.1,592.05,869.15,463.16,872.33z"/>
		<g class="st1">
			<path d="M409.61,648.01l45.82-208.68c0,0,25.99-22.94,34.62,12.61c-8.44,55.59-41.32,208.43-41.32,208.43L409.61,648.01z"/>
			<polygon points="342.74,694.33 346.78,703.12 744.15,489.2 			"/>
			<path d="M424.03,665.86l174.53,261.75c0,0,20.4,11.55,24.52-12.95c-38.88-56.46-179.93-261.78-179.93-261.78L424.03,665.86z"/>
		</g>
		<g class="st2">
			<path d="M726.05,626.06c-0.18-7.35,0.86-12.41,3.17-15.17c2.28-2.76,6.88-4.23,13.78-4.39l7.23-0.18l3.65,14.05l-15.71,0.4
				l1.28,51.37c0.09,3.8,0.88,6.09,2.41,6.85c1.16,0.66,3.07,0.96,5.71,0.9l11.89-0.31c2.65-0.05,4.54-0.44,5.67-1.17
				c1.58-0.97,2.33-3.28,2.25-6.96l-0.78-31.57l11.38-0.27l0.69,28.29c0.08,3.55,1.07,5.84,2.93,6.82c1.17,0.67,3.64,0.96,7.44,0.86
				l5.18-0.13c3.78-0.09,6.32-0.5,7.55-1.23c1.69-1.2,2.51-3.51,2.42-6.95l-1.18-47.6l-13.8,0.34l2.44-13.52l5.52-0.13
				c6.89-0.17,11.56,1.07,13.98,3.69c2.43,2.65,3.73,7.64,3.91,15l1.12,45.17c0.19,7.37-0.88,12.43-3.17,15.18
				c-2.28,2.77-6.88,4.25-13.78,4.42l-8.11,0.2c-5.06,0.11-8.88-0.8-11.46-2.76c-2.57-1.94-4.51-5.36-5.78-10.28
				c-1.34,11.17-7.23,16.91-17.69,17.17l-9.32,0.24c-7.12,0.16-12.04-1.07-14.74-3.79c-3.08-2.9-4.7-8.26-4.9-16.09L726.05,626.06z"
				/>
		</g>
		<g class="st3">
			<path d="M754.51,442.61c5.05-2.44,8.92-3.09,11.58-1.94c2.69,1.17,5.33,4.42,7.93,9.82l15.21,31.51c2.6,5.39,3.52,9.49,2.76,12.3
				c-0.77,2.81-3.68,5.43-8.73,7.88l-4.03,1.95c-3.44,1.67-6.3,2.37-8.55,2.11c-2.26-0.27-5.14-1.54-8.63-3.8l-46.5-29.66
				l20.65,42.8l12.38-5.93l1.56,11.95l-5.17,2.49c-5.05,2.45-8.91,3.06-11.64,1.87c-2.7-1.18-5.34-4.47-7.94-9.84l-24.73-51.25
				l4.04-1.95c2.52-1.22,4.56-1.8,6.16-1.74c2.51,0.05,5.63,1.23,9.36,3.6l49.1,30.77l12.74-6.15L763.56,451l-15.28,7.37l-2.23-11.7
				L754.51,442.61z"/>
		</g>
		<g class="st2">
			<path d="M482.64,919.25c-1.37-0.08-3.22-0.08-5.52-0.02c-34.37,0.85-52.6,10.08-54.68,27.74c12.69-2.86,25.81-4.44,39.37-4.78
				c13.47-0.33,22.87,1.06,28.24,4.15c5.37,3.08,8.15,9.06,8.38,17.89l0.28,12.08c0.36,14.49-9.01,21.98-28.09,22.45l-35.34,0.86
				c-10.46,0.25-17.7-1.49-21.7-5.25c-4.02-3.75-6.15-10.92-6.41-21.49l-0.29-11.73c-0.42-16.67,4.65-29.65,15.18-38.95
				c10.53-9.27,25.56-14.16,45.1-14.64c1.51-0.04,3.52,0.02,6.05,0.19L482.64,919.25z M421.15,958.03c-0.3,2.2-0.43,3.98-0.4,5.37
				c0.3,11.61,1.36,18.6,3.2,20.96c1.85,2.37,7.26,3.45,16.26,3.24l27.15-0.66c6.8-0.18,11.34-1.22,13.68-3.11
				c2.3-1.88,3.4-5.61,3.28-11.13l-0.15-5.69c-0.12-5.41-1.66-9-4.6-10.83c-2.92-1.84-8.54-2.65-16.83-2.45
				C447.51,954.11,433.65,955.55,421.15,958.03z"/>
		</g>
		<g class="st2">
			<path d="M180.55,673.99c0.15-2.76,0.24-4.54,0.22-5.36c-0.85-34.49-10.11-52.78-27.76-54.88c2.85,12.71,4.45,25.9,4.77,39.57
				c0.34,13.35-1.07,22.7-4.22,28.06c-3.15,5.36-9.15,8.15-18,8.38l-11.89,0.28c-14.49,0.34-21.96-9-22.44-28.09l-0.86-35.18
				c-0.26-10.47,1.49-17.72,5.25-21.77c3.75-4.06,10.91-6.23,21.5-6.49l11.73-0.28c16.68-0.42,29.56,4.65,38.67,15.17
				c9.12,10.54,13.92,25.56,14.4,45.12c0.06,2.76,0.04,4.78-0.03,6.05L180.55,673.99z M141.96,612.82c-2.32-0.3-4.16-0.43-5.53-0.38
				c-11.62,0.27-18.59,1.32-20.91,3.11c-2.31,1.77-3.34,7.15-3.13,16.12l0.66,27.07c0.15,6.78,1.19,11.35,3.09,13.72
				c1.9,2.38,5.59,3.49,11.14,3.34l5.69-0.12c5.41-0.15,9.02-1.67,10.83-4.6c1.85-2.91,2.65-8.5,2.44-16.79
				C145.88,639.14,144.45,625.3,141.96,612.82z"/>
		</g>
		<g class="st2">
			<path d="M411.53,371.13l-1.84-75.02l-19.31,0.48l-0.23-8.97l32.82-6.5l2.2,89.68L411.53,371.13z"/>
			<path d="M452.53,298.51c-0.17-6.9,1.07-11.55,3.72-13.98c2.66-2.42,7.67-3.72,15.03-3.9l43.03-1.06
				c7.38-0.18,12.45,0.88,15.21,3.16c2.77,2.29,4.24,6.88,4.42,13.77l0.12,5.53c0.13,4.71-0.54,8.26-1.98,10.65
				c-1.44,2.4-4.31,4.96-8.64,7.73l-56.84,37.12l58.45-1.45l-0.37-16.89l14.2,4.3l0.19,7.07c0.16,6.89-1.11,11.57-3.8,13.99
				c-2.71,2.44-7.74,3.72-15.09,3.9l-70.02,1.73l-0.14-5.53c-0.08-3.44,0.3-6.03,1.19-7.79c1.31-2.79,4.22-5.68,8.75-8.68
				l59.44-39.41l-0.44-17.42l-52.42,1.29l0.51,20.86l-14.24-3.44L452.53,298.51z"/>
		</g>
		<g class="st3">
			<path d="M768.78,824.18l-14.45-9.42l-29.92,45.9l-7.52-4.89l-10.86-69.32l7.51-11.51l39.33,25.64l9.01-13.86l7.52,4.92
				l-9.03,13.83l14.45,9.42L768.78,824.18z M746.83,809.88l-32.06-20.91l9.09,56.11L746.83,809.88z"/>
		</g>
		<g class="st3">
			<path d="M621.64,399.92l34.81-50.07l-12.89-8.97l4.17-5.96l24.62,11.48l-41.61,59.83L621.64,399.92z"/>
		</g>
		<path class="st4" d="M432.01,640.17l51.45-207.36c0,0,26.57-22.24,34.25,13.52c-9.93,55.35-46.91,207.26-46.91,207.26
			L432.01,640.17z"/>
		<path class="st5" d="M446.4,615.49l43.48-174.23c0,0,14.63-12.22,18.84,7.44c-5.47,30.46-41,174.16-41,174.16L446.4,615.49z"/>
		<g class="st3">
			<path d="M606.28,960.43c12.78-4.97,23.72-10.55,32.85-16.76c7.1-4.83,11.65-9.24,13.66-13.19c1.98-3.96,1.53-8.07-1.35-12.32
				c-2.94-4.32-6.73-6.3-11.36-5.98c-4.64,0.33-10.63,3-17.97,7.98c-8.88,6.07-17.87,13.97-26.91,23.74l-18.56-33.97l48.43-32.99
				l4.75,8.46l-40.2,27.37l7.81,15.99c6.33-6.65,13.16-12.47,20.5-17.46c20.01-13.62,34.65-13.6,43.92,0.04
				c4.93,7.23,5.85,14.1,2.75,20.59c-3.09,6.51-10.27,13.59-21.55,21.27c-7.1,4.84-16.22,9.79-27.34,14.88L606.28,960.43z"/>
		</g>
		<g class="st3">
			<path d="M246.53,943.11l69.35-32.13l-44.76-27.84l-8.95,14.4l-8.06-7.49l12.96-20.83l64.03,39.83l-4.97,7.97l-67.71,33.5
				L246.53,943.11z"/>
		</g>
		<g class="st3">
			<path d="M133.52,805.77c-3.58-5.25-5.03-9.58-4.38-12.94c0.52-3.05,3.17-6.22,7.97-9.47l6.27-4.23
				c6.89-4.67,13.33-3.71,19.34,2.82c-3.5-7.01-1.8-12.82,5.09-17.48l5.45-3.71c4.65-3.13,8.38-4.32,11.2-3.6
				c2.81,0.76,5.89,3.6,9.24,8.55l23.72,35.04c3.36,4.96,4.86,8.89,4.49,11.78c-0.34,2.89-2.85,5.91-7.48,9.04l-5.46,3.7
				c-6.82,4.6-12.89,3.99-18.21-1.88c3.9,8.07,2.39,14.45-4.49,19.11l-6.27,4.23c-4.73,3.19-8.72,4.47-11.99,3.79
				c-3.29-0.66-6.69-3.62-10.25-8.9L133.52,805.77z M151.49,787.68l-6.54,4.43c-2.48,1.67-3.87,3.21-4.12,4.58
				c-0.27,1.38,0.4,3.25,2.04,5.65l21.67,32.04c1.64,2.4,3.12,3.71,4.5,3.99c1.36,0.25,3.29-0.45,5.78-2.15l6.55-4.41
				c2.48-1.7,3.88-3.21,4.14-4.59c0.25-1.36-0.41-3.24-2.04-5.64l-21.69-32.04c-1.61-2.4-3.13-3.72-4.55-3.94
				C155.82,785.34,153.91,786.04,151.49,787.68z M177.16,772.02l-4.65,3.13c-2.39,1.62-3.78,3.13-4.15,4.49
				c-0.37,1.39,0.3,3.32,1.96,5.8l20.12,29.7c1.67,2.48,3.2,3.83,4.58,4.01c1.38,0.2,3.29-0.53,5.77-2.22l4.65-3.13
				c2.4-1.62,3.78-3.13,4.15-4.5c0.37-1.37-0.29-3.31-1.96-5.78l-20.11-29.73c-1.67-2.45-3.23-3.81-4.65-3.98
				C181.46,769.66,179.56,770.39,177.16,772.02z"/>
		</g>
		<g class="st3">
			<path d="M181.08,530.81l-51.91-31.93l-8.22,13.35l-6.22-3.82l10.09-25.22l62.07,38.19L181.08,530.81z"/>
			<path d="M148.35,478.61c-5.63-3.48-8.91-6.75-9.81-9.84c-0.9-3.08,0.24-7.19,3.42-12.38l24.09-39.15
				c3.13-5.09,6.28-7.96,9.48-8.57c3.18-0.63,7.6,0.8,13.23,4.28l32.48,19.96c5.65,3.49,8.91,6.79,9.81,9.9
				c0.87,3.12-0.27,7.22-3.4,12.32l-24.09,39.14c-3.16,5.18-6.34,8.04-9.49,8.64c-3.16,0.57-7.55-0.87-13.22-4.35L148.35,478.61z
				 M193.02,492.42l28.21-45.84l-44.9-27.61l-28.2,45.84L193.02,492.42z"/>
		</g>
		<g class="st3">
			<path d="M295.85,404.24l-30.5-52.78l-13.59,7.85l-3.66-6.31l20.87-17.4l36.46,63.09L295.85,404.24z"/>
			<path d="M338.08,379.86l-30.49-52.79L294,334.92l-3.64-6.32l20.87-17.38l36.43,63.09L338.08,379.86z"/>
		</g>
		<polygon class="st4" points="363.9,684.67 367.72,693.58 770.73,490.44 		"/>
		<g class="st3">
			<path d="M340.84,404.84c0.13,5.47-4.17,10-9.64,10.14c-5.45,0.13-9.98-4.18-10.12-9.65c-0.12-5.45,4.19-9.99,9.63-10.11
				C336.17,395.09,340.72,399.4,340.84,404.84z"/>
			<path d="M240.91,507.06c0.14,5.46-4.18,10-9.63,10.13c-5.46,0.13-9.99-4.18-10.13-9.65c-0.14-5.46,4.18-9.97,9.64-10.12
				C236.24,497.29,240.78,501.6,240.91,507.06z"/>
			<path d="M240.99,765.87c0.13,5.48-4.18,10-9.64,10.14c-5.46,0.13-9.99-4.2-10.12-9.64c-0.14-5.46,4.16-9.99,9.63-10.11
				C236.32,756.11,240.85,760.43,240.99,765.87z"/>
			<path d="M331.39,860.72c0.13,5.45-4.18,9.99-9.63,10.13c-5.46,0.11-10-4.19-10.12-9.65c-0.14-5.45,4.17-10,9.63-10.11
				C326.73,850.95,331.24,855.26,331.39,860.72z"/>
			<path d="M598.54,870.32c0.13,5.47-4.2,10-9.65,10.14c-5.45,0.13-9.97-4.18-10.11-9.64c-0.14-5.46,4.18-9.99,9.64-10.13
				C593.87,860.54,598.39,864.87,598.54,870.32z"/>
			<path d="M699.58,777.08c0.13,5.45-4.17,9.98-9.64,10.11c-5.45,0.14-9.98-4.19-10.12-9.61c-0.14-5.46,4.19-9.99,9.64-10.15
				C694.91,767.3,699.45,771.63,699.58,777.08z"/>
			<path d="M703.89,513.66c0.14,5.45-4.18,9.98-9.65,10.11c-5.45,0.14-9.98-4.18-10.11-9.65c-0.14-5.44,4.17-9.98,9.63-10.11
				S703.75,508.2,703.89,513.66z"/>
			<path d="M624.41,423.94c0.12,5.46-4.21,9.99-9.66,10.12c-5.46,0.14-9.98-4.18-10.11-9.63c-0.13-5.45,4.17-9.99,9.64-10.12
				C619.72,414.16,624.26,418.48,624.41,423.94z"/>
		</g>
		<path class="st4" d="M445.94,658.39l167.41,266.38c0,0,20.07,12.09,24.87-12.27c-37.37-57.51-172.83-266.56-172.83-266.56
			L445.94,658.39z"/>
		<path class="st5" d="M460.93,671.72L616.2,916.22c0,0,9.8,5.92,12.14-6.01c-18.26-28.1-157.89-244.59-157.89-244.59L460.93,671.72
			z"/>
		<path d="M471.68,645.78c0.28,11.56-8.86,21.19-20.43,21.48c-11.57,0.28-21.18-8.89-21.48-20.45
			c-0.28-11.58,8.87-21.19,20.44-21.47C461.79,625.04,471.41,634.2,471.68,645.78z"/>
		<path class="st5" d="M465.39,645.93c0.21,8.26-6.32,15.12-14.59,15.33c-8.26,0.22-15.12-6.34-15.33-14.6
			c-0.21-8.25,6.34-15.12,14.61-15.32C458.33,631.13,465.19,637.65,465.39,645.93z"/>
	</g>
</g>
</svg>
