<?xml version="1.0" encoding="utf-8"?>
<!-- Generator: Adobe Illustrator 24.0.3, SVG Export Plug-In . SVG Version: 6.00 Build 0)  -->
<svg version="1.1" xmlns="http://www.w3.org/2000/svg" xmlns:xlink="http://www.w3.org/1999/xlink" x="0px" y="0px"
	 viewBox="0 0 1500 1500" style="enable-background:new 0 0 1500 1500;" xml:space="preserve">
<style type="text/css">
	.st0{opacity:0.6;}
	.st1{fill:#C62031;}
	.st2{opacity:0.43;}
</style>
<g id="Layer_2">
	<g class="st0">
		
			<image style="overflow:visible;" width="2142" height="936" xlink:href="423FA2F844D97A7E.png"  transform="matrix(0.24 0 0 0.24 612.72 593.28)">
		</image>
	</g>
</g>
<g id="Layer_1">
	<g>
		<g>
			<path class="st1" d="M1028.6,457.9H535.2c-2.6,0-5.2,1-6.9,3c-3.7,4.4-2,10.6,2.5,13.1l115.1,62c0,0,0,0,0,0l26.8,178.6
				c1,6.2,8.3,9.4,13.4,5.7l112.4-79.9c0,0,0,0,0,0l79.7,43.8c3.8,2.1,8.7,0.9,11.2-2.6l83.8-120.4c2.7-3.9,1.7-9.2-2.1-11.9
				c-3.9-2.7-9.2-1.7-11.9,2.1l-79.3,114c0,0,0,0-0.1,0l-158.8-87.4c0,0,0-0.1,0-0.1l285.9-95.3c0,0,0.1,0,0,0.1L983.1,517
				c-2.7,3.9-2.1,9.3,1.7,12.1c3.9,2.9,9.4,1.9,12.1-2l38.7-55.7c0.2-0.4,0.5-0.7,0.6-1.1C1039.2,464.6,1034.9,457.9,1028.6,457.9z
				 M781.8,631.3C781.8,631.3,781.8,631.4,781.8,631.3L692.3,695c0,0-0.1,0-0.1,0l14-105.1c0,0,0,0,0.1,0L781.8,631.3z M919.1,494
				l-222.3,74.1c-3.1,1-5.4,3.8-5.8,7L680.7,652c0,0-0.1,0-0.1,0l-17.2-114.4c0,0,0,0,0,0L919.1,494
				C919.1,493.9,919.1,494,919.1,494z M927,475.2l-271.8,46.4c0,0,0,0,0,0L569,475.2c0,0,0-0.1,0-0.1L927,475.2
				C927.1,475.1,927.1,475.2,927,475.2z"/>
		</g>
	</g>
	<g class="st2">
		<g>
			<g>
				<path class="st1" d="M616.7,801.1c-2.4,0-4.9,0.1-7.3,0.3c-4.7,0.3-8.3,4.4-8,9.1c0.3,4.5,4.1,8,8.5,8c0.2,0,0.4,0,0.6,0
					c2.1-0.1,4.3-0.2,6.4-0.3c4.7-0.1,8.5-4,8.4-8.7C625.3,804.8,621.4,801,616.7,801.1z"/>
			</g>
		</g>
		<g>
			<g>
				<path class="st1" d="M658.8,807.1c-4.4-1.4-9.1-2.6-13.9-3.6c-4.6-0.9-9.2,2.1-10.1,6.8c-0.9,4.6,2.1,9.2,6.8,10.1
					c4.1,0.8,8.1,1.8,11.9,3.1c4.4,1.4,9.4-1.1,10.8-5.5C665.8,813.4,663.3,808.6,658.8,807.1z"/>
			</g>
		</g>
		<g>
			<g>
				<path class="st1" d="M569.5,886.5c-0.7-3.9-1.1-7.9-1.2-12c-0.1-4.7-4-8.5-8.8-8.4c-4.7,0.1-8.5,4-8.4,8.8
					c0.1,4.9,0.6,9.8,1.4,14.5c0.8,4.6,5.3,7.8,9.9,7C567.2,895.6,570.3,891.1,569.5,886.5z"/>
			</g>
		</g>
		<g>
			<g>
				<path class="st1" d="M611.4,939.4c-3.6-1.3-7.1-2.9-10.5-4.9c-4.1-2.4-9.3-1.1-11.8,3c-2.4,4.1-1.1,9.3,3,11.8
					c4.3,2.6,8.9,4.7,13.6,6.4c4.6,1.6,9.8-1.1,11.1-5.8C617.9,945.5,615.5,940.9,611.4,939.4z"/>
			</g>
		</g>
		<g>
			<g>
				<path class="st1" d="M622.5,767.9c-2.9-3.7-8.3-4.3-12-1.4c-3.6,2.9-7.2,6-10.6,9.1c-3.5,3.2-3.7,8.7-0.4,12.1
					c3.2,3.4,8.7,3.6,12.1,0.4c3.1-2.9,6.3-5.6,9.6-8.2C624.8,777,625.4,771.6,622.5,767.9z"/>
			</g>
		</g>
		<g>
			<g>
				<path class="st1" d="M583.5,919c-2.4-3.1-4.5-6.4-6.4-9.9c-2.2-4.2-7.4-5.8-11.6-3.6c-4.2,2.2-5.8,7.4-3.6,11.6
					c2.3,4.4,5,8.6,8,12.4c3.1,4,9.1,4.4,12.8,0.9C585.8,927.4,586.2,922.4,583.5,919z"/>
			</g>
		</g>
		<g>
			<g>
				<path class="st1" d="M570.7,827.9c-4.4-1.9-9.4,0.2-11.2,4.5c-2,4.8-3.7,9.5-4.8,13.7c-1.2,4.6,1.5,9.3,6,10.5
					c0.7,0.2,1.5,0.3,2.2,0.3c3.8,0,7.2-2.5,8.3-6.3c0.6-2.4,1.9-6.3,4.1-11.4C577.1,834.8,575,829.7,570.7,827.9z"/>
			</g>
		</g>
		<g>
			<g>
				<path class="st1" d="M593,794.8c-3.7-2.9-9.1-2.2-12,1.5c-2.9,3.7-5.6,7.5-8.2,11.4c-2.6,4-1.5,9.3,2.5,11.9
					c3.9,2.6,9.3,1.4,11.9-2.5c2.3-3.5,4.8-6.9,7.4-10.3C597.4,803.1,596.7,797.7,593,794.8z"/>
			</g>
		</g>
		<g>
			<g>
				<path class="st1" d="M696.3,829.6c-3.4-3.5-7.2-6.8-11.4-9.7c-3.9-2.7-9.2-1.8-11.9,2.1c-2.7,3.9-1.8,9.2,2.1,11.9
					c3.3,2.3,6.3,4.8,8.9,7.6c3.2,3.4,8.8,3.5,12.1,0.2C699.5,838.4,699.6,833,696.3,829.6z"/>
			</g>
		</g>
		<g>
			<g>
				<path class="st1" d="M656.2,947.7c-1-4.6-5.5-7.6-10.2-6.6c-3.6,0.8-7.3,1.3-11.1,1.5l-0.7,0c-4.7,0.2-8.4,4.3-8.1,9
					c0.2,4.6,4,8.1,8.6,8.1c0.1,0,0.3,0,0.4,0l0.9,0c4.7-0.3,9.3-0.9,13.7-1.9C654.3,956.9,657.2,952.4,656.2,947.7z"/>
			</g>
		</g>
		<g>
			<g>
				<path class="st1" d="M714.7,870.5c-0.4-5.2-1.4-10.2-2.8-14.9c-1.4-4.5-6.2-7-10.7-5.6c-4.5,1.4-7,6.2-5.6,10.7
					c1.1,3.5,1.8,7.2,2.1,11.2c0.4,4.7,4.6,8.2,9.2,7.9C711.5,879.4,715.1,875.2,714.7,870.5z"/>
			</g>
		</g>
		<g>
			<g>
				<path class="st1" d="M705.7,889.3c-4.5-1.3-9.3,1.3-10.7,5.8c-1.1,3.8-2.6,7.5-4.3,11c-2.1,4.2-0.3,9.4,3.9,11.5
					c4.2,2.1,9.4,0.3,11.5-3.9c2.2-4.4,4-9,5.4-13.7C712.8,895.4,710.2,890.6,705.7,889.3z"/>
			</g>
		</g>
		<g>
			<g>
				<path class="st1" d="M657.4,748.7c-2-4.3-7.1-6.1-11.4-4.1c-4.2,2-8.4,4.1-12.4,6.4c-3.2,1.8-4.9,5.6-4.2,9.2
					c0.8,3.9,4.4,6.8,8.4,6.8c1.4,0,2.9-0.4,4.2-1.1c3.6-2.1,7.4-4,11.2-5.8C657.6,758.1,659.4,753,657.4,748.7z"/>
			</g>
		</g>
		<g>
			<g>
				<path class="st1" d="M689,925.4c-3.3-3.4-8.7-3.6-12.1-0.3c-2.8,2.7-5.9,5.1-9.2,7.2c-4,2.6-5.1,7.9-2.6,11.9
					c2.5,3.9,7.9,5.1,11.9,2.6c4.2-2.7,8.1-5.8,11.7-9.2C692.1,934.2,692.2,928.8,689,925.4z"/>
			</g>
		</g>
		<g>
			<g>
				<path class="st1" d="M689.5,738.7c-1.2-4.6-5.9-7.3-10.5-6.1c-2.3,0.6-4.6,1.3-6.9,2c-4.3,1.3-6.9,5.9-5.8,10.2
					c1.2,4.7,6.2,7.6,10.8,6.2c2.1-0.6,4.2-1.2,6.3-1.8C688,747.9,690.7,743.2,689.5,738.7z"/>
			</g>
		</g>
		<g>
			<g>
				<path class="st1" d="M496.7,1029.6c-1-1.9-2-3.9-2.9-5.8c-2-4.3-7.1-6.1-11.4-4.1c-4.3,2-6.1,7.1-4.1,11.4
					c1,2.2,2.1,4.3,3.2,6.5c2.1,4.2,7.4,5.8,11.6,3.7C497.3,1039,498.9,1033.8,496.7,1029.6z"/>
			</g>
		</g>
		<g>
			<g>
				<path class="st1" d="M485.4,1001c-1.1-3.9-2.1-7.9-2.8-11.8c-0.9-4.6-5.4-7.7-10.1-6.8c-4.6,0.9-7.7,5.4-6.8,10.1
					c0.9,4.4,1.9,8.8,3.2,13.2c1.3,4.5,6.1,7.2,10.6,5.9C484,1010.3,486.7,1005.5,485.4,1001z"/>
			</g>
		</g>
		<g>
			<g>
				<path class="st1" d="M472.2,943.9c-4.7-0.3-8.8,3.3-9.1,8c-0.2,3.4-0.3,6.8-0.3,10.1c0,3.1-0.1,6.1,1.9,8.6
					c1.7,2.1,4.2,3.3,6.9,3.2c2.6-0.1,5.1-1.3,6.7-3.4c1.9-2.5,1.7-5.4,1.7-8.4c0-3,0.1-6,0.3-9
					C480.5,948.3,476.9,944.2,472.2,943.9z"/>
			</g>
		</g>
		<g>
			<g>
				<path class="st1" d="M481.5,906.6c-4.5-1.5-9.3,1-10.8,5.5c-1.4,4.3-2.6,8.7-3.6,13c-1.1,4.6,1.8,9.2,6.4,10.3
					c4.5,1.1,9.2-1.8,10.3-6.4c0.9-3.9,2-7.8,3.3-11.7C488.5,912.9,486,908.1,481.5,906.6z"/>
			</g>
		</g>
		<g>
			<g>
				<path class="st1" d="M525.2,844c-3.3-3.4-8.7-3.6-12.1-0.3c-0.9,0.8-1.7,1.7-2.6,2.6c-2.3,2.3-4.6,4.8-6.8,7.3
					c-3.1,3.6-2.8,9,0.8,12.1c3.5,3.1,9,2.7,12.1-0.8c1.9-2.2,4-4.4,6-6.4c0.8-0.8,1.5-1.5,2.3-2.3
					C528.4,852.8,528.5,847.4,525.2,844z"/>
			</g>
		</g>
		<g>
			<g>
				<path class="st1" d="M499.4,872.6c-4-2.5-9.3-1.2-11.8,2.8c-2.3,3.8-4.6,7.8-6.6,11.8c-2.2,4.2-0.5,9.4,3.7,11.5
					c4.2,2.1,9.4,0.4,11.5-3.7c1.8-3.6,3.8-7.2,5.9-10.6C504.7,880.3,503.5,875,499.4,872.6z"/>
			</g>
		</g>
		<g>
			<g>
				<path class="st1" d="M552.2,825.8c-2.4-4.1-7.7-5.4-11.8-3c-2.1,1.2-4.1,2.5-6.1,3.9c-3.9,2.6-5,7.9-2.4,11.9
					c2.6,3.9,8,5,11.9,2.4c1.8-1.2,3.6-2.3,5.5-3.4C553.3,835.2,554.7,829.9,552.2,825.8z"/>
			</g>
		</g>
	</g>
	<g>
	</g>
	<g>
	</g>
	<g>
	</g>
	<g>
	</g>
	<g>
	</g>
	<g>
	</g>
</g>
</svg>
