<?xml version="1.0" encoding="utf-8"?>
<!-- Generator: Adobe Illustrator 25.0.1, SVG Export Plug-In . SVG Version: 6.00 Build 0)  -->
<svg version="1.1" id="Layer_1" xmlns="http://www.w3.org/2000/svg" xmlns:xlink="http://www.w3.org/1999/xlink" x="0px" y="0px"
	 viewBox="0 0 1500 1500" style="enable-background:new 0 0 1500 1500;" xml:space="preserve">
<style type="text/css">
	.st0{clip-path:url(#SVGID_2_);}
	.st1{fill:#CE0E2D;}
	.st2{opacity:0.58;}
	.st3{fill:#ED2024;}
	.st4{opacity:0.66;fill:#AFAFAF;}
	.st5{fill:#AFAFAF;}
	.st6{fill:#191411;}
	.st7{fill:#C62031;}
	.st8{fill:#FFFFFF;}
	.st9{fill:#FEBE2F;}
	.st10{fill:#ED2024;stroke:#FFFFFF;stroke-width:3;stroke-miterlimit:10;}
</style>
<g>
	<defs>
		<path id="SVGID_1_" d="M499.03,1133.64c-16.2,0-32.49-5.47-45.88-16.66c-30.35-25.36-34.39-70.53-9.03-100.88l539.31-645.37
			c65.5-78.5,177.83-99.21,267.07-49.18c92.84,52.04,132.95,165.77,93.29,264.55c-0.06,0.14-0.11,0.28-0.17,0.42l-122.75,300.24
			c-13.54,34.09-0.8,72.89,30.34,92.32c30,18.72,68.57,11.51,93.96-17.5l236.91-282.56c25.41-30.31,70.58-34.28,100.89-8.86
			c30.31,25.41,34.28,70.58,8.86,100.89l-237.33,283.06c-0.25,0.29-0.49,0.58-0.74,0.87c-71.45,82.5-188.53,101.69-278.39,45.61
			c-90.13-56.24-126.88-168.65-87.4-267.27c0.07-0.16,0.13-0.32,0.19-0.48l122.77-300.28c12.81-32.16-0.28-69.13-30.49-86.07
			c-29.1-16.32-65.72-9.56-87.08,16.05l-539.35,645.41C539.86,1124.89,519.52,1133.64,499.03,1133.64z"/>
	</defs>
	<clipPath id="SVGID_2_">
		<use xlink:href="#SVGID_1_"  style="overflow:visible;"/>
	</clipPath>
	<g class="st0">
		<path class="st1" d="M1137.52,299.25c0-0.8,0.65-1.45,1.44-1.45c0.8,0,1.44,0.64,1.44,1.43v0.02c0,0.8-0.65,1.44-1.44,1.44
			C1138.16,300.69,1137.52,300.05,1137.52,299.25"/>
		<path class="st1" d="M1137.52,328.62c0-0.8,0.65-1.46,1.44-1.46c0.8,0,1.44,0.63,1.44,1.43v0.03c0,0.8-0.65,1.44-1.44,1.44
			C1138.16,330.07,1137.52,329.42,1137.52,328.62 M1137.52,358c0-0.8,0.65-1.46,1.44-1.46c0.8,0,1.44,0.63,1.44,1.43V358
			c0,0.8-0.65,1.44-1.44,1.44C1138.16,359.44,1137.52,358.79,1137.52,358 M1137.52,387.38c0-0.8,0.65-1.46,1.44-1.46
			c0.8,0,1.44,0.63,1.44,1.43v0.03c0,0.8-0.65,1.44-1.44,1.44C1138.16,388.82,1137.52,388.17,1137.52,387.38 M1137.52,416.75
			c0-0.8,0.65-1.46,1.44-1.46c0.8,0,1.44,0.63,1.44,1.43v0.03c0,0.8-0.65,1.44-1.44,1.44
			C1138.16,418.19,1137.52,417.55,1137.52,416.75 M1137.52,446.13c0-0.8,0.65-1.46,1.44-1.46c0.8,0,1.44,0.63,1.44,1.43v0.03
			c0,0.8-0.65,1.44-1.44,1.44C1138.16,447.57,1137.52,446.93,1137.52,446.13"/>
		<path class="st1" d="M1137.52,475.49c0-0.8,0.65-1.45,1.44-1.45c0.8,0,1.44,0.64,1.44,1.43v0.02c0,0.8-0.65,1.44-1.44,1.44
			C1138.16,476.93,1137.52,476.29,1137.52,475.49"/>
		<path class="st1" d="M1105.38,299.25c0-0.8,0.65-1.45,1.44-1.45c0.8,0,1.44,0.64,1.44,1.43v0.02c0,0.8-0.65,1.44-1.44,1.44
			C1106.03,300.69,1105.38,300.05,1105.38,299.25"/>
		<path class="st1" d="M1105.38,328.62c0-0.8,0.65-1.46,1.44-1.46c0.8,0,1.44,0.63,1.44,1.43v0.03c0,0.8-0.65,1.44-1.44,1.44
			C1106.03,330.07,1105.38,329.42,1105.38,328.62 M1105.38,358c0-0.8,0.65-1.46,1.44-1.46c0.8,0,1.44,0.63,1.44,1.43V358
			c0,0.8-0.65,1.44-1.44,1.44C1106.03,359.44,1105.38,358.79,1105.38,358 M1105.38,387.38c0-0.8,0.65-1.46,1.44-1.46
			c0.8,0,1.44,0.63,1.44,1.43v0.03c0,0.8-0.65,1.44-1.44,1.44C1106.03,388.82,1105.38,388.17,1105.38,387.38 M1105.38,416.75
			c0-0.8,0.65-1.46,1.44-1.46c0.8,0,1.44,0.63,1.44,1.43v0.03c0,0.8-0.65,1.44-1.44,1.44
			C1106.03,418.19,1105.38,417.55,1105.38,416.75 M1105.38,446.13c0-0.8,0.65-1.46,1.44-1.46c0.8,0,1.44,0.63,1.44,1.43v0.03
			c0,0.8-0.65,1.44-1.44,1.44C1106.03,447.57,1105.38,446.93,1105.38,446.13"/>
		<path class="st1" d="M1105.38,475.49c0-0.8,0.65-1.45,1.44-1.45c0.8,0,1.44,0.64,1.44,1.43v0.02c0,0.8-0.65,1.44-1.44,1.44
			C1106.03,476.93,1105.38,476.29,1105.38,475.49"/>
		<path class="st1" d="M1073.25,299.25c0-0.8,0.65-1.45,1.44-1.45c0.8,0,1.44,0.64,1.44,1.43v0.02c0,0.8-0.65,1.44-1.44,1.44
			C1073.89,300.69,1073.25,300.05,1073.25,299.25"/>
		<path class="st1" d="M1073.25,328.62c0-0.8,0.65-1.46,1.44-1.46c0.8,0,1.44,0.63,1.44,1.43v0.03c0,0.8-0.65,1.44-1.44,1.44
			C1073.89,330.07,1073.25,329.42,1073.25,328.62 M1073.25,358c0-0.8,0.65-1.46,1.44-1.46c0.8,0,1.44,0.63,1.44,1.43V358
			c0,0.8-0.65,1.44-1.44,1.44C1073.89,359.44,1073.25,358.79,1073.25,358 M1073.25,387.38c0-0.8,0.65-1.46,1.44-1.46
			c0.8,0,1.44,0.63,1.44,1.43v0.03c0,0.8-0.65,1.44-1.44,1.44C1073.89,388.82,1073.25,388.17,1073.25,387.38 M1073.25,416.75
			c0-0.8,0.65-1.46,1.44-1.46c0.8,0,1.44,0.63,1.44,1.43v0.03c0,0.8-0.65,1.44-1.44,1.44
			C1073.89,418.19,1073.25,417.55,1073.25,416.75 M1073.25,446.13c0-0.8,0.65-1.46,1.44-1.46c0.8,0,1.44,0.63,1.44,1.43v0.03
			c0,0.8-0.65,1.44-1.44,1.44C1073.89,447.57,1073.25,446.93,1073.25,446.13"/>
		<path class="st1" d="M1073.25,475.49c0-0.8,0.65-1.45,1.44-1.45c0.8,0,1.44,0.64,1.44,1.43v0.02c0,0.8-0.65,1.44-1.44,1.44
			C1073.89,476.93,1073.25,476.29,1073.25,475.49"/>
	</g>
	<g class="st0">
		<path class="st1" d="M1230.57,298.48c0-0.8,0.65-1.45,1.44-1.45c0.8,0,1.44,0.64,1.44,1.43v0.02c0,0.8-0.65,1.44-1.44,1.44
			C1231.22,299.92,1230.57,299.28,1230.57,298.48"/>
		<path class="st1" d="M1230.57,327.85c0-0.8,0.65-1.46,1.44-1.46c0.8,0,1.44,0.63,1.44,1.43v0.03c0,0.8-0.65,1.44-1.44,1.44
			C1231.22,329.3,1230.57,328.65,1230.57,327.85 M1230.57,357.23c0-0.8,0.65-1.46,1.44-1.46c0.8,0,1.44,0.63,1.44,1.43v0.03
			c0,0.8-0.65,1.44-1.44,1.44C1231.22,358.67,1230.57,358.02,1230.57,357.23 M1230.57,386.61c0-0.8,0.65-1.46,1.44-1.46
			c0.8,0,1.44,0.63,1.44,1.43v0.03c0,0.8-0.65,1.44-1.44,1.44C1231.22,388.05,1230.57,387.4,1230.57,386.61 M1230.57,415.98
			c0-0.8,0.65-1.46,1.44-1.46c0.8,0,1.44,0.63,1.44,1.43v0.03c0,0.8-0.65,1.44-1.44,1.44
			C1231.22,417.42,1230.57,416.78,1230.57,415.98 M1230.57,445.36c0-0.8,0.65-1.46,1.44-1.46c0.8,0,1.44,0.63,1.44,1.43v0.03
			c0,0.8-0.65,1.44-1.44,1.44C1231.22,446.8,1230.57,446.16,1230.57,445.36"/>
		<path class="st1" d="M1230.57,474.72c0-0.8,0.65-1.45,1.44-1.45c0.8,0,1.44,0.64,1.44,1.43v0.02c0,0.8-0.65,1.44-1.44,1.44
			C1231.22,476.16,1230.57,475.52,1230.57,474.72"/>
		<path class="st1" d="M1198.44,298.48c0-0.8,0.65-1.45,1.44-1.45c0.8,0,1.44,0.64,1.44,1.43v0.02c0,0.8-0.65,1.44-1.44,1.44
			C1199.09,299.92,1198.44,299.28,1198.44,298.48"/>
		<path class="st1" d="M1198.44,327.85c0-0.8,0.65-1.46,1.44-1.46c0.8,0,1.44,0.63,1.44,1.43v0.03c0,0.8-0.65,1.44-1.44,1.44
			C1199.09,329.3,1198.44,328.65,1198.44,327.85 M1198.44,357.23c0-0.8,0.65-1.46,1.44-1.46c0.8,0,1.44,0.63,1.44,1.43v0.03
			c0,0.8-0.65,1.44-1.44,1.44C1199.09,358.67,1198.44,358.02,1198.44,357.23 M1198.44,386.61c0-0.8,0.65-1.46,1.44-1.46
			c0.8,0,1.44,0.63,1.44,1.43v0.03c0,0.8-0.65,1.44-1.44,1.44C1199.09,388.05,1198.44,387.4,1198.44,386.61 M1198.44,415.98
			c0-0.8,0.65-1.46,1.44-1.46c0.8,0,1.44,0.63,1.44,1.43v0.03c0,0.8-0.65,1.44-1.44,1.44
			C1199.09,417.42,1198.44,416.78,1198.44,415.98 M1198.44,445.36c0-0.8,0.65-1.46,1.44-1.46c0.8,0,1.44,0.63,1.44,1.43v0.03
			c0,0.8-0.65,1.44-1.44,1.44C1199.09,446.8,1198.44,446.16,1198.44,445.36"/>
		<path class="st1" d="M1198.44,474.72c0-0.8,0.65-1.45,1.44-1.45c0.8,0,1.44,0.64,1.44,1.43v0.02c0,0.8-0.65,1.44-1.44,1.44
			C1199.09,476.16,1198.44,475.52,1198.44,474.72"/>
		<path class="st1" d="M1166.31,298.48c0-0.8,0.65-1.45,1.44-1.45c0.8,0,1.44,0.64,1.44,1.43v0.02c0,0.8-0.65,1.44-1.44,1.44
			C1166.95,299.92,1166.31,299.28,1166.31,298.48"/>
		<path class="st1" d="M1166.31,327.85c0-0.8,0.65-1.46,1.44-1.46c0.8,0,1.44,0.63,1.44,1.43v0.03c0,0.8-0.65,1.44-1.44,1.44
			C1166.95,329.3,1166.31,328.65,1166.31,327.85 M1166.31,357.23c0-0.8,0.65-1.46,1.44-1.46c0.8,0,1.44,0.63,1.44,1.43v0.03
			c0,0.8-0.65,1.44-1.44,1.44C1166.95,358.67,1166.31,358.02,1166.31,357.23 M1166.31,386.61c0-0.8,0.65-1.46,1.44-1.46
			c0.8,0,1.44,0.63,1.44,1.43v0.03c0,0.8-0.65,1.44-1.44,1.44C1166.95,388.05,1166.31,387.4,1166.31,386.61 M1166.31,415.98
			c0-0.8,0.65-1.46,1.44-1.46c0.8,0,1.44,0.63,1.44,1.43v0.03c0,0.8-0.65,1.44-1.44,1.44
			C1166.95,417.42,1166.31,416.78,1166.31,415.98 M1166.31,445.36c0-0.8,0.65-1.46,1.44-1.46c0.8,0,1.44,0.63,1.44,1.43v0.03
			c0,0.8-0.65,1.44-1.44,1.44C1166.95,446.8,1166.31,446.16,1166.31,445.36"/>
		<path class="st1" d="M1166.31,474.72c0-0.8,0.65-1.45,1.44-1.45c0.8,0,1.44,0.64,1.44,1.43v0.02c0,0.8-0.65,1.44-1.44,1.44
			C1166.95,476.16,1166.31,475.52,1166.31,474.72"/>
	</g>
	<g class="st0">
		<path class="st1" d="M1326,298.57c0-0.8,0.65-1.45,1.44-1.45c0.8,0,1.44,0.64,1.44,1.43v0.02c0,0.8-0.65,1.44-1.44,1.44
			C1326.65,300.01,1326,299.37,1326,298.57"/>
		<path class="st1" d="M1326,327.94c0-0.8,0.65-1.46,1.44-1.46c0.8,0,1.44,0.63,1.44,1.43v0.03c0,0.8-0.65,1.44-1.44,1.44
			C1326.65,329.39,1326,328.74,1326,327.94 M1326,357.32c0-0.8,0.65-1.46,1.44-1.46c0.8,0,1.44,0.63,1.44,1.43v0.03
			c0,0.8-0.65,1.44-1.44,1.44C1326.65,358.76,1326,358.11,1326,357.32 M1326,386.7c0-0.8,0.65-1.46,1.44-1.46
			c0.8,0,1.44,0.63,1.44,1.43v0.03c0,0.8-0.65,1.44-1.44,1.44C1326.65,388.14,1326,387.49,1326,386.7 M1326,416.07
			c0-0.8,0.65-1.46,1.44-1.46c0.8,0,1.44,0.63,1.44,1.43v0.03c0,0.8-0.65,1.44-1.44,1.44C1326.65,417.51,1326,416.87,1326,416.07
			 M1326,445.45c0-0.8,0.65-1.46,1.44-1.46c0.8,0,1.44,0.63,1.44,1.43v0.03c0,0.8-0.65,1.44-1.44,1.44
			C1326.65,446.89,1326,446.25,1326,445.45"/>
		<path class="st1" d="M1326,474.81c0-0.8,0.65-1.45,1.44-1.45c0.8,0,1.44,0.64,1.44,1.43v0.02c0,0.8-0.65,1.44-1.44,1.44
			C1326.65,476.25,1326,475.61,1326,474.81"/>
		<path class="st1" d="M1293.87,298.57c0-0.8,0.65-1.45,1.44-1.45c0.8,0,1.44,0.64,1.44,1.43v0.02c0,0.8-0.65,1.44-1.44,1.44
			C1294.51,300.01,1293.87,299.37,1293.87,298.57"/>
		<path class="st1" d="M1293.87,327.94c0-0.8,0.65-1.46,1.44-1.46c0.8,0,1.44,0.63,1.44,1.43v0.03c0,0.8-0.65,1.44-1.44,1.44
			C1294.51,329.39,1293.87,328.74,1293.87,327.94 M1293.87,357.32c0-0.8,0.65-1.46,1.44-1.46c0.8,0,1.44,0.63,1.44,1.43v0.03
			c0,0.8-0.65,1.44-1.44,1.44C1294.51,358.76,1293.87,358.11,1293.87,357.32 M1293.87,386.7c0-0.8,0.65-1.46,1.44-1.46
			c0.8,0,1.44,0.63,1.44,1.43v0.03c0,0.8-0.65,1.44-1.44,1.44C1294.51,388.14,1293.87,387.49,1293.87,386.7 M1293.87,416.07
			c0-0.8,0.65-1.46,1.44-1.46c0.8,0,1.44,0.63,1.44,1.43v0.03c0,0.8-0.65,1.44-1.44,1.44
			C1294.51,417.51,1293.87,416.87,1293.87,416.07 M1293.87,445.45c0-0.8,0.65-1.46,1.44-1.46c0.8,0,1.44,0.63,1.44,1.43v0.03
			c0,0.8-0.65,1.44-1.44,1.44C1294.51,446.89,1293.87,446.25,1293.87,445.45"/>
		<path class="st1" d="M1293.87,474.81c0-0.8,0.65-1.45,1.44-1.45c0.8,0,1.44,0.64,1.44,1.43v0.02c0,0.8-0.65,1.44-1.44,1.44
			C1294.51,476.25,1293.87,475.61,1293.87,474.81"/>
		<path class="st1" d="M1261.73,298.57c0-0.8,0.65-1.45,1.44-1.45c0.8,0,1.44,0.64,1.44,1.43v0.02c0,0.8-0.65,1.44-1.44,1.44
			C1262.38,300.01,1261.73,299.37,1261.73,298.57"/>
		<path class="st1" d="M1261.73,327.94c0-0.8,0.65-1.46,1.44-1.46c0.8,0,1.44,0.63,1.44,1.43v0.03c0,0.8-0.65,1.44-1.44,1.44
			C1262.38,329.39,1261.73,328.74,1261.73,327.94 M1261.73,357.32c0-0.8,0.65-1.46,1.44-1.46c0.8,0,1.44,0.63,1.44,1.43v0.03
			c0,0.8-0.65,1.44-1.44,1.44C1262.38,358.76,1261.73,358.11,1261.73,357.32 M1261.73,386.7c0-0.8,0.65-1.46,1.44-1.46
			c0.8,0,1.44,0.63,1.44,1.43v0.03c0,0.8-0.65,1.44-1.44,1.44C1262.38,388.14,1261.73,387.49,1261.73,386.7 M1261.73,416.07
			c0-0.8,0.65-1.46,1.44-1.46c0.8,0,1.44,0.63,1.44,1.43v0.03c0,0.8-0.65,1.44-1.44,1.44
			C1262.38,417.51,1261.73,416.87,1261.73,416.07 M1261.73,445.45c0-0.8,0.65-1.46,1.44-1.46c0.8,0,1.44,0.63,1.44,1.43v0.03
			c0,0.8-0.65,1.44-1.44,1.44C1262.38,446.89,1261.73,446.25,1261.73,445.45"/>
		<path class="st1" d="M1261.73,474.81c0-0.8,0.65-1.45,1.44-1.45c0.8,0,1.44,0.64,1.44,1.43v0.02c0,0.8-0.65,1.44-1.44,1.44
			C1262.38,476.25,1261.73,475.61,1261.73,474.81"/>
	</g>
	<g class="st0">
		<path class="st1" d="M1262.52,506.69c0-0.8,0.65-1.45,1.44-1.45c0.8,0,1.44,0.64,1.44,1.43v0.02c0,0.8-0.65,1.44-1.44,1.44
			C1263.16,508.13,1262.52,507.48,1262.52,506.69"/>
		<path class="st1" d="M1262.52,536.06c0-0.8,0.65-1.46,1.44-1.46c0.8,0,1.44,0.63,1.44,1.43v0.03c0,0.8-0.65,1.44-1.44,1.44
			C1263.16,537.5,1262.52,536.86,1262.52,536.06 M1262.52,565.44c0-0.8,0.65-1.46,1.44-1.46c0.8,0,1.44,0.63,1.44,1.43v0.03
			c0,0.8-0.65,1.44-1.44,1.44C1263.16,566.88,1262.52,566.23,1262.52,565.44 M1262.52,594.82c0-0.8,0.65-1.46,1.44-1.46
			c0.8,0,1.44,0.63,1.44,1.43v0.03c0,0.8-0.65,1.44-1.44,1.44C1263.16,596.26,1262.52,595.61,1262.52,594.82 M1262.52,624.19
			c0-0.8,0.65-1.46,1.44-1.46c0.8,0,1.44,0.63,1.44,1.43v0.03c0,0.8-0.65,1.44-1.44,1.44
			C1263.16,625.63,1262.52,624.99,1262.52,624.19 M1262.52,653.57c0-0.8,0.65-1.46,1.44-1.46c0.8,0,1.44,0.63,1.44,1.43v0.03
			c0,0.8-0.65,1.44-1.44,1.44C1263.16,655.01,1262.52,654.37,1262.52,653.57"/>
		<path class="st1" d="M1262.52,682.93c0-0.8,0.65-1.45,1.44-1.45c0.8,0,1.44,0.64,1.44,1.43v0.02c0,0.8-0.65,1.44-1.44,1.44
			C1263.16,684.37,1262.52,683.73,1262.52,682.93"/>
		<path class="st1" d="M1230.38,506.69c0-0.8,0.65-1.45,1.44-1.45c0.8,0,1.44,0.64,1.44,1.43v0.02c0,0.8-0.65,1.44-1.44,1.44
			C1231.03,508.13,1230.38,507.48,1230.38,506.69"/>
		<path class="st1" d="M1230.38,536.06c0-0.8,0.65-1.46,1.44-1.46c0.8,0,1.44,0.63,1.44,1.43v0.03c0,0.8-0.65,1.44-1.44,1.44
			C1231.03,537.5,1230.38,536.86,1230.38,536.06 M1230.38,565.44c0-0.8,0.65-1.46,1.44-1.46c0.8,0,1.44,0.63,1.44,1.43v0.03
			c0,0.8-0.65,1.44-1.44,1.44C1231.03,566.88,1230.38,566.23,1230.38,565.44 M1230.38,594.82c0-0.8,0.65-1.46,1.44-1.46
			c0.8,0,1.44,0.63,1.44,1.43v0.03c0,0.8-0.65,1.44-1.44,1.44C1231.03,596.26,1230.38,595.61,1230.38,594.82 M1230.38,624.19
			c0-0.8,0.65-1.46,1.44-1.46c0.8,0,1.44,0.63,1.44,1.43v0.03c0,0.8-0.65,1.44-1.44,1.44
			C1231.03,625.63,1230.38,624.99,1230.38,624.19 M1230.38,653.57c0-0.8,0.65-1.46,1.44-1.46c0.8,0,1.44,0.63,1.44,1.43v0.03
			c0,0.8-0.65,1.44-1.44,1.44C1231.03,655.01,1230.38,654.37,1230.38,653.57"/>
		<path class="st1" d="M1230.38,682.93c0-0.8,0.65-1.45,1.44-1.45c0.8,0,1.44,0.64,1.44,1.43v0.02c0,0.8-0.65,1.44-1.44,1.44
			C1231.03,684.37,1230.38,683.73,1230.38,682.93"/>
		<path class="st1" d="M1198.25,506.69c0-0.8,0.65-1.45,1.44-1.45c0.8,0,1.44,0.64,1.44,1.43v0.02c0,0.8-0.65,1.44-1.44,1.44
			C1198.89,508.13,1198.25,507.48,1198.25,506.69"/>
		<path class="st1" d="M1198.25,536.06c0-0.8,0.65-1.46,1.44-1.46c0.8,0,1.44,0.63,1.44,1.43v0.03c0,0.8-0.65,1.44-1.44,1.44
			C1198.89,537.5,1198.25,536.86,1198.25,536.06 M1198.25,565.44c0-0.8,0.65-1.46,1.44-1.46c0.8,0,1.44,0.63,1.44,1.43v0.03
			c0,0.8-0.65,1.44-1.44,1.44C1198.89,566.88,1198.25,566.23,1198.25,565.44 M1198.25,594.82c0-0.8,0.65-1.46,1.44-1.46
			c0.8,0,1.44,0.63,1.44,1.43v0.03c0,0.8-0.65,1.44-1.44,1.44C1198.89,596.26,1198.25,595.61,1198.25,594.82 M1198.25,624.19
			c0-0.8,0.65-1.46,1.44-1.46c0.8,0,1.44,0.63,1.44,1.43v0.03c0,0.8-0.65,1.44-1.44,1.44
			C1198.89,625.63,1198.25,624.99,1198.25,624.19 M1198.25,653.57c0-0.8,0.65-1.46,1.44-1.46c0.8,0,1.44,0.63,1.44,1.43v0.03
			c0,0.8-0.65,1.44-1.44,1.44C1198.89,655.01,1198.25,654.37,1198.25,653.57"/>
		<path class="st1" d="M1198.25,682.93c0-0.8,0.65-1.45,1.44-1.45c0.8,0,1.44,0.64,1.44,1.43v0.02c0,0.8-0.65,1.44-1.44,1.44
			C1198.89,684.37,1198.25,683.73,1198.25,682.93"/>
	</g>
	<g class="st0">
		<path class="st1" d="M1359.57,506.69c0-0.8,0.65-1.45,1.44-1.45c0.8,0,1.44,0.64,1.44,1.43v0.02c0,0.8-0.65,1.44-1.44,1.44
			C1360.22,508.13,1359.57,507.48,1359.57,506.69"/>
		<path class="st1" d="M1359.57,536.06c0-0.8,0.65-1.46,1.44-1.46c0.8,0,1.44,0.63,1.44,1.43v0.03c0,0.8-0.65,1.44-1.44,1.44
			C1360.22,537.5,1359.57,536.86,1359.57,536.06 M1359.57,565.44c0-0.8,0.65-1.46,1.44-1.46c0.8,0,1.44,0.63,1.44,1.43v0.03
			c0,0.8-0.65,1.44-1.44,1.44C1360.22,566.88,1359.57,566.23,1359.57,565.44 M1359.57,594.82c0-0.8,0.65-1.46,1.44-1.46
			c0.8,0,1.44,0.63,1.44,1.43v0.03c0,0.8-0.65,1.44-1.44,1.44C1360.22,596.26,1359.57,595.61,1359.57,594.82 M1359.57,624.19
			c0-0.8,0.65-1.46,1.44-1.46c0.8,0,1.44,0.63,1.44,1.43v0.03c0,0.8-0.65,1.44-1.44,1.44
			C1360.22,625.63,1359.57,624.99,1359.57,624.19 M1359.57,653.57c0-0.8,0.65-1.46,1.44-1.46c0.8,0,1.44,0.63,1.44,1.43v0.03
			c0,0.8-0.65,1.44-1.44,1.44C1360.22,655.01,1359.57,654.37,1359.57,653.57"/>
		<path class="st1" d="M1359.57,682.93c0-0.8,0.65-1.45,1.44-1.45c0.8,0,1.44,0.64,1.44,1.43v0.02c0,0.8-0.65,1.44-1.44,1.44
			C1360.22,684.37,1359.57,683.73,1359.57,682.93"/>
		<path class="st1" d="M1327.44,506.69c0-0.8,0.65-1.45,1.44-1.45c0.8,0,1.44,0.64,1.44,1.43v0.02c0,0.8-0.65,1.44-1.44,1.44
			C1328.09,508.13,1327.44,507.48,1327.44,506.69"/>
		<path class="st1" d="M1327.44,536.06c0-0.8,0.65-1.46,1.44-1.46c0.8,0,1.44,0.63,1.44,1.43v0.03c0,0.8-0.65,1.44-1.44,1.44
			C1328.09,537.5,1327.44,536.86,1327.44,536.06 M1327.44,565.44c0-0.8,0.65-1.46,1.44-1.46c0.8,0,1.44,0.63,1.44,1.43v0.03
			c0,0.8-0.65,1.44-1.44,1.44C1328.09,566.88,1327.44,566.23,1327.44,565.44 M1327.44,594.82c0-0.8,0.65-1.46,1.44-1.46
			c0.8,0,1.44,0.63,1.44,1.43v0.03c0,0.8-0.65,1.44-1.44,1.44C1328.09,596.26,1327.44,595.61,1327.44,594.82 M1327.44,624.19
			c0-0.8,0.65-1.46,1.44-1.46c0.8,0,1.44,0.63,1.44,1.43v0.03c0,0.8-0.65,1.44-1.44,1.44
			C1328.09,625.63,1327.44,624.99,1327.44,624.19 M1327.44,653.57c0-0.8,0.65-1.46,1.44-1.46c0.8,0,1.44,0.63,1.44,1.43v0.03
			c0,0.8-0.65,1.44-1.44,1.44C1328.09,655.01,1327.44,654.37,1327.44,653.57"/>
		<path class="st1" d="M1327.44,682.93c0-0.8,0.65-1.45,1.44-1.45c0.8,0,1.44,0.64,1.44,1.43v0.02c0,0.8-0.65,1.44-1.44,1.44
			C1328.09,684.37,1327.44,683.73,1327.44,682.93"/>
		<path class="st1" d="M1295.31,506.69c0-0.8,0.65-1.45,1.44-1.45c0.8,0,1.44,0.64,1.44,1.43v0.02c0,0.8-0.65,1.44-1.44,1.44
			C1295.95,508.13,1295.31,507.48,1295.31,506.69"/>
		<path class="st1" d="M1295.31,536.06c0-0.8,0.65-1.46,1.44-1.46c0.8,0,1.44,0.63,1.44,1.43v0.03c0,0.8-0.65,1.44-1.44,1.44
			C1295.95,537.5,1295.31,536.86,1295.31,536.06 M1295.31,565.44c0-0.8,0.65-1.46,1.44-1.46c0.8,0,1.44,0.63,1.44,1.43v0.03
			c0,0.8-0.65,1.44-1.44,1.44C1295.95,566.88,1295.31,566.23,1295.31,565.44 M1295.31,594.82c0-0.8,0.65-1.46,1.44-1.46
			c0.8,0,1.44,0.63,1.44,1.43v0.03c0,0.8-0.65,1.44-1.44,1.44C1295.95,596.26,1295.31,595.61,1295.31,594.82 M1295.31,624.19
			c0-0.8,0.65-1.46,1.44-1.46c0.8,0,1.44,0.63,1.44,1.43v0.03c0,0.8-0.65,1.44-1.44,1.44
			C1295.95,625.63,1295.31,624.99,1295.31,624.19 M1295.31,653.57c0-0.8,0.65-1.46,1.44-1.46c0.8,0,1.44,0.63,1.44,1.43v0.03
			c0,0.8-0.65,1.44-1.44,1.44C1295.95,655.01,1295.31,654.37,1295.31,653.57"/>
		<path class="st1" d="M1295.31,682.93c0-0.8,0.65-1.45,1.44-1.45c0.8,0,1.44,0.64,1.44,1.43v0.02c0,0.8-0.65,1.44-1.44,1.44
			C1295.95,684.37,1295.31,683.73,1295.31,682.93"/>
	</g>
</g>
<g id="XMLID_2_" class="st2">
	<path id="XMLID_3_" class="st3" d="M311.73,997.93h-24.09v-10.28c0-23.1,15.64-50.29,35.78-61.84l17.47-10.14
		c11.69-6.76,23.67-7.47,33.1-2.11c9.3,5.35,14.79,16.2,14.79,29.72c0,5.07,1.41,8.03,2.68,8.87c1.41,0.85,4.65,0.42,9.02-2.11
		l19.3-11.13c12.68-7.33,23.67-26.48,23.67-40.99c0-23.1,15.64-50.29,35.78-61.84l16.62-9.58c11.69-6.76,23.67-7.47,33.1-2.11
		c9.3,5.35,14.79,16.2,14.79,29.72c0,5.07,1.41,8.03,2.68,8.87c1.27,0.85,4.65,0.42,9.02-2.11l13.95-8.03
		c12.68-7.33,23.67-26.48,23.67-40.99c0-23.1,15.64-50.29,35.78-61.84l16.62-9.58c11.69-6.76,23.67-7.47,33.1-2.11
		c9.3,5.35,14.79,16.2,14.79,29.72v13.38h-24.51v-13.38c0-5.07-1.41-8.03-2.68-8.87c-1.41-0.85-4.65-0.42-9.02,2.11l-16.62,9.58
		c-12.68,7.33-23.67,26.48-23.67,40.99c0,23.1-15.64,50.29-35.78,61.84l-13.95,8.03c-11.69,6.76-23.67,7.47-33.1,2.11
		c-9.3-5.35-14.79-16.2-14.79-29.72c0-5.07-1.41-8.03-2.68-8.87c-1.41-0.7-4.65-0.42-9.02,2.11l-16.62,9.58
		c-12.68,7.33-23.67,26.48-23.67,40.99c0,23.1-15.64,50.29-35.78,61.84l-19.16,11.13c-11.69,6.76-23.67,7.47-33.1,2.11
		c-9.3-5.35-14.79-16.2-14.79-29.72c0-5.07-1.41-8.03-2.68-8.87c-1.27-0.7-4.65-0.42-9.02,2.11l-17.47,10.14
		c-12.68,7.33-23.67,26.48-23.67,40.99v10.28H311.73z"/>
</g>
<g id="XMLID_4871_">
	<g id="XMLID_302_">
		<polygon id="XMLID_4817_" class="st4" points="649.11,734.92 681.79,945.51 1196.52,457.41 		"/>
		<path id="XMLID_4818_" class="st5" d="M679.4,951.43l-33.95-218.48l2.11-1.13l547.41-277.51l4.09,5.07L683.91,948.05L679.4,951.43
			z M652.77,736.75l31.41,202l493.6-468.1L652.77,736.75z"/>
	</g>
	<polygon id="XMLID_5083_" class="st6" points="747.58,795.63 678.41,944.81 679.4,951.43 832.24,839.3 	"/>
	<polygon id="XMLID_4813_" class="st7" points="1196.52,457.41 482.04,632.65 649.11,734.92 	"/>
	<polygon id="XMLID_4804_" class="st7" points="1196.52,457.41 959.72,920.44 753.35,795.35 	"/>
	<path id="XMLID_4798_" class="st8" d="M1196.38,490.51L965.5,941.85L759.27,816.9l432.74-330.05
		C1194.55,484.88,1197.93,487.7,1196.38,490.51z"/>
	<polygon id="XMLID_4806_" class="st8" points="645.45,732.95 652.77,736.75 654.75,749.99 1135.67,506.29 1189.48,460.93 
		1120.73,495.87 475,654.2 642.21,756.33 648.55,753.09 	"/>
	<g id="XMLID_5_">
		<path id="XMLID_4800_" class="st6" d="M1199.2,459.52l-4.09-5.07l0,0l0,0L646.43,588.98l0,0L481.2,629.41l-7.75,1.83
			l175.52,107.34l202.29-102.55l0,0l307.51-155.8l7.04-3.66l-151.29,115.37L751.38,792.67l-3.8,2.96l213.41,129.46l34.93-68.46l0,0
			L1199.2,459.52L1199.2,459.52L1199.2,459.52z M649.25,731.11l-158.76-97.06l170.17-41.84l180.59,41.56L649.25,731.11z
			 M850.41,629.13L674.89,588.7l370.9-91l123.54-30.29L850.41,629.13z M958.31,915.65L759.27,795.07L897.46,689.7l94.52,160.17
			L958.31,915.65z M995.64,842.96l-92.83-157.35l177.63-135.51l106.5-81.14L995.64,842.96z"/>
	</g>
	<g id="XMLID_74_">
		<g id="XMLID_314_">
			<path id="XMLID_4822_" class="st3" d="M893.8,769.71l-36.06,42.54l56.49,54.09L950,823.1L893.8,769.71z M912.95,845.36
				l-38.46-36.2l19.72-23.67l38.32,35.92L912.95,845.36z"/>
			<path id="XMLID_298_" class="st6" d="M912.95,845.36l-43.53-41.56l24.09-28.46l43.39,41.13L912.95,845.36z M873.93,803.52
				l38.74,37.05l19.72-23.81l-38.6-36.63L873.93,803.52z"/>
		</g>
		<path id="XMLID_4808_" class="st6" d="M913.66,862.26l-60.01-57.61l39.3-46.35l59.87,56.91L913.66,862.26z M860.41,804.36
			l52.83,50.71l32.54-39.3l-52.68-50.15L860.41,804.36z"/>
	</g>
	<g id="XMLID_313_">
		<path id="XMLID_4803_" class="st6" d="M946.2,728.01c0,31.98-28.46,58.04-63.39,58.04c-29.86,0-54.94-19.02-61.7-44.51l-3.24,2.54
			c7.75,26.34,33.81,45.92,64.94,45.92c37.05,0,67.19-27.75,67.19-61.84c0-24.51-15.64-45.64-38.17-55.64l-3.38,2.68
			C930.56,683.92,946.2,704.35,946.2,728.01z"/>
		<path id="XMLID_4802_" class="st6" d="M933.1,728.01c0,24.93-22.26,45.22-49.44,45.22c-25.78,0-47.05-18.17-49.3-41.13l-3.52,2.68
			c3.52,23.81,25.78,42.4,52.68,42.4c29.44,0,53.25-21.98,53.25-49.02c0-21.55-15.21-39.87-36.34-46.49l-3.8,2.82
			C917.74,689.7,933.1,707.17,933.1,728.01z"/>
	</g>
	<g id="XMLID_4812_">
		<path id="XMLID_4828_" class="st6" d="M320.19,1020.31H296.1v-10.28c0-23.1,15.64-50.29,35.78-61.84l17.47-10.14
			c11.69-6.76,23.67-7.47,33.1-2.11c9.3,5.35,14.79,16.2,14.79,29.72c0,5.07,1.41,8.03,2.68,8.87c1.41,0.85,4.65,0.42,9.02-2.11
			l19.3-11.13c12.68-7.33,23.67-26.48,23.67-40.99c0-23.1,15.64-50.29,35.78-61.84l16.62-9.58c11.69-6.76,23.67-7.47,33.1-2.11
			c9.3,5.35,14.79,16.2,14.79,29.72c0,5.07,1.41,8.03,2.68,8.87c1.27,0.85,4.65,0.42,9.02-2.11l13.95-8.03
			c12.68-7.33,23.67-26.48,23.67-40.99c0-23.1,15.64-50.29,35.78-61.84l16.62-9.58c11.69-6.76,23.67-7.47,33.1-2.11
			c9.3,5.35,14.65,16.2,14.65,29.72v13.38h-24.09V790c0-5.07-1.41-8.03-2.68-8.87c-1.41-0.85-4.65-0.42-9.02,2.11l-16.62,9.58
			c-12.68,7.33-23.67,26.48-23.67,40.99c0,23.1-15.64,50.29-35.78,61.84l-13.95,8.03c-11.69,6.76-23.67,7.47-33.1,2.11
			c-9.3-5.35-14.79-16.2-14.79-29.72c0-5.07-1.41-8.03-2.68-8.87c-1.41-0.7-4.65-0.42-9.02,2.11l-16.62,9.58
			c-12.68,7.33-23.67,26.48-23.67,40.99c0,23.1-15.64,50.29-35.78,61.84l-19.16,11.13c-11.69,6.76-23.67,7.47-33.1,2.11
			c-9.3-5.35-14.79-16.2-14.79-29.72c0-5.07-1.41-8.03-2.68-8.87c-1.27-0.7-4.65-0.42-9.02,2.11l-17.47,10.14
			c-12.68,7.33-23.67,26.48-23.67,40.99v10.71H320.19z"/>
	</g>
	<g id="XMLID_4807_">
		<path id="XMLID_4827_" class="st5" d="M189.74,1193.16h-18.17v-4.93c0-12.26,8.03-26.2,18.59-32.26l8.31-4.79
			c6.62-3.8,13.52-4.23,19.02-0.99c5.49,3.24,8.59,9.3,8.59,16.9c0,0.28,0,0.42,0,0.7c0.14-0.14,0.42-0.14,0.56-0.28l9.16-5.21
			c5.07-2.96,9.58-10.85,9.58-16.62c0-12.26,8.03-26.2,18.59-32.26l7.89-4.51c6.62-3.8,13.52-4.23,19.02-0.99
			c5.49,3.24,8.59,9.3,8.59,16.9c0,0.28,0,0.42,0,0.7c0.14-0.14,0.42-0.14,0.56-0.28l6.62-3.8c5.07-2.96,9.58-10.85,9.58-16.62
			c0-12.26,8.03-26.2,18.59-32.26l7.89-4.51c6.62-3.8,13.52-4.23,19.02-0.99c5.49,3.24,8.59,9.3,8.59,16.9v6.34H352.3v-6.34
			c0-0.28,0-0.42,0-0.7c-0.14,0.14-0.42,0.14-0.56,0.28l-7.89,4.51c-5.07,2.96-9.58,10.85-9.58,16.62c0,12.26-8.03,26.2-18.59,32.26
			l-6.62,3.8c-6.62,3.8-13.52,4.23-19.02,0.99c-5.49-3.24-8.59-9.3-8.59-16.9c0-0.28,0-0.42,0-0.7c-0.14,0.14-0.42,0.14-0.56,0.28
			l-7.89,4.51c-5.07,2.96-9.58,10.85-9.58,16.62c0,12.26-8.03,26.2-18.59,32.26l-9.16,5.21c-6.62,3.8-13.52,4.23-19.02,0.99
			c-5.49-3.24-8.59-9.3-8.59-16.9c0-0.28,0-0.42,0-0.7c-0.14,0.14-0.42,0.14-0.56,0.28l-8.31,4.79c-5.07,2.96-9.58,10.85-9.58,16.62
			v5.07H189.74z"/>
	</g>
	<g id="XMLID_4824_">
		<path id="XMLID_4826_" class="st3" d="M822.94,485.3H809.7v-4.09c0-9.86,6.48-20.99,14.93-25.92l6.9-3.94
			c5.21-2.96,10.57-3.24,14.93-0.85c4.23,2.54,6.76,7.33,6.76,13.24c0,0.99,0.14,1.55,0.28,1.83c0.14-0.14,0.7-0.28,1.55-0.85
			l7.61-4.37c4.37-2.54,8.31-9.44,8.31-14.51c0-9.86,6.48-20.99,14.93-25.92l6.48-3.8c5.21-2.96,10.57-3.24,14.93-0.85
			c4.23,2.54,6.76,7.33,6.76,13.24c0,0.99,0.14,1.55,0.28,1.83c0.14-0.14,0.7-0.28,1.55-0.85l5.35-2.96
			c4.37-2.54,8.31-9.44,8.31-14.51c0-9.86,6.48-20.99,14.93-25.92l6.48-3.8c5.21-2.96,10.57-3.24,14.93-0.85
			c4.23,2.54,6.76,7.33,6.76,13.24v5.21h-13.24v-5.21c0-0.99-0.14-1.55-0.28-1.83c-0.14,0.14-0.7,0.28-1.55,0.85l-6.48,3.8
			c-4.37,2.54-8.31,9.44-8.31,14.51c0,9.86-6.48,20.99-14.93,25.92l-5.49,3.24c-5.21,2.96-10.57,3.24-14.93,0.85
			c-4.23-2.54-6.76-7.33-6.76-13.24c0-0.99-0.14-1.55-0.28-1.83c-0.14,0.14-0.7,0.42-1.55,0.85l-6.48,3.8
			c-4.37,2.54-8.31,9.44-8.31,14.51c0,9.86-6.48,20.99-14.93,25.92l-7.61,4.37c-5.21,2.96-10.57,3.24-14.93,0.85
			c-4.23-2.54-6.76-7.33-6.76-13.24c0-0.99-0.14-1.55-0.28-1.83c-0.14,0.14-0.7,0.42-1.55,0.85l-6.9,3.94
			c-4.37,2.54-8.31,9.44-8.31,14.51v3.8H822.94z"/>
	</g>
</g>
<g id="XMLID_5249_">
	<g id="XMLID_5227_">
		<path id="XMLID_5240_" class="st9" d="M1165.39,1031.3L1165.39,1031.3l0.56-32.54h267.93l-0.42,31.7c0.14,0.85,0,0-0.14,0.85l0,0
			l0,0c-0.56,4.65-4.37,9.58-10.99,13.38l-99.87,57.76c-13.38,7.75-33.53,8.59-45.08,1.83l-104.24-60.29
			C1167.22,1040.6,1164.68,1035.95,1165.39,1031.3z"/>
		<path id="XMLID_5247_" class="st5" d="M1165.39,1031.3L1165.39,1031.3l0.56-32.54h267.93l-0.42,31.7c0.14,0.85,0,0-0.14,0.85l0,0
			l0,0c-0.56,4.65-4.37,9.58-10.99,13.38l-99.87,57.76c-13.38,7.75-33.53,8.59-45.08,1.83l-104.24-60.29
			C1167.22,1040.6,1164.68,1035.95,1165.39,1031.3z"/>
		<path id="XMLID_5241_" class="st6" d="M1296.96,1110.47c-7.61,0-14.93-1.55-20.43-4.65l-104.24-60.29
			c-6.2-3.52-9.3-8.73-8.59-14.37l0.28-31.55l271.59-2.54l-0.42,33.39c0,0.28,0.14,0.7-0.14,1.13c-0.85,5.49-4.93,10.57-11.83,14.51
			l-99.87,57.76C1315.83,1108.22,1306.12,1110.47,1296.96,1110.47z M1167.64,1000.45l-0.56,30.99c-0.56,4.23,1.83,8.03,6.9,10.99
			l104.24,60.29c10.99,6.34,30.43,5.49,43.39-1.83l99.87-57.76c5.92-3.38,9.58-7.75,10.14-12.11c0-0.14,0-0.42,0.14-0.56v-0.14
			l0.28-29.86H1167.64z"/>
	</g>
	<g id="XMLID_5226_">
		<path id="XMLID_5236_" class="st6" d="M1173.42,1012.28l104.24,60.29c11.55,6.62,31.7,5.78,45.08-1.83l99.87-57.76
			c13.38-7.75,14.79-19.44,3.24-26.06l-104.24-60.29c-11.55-6.62-31.7-5.78-45.08,1.83l-99.87,57.76
			C1163.42,993.97,1161.87,1005.66,1173.42,1012.28z"/>
		<path id="XMLID_320_" class="st7" d="M1172.43,1024.4l104.24,60.29c11.55,6.62,31.7,5.78,45.08-1.83l99.87-57.76
			c13.38-7.75,14.79-19.44,3.24-26.06l-104.24-60.29c-11.55-6.62-31.7-5.78-45.08,1.83l-99.87,57.76
			C1162.29,1006.09,1160.88,1017.64,1172.43,1024.4z"/>
		<path id="XMLID_5237_" class="st6" d="M1297.38,1078.77c-7.61,0-14.93-1.55-20.43-4.65l-104.24-60.29
			c-5.63-3.24-8.73-7.75-8.73-12.82c0-5.92,4.37-11.83,11.97-16.2l99.87-57.76c13.81-8.03,34.79-8.87,46.77-1.83l104.24,60.29
			c5.63,3.24,8.73,7.75,8.73,12.82c0,5.92-4.37,11.83-11.97,16.2l-99.87,57.76C1316.12,1076.52,1306.54,1078.77,1297.38,1078.77z
			 M1302.17,923.82c-8.59,0-17.61,2.11-24.65,6.2l-99.87,57.76c-6.48,3.66-10.14,8.59-10.14,13.24c0,3.8,2.39,7.18,6.9,9.86
			l104.24,60.29c10.99,6.34,30.43,5.49,43.39-1.83l99.87-57.76c6.48-3.66,10.14-8.59,10.14-13.24c0-3.8-2.39-7.18-6.9-9.86
			l-104.24-60.29C1315.83,925.23,1309.21,923.82,1302.17,923.82z"/>
	</g>
	<g id="XMLID_5225_">
		<path id="XMLID_5232_" class="st3" d="M1305.83,1000.45l-4.23-30.43c2.82-1.83,1.69-1.13,4.51-2.96l55.08,31.84
			c0.7,0.42,2.25,7.61,2.82,8.03l-55.22-3.94C1307.1,1002.85,1305.97,1001.86,1305.83,1000.45z"/>
		<path id="XMLID_5233_" class="st6" d="M1379.79,998.76l-75.22-4.37l-6.2-43.67l3.1,1.69c0.28,0.14,0.42,0.14,0.42,0.28
			l71.84,41.41c0.7,0.42,1.41,0.85,1.97,1.41L1379.79,998.76z M1307.66,991.01l60.01,3.52l-64.8-37.47L1307.66,991.01z"/>
	</g>
	<g id="XMLID_5224_">
		<path id="XMLID_5228_" class="st5" d="M1294.28,1010.17c0.14,1.41,1.41,2.54,2.82,2.54l69.17,4.09c0.85,3.52,0.7,3.24,1.55,6.76
			l-48.74,28.17c-5.21,2.96-13.8,2.82-19.3-0.42l-71.84-41.41c-5.49-3.24-5.92-8.17-0.7-11.13l57.9-33.39
			c0.85-0.42,1.69-0.85,2.68-1.13L1294.28,1010.17z"/>
		<path id="XMLID_5229_" class="st6" d="M1309.92,1045.39c-3.94,0-8.03-0.99-11.13-2.82l-71.84-41.41
			c-3.38-1.97-5.21-4.65-5.21-7.47c0-2.68,1.55-5.07,4.51-6.76l57.9-33.39c0.85-0.42,1.83-0.85,3.1-1.27l1.97-0.7l6.9,49.16
			l86.63,5.07l-3.8,2.82c-0.56,0.42-0.85,0.7-1.13,0.85l-57.9,33.39C1317.1,1044.68,1313.58,1045.39,1309.92,1045.39z
			 M1286.25,956.36c-0.14,0-0.28,0.14-0.42,0.28l-57.76,33.39c-1.83,0.99-2.82,2.39-2.82,3.66c0,1.55,1.27,3.1,3.52,4.51
			l71.84,41.41c4.93,2.82,12.96,3.1,17.61,0.42l54.09-31.27l-79.03-4.65L1286.25,956.36z"/>
	</g>
	<polygon id="XMLID_5244_" class="st6" points="1299.78,1076.94 1299.78,1108.64 1313.3,1106.24 1333.02,1096.95 1427.82,1040.88 
		1433.74,1033.7 1433.74,998.76 1429.94,1008.9 1409.51,1020.74 1313.58,1074.69 	"/>
	<polygon id="XMLID_5245_" class="st6" points="1288.37,1076.24 1288.37,1108.07 1280.05,1105.54 1280.05,1073.7 	"/>
	<polygon id="XMLID_5246_" class="st6" points="1171.59,1011.72 1171.59,1041.87 1167.08,1038.49 1163.7,1017.92 1199.9,1004.26 	
		"/>
</g>
<g id="XMLID_258_">
	<path id="XMLID_256_" class="st10" d="M1340.63,1150.33c2.11,1.13,2.11,3.1,0,4.23s-5.35,1.13-7.47,0s-2.11-3.1,0-4.23
		C1335.27,1149.21,1338.66,1149.21,1340.63,1150.33z"/>
	<path id="XMLID_255_" class="st10" d="M1360.07,1139.07c2.11,1.13,2.11,3.1,0,4.23c-2.11,1.13-5.35,1.13-7.47,0
		c-2.11-1.13-2.11-3.1,0-4.23C1354.71,1137.94,1357.95,1137.94,1360.07,1139.07z"/>
	<ellipse id="XMLID_254_" class="st10" cx="1375.7" cy="1130.05" rx="5.21" ry="2.96"/>
	<path id="XMLID_253_" class="st10" d="M1398.81,1116.81c2.11,1.13,2.11,3.1,0,4.23s-5.35,1.13-7.47,0s-2.11-3.1,0-4.23
		C1393.45,1115.54,1396.69,1115.54,1398.81,1116.81z"/>
	<path id="XMLID_252_" class="st10" d="M1418.25,1105.54c2.11,1.13,2.11,3.1,0,4.23c-2.11,1.13-5.35,1.13-7.47,0
		c-2.11-1.13-2.11-3.1,0-4.23C1412.89,1104.41,1416.13,1104.41,1418.25,1105.54z"/>
	<path id="XMLID_251_" class="st10" d="M1437.54,1094.41c2.11,1.13,2.11,3.1,0,4.23c-2.11,1.13-5.35,1.13-7.47,0
		c-2.11-1.13-2.11-3.1,0-4.23C1432.19,1093.14,1435.57,1093.14,1437.54,1094.41z"/>
	<path id="XMLID_250_" class="st10" d="M1456.98,1083.14c2.11,1.13,2.11,3.1,0,4.23c-2.11,1.13-5.35,1.13-7.47,0s-2.11-3.1,0-4.23
		C1451.63,1082.01,1454.87,1082.01,1456.98,1083.14z"/>
	<path id="XMLID_249_" class="st10" d="M1476.42,1072.01c2.11,1.13,2.11,3.1,0,4.23c-2.11,1.13-5.35,1.13-7.47,0
		c-2.11-1.13-2.11-3.1,0-4.23C1470.93,1070.74,1474.31,1070.74,1476.42,1072.01z"/>
	<path id="XMLID_247_" class="st10" d="M1301.89,1150.33c2.11,1.13,2.11,3.1,0,4.23c-2.11,1.13-5.35,1.13-7.47,0
		c-2.11-1.13-2.11-3.1,0-4.23C1296.54,1149.21,1299.78,1149.21,1301.89,1150.33z"/>
	<path id="XMLID_246_" class="st10" d="M1321.19,1139.07c2.11,1.13,2.11,3.1,0,4.23c-2.11,1.13-5.35,1.13-7.47,0
		c-2.11-1.13-2.11-3.1,0-4.23C1315.83,1137.94,1319.22,1137.94,1321.19,1139.07z"/>
	<path id="XMLID_245_" class="st10" d="M1340.63,1127.94c2.11,1.13,2.11,3.1,0,4.23s-5.35,1.13-7.47,0s-2.11-3.1,0-4.23
		C1335.27,1126.81,1338.66,1126.81,1340.63,1127.94z"/>
	<path id="XMLID_244_" class="st10" d="M1360.07,1116.81c2.11,1.13,2.11,3.1,0,4.23c-2.11,1.13-5.35,1.13-7.47,0
		c-2.11-1.13-2.11-3.1,0-4.23C1354.71,1115.54,1357.95,1115.54,1360.07,1116.81z"/>
	<path id="XMLID_243_" class="st10" d="M1379.37,1105.54c2.11,1.13,2.11,3.1,0,4.23c-2.11,1.13-5.35,1.13-7.47,0
		c-2.11-1.13-2.11-3.1,0-4.23S1377.39,1104.41,1379.37,1105.54z"/>
	<ellipse id="XMLID_242_" class="st10" cx="1395.14" cy="1096.52" rx="5.21" ry="2.96"/>
	<path id="XMLID_241_" class="st10" d="M1418.25,1083.14c2.11,1.13,2.11,3.1,0,4.23c-2.11,1.13-5.35,1.13-7.47,0
		c-2.11-1.13-2.11-3.1,0-4.23C1412.89,1082.01,1416.13,1082.01,1418.25,1083.14z"/>
	<path id="XMLID_240_" class="st10" d="M1437.54,1072.01c2.11,1.13,2.11,3.1,0,4.23c-2.11,1.13-5.35,1.13-7.47,0
		c-2.11-1.13-2.11-3.1,0-4.23C1432.19,1070.74,1435.57,1070.74,1437.54,1072.01z"/>
	<ellipse id="XMLID_239_" class="st10" cx="1453.32" cy="1062.86" rx="5.21" ry="2.96"/>
	<path id="XMLID_238_" class="st10" d="M1476.42,1049.61c2.11,1.13,2.11,3.1,0,4.23c-2.11,1.13-5.35,1.13-7.47,0
		c-2.11-1.13-2.11-3.1,0-4.23C1470.93,1048.35,1474.31,1048.35,1476.42,1049.61z"/>
	<path id="XMLID_237_" class="st10" d="M1282.31,1139.07c2.11,1.13,2.11,3.1,0,4.23c-2.11,1.13-5.35,1.13-7.47,0
		c-2.11-1.13-2.11-3.1,0-4.23C1276.96,1137.8,1280.2,1137.8,1282.31,1139.07z"/>
	<path id="XMLID_236_" class="st10" d="M1301.75,1127.8c2.11,1.13,2.11,3.1,0,4.23c-2.11,1.13-5.35,1.13-7.47,0
		c-2.11-1.13-2.11-3.1,0-4.23C1296.25,1126.67,1299.64,1126.67,1301.75,1127.8z"/>
	<path id="XMLID_235_" class="st10" d="M1321.05,1116.67c2.11,1.13,2.11,3.1,0,4.23c-2.11,1.13-5.35,1.13-7.47,0
		c-2.11-1.13-2.11-3.1,0-4.23C1315.69,1115.4,1319.07,1115.4,1321.05,1116.67z"/>
	<path id="XMLID_234_" class="st10" d="M1340.49,1105.4c2.11,1.13,2.11,3.1,0,4.23c-2.11,1.13-5.35,1.13-7.47,0
		c-2.11-1.13-2.11-3.1,0-4.23C1335.13,1104.27,1338.37,1104.27,1340.49,1105.4z"/>
	<path id="XMLID_233_" class="st10" d="M1359.79,1094.27c2.11,1.13,2.11,3.1,0,4.23s-5.35,1.13-7.47,0s-2.11-3.1,0-4.23
		C1354.43,1093,1357.81,1093,1359.79,1094.27z"/>
	<path id="XMLID_232_" class="st10" d="M1379.23,1083c2.11,1.13,2.11,3.1,0,4.23s-5.35,1.13-7.47,0s-2.11-3.1,0-4.23
		C1373.87,1081.87,1377.25,1081.87,1379.23,1083z"/>
	<path id="XMLID_231_" class="st10" d="M1398.66,1071.87c2.11,1.13,2.11,3.1,0,4.23s-5.35,1.13-7.47,0s-2.11-3.1,0-4.23
		C1393.31,1070.6,1396.55,1070.6,1398.66,1071.87z"/>
	<path id="XMLID_230_" class="st10" d="M1417.96,1060.6c2.11,1.13,2.11,3.1,0,4.23c-2.11,1.13-5.35,1.13-7.47,0
		c-2.11-1.13-2.11-3.1,0-4.23S1415.99,1059.48,1417.96,1060.6z"/>
	<path id="XMLID_229_" class="st10" d="M1437.4,1049.47c2.11,1.13,2.11,3.1,0,4.23c-2.11,1.13-5.35,1.13-7.47,0
		c-2.11-1.13-2.11-3.1,0-4.23C1432.05,1048.21,1435.43,1048.21,1437.4,1049.47z"/>
	<path id="XMLID_228_" class="st10" d="M1456.84,1038.2c2.11,1.13,2.11,3.1,0,4.23c-2.11,1.13-5.35,1.13-7.47,0
		c-2.11-1.13-2.11-3.1,0-4.23S1454.73,1037.08,1456.84,1038.2z"/>
	<path id="XMLID_227_" class="st10" d="M1262.87,1127.8c2.11,1.13,2.11,3.1,0,4.23c-2.11,1.13-5.35,1.13-7.47,0
		c-2.11-1.13-2.11-3.1,0-4.23S1260.9,1126.67,1262.87,1127.8z"/>
	<path id="XMLID_226_" class="st10" d="M1282.31,1116.67c2.11,1.13,2.11,3.1,0,4.23c-2.11,1.13-5.35,1.13-7.47,0
		c-2.11-1.13-2.11-3.1,0-4.23C1276.96,1115.4,1280.2,1115.4,1282.31,1116.67z"/>
	<path id="XMLID_225_" class="st10" d="M1243.57,1116.67c2.11,1.13,2.11,3.1,0,4.23c-2.11,1.13-5.35,1.13-7.47,0
		c-2.11-1.13-2.11-3.1,0-4.23C1238.22,1115.4,1241.46,1115.4,1243.57,1116.67z"/>
	<path id="XMLID_224_" class="st10" d="M1262.87,1105.4c2.11,1.13,2.11,3.1,0,4.23c-2.11,1.13-5.35,1.13-7.47,0
		c-2.11-1.13-2.11-3.1,0-4.23S1260.9,1104.27,1262.87,1105.4z"/>
	<ellipse id="XMLID_223_" class="st10" cx="1220.47" cy="1107.51" rx="5.21" ry="2.96"/>
	<path id="XMLID_222_" class="st10" d="M1243.57,1094.27c2.11,1.13,2.11,3.1,0,4.23s-5.35,1.13-7.47,0s-2.11-3.1,0-4.23
		C1238.22,1093,1241.46,1093,1243.57,1094.27z"/>
	<path id="XMLID_221_" class="st10" d="M1204.69,1094.27c2.11,1.13,2.11,3.1,0,4.23s-5.35,1.13-7.47,0s-2.11-3.1,0-4.23
		C1199.34,1093,1202.72,1093,1204.69,1094.27z"/>
	<path id="XMLID_220_" class="st10" d="M1224.13,1083c2.11,1.13,2.11,3.1,0,4.23c-2.11,1.13-5.35,1.13-7.47,0
		c-2.11-1.13-2.11-3.1,0-4.23C1218.78,1081.87,1222.16,1081.87,1224.13,1083z"/>
	<path id="XMLID_219_" class="st10" d="M1185.39,1083c2.11,1.13,2.11,3.1,0,4.23s-5.35,1.13-7.47,0s-2.11-3.1,0-4.23
		C1180.04,1081.87,1183.28,1081.87,1185.39,1083z"/>
	<path id="XMLID_178_" class="st10" d="M1204.69,1071.87c2.11,1.13,2.11,3.1,0,4.23s-5.35,1.13-7.47,0s-2.11-3.1,0-4.23
		C1199.34,1070.6,1202.72,1070.6,1204.69,1071.87z"/>
	<path id="XMLID_141_" class="st10" d="M1165.95,1071.87c2.11,1.13,2.11,3.1,0,4.23c-2.11,1.13-5.35,1.13-7.47,0
		c-2.11-1.13-2.11-3.1,0-4.23C1160.6,1070.6,1163.98,1070.6,1165.95,1071.87z"/>
	<path id="XMLID_140_" class="st10" d="M1185.39,1060.6c2.11,1.13,2.11,3.1,0,4.23c-2.11,1.13-5.35,1.13-7.47,0
		c-2.11-1.13-2.11-3.1,0-4.23S1183.28,1059.48,1185.39,1060.6z"/>
	<path id="XMLID_129_" class="st10" d="M1165.95,1049.47c2.11,1.13,2.11,3.1,0,4.23c-2.11,1.13-5.35,1.13-7.47,0
		c-2.11-1.13-2.11-3.1,0-4.23C1160.6,1048.35,1163.98,1048.35,1165.95,1049.47z"/>
</g>
</svg>
