<?xml version="1.0" encoding="utf-8"?>
<!-- Generator: Adobe Illustrator 24.0.3, SVG Export Plug-In . SVG Version: 6.00 Build 0)  -->
<svg version="1.1" id="Layer_1" xmlns="http://www.w3.org/2000/svg" xmlns:xlink="http://www.w3.org/1999/xlink" x="0px" y="0px"
	 viewBox="0 0 1920 356.3" style="enable-background:new 0 0 1920 356.3;" xml:space="preserve">
<style type="text/css">
	.st0{clip-path:url(#SVGID_2_);}
	.st1{clip-path:url(#SVGID_4_);fill:none;stroke:#CE0E2D;stroke-miterlimit:10;}
	.st2{clip-path:url(#SVGID_4_);}
	.st3{fill:#CE0E2D;stroke:#CE0E2D;stroke-miterlimit:10;}
	.st4{fill:none;stroke:#CE0E2D;stroke-miterlimit:10;}
	.st5{fill:none;stroke:#A7A9AC;stroke-miterlimit:10;}
	.st6{fill:none;stroke:#231F20;stroke-miterlimit:10;}
	.st7{fill:#CE0E2D;}
	.st8{fill:#FFFFFF;stroke:#CE0E2D;stroke-miterlimit:10;}
	.st9{fill:#BCBEC0;}
	.st10{fill:#FFFFFF;}
	.st11{fill:#CF2031;}
	.st12{fill:none;stroke:#CF2031;stroke-miterlimit:10;}
	.st13{fill:none;stroke:#BCBEC0;stroke-miterlimit:10;}
	.st14{fill:#FFFFFF;stroke:#3E3E3F;stroke-miterlimit:10;}
	.st15{fill:none;stroke:#3E3E3F;stroke-miterlimit:10;}
	.st16{fill:#F6A0AB;}
	.st17{fill:none;stroke:#FFFFFF;stroke-miterlimit:10;}
</style>
<g>
	<defs>
		<polygon id="SVGID_1_" points="1933.4,363.1 -6,361.2 0,0 1920,0 		"/>
	</defs>
	<clipPath id="SVGID_2_">
		<use xlink:href="#SVGID_1_"  style="overflow:visible;"/>
	</clipPath>
	<g class="st0">
		<g>
			<defs>
				<polygon id="SVGID_3_" points="1287.4,-754.2 2192,328.9 740.8,1545.2 -256.6,436.4 				"/>
			</defs>
			<clipPath id="SVGID_4_">
				<use xlink:href="#SVGID_3_"  style="overflow:visible;"/>
			</clipPath>
			<path class="st1" d="M2259.9,498.8c0,0-42.9-62.7-144.8-131.4c-50.6-34.2-115.8-69.8-197.6-100.1
				c-152.8-56.6-321.5-53.4-321.5-53.4l-21.1-0.3l0,3.7l-9.5-0.1l0.1-10l-9.5-0.1l0.2-12.7l-35.4-0.4l-0.1,7.9l-6.3-0.1l-0.1,6.9
				l-6.3-0.1l0.4-33.8l-14.8-0.2l-0.1,5.3l-23.3-0.3l-0.1,7.4l-7.4-0.1l0.1-11.1l-35.9-0.4l-0.2,18l-18-0.2l0.2-26.1l-49.6-1
				l-0.4,33.3l-8.5-0.1l0.4-35.9l-6.3-0.1l0.1-6.3l-8.5-0.1l-0.1,7.4l-4.2-0.1l-0.2,20.1l-3.7,0l-0.3,25.9l-5.3-0.1l0.2-14.3
				l-6.3-0.1l1.2-99.9l-5.3-0.1l0.1-11.1l-46.5-0.6l-0.1,11.6l-3.7,0l0.5-40.2l-18.5-0.2l0.1-6.3l-12.7-0.2l-0.1,7.9l-5.8-0.1
				l-1,80.4l-11.1-0.1l0.4-31.7l-4.2-0.1l0.3-22.2l-2.6-2.7l0.5-40.2l-6.3-0.1l0.2-19l-21.1-0.3l-0.2,16.4l-5.3-0.1l-0.1,7.4
				l-4.8-0.1l-0.5,43.3l-6.9-0.1l0.2-19.6l-51.8-0.6l-0.3,25.4l-13.2-0.2l0.1-4.8l-9-0.1l-0.1,7.4l-17.4-0.2l0.2-12.2l-14.3-0.2
				l0.1-9l-10-0.1l-0.1,6.9l-29.6-0.4l-1,81.4l-15.3-0.2l-0.1,8.5l-7.9-0.1l-0.1,7.7l-20.6-0.3l-0.2,18.2l-4.8-0.1L968,123
				l-43.3-0.5l-0.2,13.2l-25.4-0.3l-0.6,46l-16.4-0.2l0.1-5.6l-11.6-0.1l0.1-8.2l-31.7-0.4l-0.1,8.2l-16.4-0.2l-0.1,6.6l-6.3-0.1
				l0.8-66.1l-56-0.7l-0.9,71.9l-13.7-0.2l0.4-28.5l-23.3-0.3l-0.4,34.9l-503.2-21.7"/>
			<g class="st2">
				<path class="st3" d="M-125.4,578.3c-23.3-27.8-37.3-63.6-37.3-102.7c-0.1-88.5,53.6-159.3,142.2-159.4l1900.8-2.4
					c228.9-0.3,425.8,162.8,468.1,387.8c44,234.1-93.6,466.4-320.1,540.2c-0.3,0.1-0.6,0.2-1,0.3l-691.8,220.6
					c-78,25.7-126.3,103.3-114.9,184.7c11,78.4,78.8,134.2,165,136.2l825.4,0.8c88.5,0.1,160.3,71.9,160.2,160.5
					c-0.1,88.5-71.9,160.2-160.5,160.2l-826.9-0.8c-0.9,0-1.7,0-2.6,0c-244.3-4.1-445.4-177.6-478.2-412.4
					c-32.9-235.5,149.6-395.1,333.3-534c0.3-0.2,0.7-0.2,1.1-0.4l691.9-220.6c73.6-24.2,118.3-99.8,104-176
					c-13.8-73.4-78-126.6-152.7-126.4L-2.3,635.8C-51.8,635.8-96,613.5-125.4,578.3z"/>
			</g>
			<path class="st1" d="M852.8,1566.5c14.6-230,208.5-446,437.4-473.9"/>
		</g>
		<line class="st4" x1="893.3" y1="678.7" x2="1565.4" y2="679.6"/>
		<line class="st5" x1="99.7" y1="271.6" x2="460.6" y2="272.1"/>
		<g>
			<path class="st4" d="M693.8,191.2"/>
			<path class="st4" d="M672.9-79.5"/>
		</g>
		<g>
			<line class="st5" x1="1469.8" y1="267.9" x2="1535" y2="268.2"/>
		</g>
		<g>
			<path class="st4" d="M1635.9,746"/>
			<line class="st6" x1="963.4" y1="280.3" x2="1028.6" y2="280.7"/>
		</g>
		<g>
			<path class="st5" d="M1420.8,692.4"/>
			<line class="st5" x1="748.4" y1="226.7" x2="813.6" y2="227"/>
		</g>
		<g>
			<path class="st5" d="M1425.8,710.1"/>
			<line class="st5" x1="753.3" y1="244.4" x2="782.8" y2="244.5"/>
		</g>
		<g>
			<path class="st5" d="M1373.2,721"/>
			<line class="st5" x1="700.7" y1="255.3" x2="765.9" y2="255.6"/>
		</g>
		<g>
			<path class="st6" d="M1833.5,291.5c-143-5.1-222.6-8-331.8-6.8l-93,0.2"/>
		</g>
		<g>
			<circle class="st4" cx="1399.1" cy="97.5" r="41.4"/>
			<polyline class="st4" points="1413.6,71.7 1399.1,97.5 1418.1,97.5 			"/>
		</g>
		<g>
			<path class="st7" d="M882.4,233.1c-8.7-0.1-15.7,6.9-15.8,15.6c-0.1,8.7,6.9,15.7,15.6,15.8c8.7,0.1,15.7-6.9,15.8-15.6
				C898,240.2,891,233.2,882.4,233.1z M877.2,257.3c0-5.6,0.1-11.1,0.1-16.7l11.6,8.4L877.2,257.3z"/>
		</g>
		<g>
			<circle class="st4" cx="616.7" cy="145.3" r="12.6"/>
			<circle class="st4" cx="613.2" cy="230.3" r="12.6"/>
			<circle class="st8" cx="635.2" cy="188.6" r="12.6"/>
			<line class="st4" x1="622.6" y1="188" x2="-1.7" y2="161.8"/>
			<polyline class="st4" points="604.5,220.9 588.4,203.4 563.2,202.3 			"/>
			<polyline class="st4" points="607.3,153.8 589.8,169.9 564.7,168.8 			"/>
			<circle class="st4" cx="575.1" cy="139.5" r="12.6"/>
			<polyline class="st4" points="565.5,147.8 543.7,167.9 0,143.9 			"/>
			<circle class="st4" cx="571.4" cy="232.6" r="12.6"/>
			<polyline class="st4" points="562.4,223.3 542.3,201.5 0,180.1 			"/>
			<polyline class="st4" points="549.4,231.1 532.7,230.4 520.6,217.3 0,195.8 			"/>
			<polyline class="st4" points="553.3,138.9 536.5,138.2 523.4,150.3 -12,126.2 			"/>
		</g>
		<g>
			<g>
				<path class="st9" d="M1432,265.8l-0.1-12.3c0-0.8-0.7-1.5-1.5-1.4l-8.8,0.1c-0.8,0-1.5,0.7-1.4,1.5l0.1,12.3l2.2,0l-0.1-11.6
					l7.3,0l0.1,11.6L1432,265.8z"/>
				<path class="st9" d="M1446.1,265.7l-0.1-18.1c0-0.8-0.7-1.5-1.5-1.4l-8.8,0.1c-0.8,0-1.5,0.7-1.4,1.5l0.1,18.1l2.1,0l-0.1-17.6
					l7.3,0l0.1,17.6L1446.1,265.7z"/>
				<path class="st9" d="M1450.6,238.7l6.9,0l0.2,27l2.4,0l-0.2-27.7c0-0.8-0.7-1.5-1.5-1.4l-8.8,0.1c-0.8,0-1.5,0.7-1.4,1.5
					l0.2,27.7l2.3,0L1450.6,238.7z"/>
				
					<rect x="1415.3" y="267.7" transform="matrix(1 -6.013308e-03 6.013308e-03 1 -1.5896 8.6655)" class="st9" width="49.9" height="1.9"/>
				<path class="st9" d="M1416.1,251.8c0.3,0,0.7-0.3,1-0.5l19.1-15.5l4.2,5.3c0.3,0.4,0.7,0.6,1.2,0.6c0.1,0,0.2,0,0.3,0
					c0.6-0.1,1-0.5,1.2-1l4.4-13.6c0.2-0.5,0.1-1-0.3-1.4c-0.3-0.4-0.8-0.6-1.4-0.6l-14.2,1.5c-0.6,0.1-1,0.4-1.3,0.9
					c-0.2,0.5-0.1,1.1,0.2,1.5l4.4,5.2l-19.1,15.5c-0.7,0.5-1.2,1.1-0.7,1.8C1415.5,251.9,1415.7,251.8,1416.1,251.8z M1445.1,227.1
					l-3.8,11.6l-8.3-10.3L1445.1,227.1z"/>
			</g>
		</g>
		<g>
			<path class="st9" d="M741.9,80.3l-4.9,0l0-5.2c0-0.8-0.6-1.4-1.4-1.4l-4.9,0l0-5.2c0-0.8-0.6-1.4-1.4-1.4l-56.2,0.2
				c-0.8,0-1.4,0.6-1.4,1.4l0.1,46.3c0,0.8,0.6,1.4,1.4,1.4l4.9,0l0,5.2c0,0.8,0.6,1.4,1.4,1.4l4.9,0l0,5.2c0,0.8,0.6,1.4,1.4,1.4
				l56.2-0.2c0.8,0,1.4-0.6,1.4-1.4l-0.1-46.3C743.3,80.9,742.7,80.3,741.9,80.3z M740.6,88.4l-53.5,0.2l0-5.4l53.5-0.2L740.6,88.4z
				 M674.6,113.7l-0.1-43.6l53.5-0.2l0,3.9l-48.5,0.1c-0.8,0-1.4,0.6-1.4,1.4l0.1,38.4L674.6,113.7z M680.9,120.3l-0.1-43.6
				l53.5-0.2l0,3.9l-48.5,0.1c-0.8,0-1.4,0.6-1.4,1.4l0.1,38.4L680.9,120.3z M687.3,126.8l-0.1-35.5l53.5-0.2l0.1,35.5L687.3,126.8z
				"/>
			<path class="st9" d="M692.5,87l5.8,0c0.8,0,1.4-0.6,1.4-1.4c0-0.8-0.6-1.4-1.4-1.4l-5.8,0c-0.8,0-1.4,0.6-1.4,1.4
				C691.1,86.4,691.7,87,692.5,87z"/>
			<path class="st9" d="M731.7,86.9c0.4,0,0.7-0.1,1-0.4c0.3-0.3,0.4-0.6,0.4-1c0-0.4-0.1-0.7-0.4-1c-0.3-0.3-0.6-0.4-1-0.4
				c-0.4,0-0.7,0.1-1,0.4c-0.3,0.3-0.4,0.6-0.4,1c0,0.4,0.1,0.7,0.4,1C731,86.8,731.4,86.9,731.7,86.9z"/>
			<path class="st9" d="M736.6,86.9c0.4,0,0.7-0.1,1-0.4c0.3-0.3,0.4-0.6,0.4-1c0-0.4-0.1-0.7-0.4-1c-0.3-0.3-0.6-0.4-1-0.4
				c-0.4,0-0.7,0.1-1,0.4c-0.3,0.3-0.4,0.6-0.4,1c0,0.4,0.1,0.7,0.4,1C735.9,86.8,736.2,86.9,736.6,86.9z"/>
		</g>
		<g>
			<path class="st9" d="M1000,54.1c1.3-2,2-4,2.2-6.3c0.7-7.4-4.8-13.9-12.2-14.6c-7.4-0.7-13.9,4.8-14.6,12.2
				c-0.2,2.2,0.2,4.3,1.1,6.6c0,0,0,0,0,0c0,0,0.1,0.2,0.2,0.5c0,0.1,0.1,0.2,0.1,0.3c0,0,0,0.1,0.1,0.1c0.2,0.4,0.5,0.9,0.9,1.5
				c0.2,0.3,0.5,0.7,0.7,1.1c0.8,1.3,1.9,2.8,2.1,3.7c0.6,2.1,0.6,3.6,0.6,3.6c0,0.6,0.5,1.2,1.1,1.2l4.9,0.4l4.9,0.4
				c0.6,0.1,1.2-0.4,1.3-1c0,0,0.3-1.5,1.2-3.4c0.4-0.8,1.7-2.2,2.8-3.3c0.3-0.3,0.6-0.6,0.9-0.9c0.5-0.5,0.8-1,1.1-1.3
				c0,0,0.1-0.1,0.1-0.1c0.1-0.1,0.1-0.2,0.2-0.2C999.9,54.3,1000,54.1,1000,54.1C1000,54.1,1000,54.1,1000,54.1z M995.6,55.4
				c-1.3,1.3-2.6,2.7-3.2,3.9c-0.6,1.2-0.9,2.2-1.1,3l-3.8-0.3l-3.8-0.3c-0.1-0.8-0.2-1.8-0.6-3.1c-0.4-1.3-1.4-2.9-2.5-4.4
				c-0.2-0.4-0.5-0.7-0.7-1c-0.4-0.7-0.7-1.2-0.9-1.6c-0.9-2-1.3-3.9-1.1-5.8c0.5-6,5.9-10.5,11.9-10c6,0.5,10.5,5.9,10,11.9
				c-0.2,2-0.9,3.7-2.1,5.6c-0.2,0.3-0.6,0.8-1.2,1.4C996.2,54.8,995.9,55.1,995.6,55.4z"/>
			<path class="st9" d="M992.7,67.5c0.1-0.7-0.4-1.3-1.1-1.3l-8.9-0.8c-0.7-0.1-1.3,0.4-1.3,1.1l0,0.5c-0.1,0.4-0.3,2.4,1,4
				c0.9,1.2,2.3,1.9,4.2,2c1.9,0.2,3.4-0.3,4.5-1.3c1.5-1.4,1.7-3.3,1.7-3.8L992.7,67.5z M989.3,70c-0.6,0.5-1.5,0.7-2.6,0.6
				c-1.1-0.1-2-0.5-2.4-1.1c-0.4-0.5-0.5-1.1-0.5-1.6l6.4,0.6C990,68.9,989.8,69.5,989.3,70z"/>
			<path class="st9" d="M990.3,29.4c0.7,0.1,1.3-0.4,1.3-1.1l0.4-5c0.1-0.7-0.4-1.3-1.1-1.3c-0.7-0.1-1.3,0.4-1.3,1.1l-0.4,5
				C989.2,28.8,989.7,29.4,990.3,29.4z"/>
			<path class="st9" d="M975.8,33.3c0.2,0.3,0.5,0.4,0.8,0.4c0.3,0,0.6-0.1,0.9-0.3c0.5-0.4,0.6-1.2,0.2-1.7l-3.2-3.8
				c-0.4-0.5-1.2-0.6-1.7-0.2c-0.5,0.4-0.6,1.2-0.2,1.7L975.8,33.3z"/>
			<path class="st9" d="M971.3,45.4c0.1-0.7-0.4-1.3-1.1-1.3l-5-0.4c-0.7-0.1-1.3,0.4-1.3,1.1c-0.1,0.7,0.4,1.3,1.1,1.3l5,0.4
				C970.6,46.5,971.2,46,971.3,45.4z"/>
			<path class="st9" d="M973.6,58l-3.8,3.2c-0.5,0.4-0.6,1.2-0.2,1.7c0.2,0.3,0.5,0.4,0.8,0.4c0.3,0,0.6-0.1,0.9-0.3l3.8-3.2
				c0.5-0.4,0.6-1.2,0.2-1.7C974.9,57.7,974.1,57.6,973.6,58z"/>
			<path class="st9" d="M1001.8,60.5c-0.4-0.5-1.2-0.6-1.7-0.2c-0.5,0.4-0.6,1.2-0.2,1.7l3.2,3.8c0.2,0.3,0.5,0.4,0.8,0.4
				c0.3,0,0.6-0.1,0.9-0.3c0.5-0.4,0.6-1.2,0.2-1.7L1001.8,60.5z"/>
			<path class="st9" d="M1012.6,47.8l-5-0.4c-0.7-0.1-1.3,0.4-1.3,1.1c-0.1,0.7,0.4,1.3,1.1,1.3l5,0.4c0.7,0.1,1.3-0.4,1.3-1.1
				C1013.7,48.5,1013.2,47.9,1012.6,47.8z"/>
			<path class="st9" d="M1003.1,36.1c0.3,0,0.6-0.1,0.9-0.3l3.8-3.2c0.5-0.4,0.6-1.2,0.2-1.7c-0.4-0.5-1.2-0.6-1.7-0.2l-3.8,3.2
				c-0.5,0.4-0.6,1.2-0.2,1.7C1002.5,35.9,1002.8,36.1,1003.1,36.1z"/>
			<path class="st9" d="M988,55.9c-0.4,0-0.7,0.1-1.1,0.3c-0.3,0.3-0.5,0.6-0.5,1c0,0.4,0.1,0.7,0.3,1c0.3,0.3,0.6,0.5,1,0.5
				c0.4,0,0.7-0.1,1-0.3c0.3-0.3,0.5-0.6,0.5-1c0-0.4-0.1-0.8-0.3-1.1C988.7,56.1,988.4,56,988,55.9z"/>
			<path class="st9" d="M989.5,39.5c-1.1-0.1-2.1,0.2-2.9,1c-0.9,1-1.4,2.5-1.2,4.3c0,0,0,0.1,0,0.1l1.7,8.9c0.1,0.5,0.5,0.8,1,0.9
				c0.5,0,0.9-0.2,1.1-0.7l3.3-8.4c0,0,0-0.1,0-0.1c0.5-1.7,0.3-3.4-0.4-4.5C991.5,40.2,990.6,39.6,989.5,39.5z M990.5,44.9
				l-1.9,4.9l-1-5.2c-0.1-1.1,0.1-2.1,0.6-2.6c0.3-0.3,0.7-0.4,1.1-0.4c0.5,0,0.8,0.2,1.1,0.5C990.7,42.8,990.8,43.8,990.5,44.9z"/>
		</g>
		<g>
			<path class="st9" d="M993.9,229.6l-7.7-0.1l0-1.2c0-0.6-0.5-1.2-1.2-1.2c-0.6,0-1.2,0.5-1.2,1.2l0,1.2l-6.8-0.1l0-1.2
				c0-0.6-0.5-1.2-1.2-1.2c-0.6,0-1.2,0.5-1.2,1.2l0,1.2l-6.5,0l0-1.2c0-0.6-0.5-1.2-1.2-1.2c-0.6,0-1.2,0.5-1.2,1.2l0,1.2l-7.9-0.1
				c-0.6,0-1.2,0.5-1.2,1.2l-0.2,26.4c0,0.6,0.5,1.2,1.2,1.2l7.2,0.1c1.1,4.9,5.5,8.6,10.8,8.7c5.3,0,9.7-3.6,10.9-8.5l7.2,0.1
				c0.6,0,1.2-0.5,1.2-1.2l0.2-26.4C995.1,230.2,994.6,229.6,993.9,229.6L993.9,229.6z M965.9,231.8l0,1.1c0,0.6,0.5,1.2,1.2,1.2
				c0.6,0,1.2-0.5,1.2-1.2l0-1.1l6.5,0l0,1.1c0,0.6,0.5,1.2,1.2,1.2c0.6,0,1.2-0.5,1.2-1.2l0-1.1l6.8,0.1l0,1.1
				c0,0.6,0.5,1.2,1.2,1.2c0.6,0,1.2-0.5,1.2-1.2l0-1.1l6.5,0l0,4.8l-33.7-0.3l0-4.8L965.9,231.8z M975.7,264.5
				c-4.8,0-8.7-4-8.7-8.8c0-4.8,4-8.7,8.8-8.7c4.8,0,8.7,4,8.7,8.8C984.5,260.6,980.5,264.5,975.7,264.5L975.7,264.5z M986.8,256
				c0-0.1,0-0.1,0-0.2c0-6.1-4.9-11.2-11-11.2c-6.1,0-11.2,4.9-11.2,11c0,0.1,0,0.1,0,0.2l-5.7,0l0.1-17l33.7,0.3l-0.1,17L986.8,256
				z M986.8,256"/>
			<path class="st9" d="M976.9,256l0-5.7c0-0.6-0.5-1.2-1.2-1.2c-0.6,0-1.2,0.5-1.2,1.2l0,6.1c0,0.3,0.1,0.6,0.3,0.8l2.7,2.7
				c0.2,0.2,0.5,0.3,0.8,0.3c0.3,0,0.6-0.1,0.8-0.3c0.5-0.5,0.5-1.2,0-1.7L976.9,256z M976.9,256"/>
		</g>
		<g>
			<path class="st9" d="M1262.1,180.5l3.6,0c0.5,0,0.8-0.4,0.8-0.8c0-0.5-0.4-0.8-0.8-0.8l-3.6,0c-0.5,0-0.8,0.4-0.8,0.8
				C1261.2,180.2,1261.6,180.5,1262.1,180.5z"/>
			<path class="st9" d="M1286,180.7c0.2,0,0.4-0.1,0.6-0.2c0.2-0.2,0.2-0.4,0.2-0.6c0-0.2-0.1-0.4-0.2-0.6c-0.2-0.2-0.4-0.2-0.6-0.2
				c-0.2,0-0.4,0.1-0.6,0.2c-0.2,0.2-0.2,0.4-0.2,0.6c0,0.2,0.1,0.4,0.2,0.6C1285.6,180.6,1285.8,180.7,1286,180.7z"/>
			<path class="st9" d="M1289,180.7c0.2,0,0.4-0.1,0.6-0.2c0.2-0.2,0.2-0.4,0.2-0.6c0-0.2-0.1-0.4-0.2-0.6c-0.2-0.2-0.4-0.2-0.6-0.2
				c-0.2,0-0.4,0.1-0.6,0.2c-0.2,0.2-0.2,0.4-0.2,0.6c0,0.2,0.1,0.4,0.2,0.6C1288.6,180.6,1288.8,180.7,1289,180.7z"/>
			<path class="st9" d="M1295,207.6c0.4-0.6,0.6-1.2,0.5-1.9c0-0.6-0.2-1.2-0.5-1.6c0.3-1.2,0-2.3-0.9-3.2c-0.3-0.3-0.7-0.5-1.1-0.7
				l0.1-22.8c0-0.5-0.4-0.8-0.8-0.8l-34.3-0.2c-0.5,0-0.8,0.4-0.8,0.8l-0.2,28.3c0,0.5,0.4,0.8,0.8,0.8l15.8,0.1l0,5.5
				c0,1.5,1.2,2.6,2.6,2.7l2.7,0c0.4,0,0.9-0.1,1.2-0.3l0.7,0.1c0.2,0,2.6,0.3,5.3,0.4c0.2,0,0.4,0,0.6,0c0.5,0,1,0.1,1.5,0.1
				c0.8,0,1.6-0.1,2.2-0.2c1.6-0.3,2.7-1,3.3-2.1c0.4-0.6,0.4-1.2,0.4-1.7c0.9-0.9,1-1.9,1-2.6C1295.1,208.1,1295,207.9,1295,207.6z
				 M1291.5,178.4l0,3.3l-32.7-0.2l0-3.3L1291.5,178.4z M1258.8,183.1l32.7,0.2l-0.1,16.6c-0.2,0-0.5,0-0.7,0c-0.2,0-0.4,0-0.6,0
				c-0.7,0-1.4,0.1-1.8,0.2c0.1-0.3,0.2-0.7,0.4-1.2c0.7-2.1,0.6-3.8-0.2-5c-0.9-1.3-2.4-1.4-2.9-1.4c-0.6,0-1.1,0.2-1.5,0.7
				c-0.6,0.7-0.7,1.8-0.6,2.5c-0.9,2.3-2.3,5.1-3.2,5.8c-0.1,0.1-0.1,0.1-0.2,0.1c0,0,0,0,0,0c-0.2,0.3-0.5,0.5-0.7,0.8
				c-0.2,0-0.3,0-0.5,0l-2.7,0c-1.4,0-2.6,1.1-2.7,2.5l-15-0.1L1258.8,183.1z M1276.2,213c-0.5,0-1-0.4-1-1l0-7.1c0-0.5,0.4-1,1-1
				l2.7,0c0,0,0,0,0,0l-0.1,9c0,0,0,0,0,0L1276.2,213z M1293.4,207c-0.2,0.2-0.2,0.5-0.1,0.8c0,0.1,0.1,0.4,0.1,0.6
				c0,0.6-0.2,1.1-0.7,1.6c-0.2,0.2-0.3,0.5-0.3,0.7c0,0.3,0,0.7-0.2,1.1c-0.3,0.6-1.1,1-2.2,1.3c-0.5,0.1-1.1,0.2-1.8,0.2
				c-0.4,0-0.9,0-1.4-0.1c0,0,0,0-0.1,0c0,0,0,0,0,0c-2.8,0-5.6-0.3-5.7-0.3c0,0,0,0,0,0l-0.5-0.1l0.1-9.2c0.2-0.3,0.4-0.6,0.6-0.9
				c1.8-1.4,3.6-6.2,3.8-6.7c0-0.1,0.1-0.3,0-0.4c-0.1-0.6,0-1.2,0.2-1.4c0.1-0.1,0.1-0.1,0.2-0.1c0.2,0,1,0.1,1.5,0.7
				c0.5,0.7,0.5,1.9,0,3.5c-0.4,1.3-0.6,2.2-0.6,2.8c0,0.2,0.1,0.5,0.3,0.6c0.2,0.1,0.4,0.2,0.7,0.2c0.2-0.1,0.4-0.1,0.6-0.1
				c0,0,0,0,0.1,0c0,0,0.9-0.2,2-0.2c1.4-0.1,2.4,0.2,2.9,0.6c0.7,0.6,0.5,1.4,0.3,1.8c-0.1,0.3-0.1,0.6,0.1,0.8
				c0.2,0.2,0.4,0.6,0.4,1C1293.9,206.2,1293.7,206.6,1293.4,207z"/>
			<path class="st9" d="M1285.7,191.9c0.5,0,0.8-0.4,0.8-0.8l0-3.1c0-0.5-0.4-0.8-0.8-0.8c-0.5,0-0.8,0.4-0.8,0.8l0,3.1
				C1284.9,191.5,1285.2,191.9,1285.7,191.9z"/>
			<path class="st9" d="M1281.8,191.5c0.1,0.4,0.4,0.6,0.8,0.6c0.1,0,0.1,0,0.2,0c0.4-0.1,0.7-0.6,0.6-1l-0.8-3
				c-0.1-0.4-0.6-0.7-1-0.6c-0.4,0.1-0.7,0.6-0.6,1L1281.8,191.5z"/>
			<path class="st9" d="M1288.4,192.2c0.1,0,0.1,0,0.2,0c0.4,0,0.7-0.2,0.8-0.6l0.8-3c0.1-0.4-0.1-0.9-0.6-1c-0.4-0.1-0.9,0.1-1,0.6
				l-0.8,3C1287.7,191.6,1288,192,1288.4,192.2z"/>
		</g>
		<g>
			<path class="st9" d="M690.3,280.4l0.1-14.9c0-1.6-1.3-3-3-3l-9.7,0l0-5.9c0-0.7-0.5-1.2-1.2-1.2l-7.4,0l0-3l8.5,0
				c3.6,0,6.6-2.9,6.6-6.5c0-3.5-2.8-6.4-6.3-6.6c-0.6-4-4-7.2-8.2-7.2c-2.8,0-5.4,1.4-6.9,3.7c-0.4-0.1-0.7-0.1-1.1-0.1
				c-2.2,0-4.1,1.5-4.6,3.6c-0.2,0-0.5,0-0.7,0c-3.6,0-6.6,2.9-6.6,6.5c0,3.6,2.9,6.6,6.5,6.6l4.1,0l0,7.5l-2,0
				c-0.1-1.5-1.4-2.7-2.9-2.7l-12.5,0c-1.6,0-3,1.3-3,3l0,1.5l0,2.4l-0.1,15.5l0,2.4l0,1.5c0,1.6,1.3,3,3,3l12.5,0c1.6,0,3-1.3,3-3
				l0-1.5l0-2.4l0.1-15.5l0-2.4l2,0c0.7,0,1.2-0.5,1.2-1.2l0-8l6.2,0l0,3.4c0,0.7,0.5,1.2,1.2,1.2l7.4,0l0,5.5l-10.3,0
				c-1.6,0-3,1.3-3,3l-0.1,14.9l-3.6,0l0,1.2c0,2.6,2.1,4.8,4.7,4.8l25,0.1c2.6,0,4.8-2.1,4.8-4.7l0-1.2L690.3,280.4z M641.5,259.7
				c0-0.4,0.3-0.7,0.7-0.7l13.7,0c0.4,0,0.7,0.3,0.7,0.7l0,1.6l-15-0.1L641.5,259.7z M656.4,283.5c0,0.4-0.3,0.7-0.7,0.7l-13.7,0
				c-0.4,0-0.7-0.3-0.7-0.7l0-1.6l15,0.1L656.4,283.5z M656.4,280.1l-15-0.1l0.1-17l15,0.1L656.4,280.1z M651.2,245.9
				c0-2.4,2-4.4,4.4-4.4c0.5,0,1,0.1,1.5,0.3l1.8,0.7l-0.2-2c0-0.1,0-0.1,0-0.2c0,0,0,0,0-0.1c0-1.4,1.1-2.5,2.5-2.5
				c0.4,0,0.8,0.1,1.1,0.3l1.1,0.6l0.6-1.1c1.1-2.2,3.2-3.5,5.6-3.5c3.5,0,6.3,2.8,6.3,6.3c0,0,0,0.1,0,0.1l-0.1,1.5l1.5-0.3
				c0.3,0,0.5-0.1,0.7-0.1c2.4,0,4.4,2,4.4,4.4c0,2.4-2,4.4-4.4,4.4l-22.6-0.1C653.2,250.3,651.2,248.3,651.2,245.9z M664.7,264.6
				c0-0.3,0.3-0.6,0.6-0.6l22.9,0.1c0.3,0,0.6,0.3,0.6,0.6l-0.1,15.7l-24.1-0.1L664.7,264.6z M689.1,284.7l-25-0.1
				c-2.6,0-3.2-1.8-3.3-2.9l0.9,0l29.7,0.1l0.9,0C692.3,282.7,692,284.7,689.1,284.7z"/>
			<path class="st9" d="M654.6,265.1l-11.3,0l0,5.9l11.3,0L654.6,265.1z M652.3,268.6l-6.6,0l0-1.2l6.6,0L652.3,268.6z"/>
			<path class="st9" d="M666.5,279.1l11.3,0l0-13.1l-11.3,0L666.5,279.1z M668.9,268.4l6.6,0l0,8.4l-6.6,0L668.9,268.4z"/>
			
				<rect x="644.1" y="271.5" transform="matrix(3.376418e-03 -1 1 3.376418e-03 369.7762 917.7709)" class="st9" width="2.4" height="3.7"/>
			
				<rect x="650" y="270.6" transform="matrix(3.376418e-03 -1 1 3.376418e-03 375.5707 923.6245)" class="st9" width="2.4" height="5.6"/>
			
				<rect x="681.8" y="264.3" transform="matrix(3.376418e-03 -1 1 3.376418e-03 412.7453 949.9789)" class="st9" width="2.4" height="7.3"/>
			
				<rect x="681.8" y="268.5" transform="matrix(3.376418e-03 -1 1 3.376418e-03 408.5037 954.1779)" class="st9" width="2.4" height="7.3"/>
			
				<rect x="681.8" y="272.7" transform="matrix(3.376418e-03 -1 1 3.376418e-03 404.262 958.3768)" class="st9" width="2.4" height="7.3"/>
			
				<rect x="644.1" y="274.7" transform="matrix(3.376418e-03 -1 1 3.376418e-03 366.5526 920.9621)" class="st9" width="2.4" height="3.7"/>
			
				<rect x="650" y="273.8" transform="matrix(3.376418e-03 -1 1 3.376418e-03 372.3471 926.8156)" class="st9" width="2.4" height="5.6"/>
		</g>
		<g>
			
				<rect x="1562.4" y="154.8" transform="matrix(2.092249e-02 -0.9998 0.9998 2.092249e-02 1421.2152 1835.4348)" class="st10" width="170.7" height="74.5"/>
			
				<rect x="1562.4" y="154.8" transform="matrix(2.092249e-02 -0.9998 0.9998 2.092249e-02 1421.2152 1835.4348)" class="st11" width="170.7" height="74.5"/>
			
				<rect x="1641.6" y="233.1" transform="matrix(2.092249e-02 -0.9998 0.9998 2.092249e-02 1329.7485 1921.3329)" class="st10" width="8.6" height="97.3"/>
			
				<rect x="1641.6" y="233.1" transform="matrix(2.092249e-02 -0.9998 0.9998 2.092249e-02 1329.7485 1921.3329)" class="st12" width="8.6" height="97.3"/>
			
				<rect x="1624.4" y="218.5" transform="matrix(2.092249e-02 -0.9998 0.9998 2.092249e-02 1360.1539 1892.7787)" class="st10" width="44.2" height="66.8"/>
			
				<rect x="1624.4" y="218.5" transform="matrix(2.092249e-02 -0.9998 0.9998 2.092249e-02 1360.1539 1892.7787)" class="st12" width="44.2" height="66.8"/>
			
				<rect x="1590.4" y="134.7" transform="matrix(2.092249e-02 -0.9998 0.9998 2.092249e-02 1445.6758 1812.4635)" class="st10" width="115.7" height="66.8"/>
			
				<rect x="1590.4" y="134.7" transform="matrix(2.092249e-02 -0.9998 0.9998 2.092249e-02 1445.6758 1812.4635)" class="st12" width="115.7" height="66.8"/>
		</g>
		<g>
			<rect x="1037.1" y="101.4" class="st10" width="74.5" height="170.7"/>
			<rect x="1037.1" y="101.4" class="st11" width="74.5" height="170.7"/>
			<rect x="1025.7" y="272.1" class="st10" width="97.3" height="8.6"/>
			<rect x="1025.7" y="272.1" class="st12" width="97.3" height="8.6"/>
			<rect x="1040.9" y="224.5" class="st10" width="66.8" height="44.2"/>
			<rect x="1040.9" y="224.5" class="st12" width="66.8" height="44.2"/>
			<rect x="1041" y="104.9" class="st10" width="66.8" height="115.7"/>
			<rect x="1041" y="104.9" class="st12" width="66.8" height="115.7"/>
		</g>
		<g>
			<path class="st13" d="M922.2,205.4l-88.6,8.9c-5.4,0.4-9.5,4.9-9.5,10.3l0.1,47.7c0,6.1,5.3,10.8,11.3,10.2l88.7-0.2
				c5.2-0.5,9.2-5,9.2-10.2l-0.2-56.4C933.2,209.6,928.2,204.9,922.2,205.4z M921.6,272l-85.6,0.3l-0.1-47.6l85.6-0.3L921.6,272z"/>
		</g>
		<g>
			<path class="st7" d="M1649.6,156.8c-8.7-0.1-15.7,6.9-15.8,15.6c-0.1,8.7,6.9,15.7,15.6,15.8c8.7,0.1,15.7-6.9,15.8-15.6
				C1665.2,163.9,1658.3,156.8,1649.6,156.8z M1644.5,180.9c0-5.6,0.1-11.1,0.1-16.7l11.6,8.4L1644.5,180.9z"/>
		</g>
		<g>
			<path class="st7" d="M1075.9,147.8c-8.7-0.1-15.7,6.9-15.8,15.6s6.9,15.7,15.6,15.8c8.7,0.1,15.7-6.9,15.8-15.6
				S1084.5,147.9,1075.9,147.8z M1070.7,171.9c0-5.6,0.1-11.1,0.1-16.7l11.6,8.4L1070.7,171.9z"/>
		</g>
		<g>
			<g>
				<polyline class="st13" points="522.7,287 522.7,283.6 518.3,279.1 514.9,279.1 				"/>
				<polyline class="st13" points="531.8,262.3 528.5,262.3 521.7,269 514.9,269 				"/>
				<line class="st13" x1="532.9" y1="272.4" x2="514.9" y2="272.3"/>
				<polyline class="st13" points="531.8,282.5 528.4,282.5 521.6,275.7 514.9,275.7 				"/>
				<polyline class="st13" points="522.8,257.7 522.8,261.1 518.3,265.6 514.9,265.6 				"/>
				<polyline class="st13" points="488.9,286.9 489,283.5 493.5,279 496.9,279 				"/>
				<polyline class="st13" points="480,262.1 483.4,262.1 490.1,268.9 496.9,268.9 				"/>
				<line class="st13" x1="478.9" y1="272.2" x2="496.9" y2="272.3"/>
				<polyline class="st13" points="479.9,282.3 483.3,282.3 490.1,275.6 496.9,275.6 				"/>
				<polyline class="st13" points="489.1,257.6 489,261 493.5,265.5 496.9,265.5 				"/>
				
					<rect x="500.3" y="266.7" transform="matrix(1 3.848795e-03 -3.848795e-03 1 1.0518 -1.945)" class="st13" width="11.3" height="11.3"/>
				<line class="st13" x1="506" y1="245.3" x2="505.9" y2="263.3"/>
				<polyline class="st13" points="512.7,247.5 512.7,252.1 509.3,255.4 509.3,263.3 				"/>
				<polyline class="st13" points="499.2,247.5 499.2,252 502.6,255.4 502.5,263.3 				"/>
				<polyline class="st13" points="512.7,263.3 512.7,258.8 517.2,254.3 517.2,250.9 				"/>
				<polyline class="st13" points="499.2,263.3 499.2,258.8 494.7,254.2 494.7,250.9 				"/>
				<line class="st13" x1="505.8" y1="299.3" x2="505.9" y2="281.3"/>
				<polyline class="st13" points="512.6,297.1 512.6,291.5 509.2,288.1 509.2,281.3 				"/>
				<polyline class="st13" points="499,297.1 499.1,291.4 502.4,288.1 502.5,281.3 				"/>
				<polyline class="st13" points="512.6,281.3 512.6,284.7 517.1,289.2 517.1,293.7 				"/>
				<polyline class="st13" points="499.1,281.3 499.1,284.7 494.6,289.1 494.5,293.7 				"/>
			</g>
		</g>
		<g>
			<path class="st14" d="M1096.1,228.3l-7-0.1c0,0-3.6-1-7,3.3c-3.4,4.3-5.6,7.3-5.6,7.3l-1.7,35.7l2.1,6.8c0,0,18.1,8.2,38.5,8.6
				c0,0-0.6-6.8,4.5-15.8s19.5-15.9,34.7-9.8s15.9,17.6,15.9,29.4l97.7,1.9c0,0,4.6,0.3,4.7-5.5c0.1-5.7,2.7-28.5,28.7-28.4
				c26,0.1,28.1,16.4,28.5,32.9l19.3,0.4l7.6-7.3l-1-26.4c0,0-0.2-8.1-10.7-11.4c-10.5-3.3-52-15.1-76-28.3
				c-3.8-2.1-24.3-16.2-54-17.1c-7.2-0.2-19.7-0.6-22.7-0.1c-3,0.6-33.8,5.3-90.7,23.5C1099.9,228.2,1096.1,228.3,1096.1,228.3z"/>
			<line class="st15" x1="1088.4" y1="243.1" x2="1076.3" y2="242.9"/>
			<line class="st15" x1="1150" y1="235.8" x2="1127" y2="235.4"/>
			<line class="st15" x1="1204.4" y1="246.4" x2="1192.2" y2="246.1"/>
			<line class="st15" x1="1264.6" y1="282.8" x2="1177.5" y2="281.1"/>
			<line class="st15" x1="1194.4" y1="237.6" x2="1194.9" y2="212.7"/>
			<line class="st15" x1="1279.9" y1="239.1" x2="1153.9" y2="236.7"/>
			<line class="st15" x1="1086.9" y1="269.5" x2="1074.7" y2="269.3"/>
			<path class="st16" d="M1135.2,232.2l0.1-4.5c0,0,14.7-17.4,55.2-14.5l-0.4,20L1135.2,232.2z"/>
			<path class="st16" d="M1199.7,232.9l0.4-19.6c0,0,30.1-3.5,45.7,2.4c9.2,3.5,18.3,18.9,18.3,18.9L1199.7,232.9z"/>
			<line class="st17" x1="1234.3" y1="218.9" x2="1240.4" y2="224.3"/>
			<line class="st17" x1="1238.9" y1="219" x2="1243.5" y2="223.4"/>
			<g>
				<circle class="st3" cx="1142" cy="288.3" r="22.5"/>
				<circle class="st14" cx="1141.4" cy="287.8" r="11.7"/>
				<path class="st17" d="M1157,288.1c-0.2,8.7-7.3,15.6-16,15.4"/>
				<path class="st17" d="M1125.6,287.5c0.2-8.7,7.3-15.6,16-15.4"/>
			</g>
			<g>
				<circle class="st3" cx="1301.8" cy="287.8" r="22.5"/>
				<circle class="st14" cx="1301.2" cy="287.3" r="11.7"/>
				<path class="st17" d="M1316.8,287.6c-0.2,8.7-7.3,15.6-16,15.4"/>
				<path class="st17" d="M1285.4,287c0.2-8.7,7.3-15.6,16-15.4"/>
			</g>
			<path class="st15" d="M1355.9,261.1c0,0-5.8,3.2-11.8,3.4"/>
		</g>
	</g>
</g>
<g>
</g>
<g>
</g>
<g>
</g>
<g>
</g>
<g>
</g>
<g>
</g>
</svg>
