<?xml version="1.0" encoding="utf-8"?>
<!-- Generator: Adobe Illustrator 25.0.1, SVG Export Plug-In . SVG Version: 6.00 Build 0)  -->
<svg version="1.1" id="Layer_1" xmlns="http://www.w3.org/2000/svg" xmlns:xlink="http://www.w3.org/1999/xlink" x="0px" y="0px"
	 viewBox="0 0 1920 356.3" style="enable-background:new 0 0 1920 356.3;" xml:space="preserve">
<style type="text/css">
	.st0{clip-path:url(#SVGID_2_);}
	.st1{clip-path:url(#SVGID_4_);fill:none;stroke:#CE0E2D;stroke-miterlimit:10;}
	.st2{clip-path:url(#SVGID_6_);}
	.st3{fill:#CE0E2D;stroke:#CE0E2D;stroke-miterlimit:10;}
	.st4{clip-path:url(#SVGID_8_);fill:none;stroke:#CE0E2D;stroke-miterlimit:10;}
	.st5{fill:none;stroke:#CE0E2D;stroke-miterlimit:10;}
	.st6{fill:none;stroke:#A7A9AC;stroke-miterlimit:10;}
	.st7{fill:none;stroke:#231F20;stroke-miterlimit:10;}
	.st8{fill:#CE0E2D;}
	.st9{fill:#FFFFFF;stroke:#CE0E2D;stroke-miterlimit:10;}
	.st10{fill:#BCBEC0;}
	.st11{fill:#FFFFFF;}
	.st12{fill:#CF2031;}
	.st13{fill:none;stroke:#CF2031;stroke-width:1;stroke-miterlimit:10.0002;}
	.st14{fill:none;stroke:#CF2031;stroke-miterlimit:10;}
	.st15{fill:none;stroke:#BCBEC0;stroke-miterlimit:10;}
	.st16{fill:none;stroke:#BCBEC0;stroke-width:1;stroke-miterlimit:10.0001;}
	.st17{fill:#FFFFFF;stroke:#3E3E3F;stroke-miterlimit:10;}
	.st18{fill:none;stroke:#3E3E3F;stroke-miterlimit:10;}
	.st19{fill:#F6A0AB;}
	.st20{fill:none;stroke:#FFFFFF;stroke-miterlimit:10;}
	.st21{fill:none;stroke:#CF2030;stroke-width:0.75;stroke-miterlimit:10;}
	.st22{fill:#231F20;stroke:#CF2030;stroke-width:0.75;stroke-miterlimit:10;}
	.st23{fill:#231F20;}
	.st24{clip-path:url(#SVGID_10_);fill:#CF2030;}
	.st25{fill:#CF2030;}
	.st26{clip-path:url(#SVGID_12_);fill:#CF2030;}
	.st27{clip-path:url(#SVGID_14_);fill:#CF2030;}
	.st28{fill:none;stroke:#CF2031;stroke-width:0.75;stroke-miterlimit:10;}
</style>
<g>
	<g>
		<defs>
			<polygon id="SVGID_1_" points="1926.07,366.36 -13.33,364.46 -7.33,3.26 1912.67,3.26 			"/>
		</defs>
		<clipPath id="SVGID_2_">
			<use xlink:href="#SVGID_1_"  style="overflow:visible;"/>
		</clipPath>
		<g class="st0">
			<g>
				<g>
					<defs>
						<polygon id="SVGID_3_" points="894.58,-749.11 1799.18,333.99 347.98,1550.29 -649.42,441.49 						"/>
					</defs>
					<clipPath id="SVGID_4_">
						<use xlink:href="#SVGID_3_"  style="overflow:visible;"/>
					</clipPath>
					<path class="st1" d="M1203.18,218.99l-21.1-0.3v3.7l-9.5-0.1l0.1-10l-9.5-0.1l0.2-12.7l-35.4-0.4l-0.1,7.9l-6.3-0.1l-0.1,6.9
						l-6.3-0.1l0.4-33.8l-14.8-0.2l-0.1,5.3l-23.3-0.3l-0.1,7.4l-7.4-0.1l0.1-11.1l-35.9-0.4l-0.2,18l-18-0.2l0.2-26.1l-49.6-1
						l-0.4,33.3l-8.5-0.1l0.4-35.9l-6.3-0.1l0.1-6.3l-8.5-0.1l-0.1,7.4l-4.2-0.1l-0.2,20.1h-3.7l-0.3,25.9l-5.3-0.1l0.2-14.3
						l-6.3-0.1l1.2-99.9l-5.3-0.1l0.1-11.1l-46.5-0.6l-0.1,11.6h-3.7l0.5-40.2l-18.5-0.2l0.1-6.3l-12.7-0.2l-0.1,7.9l-5.8-0.1
						l-1,80.4l-11.1-0.1l0.4-31.7l-4.2-0.1l0.3-22.2l-2.6-2.7l0.5-40.2l-6.3-0.1l0.2-19l-21.1-0.3l-0.2,16.4l-5.3-0.1l-0.1,7.4
						l-4.8-0.1l-0.5,43.3l-6.9-0.1l0.2-19.6l-51.8-0.6l-0.3,25.4l-13.2-0.2l0.1-4.8l-9-0.1l-0.1,7.4l-17.4-0.2l0.2-12.2l-14.3-0.2
						l0.1-9l-10-0.1l-0.1,6.9l-29.6-0.4l-1,81.4l-15.3-0.2l-0.1,8.5l-7.9-0.1l-0.1,7.7l-20.6-0.3l-0.2,18.2l-4.8-0.1l0.5-71.7
						l-43.3-0.5l-0.2,13.2l-25.4-0.3l-0.6,46l-16.4-0.2l0.1-5.6l-11.6-0.1l0.1-8.2l-31.7-0.4l-0.1,8.2l-16.4-0.2l-0.1,6.6l-6.3-0.1
						l0.8-66.1l-56-0.7l-0.9,71.9l-13.7-0.2l0.4-28.5l-23.3-0.3l-0.4,34.9l-503.2-21.7"/>
				</g>
				<g>
					<defs>
						<polygon id="SVGID_5_" points="894.58,-749.11 2002.68,347.02 347.98,1550.29 -649.42,441.49 						"/>
					</defs>
					<clipPath id="SVGID_6_">
						<use xlink:href="#SVGID_5_"  style="overflow:visible;"/>
					</clipPath>
					<g class="st2">
						<path class="st3" d="M-103.2,590.04c-23.3-27.8-37.3-63.6-37.3-102.7c-0.1-88.5,53.6-159.3,142.2-159.4l1900.8-2.4
							c228.9-0.3,425.8,162.8,468.1,387.8c44,234.1-93.6,466.4-320.1,540.2c-0.3,0.1-0.6,0.2-1,0.3l-691.8,220.6
							c-78,25.7-126.3,103.3-114.9,184.7c11,78.4,78.8,134.2,165,136.2l825.4,0.8c88.5,0.1,160.3,71.9,160.2,160.5
							c-0.1,88.5-71.9,160.2-160.5,160.2l-826.9-0.8c-0.9,0-1.7,0-2.6,0c-244.3-4.1-445.4-177.6-478.2-412.4
							c-32.9-235.5,149.6-395.1,333.3-534c0.3-0.2,0.7-0.2,1.1-0.4l691.9-220.6c73.6-24.2,118.3-99.8,104-176
							c-13.8-73.4-78-126.6-152.7-126.4l-1882.9,1.3C-29.6,647.54-73.8,625.24-103.2,590.04z"/>
					</g>
				</g>
				<g>
					<defs>
						<polygon id="SVGID_7_" points="894.58,-749.11 1799.18,333.99 347.98,1550.29 -649.42,441.49 						"/>
					</defs>
					<clipPath id="SVGID_8_">
						<use xlink:href="#SVGID_7_"  style="overflow:visible;"/>
					</clipPath>
					<path class="st4" d="M459.98,1571.59c14.6-230,208.5-446,437.4-473.9"/>
				</g>
			</g>
			<line class="st5" x1="495.13" y1="683.79" x2="1167.23" y2="684.69"/>
			<line class="st6" x1="-298.47" y1="276.69" x2="62.43" y2="277.19"/>
			<g>
				<path class="st5" d="M295.63,196.29"/>
				<path class="st5" d="M274.73-74.41"/>
			</g>
			<g>
				<line class="st6" x1="1071.63" y1="272.99" x2="1136.83" y2="273.29"/>
			</g>
			<g>
				<path class="st5" d="M1237.73,751.09"/>
				<line class="st7" x1="565.23" y1="285.39" x2="630.43" y2="285.79"/>
			</g>
			<g>
				<path class="st6" d="M1022.63,697.49"/>
				<line class="st6" x1="350.23" y1="231.79" x2="415.43" y2="232.09"/>
			</g>
			<g>
				<path class="st6" d="M1027.63,715.19"/>
				<line class="st6" x1="355.13" y1="249.49" x2="384.63" y2="249.59"/>
			</g>
			<g>
				<path class="st6" d="M975.03,726.09"/>
				<line class="st6" x1="302.53" y1="260.39" x2="367.73" y2="260.69"/>
			</g>
			<g>
				<circle class="st5" cx="1000.93" cy="102.59" r="41.4"/>
				<polyline class="st5" points="1015.43,76.79 1000.93,102.59 1019.93,102.59 				"/>
			</g>
			<g>
				<path class="st8" d="M484.23,238.19c-8.7-0.1-15.7,6.9-15.8,15.6c-0.1,8.7,6.9,15.7,15.6,15.8c8.7,0.1,15.7-6.9,15.8-15.6
					C499.83,245.29,492.83,238.29,484.23,238.19z M479.03,262.39c0-5.6,0.1-11.1,0.1-16.7l11.6,8.4L479.03,262.39z"/>
			</g>
			<g>
				<circle class="st5" cx="218.53" cy="150.39" r="12.6"/>
				<circle class="st5" cx="215.03" cy="235.39" r="12.6"/>
				<circle class="st9" cx="237.03" cy="193.69" r="12.6"/>
				<line class="st5" x1="224.43" y1="193.09" x2="-399.87" y2="166.89"/>
				<polyline class="st5" points="206.33,225.99 190.23,208.49 165.03,207.39 				"/>
				<polyline class="st5" points="209.13,158.89 191.63,174.99 166.53,173.89 				"/>
				<circle class="st5" cx="176.93" cy="144.59" r="12.6"/>
				<polyline class="st5" points="167.33,152.89 145.53,172.99 -398.17,148.99 				"/>
				<circle class="st5" cx="173.23" cy="237.69" r="12.6"/>
				<polyline class="st5" points="164.23,228.39 144.13,206.59 -398.17,185.19 				"/>
				<polyline class="st5" points="151.23,236.19 134.53,235.49 122.43,222.39 -398.17,200.89 				"/>
				<polyline class="st5" points="155.13,143.99 138.33,143.29 125.23,155.39 -410.17,131.29 				"/>
			</g>
			<g>
				<g>
					<path class="st10" d="M1033.83,270.89l-0.1-12.3c0-0.8-0.7-1.5-1.5-1.4l-8.8,0.1c-0.8,0-1.5,0.7-1.4,1.5l0.1,12.3h2.2
						l-0.1-11.6h7.3l0.1,11.6L1033.83,270.89z"/>
					<path class="st10" d="M1047.93,270.79l-0.1-18.1c0-0.8-0.7-1.5-1.5-1.4l-8.8,0.1c-0.8,0-1.5,0.7-1.4,1.5l0.1,18.1h2.1
						l-0.1-17.6h7.3l0.1,17.6L1047.93,270.79z"/>
					<path class="st10" d="M1052.43,243.79h6.9l0.2,27h2.4l-0.2-27.7c0-0.8-0.7-1.5-1.5-1.4l-8.8,0.1c-0.8,0-1.5,0.7-1.4,1.5
						l0.2,27.7h2.3L1052.43,243.79z"/>
					
						<rect x="1017.16" y="272.79" transform="matrix(1 -6.013200e-03 6.013200e-03 1 -1.6272 6.2714)" class="st10" width="49.9" height="1.9"/>
					<path class="st10" d="M1017.93,256.89c0.3,0,0.7-0.3,1-0.5l19.1-15.5l4.2,5.3c0.3,0.4,0.7,0.6,1.2,0.6c0.1,0,0.2,0,0.3,0
						c0.6-0.1,1-0.5,1.2-1l4.4-13.6c0.2-0.5,0.1-1-0.3-1.4c-0.3-0.4-0.8-0.6-1.4-0.6l-14.2,1.5c-0.6,0.1-1,0.4-1.3,0.9
						c-0.2,0.5-0.1,1.1,0.2,1.5l4.4,5.2l-19.1,15.5c-0.7,0.5-1.2,1.1-0.7,1.8C1017.33,256.99,1017.53,256.89,1017.93,256.89z
						 M1046.93,232.19l-3.8,11.6l-8.3-10.3L1046.93,232.19z"/>
				</g>
			</g>
			<g>
				<path class="st10" d="M343.73,85.39h-4.9v-5.2c0-0.8-0.6-1.4-1.4-1.4h-4.9v-5.2c0-0.8-0.6-1.4-1.4-1.4l-56.2,0.2
					c-0.8,0-1.4,0.6-1.4,1.4l0.1,46.3c0,0.8,0.6,1.4,1.4,1.4h4.9v5.2c0,0.8,0.6,1.4,1.4,1.4h4.9v5.2c0,0.8,0.6,1.4,1.4,1.4l56.2-0.2
					c0.8,0,1.4-0.6,1.4-1.4l-0.1-46.3C345.13,85.99,344.53,85.39,343.73,85.39z M342.43,93.49l-53.5,0.2v-5.4l53.5-0.2V93.49z
					 M276.43,118.79l-0.1-43.6l53.5-0.2v3.9l-48.5,0.1c-0.8,0-1.4,0.6-1.4,1.4l0.1,38.4L276.43,118.79z M282.73,125.39l-0.1-43.6
					l53.5-0.2v3.9l-48.5,0.1c-0.8,0-1.4,0.6-1.4,1.4l0.1,38.4L282.73,125.39z M289.13,131.89l-0.1-35.5l53.5-0.2l0.1,35.5
					L289.13,131.89z"/>
				<path class="st10" d="M294.33,92.09h5.8c0.8,0,1.4-0.6,1.4-1.4s-0.6-1.4-1.4-1.4h-5.8c-0.8,0-1.4,0.6-1.4,1.4
					S293.53,92.09,294.33,92.09z"/>
				<path class="st10" d="M333.53,91.99c0.4,0,0.7-0.1,1-0.4s0.4-0.6,0.4-1s-0.1-0.7-0.4-1c-0.3-0.3-0.6-0.4-1-0.4s-0.7,0.1-1,0.4
					s-0.4,0.6-0.4,1s0.1,0.7,0.4,1C332.83,91.89,333.23,91.99,333.53,91.99z"/>
				<path class="st10" d="M338.43,91.99c0.4,0,0.7-0.1,1-0.4s0.4-0.6,0.4-1s-0.1-0.7-0.4-1c-0.3-0.3-0.6-0.4-1-0.4s-0.7,0.1-1,0.4
					s-0.4,0.6-0.4,1s0.1,0.7,0.4,1S338.03,91.99,338.43,91.99z"/>
			</g>
			<g>
				<path class="st10" d="M601.83,59.19c1.3-2,2-4,2.2-6.3c0.7-7.4-4.8-13.9-12.2-14.6c-7.4-0.7-13.9,4.8-14.6,12.2
					c-0.2,2.2,0.2,4.3,1.1,6.6l0,0c0,0,0.1,0.2,0.2,0.5c0,0.1,0.1,0.2,0.1,0.3c0,0,0,0.1,0.1,0.1c0.2,0.4,0.5,0.9,0.9,1.5
					c0.2,0.3,0.5,0.7,0.7,1.1c0.8,1.3,1.9,2.8,2.1,3.7c0.6,2.1,0.6,3.6,0.6,3.6c0,0.6,0.5,1.2,1.1,1.2l4.9,0.4l4.9,0.4
					c0.6,0.1,1.2-0.4,1.3-1c0,0,0.3-1.5,1.2-3.4c0.4-0.8,1.7-2.2,2.8-3.3c0.3-0.3,0.6-0.6,0.9-0.9c0.5-0.5,0.8-1,1.1-1.3l0.1-0.1
					c0.1-0.1,0.1-0.2,0.2-0.2C601.73,59.39,601.83,59.19,601.83,59.19L601.83,59.19z M597.43,60.49c-1.3,1.3-2.6,2.7-3.2,3.9
					c-0.6,1.2-0.9,2.2-1.1,3l-3.8-0.3l-3.8-0.3c-0.1-0.8-0.2-1.8-0.6-3.1c-0.4-1.3-1.4-2.9-2.5-4.4c-0.2-0.4-0.5-0.7-0.7-1
					c-0.4-0.7-0.7-1.2-0.9-1.6c-0.9-2-1.3-3.9-1.1-5.8c0.5-6,5.9-10.5,11.9-10s10.5,5.9,10,11.9c-0.2,2-0.9,3.7-2.1,5.6
					c-0.2,0.3-0.6,0.8-1.2,1.4C598.03,59.89,597.73,60.19,597.43,60.49z"/>
				<path class="st10" d="M594.53,72.59c0.1-0.7-0.4-1.3-1.1-1.3l-8.9-0.8c-0.7-0.1-1.3,0.4-1.3,1.1v0.5c-0.1,0.4-0.3,2.4,1,4
					c0.9,1.2,2.3,1.9,4.2,2c1.9,0.2,3.4-0.3,4.5-1.3c1.5-1.4,1.7-3.3,1.7-3.8L594.53,72.59z M591.13,75.09c-0.6,0.5-1.5,0.7-2.6,0.6
					s-2-0.5-2.4-1.1c-0.4-0.5-0.5-1.1-0.5-1.6l6.4,0.6C591.83,73.99,591.63,74.59,591.13,75.09z"/>
				<path class="st10" d="M592.13,34.49c0.7,0.1,1.3-0.4,1.3-1.1l0.4-5c0.1-0.7-0.4-1.3-1.1-1.3c-0.7-0.1-1.3,0.4-1.3,1.1l-0.4,5
					C591.03,33.89,591.53,34.49,592.13,34.49z"/>
				<path class="st10" d="M577.63,38.39c0.2,0.3,0.5,0.4,0.8,0.4s0.6-0.1,0.9-0.3c0.5-0.4,0.6-1.2,0.2-1.7l-3.2-3.8
					c-0.4-0.5-1.2-0.6-1.7-0.2c-0.5,0.4-0.6,1.2-0.2,1.7L577.63,38.39z"/>
				<path class="st10" d="M573.13,50.49c0.1-0.7-0.4-1.3-1.1-1.3l-5-0.4c-0.7-0.1-1.3,0.4-1.3,1.1c-0.1,0.7,0.4,1.3,1.1,1.3l5,0.4
					C572.43,51.59,573.03,51.09,573.13,50.49z"/>
				<path class="st10" d="M575.43,63.09l-3.8,3.2c-0.5,0.4-0.6,1.2-0.2,1.7c0.2,0.3,0.5,0.4,0.8,0.4s0.6-0.1,0.9-0.3l3.8-3.2
					c0.5-0.4,0.6-1.2,0.2-1.7C576.73,62.79,575.93,62.69,575.43,63.09z"/>
				<path class="st10" d="M603.63,65.59c-0.4-0.5-1.2-0.6-1.7-0.2s-0.6,1.2-0.2,1.7l3.2,3.8c0.2,0.3,0.5,0.4,0.8,0.4
					s0.6-0.1,0.9-0.3c0.5-0.4,0.6-1.2,0.2-1.7L603.63,65.59z"/>
				<path class="st10" d="M614.43,52.89l-5-0.4c-0.7-0.1-1.3,0.4-1.3,1.1c-0.1,0.7,0.4,1.3,1.1,1.3l5,0.4c0.7,0.1,1.3-0.4,1.3-1.1
					C615.53,53.59,615.03,52.99,614.43,52.89z"/>
				<path class="st10" d="M604.93,41.19c0.3,0,0.6-0.1,0.9-0.3l3.8-3.2c0.5-0.4,0.6-1.2,0.2-1.7c-0.4-0.5-1.2-0.6-1.7-0.2l-3.8,3.2
					c-0.5,0.4-0.6,1.2-0.2,1.7C604.33,40.99,604.63,41.19,604.93,41.19z"/>
				<path class="st10" d="M589.83,60.99c-0.4,0-0.7,0.1-1.1,0.3c-0.3,0.3-0.5,0.6-0.5,1s0.1,0.7,0.3,1c0.3,0.3,0.6,0.5,1,0.5
					s0.7-0.1,1-0.3c0.3-0.3,0.5-0.6,0.5-1s-0.1-0.8-0.3-1.1C590.53,61.19,590.23,61.09,589.83,60.99z"/>
				<path class="st10" d="M591.33,44.59c-1.1-0.1-2.1,0.2-2.9,1c-0.9,1-1.4,2.5-1.2,4.3v0.1l1.7,8.9c0.1,0.5,0.5,0.8,1,0.9
					c0.5,0,0.9-0.2,1.1-0.7l3.3-8.4v-0.1c0.5-1.7,0.3-3.4-0.4-4.5C593.33,45.29,592.43,44.69,591.33,44.59z M592.33,49.99l-1.9,4.9
					l-1-5.2c-0.1-1.1,0.1-2.1,0.6-2.6c0.3-0.3,0.7-0.4,1.1-0.4c0.5,0,0.8,0.2,1.1,0.5C592.53,47.89,592.63,48.89,592.33,49.99z"/>
			</g>
			<g>
				<path class="st10" d="M595.73,234.69l-7.7-0.1v-1.2c0-0.6-0.5-1.2-1.2-1.2c-0.6,0-1.2,0.5-1.2,1.2v1.2l-6.8-0.1v-1.2
					c0-0.6-0.5-1.2-1.2-1.2c-0.6,0-1.2,0.5-1.2,1.2v1.2h-6.5v-1.2c0-0.6-0.5-1.2-1.2-1.2c-0.6,0-1.2,0.5-1.2,1.2v1.2l-7.9-0.1
					c-0.6,0-1.2,0.5-1.2,1.2l-0.2,26.4c0,0.6,0.5,1.2,1.2,1.2l7.2,0.1c1.1,4.9,5.5,8.6,10.8,8.7c5.3,0,9.7-3.6,10.9-8.5l7.2,0.1
					c0.6,0,1.2-0.5,1.2-1.2l0.2-26.4C596.93,235.29,596.43,234.69,595.73,234.69L595.73,234.69z M567.73,236.89v1.1
					c0,0.6,0.5,1.2,1.2,1.2c0.6,0,1.2-0.5,1.2-1.2v-1.1h6.5v1.1c0,0.6,0.5,1.2,1.2,1.2c0.6,0,1.2-0.5,1.2-1.2v-1.1l6.8,0.1v1.1
					c0,0.6,0.5,1.2,1.2,1.2c0.6,0,1.2-0.5,1.2-1.2v-1.1h6.5v4.8l-33.7-0.3v-4.8L567.73,236.89z M577.53,269.59c-4.8,0-8.7-4-8.7-8.8
					c0-4.8,4-8.7,8.8-8.7s8.7,4,8.7,8.8C586.33,265.69,582.33,269.59,577.53,269.59L577.53,269.59z M588.63,261.09
					c0-0.1,0-0.1,0-0.2c0-6.1-4.9-11.2-11-11.2s-11.2,4.9-11.2,11c0,0.1,0,0.1,0,0.2h-5.7l0.1-17l33.7,0.3l-0.1,17L588.63,261.09z"
					/>
				<path class="st10" d="M578.73,261.09v-5.7c0-0.6-0.5-1.2-1.2-1.2c-0.6,0-1.2,0.5-1.2,1.2v6.1c0,0.3,0.1,0.6,0.3,0.8l2.7,2.7
					c0.2,0.2,0.5,0.3,0.8,0.3s0.6-0.1,0.8-0.3c0.5-0.5,0.5-1.2,0-1.7L578.73,261.09z"/>
			</g>
			<g>
				<path class="st10" d="M863.93,185.59h3.6c0.5,0,0.8-0.4,0.8-0.8c0-0.5-0.4-0.8-0.8-0.8h-3.6c-0.5,0-0.8,0.4-0.8,0.8
					C863.03,185.29,863.43,185.59,863.93,185.59z"/>
				<path class="st10" d="M887.83,185.79c0.2,0,0.4-0.1,0.6-0.2c0.2-0.2,0.2-0.4,0.2-0.6c0-0.2-0.1-0.4-0.2-0.6
					c-0.2-0.2-0.4-0.2-0.6-0.2s-0.4,0.1-0.6,0.2c-0.2,0.2-0.2,0.4-0.2,0.6c0,0.2,0.1,0.4,0.2,0.6
					C887.43,185.69,887.63,185.79,887.83,185.79z"/>
				<path class="st10" d="M890.83,185.79c0.2,0,0.4-0.1,0.6-0.2c0.2-0.2,0.2-0.4,0.2-0.6c0-0.2-0.1-0.4-0.2-0.6
					c-0.2-0.2-0.4-0.2-0.6-0.2s-0.4,0.1-0.6,0.2c-0.2,0.2-0.2,0.4-0.2,0.6c0,0.2,0.1,0.4,0.2,0.6
					C890.43,185.69,890.63,185.79,890.83,185.79z"/>
				<path class="st10" d="M896.83,212.69c0.4-0.6,0.6-1.2,0.5-1.9c0-0.6-0.2-1.2-0.5-1.6c0.3-1.2,0-2.3-0.9-3.2
					c-0.3-0.3-0.7-0.5-1.1-0.7l0.1-22.8c0-0.5-0.4-0.8-0.8-0.8l-34.3-0.2c-0.5,0-0.8,0.4-0.8,0.8l-0.2,28.3c0,0.5,0.4,0.8,0.8,0.8
					l15.8,0.1v5.5c0,1.5,1.2,2.6,2.6,2.7h2.7c0.4,0,0.9-0.1,1.2-0.3l0.7,0.1c0.2,0,2.6,0.3,5.3,0.4c0.2,0,0.4,0,0.6,0
					c0.5,0,1,0.1,1.5,0.1c0.8,0,1.6-0.1,2.2-0.2c1.6-0.3,2.7-1,3.3-2.1c0.4-0.6,0.4-1.2,0.4-1.7c0.9-0.9,1-1.9,1-2.6
					C896.93,213.19,896.83,212.99,896.83,212.69z M893.33,183.49v3.3l-32.7-0.2v-3.3L893.33,183.49z M860.63,188.19l32.7,0.2
					l-0.1,16.6c-0.2,0-0.5,0-0.7,0s-0.4,0-0.6,0c-0.7,0-1.4,0.1-1.8,0.2c0.1-0.3,0.2-0.7,0.4-1.2c0.7-2.1,0.6-3.8-0.2-5
					c-0.9-1.3-2.4-1.4-2.9-1.4c-0.6,0-1.1,0.2-1.5,0.7c-0.6,0.7-0.7,1.8-0.6,2.5c-0.9,2.3-2.3,5.1-3.2,5.8c-0.1,0.1-0.1,0.1-0.2,0.1
					l0,0c-0.2,0.3-0.5,0.5-0.7,0.8c-0.2,0-0.3,0-0.5,0h-2.7c-1.4,0-2.6,1.1-2.7,2.5l-15-0.1L860.63,188.19z M878.03,218.09
					c-0.5,0-1-0.4-1-1v-7.1c0-0.5,0.4-1,1-1h2.7l0,0l-0.1,9l0,0L878.03,218.09z M895.23,212.09c-0.2,0.2-0.2,0.5-0.1,0.8
					c0,0.1,0.1,0.4,0.1,0.6c0,0.6-0.2,1.1-0.7,1.6c-0.2,0.2-0.3,0.5-0.3,0.7c0,0.3,0,0.7-0.2,1.1c-0.3,0.6-1.1,1-2.2,1.3
					c-0.5,0.1-1.1,0.2-1.8,0.2c-0.4,0-0.9,0-1.4-0.1c0,0,0,0-0.1,0l0,0c-2.8,0-5.6-0.3-5.7-0.3l0,0l-0.5-0.1l0.1-9.2
					c0.2-0.3,0.4-0.6,0.6-0.9c1.8-1.4,3.6-6.2,3.8-6.7c0-0.1,0.1-0.3,0-0.4c-0.1-0.6,0-1.2,0.2-1.4c0.1-0.1,0.1-0.1,0.2-0.1
					c0.2,0,1,0.1,1.5,0.7c0.5,0.7,0.5,1.9,0,3.5c-0.4,1.3-0.6,2.2-0.6,2.8c0,0.2,0.1,0.5,0.3,0.6c0.2,0.1,0.4,0.2,0.7,0.2
					c0.2-0.1,0.4-0.1,0.6-0.1c0,0,0,0,0.1,0c0,0,0.9-0.2,2-0.2c1.4-0.1,2.4,0.2,2.9,0.6c0.7,0.6,0.5,1.4,0.3,1.8
					c-0.1,0.3-0.1,0.6,0.1,0.8s0.4,0.6,0.4,1C895.73,211.29,895.53,211.69,895.23,212.09z"/>
				<path class="st10" d="M887.53,196.99c0.5,0,0.8-0.4,0.8-0.8v-3.1c0-0.5-0.4-0.8-0.8-0.8c-0.5,0-0.8,0.4-0.8,0.8v3.1
					C886.73,196.59,887.03,196.99,887.53,196.99z"/>
				<path class="st10" d="M883.63,196.59c0.1,0.4,0.4,0.6,0.8,0.6c0.1,0,0.1,0,0.2,0c0.4-0.1,0.7-0.6,0.6-1l-0.8-3
					c-0.1-0.4-0.6-0.7-1-0.6c-0.4,0.1-0.7,0.6-0.6,1L883.63,196.59z"/>
				<path class="st10" d="M890.23,197.29c0.1,0,0.1,0,0.2,0c0.4,0,0.7-0.2,0.8-0.6l0.8-3c0.1-0.4-0.1-0.9-0.6-1
					c-0.4-0.1-0.9,0.1-1,0.6l-0.8,3C889.53,196.69,889.83,197.09,890.23,197.29z"/>
			</g>
			<g>
				<path class="st10" d="M292.13,285.49l0.1-14.9c0-1.6-1.3-3-3-3h-9.7v-5.9c0-0.7-0.5-1.2-1.2-1.2h-7.4v-3h8.5
					c3.6,0,6.6-2.9,6.6-6.5c0-3.5-2.8-6.4-6.3-6.6c-0.6-4-4-7.2-8.2-7.2c-2.8,0-5.4,1.4-6.9,3.7c-0.4-0.1-0.7-0.1-1.1-0.1
					c-2.2,0-4.1,1.5-4.6,3.6c-0.2,0-0.5,0-0.7,0c-3.6,0-6.6,2.9-6.6,6.5s2.9,6.6,6.5,6.6h4.1v7.5h-2c-0.1-1.5-1.4-2.7-2.9-2.7h-12.5
					c-1.6,0-3,1.3-3,3v1.5v2.4l-0.1,15.5v2.4v1.5c0,1.6,1.3,3,3,3h12.5c1.6,0,3-1.3,3-3v-1.5v-2.4l0.1-15.5v-2.4h2
					c0.7,0,1.2-0.5,1.2-1.2v-8h6.2v3.4c0,0.7,0.5,1.2,1.2,1.2h7.4v5.5h-10.3c-1.6,0-3,1.3-3,3l-0.1,14.9h-3.6v1.2
					c0,2.6,2.1,4.8,4.7,4.8l25,0.1c2.6,0,4.8-2.1,4.8-4.7v-1.2L292.13,285.49z M243.33,264.79c0-0.4,0.3-0.7,0.7-0.7h13.7
					c0.4,0,0.7,0.3,0.7,0.7v1.6l-15-0.1L243.33,264.79z M258.23,288.59c0,0.4-0.3,0.7-0.7,0.7h-13.7c-0.4,0-0.7-0.3-0.7-0.7v-1.6
					l15,0.1L258.23,288.59z M258.23,285.19l-15-0.1l0.1-17l15,0.1L258.23,285.19z M253.03,250.99c0-2.4,2-4.4,4.4-4.4
					c0.5,0,1,0.1,1.5,0.3l1.8,0.7l-0.2-2c0-0.1,0-0.1,0-0.2c0,0,0,0,0-0.1c0-1.4,1.1-2.5,2.5-2.5c0.4,0,0.8,0.1,1.1,0.3l1.1,0.6
					l0.6-1.1c1.1-2.2,3.2-3.5,5.6-3.5c3.5,0,6.3,2.8,6.3,6.3v0.1l-0.1,1.5l1.5-0.3c0.3,0,0.5-0.1,0.7-0.1c2.4,0,4.4,2,4.4,4.4
					s-2,4.4-4.4,4.4l-22.6-0.1C255.03,255.39,253.03,253.39,253.03,250.99z M266.53,269.69c0-0.3,0.3-0.6,0.6-0.6l22.9,0.1
					c0.3,0,0.6,0.3,0.6,0.6l-0.1,15.7l-24.1-0.1L266.53,269.69z M290.93,289.79l-25-0.1c-2.6,0-3.2-1.8-3.3-2.9h0.9l29.7,0.1h0.9
					C294.13,287.79,293.83,289.79,290.93,289.79z"/>
				<path class="st10" d="M256.43,270.19h-11.3v5.9h11.3V270.19z M254.13,273.69h-6.6v-1.2h6.6V273.69z"/>
				<path class="st10" d="M268.33,284.19h11.3v-13.1h-11.3V284.19z M270.73,273.49h6.6v8.4h-6.6V273.49z"/>
				
					<rect x="245.94" y="276.63" transform="matrix(3.376399e-03 -1 1 3.376399e-03 -32.1757 524.6797)" class="st10" width="2.4" height="3.7"/>
				
					<rect x="251.8" y="275.64" transform="matrix(3.376399e-03 -1 1 3.376399e-03 -26.2848 530.498)" class="st10" width="2.4" height="5.6"/>
				
					<rect x="283.64" y="269.32" transform="matrix(3.376399e-03 -1 1 3.376399e-03 10.9036 556.8842)" class="st10" width="2.4" height="7.3"/>
				
					<rect x="283.59" y="273.54" transform="matrix(3.376399e-03 -1 1 3.376399e-03 6.649 561.0416)" class="st10" width="2.4" height="7.3"/>
				
					<rect x="283.55" y="277.75" transform="matrix(3.376399e-03 -1 1 3.376399e-03 2.3944 565.1987)" class="st10" width="2.4" height="7.3"/>
				
					<rect x="245.92" y="279.83" transform="matrix(3.376399e-03 -1 1 3.376399e-03 -35.4012 527.8474)" class="st10" width="2.4" height="3.7"/>
				
					<rect x="251.78" y="278.84" transform="matrix(3.376399e-03 -1 1 3.376399e-03 -29.5103 533.6655)" class="st10" width="2.4" height="5.6"/>
			</g>
			<g>
				
					<rect x="1164.13" y="159.85" transform="matrix(8.323711e-03 -1 1 8.323711e-03 1041.9888 1444.8947)" class="st11" width="170.7" height="74.5"/>
				
					<rect x="1164.13" y="159.85" transform="matrix(8.323711e-03 -1 1 8.323711e-03 1041.9888 1444.8947)" class="st12" width="170.7" height="74.5"/>
				
					<rect x="1244.49" y="238.09" transform="matrix(8.323711e-03 -1 1 8.323711e-03 951.6633 1533.0948)" class="st11" width="8.6" height="97.3"/>
				
					<rect x="1244.49" y="238.09" transform="matrix(8.323711e-03 -1 1 8.323711e-03 951.6633 1533.0948)" class="st13" width="8.6" height="97.3"/>
				
					<rect x="1226.88" y="223.55" transform="matrix(8.323711e-03 -1 1 8.323711e-03 981.6428 1503.7579)" class="st11" width="44.2" height="66.8"/>
				
					<rect x="1226.88" y="223.55" transform="matrix(8.323711e-03 -1 1 8.323711e-03 981.6428 1503.7579)" class="st13" width="44.2" height="66.8"/>
				
					<rect x="1191.85" y="139.72" transform="matrix(8.323711e-03 -1 1 8.323711e-03 1066.1868 1421.3409)" class="st11" width="115.7" height="66.8"/>
				
					<rect x="1191.85" y="139.72" transform="matrix(8.323711e-03 -1 1 8.323711e-03 1066.1868 1421.3409)" class="st13" width="115.7" height="66.8"/>
			</g>
			<g>
				<rect x="638.93" y="106.49" class="st11" width="74.5" height="170.7"/>
				<rect x="638.93" y="106.49" class="st12" width="74.5" height="170.7"/>
				<rect x="627.53" y="277.19" class="st11" width="97.3" height="8.6"/>
				<rect x="627.53" y="277.19" class="st14" width="97.3" height="8.6"/>
				<rect x="642.73" y="229.59" class="st11" width="66.8" height="44.2"/>
				<rect x="642.73" y="229.59" class="st14" width="66.8" height="44.2"/>
				<rect x="642.83" y="109.99" class="st11" width="66.8" height="115.7"/>
				<rect x="642.83" y="109.99" class="st14" width="66.8" height="115.7"/>
			</g>
			<g>
				<path class="st15" d="M524.03,210.49l-88.6,8.9c-5.4,0.4-9.5,4.9-9.5,10.3l0.1,47.7c0,6.1,5.3,10.8,11.3,10.2l88.7-0.2
					c5.2-0.5,9.2-5,9.2-10.2l-0.2-56.4C535.03,214.69,530.03,209.99,524.03,210.49z M523.43,277.09l-85.6,0.3l-0.1-47.6l85.6-0.3
					L523.43,277.09z"/>
			</g>
			<g>
				<path class="st8" d="M1251.43,161.89c-8.7-0.1-15.7,6.9-15.8,15.6c-0.1,8.7,6.9,15.7,15.6,15.8s15.7-6.9,15.8-15.6
					C1267.03,168.99,1260.13,161.89,1251.43,161.89z M1246.33,185.99c0-5.6,0.1-11.1,0.1-16.7l11.6,8.4L1246.33,185.99z"/>
			</g>
			<g>
				<path class="st8" d="M677.73,152.89c-8.7-0.1-15.7,6.9-15.8,15.6s6.9,15.7,15.6,15.8s15.7-6.9,15.8-15.6
					S686.33,152.99,677.73,152.89z M672.53,176.99c0-5.6,0.1-11.1,0.1-16.7l11.6,8.4L672.53,176.99z"/>
			</g>
			<g>
				<g>
					<polyline class="st15" points="124.53,292.09 124.53,288.69 120.13,284.19 116.73,284.19 					"/>
					<polyline class="st15" points="133.63,267.39 130.33,267.39 123.53,274.09 116.73,274.09 					"/>
					<line class="st15" x1="134.73" y1="277.49" x2="116.73" y2="277.39"/>
					<polyline class="st15" points="133.63,287.59 130.23,287.59 123.43,280.79 116.73,280.79 					"/>
					<polyline class="st15" points="124.63,262.79 124.63,266.19 120.13,270.69 116.73,270.69 					"/>
					<polyline class="st15" points="90.73,291.99 90.83,288.59 95.33,284.09 98.73,284.09 					"/>
					<polyline class="st15" points="81.83,267.19 85.23,267.19 91.93,273.99 98.73,273.99 					"/>
					<line class="st15" x1="80.73" y1="277.29" x2="98.73" y2="277.39"/>
					<polyline class="st15" points="81.73,287.39 85.13,287.39 91.93,280.69 98.73,280.69 					"/>
					<polyline class="st15" points="90.93,262.69 90.83,266.09 95.33,270.59 98.73,270.59 					"/>
					
						<rect x="102.14" y="271.79" transform="matrix(3.848767e-03 -1 1 3.848767e-03 -170.0655 384.1598)" class="st16" width="11.3" height="11.3"/>
					<line class="st15" x1="107.83" y1="250.39" x2="107.73" y2="268.39"/>
					<polyline class="st15" points="114.53,252.59 114.53,257.19 111.13,260.49 111.13,268.39 					"/>
					<polyline class="st15" points="101.03,252.59 101.03,257.09 104.43,260.49 104.33,268.39 					"/>
					<polyline class="st15" points="114.53,268.39 114.53,263.89 119.03,259.39 119.03,255.99 					"/>
					<polyline class="st15" points="101.03,268.39 101.03,263.89 96.53,259.29 96.53,255.99 					"/>
					<line class="st15" x1="107.63" y1="304.39" x2="107.73" y2="286.39"/>
					<polyline class="st15" points="114.43,302.19 114.43,296.59 111.03,293.19 111.03,286.39 					"/>
					<polyline class="st15" points="100.83,302.19 100.93,296.49 104.23,293.19 104.33,286.39 					"/>
					<polyline class="st15" points="114.43,286.39 114.43,289.79 118.93,294.29 118.93,298.79 					"/>
					<polyline class="st15" points="100.93,286.39 100.93,289.79 96.43,294.19 96.33,298.79 					"/>
				</g>
			</g>
			<g>
				<path class="st17" d="M697.93,233.39l-7-0.1c0,0-3.6-1-7,3.3s-5.6,7.3-5.6,7.3l-1.7,35.7l2.1,6.8c0,0,18.1,8.2,38.5,8.6
					c0,0-0.6-6.8,4.5-15.8s19.5-15.9,34.7-9.8s15.9,17.6,15.9,29.4l97.7,1.9c0,0,4.6,0.3,4.7-5.5c0.1-5.7,2.7-28.5,28.7-28.4
					s28.1,16.4,28.5,32.9l19.3,0.4l7.6-7.3l-1-26.4c0,0-0.2-8.1-10.7-11.4s-52-15.1-76-28.3c-3.8-2.1-24.3-16.2-54-17.1
					c-7.2-0.2-19.7-0.6-22.7-0.1c-3,0.6-33.8,5.3-90.7,23.5C701.73,233.29,697.93,233.39,697.93,233.39z"/>
				<line class="st18" x1="690.23" y1="248.19" x2="678.13" y2="247.99"/>
				<line class="st18" x1="751.83" y1="240.89" x2="728.83" y2="240.49"/>
				<line class="st18" x1="806.23" y1="251.49" x2="794.03" y2="251.19"/>
				<line class="st18" x1="866.43" y1="287.89" x2="779.33" y2="286.19"/>
				<line class="st18" x1="796.23" y1="242.69" x2="796.73" y2="217.79"/>
				<line class="st18" x1="881.73" y1="244.19" x2="755.73" y2="241.79"/>
				<line class="st18" x1="688.73" y1="274.59" x2="676.53" y2="274.39"/>
				<path class="st19" d="M737.03,237.29l0.1-4.5c0,0,14.7-17.4,55.2-14.5l-0.4,20L737.03,237.29z"/>
				<path class="st19" d="M801.53,237.99l0.4-19.6c0,0,30.1-3.5,45.7,2.4c9.2,3.5,18.3,18.9,18.3,18.9L801.53,237.99z"/>
				<line class="st20" x1="836.13" y1="223.99" x2="842.23" y2="229.39"/>
				<line class="st20" x1="840.73" y1="224.09" x2="845.33" y2="228.49"/>
				<g>
					<circle class="st3" cx="743.83" cy="293.39" r="22.5"/>
					<circle class="st17" cx="743.23" cy="292.89" r="11.7"/>
					<path class="st20" d="M758.83,293.19c-0.2,8.7-7.3,15.6-16,15.4"/>
					<path class="st20" d="M727.43,292.59c0.2-8.7,7.3-15.6,16-15.4"/>
				</g>
				<g>
					<circle class="st3" cx="903.63" cy="292.89" r="22.5"/>
					<circle class="st17" cx="903.03" cy="292.39" r="11.7"/>
					<path class="st20" d="M918.63,292.69c-0.2,8.7-7.3,15.6-16,15.4"/>
					<path class="st20" d="M887.23,292.09c0.2-8.7,7.3-15.6,16-15.4"/>
				</g>
				<path class="st18" d="M957.73,266.19c0,0-5.8,3.2-11.8,3.4"/>
			</g>
		</g>
	</g>
</g>
<g>
	<g>
		<g>
			<rect x="1351.72" y="63.76" class="st21" width="407.03" height="200.22"/>
		</g>
		<polygon class="st22" points="1785.93,100.6 1324.52,100.69 1369.61,63.79 1740.83,63.72 		"/>
		<rect x="1472.06" y="101.3" class="st11" width="314.49" height="14.42"/>
		<polygon class="st23" points="1472.06,63.77 1472.06,100.66 1785.93,100.6 1740.83,63.72 		"/>
		<g>
			<polygon class="st21" points="1785.93,100.6 1324.52,100.69 1369.61,63.79 1740.83,63.72 			"/>
			<path class="st21" d="M1319.33,277.74l471.86-0.08l0,14.07l-471.86,0.09L1319.33,277.74z M1335.5,277.74l439.52-0.08l0-13.72
				l-439.52,0.08L1335.5,277.74z M1476.04,241.62l-38.46,0.01l-0.02-113.65l38.46-0.01L1476.04,241.62z M1472.01,196.43l-2.94,0
				l0-23.27l2.94,0L1472.01,196.43z M1484.72,196.43l-2.94,0l0-23.27l2.94,0L1484.72,196.43z M1516.22,241.61l-38.46,0.01
				l-0.02-113.65l38.46-0.01L1516.22,241.61z M1423.93,241.63l-63.5,0.01l-0.02-113.65l63.5-0.01L1423.93,241.63z M1640.16,241.59
				l-107.61,0.02l-0.02-113.65l107.61-0.02L1640.16,241.59z M1413.69,127.98l-1.72,0l0,8.08l-37.34,0.01l0-8.08h-1.72l0,8.08
				l-8.77,0l0,13.6l56.07-0.01l0-13.6l-6.51,0L1413.69,127.98z M1335.86,63.7l184.17-0.03c24.31,0,240.6,0.27,254.56-0.04l0-13.7
				c0,0-426.83-0.24-438.72,0.08L1335.86,63.7z"/>
		</g>
		<g>
			<defs>
				<rect id="SVGID_9_" x="1533.01" y="128.38" width="106.92" height="112.71"/>
			</defs>
			<clipPath id="SVGID_10_">
				<use xlink:href="#SVGID_9_"  style="overflow:visible;"/>
			</clipPath>
			<path class="st24" d="M1506.77,217.34c-1.97,0-3.95-0.66-5.58-2.02c-3.69-3.08-4.18-8.57-1.1-12.26l65.55-78.47
				c7.96-9.54,21.62-12.06,32.47-5.99c11.29,6.33,16.17,20.15,11.35,32.16l-0.02,0.05l-14.92,36.5c-1.64,4.14-0.1,8.86,3.69,11.22
				c3.65,2.28,8.34,1.4,11.42-2.13l28.8-34.36c3.09-3.68,8.58-4.17,12.27-1.08c3.68,3.09,4.17,8.58,1.08,12.26l-28.85,34.42
				c-0.03,0.04-0.06,0.07-0.09,0.11c-8.68,10.03-22.92,12.37-33.84,5.55c-10.96-6.84-15.43-20.5-10.63-32.49
				c0.01-0.02,0.02-0.04,0.02-0.06l14.92-36.51c1.56-3.91-0.04-8.4-3.71-10.46c-3.54-1.98-7.99-1.16-10.59,1.95l-65.56,78.48
				C1511.73,216.27,1509.26,217.34,1506.77,217.34z"/>
		</g>
		<g>
			<path class="st23" d="M1581.69,235.13c0-0.22-0.17-0.41-0.41-0.41c-0.25,0-0.41,0.2-0.41,0.42c0,0.23,0.16,0.42,0.4,0.42
				C1581.53,235.55,1581.69,235.34,1581.69,235.13L1581.69,235.13z M1580.56,233.98h0.32v0.48l0,0.16c0.13-0.17,0.33-0.21,0.45-0.21
				c0.32,0,0.68,0.23,0.68,0.71c0,0.46-0.32,0.73-0.69,0.73c-0.21,0-0.38-0.1-0.45-0.24v0.19h-0.31V233.98z"/>
			<path class="st23" d="M1583.6,235.31c-0.08,0.3-0.35,0.54-0.7,0.54c-0.43,0-0.73-0.33-0.73-0.72c0-0.4,0.31-0.72,0.71-0.72
				c0.34,0,0.63,0.21,0.71,0.55h-0.33c-0.06-0.14-0.19-0.24-0.37-0.24c-0.12,0-0.21,0.04-0.29,0.12c-0.07,0.07-0.11,0.18-0.11,0.3
				c0,0.24,0.17,0.42,0.4,0.42c0.2,0,0.32-0.12,0.37-0.23H1583.6z"/>
			<path class="st23" d="M1584.43,234.82c0-0.07-0.04-0.15-0.17-0.15c-0.11,0-0.16,0.07-0.16,0.14c0,0.09,0.1,0.13,0.23,0.17
				c0.22,0.06,0.45,0.12,0.45,0.41c0.01,0.28-0.23,0.46-0.51,0.46c-0.21,0-0.49-0.11-0.52-0.44h0.32c0.01,0.15,0.14,0.18,0.2,0.18
				c0.1,0,0.19-0.07,0.19-0.16c0-0.12-0.1-0.15-0.35-0.23c-0.18-0.06-0.33-0.16-0.33-0.35c0-0.27,0.22-0.43,0.49-0.43
				c0.18,0,0.45,0.08,0.48,0.41H1584.43z"/>
			<path class="st23" d="M1584.99,234.46h0.24v0.19c0.06-0.11,0.21-0.23,0.41-0.23c0.12,0,0.25,0.04,0.35,0.14
				c0.03,0.03,0.07,0.11,0.09,0.13c0.02-0.04,0.05-0.09,0.1-0.13c0.09-0.09,0.21-0.14,0.36-0.14c0.12,0,0.26,0.03,0.36,0.14
				c0.12,0.12,0.15,0.25,0.15,0.51v0.74h-0.26l0-0.73c0-0.11-0.01-0.22-0.07-0.3c-0.05-0.07-0.12-0.11-0.24-0.11
				c-0.11,0-0.21,0.05-0.26,0.13c-0.05,0.08-0.06,0.16-0.06,0.27v0.74h-0.26v-0.74c0-0.11-0.01-0.19-0.05-0.27
				c-0.05-0.08-0.13-0.13-0.25-0.13c-0.12,0-0.21,0.06-0.25,0.13c-0.05,0.07-0.07,0.17-0.07,0.27v0.74h-0.26V234.46z"/>
			<path class="st23" d="M1588.37,235.02c-0.01-0.18-0.19-0.38-0.44-0.37c-0.26,0-0.43,0.19-0.44,0.37H1588.37z M1587.48,235.22
				c0.01,0.27,0.25,0.41,0.45,0.41c0.18,0,0.31-0.09,0.39-0.23h0.27c-0.06,0.15-0.16,0.26-0.27,0.33c-0.11,0.08-0.25,0.11-0.38,0.11
				c-0.44,0-0.71-0.35-0.71-0.71c0-0.39,0.3-0.71,0.71-0.71c0.19,0,0.37,0.07,0.5,0.2c0.16,0.16,0.22,0.37,0.2,0.6H1587.48z"/>
			<path class="st23" d="M1589.01,235.13c0,0.25,0.18,0.47,0.47,0.47c0.13,0,0.25-0.05,0.34-0.14c0.09-0.09,0.14-0.21,0.13-0.34
				c0-0.13-0.05-0.25-0.14-0.33c-0.08-0.08-0.2-0.13-0.33-0.13C1589.2,234.66,1589.01,234.88,1589.01,235.13L1589.01,235.13z
				 M1590.19,235.81h-0.25v-0.23c-0.07,0.14-0.23,0.27-0.5,0.27c-0.42,0-0.69-0.33-0.69-0.71c0-0.42,0.3-0.71,0.68-0.71
				c0.27,0,0.44,0.15,0.5,0.26v-0.24v-0.47h0.26L1590.19,235.81z"/>
		</g>
		<path class="st23" d="M1590.48,234.46l0,1.34h0.26v-1.34H1590.48z M1590.48,234.25h0.26v-0.27h-0.26V234.25z"/>
		<g>
			<path class="st23" d="M1591.21,235.14c0,0.2,0.14,0.47,0.47,0.47c0.21,0,0.35-0.11,0.42-0.27c0.03-0.06,0.04-0.13,0.05-0.2
				c0-0.07-0.01-0.14-0.04-0.2c-0.06-0.16-0.21-0.28-0.43-0.28C1591.39,234.66,1591.21,234.88,1591.21,235.14L1591.21,235.14z
				 M1592.4,235.81h-0.26v-0.23c-0.09,0.18-0.29,0.27-0.5,0.27c-0.43,0-0.69-0.34-0.69-0.71c0-0.41,0.3-0.71,0.69-0.71
				c0.27,0,0.44,0.15,0.5,0.28v-0.24h0.26V235.81z"/>
			<path class="st25" d="M1582.29,232.97c-0.12,0-0.24-0.04-0.34-0.12c-0.22-0.19-0.25-0.52-0.07-0.74l3.96-4.75
				c0.48-0.58,1.31-0.73,1.96-0.36c0.68,0.38,0.98,1.22,0.69,1.94c0,0,0,0,0,0l-0.9,2.21c-0.1,0.25-0.01,0.54,0.22,0.68
				c0.22,0.14,0.5,0.08,0.69-0.13l1.74-2.08c0.19-0.22,0.52-0.25,0.74-0.07c0.22,0.19,0.25,0.52,0.07,0.74l-1.74,2.08
				c0,0,0,0-0.01,0.01c-0.53,0.61-1.39,0.75-2.05,0.34c-0.66-0.41-0.93-1.24-0.64-1.97l0,0l0.9-2.21c0.09-0.24,0-0.51-0.22-0.63
				c-0.21-0.12-0.48-0.07-0.64,0.12l-3.96,4.75C1582.59,232.9,1582.44,232.97,1582.29,232.97"/>
		</g>
		<rect x="1558.29" y="136.72" class="st11" width="56.36" height="86.89"/>
		<rect x="1558.29" y="136.72" class="st21" width="56.36" height="86.89"/>
		<rect x="1643.99" y="127.93" class="st21" width="107.61" height="113.65"/>
		<g>
			<defs>
				<rect id="SVGID_11_" x="1644.46" y="128.36" width="106.92" height="112.71"/>
			</defs>
			<clipPath id="SVGID_12_">
				<use xlink:href="#SVGID_11_"  style="overflow:visible;"/>
			</clipPath>
			<path class="st26" d="M1610.84,217.32c-1.97,0-3.95-0.66-5.58-2.02c-3.69-3.08-4.18-8.57-1.1-12.26l65.55-78.47
				c7.96-9.55,21.62-12.07,32.47-5.99c11.29,6.32,16.17,20.15,11.35,32.16c-0.01,0.02-0.01,0.03-0.02,0.05l-14.92,36.5
				c-1.64,4.14-0.1,8.86,3.69,11.22c3.65,2.28,8.34,1.4,11.42-2.13l28.8-34.36c3.09-3.68,8.58-4.17,12.27-1.08
				c3.68,3.09,4.17,8.58,1.08,12.26L1727,207.63c-0.03,0.04-0.06,0.07-0.09,0.11c-8.69,10.03-22.92,12.37-33.84,5.55
				c-10.96-6.84-15.43-20.5-10.63-32.49c0.01-0.02,0.02-0.04,0.02-0.06l14.92-36.51c1.56-3.91-0.04-8.4-3.71-10.46
				c-3.54-1.98-7.99-1.16-10.59,1.95l-65.56,78.48C1615.8,216.25,1613.33,217.32,1610.84,217.32z"/>
		</g>
		<g>
			<path class="st23" d="M1693.14,235.1c0-0.22-0.17-0.41-0.41-0.41c-0.25,0-0.41,0.2-0.41,0.42c0,0.23,0.16,0.42,0.4,0.42
				C1692.99,235.53,1693.14,235.32,1693.14,235.1L1693.14,235.1z M1692.01,233.96h0.32l0,0.48v0.16c0.13-0.17,0.33-0.21,0.45-0.21
				c0.32,0,0.68,0.23,0.68,0.71c0,0.46-0.32,0.73-0.69,0.73c-0.21,0-0.38-0.1-0.45-0.24v0.2h-0.31L1692.01,233.96z"/>
			<path class="st23" d="M1695.06,235.29c-0.08,0.3-0.35,0.54-0.7,0.54c-0.43,0-0.73-0.33-0.73-0.72c0-0.4,0.31-0.72,0.71-0.72
				c0.34,0,0.63,0.21,0.71,0.55h-0.33c-0.06-0.14-0.19-0.24-0.37-0.24c-0.12,0-0.21,0.04-0.29,0.12c-0.07,0.07-0.11,0.18-0.11,0.3
				c0,0.24,0.17,0.42,0.4,0.42c0.2,0,0.32-0.12,0.37-0.23H1695.06z"/>
			<path class="st23" d="M1695.89,234.8c0-0.07-0.04-0.15-0.17-0.15c-0.11,0-0.16,0.07-0.16,0.14c0,0.09,0.1,0.13,0.23,0.17
				c0.22,0.06,0.45,0.12,0.45,0.41c0.01,0.28-0.23,0.46-0.51,0.46c-0.21,0-0.49-0.11-0.52-0.44h0.32c0.01,0.15,0.14,0.18,0.2,0.18
				c0.1,0,0.19-0.07,0.19-0.16c0-0.12-0.1-0.15-0.35-0.23c-0.18-0.06-0.33-0.16-0.33-0.35c0-0.27,0.22-0.43,0.49-0.43
				c0.18,0,0.45,0.08,0.48,0.41H1695.89z"/>
			<path class="st23" d="M1696.45,234.44h0.24v0.19c0.06-0.11,0.21-0.23,0.41-0.23c0.12,0,0.25,0.04,0.35,0.14
				c0.03,0.03,0.07,0.11,0.09,0.13c0.02-0.04,0.05-0.09,0.1-0.13c0.09-0.09,0.21-0.14,0.36-0.14c0.12,0,0.26,0.03,0.36,0.14
				c0.12,0.12,0.15,0.25,0.15,0.51v0.74h-0.26l0-0.73c0-0.11-0.01-0.22-0.07-0.3c-0.05-0.07-0.12-0.11-0.24-0.11
				c-0.11,0-0.21,0.05-0.26,0.13c-0.05,0.08-0.06,0.16-0.06,0.27v0.74h-0.26v-0.74c0-0.11-0.01-0.19-0.05-0.27
				c-0.05-0.08-0.13-0.13-0.25-0.13c-0.12,0-0.21,0.06-0.25,0.13c-0.05,0.07-0.07,0.17-0.07,0.27v0.74h-0.26V234.44z"/>
			<path class="st23" d="M1699.83,235c-0.01-0.18-0.19-0.38-0.44-0.37c-0.26,0-0.43,0.19-0.44,0.37H1699.83z M1698.93,235.2
				c0.01,0.27,0.25,0.41,0.45,0.41c0.18,0,0.31-0.09,0.39-0.23h0.27c-0.06,0.15-0.16,0.26-0.27,0.33c-0.11,0.08-0.25,0.11-0.38,0.11
				c-0.44,0-0.71-0.35-0.71-0.71c0-0.39,0.3-0.71,0.71-0.71c0.19,0,0.37,0.07,0.5,0.2c0.16,0.16,0.22,0.37,0.2,0.6H1698.93z"/>
			<path class="st23" d="M1700.47,235.11c0,0.25,0.18,0.47,0.47,0.47c0.13,0,0.25-0.05,0.34-0.14c0.09-0.09,0.14-0.21,0.13-0.34
				c0-0.13-0.05-0.25-0.14-0.33c-0.08-0.08-0.2-0.13-0.33-0.13C1700.65,234.64,1700.47,234.86,1700.47,235.11L1700.47,235.11z
				 M1701.65,235.79h-0.25l0-0.23c-0.07,0.14-0.22,0.27-0.5,0.27c-0.42,0-0.69-0.33-0.69-0.71c0-0.42,0.3-0.71,0.68-0.71
				c0.27,0,0.44,0.15,0.5,0.26v-0.24v-0.47h0.26L1701.65,235.79z"/>
		</g>
		<path class="st23" d="M1701.94,234.44l0,1.34h0.26v-1.34H1701.94z M1701.94,234.23h0.26v-0.27h-0.26V234.23z"/>
		<g>
			<path class="st23" d="M1702.66,235.12c0,0.2,0.14,0.47,0.47,0.47c0.21,0,0.35-0.11,0.42-0.27c0.03-0.06,0.04-0.13,0.05-0.2
				c0-0.07-0.01-0.14-0.04-0.2c-0.06-0.16-0.21-0.28-0.43-0.28C1702.85,234.64,1702.66,234.86,1702.66,235.12L1702.66,235.12z
				 M1703.85,235.78h-0.26v-0.23c-0.09,0.18-0.29,0.27-0.5,0.27c-0.43,0-0.69-0.34-0.69-0.71c0-0.41,0.3-0.71,0.69-0.71
				c0.27,0,0.44,0.15,0.5,0.28v-0.24h0.26V235.78z"/>
			<path class="st25" d="M1693.75,232.95c-0.12,0-0.24-0.04-0.34-0.12c-0.22-0.19-0.25-0.52-0.07-0.74l3.96-4.75
				c0.48-0.58,1.31-0.73,1.96-0.36c0.68,0.38,0.98,1.22,0.69,1.94c0,0,0,0,0,0l-0.9,2.21c-0.1,0.25-0.01,0.54,0.22,0.68
				c0.22,0.14,0.5,0.08,0.69-0.13l1.74-2.08c0.19-0.22,0.52-0.25,0.74-0.07c0.22,0.19,0.25,0.52,0.07,0.74l-1.74,2.08
				c0,0,0,0-0.01,0.01c-0.53,0.61-1.39,0.75-2.05,0.34c-0.66-0.41-0.93-1.24-0.64-1.97c0,0,0,0,0,0l0.9-2.21
				c0.09-0.24,0-0.51-0.22-0.63c-0.21-0.12-0.48-0.07-0.64,0.12l-3.96,4.75C1694.05,232.88,1693.9,232.95,1693.75,232.95"/>
		</g>
		<rect x="1669.74" y="136.7" class="st11" width="56.36" height="86.89"/>
		<rect x="1669.74" y="136.7" class="st21" width="56.36" height="86.89"/>
		<g>
			<defs>
				<polygon id="SVGID_13_" points="1456.82,63.77 1456.82,100.66 1785.93,100.6 1740.83,63.72 				"/>
			</defs>
			<clipPath id="SVGID_14_">
				<use xlink:href="#SVGID_13_"  style="overflow:visible;"/>
			</clipPath>
			<path class="st27" d="M1467.65,108.48c-1.97,0-3.95-0.36-5.58-1.1c-3.69-1.68-4.18-4.68-1.1-6.69l65.56-42.84
				c7.96-5.21,21.62-6.59,32.47-3.27c11.29,3.45,16.17,11,11.35,17.55c-0.01,0.01-0.01,0.02-0.02,0.03l-14.92,19.93
				c-1.65,2.26-0.1,4.84,3.69,6.13c3.65,1.24,8.34,0.76,11.42-1.16l28.8-18.76c3.09-2.01,8.58-2.28,12.27-0.59
				c3.68,1.69,4.17,4.68,1.08,6.69l-28.85,18.79c-0.03,0.02-0.06,0.04-0.09,0.06c-8.69,5.48-22.92,6.75-33.84,3.03
				c-10.96-3.73-15.43-11.19-10.63-17.74c0.01-0.01,0.02-0.02,0.02-0.03l14.92-19.93c1.56-2.13-0.03-4.59-3.71-5.71
				c-3.54-1.08-7.99-0.63-10.59,1.07l-65.56,42.84C1472.61,107.9,1470.14,108.48,1467.65,108.48z"/>
		</g>
		<g>
			<path class="st25" d="M1694.28,106.88c-0.17-0.27-0.38-0.51-0.63-0.71c-0.44-0.35-0.98-0.57-1.64-0.57
				c-1.37,0-2.77,1.04-2.77,2.9c0,1.93,1.41,2.94,2.77,2.94c0.68,0,1.26-0.19,1.7-0.52c0.45-0.33,0.75-0.79,0.88-1.29l-3.18,0v-1.38
				l5.17,0c0.02,0.57-0.06,1.43-0.38,2.15c-0.8,1.78-2.63,2.56-4.16,2.56c-2.55,0-4.5-1.97-4.5-4.45c0-2.55,2.03-4.41,4.52-4.41
				c1.93,0,3.62,1.22,4.18,2.78L1694.28,106.88z"/>
			<path class="st25" d="M1697.71,104.26l2.59,0c1.33,0,2.09,0.21,2.55,0.54c0.7,0.51,1.08,1.37,1.08,2.32
				c0,0.62-0.17,1.18-0.46,1.59c-0.37,0.54-0.85,0.78-1.41,0.92l1.9,3.16l-1.8,0l-2.3-3.97l0.33,0c0.57,0,1.18-0.04,1.54-0.31
				c0.33-0.28,0.54-0.73,0.54-1.25c0-0.52-0.25-0.99-0.64-1.23c-0.31-0.2-0.73-0.27-1.21-0.27l-1,0l0,7.03h-1.72L1697.71,104.26z"/>
			<path class="st25" d="M1706.33,108.52c0,1.56,1.12,2.92,2.78,2.92c1.73,0,2.75-1.5,2.75-2.91c0-1.43-1.01-2.93-2.76-2.93
				c-1.71,0-2.77,1.41-2.77,2.91L1706.33,108.52z M1704.61,108.6c0-2.74,2.1-4.5,4.48-4.5c2.59,0,4.49,2.01,4.49,4.43
				c0,2.42-1.89,4.43-4.5,4.43c-2.62,0-4.47-2.06-4.47-4.35V108.6z"/>
			<path class="st25" d="M1723.09,109.93c-0.52,1.77-2.18,3.02-4.18,3.02c-2.61,0-4.48-2.07-4.48-4.44c0-2.27,1.77-4.42,4.47-4.42
				c2.46,0.01,3.86,1.82,4.19,3.07l-1.81,0c-0.27-0.59-1.03-1.55-2.39-1.56c-1.66,0-2.73,1.4-2.73,2.91c0,1.56,1.12,2.93,2.75,2.93
				c1.52,0,2.22-1.2,2.38-1.51L1723.09,109.93z"/>
		</g>
		<polygon class="st25" points="1724.25,104.25 1729.05,104.25 1729.04,105.76 1725.98,105.76 1725.98,107.7 1728.99,107.7 
			1728.99,109.21 1725.98,109.21 1725.98,111.28 1729.05,111.28 1729.05,112.79 1724.26,112.79 		"/>
		<g>
			<path class="st25" d="M1730.37,104.25h2.59c1.33,0,2.09,0.21,2.55,0.54c0.7,0.51,1.08,1.37,1.08,2.32c0,0.62-0.17,1.18-0.46,1.59
				c-0.37,0.54-0.85,0.78-1.41,0.92l1.9,3.16l-1.8,0l-2.3-3.97h0.34c0.57,0,1.18-0.04,1.53-0.31c0.33-0.28,0.54-0.73,0.54-1.25
				c0-0.52-0.25-0.99-0.64-1.24c-0.31-0.19-0.73-0.26-1.21-0.26l-1,0l0,7.03h-1.72L1730.37,104.25z"/>
		</g>
		<polygon class="st25" points="1739.34,109.73 1736.72,104.25 1738.58,104.25 1740.19,108.13 1741.82,104.25 1743.67,104.25 
			1741.06,109.73 1741.06,112.79 1739.34,112.79 		"/>
		<g>
			<path class="st25" d="M1750.54,109c-0.66,0.36-1.03,0.8-1.04,1.35c0.01,0.67,0.55,1.14,1.28,1.14c0.72,0,1.07-0.37,1.35-0.89
				L1750.54,109z M1750.92,105.33c-0.42,0-0.74,0.33-0.74,0.79c0,0.51,0.38,0.86,0.65,1.15c0.51-0.32,0.87-0.61,0.87-1.15
				c0-0.41-0.29-0.78-0.76-0.78L1750.92,105.33z M1755.38,107.67l-1.43,2.7l1.52,1.56l-1.03,1.02l-1.32-1.35
				c-0.36,0.66-1.03,1.35-2.41,1.35c-1.78,0-2.87-1.12-2.87-2.45c0-1.33,1.05-2.02,1.75-2.44c-0.59-0.61-0.9-1.19-0.9-1.87
				c0-1.18,0.97-2.11,2.21-2.11c1.26,0,2.16,0.92,2.16,2.04c0,1.13-0.84,1.66-1.37,1.97l1.25,1.27l0.84-1.7L1755.38,107.67z"/>
			<path class="st25" d="M1761.89,111.27l1.21,0c1.85,0,2.56-1.21,2.56-2.75c0-0.67-0.17-1.38-0.58-1.92
				c-0.36-0.46-0.94-0.85-1.97-0.85l-1.22,0L1761.89,111.27z M1760.17,104.25l2.71,0c1.06,0,2.61,0.1,3.62,1.48
				c0.62,0.78,0.88,1.73,0.88,2.78c0,2.41-1.27,4.28-4.37,4.28l-2.84,0L1760.17,104.25z"/>
		</g>
		<polygon class="st25" points="1768.61,104.24 1773.4,104.24 1773.4,105.75 1770.33,105.76 1770.33,107.69 1773.34,107.69 
			1773.34,109.2 1770.33,109.21 1770.33,111.27 1773.4,111.27 1773.4,112.78 1768.61,112.78 		"/>
		<polygon class="st25" points="1774.79,104.24 1776.51,104.24 1776.51,111.27 1779.32,111.27 1779.32,112.78 1774.79,112.78 		"/>
		<rect x="1780.19" y="104.24" class="st25" width="1.72" height="8.54"/>
		<path class="st25" d="M1819.54,142.51l0,1.57h0.3l0-1.57L1819.54,142.51z M1819.54,141.94l0,0.32l0.3,0v-0.32L1819.54,141.94z"/>
		<g>
			<rect x="1323.9" y="101.32" class="st22" width="462.64" height="14.42"/>
		</g>
	</g>
</g>
<g>
	<g>
		<path class="st11" d="M1877.17,282.39l-59.33-0.16c-5.25-0.01-9.5-4.29-9.49-9.54l0.41-150.42c0.01-5.25,4.29-9.5,9.54-9.49
			l59.33,0.16c5.25,0.01,9.5,4.29,9.49,9.54l-0.41,150.42C1886.7,278.16,1882.43,282.41,1877.17,282.39"/>
		<path class="st28" d="M1877.17,282.39l-59.33-0.16c-5.25-0.01-9.5-4.29-9.49-9.54l0.41-150.42c0.01-5.25,4.29-9.5,9.54-9.49
			l59.33,0.16c5.25,0.01,9.5,4.29,9.49,9.54l-0.41,150.42C1886.7,278.16,1882.43,282.41,1877.17,282.39z"/>
		<path class="st11" d="M1876.38,231.06l-57.46-0.16c-2.12-0.01-3.83-1.73-3.83-3.85l0.28-101.03c0.01-2.12,1.73-3.83,3.85-3.83
			l57.46,0.16c2.12,0.01,3.83,1.73,3.83,3.85l-0.28,101.03C1880.22,229.35,1878.5,231.06,1876.38,231.06"/>
		<path class="st28" d="M1876.38,231.06l-57.46-0.16c-2.12-0.01-3.83-1.73-3.83-3.85l0.28-101.03c0.01-2.12,1.73-3.83,3.85-3.83
			l57.46,0.16c2.12,0.01,3.83,1.73,3.83,3.85l-0.28,101.03C1880.22,229.35,1878.5,231.06,1876.38,231.06z"/>
		<path class="st11" d="M1893.68,292.86l-92.4-0.25c-1.42,0-2.56-1.15-2.56-2.57l0.01-5.3c0-1.42,1.16-2.56,2.57-2.56l92.4,0.25
			c1.42,0,2.56,1.15,2.56,2.57l-0.01,5.3C1896.25,291.72,1895.1,292.87,1893.68,292.86"/>
		<path class="st28" d="M1893.68,292.86l-92.4-0.25c-1.42,0-2.56-1.15-2.56-2.57l0.01-5.3c0-1.42,1.16-2.56,2.57-2.56l92.4,0.25
			c1.42,0,2.56,1.15,2.56,2.57l-0.01,5.3C1896.25,291.72,1895.1,292.87,1893.68,292.86z"/>
		<path class="st23" d="M1835.6,265c0-0.58-0.44-1.07-1.06-1.07c-0.65,0-1.06,0.51-1.06,1.08c0,0.59,0.41,1.09,1.04,1.09
			C1835.21,266.09,1835.6,265.55,1835.6,265L1835.6,265z M1832.67,262.03l0.84,0l0,1.23l0,0.42c0.34-0.43,0.85-0.54,1.17-0.54
			c0.83,0,1.75,0.61,1.75,1.85c0,1.19-0.83,1.88-1.79,1.88c-0.55,0-0.98-0.27-1.17-0.61l0,0.51l-0.81,0L1832.67,262.03z"/>
		<path class="st23" d="M1840.57,265.48c-0.2,0.78-0.89,1.39-1.8,1.39c-1.11,0-1.88-0.86-1.88-1.87c0-1.04,0.8-1.86,1.85-1.86
			c0.88,0,1.63,0.55,1.84,1.41l-0.86,0c-0.15-0.37-0.49-0.63-0.95-0.63c-0.31-0.01-0.54,0.1-0.75,0.3
			c-0.18,0.19-0.29,0.47-0.29,0.78c0,0.63,0.44,1.08,1.04,1.08c0.52,0,0.82-0.31,0.95-0.6L1840.57,265.48z"/>
		<path class="st23" d="M1842.72,264.19c-0.01-0.19-0.1-0.38-0.43-0.38c-0.28,0-0.42,0.18-0.42,0.35c0.01,0.22,0.26,0.34,0.59,0.44
			c0.56,0.15,1.17,0.32,1.18,1.07c0.01,0.72-0.59,1.18-1.33,1.18c-0.54,0-1.28-0.28-1.34-1.13l0.84,0c0.03,0.38,0.36,0.45,0.52,0.45
			c0.26,0,0.49-0.17,0.48-0.41c0-0.3-0.26-0.38-0.91-0.61c-0.47-0.15-0.86-0.41-0.86-0.91c0-0.69,0.58-1.12,1.26-1.12
			c0.47,0,1.18,0.21,1.25,1.05L1842.72,264.19z"/>
		<path class="st23" d="M1844.16,263.27l0.63,0l0,0.49c0.15-0.29,0.55-0.6,1.05-0.6c0.32,0,0.65,0.1,0.9,0.37
			c0.09,0.09,0.19,0.27,0.22,0.34c0.06-0.1,0.13-0.22,0.25-0.35c0.22-0.22,0.54-0.36,0.92-0.37c0.32,0,0.68,0.09,0.93,0.35
			c0.31,0.31,0.38,0.65,0.38,1.31l0,1.92h-0.67l0-1.89c0-0.29-0.04-0.58-0.19-0.77c-0.12-0.18-0.31-0.29-0.62-0.29
			c-0.29,0-0.54,0.12-0.67,0.33c-0.14,0.22-0.16,0.41-0.16,0.7l0,1.92l-0.67,0l0-1.92c0.01-0.29-0.03-0.5-0.14-0.69
			c-0.13-0.2-0.33-0.34-0.66-0.34c-0.31-0.01-0.54,0.15-0.66,0.34c-0.13,0.19-0.18,0.43-0.18,0.71l0,1.91l-0.67,0L1844.16,263.27z"
			/>
		<path class="st23" d="M1852.92,264.7c-0.03-0.46-0.49-0.98-1.15-0.96c-0.68,0-1.12,0.49-1.15,0.97L1852.92,264.7z M1850.6,265.22
			c0.03,0.7,0.65,1.06,1.17,1.06c0.47,0,0.81-0.22,1-0.59l0.69,0c-0.17,0.38-0.41,0.67-0.7,0.86c-0.29,0.2-0.64,0.29-0.99,0.3
			c-1.14,0-1.84-0.91-1.84-1.83c0-1,0.78-1.85,1.83-1.85c0.5,0,0.95,0.18,1.29,0.51c0.41,0.42,0.58,0.96,0.53,1.54L1850.6,265.22z"
			/>
		<path class="st23" d="M1854.57,265c0.01,0.64,0.46,1.22,1.22,1.22c0.34,0,0.65-0.14,0.87-0.37c0.22-0.22,0.35-0.53,0.34-0.88
			c0-0.35-0.13-0.65-0.35-0.86c-0.22-0.22-0.52-0.34-0.86-0.34C1855.05,263.78,1854.56,264.34,1854.57,265L1854.57,265z
			 M1857.62,266.74l-0.64,0l0-0.61c-0.19,0.36-0.58,0.71-1.3,0.71c-1.09,0-1.78-0.84-1.79-1.85c0-1.08,0.78-1.84,1.77-1.84
			c0.71,0,1.15,0.4,1.29,0.67l0-0.61l0-1.21l0.67,0L1857.62,266.74z"/>
	</g>
	<path class="st23" d="M1858.37,263.26l0,3.48h0.67l0-3.48L1858.37,263.26z M1858.37,262.01l0,0.7l0.67,0l0-0.7L1858.37,262.01z"/>
	<g>
		<path class="st23" d="M1860.25,265.01c0.01,0.52,0.37,1.21,1.22,1.21c0.53,0,0.91-0.3,1.08-0.69c0.08-0.16,0.11-0.34,0.12-0.52
			c0.01-0.18-0.03-0.36-0.1-0.52c-0.17-0.4-0.56-0.72-1.11-0.72C1860.72,263.77,1860.25,264.35,1860.25,265.01L1860.25,265.01z
			 M1863.33,266.73l-0.67,0l0-0.61c-0.24,0.47-0.74,0.71-1.29,0.71c-1.12,0-1.79-0.87-1.79-1.84c0-1.06,0.77-1.84,1.78-1.84
			c0.69,0,1.13,0.38,1.29,0.71l0-0.61l0.67,0L1863.33,266.73z"/>
		<path class="st12" d="M1837.16,259.41c-0.31,0-0.62-0.1-0.87-0.32c-0.58-0.48-0.66-1.34-0.17-1.92l10.25-12.3
			c1.25-1.5,3.38-1.89,5.08-0.94c1.77,0.99,2.53,3.15,1.78,5.03c0,0,0,0.01,0,0.01l-2.33,5.72c-0.26,0.65-0.01,1.39,0.58,1.76
			c0.57,0.36,1.31,0.22,1.79-0.33l4.5-5.38c0.48-0.58,1.34-0.65,1.92-0.17c0.58,0.48,0.65,1.34,0.17,1.92l-4.51,5.39
			c0,0.01-0.01,0.01-0.01,0.02c-1.36,1.57-3.59,1.94-5.3,0.87c-1.72-1.07-2.42-3.21-1.67-5.09c0,0,0-0.01,0-0.01l2.33-5.72
			c0.24-0.61-0.01-1.32-0.58-1.64c-0.55-0.31-1.25-0.18-1.66,0.31l-10.25,12.3C1837.94,259.24,1837.55,259.41,1837.16,259.41"/>
	</g>
</g>
</svg>
