<?xml version="1.0" encoding="utf-8"?>
<!-- Generator: Adobe Illustrator 25.0.1, SVG Export Plug-In . SVG Version: 6.00 Build 0)  -->
<svg version="1.1" id="Layer_1" xmlns="http://www.w3.org/2000/svg" xmlns:xlink="http://www.w3.org/1999/xlink" x="0px" y="0px"
	 viewBox="0 0 1920 356.3" style="enable-background:new 0 0 1920 356.3;" xml:space="preserve">
<style type="text/css">
	.st0{clip-path:url(#SVGID_2_);}
	.st1{clip-path:url(#SVGID_4_);fill:none;stroke:#CE0E2D;stroke-miterlimit:10;}
	.st2{clip-path:url(#SVGID_6_);}
	.st3{fill:#CE0E2D;stroke:#CE0E2D;stroke-miterlimit:10;}
	.st4{clip-path:url(#SVGID_8_);fill:none;stroke:#CE0E2D;stroke-miterlimit:10;}
	.st5{fill:none;stroke:#CE0E2D;stroke-miterlimit:10;}
	.st6{fill:none;stroke:#A7A9AC;stroke-miterlimit:10;}
	.st7{fill:none;stroke:#231F20;stroke-miterlimit:10;}
	.st8{fill:#FFFFFF;stroke:#CE0E2D;stroke-miterlimit:10;}
	.st9{fill:#7F7F7F;}
	.st10{fill:#BCBEC0;}
	.st11{fill:#FFFFFF;}
	.st12{fill:#CF2031;}
	.st13{fill:none;stroke:#CF2031;stroke-width:1;stroke-miterlimit:10.0002;}
	.st14{fill:none;stroke:#CF2031;stroke-miterlimit:10;}
	.st15{fill:none;stroke:#BCBEC0;stroke-miterlimit:10;}
	.st16{fill:none;stroke:#BCBEC0;stroke-width:1;stroke-miterlimit:10.0001;}
	.st17{fill:#FFFFFF;stroke:#3E3E3F;stroke-miterlimit:10;}
	.st18{fill:none;stroke:#3E3E3F;stroke-miterlimit:10;}
	.st19{fill:#F6A0AB;}
	.st20{fill:none;stroke:#FFFFFF;stroke-miterlimit:10;}
	.st21{fill:none;stroke:#CF2030;stroke-width:0.75;stroke-miterlimit:10;}
	.st22{fill:#231F20;stroke:#CF2030;stroke-width:0.75;stroke-miterlimit:10;}
	.st23{fill:#231F20;}
	.st24{clip-path:url(#SVGID_10_);fill:#CF2030;}
	.st25{fill:#CF2030;}
	.st26{clip-path:url(#SVGID_12_);fill:#CF2030;}
	.st27{clip-path:url(#SVGID_14_);fill:#CF2030;}
	.st28{fill:none;stroke:#CF2031;stroke-width:0.75;stroke-miterlimit:10;}
	.st29{fill:none;stroke:#CF202E;stroke-width:0.2845;stroke-miterlimit:10;}
	.st30{fill:#F6FAFD;}
	.st31{fill:#CF202E;}
	.st32{fill:none;stroke:#CF202E;stroke-width:0.2845;stroke-linecap:round;stroke-linejoin:round;stroke-miterlimit:10;}
	.st33{fill:#FFFFFF;stroke:#CF202E;stroke-width:0.2845;stroke-miterlimit:10;}
	.st34{fill:none;stroke:#CF202E;stroke-width:0.3794;stroke-miterlimit:10;}
	.st35{clip-path:url(#SVGID_16_);fill:#FFFFFF;}
	.st36{clip-path:url(#SVGID_16_);fill:#CF202E;}
</style>
<g>
	<g>
		<defs>
			<polygon id="SVGID_1_" points="1926.07,392.36 -13.33,390.46 -7.33,29.26 1912.67,29.26 			"/>
		</defs>
		<clipPath id="SVGID_2_">
			<use xlink:href="#SVGID_1_"  style="overflow:visible;"/>
		</clipPath>
		<g class="st0">
			<g>
				<g>
					<defs>
						<polygon id="SVGID_3_" points="894.58,-723.11 1799.18,359.99 347.98,1576.29 -649.42,467.49 						"/>
					</defs>
					<clipPath id="SVGID_4_">
						<use xlink:href="#SVGID_3_"  style="overflow:visible;"/>
					</clipPath>
					<path class="st1" d="M1203.18,244.99l-21.1-0.3v3.7l-9.5-0.1l0.1-10l-9.5-0.1l0.2-12.7l-35.4-0.4l-0.1,7.9l-6.3-0.1l-0.1,6.9
						l-6.3-0.1l0.4-33.8l-14.8-0.2l-0.1,5.3l-23.3-0.3l-0.1,7.4l-7.4-0.1l0.1-11.1l-35.9-0.4l-0.2,18l-18-0.2l0.2-26.1l-49.6-1
						l-0.4,33.3l-8.5-0.1l0.4-35.9l-6.3-0.1l0.1-6.3l-8.5-0.1l-0.1,7.4l-4.2-0.1l-0.2,20.1h-3.7l-0.3,25.9l-5.3-0.1l0.2-14.3
						l-6.3-0.1l1.2-99.9l-5.3-0.1l0.1-11.1l-46.5-0.6l-0.1,11.6h-3.7l0.5-40.2l-18.5-0.2l0.1-6.3l-12.7-0.2l-0.1,7.9l-5.8-0.1
						l-1,80.4l-11.1-0.1l0.4-31.7l-4.2-0.1l0.3-22.2l-2.6-2.7l0.5-40.2l-6.3-0.1l0.2-19l-21.1-0.3l-0.2,16.4l-5.3-0.1l-0.1,7.4
						l-4.8-0.1l-0.5,43.3l-6.9-0.1l0.2-19.6l-51.8-0.6l-0.3,25.4l-13.2-0.2l0.1-4.8l-9-0.1l-0.1,7.4l-17.4-0.2l0.2-12.2l-14.3-0.2
						l0.1-9l-10-0.1l-0.1,6.9l-29.6-0.4l-1,81.4l-15.3-0.2l-0.1,8.5l-7.9-0.1l-0.1,7.7l-20.6-0.3l-0.2,18.2l-4.8-0.1l0.5-71.7
						l-43.3-0.5l-0.2,13.2l-25.4-0.3l-0.6,46l-16.4-0.2l0.1-5.6l-11.6-0.1l0.1-8.2l-31.7-0.4l-0.1,8.2l-16.4-0.2l-0.1,6.6l-6.3-0.1
						l0.8-66.1l-56-0.7l-0.9,71.9l-13.7-0.2l0.4-28.5l-23.3-0.3l-0.4,34.9l-503.2-21.7"/>
				</g>
				<g>
					<defs>
						<polygon id="SVGID_5_" points="894.58,-723.11 2002.68,373.02 347.98,1576.29 -649.42,467.49 						"/>
					</defs>
					<clipPath id="SVGID_6_">
						<use xlink:href="#SVGID_5_"  style="overflow:visible;"/>
					</clipPath>
					<g class="st2">
						<path class="st3" d="M-103.2,616.04c-23.3-27.8-37.3-63.6-37.3-102.7c-0.1-88.5,53.6-159.3,142.2-159.4l1900.8-2.4
							c228.9-0.3,425.8,162.8,468.1,387.8c44,234.1-93.6,466.4-320.1,540.2c-0.3,0.1-0.6,0.2-1,0.3l-691.8,220.6
							c-78,25.7-126.3,103.3-114.9,184.7c11,78.4,78.8,134.2,165,136.2l825.4,0.8c88.5,0.1,160.3,71.9,160.2,160.5
							c-0.1,88.5-71.9,160.2-160.5,160.2l-826.9-0.8c-0.9,0-1.7,0-2.6,0c-244.3-4.1-445.4-177.6-478.2-412.4
							c-32.9-235.5,149.6-395.1,333.3-534c0.3-0.2,0.7-0.2,1.1-0.4l691.9-220.6c73.6-24.2,118.3-99.8,104-176
							c-13.8-73.4-78-126.6-152.7-126.4l-1882.9,1.3C-29.6,673.54-73.8,651.24-103.2,616.04z"/>
					</g>
				</g>
				<g>
					<defs>
						<polygon id="SVGID_7_" points="894.58,-723.11 1799.18,359.99 347.98,1576.29 -649.42,467.49 						"/>
					</defs>
					<clipPath id="SVGID_8_">
						<use xlink:href="#SVGID_7_"  style="overflow:visible;"/>
					</clipPath>
					<path class="st4" d="M459.98,1597.59c14.6-230,208.5-446,437.4-473.9"/>
				</g>
			</g>
			<line class="st5" x1="495.13" y1="709.79" x2="1167.23" y2="710.69"/>
			<line class="st6" x1="-298.47" y1="302.69" x2="62.43" y2="303.19"/>
			<g>
				<path class="st5" d="M295.63,222.29"/>
				<path class="st5" d="M274.73-48.41"/>
			</g>
			<g>
				<line class="st6" x1="1071.63" y1="298.99" x2="1136.83" y2="299.29"/>
			</g>
			<g>
				<path class="st5" d="M1237.73,777.09"/>
				<line class="st7" x1="565.23" y1="311.39" x2="630.43" y2="311.79"/>
			</g>
			<g>
				<path class="st6" d="M1022.63,723.49"/>
				<line class="st6" x1="350.23" y1="257.79" x2="415.43" y2="258.09"/>
			</g>
			<g>
				<path class="st6" d="M1027.63,741.19"/>
				<line class="st6" x1="355.13" y1="275.49" x2="384.63" y2="275.59"/>
			</g>
			<g>
				<path class="st6" d="M975.03,752.09"/>
				<line class="st6" x1="302.53" y1="286.39" x2="367.73" y2="286.69"/>
			</g>
			<g>
				<circle class="st5" cx="1000.93" cy="128.59" r="41.4"/>
				<polyline class="st5" points="1015.43,102.79 1000.93,128.59 1019.93,128.59 				"/>
			</g>
			<g>
				<path class="st5" d="M484.23,264.19c-8.7-0.1-15.7,6.9-15.8,15.6s6.9,15.7,15.6,15.8c8.7,0.1,15.7-6.9,15.8-15.6
					C499.83,271.29,492.83,264.29,484.23,264.19z M480.03,288.39c0-5.6,0.1-11.1,0.1-16.7l11.6,8.4L480.03,288.39z"/>
			</g>
			<g>
				<circle class="st5" cx="218.53" cy="176.39" r="12.6"/>
				<circle class="st5" cx="215.03" cy="261.39" r="12.6"/>
				<circle class="st8" cx="237.03" cy="219.69" r="12.6"/>
				<line class="st5" x1="224.43" y1="219.09" x2="-399.87" y2="192.89"/>
				<polyline class="st5" points="206.33,251.99 190.23,234.49 165.03,233.39 				"/>
				<polyline class="st5" points="209.13,184.89 191.63,200.99 166.53,199.89 				"/>
				<circle class="st5" cx="176.93" cy="170.59" r="12.6"/>
				<polyline class="st5" points="167.33,178.89 145.53,198.99 -398.17,174.99 				"/>
				<circle class="st5" cx="173.23" cy="263.69" r="12.6"/>
				<polyline class="st5" points="164.23,254.39 144.13,232.59 -398.17,211.19 				"/>
				<polyline class="st5" points="151.23,262.19 134.53,261.49 122.43,248.39 -398.17,226.89 				"/>
				<polyline class="st5" points="155.13,169.99 138.33,169.29 125.23,181.39 -410.17,157.29 				"/>
			</g>
			<g>
				<g>
					<path class="st9" d="M1033.83,296.89l-0.1-12.3c0-0.8-0.7-1.5-1.5-1.4l-8.8,0.1c-0.8,0-1.5,0.7-1.4,1.5l0.1,12.3h2.2l-0.1-11.6
						h7.3l0.1,11.6L1033.83,296.89z"/>
					<path class="st9" d="M1047.93,296.79l-0.1-18.1c0-0.8-0.7-1.5-1.5-1.4l-8.8,0.1c-0.8,0-1.5,0.7-1.4,1.5l0.1,18.1h2.1l-0.1-17.6
						h7.3l0.1,17.6L1047.93,296.79z"/>
					<path class="st9" d="M1052.43,269.79h6.9l0.2,27h2.4l-0.2-27.7c0-0.8-0.7-1.5-1.5-1.4l-8.8,0.1c-0.8,0-1.5,0.7-1.4,1.5
						l0.2,27.7h2.3L1052.43,269.79z"/>
					
						<rect x="1017.16" y="298.79" transform="matrix(1 -6.013200e-03 6.013200e-03 1 -1.7836 6.2718)" class="st9" width="49.9" height="1.9"/>
					<path class="st9" d="M1017.93,282.89c0.3,0,0.7-0.3,1-0.5l19.1-15.5l4.2,5.3c0.3,0.4,0.7,0.6,1.2,0.6c0.1,0,0.2,0,0.3,0
						c0.6-0.1,1-0.5,1.2-1l4.4-13.6c0.2-0.5,0.1-1-0.3-1.4c-0.3-0.4-0.8-0.6-1.4-0.6l-14.2,1.5c-0.6,0.1-1,0.4-1.3,0.9
						c-0.2,0.5-0.1,1.1,0.2,1.5l4.4,5.2l-19.1,15.5c-0.7,0.5-1.2,1.1-0.7,1.8C1017.33,282.99,1017.53,282.89,1017.93,282.89z
						 M1046.93,258.19l-3.8,11.6l-8.3-10.3L1046.93,258.19z"/>
				</g>
			</g>
			<g>
				<path class="st9" d="M343.73,111.39h-4.9v-5.2c0-0.8-0.6-1.4-1.4-1.4h-4.9v-5.2c0-0.8-0.6-1.4-1.4-1.4l-56.2,0.2
					c-0.8,0-1.4,0.6-1.4,1.4l0.1,46.3c0,0.8,0.6,1.4,1.4,1.4h4.9v5.2c0,0.8,0.6,1.4,1.4,1.4h4.9v5.2c0,0.8,0.6,1.4,1.4,1.4l56.2-0.2
					c0.8,0,1.4-0.6,1.4-1.4l-0.1-46.3C345.13,111.99,344.53,111.39,343.73,111.39z M342.43,119.49l-53.5,0.2v-5.4l53.5-0.2V119.49z
					 M276.43,144.79l-0.1-43.6l53.5-0.2v3.9l-48.5,0.1c-0.8,0-1.4,0.6-1.4,1.4l0.1,38.4L276.43,144.79z M282.73,151.39l-0.1-43.6
					l53.5-0.2v3.9l-48.5,0.1c-0.8,0-1.4,0.6-1.4,1.4l0.1,38.4L282.73,151.39z M289.13,157.89l-0.1-35.5l53.5-0.2l0.1,35.5
					L289.13,157.89z"/>
				<path class="st9" d="M294.33,118.09h5.8c0.8,0,1.4-0.6,1.4-1.4s-0.6-1.4-1.4-1.4h-5.8c-0.8,0-1.4,0.6-1.4,1.4
					S293.53,118.09,294.33,118.09z"/>
				<path class="st9" d="M333.53,117.99c0.4,0,0.7-0.1,1-0.4s0.4-0.6,0.4-1s-0.1-0.7-0.4-1c-0.3-0.3-0.6-0.4-1-0.4s-0.7,0.1-1,0.4
					s-0.4,0.6-0.4,1s0.1,0.7,0.4,1C332.83,117.89,333.23,117.99,333.53,117.99z"/>
				<path class="st9" d="M338.43,117.99c0.4,0,0.7-0.1,1-0.4s0.4-0.6,0.4-1s-0.1-0.7-0.4-1c-0.3-0.3-0.6-0.4-1-0.4s-0.7,0.1-1,0.4
					s-0.4,0.6-0.4,1s0.1,0.7,0.4,1S338.03,117.99,338.43,117.99z"/>
			</g>
			<g>
				<path class="st10" d="M601.83,85.19c1.3-2,2-4,2.2-6.3c0.7-7.4-4.8-13.9-12.2-14.6c-7.4-0.7-13.9,4.8-14.6,12.2
					c-0.2,2.2,0.2,4.3,1.1,6.6l0,0c0,0,0.1,0.2,0.2,0.5c0,0.1,0.1,0.2,0.1,0.3c0,0,0,0.1,0.1,0.1c0.2,0.4,0.5,0.9,0.9,1.5
					c0.2,0.3,0.5,0.7,0.7,1.1c0.8,1.3,1.9,2.8,2.1,3.7c0.6,2.1,0.6,3.6,0.6,3.6c0,0.6,0.5,1.2,1.1,1.2l4.9,0.4l4.9,0.4
					c0.6,0.1,1.2-0.4,1.3-1c0,0,0.3-1.5,1.2-3.4c0.4-0.8,1.7-2.2,2.8-3.3c0.3-0.3,0.6-0.6,0.9-0.9c0.5-0.5,0.8-1,1.1-1.3l0.1-0.1
					c0.1-0.1,0.1-0.2,0.2-0.2C601.73,85.39,601.83,85.19,601.83,85.19L601.83,85.19z M597.43,86.49c-1.3,1.3-2.6,2.7-3.2,3.9
					c-0.6,1.2-0.9,2.2-1.1,3l-3.8-0.3l-3.8-0.3c-0.1-0.8-0.2-1.8-0.6-3.1c-0.4-1.3-1.4-2.9-2.5-4.4c-0.2-0.4-0.5-0.7-0.7-1
					c-0.4-0.7-0.7-1.2-0.9-1.6c-0.9-2-1.3-3.9-1.1-5.8c0.5-6,5.9-10.5,11.9-10s10.5,5.9,10,11.9c-0.2,2-0.9,3.7-2.1,5.6
					c-0.2,0.3-0.6,0.8-1.2,1.4C598.03,85.89,597.73,86.19,597.43,86.49z"/>
				<path class="st10" d="M594.53,98.59c0.1-0.7-0.4-1.3-1.1-1.3l-8.9-0.8c-0.7-0.1-1.3,0.4-1.3,1.1v0.5c-0.1,0.4-0.3,2.4,1,4
					c0.9,1.2,2.3,1.9,4.2,2c1.9,0.2,3.4-0.3,4.5-1.3c1.5-1.4,1.7-3.3,1.7-3.8L594.53,98.59z M591.13,101.09
					c-0.6,0.5-1.5,0.7-2.6,0.6s-2-0.5-2.4-1.1c-0.4-0.5-0.5-1.1-0.5-1.6l6.4,0.6C591.83,99.99,591.63,100.59,591.13,101.09z"/>
				<path class="st10" d="M592.13,60.49c0.7,0.1,1.3-0.4,1.3-1.1l0.4-5c0.1-0.7-0.4-1.3-1.1-1.3c-0.7-0.1-1.3,0.4-1.3,1.1l-0.4,5
					C591.03,59.89,591.53,60.49,592.13,60.49z"/>
				<path class="st10" d="M577.63,64.39c0.2,0.3,0.5,0.4,0.8,0.4s0.6-0.1,0.9-0.3c0.5-0.4,0.6-1.2,0.2-1.7l-3.2-3.8
					c-0.4-0.5-1.2-0.6-1.7-0.2c-0.5,0.4-0.6,1.2-0.2,1.7L577.63,64.39z"/>
				<path class="st10" d="M573.13,76.49c0.1-0.7-0.4-1.3-1.1-1.3l-5-0.4c-0.7-0.1-1.3,0.4-1.3,1.1c-0.1,0.7,0.4,1.3,1.1,1.3l5,0.4
					C572.43,77.59,573.03,77.09,573.13,76.49z"/>
				<path class="st10" d="M575.43,89.09l-3.8,3.2c-0.5,0.4-0.6,1.2-0.2,1.7c0.2,0.3,0.5,0.4,0.8,0.4s0.6-0.1,0.9-0.3l3.8-3.2
					c0.5-0.4,0.6-1.2,0.2-1.7C576.73,88.79,575.93,88.69,575.43,89.09z"/>
				<path class="st10" d="M603.63,91.59c-0.4-0.5-1.2-0.6-1.7-0.2s-0.6,1.2-0.2,1.7l3.2,3.8c0.2,0.3,0.5,0.4,0.8,0.4
					s0.6-0.1,0.9-0.3c0.5-0.4,0.6-1.2,0.2-1.7L603.63,91.59z"/>
				<path class="st10" d="M614.43,78.89l-5-0.4c-0.7-0.1-1.3,0.4-1.3,1.1c-0.1,0.7,0.4,1.3,1.1,1.3l5,0.4c0.7,0.1,1.3-0.4,1.3-1.1
					C615.53,79.59,615.03,78.99,614.43,78.89z"/>
				<path class="st10" d="M604.93,67.19c0.3,0,0.6-0.1,0.9-0.3l3.8-3.2c0.5-0.4,0.6-1.2,0.2-1.7c-0.4-0.5-1.2-0.6-1.7-0.2l-3.8,3.2
					c-0.5,0.4-0.6,1.2-0.2,1.7C604.33,66.99,604.63,67.19,604.93,67.19z"/>
				<path class="st10" d="M589.83,86.99c-0.4,0-0.7,0.1-1.1,0.3c-0.3,0.3-0.5,0.6-0.5,1s0.1,0.7,0.3,1c0.3,0.3,0.6,0.5,1,0.5
					s0.7-0.1,1-0.3c0.3-0.3,0.5-0.6,0.5-1s-0.1-0.8-0.3-1.1C590.53,87.19,590.23,87.09,589.83,86.99z"/>
				<path class="st10" d="M591.33,70.59c-1.1-0.1-2.1,0.2-2.9,1c-0.9,1-1.4,2.5-1.2,4.3v0.1l1.7,8.9c0.1,0.5,0.5,0.8,1,0.9
					c0.5,0,0.9-0.2,1.1-0.7l3.3-8.4v-0.1c0.5-1.7,0.3-3.4-0.4-4.5C593.33,71.29,592.43,70.69,591.33,70.59z M592.33,75.99l-1.9,4.9
					l-1-5.2c-0.1-1.1,0.1-2.1,0.6-2.6c0.3-0.3,0.7-0.4,1.1-0.4c0.5,0,0.8,0.2,1.1,0.5C592.53,73.89,592.63,74.89,592.33,75.99z"/>
			</g>
			<g>
				<path class="st10" d="M595.73,260.69l-7.7-0.1v-1.2c0-0.6-0.5-1.2-1.2-1.2c-0.6,0-1.2,0.5-1.2,1.2v1.2l-6.8-0.1v-1.2
					c0-0.6-0.5-1.2-1.2-1.2c-0.6,0-1.2,0.5-1.2,1.2v1.2h-6.5v-1.2c0-0.6-0.5-1.2-1.2-1.2c-0.6,0-1.2,0.5-1.2,1.2v1.2l-7.9-0.1
					c-0.6,0-1.2,0.5-1.2,1.2l-0.2,26.4c0,0.6,0.5,1.2,1.2,1.2l7.2,0.1c1.1,4.9,5.5,8.6,10.8,8.7c5.3,0,9.7-3.6,10.9-8.5l7.2,0.1
					c0.6,0,1.2-0.5,1.2-1.2l0.2-26.4C596.93,261.29,596.43,260.69,595.73,260.69L595.73,260.69z M567.73,262.89v1.1
					c0,0.6,0.5,1.2,1.2,1.2c0.6,0,1.2-0.5,1.2-1.2v-1.1h6.5v1.1c0,0.6,0.5,1.2,1.2,1.2c0.6,0,1.2-0.5,1.2-1.2v-1.1l6.8,0.1v1.1
					c0,0.6,0.5,1.2,1.2,1.2c0.6,0,1.2-0.5,1.2-1.2v-1.1h6.5v4.8l-33.7-0.3v-4.8L567.73,262.89z M577.53,295.59c-4.8,0-8.7-4-8.7-8.8
					c0-4.8,4-8.7,8.8-8.7s8.7,4,8.7,8.8C586.33,291.69,582.33,295.59,577.53,295.59L577.53,295.59z M588.63,287.09
					c0-0.1,0-0.1,0-0.2c0-6.1-4.9-11.2-11-11.2s-11.2,4.9-11.2,11c0,0.1,0,0.1,0,0.2h-5.7l0.1-17l33.7,0.3l-0.1,17L588.63,287.09z"
					/>
				<path class="st10" d="M578.73,287.09v-5.7c0-0.6-0.5-1.2-1.2-1.2c-0.6,0-1.2,0.5-1.2,1.2v6.1c0,0.3,0.1,0.6,0.3,0.8l2.7,2.7
					c0.2,0.2,0.5,0.3,0.8,0.3s0.6-0.1,0.8-0.3c0.5-0.5,0.5-1.2,0-1.7L578.73,287.09z"/>
			</g>
			<g>
				<path class="st10" d="M863.93,211.59h3.6c0.5,0,0.8-0.4,0.8-0.8c0-0.5-0.4-0.8-0.8-0.8h-3.6c-0.5,0-0.8,0.4-0.8,0.8
					C863.03,211.29,863.43,211.59,863.93,211.59z"/>
				<path class="st10" d="M887.83,211.79c0.2,0,0.4-0.1,0.6-0.2c0.2-0.2,0.2-0.4,0.2-0.6c0-0.2-0.1-0.4-0.2-0.6
					c-0.2-0.2-0.4-0.2-0.6-0.2s-0.4,0.1-0.6,0.2c-0.2,0.2-0.2,0.4-0.2,0.6c0,0.2,0.1,0.4,0.2,0.6
					C887.43,211.69,887.63,211.79,887.83,211.79z"/>
				<path class="st10" d="M890.83,211.79c0.2,0,0.4-0.1,0.6-0.2c0.2-0.2,0.2-0.4,0.2-0.6c0-0.2-0.1-0.4-0.2-0.6
					c-0.2-0.2-0.4-0.2-0.6-0.2s-0.4,0.1-0.6,0.2c-0.2,0.2-0.2,0.4-0.2,0.6c0,0.2,0.1,0.4,0.2,0.6
					C890.43,211.69,890.63,211.79,890.83,211.79z"/>
				<path class="st10" d="M896.83,238.69c0.4-0.6,0.6-1.2,0.5-1.9c0-0.6-0.2-1.2-0.5-1.6c0.3-1.2,0-2.3-0.9-3.2
					c-0.3-0.3-0.7-0.5-1.1-0.7l0.1-22.8c0-0.5-0.4-0.8-0.8-0.8l-34.3-0.2c-0.5,0-0.8,0.4-0.8,0.8l-0.2,28.3c0,0.5,0.4,0.8,0.8,0.8
					l15.8,0.1v5.5c0,1.5,1.2,2.6,2.6,2.7h2.7c0.4,0,0.9-0.1,1.2-0.3l0.7,0.1c0.2,0,2.6,0.3,5.3,0.4c0.2,0,0.4,0,0.6,0
					c0.5,0,1,0.1,1.5,0.1c0.8,0,1.6-0.1,2.2-0.2c1.6-0.3,2.7-1,3.3-2.1c0.4-0.6,0.4-1.2,0.4-1.7c0.9-0.9,1-1.9,1-2.6
					C896.93,239.19,896.83,238.99,896.83,238.69z M893.33,209.49v3.3l-32.7-0.2v-3.3L893.33,209.49z M860.63,214.19l32.7,0.2
					l-0.1,16.6c-0.2,0-0.5,0-0.7,0s-0.4,0-0.6,0c-0.7,0-1.4,0.1-1.8,0.2c0.1-0.3,0.2-0.7,0.4-1.2c0.7-2.1,0.6-3.8-0.2-5
					c-0.9-1.3-2.4-1.4-2.9-1.4c-0.6,0-1.1,0.2-1.5,0.7c-0.6,0.7-0.7,1.8-0.6,2.5c-0.9,2.3-2.3,5.1-3.2,5.8c-0.1,0.1-0.1,0.1-0.2,0.1
					l0,0c-0.2,0.3-0.5,0.5-0.7,0.8c-0.2,0-0.3,0-0.5,0h-2.7c-1.4,0-2.6,1.1-2.7,2.5l-15-0.1L860.63,214.19z M878.03,244.09
					c-0.5,0-1-0.4-1-1v-7.1c0-0.5,0.4-1,1-1h2.7l0,0l-0.1,9l0,0L878.03,244.09z M895.23,238.09c-0.2,0.2-0.2,0.5-0.1,0.8
					c0,0.1,0.1,0.4,0.1,0.6c0,0.6-0.2,1.1-0.7,1.6c-0.2,0.2-0.3,0.5-0.3,0.7c0,0.3,0,0.7-0.2,1.1c-0.3,0.6-1.1,1-2.2,1.3
					c-0.5,0.1-1.1,0.2-1.8,0.2c-0.4,0-0.9,0-1.4-0.1c0,0,0,0-0.1,0l0,0c-2.8,0-5.6-0.3-5.7-0.3l0,0l-0.5-0.1l0.1-9.2
					c0.2-0.3,0.4-0.6,0.6-0.9c1.8-1.4,3.6-6.2,3.8-6.7c0-0.1,0.1-0.3,0-0.4c-0.1-0.6,0-1.2,0.2-1.4c0.1-0.1,0.1-0.1,0.2-0.1
					c0.2,0,1,0.1,1.5,0.7c0.5,0.7,0.5,1.9,0,3.5c-0.4,1.3-0.6,2.2-0.6,2.8c0,0.2,0.1,0.5,0.3,0.6c0.2,0.1,0.4,0.2,0.7,0.2
					c0.2-0.1,0.4-0.1,0.6-0.1c0,0,0,0,0.1,0c0,0,0.9-0.2,2-0.2c1.4-0.1,2.4,0.2,2.9,0.6c0.7,0.6,0.5,1.4,0.3,1.8
					c-0.1,0.3-0.1,0.6,0.1,0.8s0.4,0.6,0.4,1C895.73,237.29,895.53,237.69,895.23,238.09z"/>
				<path class="st10" d="M887.53,222.99c0.5,0,0.8-0.4,0.8-0.8v-3.1c0-0.5-0.4-0.8-0.8-0.8c-0.5,0-0.8,0.4-0.8,0.8v3.1
					C886.73,222.59,887.03,222.99,887.53,222.99z"/>
				<path class="st10" d="M883.63,222.59c0.1,0.4,0.4,0.6,0.8,0.6c0.1,0,0.1,0,0.2,0c0.4-0.1,0.7-0.6,0.6-1l-0.8-3
					c-0.1-0.4-0.6-0.7-1-0.6c-0.4,0.1-0.7,0.6-0.6,1L883.63,222.59z"/>
				<path class="st10" d="M890.23,223.29c0.1,0,0.1,0,0.2,0c0.4,0,0.7-0.2,0.8-0.6l0.8-3c0.1-0.4-0.1-0.9-0.6-1
					c-0.4-0.1-0.9,0.1-1,0.6l-0.8,3C889.53,222.69,889.83,223.09,890.23,223.29z"/>
			</g>
			<g>
				<path class="st10" d="M292.13,311.49l0.1-14.9c0-1.6-1.3-3-3-3h-9.7v-5.9c0-0.7-0.5-1.2-1.2-1.2h-7.4v-3h8.5
					c3.6,0,6.6-2.9,6.6-6.5c0-3.5-2.8-6.4-6.3-6.6c-0.6-4-4-7.2-8.2-7.2c-2.8,0-5.4,1.4-6.9,3.7c-0.4-0.1-0.7-0.1-1.1-0.1
					c-2.2,0-4.1,1.5-4.6,3.6c-0.2,0-0.5,0-0.7,0c-3.6,0-6.6,2.9-6.6,6.5s2.9,6.6,6.5,6.6h4.1v7.5h-2c-0.1-1.5-1.4-2.7-2.9-2.7h-12.5
					c-1.6,0-3,1.3-3,3v1.5v2.4l-0.1,15.5v2.4v1.5c0,1.6,1.3,3,3,3h12.5c1.6,0,3-1.3,3-3v-1.5v-2.4l0.1-15.5v-2.4h2
					c0.7,0,1.2-0.5,1.2-1.2v-8h6.2v3.4c0,0.7,0.5,1.2,1.2,1.2h7.4v5.5h-10.3c-1.6,0-3,1.3-3,3l-0.1,14.9h-3.6v1.2
					c0,2.6,2.1,4.8,4.7,4.8l25,0.1c2.6,0,4.8-2.1,4.8-4.7v-1.2L292.13,311.49z M243.33,290.79c0-0.4,0.3-0.7,0.7-0.7h13.7
					c0.4,0,0.7,0.3,0.7,0.7v1.6l-15-0.1L243.33,290.79z M258.23,314.59c0,0.4-0.3,0.7-0.7,0.7h-13.7c-0.4,0-0.7-0.3-0.7-0.7v-1.6
					l15,0.1L258.23,314.59z M258.23,311.19l-15-0.1l0.1-17l15,0.1L258.23,311.19z M253.03,276.99c0-2.4,2-4.4,4.4-4.4
					c0.5,0,1,0.1,1.5,0.3l1.8,0.7l-0.2-2c0-0.1,0-0.1,0-0.2c0,0,0,0,0-0.1c0-1.4,1.1-2.5,2.5-2.5c0.4,0,0.8,0.1,1.1,0.3l1.1,0.6
					l0.6-1.1c1.1-2.2,3.2-3.5,5.6-3.5c3.5,0,6.3,2.8,6.3,6.3v0.1l-0.1,1.5l1.5-0.3c0.3,0,0.5-0.1,0.7-0.1c2.4,0,4.4,2,4.4,4.4
					s-2,4.4-4.4,4.4l-22.6-0.1C255.03,281.39,253.03,279.39,253.03,276.99z M266.53,295.69c0-0.3,0.3-0.6,0.6-0.6l22.9,0.1
					c0.3,0,0.6,0.3,0.6,0.6l-0.1,15.7l-24.1-0.1L266.53,295.69z M290.93,315.79l-25-0.1c-2.6,0-3.2-1.8-3.3-2.9h0.9l29.7,0.1h0.9
					C294.13,313.79,293.83,315.79,290.93,315.79z"/>
				<path class="st10" d="M256.43,296.19h-11.3v5.9h11.3V296.19z M254.13,299.69h-6.6v-1.2h6.6V299.69z"/>
				<path class="st10" d="M268.33,310.19h11.3v-13.1h-11.3V310.19z M270.73,299.49h6.6v8.4h-6.6V299.49z"/>
				
					<rect x="245.94" y="302.63" transform="matrix(3.376399e-03 -1 1 3.376399e-03 -58.1755 550.5919)" class="st10" width="2.4" height="3.7"/>
				
					<rect x="251.8" y="301.64" transform="matrix(3.376399e-03 -1 1 3.376399e-03 -52.2847 556.4103)" class="st10" width="2.4" height="5.6"/>
				
					<rect x="283.64" y="295.32" transform="matrix(3.376399e-03 -1 1 3.376399e-03 -15.0962 582.7964)" class="st10" width="2.4" height="7.3"/>
				
					<rect x="283.59" y="299.54" transform="matrix(3.376399e-03 -1 1 3.376399e-03 -19.3509 586.9539)" class="st10" width="2.4" height="7.3"/>
				
					<rect x="283.55" y="303.75" transform="matrix(3.376399e-03 -1 1 3.376399e-03 -23.6054 591.111)" class="st10" width="2.4" height="7.3"/>
				
					<rect x="245.92" y="305.83" transform="matrix(3.376399e-03 -1 1 3.376399e-03 -61.401 553.7596)" class="st10" width="2.4" height="3.7"/>
				
					<rect x="251.78" y="304.84" transform="matrix(3.376399e-03 -1 1 3.376399e-03 -55.5101 559.5778)" class="st10" width="2.4" height="5.6"/>
			</g>
			<g>
				
					<rect x="1164.13" y="185.85" transform="matrix(8.323711e-03 -1 1 8.323711e-03 1015.9896 1470.6782)" class="st11" width="170.7" height="74.5"/>
				
					<rect x="1164.13" y="185.85" transform="matrix(8.323711e-03 -1 1 8.323711e-03 1015.9896 1470.6782)" class="st12" width="170.7" height="74.5"/>
				
					<rect x="1244.49" y="264.09" transform="matrix(8.323711e-03 -1 1 8.323711e-03 925.6642 1558.8785)" class="st11" width="8.6" height="97.3"/>
				
					<rect x="1244.49" y="264.09" transform="matrix(8.323711e-03 -1 1 8.323711e-03 925.6642 1558.8785)" class="st13" width="8.6" height="97.3"/>
				
					<rect x="1226.88" y="249.55" transform="matrix(8.323711e-03 -1 1 8.323711e-03 955.6437 1529.5415)" class="st11" width="44.2" height="66.8"/>
				
					<rect x="1226.88" y="249.55" transform="matrix(8.323711e-03 -1 1 8.323711e-03 955.6437 1529.5415)" class="st13" width="44.2" height="66.8"/>
				
					<rect x="1191.85" y="165.72" transform="matrix(8.323711e-03 -1 1 8.323711e-03 1040.1877 1447.1245)" class="st11" width="115.7" height="66.8"/>
				
					<rect x="1191.85" y="165.72" transform="matrix(8.323711e-03 -1 1 8.323711e-03 1040.1877 1447.1245)" class="st13" width="115.7" height="66.8"/>
			</g>
			<g>
				<rect x="638.93" y="132.49" class="st11" width="74.5" height="170.7"/>
				<rect x="638.93" y="132.49" class="st12" width="74.5" height="170.7"/>
				<rect x="627.53" y="303.19" class="st11" width="97.3" height="8.6"/>
				<rect x="627.53" y="303.19" class="st14" width="97.3" height="8.6"/>
				<rect x="642.73" y="255.59" class="st11" width="66.8" height="44.2"/>
				<rect x="642.73" y="255.59" class="st14" width="66.8" height="44.2"/>
				<rect x="642.83" y="135.99" class="st11" width="66.8" height="115.7"/>
				<rect x="642.83" y="135.99" class="st14" width="66.8" height="115.7"/>
			</g>
			<g>
				<path class="st15" d="M524.03,236.49l-88.6,8.9c-5.4,0.4-9.5,4.9-9.5,10.3l0.1,47.7c0,6.1,5.3,10.8,11.3,10.2l88.7-0.2
					c5.2-0.5,9.2-5,9.2-10.2l-0.2-56.4C535.03,240.69,530.03,235.99,524.03,236.49z M523.43,303.09l-85.6,0.3l-0.1-47.6l85.6-0.3
					L523.43,303.09z"/>
			</g>
			<g>
				<path class="st5" d="M1251.43,187.89c-8.7-0.1-15.7,6.9-15.8,15.6c-0.1,8.7,6.9,15.7,15.6,15.8s15.7-6.9,15.8-15.6
					C1267.03,194.99,1260.13,187.89,1251.43,187.89z M1246.33,211.99c0-5.6,0.1-11.1,0.1-16.7l11.6,8.4L1246.33,211.99z"/>
			</g>
			<g>
				<path class="st5" d="M677.73,178.89c-8.7-0.1-15.7,6.9-15.8,15.6s6.9,15.7,15.6,15.8s15.7-6.9,15.8-15.6
					S686.33,178.99,677.73,178.89z M673.53,202.99c0-5.6,0.1-11.1,0.1-16.7l11.6,8.4L673.53,202.99z"/>
			</g>
			<g>
				<g>
					<polyline class="st15" points="124.53,318.09 124.53,314.69 120.13,310.19 116.73,310.19 					"/>
					<polyline class="st15" points="133.63,293.39 130.33,293.39 123.53,300.09 116.73,300.09 					"/>
					<line class="st15" x1="134.73" y1="303.49" x2="116.73" y2="303.39"/>
					<polyline class="st15" points="133.63,313.59 130.23,313.59 123.43,306.79 116.73,306.79 					"/>
					<polyline class="st15" points="124.63,288.79 124.63,292.19 120.13,296.69 116.73,296.69 					"/>
					<polyline class="st15" points="90.73,317.99 90.83,314.59 95.33,310.09 98.73,310.09 					"/>
					<polyline class="st15" points="81.83,293.19 85.23,293.19 91.93,299.99 98.73,299.99 					"/>
					<line class="st15" x1="80.73" y1="303.29" x2="98.73" y2="303.39"/>
					<polyline class="st15" points="81.73,313.39 85.13,313.39 91.93,306.69 98.73,306.69 					"/>
					<polyline class="st15" points="90.93,288.69 90.83,292.09 95.33,296.59 98.73,296.59 					"/>
					
						<rect x="102.14" y="297.79" transform="matrix(3.848767e-03 -1 1 3.848767e-03 -196.0653 410.0598)" class="st16" width="11.3" height="11.3"/>
					<line class="st15" x1="107.83" y1="276.39" x2="107.73" y2="294.39"/>
					<polyline class="st15" points="114.53,278.59 114.53,283.19 111.13,286.49 111.13,294.39 					"/>
					<polyline class="st15" points="101.03,278.59 101.03,283.09 104.43,286.49 104.33,294.39 					"/>
					<polyline class="st15" points="114.53,294.39 114.53,289.89 119.03,285.39 119.03,281.99 					"/>
					<polyline class="st15" points="101.03,294.39 101.03,289.89 96.53,285.29 96.53,281.99 					"/>
					<line class="st15" x1="107.63" y1="330.39" x2="107.73" y2="312.39"/>
					<polyline class="st15" points="114.43,328.19 114.43,322.59 111.03,319.19 111.03,312.39 					"/>
					<polyline class="st15" points="100.83,328.19 100.93,322.49 104.23,319.19 104.33,312.39 					"/>
					<polyline class="st15" points="114.43,312.39 114.43,315.79 118.93,320.29 118.93,324.79 					"/>
					<polyline class="st15" points="100.93,312.39 100.93,315.79 96.43,320.19 96.33,324.79 					"/>
				</g>
			</g>
			<g>
				<path class="st17" d="M697.93,259.39l-7-0.1c0,0-3.6-1-7,3.3c-3.4,4.3-5.6,7.3-5.6,7.3l-1.7,35.7l2.1,6.8c0,0,18.1,8.2,38.5,8.6
					c0,0-0.6-6.8,4.5-15.8s19.5-15.9,34.7-9.8s15.9,17.6,15.9,29.4l97.7,1.9c0,0,4.6,0.3,4.7-5.5c0.1-5.7,2.7-28.5,28.7-28.4
					s28.1,16.4,28.5,32.9l19.3,0.4l7.6-7.3l-1-26.4c0,0-0.2-8.1-10.7-11.4c-10.5-3.3-52-15.1-76-28.3c-3.8-2.1-24.3-16.2-54-17.1
					c-7.2-0.2-19.7-0.6-22.7-0.1c-3,0.6-33.8,5.3-90.7,23.5C701.73,259.29,697.93,259.39,697.93,259.39z"/>
				<line class="st18" x1="690.23" y1="274.19" x2="678.13" y2="273.99"/>
				<line class="st18" x1="751.83" y1="266.89" x2="728.83" y2="266.49"/>
				<line class="st18" x1="806.23" y1="277.49" x2="794.03" y2="277.19"/>
				<line class="st18" x1="866.43" y1="313.89" x2="779.33" y2="312.19"/>
				<line class="st18" x1="796.23" y1="268.69" x2="796.73" y2="243.79"/>
				<line class="st18" x1="881.73" y1="270.19" x2="755.73" y2="267.79"/>
				<line class="st18" x1="688.73" y1="300.59" x2="676.53" y2="300.39"/>
				<path class="st19" d="M737.03,263.29l0.1-4.5c0,0,14.7-17.4,55.2-14.5l-0.4,20L737.03,263.29z"/>
				<path class="st19" d="M801.53,263.99l0.4-19.6c0,0,30.1-3.5,45.7,2.4c9.2,3.5,18.3,18.9,18.3,18.9L801.53,263.99z"/>
				<line class="st20" x1="836.13" y1="249.99" x2="842.23" y2="255.39"/>
				<line class="st20" x1="840.73" y1="250.09" x2="845.33" y2="254.49"/>
				<g>
					<circle class="st3" cx="743.83" cy="319.39" r="22.5"/>
					<circle class="st17" cx="743.23" cy="318.89" r="11.7"/>
					<path class="st20" d="M758.83,319.19c-0.2,8.7-7.3,15.6-16,15.4"/>
					<path class="st20" d="M727.43,318.59c0.2-8.7,7.3-15.6,16-15.4"/>
				</g>
				<g>
					<circle class="st3" cx="903.63" cy="318.89" r="22.5"/>
					<circle class="st17" cx="903.03" cy="318.39" r="11.7"/>
					<path class="st20" d="M918.63,318.69c-0.2,8.7-7.3,15.6-16,15.4"/>
					<path class="st20" d="M887.23,318.09c0.2-8.7,7.3-15.6,16-15.4"/>
				</g>
				<path class="st18" d="M957.73,292.19c0,0-5.8,3.2-11.8,3.4"/>
			</g>
		</g>
	</g>
</g>
<g>
	<g>
		<g>
			<rect x="1351.72" y="89.76" class="st21" width="407.03" height="200.22"/>
		</g>
		<polygon class="st22" points="1785.93,126.6 1324.52,126.69 1369.61,89.79 1740.83,89.72 		"/>
		<rect x="1472.06" y="127.3" class="st11" width="314.49" height="14.42"/>
		<polygon class="st23" points="1472.06,89.77 1472.06,126.66 1785.93,126.6 1740.83,89.72 		"/>
		<g>
			<polygon class="st21" points="1785.93,126.6 1324.52,126.69 1369.61,89.79 1740.83,89.72 			"/>
			<path class="st21" d="M1319.33,303.74l471.86-0.08l0,14.07l-471.86,0.09L1319.33,303.74z M1335.5,303.74l439.52-0.08l0-13.72
				l-439.52,0.08L1335.5,303.74z M1476.04,267.62l-38.46,0.01l-0.02-113.65l38.46-0.01L1476.04,267.62z M1472.01,222.43l-2.94,0
				l0-23.27l2.94,0L1472.01,222.43z M1484.72,222.43l-2.94,0l0-23.27l2.94,0L1484.72,222.43z M1516.22,267.61l-38.46,0.01
				l-0.02-113.65l38.46-0.01L1516.22,267.61z M1423.93,267.63l-63.5,0.01l-0.02-113.65l63.5-0.01L1423.93,267.63z M1640.16,267.59
				l-107.61,0.02l-0.02-113.65l107.61-0.02L1640.16,267.59z M1413.69,153.98l-1.72,0l0,8.08l-37.34,0.01l0-8.08h-1.72l0,8.08
				l-8.77,0l0,13.6l56.07-0.01l0-13.6l-6.51,0L1413.69,153.98z M1335.86,89.7l184.17-0.03c24.31,0,240.6,0.27,254.56-0.04l0-13.7
				c0,0-426.83-0.24-438.72,0.08L1335.86,89.7z"/>
		</g>
		<g>
			<defs>
				<rect id="SVGID_9_" x="1533.01" y="154.38" width="106.92" height="112.71"/>
			</defs>
			<clipPath id="SVGID_10_">
				<use xlink:href="#SVGID_9_"  style="overflow:visible;"/>
			</clipPath>
			<path class="st24" d="M1506.77,243.34c-1.97,0-3.95-0.66-5.58-2.02c-3.69-3.08-4.18-8.57-1.1-12.26l65.55-78.47
				c7.96-9.54,21.62-12.06,32.47-5.99c11.29,6.33,16.17,20.15,11.35,32.16l-0.02,0.05l-14.92,36.5c-1.64,4.14-0.1,8.86,3.69,11.22
				c3.65,2.28,8.34,1.4,11.42-2.13l28.8-34.36c3.09-3.68,8.58-4.17,12.27-1.08c3.68,3.09,4.17,8.58,1.08,12.26l-28.85,34.42
				c-0.03,0.04-0.06,0.07-0.09,0.11c-8.68,10.03-22.92,12.37-33.84,5.55c-10.96-6.84-15.43-20.5-10.63-32.49
				c0.01-0.02,0.02-0.04,0.02-0.06l14.92-36.51c1.56-3.91-0.04-8.4-3.71-10.46c-3.54-1.98-7.99-1.16-10.59,1.95l-65.56,78.48
				C1511.73,242.27,1509.26,243.34,1506.77,243.34z"/>
		</g>
		<g>
			<path class="st23" d="M1581.69,261.13c0-0.22-0.17-0.41-0.41-0.41c-0.25,0-0.41,0.2-0.41,0.42c0,0.23,0.16,0.42,0.4,0.42
				C1581.53,261.55,1581.69,261.34,1581.69,261.13L1581.69,261.13z M1580.56,259.98h0.32v0.48l0,0.16c0.13-0.17,0.33-0.21,0.45-0.21
				c0.32,0,0.68,0.23,0.68,0.71c0,0.46-0.32,0.73-0.69,0.73c-0.21,0-0.38-0.1-0.45-0.24v0.19h-0.31V259.98z"/>
			<path class="st23" d="M1583.6,261.31c-0.08,0.3-0.35,0.54-0.7,0.54c-0.43,0-0.73-0.33-0.73-0.72c0-0.4,0.31-0.72,0.71-0.72
				c0.34,0,0.63,0.21,0.71,0.55h-0.33c-0.06-0.14-0.19-0.24-0.37-0.24c-0.12,0-0.21,0.04-0.29,0.12c-0.07,0.07-0.11,0.18-0.11,0.3
				c0,0.24,0.17,0.42,0.4,0.42c0.2,0,0.32-0.12,0.37-0.23H1583.6z"/>
			<path class="st23" d="M1584.43,260.82c0-0.07-0.04-0.15-0.17-0.15c-0.11,0-0.16,0.07-0.16,0.14c0,0.09,0.1,0.13,0.23,0.17
				c0.22,0.06,0.45,0.12,0.45,0.41c0.01,0.28-0.23,0.46-0.51,0.46c-0.21,0-0.49-0.11-0.52-0.44h0.32c0.01,0.15,0.14,0.18,0.2,0.18
				c0.1,0,0.19-0.07,0.19-0.16c0-0.12-0.1-0.15-0.35-0.23c-0.18-0.06-0.33-0.16-0.33-0.35c0-0.27,0.22-0.43,0.49-0.43
				c0.18,0,0.45,0.08,0.48,0.41H1584.43z"/>
			<path class="st23" d="M1584.99,260.46h0.24v0.19c0.06-0.11,0.21-0.23,0.41-0.23c0.12,0,0.25,0.04,0.35,0.14
				c0.03,0.03,0.07,0.11,0.09,0.13c0.02-0.04,0.05-0.09,0.1-0.13c0.09-0.09,0.21-0.14,0.36-0.14c0.12,0,0.26,0.03,0.36,0.14
				c0.12,0.12,0.15,0.25,0.15,0.51v0.74h-0.26l0-0.73c0-0.11-0.01-0.22-0.07-0.3c-0.05-0.07-0.12-0.11-0.24-0.11
				c-0.11,0-0.21,0.05-0.26,0.13c-0.05,0.08-0.06,0.16-0.06,0.27v0.74h-0.26v-0.74c0-0.11-0.01-0.19-0.05-0.27
				c-0.05-0.08-0.13-0.13-0.25-0.13c-0.12,0-0.21,0.06-0.25,0.13c-0.05,0.07-0.07,0.17-0.07,0.27v0.74h-0.26V260.46z"/>
			<path class="st23" d="M1588.37,261.02c-0.01-0.18-0.19-0.38-0.44-0.37c-0.26,0-0.43,0.19-0.44,0.37H1588.37z M1587.48,261.22
				c0.01,0.27,0.25,0.41,0.45,0.41c0.18,0,0.31-0.09,0.39-0.23h0.27c-0.06,0.15-0.16,0.26-0.27,0.33c-0.11,0.08-0.25,0.11-0.38,0.11
				c-0.44,0-0.71-0.35-0.71-0.71c0-0.39,0.3-0.71,0.71-0.71c0.19,0,0.37,0.07,0.5,0.2c0.16,0.16,0.22,0.37,0.2,0.6H1587.48z"/>
			<path class="st23" d="M1589.01,261.13c0,0.25,0.18,0.47,0.47,0.47c0.13,0,0.25-0.05,0.34-0.14c0.09-0.09,0.14-0.21,0.13-0.34
				c0-0.13-0.05-0.25-0.14-0.33c-0.08-0.08-0.2-0.13-0.33-0.13C1589.2,260.66,1589.01,260.88,1589.01,261.13L1589.01,261.13z
				 M1590.19,261.81h-0.25v-0.23c-0.07,0.14-0.23,0.27-0.5,0.27c-0.42,0-0.69-0.33-0.69-0.71c0-0.42,0.3-0.71,0.68-0.71
				c0.27,0,0.44,0.15,0.5,0.26v-0.24v-0.47h0.26L1590.19,261.81z"/>
		</g>
		<path class="st23" d="M1590.48,260.46l0,1.34h0.26v-1.34H1590.48z M1590.48,260.25h0.26v-0.27h-0.26V260.25z"/>
		<g>
			<path class="st23" d="M1591.21,261.14c0,0.2,0.14,0.47,0.47,0.47c0.21,0,0.35-0.11,0.42-0.27c0.03-0.06,0.04-0.13,0.05-0.2
				c0-0.07-0.01-0.14-0.04-0.2c-0.06-0.16-0.21-0.28-0.43-0.28C1591.39,260.66,1591.21,260.88,1591.21,261.14L1591.21,261.14z
				 M1592.4,261.81h-0.26v-0.23c-0.09,0.18-0.29,0.27-0.5,0.27c-0.43,0-0.69-0.34-0.69-0.71c0-0.41,0.3-0.71,0.69-0.71
				c0.27,0,0.44,0.15,0.5,0.28v-0.24h0.26V261.81z"/>
			<path class="st25" d="M1582.29,258.97c-0.12,0-0.24-0.04-0.34-0.12c-0.22-0.19-0.25-0.52-0.07-0.74l3.96-4.75
				c0.48-0.58,1.31-0.73,1.96-0.36c0.68,0.38,0.98,1.22,0.69,1.94c0,0,0,0,0,0l-0.9,2.21c-0.1,0.25-0.01,0.54,0.22,0.68
				c0.22,0.14,0.5,0.08,0.69-0.13l1.74-2.08c0.19-0.22,0.52-0.25,0.74-0.07c0.22,0.19,0.25,0.52,0.07,0.74l-1.74,2.08
				c0,0,0,0-0.01,0.01c-0.53,0.61-1.39,0.75-2.05,0.34c-0.66-0.41-0.93-1.24-0.64-1.97l0,0l0.9-2.21c0.09-0.24,0-0.51-0.22-0.63
				c-0.21-0.12-0.48-0.07-0.64,0.12l-3.96,4.75C1582.59,258.9,1582.44,258.97,1582.29,258.97"/>
		</g>
		<rect x="1558.29" y="162.72" class="st11" width="56.36" height="86.89"/>
		<rect x="1558.29" y="162.72" class="st21" width="56.36" height="86.89"/>
		<rect x="1643.99" y="153.93" class="st21" width="107.61" height="113.65"/>
		<g>
			<defs>
				<rect id="SVGID_11_" x="1644.46" y="154.36" width="106.92" height="112.71"/>
			</defs>
			<clipPath id="SVGID_12_">
				<use xlink:href="#SVGID_11_"  style="overflow:visible;"/>
			</clipPath>
			<path class="st26" d="M1610.84,243.32c-1.97,0-3.95-0.66-5.58-2.02c-3.69-3.08-4.18-8.57-1.1-12.26l65.55-78.47
				c7.96-9.55,21.62-12.07,32.47-5.99c11.29,6.32,16.17,20.15,11.35,32.16c-0.01,0.02-0.01,0.03-0.02,0.05l-14.92,36.5
				c-1.64,4.14-0.1,8.86,3.69,11.22c3.65,2.28,8.34,1.4,11.42-2.13l28.8-34.36c3.09-3.68,8.58-4.17,12.27-1.08
				c3.68,3.09,4.17,8.58,1.08,12.26L1727,233.63c-0.03,0.04-0.06,0.07-0.09,0.11c-8.69,10.03-22.92,12.37-33.84,5.55
				c-10.96-6.84-15.43-20.5-10.63-32.49c0.01-0.02,0.02-0.04,0.02-0.06l14.92-36.51c1.56-3.91-0.04-8.4-3.71-10.46
				c-3.54-1.98-7.99-1.16-10.59,1.95l-65.56,78.48C1615.8,242.25,1613.33,243.32,1610.84,243.32z"/>
		</g>
		<g>
			<path class="st23" d="M1693.14,261.1c0-0.22-0.17-0.41-0.41-0.41c-0.25,0-0.41,0.2-0.41,0.42c0,0.23,0.16,0.42,0.4,0.42
				C1692.99,261.53,1693.14,261.32,1693.14,261.1L1693.14,261.1z M1692.01,259.96h0.32l0,0.48v0.16c0.13-0.17,0.33-0.21,0.45-0.21
				c0.32,0,0.68,0.23,0.68,0.71c0,0.46-0.32,0.73-0.69,0.73c-0.21,0-0.38-0.1-0.45-0.24v0.2h-0.31L1692.01,259.96z"/>
			<path class="st23" d="M1695.06,261.29c-0.08,0.3-0.35,0.54-0.7,0.54c-0.43,0-0.73-0.33-0.73-0.72c0-0.4,0.31-0.72,0.71-0.72
				c0.34,0,0.63,0.21,0.71,0.55h-0.33c-0.06-0.14-0.19-0.24-0.37-0.24c-0.12,0-0.21,0.04-0.29,0.12c-0.07,0.07-0.11,0.18-0.11,0.3
				c0,0.24,0.17,0.42,0.4,0.42c0.2,0,0.32-0.12,0.37-0.23H1695.06z"/>
			<path class="st23" d="M1695.89,260.8c0-0.07-0.04-0.15-0.17-0.15c-0.11,0-0.16,0.07-0.16,0.14c0,0.09,0.1,0.13,0.23,0.17
				c0.22,0.06,0.45,0.12,0.45,0.41c0.01,0.28-0.23,0.46-0.51,0.46c-0.21,0-0.49-0.11-0.52-0.44h0.32c0.01,0.15,0.14,0.18,0.2,0.18
				c0.1,0,0.19-0.07,0.19-0.16c0-0.12-0.1-0.15-0.35-0.23c-0.18-0.06-0.33-0.16-0.33-0.35c0-0.27,0.22-0.43,0.49-0.43
				c0.18,0,0.45,0.08,0.48,0.41H1695.89z"/>
			<path class="st23" d="M1696.45,260.44h0.24v0.19c0.06-0.11,0.21-0.23,0.41-0.23c0.12,0,0.25,0.04,0.35,0.14
				c0.03,0.03,0.07,0.11,0.09,0.13c0.02-0.04,0.05-0.09,0.1-0.13c0.09-0.09,0.21-0.14,0.36-0.14c0.12,0,0.26,0.03,0.36,0.14
				c0.12,0.12,0.15,0.25,0.15,0.51v0.74h-0.26l0-0.73c0-0.11-0.01-0.22-0.07-0.3c-0.05-0.07-0.12-0.11-0.24-0.11
				c-0.11,0-0.21,0.05-0.26,0.13c-0.05,0.08-0.06,0.16-0.06,0.27v0.74h-0.26v-0.74c0-0.11-0.01-0.19-0.05-0.27
				c-0.05-0.08-0.13-0.13-0.25-0.13c-0.12,0-0.21,0.06-0.25,0.13c-0.05,0.07-0.07,0.17-0.07,0.27v0.74h-0.26V260.44z"/>
			<path class="st23" d="M1699.83,261c-0.01-0.18-0.19-0.38-0.44-0.37c-0.26,0-0.43,0.19-0.44,0.37H1699.83z M1698.93,261.2
				c0.01,0.27,0.25,0.41,0.45,0.41c0.18,0,0.31-0.09,0.39-0.23h0.27c-0.06,0.15-0.16,0.26-0.27,0.33c-0.11,0.08-0.25,0.11-0.38,0.11
				c-0.44,0-0.71-0.35-0.71-0.71c0-0.39,0.3-0.71,0.71-0.71c0.19,0,0.37,0.07,0.5,0.2c0.16,0.16,0.22,0.37,0.2,0.6H1698.93z"/>
			<path class="st23" d="M1700.47,261.11c0,0.25,0.18,0.47,0.47,0.47c0.13,0,0.25-0.05,0.34-0.14c0.09-0.09,0.14-0.21,0.13-0.34
				c0-0.13-0.05-0.25-0.14-0.33c-0.08-0.08-0.2-0.13-0.33-0.13C1700.65,260.64,1700.47,260.86,1700.47,261.11L1700.47,261.11z
				 M1701.65,261.79h-0.25l0-0.23c-0.07,0.14-0.22,0.27-0.5,0.27c-0.42,0-0.69-0.33-0.69-0.71c0-0.42,0.3-0.71,0.68-0.71
				c0.27,0,0.44,0.15,0.5,0.26v-0.24v-0.47h0.26L1701.65,261.79z"/>
		</g>
		<path class="st23" d="M1701.94,260.44l0,1.34h0.26v-1.34H1701.94z M1701.94,260.23h0.26v-0.27h-0.26V260.23z"/>
		<g>
			<path class="st23" d="M1702.66,261.12c0,0.2,0.14,0.47,0.47,0.47c0.21,0,0.35-0.11,0.42-0.27c0.03-0.06,0.04-0.13,0.05-0.2
				c0-0.07-0.01-0.14-0.04-0.2c-0.06-0.16-0.21-0.28-0.43-0.28C1702.85,260.64,1702.66,260.86,1702.66,261.12L1702.66,261.12z
				 M1703.85,261.78h-0.26v-0.23c-0.09,0.18-0.29,0.27-0.5,0.27c-0.43,0-0.69-0.34-0.69-0.71c0-0.41,0.3-0.71,0.69-0.71
				c0.27,0,0.44,0.15,0.5,0.28v-0.24h0.26V261.78z"/>
			<path class="st25" d="M1693.75,258.95c-0.12,0-0.24-0.04-0.34-0.12c-0.22-0.19-0.25-0.52-0.07-0.74l3.96-4.75
				c0.48-0.58,1.31-0.73,1.96-0.36c0.68,0.38,0.98,1.22,0.69,1.94c0,0,0,0,0,0l-0.9,2.21c-0.1,0.25-0.01,0.54,0.22,0.68
				c0.22,0.14,0.5,0.08,0.69-0.13l1.74-2.08c0.19-0.22,0.52-0.25,0.74-0.07c0.22,0.19,0.25,0.52,0.07,0.74l-1.74,2.08
				c0,0,0,0-0.01,0.01c-0.53,0.61-1.39,0.75-2.05,0.34c-0.66-0.41-0.93-1.24-0.64-1.97c0,0,0,0,0,0l0.9-2.21
				c0.09-0.24,0-0.51-0.22-0.63c-0.21-0.12-0.48-0.07-0.64,0.12l-3.96,4.75C1694.05,258.88,1693.9,258.95,1693.75,258.95"/>
		</g>
		<rect x="1669.74" y="162.7" class="st11" width="56.36" height="86.89"/>
		<rect x="1669.74" y="162.7" class="st21" width="56.36" height="86.89"/>
		<g>
			<defs>
				<polygon id="SVGID_13_" points="1456.82,89.77 1456.82,126.66 1785.93,126.6 1740.83,89.72 				"/>
			</defs>
			<clipPath id="SVGID_14_">
				<use xlink:href="#SVGID_13_"  style="overflow:visible;"/>
			</clipPath>
			<path class="st27" d="M1467.65,134.48c-1.97,0-3.95-0.36-5.58-1.1c-3.69-1.68-4.18-4.68-1.1-6.69l65.56-42.84
				c7.96-5.21,21.62-6.59,32.47-3.27c11.29,3.45,16.17,11,11.35,17.55c-0.01,0.01-0.01,0.02-0.02,0.03l-14.92,19.93
				c-1.65,2.26-0.1,4.84,3.69,6.13c3.65,1.24,8.34,0.76,11.42-1.16l28.8-18.76c3.09-2.01,8.58-2.28,12.27-0.59
				c3.68,1.69,4.17,4.68,1.08,6.69l-28.85,18.79c-0.03,0.02-0.06,0.04-0.09,0.06c-8.69,5.48-22.92,6.75-33.84,3.03
				c-10.96-3.73-15.43-11.19-10.63-17.74c0.01-0.01,0.02-0.02,0.02-0.03l14.92-19.93c1.56-2.13-0.03-4.59-3.71-5.71
				c-3.54-1.08-7.99-0.63-10.59,1.07l-65.56,42.84C1472.61,133.9,1470.14,134.48,1467.65,134.48z"/>
		</g>
		<g>
			<path class="st25" d="M1694.28,132.88c-0.17-0.27-0.38-0.51-0.63-0.71c-0.44-0.35-0.98-0.57-1.64-0.57
				c-1.37,0-2.77,1.04-2.77,2.9c0,1.93,1.41,2.94,2.77,2.94c0.68,0,1.26-0.19,1.7-0.52c0.45-0.33,0.75-0.79,0.88-1.29l-3.18,0v-1.38
				l5.17,0c0.02,0.57-0.06,1.43-0.38,2.15c-0.8,1.78-2.63,2.56-4.16,2.56c-2.55,0-4.5-1.97-4.5-4.45c0-2.55,2.03-4.41,4.52-4.41
				c1.93,0,3.62,1.22,4.18,2.78L1694.28,132.88z"/>
			<path class="st25" d="M1697.71,130.26l2.59,0c1.33,0,2.09,0.21,2.55,0.54c0.7,0.51,1.08,1.37,1.08,2.32
				c0,0.62-0.17,1.18-0.46,1.59c-0.37,0.54-0.85,0.78-1.41,0.92l1.9,3.16l-1.8,0l-2.3-3.97l0.33,0c0.57,0,1.18-0.04,1.54-0.31
				c0.33-0.28,0.54-0.73,0.54-1.25c0-0.52-0.25-0.99-0.64-1.23c-0.31-0.2-0.73-0.27-1.21-0.27l-1,0l0,7.03h-1.72L1697.71,130.26z"/>
			<path class="st25" d="M1706.33,134.52c0,1.56,1.12,2.92,2.78,2.92c1.73,0,2.75-1.5,2.75-2.91c0-1.43-1.01-2.93-2.76-2.93
				c-1.71,0-2.77,1.41-2.77,2.91L1706.33,134.52z M1704.61,134.6c0-2.74,2.1-4.5,4.48-4.5c2.59,0,4.49,2.01,4.49,4.43
				c0,2.42-1.89,4.43-4.5,4.43c-2.62,0-4.47-2.06-4.47-4.35V134.6z"/>
			<path class="st25" d="M1723.09,135.93c-0.52,1.77-2.18,3.02-4.18,3.02c-2.61,0-4.48-2.07-4.48-4.44c0-2.27,1.77-4.42,4.47-4.42
				c2.46,0.01,3.86,1.82,4.19,3.07l-1.81,0c-0.27-0.59-1.03-1.55-2.39-1.56c-1.66,0-2.73,1.4-2.73,2.91c0,1.56,1.12,2.93,2.75,2.93
				c1.52,0,2.22-1.2,2.38-1.51L1723.09,135.93z"/>
		</g>
		<polygon class="st25" points="1724.25,130.25 1729.05,130.25 1729.04,131.76 1725.98,131.76 1725.98,133.7 1728.99,133.7 
			1728.99,135.21 1725.98,135.21 1725.98,137.28 1729.05,137.28 1729.05,138.79 1724.26,138.79 		"/>
		<g>
			<path class="st25" d="M1730.37,130.25h2.59c1.33,0,2.09,0.21,2.55,0.54c0.7,0.51,1.08,1.37,1.08,2.32c0,0.62-0.17,1.18-0.46,1.59
				c-0.37,0.54-0.85,0.78-1.41,0.92l1.9,3.16l-1.8,0l-2.3-3.97h0.34c0.57,0,1.18-0.04,1.53-0.31c0.33-0.28,0.54-0.73,0.54-1.25
				c0-0.52-0.25-0.99-0.64-1.24c-0.31-0.19-0.73-0.26-1.21-0.26l-1,0l0,7.03h-1.72L1730.37,130.25z"/>
		</g>
		<polygon class="st25" points="1739.34,135.73 1736.72,130.25 1738.58,130.25 1740.19,134.13 1741.82,130.25 1743.67,130.25 
			1741.06,135.73 1741.06,138.79 1739.34,138.79 		"/>
		<g>
			<path class="st25" d="M1750.54,135c-0.66,0.36-1.03,0.8-1.04,1.35c0.01,0.67,0.55,1.14,1.28,1.14c0.72,0,1.07-0.37,1.35-0.89
				L1750.54,135z M1750.92,131.33c-0.42,0-0.74,0.33-0.74,0.79c0,0.51,0.38,0.86,0.65,1.15c0.51-0.32,0.87-0.61,0.87-1.15
				c0-0.41-0.29-0.78-0.76-0.78L1750.92,131.33z M1755.38,133.67l-1.43,2.7l1.52,1.56l-1.03,1.02l-1.32-1.35
				c-0.36,0.66-1.03,1.35-2.41,1.35c-1.78,0-2.87-1.12-2.87-2.45c0-1.33,1.05-2.02,1.75-2.44c-0.59-0.61-0.9-1.19-0.9-1.87
				c0-1.18,0.97-2.11,2.21-2.11c1.26,0,2.16,0.92,2.16,2.04c0,1.13-0.84,1.66-1.37,1.97l1.25,1.27l0.84-1.7L1755.38,133.67z"/>
			<path class="st25" d="M1761.89,137.27l1.21,0c1.85,0,2.56-1.21,2.56-2.75c0-0.67-0.17-1.38-0.58-1.92
				c-0.36-0.46-0.94-0.85-1.97-0.85l-1.22,0L1761.89,137.27z M1760.17,130.25l2.71,0c1.06,0,2.61,0.1,3.62,1.48
				c0.62,0.78,0.88,1.73,0.88,2.78c0,2.41-1.27,4.28-4.37,4.28l-2.84,0L1760.17,130.25z"/>
		</g>
		<polygon class="st25" points="1768.61,130.24 1773.4,130.24 1773.4,131.75 1770.33,131.76 1770.33,133.69 1773.34,133.69 
			1773.34,135.2 1770.33,135.21 1770.33,137.27 1773.4,137.27 1773.4,138.78 1768.61,138.78 		"/>
		<polygon class="st25" points="1774.79,130.24 1776.51,130.24 1776.51,137.27 1779.32,137.27 1779.32,138.78 1774.79,138.78 		"/>
		<rect x="1780.19" y="130.24" class="st25" width="1.72" height="8.54"/>
		<path class="st25" d="M1819.54,168.51l0,1.57h0.3l0-1.57L1819.54,168.51z M1819.54,167.94l0,0.32l0.3,0v-0.32L1819.54,167.94z"/>
		<g>
			<rect x="1323.9" y="127.32" class="st22" width="462.64" height="14.42"/>
		</g>
	</g>
</g>
<g>
	<g>
		<path class="st11" d="M1877.17,308.39l-59.33-0.16c-5.25-0.01-9.5-4.29-9.49-9.54l0.41-150.42c0.01-5.25,4.29-9.5,9.54-9.49
			l59.33,0.16c5.25,0.01,9.5,4.29,9.49,9.54l-0.41,150.42C1886.7,304.16,1882.43,308.41,1877.17,308.39"/>
		<path class="st28" d="M1877.17,308.39l-59.33-0.16c-5.25-0.01-9.5-4.29-9.49-9.54l0.41-150.42c0.01-5.25,4.29-9.5,9.54-9.49
			l59.33,0.16c5.25,0.01,9.5,4.29,9.49,9.54l-0.41,150.42C1886.7,304.16,1882.43,308.41,1877.17,308.39z"/>
		<path class="st11" d="M1876.38,257.06l-57.46-0.16c-2.12-0.01-3.83-1.73-3.83-3.85l0.28-101.03c0.01-2.12,1.73-3.83,3.85-3.83
			l57.46,0.16c2.12,0.01,3.83,1.73,3.83,3.85l-0.28,101.03C1880.22,255.35,1878.5,257.06,1876.38,257.06"/>
		<path class="st28" d="M1876.38,257.06l-57.46-0.16c-2.12-0.01-3.83-1.73-3.83-3.85l0.28-101.03c0.01-2.12,1.73-3.83,3.85-3.83
			l57.46,0.16c2.12,0.01,3.83,1.73,3.83,3.85l-0.28,101.03C1880.22,255.35,1878.5,257.06,1876.38,257.06z"/>
		<path class="st11" d="M1893.68,318.86l-92.4-0.25c-1.42,0-2.56-1.15-2.56-2.57l0.01-5.3c0-1.42,1.16-2.56,2.57-2.56l92.4,0.25
			c1.42,0,2.56,1.15,2.56,2.57l-0.01,5.3C1896.25,317.72,1895.1,318.87,1893.68,318.86"/>
		<path class="st28" d="M1893.68,318.86l-92.4-0.25c-1.42,0-2.56-1.15-2.56-2.57l0.01-5.3c0-1.42,1.16-2.56,2.57-2.56l92.4,0.25
			c1.42,0,2.56,1.15,2.56,2.57l-0.01,5.3C1896.25,317.72,1895.1,318.87,1893.68,318.86z"/>
		<path class="st23" d="M1835.6,291c0-0.58-0.44-1.07-1.06-1.07c-0.65,0-1.06,0.51-1.06,1.08c0,0.59,0.41,1.09,1.04,1.09
			C1835.21,292.09,1835.6,291.55,1835.6,291L1835.6,291z M1832.67,288.03l0.84,0l0,1.23l0,0.42c0.34-0.43,0.85-0.54,1.17-0.54
			c0.83,0,1.75,0.61,1.75,1.85c0,1.19-0.83,1.88-1.79,1.88c-0.55,0-0.98-0.27-1.17-0.61l0,0.51l-0.81,0L1832.67,288.03z"/>
		<path class="st23" d="M1840.57,291.48c-0.2,0.78-0.89,1.39-1.8,1.39c-1.11,0-1.88-0.86-1.88-1.87c0-1.04,0.8-1.86,1.85-1.86
			c0.88,0,1.63,0.55,1.84,1.41l-0.86,0c-0.15-0.37-0.49-0.63-0.95-0.63c-0.31-0.01-0.54,0.1-0.75,0.3
			c-0.18,0.19-0.29,0.47-0.29,0.78c0,0.63,0.44,1.08,1.04,1.08c0.52,0,0.82-0.31,0.95-0.6L1840.57,291.48z"/>
		<path class="st23" d="M1842.72,290.19c-0.01-0.19-0.1-0.38-0.43-0.38c-0.28,0-0.42,0.18-0.42,0.35c0.01,0.22,0.26,0.34,0.59,0.44
			c0.56,0.15,1.17,0.32,1.18,1.07c0.01,0.72-0.59,1.18-1.33,1.18c-0.54,0-1.28-0.28-1.34-1.13l0.84,0c0.03,0.38,0.36,0.45,0.52,0.45
			c0.26,0,0.49-0.17,0.48-0.41c0-0.3-0.26-0.38-0.91-0.61c-0.47-0.15-0.86-0.41-0.86-0.91c0-0.69,0.58-1.12,1.26-1.12
			c0.47,0,1.18,0.21,1.25,1.05L1842.72,290.19z"/>
		<path class="st23" d="M1844.16,289.27l0.63,0l0,0.49c0.15-0.29,0.55-0.6,1.05-0.6c0.32,0,0.65,0.1,0.9,0.37
			c0.09,0.09,0.19,0.27,0.22,0.34c0.06-0.1,0.13-0.22,0.25-0.35c0.22-0.22,0.54-0.36,0.92-0.37c0.32,0,0.68,0.09,0.93,0.35
			c0.31,0.31,0.38,0.65,0.38,1.31l0,1.92h-0.67l0-1.89c0-0.29-0.04-0.58-0.19-0.77c-0.12-0.18-0.31-0.29-0.62-0.29
			c-0.29,0-0.54,0.12-0.67,0.33c-0.14,0.22-0.16,0.41-0.16,0.7l0,1.92l-0.67,0l0-1.92c0.01-0.29-0.03-0.5-0.14-0.69
			c-0.13-0.2-0.33-0.34-0.66-0.34c-0.31-0.01-0.54,0.15-0.66,0.34c-0.13,0.19-0.18,0.43-0.18,0.71l0,1.91l-0.67,0L1844.16,289.27z"
			/>
		<path class="st23" d="M1852.92,290.7c-0.03-0.46-0.49-0.98-1.15-0.96c-0.68,0-1.12,0.49-1.15,0.97L1852.92,290.7z M1850.6,291.22
			c0.03,0.7,0.65,1.06,1.17,1.06c0.47,0,0.81-0.22,1-0.59l0.69,0c-0.17,0.38-0.41,0.67-0.7,0.86c-0.29,0.2-0.64,0.29-0.99,0.3
			c-1.14,0-1.84-0.91-1.84-1.83c0-1,0.78-1.85,1.83-1.85c0.5,0,0.95,0.18,1.29,0.51c0.41,0.42,0.58,0.96,0.53,1.54L1850.6,291.22z"
			/>
		<path class="st23" d="M1854.57,291c0.01,0.64,0.46,1.22,1.22,1.22c0.34,0,0.65-0.14,0.87-0.37c0.22-0.22,0.35-0.53,0.34-0.88
			c0-0.35-0.13-0.65-0.35-0.86c-0.22-0.22-0.52-0.34-0.86-0.34C1855.05,289.78,1854.56,290.34,1854.57,291L1854.57,291z
			 M1857.62,292.74l-0.64,0l0-0.61c-0.19,0.36-0.58,0.71-1.3,0.71c-1.09,0-1.78-0.84-1.79-1.85c0-1.08,0.78-1.84,1.77-1.84
			c0.71,0,1.15,0.4,1.29,0.67l0-0.61l0-1.21l0.67,0L1857.62,292.74z"/>
	</g>
	<path class="st23" d="M1858.37,289.26l0,3.48h0.67l0-3.48L1858.37,289.26z M1858.37,288.01l0,0.7l0.67,0l0-0.7L1858.37,288.01z"/>
	<g>
		<path class="st23" d="M1860.25,291.01c0.01,0.52,0.37,1.21,1.22,1.21c0.53,0,0.91-0.3,1.08-0.69c0.08-0.16,0.11-0.34,0.12-0.52
			c0.01-0.18-0.03-0.36-0.1-0.52c-0.17-0.4-0.56-0.72-1.11-0.72C1860.72,289.77,1860.25,290.35,1860.25,291.01L1860.25,291.01z
			 M1863.33,292.73l-0.67,0l0-0.61c-0.24,0.47-0.74,0.71-1.29,0.71c-1.12,0-1.79-0.87-1.79-1.84c0-1.06,0.77-1.84,1.78-1.84
			c0.69,0,1.13,0.38,1.29,0.71l0-0.61l0.67,0L1863.33,292.73z"/>
		<path class="st12" d="M1837.16,285.41c-0.31,0-0.62-0.1-0.87-0.32c-0.58-0.48-0.66-1.34-0.17-1.92l10.25-12.3
			c1.25-1.5,3.38-1.89,5.08-0.94c1.77,0.99,2.53,3.15,1.78,5.03c0,0,0,0.01,0,0.01l-2.33,5.72c-0.26,0.65-0.01,1.39,0.58,1.76
			c0.57,0.36,1.31,0.22,1.79-0.33l4.5-5.38c0.48-0.58,1.34-0.65,1.92-0.17c0.58,0.48,0.65,1.34,0.17,1.92l-4.51,5.39
			c0,0.01-0.01,0.01-0.01,0.02c-1.36,1.57-3.59,1.94-5.3,0.87c-1.72-1.07-2.42-3.21-1.67-5.09c0,0,0-0.01,0-0.01l2.33-5.72
			c0.24-0.61-0.01-1.32-0.58-1.64c-0.55-0.31-1.25-0.18-1.66,0.31l-10.25,12.3C1837.94,285.24,1837.55,285.41,1837.16,285.41"/>
	</g>
</g>
<g>
	<g>
		<path d="M196.53,304.62c-0.68,0.06-2.39,0.43-3.13,0.85c0.35-0.14,0.66-0.25,1.11-0.31c2.69-0.37,4.99,1.99,5.14,5.28
			c0.14,3.14-1.73,5.98-4.24,6.56c0.48-0.07,3.05-0.97,3.5-1.2c1.98-1.01,2.88-3.08,2.75-5.9
			C201.52,306.43,199.36,304.36,196.53,304.62"/>
		<path class="st29" d="M196.53,304.62c-0.68,0.06-2.39,0.43-3.13,0.85c0.35-0.14,0.66-0.25,1.11-0.31
			c2.69-0.37,4.99,1.99,5.14,5.28c0.14,3.14-1.73,5.98-4.24,6.56c0.48-0.07,3.05-0.97,3.5-1.2c1.98-1.01,2.88-3.08,2.75-5.9
			C201.52,306.43,199.36,304.36,196.53,304.62z"/>
		<path d="M199.65,310.44c0.15,3.29-1.91,6.26-4.6,6.63c-2.69,0.37-4.99-1.99-5.14-5.28c-0.15-3.29,1.91-6.26,4.6-6.63
			C197.2,304.79,199.5,307.15,199.65,310.44"/>
		<path class="st29" d="M199.65,310.44c0.15,3.29-1.91,6.26-4.6,6.63c-2.69,0.37-4.99-1.99-5.14-5.28c-0.15-3.29,1.91-6.26,4.6-6.63
			C197.2,304.79,199.5,307.15,199.65,310.44z"/>
		<path class="st29" d="M197.27,310.61c0.09,1.92-1.02,3.64-2.47,3.84c-1.45,0.2-2.7-1.19-2.78-3.11c-0.09-1.92,1.02-3.64,2.47-3.84
			C195.94,307.3,197.18,308.69,197.27,310.61z"/>
		<path class="st30" d="M196.63,310.7c0.07,1.46-0.77,2.76-1.87,2.91c-1.1,0.15-2.05-0.9-2.11-2.36c-0.07-1.46,0.77-2.76,1.87-2.91
			C195.62,308.19,196.57,309.24,196.63,310.7"/>
		<path class="st31" d="M194.49,307.5c-1.45,0.2-2.56,1.92-2.47,3.84c0.09,1.92,1.33,3.31,2.78,3.11c1.45-0.2,2.56-1.92,2.47-3.84
			C197.18,308.69,195.94,307.3,194.49,307.5z M194.76,313.61c-1.1,0.15-2.05-0.9-2.11-2.36c-0.07-1.46,0.77-2.76,1.87-2.91
			c1.1-0.15,2.05,0.9,2.11,2.36C196.7,312.15,195.86,313.46,194.76,313.61z"/>
		<path class="st11" d="M195.12,311.8c0.02,0.54-0.29,0.98-0.69,0.98s-0.76-0.44-0.78-0.98c-0.02-0.54,0.29-0.98,0.69-0.98
			S195.1,311.26,195.12,311.8"/>
		<path class="st31" d="M195.12,311.8c0.02,0.54-0.29,0.98-0.69,0.98s-0.76-0.44-0.78-0.98c-0.02-0.54,0.29-0.98,0.69-0.98
			S195.1,311.26,195.12,311.8z"/>
	</g>
	<polygon class="st11" points="200.88,302.74 200.88,306.06 195.08,309.35 195.08,306.2 	"/>
	<polygon class="st29" points="200.88,302.74 200.88,306.06 195.08,309.35 195.08,306.2 	"/>
	<polygon class="st30" points="195.14,312.27 193.57,311.82 193.57,305.08 195.14,305.54 	"/>
	<polygon class="st29" points="69.33,318.19 80.67,314.41 84.44,310.28 75.35,308.6 75.19,312.14 69.47,313.86 	"/>
	<g>
		<path d="M169.76,328.11c-0.83-0.04-2.93,0.13-3.83,0.51c0.43-0.11,0.81-0.19,1.36-0.19c3.3,0,6.11,3.29,6.29,7.34
			c0.17,3.87-2.12,7.03-5.19,7.32c0.58,0,3.73-0.67,4.29-0.88c2.43-0.9,3.53-3.29,3.37-6.76
			C175.87,331.17,173.23,328.27,169.76,328.11"/>
		<path class="st29" d="M169.76,328.11c-0.83-0.04-2.93,0.13-3.83,0.51c0.43-0.11,0.81-0.19,1.36-0.19c3.3,0,6.11,3.29,6.29,7.34
			c0.17,3.87-2.12,7.03-5.19,7.32c0.58,0,3.73-0.67,4.29-0.88c2.43-0.9,3.53-3.29,3.37-6.76
			C175.87,331.17,173.23,328.27,169.76,328.11z"/>
		<path d="M173.58,335.77c0.18,4.06-2.34,7.34-5.64,7.34c-3.3,0-6.11-3.29-6.29-7.34c-0.18-4.05,2.34-7.34,5.64-7.34
			C170.58,328.43,173.4,331.72,173.58,335.77"/>
		<path class="st29" d="M173.58,335.77c0.18,4.06-2.34,7.34-5.64,7.34c-3.3,0-6.11-3.29-6.29-7.34c-0.18-4.05,2.34-7.34,5.64-7.34
			C170.58,328.43,173.4,331.72,173.58,335.77z"/>
		<path class="st11" d="M170.67,335.57c0.11,2.37-1.25,4.28-3.03,4.28s-3.3-1.92-3.41-4.28c-0.11-2.37,1.25-4.28,3.03-4.28
			C169.03,331.29,170.56,333.21,170.67,335.57"/>
		<path class="st30" d="M169.89,335.57c0.08,1.79-0.95,3.25-2.3,3.25s-2.51-1.45-2.59-3.25c-0.08-1.79,0.95-3.25,2.29-3.25
			C168.65,332.33,169.81,333.78,169.89,335.57"/>
		<path class="st31" d="M167.26,331.29c-1.78,0-3.13,1.92-3.03,4.28c0.11,2.37,1.63,4.28,3.41,4.28c1.78,0,3.13-1.92,3.03-4.28
			C170.56,333.21,169.03,331.29,167.26,331.29z M167.59,338.82c-1.35,0-2.51-1.45-2.59-3.25c-0.08-1.79,0.95-3.25,2.3-3.25
			c1.35,0,2.51,1.45,2.59,3.25C169.97,337.37,168.94,338.82,167.59,338.82z"/>
		<path class="st11" d="M168.19,335.57c0.02,0.54-0.29,0.98-0.69,0.98c-0.41,0-0.76-0.44-0.78-0.98c-0.02-0.54,0.29-0.98,0.69-0.98
			S168.16,335.03,168.19,335.57"/>
		<path class="st29" d="M168.19,335.57c0.02,0.54-0.29,0.98-0.69,0.98c-0.41,0-0.76-0.44-0.78-0.98c-0.02-0.54,0.29-0.98,0.69-0.98
			S168.16,335.03,168.19,335.57z"/>
	</g>
	<polygon class="st11" points="161.36,323.43 161.36,326.74 173.96,329.52 173.96,326.36 	"/>
	<polygon class="st29" points="161.36,323.81 161.36,326.81 174.09,329.65 174.09,326.42 	"/>
	<polygon class="st30" points="168.21,336.04 166.64,335.59 166.64,325.74 168.21,326.2 	"/>
	<polygon class="st32" points="168.21,336.04 166.64,335.59 166.64,325.74 168.21,326.2 	"/>
	<path class="st33" d="M40.19,190l132.02-25.99c0,0,4.55-1.52,6.83,0.95l18.53,20.3c0,0,1.52,0.38,1.52,5.94
		c0,5.55,1.64,111.28,1.64,111.66c0.01,0.59-16.26,22.09-18.54,23.05c-2.82,1.19-6.73,0.63-9.64,0.15
		c-3.95-0.66-7.84-1.64-11.78-2.34c0,0-68.92-12.14-68.92-12.14l-50.46-9.23c0,0-1.77-0.13-1.9-1.9s-2.66-106.48-2.66-106.48
		S37.61,190.5,40.19,190z"/>
	<path class="st29" d="M36.84,193.98l135.29-24.64c0,0,0.39,17.4,0.39,19.46c-1.39,0.15-135.37,18.84-135.37,18.84L36.84,193.98z"/>
	<path class="st29" d="M172.21,164.01l2.04,162.32l-0.17,3.33c0,0,4.29,1.64,9.31-0.63l-0.12-3.81l-0.54-29.56"/>
	<polygon class="st29" points="130.8,254.49 171.08,255.01 170.05,195.47 129.7,200.55 	"/>
	<polygon class="st29" points="96.39,253.42 128.78,253.79 127.8,201.57 95.64,205.65 	"/>
	<polygon class="st29" points="66.09,253.12 93.59,253.26 92.59,206.12 64.9,209.49 	"/>
	<line class="st29" x1="93.87" y1="205.87" x2="94.82" y2="254.49"/>
	<line class="st29" x1="38.2" y1="254.02" x2="173.23" y2="256.29"/>
	<path class="st34" d="M62.64,259.99l70.18,2.02c0,0,3.63-0.11,3.41,3.67c-0.25,4.81,0.01,12.77,0.01,12.77s-0.77,3.79-4.44,3.54
		c-3.67-0.25-68.29-5.31-68.29-5.31S61,276.3,61,274.03c0-2.28,0-12.77,0-12.77S60.88,259.94,62.64,259.99z"/>
	<polygon class="st29" points="181.38,170.59 199.05,189.25 200.24,281.82 182.77,294.26 	"/>
	<line class="st29" x1="183.28" y1="295.45" x2="200.43" y2="283.02"/>
	<g>
		<path d="M58.5,300.25c-1.44-0.07-5.1,0.24-6.66,0.95c0.74-0.2,1.41-0.36,2.37-0.36c5.73,0,10.64,6.1,10.95,13.62
			c0.3,7.18-3.68,13.05-9.03,13.58c1.01,0,6.49-1.25,7.47-1.63c4.22-1.67,6.14-6.1,5.87-12.54
			C69.13,305.93,64.55,300.54,58.5,300.25"/>
		<path class="st29" d="M58.5,300.25c-1.44-0.07-5.1,0.24-6.66,0.95c0.74-0.2,1.41-0.36,2.37-0.36c5.73,0,10.64,6.1,10.95,13.62
			c0.3,7.18-3.68,13.05-9.03,13.58c1.01,0,6.49-1.25,7.47-1.63c4.22-1.67,6.14-6.1,5.87-12.54
			C69.13,305.93,64.55,300.54,58.5,300.25z"/>
		<path d="M65.16,314.46c0.32,7.52-4.08,13.62-9.81,13.62c-5.73,0-10.64-6.1-10.95-13.62c-0.32-7.52,4.08-13.62,9.81-13.62
			C59.94,300.84,64.84,306.94,65.16,314.46"/>
		<path class="st29" d="M65.16,314.46c0.32,7.52-4.08,13.62-9.81,13.62c-5.73,0-10.64-6.1-10.95-13.62
			c-0.32-7.52,4.08-13.62,9.81-13.62C59.94,300.84,64.84,306.94,65.16,314.46z"/>
		<path class="st11" d="M60.08,314.1c0.18,4.39-2.17,7.95-5.26,7.95c-3.09,0-5.75-3.56-5.93-7.95c-0.18-4.39,2.17-7.95,5.26-7.95
			C57.24,306.15,59.9,309.71,60.08,314.1"/>
		<path class="st30" d="M58.73,314.1c0.14,3.33-1.65,6.03-3.99,6.03c-2.35,0-4.36-2.7-4.5-6.03c-0.14-3.33,1.65-6.03,3.99-6.03
			C56.58,308.07,58.59,310.77,58.73,314.1"/>
		<path class="st31" d="M60.08,314.1c-0.18-4.39-2.84-7.95-5.93-7.95c-3.09,0-5.45,3.56-5.27,7.95c0.18,4.39,2.84,7.95,5.93,7.95
			C57.91,322.04,60.27,318.49,60.08,314.1z M54.74,320.13c-2.34,0-4.36-2.7-4.5-6.03c-0.14-3.33,1.65-6.03,3.99-6.03
			c2.35,0,4.36,2.7,4.5,6.03C58.87,317.43,57.08,320.13,54.74,320.13z"/>
		<path class="st11" d="M55.77,314.1c0.04,1.01-0.5,1.82-1.21,1.82c-0.71,0-1.32-0.82-1.36-1.82c-0.04-1.01,0.5-1.82,1.21-1.82
			C55.12,312.27,55.73,313.09,55.77,314.1"/>
		<path class="st31" d="M55.77,314.1c0.04,1.01-0.5,1.82-1.21,1.82c-0.71,0-1.32-0.82-1.36-1.82c-0.04-1.01,0.5-1.82,1.21-1.82
			C55.12,312.27,55.73,313.09,55.77,314.1z"/>
	</g>
	<g>
		<path d="M58.5,300.19c-1.44-0.07-5.1,0.24-6.66,0.95c0.74-0.2,1.41-0.36,2.37-0.36c5.73,0,10.64,6.1,10.95,13.62
			c0.3,7.18-3.68,13.05-9.03,13.58c1.01,0,6.49-1.25,7.47-1.63c4.22-1.67,6.14-6.1,5.87-12.54
			C69.13,305.87,64.55,300.48,58.5,300.19"/>
		<path class="st29" d="M58.5,300.19c-1.44-0.07-5.1,0.24-6.66,0.95c0.74-0.2,1.41-0.36,2.37-0.36c5.73,0,10.64,6.1,10.95,13.62
			c0.3,7.18-3.68,13.05-9.03,13.58c1.01,0,6.49-1.25,7.47-1.63c4.22-1.67,6.14-6.1,5.87-12.54
			C69.13,305.87,64.55,300.48,58.5,300.19z"/>
		<path d="M65.16,314.4c0.32,7.52-4.08,13.62-9.81,13.62c-5.73,0-10.64-6.1-10.95-13.62c-0.32-7.52,4.08-13.62,9.81-13.62
			C59.94,300.77,64.84,306.87,65.16,314.4"/>
		<path class="st29" d="M65.16,314.4c0.32,7.52-4.08,13.62-9.81,13.62c-5.73,0-10.64-6.1-10.95-13.62
			c-0.32-7.52,4.08-13.62,9.81-13.62C59.94,300.77,64.84,306.87,65.16,314.4z"/>
		<path class="st11" d="M60.08,314.03c0.18,4.39-2.17,7.95-5.26,7.95c-3.09,0-5.75-3.56-5.93-7.95c-0.18-4.39,2.17-7.95,5.26-7.95
			C57.24,306.09,59.9,309.65,60.08,314.03"/>
		<path class="st30" d="M58.73,314.03c0.14,3.33-1.65,6.03-3.99,6.03c-2.35,0-4.36-2.7-4.5-6.03c-0.14-3.33,1.65-6.03,3.99-6.03
			C56.58,308.01,58.59,310.71,58.73,314.03"/>
		<path class="st31" d="M60.08,314.03c-0.18-4.39-2.84-7.95-5.93-7.95c-3.09,0-5.45,3.56-5.27,7.95c0.18,4.39,2.84,7.95,5.93,7.95
			C57.91,321.98,60.27,318.42,60.08,314.03z M54.74,320.06c-2.34,0-4.36-2.7-4.5-6.03c-0.14-3.33,1.65-6.03,3.99-6.03
			c2.35,0,4.36,2.7,4.5,6.03C58.87,317.36,57.08,320.06,54.74,320.06z"/>
		<path class="st11" d="M55.77,314.03c0.04,1.01-0.5,1.82-1.21,1.82c-0.71,0-1.32-0.82-1.36-1.82c-0.04-1.01,0.5-1.82,1.21-1.82
			C55.12,312.21,55.73,313.03,55.77,314.03"/>
		<path class="st31" d="M55.77,314.03c0.04,1.01-0.5,1.82-1.21,1.82c-0.71,0-1.32-0.82-1.36-1.82c-0.04-1.01,0.5-1.82,1.21-1.82
			C55.12,312.21,55.73,313.03,55.77,314.03z"/>
	</g>
	<path d="M54.07,296.7c0,0,5.03-1.83,6.78-1.82c1.74,0.01,7.95,1.05,11.01,5.73c3.06,4.68,5.42,11.17,5.03,13.15
		c-0.1-0.05-6.63,3.21-6.63,3.21S69.35,298.55,54.07,296.7z"/>
	<path d="M44.97,311.3l-2.88,0.28c0,0,0.35-13.21,12.22-15.59l5.72-1.03c0,0,12.57,11.86,12.52,11.66
		c-0.05-0.21-0.03,8.82-0.03,8.82l-2.26,1.53c0,0-6.26-16.59-13.23-16.72C50.06,300.1,46.05,305.92,44.97,311.3z"/>
	<g>
		<path class="st31" d="M197.09,301.03l0.43,1.56l0.23-0.24l-0.43-1.56L197.09,301.03z M196.93,300.46l0.09,0.32l0.23-0.24
			l-0.09-0.32L196.93,300.46z"/>
		<g>
			<g>
				<path class="st31" d="M189.54,309.98c-0.07-0.26-0.28-0.32-0.49-0.1c-0.22,0.23-0.3,0.61-0.23,0.87
					c0.07,0.26,0.28,0.34,0.49,0.11C189.55,310.61,189.61,310.22,189.54,309.98L189.54,309.98z M188.18,309.69l0.29-0.3l0.15,0.55
					l0.05,0.19c0.06-0.32,0.22-0.55,0.33-0.66c0.28-0.3,0.67-0.36,0.83,0.2c0.15,0.53-0.05,1.14-0.38,1.49
					c-0.19,0.2-0.37,0.23-0.47,0.14l0.06,0.23l-0.27,0.29L188.18,309.69z"/>
				<path class="st31" d="M191.3,308.41c0.03,0.42-0.13,0.95-0.44,1.27c-0.38,0.4-0.75,0.29-0.87-0.16c-0.13-0.47,0.04-1.12,0.4-1.5
					c0.3-0.32,0.63-0.34,0.8-0.02l-0.29,0.31c-0.1-0.11-0.24-0.11-0.4,0.06c-0.11,0.11-0.17,0.24-0.22,0.4
					c-0.04,0.15-0.04,0.32,0,0.45c0.08,0.28,0.29,0.33,0.49,0.11c0.18-0.19,0.24-0.43,0.25-0.61L191.3,308.41z"/>
				<path class="st31" d="M191.87,307.06c-0.03-0.08-0.08-0.13-0.19-0.02c-0.1,0.1-0.12,0.23-0.1,0.31c0.03,0.1,0.13,0.06,0.26-0.01
					c0.21-0.13,0.44-0.28,0.54,0.06c0.09,0.32-0.06,0.75-0.31,1.01c-0.19,0.2-0.47,0.33-0.6-0.03l0.29-0.3
					c0.06,0.16,0.18,0.08,0.23,0.02c0.09-0.09,0.14-0.25,0.11-0.36c-0.04-0.14-0.14-0.08-0.39,0.05c-0.18,0.1-0.34,0.12-0.41-0.1
					c-0.09-0.31,0.06-0.71,0.29-0.96c0.16-0.17,0.43-0.33,0.56,0.03L191.87,307.06z"/>
				<path class="st31" d="M192.25,306.13l0.21-0.22l0.06,0.22c0.01-0.19,0.11-0.47,0.28-0.65c0.11-0.11,0.23-0.19,0.35-0.15
					c0.04,0.01,0.1,0.06,0.12,0.07c0.01-0.07,0.02-0.15,0.04-0.25c0.05-0.18,0.14-0.36,0.27-0.49c0.11-0.11,0.24-0.2,0.36-0.18
					c0.14,0.03,0.21,0.15,0.29,0.45l0.24,0.86l-0.23,0.24l-0.24-0.85c-0.04-0.13-0.08-0.25-0.16-0.28
					c-0.06-0.04-0.14-0.02-0.25,0.09c-0.1,0.11-0.17,0.25-0.19,0.39c-0.02,0.15,0,0.24,0.03,0.37l0.24,0.86l-0.23,0.24l-0.24-0.86
					c-0.03-0.13-0.07-0.22-0.13-0.26c-0.07-0.05-0.16-0.03-0.27,0.08c-0.11,0.11-0.17,0.26-0.18,0.39
					c-0.02,0.13-0.01,0.26,0.03,0.39l0.24,0.86l-0.23,0.24L192.25,306.13z"/>
				<path class="st31" d="M195.41,303.63c-0.07-0.2-0.29-0.26-0.51-0.02c-0.23,0.24-0.32,0.62-0.27,0.85L195.41,303.63z
					 M194.69,304.7c0.1,0.3,0.35,0.25,0.53,0.06c0.16-0.17,0.25-0.39,0.27-0.63l0.24-0.25c-0.01,0.23-0.06,0.45-0.13,0.64
					c-0.08,0.2-0.18,0.36-0.3,0.49c-0.39,0.41-0.74,0.25-0.86-0.16c-0.12-0.45,0.03-1.11,0.39-1.49c0.17-0.18,0.35-0.26,0.5-0.23
					c0.19,0.04,0.32,0.22,0.37,0.5L194.69,304.7z"/>
				<path class="st31" d="M196.01,303.18c0.08,0.29,0.31,0.39,0.57,0.11c0.11-0.12,0.2-0.3,0.25-0.48c0.05-0.18,0.05-0.36,0.01-0.52
					c-0.04-0.15-0.13-0.24-0.23-0.26c-0.1-0.02-0.22,0.03-0.33,0.15C196.02,302.45,195.93,302.88,196.01,303.18L196.01,303.18z
					 M197.27,302.86l-0.22,0.23l-0.08-0.27c-0.02,0.23-0.11,0.53-0.35,0.78c-0.37,0.39-0.71,0.26-0.84-0.19
					c-0.13-0.49,0.04-1.11,0.37-1.46c0.24-0.25,0.44-0.23,0.52-0.16l-0.08-0.28l-0.15-0.54l0.23-0.24L197.27,302.86z"/>
			</g>
			<g>
				<path class="st31" d="M197.95,301.14c0.07,0.23,0.28,0.41,0.56,0.11c0.18-0.19,0.27-0.46,0.28-0.7c0.01-0.1,0-0.19-0.02-0.28
					c-0.02-0.08-0.05-0.15-0.1-0.2c-0.11-0.12-0.28-0.12-0.47,0.08C197.95,300.42,197.86,300.85,197.95,301.14L197.95,301.14z
					 M199.21,300.81l-0.23,0.24l-0.08-0.27c-0.02,0.3-0.16,0.59-0.35,0.78c-0.38,0.4-0.72,0.25-0.84-0.19
					c-0.13-0.48,0.03-1.11,0.38-1.47c0.24-0.25,0.43-0.23,0.53-0.14l-0.08-0.28l0.23-0.24L199.21,300.81z"/>
				<path class="st31" d="M189.38,306.9c-0.11,0.11-0.22,0.17-0.34,0.17c-0.26-0.01-0.39-0.37-0.3-0.8l1.96-9.21
					c0.24-1.12,0.92-2.06,1.61-2.25c0.73-0.19,1.26,0.51,1.23,1.63c0,0,0,0,0,0l-0.08,3.41c-0.01,0.38,0.17,0.63,0.42,0.58
					c0.24-0.04,0.47-0.37,0.57-0.79l0.86-4.04c0.09-0.43,0.38-0.78,0.63-0.77c0.26,0.01,0.39,0.37,0.3,0.8l-0.87,4.04
					c0,0,0,0.01,0,0.01c-0.27,1.19-0.98,2.16-1.7,2.29c-0.72,0.13-1.22-0.58-1.2-1.69c0,0,0,0,0-0.01l0.08-3.41
					c0.01-0.36-0.17-0.59-0.4-0.53c-0.23,0.06-0.45,0.37-0.53,0.73l-1.96,9.21C189.63,306.55,189.52,306.76,189.38,306.9"/>
			</g>
		</g>
	</g>
	<polygon class="st29" points="143.57,318.8 171.89,323.58 170.72,260.94 142.62,260.37 	"/>
	<g>
		<defs>
			<polygon id="SVGID_15_" points="173.23,276.29 199.26,265.86 199.26,188.06 187.6,174.34 172.6,179.07 			"/>
		</defs>
		<clipPath id="SVGID_16_">
			<use xlink:href="#SVGID_15_"  style="overflow:visible;"/>
		</clipPath>
		<path class="st35" d="M161.16,263.86c-0.62,0-1.25-0.57-1.76-1.73c-1.17-2.64-1.32-7.34-0.35-10.5l20.73-67.15
			c2.52-8.17,6.84-10.32,10.27-5.12c3.57,5.41,5.11,17.25,3.59,27.52c0,0.01,0,0.03-0.01,0.04l-4.72,31.24
			c-0.52,3.55-0.03,7.58,1.17,9.61c1.15,1.95,2.64,1.2,3.61-1.82l9.11-29.4c0.98-3.15,2.71-3.57,3.88-0.92
			c1.17,2.64,1.32,7.34,0.34,10.5l-9.12,29.45c-0.01,0.03-0.02,0.06-0.03,0.09c-2.75,8.58-7.25,10.58-10.7,4.75
			c-3.46-5.85-4.88-17.55-3.36-27.81c0-0.02,0-0.03,0.01-0.05l4.72-31.24c0.49-3.35-0.01-7.19-1.17-8.96
			c-1.12-1.7-2.53-0.99-3.35,1.67l-20.73,67.15C162.73,262.95,161.95,263.86,161.16,263.86"/>
		<path class="st36" d="M161.16,263.86c-0.62,0-1.25-0.57-1.76-1.73c-1.17-2.64-1.32-7.34-0.35-10.5l20.73-67.15
			c2.52-8.17,6.84-10.32,10.27-5.12c3.57,5.41,5.11,17.25,3.59,27.52c0,0.01,0,0.03-0.01,0.04l-4.72,31.24
			c-0.52,3.55-0.03,7.58,1.17,9.61c1.15,1.95,2.64,1.2,3.61-1.82l9.11-29.4c0.98-3.15,2.71-3.57,3.88-0.92
			c1.17,2.64,1.32,7.34,0.34,10.5l-9.12,29.45c-0.01,0.03-0.02,0.06-0.03,0.09c-2.75,8.58-7.25,10.58-10.7,4.75
			c-3.46-5.85-4.88-17.55-3.36-27.81c0-0.02,0-0.03,0.01-0.05l4.72-31.24c0.49-3.35-0.01-7.19-1.17-8.96
			c-1.12-1.7-2.53-0.99-3.35,1.67l-20.73,67.15C162.73,262.95,161.95,263.86,161.16,263.86z"/>
	</g>
	<polygon class="st33" points="183.28,175.26 199.25,191.2 200.27,279.72 184.42,289.96 	"/>
	<polyline class="st33" points="183.4,329.02 187.33,324.22 186.84,321.05 183.28,325.21 183.4,329.02 	"/>
</g>
</svg>
