<?xml version="1.0" encoding="utf-8"?>
<!-- Generator: Adobe Illustrator 24.0.3, SVG Export Plug-In . SVG Version: 6.00 Build 0)  -->
<svg version="1.1" id="Layer_1" xmlns="http://www.w3.org/2000/svg" xmlns:xlink="http://www.w3.org/1999/xlink" x="0px" y="0px"
	 viewBox="0 0 482 161.2" style="enable-background:new 0 0 482 161.2;" xml:space="preserve">
<style type="text/css">
	.st0{display:none;}
	.st1{display:inline;}
	.st2{fill:none;stroke:#CF202F;stroke-miterlimit:10;}
	.st3{fill:none;stroke:#CF202F;stroke-miterlimit:10;stroke-dasharray:5.9738,5.9738;}
	.st4{fill:#CF202F;}
	.st5{fill:#231F20;}
	.st6{fill:#FFFFFF;}
	.st7{fill:#E6E7E8;}
	.st8{fill:#FCD9DE;}
	.st9{fill:#FF7E00;}
	.st10{fill:#29AE85;}
	.st11{fill:#0487E8;}
	.st12{fill:#F13C79;}
	.st13{opacity:0.6;}
	.st14{fill:url(#SVGID_1_);}
	.st15{fill:url(#SVGID_2_);}
	.st16{fill:url(#SVGID_3_);}
</style>
<g id="Layer_2_1_" class="st0">
	<g class="st1">
		<g>
			<g>
				<path class="st2" d="M400.6,208.3c-0.7,0.7-1.5,1.3-2.2,2"/>
				<path class="st3" d="M393.7,214.1c-20.7,16.4-48.5,28.9-79.5,36.7c-5.5,1.4-11.2,2.6-16.9,3.7c-15.1,2.8-30.8,4.5-46.6,5
					c-0.1,0-0.3,0-0.4,0c-3.4,0.1-6.7,0.1-10.1,0.1c-34.2-0.2-68.4-6.2-98.4-19.2c-6.2-2.7-12.2-5.6-17.9-8.9
					c-6.6-3.7-12.9-7.9-18.9-12.4c-1.2-0.9-6.7-5.8-14-14c-21.9-24.7-59.9-79.5-46.2-146.8C62.7-31.5,168.9-101.2,234-80.5
					c12.1,3.8,23,9.5,33,16.2c27.3,18.3,48.4,44.5,70.8,62.8c13.7,11.2,27.9,19.4,44.4,21.2c4.6,0.5,9,1.8,13.2,3.8
					c7.9,3.7,15.2,10,21.5,18C446.1,78.7,454,154.7,405.2,204"/>
				<path class="st2" d="M403.1,205.9c-0.7,0.7-1.4,1.4-2.2,2.1"/>
				<g>
					
						<rect x="400" y="205.2" transform="matrix(0.7517 -0.6595 0.6595 0.7517 -38.0057 315.8988)" class="st4" width="1" height="6.5"/>
				</g>
			</g>
		</g>
		<path class="st5" d="M387.2,208.3c-19.8,18.1-48.6,31.9-81.1,40c-5.2,1.3-10.5,2.4-15.8,3.4c-14.2,2.6-28.8,4.2-43.6,4.7
			c-0.1,0-0.3,0-0.4,0c-3.2,0.1-6.3,0.1-9.5,0.1c-32-0.2-64-5.8-92.1-18c-5.8-2.5-11.4-5.3-16.8-8.3c-6.2-3.5-12.1-7.4-17.7-11.6
			c-1.2-0.9-6.3-5.5-13.1-13.1c-20.5-23.1-56-74.4-43.2-137.3c17-83.9,116.3-149,177.2-129.7c11.3,3.6,21.5,8.9,30.9,15.2
			c25.6,17.1,45.2,41.6,66.2,58.7c12.8,10.4,26.1,18.1,41.5,19.8c4.3,0.5,8.4,1.7,12.3,3.6c7.4,3.5,14.2,9.3,20.1,16.8
			C430.2,88.3,437.3,162.4,387.2,208.3z"/>
		<g>
			<path class="st6" d="M159.2,24.8c0,0-5-3.6-9.9,0.5c-4.9,4-1.8,31.5,3.3,35.5c0,0,9.5,1,9-12.8C161.1,34.4,159.2,24.8,159.2,24.8
				z"/>
			<path class="st7" d="M246.3,256.7h-9.5c0-0.1,0-0.1-0.1-0.2c-32-0.2-64-5.8-92.1-18c-5.8-2.5-11.4-5.3-16.8-8.3
				c-4.5-33.6-10.8-90.5-4.8-104.4c0.4-0.9,0.8-1.7,1.4-2.2c0-0.1,0.1-0.1,0.1-0.1c2.7-2.6,21-5.9,33.6-7.9l0,0
				c6.7-1.1,11.8-1.7,11.8-1.7l20.7,0.1c0,0,3.8,0.5,9.3,1.5c11.6,2.1,30.5,6.3,35.5,12.6c0.9,1.1,1.9,7.1,2.9,15.9
				c0,0.2,0.1,0.4,0.1,0.6c0.3,2.1,0.5,4.4,0.7,6.8c2,20.9,4.1,51.7,5.5,75.3l0,0c0.1,1.1,0.1,2.3,0.2,3.3c0.3,5.1,0.6,9.9,0.8,14
				v0.1c0.3,5.2,0.5,9.4,0.7,12.4C246.3,256.5,246.3,256.6,246.3,256.7z"/>
			<polygon class="st8" points="190.3,87.1 171.6,87.8 169.9,113.9 190.6,114 			"/>
			<path class="st5" d="M170.5,105.5l-12.3,10.1l11.8,10.1l10.3-11.8l8.7,11.8l10.9-10.3l-9.3-9.9
				C190.6,105.5,181.6,115,170.5,105.5z"/>
			<path class="st8" d="M158.2,36.1c0,0-12.3,52,22.1,56.5s28-62.4,17.6-62.9C187.5,29.1,159.7,26.3,158.2,36.1z"/>
			<path class="st6" d="M167.1,30.3c0,0,38.8,11.6,48.1-5.9c10-18.9-13.3-29-24.5-11.3c0,0-35.9-11-37.1,12.6
				C152.9,38.9,167.1,30.3,167.1,30.3z"/>
			<path class="st8" d="M158.2,58.1c0,0-4.9-4.2-8.3-1c-3.4,3.2,0.6,14.1,8.3,13C165.9,69.1,158.2,58.1,158.2,58.1z"/>
			<path class="st6" d="M153.4,55.1c0,0,1.7,1.3,2.7,5.8c0,0,1.9,0.8,3.3-0.7c1.5-1.5,5.3-20.6,4.6-27.1c-0.8-6.5-10.3-4.8-11.2,3
				S153.4,55.1,153.4,55.1z"/>
			<path class="st8" d="M202.1,58.1c0,0,4.9-4.2,8.3-1c3.4,3.2-0.6,14.1-8.3,13C194.3,69.1,202.1,58.1,202.1,58.1z"/>
			<path class="st6" d="M208.6,56c0,0-3.2,0.4-4.2,4.8c0,0,0,0.8-1.4-0.7c-1.5-1.5-0.2-21.8,0.6-28.2c0.8-6.5,5.2-3.7,6,4.2
				C210.5,44,208.6,56,208.6,56z"/>
			<path class="st6" d="M172.4,26.4c-0.1,0.4-1.6,14.1-11.5,13c-10-1.1-2.1-17.3-2.1-17.3L172.4,26.4z"/>
			<path class="st6" d="M197.9,30.9c0,0-0.6,8.9,6,11.2s2.3-14.4,2.3-14.4L197.9,30.9z"/>
			<path class="st7" d="M144.7,238.6c-5.8-2.5-11.4-5.3-16.8-8.3c-6.2-3.5-12.1-7.4-17.7-11.6c-1.2-0.9-6.3-5.5-13.1-13.1
				c6.5-29.7,19.7-69.8,26-79.7c0.7-1.2,1.2-2,1.4-2.2c0-0.1,0.1-0.1,0.1-0.1L144.7,238.6z"/>
		</g>
		<g>
			<path class="st4" d="M313.3-57.2c0,0-77.9,1.5-70.1,41.6s70.5,41.3,100.6,19.8C364.4-10.5,366.1-57.4,313.3-57.2z"/>
			<polygon class="st4" points="251.7,-14.9 235.1,9.8 270.8,1.4 			"/>
		</g>
		<g>
			<path class="st5" d="M277.6-2.8L274-33.7l7.9-0.9l1.3,11.6l10.1-1.2L292-35.7l7.9-0.9l3.5,30.9l-7.9,0.9l-1.4-12.3L284-15.9
				l1.4,12.3L277.6-2.8z"/>
			<path class="st5" d="M305.5-37.3l17.5-2l0.8,6.9l-9.6,1.1l0.6,4.8l9.3-1.1l0.8,6.9l-9.3,1.1l0.6,5.3l9.6-1.1l0.8,6.9l-17.5,2
				L305.5-37.3z"/>
			<path class="st5" d="M327.7-39.8l7.9-0.9l2.7,23.9l9.1-1l0.8,6.9l-17,2L327.7-39.8z"/>
			<path class="st5" d="M348-42.2l7.9-0.9l2.7,23.9l9.1-1l0.8,6.9l-17,2L348-42.2z"/>
			<path class="st5" d="M366.9-28.4c-1.2-10.1,5.9-17.2,14.4-18.2c9.5-1.1,17.2,5.6,18.1,14.1s-4.9,16.8-14.5,17.9
				C375.2-13.4,367.9-20.4,366.9-28.4L366.9-28.4z M374.8-29.7c0.5,4.7,4.3,8.8,9.6,8.2c5.6-0.6,7.7-6,7.3-10
				c-0.5-4-3.8-8.8-9.4-8.2C376.7-39,374.3-34,374.8-29.7L374.8-29.7z"/>
			<path class="st5" d="M412-28.6l-7.1,0.8l-2.4-20.7l7.1-0.8L412-28.6z M413.2-18.4l-7.1,0.8l-0.8-7.1l7.1-0.8L413.2-18.4z"/>
		</g>
		<g>
			<g>
				<path class="st4" d="M309.7,180.7C309.7,180.8,309.7,180.8,309.7,180.7c-0.4,1.6-0.8,3.3-1.3,5c-0.3,1.4-0.7,2.8-1.1,4.2
					c-0.9,3.4-1.8,7-2.8,10.7c-4.9,18.5-10.6,38.5-14.3,51.2c-14.2,2.6-28.8,4.2-43.6,4.7v0.3h-9.8c0-0.1,0-0.1-0.1-0.2
					c-0.7-2.8-1.6-6.7-2.7-11.4c-1.1-4.8-2.4-10.3-3.7-16.3c-2.3-10.6-4.8-22.6-6.8-34.1c-0.6-3.7-1.2-7.4-1.8-10.9
					c-2.7-18.2-3.6-33.2,0-36.4c1.7-1.5,4.8-2.3,7.6-2.8l0,0c3.1-0.5,5.7-0.5,5.7-0.5l3.2,0.2l62.7,4.3c0,0,9.3,2.1,12.7,7.1
					C314.8,157.4,312.9,167.4,309.7,180.7z"/>
				<path class="st8" d="M380.9,30.1c0,0,5,21.9,2.7,27.7c-1.5,3.9-6.2,56.6-23.3,72.6c-12.5,11.7-29.8,21.3-46.5,25.6l-4.2,24.8
					c0,0,50.8-20.7,64.5-34.2s23.6-87.8,23.6-87.8s24.7-34.4,23.7-38.9c-0.5-2.4-3.2-5.7-5.5-8.3c-2.1-2.2-5.6-2.2-7.6,0.1
					l-17.9,19.8c0,0-4.2-15.1-8.7-14.7C377.2,16.9,380.9,30.1,380.9,30.1z"/>
				<path class="st8" d="M278,120l-15.9,2.3l-2.2,19.2l-24.8,2.8c0,0,0,10.2,20.7,14.4c32.9,6.7,45.2-9.9,45.2-9.9l-24-6.4L278,120z
					"/>
				<path class="st8" d="M271.9,67.3c0,0-20.5,6.7-23.6,34.8c-3.3,29.8,23.5,28.1,36,17.1C305,100.7,302.1,59.2,271.9,67.3z"/>
				<path class="st8" d="M288.6,107.2c0,0,4.4-3.7,8.5-0.1c4.1,3.6-3.3,12.4-10.7,8.6C279.1,111.9,288.6,107.2,288.6,107.2z"/>
				<path class="st6" d="M271.8,63.3c0,0-3.5-14.7-17.4-9.8c-12.5,4.5-9,26.5,11.5,33c15.3,4.9,24.3-0.3,24.3-0.3s-4.2,7.1-3.4,12.6
					c0.8,5.5-0.3,9.7-0.3,9.7s3.6,0.8,7.5-3c0,0,15.8-11.2,11.6-27.2C301.4,62.4,282.5,59.5,271.8,63.3z"/>
				<path class="st6" d="M293.8,67.1c0.7-2.3,6.6-26.9,32.7-27.7c26.2-0.8,43.7,42.8,2.3,55.1c-7.6,2.3-27.6,0.6-33.1-3.8
					C290.2,86.2,293.8,67.1,293.8,67.1z"/>
			</g>
			<path class="st8" d="M221.9,147.6c-8.8-3.3-36.6,51.5-43.3,80.5s77,14.4,77,14.4l-3.2-12.1c0,0-45.1-2-46.2-6.2
				c-1.1-4.2,15.7-40.2,15.7-40.2S224.6,148.6,221.9,147.6z"/>
			<polygon class="st4" points="301.1,148.8 339.4,145.5 343.5,168.1 304.6,191.6 			"/>
			<path class="st4" d="M229.4,144.8c0,0-6.4-3.2-24.3,15.5l-12.9,19.9l24.7,20.7l16.8-14.7L229.4,144.8z"/>
			<path class="st7" d="M324.6,186.1l-18.5,62.2c-5.2,1.3-10.5,2.4-15.8,3.4c-14.2,2.6-28.8,4.2-43.6,4.7l0.5-12.5v-0.2l0.5-13.6
				l1.8-45.7l54.6,1.2l4.3,0.1l5.7,0.1L324.6,186.1z"/>
			<path class="st8" d="M240.9,230.7l7.1-7.7l-0.3,7.2l24.1-6c0,0,3.9,3.9,3.4,6.5s-9,11.9-32.9,13.6L240.9,230.7z"/>
		</g>
	</g>
</g>
<g id="Layer_1_1_">
	<g>
		<path class="st9" d="M93.4,59.6v44.5h-15V70.9h-7.6V59.6H93.4z"/>
		<path class="st10" d="M206.4,92.9v11.6h-35.6v-9.2l16.1-14.9c1.4-1.3,2.3-2.4,2.8-3.4c0.5-0.9,0.7-1.8,0.7-2.7
			c0-1.1-0.4-2-1.1-2.6c-0.7-0.6-1.8-0.9-3.2-0.9s-2.6,0.4-3.8,1.1c-1.2,0.7-2.1,1.7-2.7,3.1l-11.3-5.7c1.7-3.2,4.2-5.7,7.4-7.5
			c3.3-1.8,7.2-2.8,11.8-2.8c3.5,0,6.6,0.6,9.3,1.7c2.7,1.1,4.8,2.8,6.4,4.9c1.5,2.1,2.3,4.6,2.3,7.3c0,2.5-0.5,4.8-1.6,6.9
			c-1,2.1-3.1,4.6-6.1,7.3l-6.4,5.8L206.4,92.9L206.4,92.9z"/>
		<path class="st11" d="M311.5,81.3c1.8,2.2,2.8,4.9,2.8,8c0,2.7-0.7,5.2-2.2,7.5s-3.7,4.2-6.8,5.6c-3.1,1.4-6.8,2.2-11.4,2.2
			c-3.1,0-6.3-0.3-9.4-1s-5.8-1.7-8.2-3l5.1-11.1c1.8,1.1,3.8,1.9,5.9,2.4c2.1,0.6,4.1,0.8,6.1,0.8c1.7,0,3.1-0.3,4.2-0.9
			c1.1-0.6,1.6-1.4,1.6-2.5c0-2-1.8-3-5.3-3H288v-9.2l6.5-6.7h-15.9V59.1h33.2v9.2l-8.3,8.4C307,77.5,309.6,79.1,311.5,81.3z"/>
		<path class="st12" d="M423.7,96.4h-5.9v7.6h-14.6v-7.6h-23.1v-9.5L399,59.6h15.4l-16.8,25.2h6V78h14.1v6.8h5.9v11.6H423.7z"/>
		<g class="st13">
			
				<image style="overflow:visible;enable-background:new    ;" width="1917" height="558" xlink:href="AFC3B0CFF36619C6.png"  transform="matrix(0.2394 0 0 0.2394 10.2731 20.9637)">
			</image>
		</g>
		<g>
			<g>
				
					<linearGradient id="SVGID_1_" gradientUnits="userSpaceOnUse" x1="26.2" y1="93.3228" x2="464.6001" y2="93.3228" gradientTransform="matrix(1 0 0 -1 0 175.4455)">
					<stop  offset="0" style="stop-color:#FFD100"/>
					<stop  offset="0.2264" style="stop-color:#FF5500"/>
					<stop  offset="0.5199" style="stop-color:#00BF9E"/>
					<stop  offset="0.7811" style="stop-color:#0579FA"/>
					<stop  offset="1" style="stop-color:#FF3872"/>
				</linearGradient>
				<path class="st14" d="M407.7,138.8c-31.3,0-56.7-25.4-56.7-56.7c0-28.4-23.1-51.6-51.6-51.6c-28.4,0-51.6,23.1-51.6,51.6
					c0,31.3-25.4,56.7-56.7,56.7s-56.7-25.4-56.7-56.7c0-28.4-23.1-51.6-51.6-51.6S31.4,53.7,31.4,82.1c0,1.4-1.1,2.6-2.6,2.6
					c-1.4,0-2.6-1.1-2.6-2.6c0-31.3,25.4-56.7,56.7-56.7s56.7,25.4,56.7,56.7c0,28.4,23.1,51.6,51.6,51.6
					c28.4,0,51.6-23.1,51.6-51.6c0-31.3,25.4-56.7,56.7-56.7s56.7,25.4,56.7,56.7c0,28.4,23.1,51.6,51.6,51.6s51.6-23.1,51.6-51.6
					c0-1.4,1.1-2.6,2.6-2.6c1.4,0,2.6,1.1,2.6,2.6C464.4,113.4,439,138.8,407.7,138.8z"/>
			</g>
			<g>
				
					<linearGradient id="SVGID_2_" gradientUnits="userSpaceOnUse" x1="26.3224" y1="93.3228" x2="464.4087" y2="93.3228" gradientTransform="matrix(1 0 0 -1 0 175.4455)">
					<stop  offset="0" style="stop-color:#FFD100"/>
					<stop  offset="0.2264" style="stop-color:#FF5500"/>
					<stop  offset="0.5199" style="stop-color:#00BF9E"/>
					<stop  offset="0.7811" style="stop-color:#0579FA"/>
					<stop  offset="1" style="stop-color:#FF3872"/>
				</linearGradient>
				<circle class="st15" cx="461.9" cy="82.1" r="9.6"/>
			</g>
			<g>
				
					<linearGradient id="SVGID_3_" gradientUnits="userSpaceOnUse" x1="26.3201" y1="93.3228" x2="464.4094" y2="93.3228" gradientTransform="matrix(1 0 0 -1 0 175.4455)">
					<stop  offset="0" style="stop-color:#FFD100"/>
					<stop  offset="0.2264" style="stop-color:#FF5500"/>
					<stop  offset="0.5199" style="stop-color:#00BF9E"/>
					<stop  offset="0.7811" style="stop-color:#0579FA"/>
					<stop  offset="1" style="stop-color:#FF3872"/>
				</linearGradient>
				<path class="st16" d="M19.3,82.1c0,5.3,4.3,9.6,9.6,9.6s9.6-4.3,9.6-9.6s-4.3-9.6-9.6-9.6C23.6,72.5,19.3,76.8,19.3,82.1z"/>
			</g>
		</g>
		<g>
			<path class="st9" d="M78.4,116.1v-1.3c0-0.6-0.3-0.9-0.8-0.9h-0.3c-0.5,0-0.8,0.3-0.8,0.9v2.4c0,0.3,0.1,0.4,0.2,0.5
				s0.3,0.2,0.5,0.4l1.8,1c0.4,0.2,0.7,0.4,0.9,0.5c0.2,0.1,0.3,0.3,0.4,0.5s0.1,0.5,0.1,1v3.1c0,1.6-0.8,2.4-2.3,2.4h-1.2
				c-1.5,0-2.3-0.9-2.3-2.7v-0.7h1.9v0.8c0,0.6,0.3,0.8,0.9,0.8h0.3c0.5,0,0.8-0.3,0.8-0.8v-2.5c0-0.3-0.1-0.4-0.2-0.5
				s-0.3-0.2-0.5-0.4l-1.8-1c-0.4-0.2-0.7-0.4-0.9-0.5c-0.2-0.1-0.3-0.3-0.4-0.6c-0.1-0.2-0.1-0.5-0.1-0.9v-3c0-1.6,0.8-2.5,2.3-2.5
				H78c1.5,0,2.3,0.8,2.3,2.5v1.4h-1.9V116.1z"/>
			<path class="st9" d="M85.4,113.9v12.7h-1.9v-12.7h-1.8v-1.7h5.6v1.7H85.4z"/>
			<path class="st9" d="M88.7,126.6v-14.4h4.8v1.7h-2.9v4.4h2.5v1.7h-2.5v4.8h2.9v1.7h-4.8V126.6z"/>
			<path class="st9" d="M95.3,112.2h3.5c1.6,0,2.3,0.8,2.3,2.5v4.3c0,1.6-0.8,2.5-2.3,2.5h-1.6v5.2h-1.9V112.2z M97.3,119.7h1.2
				c0.5,0,0.8-0.3,0.8-0.8v-4c0-0.6-0.3-0.8-0.9-0.8h-1.1V119.7z"/>
		</g>
		<g>
			<path class="st10" d="M181.2,40.6v-1.3c0-0.6-0.3-0.9-0.8-0.9H180c-0.5,0-0.8,0.3-0.8,0.9v2.4c0,0.3,0.1,0.4,0.2,0.5
				c0.1,0.1,0.3,0.2,0.5,0.4l1.8,1c0.4,0.2,0.7,0.4,0.9,0.5s0.3,0.3,0.4,0.5c0.1,0.2,0.1,0.5,0.1,1v3.1c0,1.6-0.8,2.4-2.3,2.4h-1.2
				c-1.5,0-2.3-0.9-2.3-2.7v-0.7h1.9v0.8c0,0.6,0.3,0.8,0.9,0.8h0.3c0.5,0,0.8-0.3,0.8-0.8V46c0-0.3-0.1-0.4-0.2-0.5
				c-0.1-0.1-0.3-0.2-0.5-0.4l-1.8-1c-0.4-0.2-0.7-0.4-0.9-0.5s-0.3-0.3-0.4-0.6c-0.1-0.2-0.1-0.5-0.1-0.9v-3c0-1.6,0.8-2.5,2.3-2.5
				h1.2c1.5,0,2.3,0.8,2.3,2.5v1.4L181.2,40.6L181.2,40.6z"/>
			<path class="st10" d="M188.2,38.4v12.7h-1.9V38.4h-1.8v-1.7h5.6v1.7H188.2z"/>
			<path class="st10" d="M191.6,51.1V36.7h4.8v1.7h-2.9v4.4h2.5v1.7h-2.5v4.8h2.9V51h-4.8V51.1z"/>
			<path class="st10" d="M198.1,36.7h3.5c1.6,0,2.3,0.8,2.3,2.5v4.3c0,1.6-0.8,2.5-2.3,2.5H200v5.2h-1.9V36.7z M200.1,44.1h1.2
				c0.5,0,0.8-0.3,0.8-0.8v-4c0-0.6-0.3-0.8-0.9-0.8h-1.1V44.1z"/>
		</g>
		<g>
			<path class="st11" d="M287.5,116.1v-1.3c0-0.6-0.3-0.9-0.8-0.9h-0.3c-0.6,0-0.8,0.3-0.8,0.9v2.4c0,0.3,0.1,0.4,0.2,0.5
				s0.3,0.2,0.5,0.4l1.8,1c0.4,0.2,0.7,0.4,0.9,0.5c0.2,0.1,0.3,0.3,0.4,0.5s0.1,0.5,0.1,1v3.1c0,1.6-0.8,2.4-2.3,2.4H286
				c-1.5,0-2.3-0.9-2.3-2.7v-0.7h1.9v0.8c0,0.6,0.3,0.8,0.9,0.8h0.3c0.5,0,0.8-0.3,0.8-0.8v-2.5c0-0.3-0.1-0.4-0.2-0.5
				s-0.3-0.2-0.5-0.4l-1.8-1c-0.4-0.2-0.7-0.4-0.9-0.5c-0.2-0.1-0.3-0.3-0.4-0.6c-0.1-0.2-0.1-0.5-0.1-0.9v-3c0-1.6,0.8-2.5,2.3-2.5
				h1.2c1.5,0,2.3,0.8,2.3,2.5v1.4h-2V116.1z"/>
			<path class="st11" d="M294.5,113.9v12.7h-1.9v-12.7h-1.9v-1.7h5.6v1.7H294.5z"/>
			<path class="st11" d="M297.9,126.6v-14.4h4.8v1.7h-2.9v4.4h2.5v1.7h-2.5v4.8h2.9v1.7h-4.8V126.6z"/>
			<path class="st11" d="M304.4,112.2h3.5c1.6,0,2.3,0.8,2.3,2.5v4.3c0,1.6-0.8,2.5-2.3,2.5h-1.6v5.2h-1.9V112.2z M306.4,119.7h1.2
				c0.5,0,0.8-0.3,0.8-0.8v-4c0-0.6-0.3-0.8-0.9-0.8h-1.1V119.7z"/>
		</g>
		<g>
			<path class="st12" d="M396.8,40.6v-1.3c0-0.6-0.3-0.9-0.8-0.9h-0.3c-0.6,0-0.8,0.3-0.8,0.9v2.4c0,0.3,0.1,0.4,0.2,0.5
				s0.3,0.2,0.5,0.4l1.8,1c0.4,0.2,0.7,0.4,0.9,0.5c0.2,0.1,0.3,0.3,0.4,0.5s0.1,0.5,0.1,1v3.1c0,1.6-0.8,2.4-2.3,2.4h-1.2
				c-1.5,0-2.3-0.9-2.3-2.7v-0.7h1.9v0.8c0,0.6,0.3,0.8,0.9,0.8h0.3c0.5,0,0.8-0.3,0.8-0.8V46c0-0.3-0.1-0.4-0.2-0.5
				s-0.3-0.2-0.5-0.4l-1.8-1c-0.4-0.2-0.7-0.4-0.9-0.5c-0.2-0.1-0.3-0.3-0.4-0.6c-0.1-0.2-0.1-0.5-0.1-0.9v-3c0-1.6,0.8-2.5,2.3-2.5
				h1.2c1.5,0,2.3,0.8,2.3,2.5v1.4L396.8,40.6L396.8,40.6z"/>
			<path class="st12" d="M403.8,38.4v12.7h-1.9V38.4H400v-1.7h5.6v1.7H403.8z"/>
			<path class="st12" d="M407.2,51.1V36.7h4.8v1.7h-2.9v4.4h2.5v1.7h-2.5v4.8h2.9V51h-4.8V51.1z"/>
			<path class="st12" d="M413.8,36.7h3.5c1.6,0,2.3,0.8,2.3,2.5v4.3c0,1.6-0.8,2.5-2.3,2.5h-1.6v5.2h-1.9V36.7z M415.7,44.1h1.2
				c0.5,0,0.8-0.3,0.8-0.8v-4c0-0.6-0.3-0.8-0.9-0.8h-1.1V44.1z"/>
		</g>
	</g>
</g>
</svg>
