<?xml version="1.0" encoding="utf-8"?>
<!-- Generator: Adobe Illustrator 24.0.3, SVG Export Plug-In . SVG Version: 6.00 Build 0)  -->
<svg version="1.1" id="Layer_1" xmlns="http://www.w3.org/2000/svg" xmlns:xlink="http://www.w3.org/1999/xlink" x="0px" y="0px"
	 viewBox="0 0 240 214" style="enable-background:new 0 0 240 214;" xml:space="preserve">
<style type="text/css">
	.st0{fill:#CE202F;}
</style>
<g>
	<g>
		<g>
			<path class="st0" d="M166.6,71.4c0-25.7-20.9-46.6-46.6-46.6S73.4,45.7,73.4,71.4c0,13.6,6,26.4,16.2,35.2
				c-1.5,1.5-2.5,3.6-2.5,5.9c0,2.1,0.8,4,2.1,5.5c-1.3,1.5-2.1,3.4-2.1,5.5s0.8,4,2.1,5.5c-1.3,1.5-2.1,3.4-2.1,5.5
				c0,3.6,2.3,6.6,5.5,7.7v19.7c0,0.7,0.3,1.4,0.8,1.9l0,0l24.7,24.7c0.5,0.5,1.2,0.8,1.9,0.8s1.4-0.3,1.9-0.8l24.7-24.7l0,0
				c0.5-0.5,0.8-1.2,0.8-1.9v-19.7c3.2-1.1,5.5-4.2,5.5-7.7c0-2.1-0.8-4-2.1-5.5c1.3-1.5,2.1-3.4,2.1-5.5s-0.8-4-2.1-5.5
				c1.3-1.5,2.1-3.4,2.1-5.5c0-2.3-1-4.4-2.5-5.9C160.6,97.8,166.6,84.9,166.6,71.4z M120,182.6l-4.3-4.3h8.7L120,182.6z
				 M129.8,172.8h-19.7l-10.5-10.5l3.9-2.6l6.7,4.5c0.9,0.6,2.1,0.6,3,0l6.7-4.5l6.7,4.5c0.9,0.6,2.1,0.6,3,0l6.7-4.5l3.9,2.6
				L129.8,172.8z M141.9,156.7l-4-2.6c-0.9-0.6-2.1-0.6-3,0l-6.7,4.5l-6.7-4.5c-0.9-0.6-2.1-0.6-3,0l-6.7,4.5l-6.7-4.5
				c-0.9-0.6-2.1-0.6-3,0l-4,2.6v-14.1h43.9V156.7z M144.7,137.2H95.3c-1.5,0-2.7-1.2-2.7-2.7s1.2-2.7,2.7-2.7h49.4
				c1.5,0,2.7,1.2,2.7,2.7S146.2,137.2,144.7,137.2z M144.7,126.2H95.3c-1.5,0-2.7-1.2-2.7-2.7c0-1.5,1.2-2.7,2.7-2.7h49.4
				c1.5,0,2.7,1.2,2.7,2.7C147.4,125,146.2,126.2,144.7,126.2z M144.7,115.2H95.3c-1.5,0-2.7-1.2-2.7-2.7c0-1.5,1.2-2.7,2.7-2.7
				h49.3l0,0c1.5,0,2.7,1.2,2.7,2.7C147.4,114,146.2,115.2,144.7,115.2z M111.4,73.8c0.5,0.4,1.1,0.6,1.7,0.6s1.2-0.2,1.7-0.6
				c3.3-2.6,5.1-6.5,5.1-10.6c0-0.6-0.1-1.3-0.1-1.9c0-0.2-0.1-0.4-0.1-0.5c-0.1-0.5-0.2-0.9-0.3-1.4c0-0.2-0.1-0.3-0.1-0.5
				c-0.2-0.6-0.4-1.2-0.7-1.7c0-0.1-0.1-0.2-0.2-0.3c-0.2-0.5-0.5-0.9-0.8-1.3c0-0.1-0.1-0.2-0.1-0.2c1.6-0.5,3.4-0.5,5,0
				c-0.1,0.1-0.1,0.2-0.1,0.2c-0.3,0.4-0.6,0.9-0.8,1.3c-0.1,0.1-0.1,0.2-0.2,0.3c-0.3,0.6-0.5,1.1-0.7,1.7c0,0.2-0.1,0.3-0.1,0.5
				c-0.1,0.5-0.2,0.9-0.3,1.4c0,0.2-0.1,0.4-0.1,0.5c-0.1,0.6-0.2,1.2-0.2,1.9c0,4.1,1.9,8,5.1,10.6c0.5,0.4,1.1,0.6,1.7,0.6
				s1.2-0.2,1.7-0.6c3.3-2.6,5.1-6.5,5.1-10.6c0-0.6-0.1-1.3-0.1-1.9c0-0.2-0.1-0.4-0.1-0.5c-0.1-0.5-0.2-0.9-0.3-1.4
				c0-0.2-0.1-0.3-0.1-0.5c-0.2-0.6-0.4-1.2-0.7-1.7c0-0.1-0.1-0.2-0.2-0.3c-0.2-0.5-0.5-0.9-0.8-1.3c-0.1-0.1-0.1-0.2-0.1-0.2
				c0.8-0.3,1.6-0.4,2.5-0.4c4.4,0,8.2,4.1,8.2,8.8c0,4-1.8,7.8-4.9,10.4L126.5,83c-0.6,0.5-1,1.3-1,2.1v19.2h-11V85.1
				c0-0.8-0.4-1.6-1-2.1l-10.6-8.8c-3.1-2.6-4.9-6.4-4.9-10.4c0-4.7,3.8-8.8,8.2-8.8c0.9,0,1.7,0.1,2.5,0.4
				c-0.1,0.1-0.1,0.2-0.1,0.2c-0.3,0.4-0.5,0.9-0.8,1.3c-0.1,0.1-0.1,0.2-0.2,0.3c-0.3,0.6-0.5,1.1-0.7,1.7c0,0.2-0.1,0.3-0.1,0.5
				c-0.1,0.5-0.2,0.9-0.3,1.4c0,0.2-0.1,0.4-0.1,0.5c-0.1,0.6-0.1,1.2-0.1,1.9C106.3,67.3,108.2,71.1,111.4,73.8z M111.8,63.1
				c0-0.5,0.1-1.1,0.2-1.6c0-0.1,0.1-0.3,0.1-0.4c0.1-0.5,0.3-1,0.5-1.5c0,0,0-0.1,0.1-0.1c0.1-0.3,0.3-0.5,0.5-0.8
				c0.2,0.3,0.4,0.5,0.5,0.8c0,0,0,0.1,0.1,0.1c0.2,0.5,0.4,1,0.5,1.5c0,0.1,0.1,0.3,0.1,0.4c0.1,0.5,0.2,1.1,0.2,1.6
				s-0.1,1.1-0.2,1.6c0,0.1-0.1,0.3-0.1,0.4c-0.1,0.5-0.3,1-0.5,1.5c0,0,0,0.1-0.1,0.1c-0.1,0.3-0.3,0.5-0.5,0.8
				c-0.2-0.3-0.4-0.5-0.5-0.8c0,0,0-0.1-0.1-0.1c-0.2-0.5-0.4-1-0.5-1.5c0-0.1-0.1-0.3-0.1-0.4C111.9,64.2,111.8,63.7,111.8,63.1z
				 M125.5,63.1c0-0.5,0.1-1.1,0.2-1.6c0-0.1,0.1-0.3,0.1-0.4c0.1-0.5,0.3-1,0.5-1.5c0,0,0-0.1,0.1-0.1c0.1-0.3,0.3-0.5,0.5-0.8
				c0.2,0.3,0.4,0.5,0.5,0.8c0,0,0,0.1,0.1,0.1c0.2,0.5,0.4,1,0.5,1.5c0,0.1,0.1,0.3,0.1,0.4c0.1,0.5,0.2,1.1,0.2,1.6
				s-0.1,1.1-0.2,1.6c0,0.1-0.1,0.3-0.1,0.4c-0.1,0.5-0.3,1-0.5,1.5c0,0,0,0.1-0.1,0.1c-0.1,0.3-0.3,0.5-0.5,0.8
				c-0.2-0.3-0.4-0.5-0.5-0.8c0,0,0-0.1-0.1-0.1c-0.2-0.5-0.4-1-0.5-1.5c0-0.1-0.1-0.3-0.1-0.4C125.6,64.2,125.5,63.7,125.5,63.1z
				 M144.6,104.3H131V86.3l9.6-8c4.4-3.6,6.8-9,6.8-14.6c0-7.8-6.3-14.3-13.7-14.3c-2.4,0-4.8,0.7-6.9,1.9c-4.2-2.4-9.5-2.4-13.7,0
				c-2.1-1.2-4.4-1.9-6.9-1.9c-7.4,0-13.7,6.6-13.7,14.3c0,5.7,2.5,11,6.8,14.6l9.6,8v17.9H95.4c-10.4-7.8-16.5-20-16.5-32.9
				c0-22.7,18.5-41.1,41.1-41.1s41.1,18.5,41.1,41.1C161.1,84.3,155,96.5,144.6,104.3z"/>
		</g>
	</g>
	<g>
		<g>
			
				<rect x="161.6" y="30.2" transform="matrix(0.7071 -0.7071 0.7071 0.7071 26.2861 129.4078)" class="st0" width="15.5" height="5.5"/>
		</g>
	</g>
	<g>
		<g>
			
				<rect x="166.6" y="102" transform="matrix(0.7071 -0.7071 0.7071 0.7071 -27.9952 151.8884)" class="st0" width="5.5" height="15.5"/>
		</g>
	</g>
	<g>
		<g>
			<rect x="174.8" y="68.6" class="st0" width="16.5" height="5.5"/>
		</g>
	</g>
	<g>
		<g>
			
				<rect x="67.9" y="25.2" transform="matrix(0.7071 -0.7071 0.7071 0.7071 -2.6216 59.6111)" class="st0" width="5.5" height="15.5"/>
		</g>
	</g>
	<g>
		<g>
			
				<rect x="62.9" y="107" transform="matrix(0.7071 -0.7071 0.7071 0.7071 -56.9065 82.0958)" class="st0" width="15.5" height="5.5"/>
		</g>
	</g>
	<g>
		<g>
			<rect x="48.7" y="68.6" class="st0" width="16.5" height="5.5"/>
		</g>
	</g>
	<g>
		<g>
			<rect x="152.9" y="156.4" class="st0" width="5.5" height="5.5"/>
		</g>
	</g>
	<g>
		<g>
			<rect x="163.9" y="156.4" class="st0" width="5.5" height="5.5"/>
		</g>
	</g>
	<g>
		<g>
			<rect x="174.8" y="156.4" class="st0" width="5.5" height="5.5"/>
		</g>
	</g>
	<g>
		<g>
			<rect x="59.7" y="156.4" class="st0" width="5.5" height="5.5"/>
		</g>
	</g>
	<g>
		<g>
			<rect x="70.6" y="156.4" class="st0" width="5.5" height="5.5"/>
		</g>
	</g>
	<g>
		<g>
			<rect x="81.6" y="156.4" class="st0" width="5.5" height="5.5"/>
		</g>
	</g>
</g>
</svg>
