<?xml version="1.0" encoding="utf-8"?>
<!-- Generator: Adobe Illustrator 25.0.1, SVG Export Plug-In . SVG Version: 6.00 Build 0)  -->
<svg version="1.1" id="Layer_1" xmlns="http://www.w3.org/2000/svg" xmlns:xlink="http://www.w3.org/1999/xlink" x="0px" y="0px"
	 viewBox="0 0 512.84 407.97" style="enable-background:new 0 0 512.84 407.97;" xml:space="preserve">
<style type="text/css">
	.st0{fill:none;stroke:#CF202F;stroke-miterlimit:10;}
	.st1{fill:none;stroke:#CF202F;stroke-miterlimit:10;stroke-dasharray:5.9738,5.9738;}
	.st2{fill:#CF202F;}
	.st3{fill:#231F20;}
	.st4{fill:#FFFFFF;}
	.st5{fill:#E6E7E8;}
	.st6{fill:#FCD9DE;}
	.st7{fill:#FFFFFF;stroke:#231F20;stroke-linecap:round;stroke-linejoin:round;stroke-miterlimit:10;}
	.st8{clip-path:url(#SVGID_2_);}
	.st9{fill:#CF202F;stroke:#231F20;stroke-width:1.5;stroke-linecap:round;stroke-linejoin:round;stroke-miterlimit:10;}
	.st10{fill:none;stroke:#231F20;stroke-width:1.5;stroke-linecap:round;stroke-linejoin:round;stroke-miterlimit:10;}
	.st11{fill:#FFFFFF;stroke:#231F20;stroke-width:1.5;stroke-linecap:round;stroke-linejoin:round;stroke-miterlimit:10;}
	.st12{fill:#CF202F;stroke:#231F20;stroke-width:1.5448;stroke-linecap:round;stroke-linejoin:round;stroke-miterlimit:10;}
	.st13{fill:none;stroke:#231F20;stroke-linecap:round;stroke-linejoin:round;stroke-miterlimit:10;}
	.st14{fill:none;stroke:#231F20;stroke-miterlimit:10;}
	.st15{fill:none;stroke:#FFFFFF;stroke-width:0.75;stroke-linecap:round;stroke-linejoin:round;stroke-miterlimit:10;}
</style>
<g>
	<g>
		<path class="st0" d="M450.48,344.08c-0.81,0.81-1.73,1.5-2.54,2.31"/>
		<path class="st1" d="M442.51,350.78c-23.92,18.95-56.06,33.4-91.89,42.42c-6.36,1.62-12.94,3.01-19.53,4.28
			c-17.45,3.24-35.6,5.2-53.86,5.78c-0.12,0-0.35,0-0.46,0c-3.93,0.12-7.74,0.12-11.67,0.12c-39.53-0.23-79.06-7.17-113.73-22.19
			c-7.17-3.12-14.1-6.47-20.69-10.29c-7.63-4.28-14.91-9.13-21.84-14.33c-1.39-1.04-7.74-6.7-16.18-16.18
			c-25.31-28.55-69.23-91.89-53.4-169.67C59.94,66.92,182.69-13.64,257.93,10.29c13.99,4.39,26.58,10.98,38.14,18.72
			c31.55,21.15,55.94,51.43,81.83,72.58c15.83,12.94,32.25,22.42,51.32,24.5c5.32,0.58,10.4,2.08,15.26,4.39
			c9.13,4.28,17.57,11.56,24.85,20.8c33.75,43,42.88,130.84-13.52,187.82"/>
		<path class="st0" d="M453.37,341.31c-0.81,0.81-1.62,1.62-2.54,2.43"/>
		<g>
			
				<rect x="449.82" y="340.44" transform="matrix(0.7517 -0.6595 0.6595 0.7517 -115.1655 382.5008)" class="st2" width="1.16" height="7.51"/>
		</g>
	</g>
</g>
<g>
	<g>
		<path class="st0" d="M429.72,340.42c-0.76,0.76-1.62,1.4-2.38,2.16"/>
		<path class="st1" d="M422.27,346.68c-22.35,17.71-52.37,31.21-85.85,39.63c-5.94,1.51-12.09,2.81-18.25,4
			c-16.31,3.02-33.26,4.86-50.32,5.4c-0.11,0-0.32,0-0.43,0c-3.67,0.11-7.23,0.11-10.91,0.11c-36.93-0.22-73.86-6.7-106.26-20.73
			c-6.69-2.92-13.17-6.05-19.33-9.61c-7.13-4-13.93-8.53-20.41-13.39c-1.3-0.97-7.23-6.26-15.12-15.12
			c-23.65-26.67-64.68-85.85-49.89-158.52C64.84,81.47,179.52,6.21,249.82,28.56c13.07,4.1,24.84,10.26,35.63,17.49
			c29.48,19.76,52.26,48.05,76.45,67.81c14.79,12.09,30.13,20.95,47.94,22.89c4.97,0.54,9.72,1.94,14.25,4.1
			c8.53,4,16.41,10.8,23.22,19.44c31.53,40.17,40.06,122.24-12.63,175.47"/>
		<path class="st0" d="M432.42,337.83c-0.76,0.76-1.51,1.51-2.38,2.27"/>
		<g>
			
				<rect x="429.1" y="337.02" transform="matrix(0.7517 -0.6595 0.6595 0.7517 -117.9 367.8979)" class="st2" width="1.08" height="7.02"/>
		</g>
	</g>
</g>
<path class="st3" d="M423.13,339c-21.91,20.03-53.77,35.3-89.73,44.26c-5.75,1.44-11.62,2.66-17.48,3.76
	c-15.71,2.88-31.87,4.65-48.24,5.2c-0.11,0-0.33,0-0.44,0c-3.54,0.11-6.97,0.11-10.51,0.11c-35.41-0.22-70.81-6.42-101.9-19.92
	c-6.42-2.77-12.61-5.86-18.59-9.18c-6.86-3.87-13.39-8.19-19.58-12.83c-1.33-1-6.97-6.09-14.49-14.49
	c-22.68-25.56-61.96-82.32-47.8-151.91C73.16,91.16,183.03,19.13,250.41,40.48c12.5,3.98,23.79,9.85,34.19,16.82
	c28.32,18.92,50.01,46.03,73.25,64.95c14.16,11.51,28.88,20.03,45.92,21.91c4.76,0.55,9.29,1.88,13.61,3.98
	c8.19,3.87,15.71,10.29,22.24,18.59C470.7,206.23,478.56,288.21,423.13,339z"/>
<g>
	<path class="st4" d="M-524.34,89.45c0,0-5-3.6-9.9,0.5c-4.9,4-1.8,31.5,3.3,35.5c0,0,9.5,1,9-12.8
		C-522.44,99.05-524.34,89.45-524.34,89.45z"/>
	<path class="st5" d="M-437.24,321.35h-9.5c0-0.1,0-0.1-0.1-0.2c-32-0.2-64-5.8-92.1-18c-5.8-2.5-11.4-5.3-16.8-8.3
		c-4.5-33.6-10.8-90.5-4.8-104.4c0.4-0.9,0.8-1.7,1.4-2.2c0-0.1,0.1-0.1,0.1-0.1c2.7-2.6,21-5.9,33.6-7.9l0,0
		c6.7-1.1,11.8-1.7,11.8-1.7l20.7,0.1c0,0,3.8,0.5,9.3,1.5c11.6,2.1,30.5,6.3,35.5,12.6c0.9,1.1,1.9,7.1,2.9,15.9
		c0,0.2,0.1,0.4,0.1,0.6c0.3,2.1,0.5,4.4,0.7,6.8c2,20.9,4.1,51.7,5.5,75.3l0,0c0.1,1.1,0.1,2.3,0.2,3.3c0.3,5.1,0.6,9.9,0.8,14v0.1
		c0.3,5.2,0.5,9.4,0.7,12.4C-437.24,321.15-437.24,321.25-437.24,321.35z"/>
	<polygon class="st6" points="-493.24,151.75 -511.94,152.45 -513.64,178.55 -492.94,178.65 	"/>
	<path class="st3" d="M-513.04,170.15l-12.3,10.1l11.8,10.1l10.3-11.8l8.7,11.8l10.9-10.3l-9.3-9.9
		C-492.94,170.15-501.94,179.65-513.04,170.15z"/>
	<path class="st6" d="M-525.34,100.75c0,0-12.3,52,22.1,56.5s28-62.4,17.6-62.9C-496.04,93.75-523.84,90.95-525.34,100.75z"/>
	<path class="st4" d="M-516.44,94.95c0,0,38.8,11.6,48.1-5.9c10-18.9-13.3-29-24.5-11.3c0,0-35.9-11-37.1,12.6
		C-530.64,103.55-516.44,94.95-516.44,94.95z"/>
	<path class="st6" d="M-525.34,122.75c0,0-4.9-4.2-8.3-1c-3.4,3.2,0.6,14.1,8.3,13C-517.64,133.75-525.34,122.75-525.34,122.75z"/>
	<path class="st4" d="M-530.14,119.75c0,0,1.7,1.3,2.7,5.8c0,0,1.9,0.8,3.3-0.7c1.5-1.5,5.3-20.6,4.6-27.1c-0.8-6.5-10.3-4.8-11.2,3
		C-531.64,108.55-530.14,119.75-530.14,119.75z"/>
	<path class="st6" d="M-481.44,122.75c0,0,4.9-4.2,8.3-1s-0.6,14.1-8.3,13C-489.24,133.75-481.44,122.75-481.44,122.75z"/>
	<path class="st4" d="M-474.94,120.65c0,0-3.2,0.4-4.2,4.8c0,0,0,0.8-1.4-0.7c-1.5-1.5-0.2-21.8,0.6-28.2c0.8-6.5,5.2-3.7,6,4.2
		C-473.04,108.65-474.94,120.65-474.94,120.65z"/>
	<path class="st4" d="M-511.14,91.05c-0.1,0.4-1.6,14.1-11.5,13c-10-1.1-2.1-17.3-2.1-17.3L-511.14,91.05z"/>
	<path class="st4" d="M-485.64,95.55c0,0-0.6,8.9,6,11.2s2.3-14.4,2.3-14.4L-485.64,95.55z"/>
	<path class="st5" d="M-538.84,303.25c-5.8-2.5-11.4-5.3-16.8-8.3c-6.2-3.5-12.1-7.4-17.7-11.6c-1.2-0.9-6.3-5.5-13.1-13.1
		c6.5-29.7,19.7-69.8,26-79.7c0.7-1.2,1.2-2,1.4-2.2c0-0.1,0.1-0.1,0.1-0.1L-538.84,303.25z"/>
</g>
<g>
	<path class="st2" d="M149.75,52.46c0,0-84.12,1.62-75.7,44.92s76.13,44.6,108.63,21.38C204.93,102.89,206.76,52.25,149.75,52.46z"
		/>
	<polygon class="st2" points="83.23,98.14 65.3,124.81 103.85,115.74 	"/>
</g>
<g>
	<path class="st5" d="M111.86,111.2l-4.55-39.04l9.98-1.14l1.64,14.65l12.76-1.52l-1.64-14.53l9.98-1.14l4.42,39.04l-9.98,1.14
		l-1.77-15.54l-12.76,1.52l1.77,15.54L111.86,111.2z"/>
	<path class="st5" d="M147.1,67.62l22.11-2.53l1.01,8.72l-12.13,1.39l0.76,6.06l11.75-1.39l1.01,8.72l-11.75,1.39l0.76,6.7
		l12.13-1.39l1.01,8.72l-22.11,2.53L147.1,67.62z"/>
	<path class="st5" d="M175.15,64.46l9.98-1.14l3.41,30.19l11.5-1.26l1.01,8.72l-21.48,2.53L175.15,64.46z"/>
	<path class="st5" d="M200.79,61.43l9.98-1.14l3.41,30.19l11.5-1.26l1.01,8.72l-21.48,2.53L200.79,61.43z"/>
	<path class="st5" d="M224.67,78.86c-1.52-12.76,7.45-21.73,18.19-22.99c12-1.39,21.73,7.07,22.87,17.81
		c1.14,10.74-6.19,21.22-18.32,22.61C235.16,97.81,225.93,88.97,224.67,78.86L224.67,78.86z M234.65,77.22
		c0.63,5.94,5.43,11.12,12.13,10.36c7.07-0.76,9.73-7.58,9.22-12.63c-0.63-5.05-4.8-11.12-11.88-10.36
		C237.05,65.47,234.02,71.79,234.65,77.22L234.65,77.22z"/>
	<path class="st5" d="M281.64,78.61l-8.97,1.01l-3.03-26.15l8.97-1.01L281.64,78.61z M283.16,91.5l-8.97,1.01l-1.01-8.97l8.97-1.01
		L283.16,91.5z"/>
</g>
<path class="st2" d="M-536.17,222.12C-536.17,222.22-536.17,222.22-536.17,222.12c-0.4,1.6-0.8,3.3-1.3,5c-0.3,1.4-0.7,2.8-1.1,4.2
	c-0.9,3.4-1.8,7-2.8,10.7c-4.9,18.5-10.6,38.5-14.3,51.2c-14.2,2.6-28.8,4.2-43.6,4.7v0.3h-9.8c0-0.1,0-0.1-0.1-0.2
	c-0.7-2.8-1.6-6.7-2.7-11.4c-1.1-4.8-2.4-10.3-3.7-16.3c-2.3-10.6-4.8-22.6-6.8-34.1c-0.6-3.7-1.2-7.4-1.8-10.9
	c-2.7-18.2-3.6-33.2,0-36.4c1.7-1.5,4.8-2.3,7.6-2.8l0,0c3.1-0.5,5.7-0.5,5.7-0.5l3.2,0.2l62.7,4.3c0,0,9.3,2.1,12.7,7.1
	C-531.07,198.82-532.97,208.82-536.17,222.12z"/>
<path class="st6" d="M-567.87,161.42l-15.9,2.3l-2.2,19.2l-24.8,2.8c0,0,0,10.2,20.7,14.4c32.9,6.7,45.2-9.9,45.2-9.9l-24-6.4
	L-567.87,161.42z"/>
<path class="st6" d="M-573.97,108.72c0,0-20.5,6.7-23.6,34.8c-3.3,29.8,23.5,28.1,36,17.1
	C-540.87,142.12-543.77,100.62-573.97,108.72z"/>
<path class="st6" d="M-557.27,148.62c0,0,4.4-3.7,8.5-0.1c4.1,3.6-3.3,12.4-10.7,8.6C-566.77,153.32-557.27,148.62-557.27,148.62z"
	/>
<path class="st4" d="M-574.07,104.72c0,0-3.5-14.7-17.4-9.8c-12.5,4.5-9,26.5,11.5,33c15.3,4.9,24.3-0.3,24.3-0.3s-4.2,7.1-3.4,12.6
	c0.8,5.5-0.3,9.7-0.3,9.7s3.6,0.8,7.5-3c0,0,15.8-11.2,11.6-27.2C-544.47,103.82-563.37,100.92-574.07,104.72z"/>
<path class="st4" d="M-552.07,108.52c0.7-2.3,6.6-26.9,32.7-27.7c26.2-0.8,43.7,42.8,2.3,55.1c-7.6,2.3-27.6,0.6-33.1-3.8
	C-555.67,127.62-552.07,108.52-552.07,108.52z"/>
<path class="st6" d="M-623.97,189.02c-8.8-3.3-36.6,51.5-43.3,80.5s77,14.4,77,14.4l-3.2-12.1c0,0-45.1-2-46.2-6.2
	c-1.1-4.2,15.7-40.2,15.7-40.2S-621.27,190.02-623.97,189.02z"/>
<polygon class="st2" points="-544.77,190.22 -506.47,186.92 -502.37,209.52 -541.27,233.02 "/>
<path class="st2" d="M-616.47,186.22c0,0-6.4-3.2-24.3,15.5l-12.9,19.9l24.7,20.7l16.8-14.7L-616.47,186.22z"/>
<path class="st5" d="M-521.27,227.52l-18.5,62.2c-5.2,1.3-10.5,2.4-15.8,3.4c-14.2,2.6-28.8,4.2-43.6,4.7l0.5-12.5v-0.2l0.5-13.6
	l1.8-45.7l54.6,1.2l4.3,0.1l5.7,0.1L-521.27,227.52z"/>
<path class="st6" d="M-604.97,272.12l7.1-7.7l-0.3,7.2l24.1-6c0,0,3.9,3.9,3.4,6.5s-9,11.9-32.9,13.6L-604.97,272.12z"/>
<path class="st7" d="M416.37,335.2c12.83-2.46,48.89-49.89,48.89-49.89s26.93-10.12,28.07-13.04c0.62-1.54,0.34-4.43,0.02-6.76
	c-0.36-2.04-2.33-3.36-4.33-2.81l-17.58,4.44c0,0,3.32-10.12,0.63-11.59c-2.58-1.64-5.47,7.21-5.47,7.21s-5.44,14.26-8.92,16.67
	c-2.32,1.64-37.81,29.13-53.5,31.72"/>
<g>
	<defs>
		<path id="SVGID_1_" d="M422.86,339.09c-21.91,20.03-53.77,35.3-89.73,44.26c-5.75,1.44-11.62,2.66-17.48,3.76
			c-15.71,2.88-31.87,4.65-48.24,5.2c-0.11,0-0.33,0-0.44,0c-3.54,0.11-6.97,0.11-10.51,0.11c-35.41-0.22-70.81-6.42-101.9-19.92
			c-6.42-2.77-12.61-5.86-18.59-9.18c-6.86-3.87-13.39-8.19-19.58-12.83c-1.33-1-6.97-6.09-14.49-14.49
			c-22.68-25.56-61.96-82.32-47.8-151.91C72.89,91.25,182.76,19.22,250.15,40.58c12.5,3.98,23.79,9.85,34.19,16.82
			c28.32,18.92,50.01,46.03,73.25,64.95c14.16,11.51,28.88,20.03,45.92,21.91c4.76,0.55,9.29,1.88,13.61,3.98
			c8.19,3.87,15.71,10.29,22.24,18.59C470.44,206.32,478.29,288.31,422.86,339.09z"/>
	</defs>
	<clipPath id="SVGID_2_">
		<use xlink:href="#SVGID_1_"  style="overflow:visible;"/>
	</clipPath>
	<g class="st8">
		<g>
			<g>
				<g>
					<path class="st9" d="M247.23,255.22c1.12,1.75,1.77,3.83,1.77,6.06c0,1.1-0.17,2.17-0.46,3.19c1.53,1.92,2.43,4.33,2.43,6.96
						c0,6.21-5.05,11.26-11.27,11.26c-2.06,0-4-0.55-5.66-1.55c-0.05,1.55-0.4,3-1.01,4.33c-1.77,3.87-5.69,6.56-10.22,6.56
						c-3.3,0-6.28-1.42-8.33-3.68c-0.26-0.26-0.5-0.55-0.7-0.85c-0.04-0.04-0.05-0.05-0.07-0.09c-0.29,0.44-0.64,0.85-1.01,1.23
						c-0.68,0.68-1.44,1.29-2.26,1.77c-1.69,1.03-3.68,1.62-5.8,1.62c-2.12,0-4.09-0.59-5.78-1.62c-0.26-0.15-0.52-0.31-0.76-0.5
						c-0.59-0.41-1.12-0.89-1.62-1.4c-1.97,3.26-5.54,5.43-9.63,5.43c-5.27,0-9.69-3.59-10.91-8.47c-0.24-0.89-0.37-1.82-0.37-2.78
						c0-0.88,0.11-1.75,0.31-2.58c-1.16,0.42-2.43,0.64-3.74,0.64c-6.21,0-11.26-5.03-11.26-11.25c0-2.63,0.9-5.05,2.41-6.96
						c-0.57-1.33-0.87-2.78-0.87-4.29c0-2.98,1.14-5.67,3.04-7.7c-3.15-1.11-5.42-4.13-5.42-7.7v-1.24c0-0.57,0.04-1.12,0.15-1.66
						c0.33-1.58,1.12-3,2.23-4.11c1.47-1.49,3.54-2.39,5.77-2.39v-8.69c6.98,2.6,19.27,5.67,30.76,1.12v6.06
						c0,3.13,2.54,5.67,5.67,5.67c3.15,0,5.69-2.54,5.69-5.67v-6.43c11.79,4.68,24.98,1.49,32.22-1.05c0,3.3,0.02,6.36,0.02,8.95
						h0.09c6.28,0,11.38,5.1,11.38,11.38C254.02,249.46,251.22,253.45,247.23,255.22z"/>
				</g>
				<g>
					<path class="st10" d="M242.64,185.09c0,0.96,0,4.02-0.04,8.23"/>
					<path class="st11" d="M242.6,193.33c-0.02,8.2-0.07,20.82-0.07,31.13c-7.24,2.54-20.43,5.73-32.22,1.05v6.43
						c0,3.13-2.54,5.67-5.69,5.67c-3.13,0-5.67-2.54-5.67-5.67v-6.06c-11.5,4.55-23.78,1.47-30.76-1.12v-37.01
						c0,0,3.67-7.06,16.25-7.9c12.58-0.83,9.28,9.6,25.88,3.96c11.7-3.98,20.85-0.81,26.73,3.68
						C239.47,189.35,241.35,191.43,242.6,193.33z"/>
				</g>
			</g>
			<g>
				<g>
					<path class="st11" d="M281.62,331.52v65.45H130.2v-65.45c0-9.97,3.15-19.19,8.55-26.71c3.79-5.32,8.71-9.82,14.39-13.1
						c1.82-1.07,3.72-2.01,5.69-2.82c7.52,19.29,26.27,32.95,48.21,32.95c21.61,0,40.14-13.26,47.88-32.09
						c1.23,0.53,2.43,1.16,3.61,1.84c5.82,3.35,10.85,7.96,14.7,13.45C278.52,312.53,281.62,321.65,281.62,331.52z"/>
				</g>
				<g>
					<line class="st10" x1="172.13" y1="285.65" x2="172.07" y2="285.54"/>
					<line class="st10" x1="239.75" y1="285.54" x2="239.7" y2="285.65"/>
				</g>
			</g>
			<path class="st11" d="M254.91,289.76c-7.74,18.83-26.27,32.09-47.88,32.09c-21.94,0-40.69-13.67-48.21-32.95
				c1.4-0.57,2.82-1.07,4.29-1.51c2.87-0.87,5.91-1.46,9.01-1.73c0.53-0.05,1.09-0.09,1.62-0.11c0.7-0.06,1.44-0.07,2.17-0.07
				c1.22,4.88,5.64,8.47,10.91,8.47c4.09,0,7.66-2.17,9.63-5.43c0.5,0.51,1.03,0.99,1.62,1.4c0.24,0.18,0.5,0.35,0.76,0.5
				c1.69,1.03,3.67,1.62,5.78,1.62c2.12,0,4.11-0.59,5.8-1.62c0.83-0.48,1.58-1.09,2.26-1.77c0.37-0.39,0.72-0.79,1.01-1.23
				c0.02,0.04,0.04,0.06,0.07,0.09c0.2,0.3,0.44,0.59,0.7,0.85c2.04,2.27,5.03,3.68,8.33,3.68c4.53,0,8.45-2.69,10.22-6.56h2.54
				c1.38,0,2.75,0.06,4.13,0.18h0.02c1.51,0.13,2.97,0.33,4.44,0.61v0.02c1.55,0.28,3.08,0.66,4.55,1.11
				C250.84,288.03,252.92,288.8,254.91,289.76z"/>
			<line class="st10" x1="213.77" y1="287.4" x2="213.77" y2="303.32"/>
			<line class="st10" x1="198.08" y1="303.32" x2="198.08" y2="289.92"/>
			<path class="st10" d="M198.08,244.8c0,0,6.57,5.76,12.23,0"/>
			<line class="st10" x1="198.94" y1="225.88" x2="198.94" y2="220.11"/>
			<line class="st10" x1="210.31" y1="225.51" x2="210.31" y2="220.11"/>
			<g>
				<path class="st10" d="M217.36,212.75c0-4.67,11.42-8.72,13.99,0"/>
				<line class="st10" x1="177.43" y1="200.27" x2="191.42" y2="200.27"/>
				<path class="st10" d="M217.36,200.27c0,0,3.63-2.24,5.39-2.27c0.92-0.02,2.62,2.31,4.44,2.85c2.03,0.6,4.16-0.58,4.16-0.58"/>
			</g>
			<path class="st9" d="M168.18,187.56c0,0,3.67-6.87,16.25-7.72c12.58-0.83,9.28,9.6,25.88,3.96c11.7-3.98,20.85-0.81,26.73,3.68
				c2.43,1.86,4.31,3.94,5.56,5.84c0.02,0.02,0.02,0.04,0.04,0.06c0,0,1.97-45.54-8.57-53.29c0,0-10.83,4.79-14.22,6.48
				c0,0-11-15.51-29.9-9.87c0,0,3.78,2.54,1.45,13.54c0,0-21.26-12.73-37.05,0.24c0,0,25.44,0,26.77,5.65
				c0,0-30.97-10.64-34.02,7.98l15.9,7.48L168.18,187.56z"/>
			<path class="st10" d="M198.94,141.9c0,0,10.06,1.42,14.57,9.97"/>
			<path class="st10" d="M231.34,148.07c0,0,6.21,16.44,5.7,39.44"/>
			<g>
				<path class="st11" d="M250.95,223.83v1.23c0,4.53-3.63,8.18-8.16,8.18v-17.57c2.25,0,4.29,0.9,5.79,2.39
					c0.38,0.39,0.74,0.81,1.03,1.27v0.02c0.53,0.81,0.94,1.71,1.14,2.69c0.02,0.04,0.05,0.09,0.05,0.13
					C250.89,222.71,250.95,223.26,250.95,223.83z"/>
			</g>
			<g>
				<path class="st11" d="M168.18,215.67v17.57c-4.53,0-8.16-3.65-8.16-8.18v-1.23c0-0.57,0.06-1.12,0.15-1.66
					c0-0.04,0.04-0.09,0.06-0.13c0.2-0.98,0.61-1.88,1.14-2.69v-0.02c0.3-0.46,0.64-0.88,1.03-1.27
					C163.89,216.57,165.93,215.67,168.18,215.67z"/>
			</g>
			<path class="st10" d="M158.82,288.9c1.4-0.57,2.82-1.07,4.29-1.51c2.87-0.87,5.91-1.46,9.01-1.73c0.53-0.05,1.09-0.09,1.62-0.11
				c0.7-0.06,1.44-0.07,2.17-0.07c1.22,4.88,5.64,8.47,10.91,8.47c4.09,0,7.66-2.17,9.63-5.43c0.5,0.51,1.03,0.99,1.62,1.4
				c0.24,0.18,0.5,0.35,0.76,0.5c1.69,1.03,3.67,1.62,5.78,1.62c2.12,0,4.11-0.59,5.8-1.62c0.83-0.48,1.58-1.09,2.26-1.77
				c0.37-0.39,0.72-0.79,1.01-1.23c0.02,0.04,0.04,0.06,0.07,0.09c0.2,0.3,0.44,0.59,0.7,0.85c2.04,2.27,5.03,3.68,8.33,3.68
				c4.53,0,8.45-2.69,10.22-6.56h2.54c1.38,0,2.75,0.06,4.13,0.18h0.02c1.51,0.13,2.97,0.33,4.44,0.61v0.02
				c1.55,0.28,3.08,0.66,4.55,1.11c2.14,0.64,4.22,1.42,6.21,2.38"/>
		</g>
		<g>
			<g>
				<g>
					<path class="st11" d="M383.57,276.71v51.93h-17.35c-0.32-11.28-9.03-71.61-10.66-87.47c0.64,0.15,1.27,0.32,1.9,0.51
						c7.97,2.37,14.79,7.38,19.46,14.02C381.12,261.64,383.57,268.87,383.57,276.71z"/>
					<path class="st11" d="M291.46,241.16c-2.05,14.9-9.22,76.19-10.26,87.49h-17.77v-51.93c0-7.91,2.5-15.23,6.78-21.2
						c4.66-6.55,11.43-11.49,19.32-13.83C290.16,241.49,290.81,241.32,291.46,241.16z"/>
					<path class="st9" d="M366.22,328.64H281.2c1.04-11.3,8.22-72.59,10.26-87.49c0.82-0.19,1.65-0.37,2.49-0.5
						c1.96-0.32,3.98-0.5,6.02-0.5h1.94c-1.56,3.2-2.44,6.8-2.44,10.6c0,13.35,10.82,24.16,24.16,24.16
						c13.35,0,24.16-10.82,24.16-24.16c0-3.8-0.88-7.4-2.44-10.6h1.67c2.56,0,5.06,0.26,7.47,0.77c0.35,0.07,0.72,0.15,1.07,0.23
						C357.19,257.03,365.9,317.36,366.22,328.64z"/>
					<path class="st11" d="M347.8,250.76c0,13.35-10.82,24.16-24.16,24.16c-13.35,0-24.16-10.82-24.16-24.16
						c0-3.8,0.88-7.4,2.44-10.6h15.35v-6.32c1.45,0.25,2.94,0.37,4.46,0.37h3.57c1.51,0,2.98-0.12,4.43-0.37v6.32h15.64
						C346.93,243.36,347.8,246.96,347.8,250.76z"/>
					<g>
						<line class="st10" x1="317.26" y1="248.47" x2="317.26" y2="240.16"/>
						<line class="st10" x1="329.71" y1="248.47" x2="329.71" y2="240.16"/>
					</g>
				</g>
				<g>
					<path class="st10" d="M353.04,190.11v13.95c0,0,0.01,0,0.03,0"/>
					<path class="st11" d="M353.06,190.11v16.33c0,2.73-0.39,5.38-1.14,7.88c-0.02,0.09-0.04,0.19-0.09,0.28
						c-0.7,2.34-1.74,4.55-3,6.58h-0.01c-0.13,0.23-0.29,0.47-0.44,0.7c-4.21,6.27-10.91,10.73-18.67,11.97
						c-1.45,0.25-2.92,0.37-4.43,0.37h-3.57c-1.52,0-3.01-0.12-4.46-0.37c-7.63-1.23-14.22-5.58-18.43-11.69
						c-0.25-0.35-0.48-0.72-0.7-1.08c-1.11-1.78-2.03-3.68-2.72-5.72c-0.04-0.13-0.09-0.25-0.12-0.38
						c-0.88-2.69-1.34-5.55-1.34-8.54v-16.33c0,0,1.99-6.65,10.16-13.61h0.01c2.13-1.8,4.71-3.64,7.79-5.38
						c14.81-8.38,20.07-10.53,20.79-14.59c0,0,1.77,9.12,11.18,15.63c2.16,1.49,3.81,3.13,5.1,4.77
						C353.97,183.37,353.09,190.11,353.06,190.11z"/>
				</g>
				<path class="st11" d="M293.95,190.11v13.95c-3.58,0-6.48-2.9-6.48-6.49v-0.98c0-0.45,0.04-0.89,0.13-1.31
					c0.26-1.26,0.88-2.38,1.77-3.26C290.54,190.83,292.16,190.11,293.95,190.11z"/>
				<path class="st11" d="M359.51,196.59v0.98c0,3.58-2.88,6.48-6.45,6.49v-13.95c1.55,0.01,2.97,0.56,4.09,1.48
					c0.16,0.13,0.31,0.28,0.45,0.42c0.89,0.88,1.51,2,1.77,3.27C359.47,195.71,359.51,196.15,359.51,196.59z"/>
			</g>
			<path class="st11" d="M386.06,200.53c0,0-3.82,24.72-37.22,20.64c1.26-2.03,2.3-4.24,3-6.58c0.04-0.09,0.07-0.19,0.09-0.28
				c0.75-2.5,1.14-5.14,1.14-7.88v-2.38c3.57-0.01,6.45-2.91,6.45-6.49v-0.98c0-0.44-0.04-0.88-0.13-1.3
				c-0.26-1.27-0.88-2.4-1.77-3.27c-0.15-0.15-0.29-0.29-0.45-0.42c-1.13-0.92-2.54-1.46-4.09-1.48c0.03,0,0.91-6.74-4.08-13.19
				c-1.29-1.64-2.94-3.27-5.1-4.77c-9.41-6.51-11.18-15.63-11.18-15.63c-0.72,4.06-5.98,6.21-20.79,14.59
				c-3.08,1.74-5.66,3.58-7.79,5.38h-0.01c-8.17,6.96-10.16,13.61-10.16,13.61c-1.78,0-3.41,0.72-4.58,1.9
				c-0.89,0.88-1.51,2-1.77,3.26c-0.09,0.42-0.13,0.86-0.13,1.31v0.98c0,3.6,2.9,6.49,6.48,6.49v2.38c0,2.98,0.47,5.85,1.34,8.54
				c0.03,0.13,0.07,0.25,0.12,0.38c0.69,2.03,1.61,3.93,2.72,5.72c-35.54,1.78-37.67-20.08-37.67-20.08
				c14.02-3.9,18.57-19.68,18.77-28.14c0.12-5.13,0-17.64,0-17.64c0-20.19,16.36-36.54,36.54-36.54h15.45
				c20.19,0,36.54,16.36,36.54,36.54c0,0-0.15,12.51,0,17.64C368.02,181.15,371.61,194.19,386.06,200.53z"/>
			<line class="st10" x1="298.14" y1="221.07" x2="298.13" y2="221.07"/>
			<path class="st10" d="M346.75,192.77c-1.58-5.45-11.62-7.17-15.21,0"/>
			<path class="st10" d="M314.68,192.77c-1.58-5.45-11.62-7.17-15.21,0"/>
			<path class="st10" d="M321.87,197.63v11.01c0,1.94,1.57,3.51,3.51,3.51c1.94,0,3.51-1.57,3.51-3.51v-3.75"/>
			<path class="st10" d="M333.89,219.76c0,0-9.56,4.23-18.16,0"/>
			<path class="st10" d="M321.87,146.04c0,12.69-34.85,23.85-33.12,37.35"/>
			<path class="st10" d="M287.47,171.24c0,0,0.83-7.65,15.45-20.7c6.34-6.35,9.22-10.8,9.22-17.32"/>
			<path class="st10" d="M314.68,177.82c-4.34-0.91-7.81-1.27-10.55-1.31"/>
			<path class="st10" d="M333.01,177.82c7.92-1.67,12.94-1.49,15.98-0.89"/>
		</g>
		<g>
			<g>
				<g>
					<path class="st11" d="M79.69,252.45v13.95c-3.58,0-6.48-2.89-6.48-6.49v-0.98c0-0.45,0.04-0.89,0.13-1.31
						c0.26-1.26,0.88-2.38,1.77-3.26C76.28,253.16,77.9,252.45,79.69,252.45z"/>
				</g>
				<g>
					<path class="st11" d="M145.28,258.92v0.98c0,3.6-2.89,6.49-6.48,6.49v-13.95c1.78,0,3.41,0.72,4.59,1.9
						c0.85,0.85,1.46,1.94,1.72,3.16c0.01,0.03,0.03,0.07,0.03,0.1C145.24,258.03,145.28,258.47,145.28,258.92z"/>
				</g>
				<g>
					<path class="st11" d="M138.77,266.39v-8.29c-0.19-6.53,0-18.46,0-21.77c-7.26-17.5-14.59-24.81-14.59-24.81
						s-18.87,4.49-28.11,9.63c-8.83,4.47-14.65,8.65-15.79,15.17c-0.39,1.84-0.6,3.76-0.6,5.73v26.71
						c0,13.81,10.1,25.27,23.32,27.41h12.46c0.13-0.01,0.26-0.05,0.38-0.07c13.04-2.25,22.96-13.64,22.96-27.33v-2.38
						C138.79,266.39,138.79,266.39,138.77,266.39z M95.49,252.24c-1.43,0-2.59-1.15-2.59-2.59c0-1.43,1.16-2.6,2.59-2.6
						c1.43,0,2.6,1.17,2.6,2.6C98.09,251.09,96.92,252.24,95.49,252.24z M124.13,252.24c-1.45,0-2.6-1.15-2.6-2.59
						c0-1.43,1.15-2.6,2.6-2.6c1.43,0,2.59,1.17,2.59,2.6C126.71,251.09,125.56,252.24,124.13,252.24z"/>
					<path class="st10" d="M145.12,257.62c0,0,0-0.04,0-0.12"/>
					<path class="st11" d="M157.74,224.56c1.56-1.89,2.5-4.32,2.5-6.97c0-3.81-1.94-7.16-4.88-9.13c0.24-0.91,0.39-1.86,0.39-2.85
						c0-6.06-4.91-10.97-10.97-10.97c-0.47,0-0.94,0.04-1.4,0.1c0.22-0.87,0.35-1.77,0.35-2.7c0-6.06-4.91-10.97-10.97-10.97
						c-1.99,0-3.84,0.54-5.45,1.46c-0.85-1.12-1.55-1.99-2.1-2.67c-1.76-3.71-5.53-6.27-9.9-6.27c-4.14,0-7.75,2.3-9.61,5.69
						c-2.01-2.36-5-3.86-8.34-3.86c-5.13,0-9.42,3.52-10.63,8.28c-0.12,0-0.23-0.02-0.35-0.02c-6.06,0-10.97,4.91-10.97,10.97
						c0,0.01,0,0.03,0,0.04c-5.67,0.43-10.14,5.15-10.14,10.93c0,1.64,0.37,3.19,1.01,4.58c-3.56,1.81-6,5.51-6,9.77
						c0,2.43,0.8,4.67,2.13,6.48c-3.26,1.9-5.46,5.43-5.46,9.48c0,6.06,4.91,10.97,10.97,10.97c1.98,0,3.84-0.53,5.45-1.46v12.15
						c0.26-1.26,0.88-2.38,1.77-3.26c1.17-1.18,2.79-1.9,4.58-1.9v-10.38c0-1.97,0.21-3.89,0.6-5.73
						c1.14-6.52,6.96-10.7,15.79-15.17c9.24-5.15,28.11-9.63,28.11-9.63s7.32,7.31,14.59,24.81c0,3.3-0.19,15.23,0,21.77v-5.66
						c0,0,0.01,0,0.03,0c1.78,0,3.41,0.72,4.59,1.9c0.85,0.85,1.46,1.94,1.72,3.16c0.02-0.93,0.18-7.26,0.24-15.05
						c1.52,0.79,3.24,1.25,5.07,1.25c6.06,0,10.97-4.91,10.97-10.97C161.4,229.48,159.98,226.57,157.74,224.56z M130.11,209.34
						c0.29,0.47,4.93,8.17,6.64,12.96L130.11,209.34z"/>
				</g>
			</g>
			<g>
				<path class="st10" d="M106.11,257.67v11.02c0,1.94,1.57,3.51,3.51,3.51c1.94,0,3.51-1.57,3.51-3.51v-11.02"/>
				<path class="st10" d="M102.4,279.71c0,0,6.22,6.55,14.46,0"/>
				<g>
					<g>
						<path class="st11" d="M98.09,249.66c0,1.43-1.17,2.59-2.6,2.59c-1.43,0-2.59-1.15-2.59-2.59c0-1.43,1.16-2.6,2.59-2.6
							C96.92,247.05,98.09,248.22,98.09,249.66z"/>
						<path class="st10" d="M88.52,249.67c0,0,3.92-5.19,13.23-1.15"/>
					</g>
					<g>
						<path class="st11" d="M126.71,249.66c0,1.43-1.15,2.59-2.59,2.59c-1.45,0-2.6-1.15-2.6-2.59c0-1.43,1.15-2.6,2.6-2.6
							C125.56,247.05,126.71,248.22,126.71,249.66z"/>
						<path class="st10" d="M117.5,249.67c0,0,3.93-5.19,13.23-1.15"/>
					</g>
				</g>
				<g>
					<line class="st10" x1="124.69" y1="233.94" x2="131.31" y2="237.12"/>
					<path class="st10" d="M87.94,239.48c0,0,4.52-3.18,6.57-3.95"/>
				</g>
			</g>
			<path class="st10" d="M79.15,215.02c0,0-0.41-6.83,3.33-9.59c3.08-2.28,3.59-2.68,6.83-6.26"/>
			<g>
				<g>
					<path class="st11" d="M136.44,302.65l-21.34,88.33h-10.93l-21.34-88.33c0.42-0.04,0.85-0.07,1.27-0.09
						c0.66-0.04,1.33-0.06,2-0.06h17.29v-6.32h12.08c0.13-0.01,0.26-0.05,0.38-0.07v6.39h17.31
						C134.26,302.5,135.35,302.54,136.44,302.65z"/>
					<path class="st9" d="M104.16,390.98h-9.3l-15.99-58.1l3.9-5.07l-15.04-20.35c2.47-1.45,5.13-2.6,7.92-3.43
						c2.3-0.69,4.69-1.15,7.16-1.37L104.16,390.98z"/>
					<path class="st11" d="M94.86,390.98H49.54v-51.93c0-7.91,2.5-15.23,6.78-21.2c3.01-4.23,6.9-7.79,11.4-10.4l15.04,20.35
						l-3.9,5.07L94.86,390.98z"/>
					<path class="st11" d="M169.69,339.05v51.93H124.2l15.88-58.1l-3.92-5.07l15.2-20.43c4.63,2.66,8.62,6.31,11.68,10.67
						C167.24,323.97,169.69,331.21,169.69,339.05z"/>
					<path class="st9" d="M136.16,327.8l3.92,5.07l-15.88,58.1h-9.11l21.34-88.33c1.2,0.1,2.37,0.26,3.52,0.48v0.01
						c1.23,0.22,2.44,0.53,3.62,0.88c2.75,0.82,5.35,1.94,7.78,3.35L136.16,327.8z"/>
					<g>
						<line class="st10" x1="103.4" y1="313.74" x2="103.4" y2="302.5"/>
						<line class="st10" x1="115.86" y1="313.74" x2="115.86" y2="302.5"/>
					</g>
				</g>
				<g>
					<line class="st10" x1="82.82" y1="302.65" x2="82.77" y2="302.56"/>
					<line class="st10" x1="136.48" y1="302.56" x2="136.44" y2="302.65"/>
				</g>
			</g>
		</g>
		<g>
			<path class="st10" d="M367.34,263.15c0,1.42-1.15,2.57-2.57,2.57c-1.42,0-2.57-1.15-2.57-2.57c0-0.89,0.45-1.68,1.14-2.15
				c0,0,0.02-0.01,0.03-0.01c0.39-0.26,0.88-0.42,1.4-0.42c0.23,0,0.45,0.03,0.66,0.1h0.01
				C366.53,260.94,367.34,261.95,367.34,263.15z"/>
			<path class="st10" d="M397.3,263.15c0,1.42-1.15,2.57-2.57,2.57c-1.42,0-2.57-1.15-2.57-2.57c0-0.89,0.45-1.68,1.14-2.15
				c0,0,0.02-0.01,0.03-0.01c0.39-0.26,0.88-0.42,1.4-0.42c0.23,0,0.45,0.03,0.66,0.1h0.01C396.5,260.94,397.3,261.95,397.3,263.15z
				"/>
			<g>
				<path class="st11" d="M397.3,316.81c0,9.44-7.64,17.09-17.09,17.1c0,0-0.02-0.02-0.02-0.03c0,0.01,0,0.03,0,0.03
					c-9.46-0.02-17.09-7.66-17.09-17.1c0-3.03,0.79-5.86,2.16-8.32h8.7v-6.32c1.45,0.25,2.94,0.37,4.46,0.37H382
					c1.51,0,2.98-0.12,4.43-0.37v6.32h8.71C396.51,310.95,397.3,313.78,397.3,316.81z"/>
				<path class="st9" d="M431.24,396.97H330c0,0-2.41-50.5,9.24-60.64c12.29-7.76,11.42-27.35,11.42-27.35
					c1.96-0.32,3.98-0.5,6.02-0.5h8.6c-1.37,2.46-2.16,5.29-2.16,8.32c0,9.44,7.63,17.09,17.07,17.1h0.03
					c9.44-0.02,17.09-7.66,17.09-17.1c0-3.03-0.79-5.86-2.16-8.32h8.6c2.56,0,5.06,0.26,7.47,0.78c0,0-7.12,18.17,5.17,25.93
					C428.01,345.33,431.24,396.97,431.24,396.97z"/>
				<path class="st11" d="M343.91,337.53c-11.65,10.13-13.9,59.44-13.9,59.44h-9.87v-51.94c0-7.91,2.5-15.23,6.78-21.2
					c4.66-6.55,11.43-11.49,19.32-13.83c1.43-0.44,2.91-0.78,4.41-1.02C350.66,308.99,356.2,329.77,343.91,337.53z"/>
				<g>
					<line class="st10" x1="373.97" y1="316.8" x2="373.97" y2="308.49"/>
					<line class="st10" x1="386.42" y1="316.8" x2="386.42" y2="308.49"/>
				</g>
			</g>
			<g>
				<path class="st11" d="M409.74,272.38v-13.95c-0.61-0.09-1.21-0.17-1.8-0.28c-0.78-0.12-1.55-0.25-2.3-0.4
					c-0.82-0.15-1.61-0.31-2.38-0.47c-1.43-0.29-2.82-0.61-4.14-0.97c-0.67-0.16-1.31-0.34-1.94-0.53c-0.12-0.03-0.25-0.06-0.37-0.1
					c-0.58-0.16-1.17-0.34-1.72-0.53c-0.73-0.22-1.43-0.45-2.12-0.7c-0.48-0.18-0.96-0.35-1.43-0.53c-0.18-0.06-0.34-0.12-0.5-0.19
					c-0.03,0-0.04-0.02-0.07-0.03c-0.63-0.25-1.23-0.48-1.81-0.73c0,0-0.02,0-0.02-0.01c-0.61-0.26-1.21-0.53-1.78-0.8
					c-0.59-0.26-1.14-0.53-1.68-0.82c-0.54-0.28-1.07-0.56-1.56-0.85c-1.07-0.58-2.08-1.2-3-1.81c-0.4-0.26-0.79-0.53-1.15-0.81
					c-0.59-0.41-1.14-0.85-1.67-1.27c-0.39-0.31-0.76-0.63-1.12-0.94c-0.91-0.8-1.71-1.59-2.43-2.37c-0.35-0.37-0.66-0.73-0.95-1.08
					c-0.92-1.11-1.68-2.18-2.28-3.19c-0.18-0.28-0.34-0.56-0.5-0.83c-0.16-0.31-0.32-0.61-0.47-0.91c-0.09-0.15-0.15-0.29-0.2-0.42
					c-0.13-0.28-0.26-0.56-0.37-0.82c-0.22-0.53-0.4-1.02-0.56-1.45c-0.06-0.2-0.12-0.39-0.16-0.58c-0.04-0.12-0.07-0.23-0.1-0.35
					c-0.03-0.13-0.06-0.26-0.09-0.37c-0.03-0.16-0.06-0.29-0.09-0.41c-0.01-0.1-0.03-0.19-0.04-0.26c-0.02-0.16-0.03-0.23-0.03-0.23
					c-0.16,0.78-0.32,1.52-0.48,2.25c-1.83,7.78-4.46,13.01-7.13,16.52c-0.13,0.18-0.25,0.34-0.38,0.5
					c-0.38,0.48-0.78,0.92-1.14,1.34c-0.39,0.41-0.76,0.79-1.14,1.14c-0.19,0.18-0.38,0.35-0.56,0.51c-0.01,0-0.03,0.03-0.03,0.03
					c-0.54,0.47-1.07,0.88-1.58,1.23c-0.01,0.02-0.03,0.03-0.03,0.03c-0.22,0.16-0.45,0.32-0.69,0.45
					c-0.22,0.15-0.44,0.28-0.66,0.41c-0.22,0.12-0.42,0.23-0.63,0.34c-0.2,0.12-0.41,0.2-0.6,0.29c-0.29,0.13-0.57,0.25-0.82,0.35
					c-0.26,0.1-0.5,0.19-0.73,0.26c-0.29,0.09-0.56,0.16-0.78,0.21c-0.12,0.03-0.22,0.06-0.31,0.07c-0.38,0.07-0.59,0.09-0.59,0.09
					v16.33c0,2.98,0.47,5.85,1.34,8.54c0.03,0.13,0.07,0.25,0.12,0.38c0.83,2.44,1.99,4.72,3.42,6.8
					c4.21,6.11,10.8,10.47,18.43,11.69c1.45,0.25,2.94,0.37,4.46,0.37H382c1.51,0,2.98-0.12,4.43-0.37
					c7.76-1.24,14.46-5.7,18.67-11.97c1.48-2.22,2.66-4.66,3.45-7.28c0.04-0.09,0.07-0.19,0.09-0.28c0.75-2.5,1.14-5.15,1.14-7.88
					v-2.38C409.76,272.38,409.76,272.38,409.74,272.38z M364.76,265.72c-1.42,0-2.57-1.15-2.57-2.57c0-0.89,0.45-1.68,1.14-2.15
					c0,0,0.02-0.01,0.03-0.01c0.39-0.26,0.88-0.42,1.4-0.42c0.23,0,0.45,0.03,0.66,0.1h0.01c1.1,0.28,1.9,1.29,1.9,2.49
					C367.34,264.56,366.18,265.72,364.76,265.72z M394.73,265.72c-1.42,0-2.57-1.15-2.57-2.57c0-0.89,0.45-1.68,1.14-2.15
					c0,0,0.02-0.01,0.03-0.01c0.39-0.26,0.88-0.42,1.4-0.42c0.23,0,0.45,0.03,0.66,0.1h0.01c1.1,0.28,1.9,1.29,1.9,2.49
					C397.3,264.56,396.15,265.72,394.73,265.72z"/>
				<path class="st11" d="M352,283.31c-0.42,0.12-0.88,0.18-1.33,0.18c-2.87,0-5.2-2.33-5.2-5.2c0-2.87,2.32-5.17,5.19-5.19v1.68
					C350.66,277.75,351.12,280.61,352,283.31z"/>
				<path class="st11" d="M355.54,290.48c-0.73,1.99-2.63,3.39-4.87,3.39c-2.87,0-5.2-2.32-5.2-5.2c0-2.86,2.34-5.19,5.2-5.19
					c0.5,0,0.98,0.07,1.45,0.2C352.95,286.13,354.11,288.41,355.54,290.48z"/>
				<path class="st11" d="M355.87,299.07c0,2.87-2.33,5.2-5.2,5.2c-2.87,0-5.2-2.33-5.2-5.2c0-2.87,2.33-5.2,5.2-5.2
					C353.54,293.87,355.87,296.2,355.87,299.07z"/>
				<path class="st11" d="M355.87,309.46c0,2.87-2.33,5.2-5.2,5.2c-2.87,0-5.2-2.33-5.2-5.2c0-2.87,2.33-5.2,5.2-5.2
					C353.54,304.26,355.87,306.59,355.87,309.46z"/>
				<path class="st11" d="M355.87,319.85c0,2.87-2.33,5.2-5.2,5.2c-2.87,0-5.2-2.33-5.2-5.2c0-2.87,2.33-5.2,5.2-5.2
					C353.54,314.66,355.87,316.98,355.87,319.85z"/>
			</g>
			<path class="st10" d="M383.38,271.62c0.38,0.51,0.61,1.15,0.61,1.83c0,1.7-1.37,3.07-3.07,3.07c-1.7,0-3.07-1.38-3.07-3.07
				c0-0.57,0.16-1.11,0.43-1.57"/>
			<path class="st11" d="M350.66,258.44v13.95c-3.58,0-6.48-2.89-6.48-6.49v-0.98c0-0.45,0.04-0.89,0.13-1.32
				c0.26-1.26,0.88-2.38,1.77-3.26C347.25,259.16,348.87,258.44,350.66,258.44z"/>
			<path class="st11" d="M416.22,264.92v0.98c0,3.58-2.88,6.48-6.45,6.49v-13.95c1.55,0.02,2.97,0.56,4.09,1.48
				c0.16,0.13,0.31,0.28,0.45,0.42c0.89,0.88,1.5,2,1.77,3.27C416.17,264.04,416.22,264.48,416.22,264.92z"/>
			<path class="st11" d="M368.91,205.23v27.19c-0.16,0.78-0.32,1.52-0.48,2.25c-1.83,7.78-4.46,13.01-7.13,16.52
				c-0.13,0.18-0.25,0.34-0.38,0.5c-0.38,0.48-0.78,0.92-1.14,1.34c-0.39,0.41-0.76,0.79-1.14,1.14c-0.19,0.18-0.38,0.35-0.56,0.51
				c-0.01,0-0.03,0.03-0.03,0.03c-0.92,0.56-1.45,1.08-1.58,1.23c-0.01,0.02-0.03,0.03-0.03,0.03c-0.22,0.16-0.45,0.32-0.69,0.45
				c-0.22,0.15-0.44,0.28-0.66,0.41c-0.22,0.12-0.42,0.23-0.63,0.34c-0.2,0.12-0.41,0.2-0.6,0.29c-0.29,0.13-0.57,0.25-0.82,0.35
				c-0.26,0.1-0.5,0.19-0.73,0.26c-0.29,0.09-0.56,0.16-0.78,0.21c-0.12,0.03-0.22,0.06-0.31,0.07c-0.38,0.07-0.59,0.09-0.59,0.09
				c-1.78,0-3.41,0.72-4.58,1.9v-26.59C346.08,219.8,355.85,208.12,368.91,205.23z"/>
			<path class="st10" d="M358.05,254.71c-0.54,0.47-1.07,0.88-1.58,1.23C356.61,255.79,357.13,255.27,358.05,254.71z"/>
			<path class="st11" d="M413.86,233.75v26.17c-1.12-0.92-2.54-1.46-4.09-1.48c-0.01,0-0.01,0-0.03,0c-0.61-0.09-1.21-0.17-1.8-0.28
				c-0.78-0.12-1.55-0.25-2.3-0.4c-0.82-0.15-1.61-0.31-2.38-0.47c-1.43-0.29-2.82-0.61-4.14-0.97c-0.67-0.16-1.31-0.34-1.94-0.53
				c-0.12-0.03-0.25-0.06-0.37-0.1c-0.58-0.18-1.15-0.34-1.72-0.53c-0.73-0.22-1.43-0.45-2.12-0.7c-0.48-0.18-0.96-0.35-1.43-0.53
				c-0.18-0.06-0.34-0.12-0.5-0.19c-0.03,0-0.04-0.02-0.07-0.03c-0.63-0.25-1.23-0.48-1.81-0.73c0,0-0.02,0-0.02-0.01
				c-0.61-0.26-1.21-0.53-1.78-0.8c-0.59-0.26-1.14-0.54-1.68-0.82c-0.54-0.28-1.07-0.56-1.56-0.85c-1.07-0.58-2.08-1.2-3-1.81
				c-0.4-0.26-0.79-0.53-1.15-0.81c-0.59-0.41-1.14-0.85-1.67-1.27c-0.39-0.31-0.76-0.63-1.12-0.94c-0.91-0.8-1.71-1.59-2.43-2.37
				c-0.34-0.37-0.64-0.72-0.95-1.08c-0.92-1.11-1.68-2.18-2.28-3.19c-0.18-0.28-0.34-0.56-0.5-0.83c-0.16-0.31-0.32-0.61-0.47-0.91
				c-0.07-0.13-0.15-0.28-0.2-0.42c-0.13-0.28-0.26-0.56-0.37-0.82c-0.22-0.53-0.4-1.02-0.56-1.45c-0.06-0.2-0.12-0.39-0.16-0.58
				c-0.04-0.12-0.07-0.23-0.1-0.35c-0.03-0.13-0.06-0.26-0.09-0.37c-0.03-0.16-0.06-0.29-0.09-0.41c-0.01-0.1-0.03-0.19-0.04-0.26
				c-0.02-0.16-0.03-0.23-0.03-0.23v-27.19c0.61-0.15,1.23-0.26,1.86-0.37c1.48-0.23,3-0.35,4.55-0.35h9.31
				C400.78,204.51,413.86,217.6,413.86,233.75z"/>
			<g>
				<g>
					<path class="st10" d="M371.91,263.26c-2.53-1.96-4.71-2.6-6.48-2.6"/>
					<path class="st10" d="M365.42,260.66c-0.76,0-1.46,0.13-2.06,0.32"/>
					<path class="st10" d="M363.33,261c-2.19,0.69-3.38,2.27-3.38,2.27"/>
					<path class="st11" d="M367.34,263.15c0,1.42-1.15,2.57-2.57,2.57c-1.42,0-2.57-1.15-2.57-2.57c0-0.89,0.45-1.68,1.14-2.15
						c0,0,0.02-0.01,0.03-0.01c0.39-0.26,0.88-0.42,1.4-0.42c0.23,0,0.45,0.03,0.66,0.1h0.01
						C366.53,260.94,367.34,261.95,367.34,263.15z"/>
				</g>
				<g>
					<path class="st10" d="M401.88,263.26c-2.53-1.96-4.71-2.6-6.48-2.6"/>
					<path class="st10" d="M395.39,260.66c-0.76,0-1.46,0.13-2.06,0.32"/>
					<path class="st10" d="M393.3,261c-2.19,0.69-3.38,2.27-3.38,2.27"/>
					<path class="st11" d="M397.3,263.15c0,1.42-1.15,2.57-2.57,2.57c-1.42,0-2.57-1.15-2.57-2.57c0-0.89,0.45-1.68,1.14-2.15
						c0,0,0.02-0.01,0.03-0.01c0.39-0.26,0.88-0.42,1.4-0.42c0.23,0,0.45,0.03,0.66,0.1h0.01
						C396.5,260.94,397.3,261.95,397.3,263.15z"/>
				</g>
			</g>
			<path class="st10" d="M371.36,283.62c0,0-2.92,3.78,1.83,4.63c4.75,0.85,21.56,1.71,17.54-4.63"/>
			<path class="st10" d="M358.08,254.68c2.37-1.46,7.38-3.2,15.14,0.56"/>
			<path class="st10" d="M391.05,253.76c-2.37,0.88-3.54,2.21-3.54,2.21"/>
			<g>
				<path class="st10" d="M349.48,324.91c0,0-5.24,3.05-3.18,11.28"/>
				<path class="st10" d="M351.86,324.91c0,0,4.83,3.05,2.77,11.28"/>
				<line class="st10" x1="350.67" y1="325.05" x2="350.67" y2="334.36"/>
			</g>
			<g>
				<g>
					<path class="st11" d="M414.98,277.59c0,2.87-2.34,5.19-5.2,5.19c-0.4,0-0.78-0.04-1.14-0.13c0.75-2.5,1.14-5.15,1.14-7.88
						v-2.38C412.64,272.38,414.98,274.71,414.98,277.59z"/>
					<path class="st11" d="M414.98,287.98c0,2.87-2.34,5.19-5.2,5.19c-2.06,0-3.86-1.21-4.68-2.97c1.48-2.22,2.66-4.66,3.45-7.28
						c0.39-0.1,0.8-0.15,1.23-0.15C412.64,282.78,414.98,285.1,414.98,287.98z"/>
					<path class="st11" d="M414.97,298.37c0,2.87-2.33,5.2-5.2,5.2c-2.87,0-5.2-2.33-5.2-5.2c0-2.87,2.33-5.2,5.2-5.2
						C412.64,293.17,414.97,295.5,414.97,298.37z"/>
					<path class="st11" d="M414.97,308.76c0,2.87-2.33,5.2-5.2,5.2c-2.87,0-5.2-2.33-5.2-5.2c0-2.87,2.33-5.2,5.2-5.2
						C412.64,303.57,414.97,305.89,414.97,308.76z"/>
					<path class="st11" d="M414.97,319.16c0,2.87-2.33,5.2-5.2,5.2c-2.87,0-5.2-2.33-5.2-5.2c0-2.87,2.33-5.2,5.2-5.2
						C412.64,313.96,414.97,316.29,414.97,319.16z"/>
				</g>
				<g>
					<path class="st10" d="M408.77,324.35c0,0-5.24,3.05-3.18,11.28"/>
					<path class="st10" d="M411.16,324.35c0,0,4.83,3.05,2.77,11.28"/>
					<line class="st10" x1="409.96" y1="324.5" x2="409.96" y2="333.8"/>
				</g>
			</g>
			<path class="st10" d="M380.91,238.13c0,0,8.37,10.12,24.2,12.2"/>
			<path class="st10" d="M391.05,238.13c0,0,6.76,5.66,13.53,6.1"/>
		</g>
		<g>
			<g>
				<g>
					<g>
						<path class="st11" d="M302.84,308.52l-18.4,88.45h-13.76l-18.29-88.42c0.64-0.05,1.32-0.06,1.99-0.06h17.29v-6.32h12.43
							c0,0,0.01,0,0.03,0v6.32h17.31C301.91,308.49,302.38,308.51,302.84,308.52z"/>
						<path class="st11" d="M337.99,345.04v51.94h-53.55l18.4-88.45c0.64,0.02,1.26,0.06,1.89,0.12c1.21,0.1,2.37,0.27,3.52,0.48
							v0.01c1.23,0.22,2.44,0.53,3.64,0.88c1.43,0.42,2.81,0.93,4.17,1.52h0.01c1.24,0.56,2.44,1.16,3.6,1.83
							c3.16,1.81,6.01,4.08,8.46,6.72c0.75,1.04,1.62,2.09,2.6,3.14l0.01,0.01c0.2,0.26,0.4,0.53,0.59,0.79
							C335.54,329.96,337.99,337.2,337.99,345.04z"/>
						<path class="st11" d="M270.68,396.97h-52.84v-51.94c0-7.51,2.25-14.5,6.15-20.29c1.49-1.62,2.75-3.2,3.8-4.75
							c2.41-2.56,5.19-4.78,8.25-6.55c2.47-1.45,5.13-2.6,7.92-3.43c2.28-0.69,4.68-1.16,7.15-1.38h0.02
							c0.42-0.04,0.85-0.07,1.27-0.09L270.68,396.97z"/>
						<path class="st10" d="M227.79,320c-1.05,1.55-2.31,3.13-3.8,4.75c0.2-0.31,0.41-0.61,0.63-0.91
							C225.59,322.48,226.65,321.21,227.79,320z"/>
						<path class="st10" d="M284.13,302.1v0.07c-0.02,0-0.02,0-0.02,0h-0.35C283.9,302.16,284.02,302.13,284.13,302.1z"/>
						<path class="st10" d="M330.74,323.23c-0.98-1.05-1.86-2.1-2.6-3.14C329.07,321.08,329.95,322.13,330.74,323.23z"/>
						<g>
							<line class="st10" x1="271.7" y1="319.73" x2="271.7" y2="308.49"/>
							<line class="st10" x1="284.16" y1="319.73" x2="284.16" y2="308.49"/>
						</g>
					</g>
					<g>
						<line class="st10" x1="251.11" y1="308.64" x2="251.07" y2="308.55"/>
						<line class="st10" x1="304.78" y1="308.55" x2="304.73" y2="308.64"/>
					</g>
				</g>
			</g>
			<path class="st12" d="M328.13,320.08c-2.46-2.64-5.31-4.91-8.46-6.72c-1.15-0.67-2.35-1.27-3.6-1.83h-0.01
				c-1.36-0.59-2.73-1.1-4.17-1.52c-1.2-0.35-2.41-0.66-3.64-0.88v-0.01c-1.15-0.22-2.31-0.38-3.52-0.48
				c-0.63-0.06-1.24-0.1-1.89-0.12c-0.47-0.01-0.94-0.03-1.4-0.03h-17.31v-6.32c0.12-0.01,0.23-0.04,0.34-0.07
				c13.04-2.25,22.96-13.64,22.96-27.34v-2.38c0,0,0,0-0.03,0l-0.07-12.54c1.67-13.81-9.44-17.8-11.4-24.91
				c-2.51-9.12-3.57-13.74-3.96-17.64c0.12-1.98,0.1-4.05-0.06-6.23c0,0-0.44,1.58,0.06,6.23c-0.94,15.54-10.03,23.46-23.45,25.73
				c-4.37,0.75-7.89,2.91-10.7,5.64c-6.93,6.71-9.5,16.75-9.5,16.75v9.35c0,13.82,10.12,25.28,23.33,27.41h0.03v6.32h-17.29
				c-0.67,0-1.35,0.01-1.99,0.06c-0.42,0.01-0.85,0.04-1.27,0.09h-0.02c-2.47,0.22-4.87,0.69-7.15,1.38
				c-2.79,0.83-5.45,1.99-7.92,3.43c-3.05,1.77-5.83,3.99-8.25,6.55c6.87-9.98,5.39-17.82,5.39-17.82v-73.04
				c0-20.19,16.37-36.54,36.54-36.54h16.34c20.19,0,36.54,16.36,36.54,36.54v73.04C322.62,302.18,321.12,310.58,328.13,320.08z"/>
			<path class="st10" d="M248.94,245.41c4.19-5.12,10.08-9.69,18.12-11.05c11.74-1.98,15.46-8.72,16.1-16.89"/>
			<path class="st11" d="M307.33,259.84c1.67-13.81-9.44-17.8-11.4-24.91c-2.51-9.12-3.57-13.74-3.96-17.64
				c-0.94,15.54-10.03,23.46-23.45,25.73c-4.37,0.75-7.89,2.91-10.7,5.64c-6.93,6.71-9.5,16.75-9.5,16.75v9.35
				c0,13.82,10.12,25.28,23.33,27.41h12.12c0.13-0.01,0.25-0.04,0.37-0.07v0.07c0.12-0.01,0.23-0.04,0.34-0.07
				c13.04-2.25,22.96-13.64,22.96-27.34v-2.38c0,0,0,0-0.03,0L307.33,259.84z M264.24,259.76c-1.43,0-2.59-1.15-2.59-2.59
				c0-1.42,1.14-2.59,2.56-2.6c0.01,0,0.01,0,0.01,0h0.06c1.42,0.03,2.56,1.18,2.56,2.6C266.84,258.6,265.67,259.76,264.24,259.76z
				 M291.38,259.76c-1.42,0-2.59-1.15-2.59-2.59c0-1.42,1.15-2.59,2.56-2.6c0,0,0.02,0,0.03,0h0.04c1.42,0.03,2.57,1.18,2.57,2.6
				C294,258.6,292.82,259.76,291.38,259.76z"/>
			<path class="st10" d="M266.05,225.06c0,0,8.17,0.44,9.63-7.58"/>
			<path class="st10" d="M280.03,271.63c0.34,0.54,0.51,1.19,0.46,1.88c-0.14,1.69-1.62,2.95-3.31,2.82
				c-1.69-0.14-2.95-1.62-2.82-3.31c0.05-0.57,0.25-1.09,0.56-1.53"/>
			<path class="st10" d="M270.68,254.89c-1.58-1.01-3.9-1.75-6.4-1.78"/>
			<path class="st10" d="M257.79,254.89c2.02-1.3,4.28-1.8,6.42-1.78"/>
			<path class="st11" d="M266.84,257.17c0,1.43-1.17,2.59-2.6,2.59c-1.43,0-2.59-1.15-2.59-2.59c0-1.42,1.14-2.59,2.56-2.6
				c0.01,0,0.01,0,0.01,0h0.06C265.7,254.6,266.84,255.75,266.84,257.17z"/>
			<path class="st10" d="M297.84,254.89c-1.58-1.01-3.92-1.75-6.42-1.78"/>
			<path class="st10" d="M284.95,254.89c2.02-1.3,4.27-1.8,6.4-1.78"/>
			<path class="st11" d="M294,257.17c0,1.43-1.18,2.59-2.62,2.59c-1.42,0-2.59-1.15-2.59-2.59c0-1.42,1.15-2.59,2.56-2.6
				c0,0,0.02,0,0.03,0h0.04C292.85,254.6,294,255.75,294,257.17z"/>
			<path class="st10" d="M273.63,286.19c0,0,3.09,2.34,7.99,0"/>
			<path class="st10" d="M257.79,248.68c0,0,5.36-3.1,13.91,0"/>
			<path class="st10" d="M283.16,248.68c0,0,5.54-5.36,14.68-0.69"/>
		</g>
	</g>
</g>
<path class="st13" d="M483.98,254.79c1.68-0.38,3.51-0.01,4.91,1"/>
<path class="st13" d="M483.27,251.74c2.34-1.01,5.23-0.63,7.23,0.95"/>
<path class="st13" d="M495.43,274.05c0.31,1.29-0.09,2.73-1.04,3.67"/>
<path class="st13" d="M500.13,272.56c1.07,2.95,0.22,6.44-2,8.65l-0.24,0.24"/>
<g>
	<path class="st3" d="M211.34,205.62c0,7.93,6.43,14.35,14.35,14.35c7.93,0,14.35-6.43,14.35-14.35"/>
	<line class="st3" x1="239.82" y1="205.62" x2="211.56" y2="205.62"/>
</g>
<g>
	<path class="st3" d="M169.77,205.62c0,7.93,6.43,14.35,14.35,14.35c7.93,0,14.35-6.43,14.35-14.35"/>
	<line class="st3" x1="198.25" y1="205.62" x2="169.99" y2="205.62"/>
</g>
<path class="st14" d="M197.87,207.17c0-3.49,3.16-6.31,7.05-6.31c3.9,0,7.05,2.83,7.05,6.31"/>
<line class="st15" x1="230.57" y1="210.58" x2="225.69" y2="215.02"/>
<line class="st15" x1="230.99" y1="208.6" x2="223.94" y2="215.02"/>
<line class="st15" x1="189.37" y1="209.65" x2="182.97" y2="215.47"/>
<line class="st15" x1="189.86" y1="211.2" x2="183.46" y2="217.02"/>
<ellipse class="st9" cx="198.76" cy="207.05" rx="0.28" ry="0.79"/>
<ellipse class="st9" cx="211.56" cy="207.05" rx="0.28" ry="0.79"/>
<line class="st0" x1="133.75" y1="31.62" x2="140.4" y2="40.93"/>
</svg>
