<?xml version="1.0" encoding="utf-8"?>
<!-- Generator: Adobe Illustrator 25.0.1, SVG Export Plug-In . SVG Version: 6.00 Build 0)  -->
<svg version="1.1" id="Layer_1" xmlns="http://www.w3.org/2000/svg" xmlns:xlink="http://www.w3.org/1999/xlink" x="0px" y="0px"
	 viewBox="0 0 579 432" style="enable-background:new 0 0 579 432;" xml:space="preserve">
<style type="text/css">
	.st0{fill:#231F20;}
	.st1{fill:#CF202F;stroke:#000000;stroke-width:0.5;stroke-miterlimit:10;}
	.st2{fill:#E6E7E8;stroke:#000000;stroke-width:0.5;stroke-miterlimit:10;}
	.st3{clip-path:url(#SVGID_2_);}
	.st4{fill:#CF202F;stroke:#231F20;stroke-width:1.5;stroke-linecap:round;stroke-linejoin:round;stroke-miterlimit:10;}
	.st5{fill:none;stroke:#231F20;stroke-width:1.5;stroke-linecap:round;stroke-linejoin:round;stroke-miterlimit:10;}
	.st6{fill:#FFFFFF;stroke:#231F20;stroke-width:1.5;stroke-linecap:round;stroke-linejoin:round;stroke-miterlimit:10;}
	.st7{fill:#CF202F;stroke:#231F20;stroke-width:1.5448;stroke-linecap:round;stroke-linejoin:round;stroke-miterlimit:10;}
	.st8{fill:none;}
	.st9{fill:none;stroke:#231F20;stroke-miterlimit:10;}
	.st10{fill:none;stroke:#FFFFFF;stroke-width:0.75;stroke-linecap:round;stroke-linejoin:round;stroke-miterlimit:10;}
</style>
<path class="st0" d="M459.6,358c-25.3,23.1-62.1,40.8-103.6,51.1c-6.6,1.7-13.4,3.1-20.2,4.3c-18.1,3.3-36.8,5.4-55.7,6
	c-0.1,0-0.4,0-0.5,0c-4.1,0.1-8,0.1-12.1,0.1c-40.9-0.3-81.8-7.4-117.7-23c-7.4-3.2-14.6-6.8-21.5-10.6c-7.9-4.5-15.5-9.5-22.6-14.8
	c-1.5-1.1-8-7-16.7-16.7c-26.2-29.5-71.5-95-55.2-175.4C55.5,71.9,182.3-11.3,260.1,13.4c14.4,4.6,27.5,11.4,39.5,19.4
	c32.7,21.8,57.7,53.1,84.6,75c16.4,13.3,33.3,23.1,53,25.3c5.5,0.6,10.7,2.2,15.7,4.6c9.5,4.5,18.1,11.9,25.7,21.5
	C514.5,204.7,523.6,299.4,459.6,358z"/>
<path class="st0" d="M459.6,358c-25.3,23.1-62.1,40.8-103.6,51.1c-6.6,1.7-13.4,3.1-20.2,4.3c-18.1,3.3-36.8,5.4-55.7,6
	c-0.1,0-0.4,0-0.5,0c-4.1,0.1-8,0.1-12.1,0.1c-40.9-0.3-81.8-7.4-117.7-23c-7.4-3.2-14.6-6.8-21.5-10.6c-7.9-4.5-15.5-9.5-22.6-14.8
	c-1.5-1.1-8-7-16.7-16.7c-26.2-29.5-71.5-95-55.2-175.4C55.5,71.9,182.3-11.3,260.1,13.4c14.4,4.6,27.5,11.4,39.5,19.4
	c32.7,21.8,57.7,53.1,84.6,75c16.4,13.3,33.3,23.1,53,25.3c5.5,0.6,10.7,2.2,15.7,4.6c9.5,4.5,18.1,11.9,25.7,21.5
	C514.5,204.7,523.6,299.4,459.6,358z"/>
<path class="st1" d="M246,21c0,0-91.3,1.8-82.1,48.7c0.7,3.8,1.9,7.3,3.4,10.5l-12.9,19.2l23.4-5.5c25.2,22.1,76.3,18.7,104-1.1
	C305.9,75.8,307.9,20.8,246,21z"/>
<g>
	<path class="st2" d="M204.9,84.8L200,42.4l10.8-1.2l1.8,15.9l13.8-1.6l-1.8-15.8l10.8-1.2l4.8,42.4L229.4,82l-1.9-16.9l-13.8,1.6
		l1.9,16.9L204.9,84.8z"/>
	<path class="st2" d="M243.1,37.5l24-2.7l1.1,9.5l-13.2,1.5l0.8,6.6l12.7-1.5l1.1,9.5L257,61.8l0.8,7.3l13.2-1.5l1.1,9.5l-24,2.7
		L243.1,37.5z"/>
	<path class="st2" d="M273.6,34l10.8-1.2l3.7,32.8l12.5-1.4l1.1,9.5l-23.3,2.7L273.6,34z"/>
	<path class="st2" d="M301.4,30.8l10.8-1.2l3.7,32.8l12.5-1.4l1.1,9.5l-23.3,2.7L301.4,30.8z"/>
	<path class="st2" d="M327.3,49.7c-1.6-13.8,8.1-23.6,19.7-24.9c13-1.5,23.6,7.7,24.8,19.3c1.2,11.6-6.7,23-19.9,24.5
		C338.7,70.2,328.7,60.6,327.3,49.7L327.3,49.7z M338.1,47.9c0.7,6.4,5.9,12.1,13.2,11.2c7.7-0.8,10.6-8.2,10-13.7
		c-0.7-5.5-5.2-12.1-12.9-11.2C340.7,35.1,337.5,42,338.1,47.9L338.1,47.9z"/>
	<path class="st2" d="M389.1,49.4l-9.7,1.1l-3.3-28.4l9.7-1.1L389.1,49.4z M390.8,63.4l-9.7,1.1l-1.1-9.7l9.7-1.1L390.8,63.4z"/>
</g>
<g>
	<g>
		<defs>
			<path id="SVGID_1_" d="M459.2,358.1c-25.3,23.1-62.1,40.8-103.6,51.1c-6.6,1.7-13.4,3.1-20.2,4.3c-18.1,3.3-36.8,5.4-55.7,6
				c-0.1,0-0.4,0-0.5,0c-4.1,0.1-8,0.1-12.1,0.1c-40.9-0.3-81.8-7.4-117.7-23c-7.4-3.2-14.6-6.8-21.5-10.6
				c-7.9-4.5-15.5-9.5-22.6-14.8c-1.5-1.1-8-7-16.7-16.7c-26.2-29.5-71.5-95.1-55.2-175.4C55.2,72,182-11.2,259.8,13.5
				c14.4,4.6,27.5,11.4,39.5,19.4c32.7,21.8,57.7,53.1,84.6,75c16.4,13.3,33.3,23.1,53,25.3c5.5,0.6,10.7,2.2,15.7,4.6
				c9.5,4.5,18.1,11.9,25.7,21.5C514.2,204.8,523.2,299.5,459.2,358.1z"/>
		</defs>
		<clipPath id="SVGID_2_">
			<use xlink:href="#SVGID_1_"  style="overflow:visible;"/>
		</clipPath>
		<g class="st3">
			<g>
				<g>
					<g>
						<path class="st4" d="M256.5,261.3c1.3,2,2,4.4,2,7c0,1.3-0.2,2.5-0.5,3.7c1.8,2.2,2.8,5,2.8,8c0,7.2-5.8,13-13,13
							c-2.4,0-4.6-0.6-6.5-1.8c-0.1,1.8-0.5,3.5-1.2,5c-2,4.5-6.6,7.6-11.8,7.6c-3.8,0-7.3-1.6-9.6-4.3c-0.3-0.3-0.6-0.6-0.8-1
							c0,0-0.1-0.1-0.1-0.1c-0.3,0.5-0.7,1-1.2,1.4c-0.8,0.8-1.7,1.5-2.6,2c-2,1.2-4.3,1.9-6.7,1.9c-2.4,0-4.7-0.7-6.7-1.9
							c-0.3-0.2-0.6-0.4-0.9-0.6c-0.7-0.5-1.3-1-1.9-1.6c-2.3,3.8-6.4,6.3-11.1,6.3c-6.1,0-11.2-4.1-12.6-9.8
							c-0.3-1-0.4-2.1-0.4-3.2c0-1,0.1-2,0.4-3c-1.3,0.5-2.8,0.7-4.3,0.7c-7.2,0-13-5.8-13-13c0-3,1-5.8,2.8-8c-0.7-1.5-1-3.2-1-5
							c0-3.4,1.3-6.6,3.5-8.9c-3.6-1.3-6.3-4.8-6.3-8.9v-1.4c0-0.7,0-1.3,0.2-1.9c0.4-1.8,1.3-3.5,2.6-4.7c1.7-1.7,4.1-2.8,6.7-2.8
							v-10c8.1,3,22.2,6.6,35.5,1.3v7c0,3.6,2.9,6.6,6.6,6.6c3.6,0,6.6-2.9,6.6-6.6V227c13.6,5.4,28.8,1.7,37.2-1.2
							c0,3.8,0,7.3,0,10.3h0.1c7.3,0,13.1,5.9,13.1,13.1C264.3,254.6,261.1,259.3,256.5,261.3z"/>
					</g>
					<g>
						<path class="st5" d="M251.2,180.3c0,1.1,0,4.6,0,9.5"/>
						<path class="st6" d="M251.1,189.8c0,9.5-0.1,24-0.1,35.9c-8.4,2.9-23.6,6.6-37.2,1.2v7.4c0,3.6-2.9,6.6-6.6,6.6
							c-3.6,0-6.6-2.9-6.6-6.6v-7c-13.3,5.2-27.5,1.7-35.5-1.3v-42.7c0,0,4.2-8.2,18.8-9.1c14.5-1,10.7,11.1,29.9,4.6
							c13.5-4.6,24.1-0.9,30.9,4.3C247.5,185.2,249.7,187.6,251.1,189.8z"/>
					</g>
				</g>
				<g>
					<g>
						<path class="st6" d="M296.2,349.4V425H121.3v-75.6c0-11.5,3.6-22.2,9.9-30.8c4.4-6.1,10.1-11.3,16.6-15.1
							c2.1-1.2,4.3-2.3,6.6-3.3c8.7,22.3,30.3,38,55.7,38c24.9,0,46.3-15.3,55.3-37c1.4,0.6,2.8,1.3,4.2,2.1
							c6.7,3.9,12.5,9.2,17,15.5C292.6,327.5,296.2,338,296.2,349.4z"/>
					</g>
					<g>
						<line class="st5" x1="169.8" y1="296.4" x2="169.7" y2="296.3"/>
						<line class="st5" x1="247.8" y1="296.3" x2="247.8" y2="296.4"/>
					</g>
				</g>
				<path class="st6" d="M265.3,301.2c-8.9,21.7-30.3,37-55.3,37c-25.3,0-47-15.8-55.7-38c1.6-0.7,3.3-1.2,5-1.7
					c3.3-1,6.8-1.7,10.4-2c0.6-0.1,1.3-0.1,1.9-0.1c0.8-0.1,1.7-0.1,2.5-0.1c1.4,5.6,6.5,9.8,12.6,9.8c4.7,0,8.8-2.5,11.1-6.3
					c0.6,0.6,1.2,1.1,1.9,1.6c0.3,0.2,0.6,0.4,0.9,0.6c2,1.2,4.2,1.9,6.7,1.9s4.7-0.7,6.7-1.9c1-0.6,1.8-1.3,2.6-2
					c0.4-0.4,0.8-0.9,1.2-1.4c0,0,0,0.1,0.1,0.1c0.2,0.3,0.5,0.7,0.8,1c2.4,2.6,5.8,4.3,9.6,4.3c5.2,0,9.8-3.1,11.8-7.6h2.9
					c1.6,0,3.2,0.1,4.8,0.2h0c1.7,0.1,3.4,0.4,5.1,0.7v0c1.8,0.3,3.6,0.8,5.2,1.3C260.6,299.2,263,300.1,265.3,301.2z"/>
				<line class="st5" x1="217.8" y1="298.4" x2="217.8" y2="316.8"/>
				<line class="st5" x1="199.7" y1="316.8" x2="199.7" y2="301.4"/>
				<path class="st5" d="M199.7,249.3c0,0,7.6,6.7,14.1,0"/>
				<line class="st5" x1="200.7" y1="227.4" x2="200.7" y2="220.8"/>
				<line class="st5" x1="213.8" y1="227" x2="213.8" y2="220.8"/>
				<g>
					<path class="st5" d="M222,212.3c0-5.4,13.2-10.1,16.2,0"/>
					<line class="st5" x1="175.9" y1="197.9" x2="192" y2="197.9"/>
					<path class="st5" d="M222,197.9c0,0,4.2-2.6,6.2-2.6c1.1,0,3,2.7,5.1,3.3c2.3,0.7,4.8-0.7,4.8-0.7"/>
				</g>
				<path class="st4" d="M165.2,183.2c0,0,4.2-7.9,18.8-8.9c14.5-1,10.7,11.1,29.9,4.6c13.5-4.6,24.1-0.9,30.9,4.3
					c2.8,2.2,5,4.6,6.4,6.7c0,0,0,0,0,0.1c0,0,2.3-52.6-9.9-61.5c0,0-12.5,5.5-16.4,7.5c0,0-12.7-17.9-34.5-11.4
					c0,0,4.4,2.9,1.7,15.6c0,0-24.5-14.7-42.8,0.3c0,0,29.4,0,30.9,6.5c0,0-35.8-12.3-39.3,9.2l18.4,8.6L165.2,183.2z"/>
				<path class="st5" d="M200.7,130.5c0,0,11.6,1.6,16.8,11.5"/>
				<path class="st5" d="M238.1,137.6c0,0,7.2,19,6.6,45.5"/>
				<g>
					<path class="st6" d="M260.8,225.1v1.4c0,5.2-4.2,9.4-9.4,9.4v-20.3c2.6,0,5,1,6.7,2.8c0.4,0.4,0.8,0.9,1.2,1.5v0
						c0.6,0.9,1.1,2,1.3,3.1c0,0,0.1,0.1,0.1,0.1C260.7,223.8,260.8,224.4,260.8,225.1z"/>
				</g>
				<g>
					<path class="st6" d="M165.2,215.6v20.3c-5.2,0-9.4-4.2-9.4-9.4V225c0-0.7,0.1-1.3,0.2-1.9c0,0,0-0.1,0.1-0.1
						c0.2-1.1,0.7-2.2,1.3-3.1v0c0.3-0.5,0.7-1,1.2-1.5C160.2,216.7,162.6,215.6,165.2,215.6z"/>
				</g>
				<path class="st5" d="M154.4,300.2c1.6-0.7,3.3-1.2,5-1.7c3.3-1,6.8-1.7,10.4-2c0.6-0.1,1.3-0.1,1.9-0.1c0.8-0.1,1.7-0.1,2.5-0.1
					c1.4,5.6,6.5,9.8,12.6,9.8c4.7,0,8.8-2.5,11.1-6.3c0.6,0.6,1.2,1.1,1.9,1.6c0.3,0.2,0.6,0.4,0.9,0.6c2,1.2,4.2,1.9,6.7,1.9
					s4.7-0.7,6.7-1.9c1-0.6,1.8-1.3,2.6-2c0.4-0.4,0.8-0.9,1.2-1.4c0,0,0,0.1,0.1,0.1c0.2,0.3,0.5,0.7,0.8,1
					c2.4,2.6,5.8,4.3,9.6,4.3c5.2,0,9.8-3.1,11.8-7.6h2.9c1.6,0,3.2,0.1,4.8,0.2h0c1.7,0.1,3.4,0.4,5.1,0.7v0
					c1.8,0.3,3.6,0.8,5.2,1.3c2.5,0.7,4.9,1.6,7.2,2.7"/>
			</g>
			<g>
				<g>
					<g>
						<path class="st6" d="M413.9,286.1v60h-20c-0.4-13-10.4-82.7-12.3-101c0.7,0.2,1.5,0.4,2.2,0.6c9.2,2.7,17.1,8.5,22.5,16.2
							C411,268.7,413.9,277.1,413.9,286.1z"/>
						<path class="st6" d="M307.5,245.1c-2.4,17.2-10.6,88-11.8,101h-20.5v-60c0-9.1,2.9-17.6,7.8-24.5c5.4-7.6,13.2-13.3,22.3-16
							C306,245.4,306.8,245.2,307.5,245.1z"/>
						<path class="st4" d="M393.9,346.1h-98.2c1.2-13,9.5-83.8,11.8-101c0.9-0.2,1.9-0.4,2.9-0.6c2.3-0.4,4.6-0.6,7-0.6h2.2
							c-1.8,3.7-2.8,7.9-2.8,12.2c0,15.4,12.5,27.9,27.9,27.9c15.4,0,27.9-12.5,27.9-27.9c0-4.4-1-8.5-2.8-12.2h1.9
							c3,0,5.8,0.3,8.6,0.9c0.4,0.1,0.8,0.2,1.2,0.3C383.4,263.4,393.5,333,393.9,346.1z"/>
						<path class="st6" d="M372.6,256.1c0,15.4-12.5,27.9-27.9,27.9c-15.4,0-27.9-12.5-27.9-27.9c0-4.4,1-8.5,2.8-12.2h17.7v-7.3
							c1.7,0.3,3.4,0.4,5.2,0.4h4.1c1.7,0,3.4-0.1,5.1-0.4v7.3h18.1C371.6,247.6,372.6,251.8,372.6,256.1z"/>
						<g>
							<line class="st5" x1="337.3" y1="253.5" x2="337.3" y2="243.9"/>
							<line class="st5" x1="351.7" y1="253.5" x2="351.7" y2="243.9"/>
						</g>
					</g>
					<g>
						<path class="st5" d="M378.6,186.1v16.1c0,0,0,0,0,0"/>
						<path class="st6" d="M378.7,186.1V205c0,3.2-0.4,6.2-1.3,9.1c0,0.1-0.1,0.2-0.1,0.3c-0.8,2.7-2,5.2-3.5,7.6h0
							c-0.1,0.3-0.3,0.5-0.5,0.8c-4.9,7.2-12.6,12.4-21.6,13.8c-1.7,0.3-3.4,0.4-5.1,0.4h-4.1c-1.8,0-3.5-0.1-5.2-0.4
							c-8.8-1.4-16.4-6.4-21.3-13.5c-0.3-0.4-0.6-0.8-0.8-1.3c-1.3-2.1-2.3-4.3-3.1-6.6c-0.1-0.1-0.1-0.3-0.1-0.4
							c-1-3.1-1.6-6.4-1.6-9.9v-18.9c0,0,2.3-7.7,11.7-15.7h0c2.5-2.1,5.4-4.2,9-6.2c17.1-9.7,23.2-12.2,24-16.8c0,0,2,10.5,12.9,18
							c2.5,1.7,4.4,3.6,5.9,5.5C379.7,178.3,378.7,186.1,378.7,186.1z"/>
					</g>
					<path class="st6" d="M310.4,186.1v16.1c-4.1,0-7.5-3.3-7.5-7.5v-1.1c0-0.5,0.1-1,0.1-1.5c0.3-1.5,1-2.8,2-3.8
						C306.5,186.9,308.4,186.1,310.4,186.1z"/>
					<path class="st6" d="M386.1,193.6v1.1c0,4.1-3.3,7.5-7.4,7.5v-16.1c1.8,0,3.4,0.6,4.7,1.7c0.2,0.1,0.4,0.3,0.5,0.5
						c1,1,1.7,2.3,2,3.8C386.1,192.6,386.1,193.1,386.1,193.6z"/>
				</g>
				<path class="st6" d="M416.8,198.2c0,0-4.4,28.5-43,23.8c1.5-2.3,2.6-4.9,3.5-7.6c0.1-0.1,0.1-0.2,0.1-0.3
					c0.9-2.9,1.3-5.9,1.3-9.1v-2.8c4.1,0,7.4-3.4,7.4-7.5v-1.1c0-0.5-0.1-1-0.1-1.5c-0.3-1.5-1-2.8-2-3.8c-0.2-0.2-0.3-0.3-0.5-0.5
					c-1.3-1.1-2.9-1.7-4.7-1.7c0,0,1-7.8-4.7-15.2c-1.5-1.9-3.4-3.8-5.9-5.5c-10.9-7.5-12.9-18-12.9-18c-0.8,4.7-6.9,7.2-24,16.8
					c-3.6,2-6.5,4.1-9,6.2h0c-9.4,8-11.7,15.7-11.7,15.7c-2.1,0-3.9,0.8-5.3,2.2c-1,1-1.7,2.3-2,3.8c-0.1,0.5-0.1,1-0.1,1.5v1.1
					c0,4.2,3.3,7.5,7.5,7.5v2.8c0,3.4,0.5,6.7,1.6,9.9c0,0.1,0.1,0.3,0.1,0.4c0.8,2.3,1.9,4.5,3.1,6.6c-41,2.1-43.5-23.2-43.5-23.2
					c16.2-4.5,21.4-22.7,21.7-32.5c0.1-5.9,0-20.4,0-20.4c0-23.3,18.9-42.2,42.2-42.2h17.8c23.3,0,42.2,18.9,42.2,42.2
					c0,0-0.2,14.4,0,20.4C395.9,175.8,400.1,190.8,416.8,198.2z"/>
				<line class="st5" x1="315.2" y1="221.9" x2="315.2" y2="221.9"/>
				<path class="st5" d="M371.4,189.2c-1.8-6.3-13.4-8.3-17.6,0"/>
				<path class="st5" d="M334.3,189.2c-1.8-6.3-13.4-8.3-17.6,0"/>
				<path class="st5" d="M342.6,194.8v12.7c0,2.2,1.8,4.1,4.1,4.1s4.1-1.8,4.1-4.1v-4.3"/>
				<path class="st5" d="M356.5,220.3c0,0-11,4.9-21,0"/>
				<path class="st5" d="M342.6,135.2c0,14.7-40.2,27.5-38.2,43.1"/>
				<path class="st5" d="M302.9,164.3c0,0,1-8.8,17.8-23.9c7.3-7.3,10.6-12.5,10.6-20"/>
				<path class="st5" d="M334.3,171.9c-5-1-9-1.5-12.2-1.5"/>
				<path class="st5" d="M355.5,171.9c9.1-1.9,14.9-1.7,18.4-1"/>
			</g>
			<g>
				<g>
					<g>
						<path class="st6" d="M63,258.1v16.1c-4.1,0-7.5-3.3-7.5-7.5v-1.1c0-0.5,0.1-1,0.1-1.5c0.3-1.5,1-2.8,2-3.8
							C59.1,258.9,61,258.1,63,258.1z"/>
					</g>
					<g>
						<path class="st6" d="M138.8,265.6v1.1c0,4.2-3.3,7.5-7.5,7.5v-16.1c2.1,0,3.9,0.8,5.3,2.2c1,1,1.7,2.2,2,3.6c0,0,0,0.1,0,0.1
							C138.7,264.5,138.8,265,138.8,265.6z"/>
					</g>
					<g>
						<path class="st6" d="M131.2,274.2v-9.6c-0.2-7.5,0-21.3,0-25.1c-8.4-20.2-16.8-28.6-16.8-28.6S92.6,216,81.9,222
							c-10.2,5.2-16.9,10-18.2,17.5c-0.4,2.1-0.7,4.3-0.7,6.6V277c0,15.9,11.7,29.2,26.9,31.6h14.4c0.1,0,0.3-0.1,0.4-0.1
							c15.1-2.6,26.5-15.7,26.5-31.6L131.2,274.2C131.3,274.2,131.3,274.2,131.2,274.2z M81.3,257.9c-1.7,0-3-1.3-3-3
							c0-1.6,1.3-3,3-3s3,1.3,3,3C84.3,256.5,82.9,257.9,81.3,257.9z M114.3,257.9c-1.7,0-3-1.3-3-3c0-1.6,1.3-3,3-3
							c1.6,0,3,1.3,3,3C117.3,256.5,116,257.9,114.3,257.9z"/>
						<path class="st5" d="M138.6,264.1c0,0,0-0.1,0-0.1"/>
						<path class="st6" d="M153.1,225.9c1.8-2.2,2.9-5,2.9-8c0-4.4-2.2-8.3-5.6-10.5c0.3-1,0.4-2.1,0.4-3.3c0-7-5.7-12.7-12.7-12.7
							c-0.5,0-1.1,0-1.6,0.1c0.3-1,0.4-2,0.4-3.1c0-7-5.7-12.7-12.7-12.7c-2.3,0-4.4,0.6-6.3,1.7c-1-1.3-1.8-2.3-2.4-3.1
							c-2-4.3-6.4-7.2-11.4-7.2c-4.8,0-8.9,2.7-11.1,6.6c-2.3-2.7-5.8-4.5-9.6-4.5c-5.9,0-10.9,4.1-12.3,9.6c-0.1,0-0.3,0-0.4,0
							c-7,0-12.7,5.7-12.7,12.7c0,0,0,0,0,0.1c-6.5,0.5-11.7,5.9-11.7,12.6c0,1.9,0.4,3.7,1.2,5.3c-4.1,2.1-6.9,6.4-6.9,11.3
							c0,2.8,0.9,5.4,2.5,7.5c-3.8,2.2-6.3,6.3-6.3,10.9c0,7,5.7,12.7,12.7,12.7c2.3,0,4.4-0.6,6.3-1.7v14c0.3-1.5,1-2.8,2-3.8
							c1.3-1.4,3.2-2.2,5.3-2.2v-12c0-2.3,0.2-4.5,0.7-6.6c1.3-7.5,8-12.3,18.2-17.5c10.7-5.9,32.5-11.1,32.5-11.1
							s8.5,8.4,16.8,28.6c0,3.8-0.2,17.6,0,25.1v-6.5c0,0,0,0,0,0c2.1,0,3.9,0.8,5.3,2.2c1,1,1.7,2.2,2,3.6c0-1.1,0.2-8.4,0.3-17.4
							c1.8,0.9,3.7,1.4,5.8,1.4c7,0,12.7-5.7,12.7-12.7C157.4,231.6,155.7,228.2,153.1,225.9z M121.2,208.3c0.3,0.5,5.7,9.4,7.7,15
							L121.2,208.3z"/>
					</g>
				</g>
				<g>
					<path class="st5" d="M93.5,264.1v12.7c0,2.2,1.8,4.1,4.1,4.1c2.2,0,4.1-1.8,4.1-4.1v-12.7"/>
					<path class="st5" d="M89.2,289.6c0,0,7.2,7.6,16.7,0"/>
					<g>
						<g>
							<path class="st6" d="M84.3,254.9c0,1.6-1.3,3-3,3c-1.7,0-3-1.3-3-3c0-1.6,1.3-3,3-3S84.3,253.2,84.3,254.9z"/>
							<path class="st5" d="M73.2,254.9c0,0,4.5-6,15.3-1.3"/>
						</g>
						<g>
							<path class="st6" d="M117.3,254.9c0,1.6-1.3,3-3,3c-1.7,0-3-1.3-3-3c0-1.6,1.3-3,3-3C116,251.9,117.3,253.2,117.3,254.9z"/>
							<path class="st5" d="M106.7,254.9c0,0,4.5-6,15.3-1.3"/>
						</g>
					</g>
					<g>
						<line class="st5" x1="115" y1="236.7" x2="122.6" y2="240.4"/>
						<path class="st5" d="M72.6,243.1c0,0,5.2-3.7,7.6-4.6"/>
					</g>
				</g>
				<path class="st5" d="M62.4,214.9c0,0-0.5-7.9,3.8-11.1c3.6-2.6,4.1-3.1,7.9-7.2"/>
				<g>
					<g>
						<path class="st6" d="M128.5,316l-24.6,102H91.3L66.6,316c0.5-0.1,1-0.1,1.5-0.1c0.8-0.1,1.5-0.1,2.3-0.1h20v-7.3h13.9
							c0.1,0,0.3-0.1,0.4-0.1v7.4h20C126,315.9,127.3,315.9,128.5,316z"/>
						<path class="st4" d="M91.3,418H80.5L62.1,351l4.5-5.9l-17.4-23.5c2.8-1.7,5.9-3,9.1-4c2.6-0.8,5.4-1.3,8.3-1.6L91.3,418z"/>
						<path class="st6" d="M80.5,418H28.2v-60c0-9.1,2.9-17.6,7.8-24.5c3.5-4.9,8-9,13.2-12l17.4,23.5l-4.5,5.9L80.5,418z"/>
						<path class="st6" d="M166.9,358.1v60h-52.5l18.3-67.1l-4.5-5.9l17.6-23.6c5.3,3.1,10,7.3,13.5,12.3
							C164.1,340.7,166.9,349,166.9,358.1z"/>
						<path class="st4" d="M128.2,345.1l4.5,5.9L114.4,418h-10.5l24.6-102c1.4,0.1,2.7,0.3,4.1,0.6v0c1.4,0.3,2.8,0.6,4.2,1
							c3.2,0.9,6.2,2.2,9,3.9L128.2,345.1z"/>
						<g>
							<line class="st5" x1="90.4" y1="328.9" x2="90.4" y2="315.9"/>
							<line class="st5" x1="104.8" y1="328.9" x2="104.8" y2="315.9"/>
						</g>
					</g>
					<g>
						<line class="st5" x1="66.6" y1="316" x2="66.6" y2="316"/>
						<line class="st5" x1="128.6" y1="316" x2="128.5" y2="316"/>
					</g>
				</g>
			</g>
			<g>
				<path class="st5" d="M437.4,243.8c0,2-1.6,3.6-3.6,3.6c-2,0-3.6-1.6-3.6-3.6c0-1.2,0.6-2.3,1.6-3c0,0,0,0,0,0
					c0.5-0.4,1.2-0.6,2-0.6c0.3,0,0.6,0,0.9,0.1h0C436.2,240.7,437.4,242.2,437.4,243.8z"/>
				<path class="st5" d="M479.2,243.8c0,2-1.6,3.6-3.6,3.6s-3.6-1.6-3.6-3.6c0-1.2,0.6-2.3,1.6-3c0,0,0,0,0,0c0.5-0.4,1.2-0.6,2-0.6
					c0.3,0,0.6,0,0.9,0.1h0C478,240.7,479.2,242.2,479.2,243.8z"/>
				<g>
					<path class="st6" d="M479.2,318.7c0,13.2-10.7,23.8-23.8,23.9c0,0,0,0,0,0c0,0,0,0,0,0c-13.2,0-23.8-10.7-23.8-23.9
						c0-4.2,1.1-8.2,3-11.6h12.1v-8.8c2,0.3,4.1,0.5,6.2,0.5h5c2.1,0,4.2-0.2,6.2-0.5v8.8h12.2C478.1,310.5,479.2,314.5,479.2,318.7
						z"/>
					<path class="st4" d="M526.5,430.5H385.3c0,0-3.4-70.5,12.9-84.6c17.1-10.8,15.9-38.2,15.9-38.2c2.7-0.5,5.6-0.7,8.4-0.7h12
						c-1.9,3.4-3,7.4-3,11.6c0,13.2,10.7,23.8,23.8,23.9h0c13.2,0,23.8-10.7,23.8-23.9c0-4.2-1.1-8.2-3-11.6h12
						c3.6,0,12,3.4,13.4,7.7c0,0-7.5,26.3,9.7,37.2C527.5,366.1,526.5,430.5,526.5,430.5z"/>
					<path class="st6" d="M404.7,347.6c-16.3,14.1-19.4,82.9-19.4,82.9h-13.8v-72.5c0-11,3.5-21.3,9.5-29.6c6.5-9.1,15.9-16,27-19.3
						c2-0.6,4.1-1.1,6.2-1.4C414.1,307.8,421.8,336.8,404.7,347.6z"/>
					<g>
						<line class="st5" x1="446.6" y1="318.7" x2="446.6" y2="307.1"/>
						<line class="st5" x1="464" y1="318.7" x2="464" y2="307.1"/>
					</g>
				</g>
				<g>
					<path class="st6" d="M496.5,256.7v-19.5c-0.9-0.1-1.7-0.2-2.5-0.4c-1.1-0.2-2.2-0.3-3.2-0.6c-1.1-0.2-2.2-0.4-3.3-0.6
						c-2-0.4-3.9-0.9-5.8-1.3c-0.9-0.2-1.8-0.5-2.7-0.7c-0.2,0-0.3-0.1-0.5-0.1c-0.8-0.2-1.6-0.5-2.4-0.7c-1-0.3-2-0.6-3-1
						c-0.7-0.2-1.3-0.5-2-0.7c-0.2-0.1-0.5-0.2-0.7-0.3c0,0-0.1,0-0.1,0c-0.9-0.3-1.7-0.7-2.5-1c0,0,0,0,0,0
						c-0.9-0.4-1.7-0.7-2.5-1.1c-0.8-0.4-1.6-0.7-2.3-1.1c-0.8-0.4-1.5-0.8-2.2-1.2c-1.5-0.8-2.9-1.7-4.2-2.5
						c-0.6-0.4-1.1-0.7-1.6-1.1c-0.8-0.6-1.6-1.2-2.3-1.8c-0.5-0.4-1.1-0.9-1.6-1.3c-1.3-1.1-2.4-2.2-3.4-3.3
						c-0.5-0.5-0.9-1-1.3-1.5c-1.3-1.6-2.3-3-3.2-4.4c-0.2-0.4-0.5-0.8-0.7-1.2c-0.2-0.4-0.5-0.9-0.6-1.3c-0.1-0.2-0.2-0.4-0.3-0.6
						c-0.2-0.4-0.4-0.8-0.5-1.1c-0.3-0.7-0.6-1.4-0.8-2c-0.1-0.3-0.2-0.5-0.2-0.8c-0.1-0.2-0.1-0.3-0.1-0.5c0-0.2-0.1-0.4-0.1-0.5
						c0-0.2-0.1-0.4-0.1-0.6c0-0.1,0-0.3-0.1-0.4c0-0.2,0-0.3,0-0.3c-0.2,1.1-0.5,2.1-0.7,3.1c-2.5,10.8-6.2,18.1-10,23.1
						c-0.2,0.2-0.3,0.5-0.5,0.7c-0.5,0.7-1.1,1.3-1.6,1.9c-0.5,0.6-1.1,1.1-1.6,1.6c-0.3,0.2-0.5,0.5-0.8,0.7c0,0,0,0,0,0
						c-0.8,0.6-1.5,1.2-2.2,1.7c0,0,0,0,0,0c-0.3,0.2-0.6,0.5-1,0.6c-0.3,0.2-0.6,0.4-0.9,0.6c-0.3,0.2-0.6,0.3-0.9,0.5
						c-0.3,0.2-0.6,0.3-0.8,0.4c-0.4,0.2-0.8,0.3-1.1,0.5c-0.4,0.1-0.7,0.3-1,0.4c-0.4,0.1-0.8,0.2-1.1,0.3c-0.2,0-0.3,0.1-0.4,0.1
						c-0.5,0.1-0.8,0.1-0.8,0.1V260c0,4.2,0.6,8.2,1.9,11.9c0,0.2,0.1,0.3,0.2,0.5c1.2,3.4,2.8,6.6,4.8,9.5
						c5.9,8.5,15.1,14.6,25.7,16.3c2,0.3,4.1,0.5,6.2,0.5h5c2.1,0,4.2-0.2,6.2-0.5c10.8-1.7,20.2-7.9,26-16.7
						c2.1-3.1,3.7-6.5,4.8-10.2c0.1-0.1,0.1-0.3,0.1-0.4c1-3.5,1.6-7.2,1.6-11L496.5,256.7C496.6,256.7,496.6,256.7,496.5,256.7z
						 M433.8,247.4c-2,0-3.6-1.6-3.6-3.6c0-1.2,0.6-2.3,1.6-3c0,0,0,0,0,0c0.5-0.4,1.2-0.6,2-0.6c0.3,0,0.6,0,0.9,0.1h0
						c1.5,0.4,2.7,1.8,2.7,3.5C437.4,245.8,435.7,247.4,433.8,247.4z M475.6,247.4c-2,0-3.6-1.6-3.6-3.6c0-1.2,0.6-2.3,1.6-3
						c0,0,0,0,0,0c0.5-0.4,1.2-0.6,2-0.6c0.3,0,0.6,0,0.9,0.1h0c1.5,0.4,2.7,1.8,2.7,3.5C479.2,245.8,477.6,247.4,475.6,247.4z"/>
					<path class="st6" d="M416,272c-0.6,0.2-1.2,0.2-1.9,0.2c-4,0-7.3-3.2-7.3-7.3c0-4,3.2-7.2,7.2-7.2v2.3
						C414.1,264.2,414.7,268.2,416,272z"/>
					<path class="st6" d="M420.9,282c-1,2.8-3.7,4.7-6.8,4.7c-4,0-7.3-3.2-7.3-7.3c0-4,3.3-7.2,7.3-7.2c0.7,0,1.4,0.1,2,0.3
						C417.3,275.9,418.9,279.1,420.9,282z"/>
					<path class="st6" d="M421.4,293.9c0,4-3.2,7.2-7.2,7.2c-4,0-7.2-3.2-7.2-7.2c0-4,3.2-7.2,7.2-7.2
						C418.1,286.7,421.4,289.9,421.4,293.9z"/>
					<path class="st6" d="M421.4,308.4c0,4-3.2,7.2-7.2,7.2c-4,0-7.2-3.2-7.2-7.2c0-4,3.2-7.2,7.2-7.2
						C418.1,301.2,421.4,304.5,421.4,308.4z"/>
					<path class="st6" d="M421.4,322.9c0,4-3.2,7.2-7.2,7.2c-4,0-7.2-3.2-7.2-7.2c0-4,3.2-7.2,7.2-7.2
						C418.1,315.7,421.4,318.9,421.4,322.9z"/>
				</g>
				<path class="st5" d="M459.7,255.7c0.5,0.7,0.8,1.6,0.8,2.6c0,2.4-1.9,4.3-4.3,4.3c-2.4,0-4.3-1.9-4.3-4.3c0-0.8,0.2-1.6,0.6-2.2
					"/>
				<path class="st6" d="M414.1,237.3v19.5c-5,0-9-4-9-9.1v-1.4c0-0.6,0.1-1.2,0.2-1.8c0.4-1.8,1.2-3.3,2.5-4.5
					C409.3,238.3,411.6,237.3,414.1,237.3z"/>
				<path class="st6" d="M505.6,246.3v1.4c0,5-4,9-9,9.1v-19.5c2.2,0,4.1,0.8,5.7,2.1c0.2,0.2,0.4,0.4,0.6,0.6
					c1.2,1.2,2.1,2.8,2.5,4.6C505.5,245.1,505.6,245.7,505.6,246.3z"/>
				<path class="st6" d="M439.6,163V201c-0.2,1.1-0.5,2.1-0.7,3.1c-2.5,10.8-6.2,18.1-10,23.1c-0.2,0.2-0.3,0.5-0.5,0.7
					c-0.5,0.7-1.1,1.3-1.6,1.9c-0.5,0.6-1.1,1.1-1.6,1.6c-0.3,0.2-0.5,0.5-0.8,0.7c0,0,0,0,0,0c-1.3,0.8-2,1.5-2.2,1.7c0,0,0,0,0,0
					c-0.3,0.2-0.6,0.5-1,0.6c-0.3,0.2-0.6,0.4-0.9,0.6c-0.3,0.2-0.6,0.3-0.9,0.5c-0.3,0.2-0.6,0.3-0.8,0.4c-0.4,0.2-0.8,0.3-1.1,0.5
					c-0.4,0.1-0.7,0.3-1,0.4c-0.4,0.1-0.8,0.2-1.1,0.3c-0.2,0-0.3,0.1-0.4,0.1c-0.5,0.1-0.8,0.1-0.8,0.1c-2.5,0-4.8,1-6.4,2.7v-37.1
					C407.7,183.4,421.3,167.1,439.6,163z"/>
				<path class="st5" d="M424.4,232.1c-0.8,0.6-1.5,1.2-2.2,1.7C422.4,233.6,423.1,232.8,424.4,232.1z"/>
				<path class="st6" d="M502.3,202.8v36.5c-1.6-1.3-3.5-2-5.7-2.1c0,0,0,0,0,0c-0.9-0.1-1.7-0.2-2.5-0.4c-1.1-0.2-2.2-0.3-3.2-0.6
					c-1.1-0.2-2.2-0.4-3.3-0.6c-2-0.4-3.9-0.9-5.8-1.3c-0.9-0.2-1.8-0.5-2.7-0.7c-0.2,0-0.3-0.1-0.5-0.1c-0.8-0.2-1.6-0.5-2.4-0.7
					c-1-0.3-2-0.6-3-1c-0.7-0.2-1.3-0.5-2-0.7c-0.2-0.1-0.5-0.2-0.7-0.3c0,0-0.1,0-0.1,0c-0.9-0.3-1.7-0.7-2.5-1c0,0,0,0,0,0
					c-0.9-0.4-1.7-0.7-2.5-1.1c-0.8-0.4-1.6-0.8-2.3-1.1s-1.5-0.8-2.2-1.2c-1.5-0.8-2.9-1.7-4.2-2.5c-0.6-0.4-1.1-0.7-1.6-1.1
					c-0.8-0.6-1.6-1.2-2.3-1.8c-0.5-0.4-1.1-0.9-1.6-1.3c-1.3-1.1-2.4-2.2-3.4-3.3c-0.5-0.5-0.9-1-1.3-1.5c-1.3-1.6-2.3-3-3.2-4.4
					c-0.2-0.4-0.5-0.8-0.7-1.2c-0.2-0.4-0.5-0.9-0.6-1.3c-0.1-0.2-0.2-0.4-0.3-0.6c-0.2-0.4-0.4-0.8-0.5-1.1c-0.3-0.7-0.6-1.4-0.8-2
					c-0.1-0.3-0.2-0.5-0.2-0.8c-0.1-0.2-0.1-0.3-0.1-0.5c0-0.2-0.1-0.4-0.1-0.5c0-0.2-0.1-0.4-0.1-0.6c0-0.1,0-0.3-0.1-0.4
					c0-0.2,0-0.3,0-0.3V163c0.9-0.2,1.7-0.4,2.6-0.5c2.1-0.3,4.2-0.5,6.3-0.5h13C484,162,502.3,180.3,502.3,202.8z"/>
				<g>
					<g>
						<path class="st5" d="M443.7,244c-3.5-2.7-6.6-3.6-9-3.6"/>
						<path class="st5" d="M434.7,240.4c-1.1,0-2,0.2-2.9,0.5"/>
						<path class="st5" d="M431.8,240.8c-3.1,1-4.7,3.2-4.7,3.2"/>
						<path class="st6" d="M437.4,243.8c0,2-1.6,3.6-3.6,3.6c-2,0-3.6-1.6-3.6-3.6c0-1.2,0.6-2.3,1.6-3c0,0,0,0,0,0
							c0.5-0.4,1.2-0.6,2-0.6c0.3,0,0.6,0,0.9,0.1h0C436.2,240.7,437.4,242.2,437.4,243.8z"/>
					</g>
					<g>
						<path class="st5" d="M485.5,244c-3.5-2.7-6.6-3.6-9-3.6"/>
						<path class="st5" d="M476.5,240.4c-1.1,0-2,0.2-2.9,0.5"/>
						<path class="st5" d="M473.6,240.8c-3.1,1-4.7,3.2-4.7,3.2"/>
						<path class="st6" d="M479.2,243.8c0,2-1.6,3.6-3.6,3.6s-3.6-1.6-3.6-3.6c0-1.2,0.6-2.3,1.6-3c0,0,0,0,0,0
							c0.5-0.4,1.2-0.6,2-0.6c0.3,0,0.6,0,0.9,0.1h0C478,240.7,479.2,242.2,479.2,243.8z"/>
					</g>
				</g>
				<path class="st5" d="M443,272.4c0,0-4.1,5.3,2.5,6.5c6.6,1.2,30.1,2.4,24.5-6.5"/>
				<path class="st5" d="M424.4,232c3.3-2,10.3-4.5,21.1,0.8"/>
				<path class="st5" d="M470.4,230.7c-3.3,1.2-4.9,3.1-4.9,3.1"/>
				<g>
					<path class="st5" d="M412.4,330c0,0-7.3,4.3-4.4,15.7"/>
					<path class="st5" d="M415.8,330c0,0,6.7,4.3,3.9,15.7"/>
					<line class="st5" x1="414.1" y1="330.2" x2="414.1" y2="343.2"/>
				</g>
				<g>
					<g>
						<path class="st6" d="M503.8,264c0,4-3.3,7.2-7.3,7.2c-0.6,0-1.1-0.1-1.6-0.2c1-3.5,1.6-7.2,1.6-11v-3.3
							C500.6,256.7,503.8,260,503.8,264z"/>
						<path class="st6" d="M503.8,278.5c0,4-3.3,7.2-7.3,7.2c-2.9,0-5.4-1.7-6.5-4.1c2.1-3.1,3.7-6.5,4.8-10.2
							c0.5-0.1,1.1-0.2,1.7-0.2C500.6,271.2,503.8,274.5,503.8,278.5z"/>
						<path class="st6" d="M503.8,293c0,4-3.2,7.2-7.2,7.2s-7.2-3.2-7.2-7.2c0-4,3.2-7.2,7.2-7.2C500.6,285.7,503.8,289,503.8,293z"
							/>
						<path class="st6" d="M503.8,307.5c0,4-3.2,7.2-7.2,7.2s-7.2-3.2-7.2-7.2c0-4,3.2-7.2,7.2-7.2
							C500.6,300.2,503.8,303.5,503.8,307.5z"/>
						<path class="st6" d="M503.8,322c0,4-3.2,7.2-7.2,7.2s-7.2-3.2-7.2-7.2c0-4,3.2-7.2,7.2-7.2C500.6,314.7,503.8,318,503.8,322z"
							/>
					</g>
					<g>
						<path class="st5" d="M495.2,329.2c0,0-7.3,4.3-4.4,15.7"/>
						<path class="st5" d="M498.5,329.2c0,0,6.7,4.3,3.9,15.7"/>
						<line class="st5" x1="496.8" y1="329.4" x2="496.8" y2="342.4"/>
					</g>
				</g>
				<path class="st5" d="M456.3,208.9c0,0,11.7,14.1,33.8,17"/>
				<path class="st5" d="M470.4,208.9c0,0,9.4,7.9,18.9,8.5"/>
			</g>
			<g>
				<g>
					<g>
						<g>
							<path class="st6" d="M338.7,345.3l-21.3,102.1h-15.9l-21.1-102.1c0.7-0.1,1.5-0.1,2.3-0.1h20V338H317c0,0,0,0,0,0v7.3h20
								C337.6,345.3,338.1,345.3,338.7,345.3z"/>
							<path class="st6" d="M379.3,387.5v60h-61.8l21.3-102.1c0.7,0,1.5,0.1,2.2,0.1c1.4,0.1,2.7,0.3,4.1,0.6v0
								c1.4,0.3,2.8,0.6,4.2,1c1.7,0.5,3.2,1.1,4.8,1.8h0c1.4,0.6,2.8,1.3,4.2,2.1c3.6,2.1,6.9,4.7,9.8,7.8c0.9,1.2,1.9,2.4,3,3.6
								l0,0c0.2,0.3,0.5,0.6,0.7,0.9C376.4,370.1,379.3,378.4,379.3,387.5z"/>
							<path class="st6" d="M301.5,447.4h-61v-60c0-8.7,2.6-16.7,7.1-23.4c1.7-1.9,3.2-3.7,4.4-5.5c2.8-3,6-5.5,9.5-7.6
								c2.8-1.7,5.9-3,9.1-4c2.6-0.8,5.4-1.3,8.2-1.6h0c0.5-0.1,1-0.1,1.5-0.1L301.5,447.4z"/>
							<path class="st5" d="M252,358.6c-1.2,1.8-2.7,3.6-4.4,5.5c0.2-0.4,0.5-0.7,0.7-1C249.5,361.4,250.7,360,252,358.6z"/>
							<path class="st5" d="M317.1,337.9L317.1,337.9C317.1,338,317.1,338,317.1,337.9l-0.4,0.1C316.8,338,316.9,337.9,317.1,337.9z
								"/>
							<path class="st5" d="M370.9,362.3c-1.1-1.2-2.1-2.4-3-3.6C369,359.8,370,361,370.9,362.3z"/>
							<g>
								<line class="st5" x1="302.7" y1="358.3" x2="302.7" y2="345.3"/>
								<line class="st5" x1="317.1" y1="358.3" x2="317.1" y2="345.3"/>
							</g>
						</g>
						<g>
							<line class="st5" x1="279" y1="345.4" x2="278.9" y2="345.4"/>
							<line class="st5" x1="340.9" y1="345.4" x2="340.9" y2="345.4"/>
						</g>
					</g>
				</g>
				<path class="st7" d="M367.9,358.7c-2.8-3.1-6.1-5.7-9.8-7.8c-1.3-0.8-2.7-1.5-4.2-2.1h0c-1.6-0.7-3.2-1.3-4.8-1.8
					c-1.4-0.4-2.8-0.8-4.2-1v0c-1.3-0.2-2.7-0.4-4.1-0.6c-0.7-0.1-1.4-0.1-2.2-0.1c-0.5,0-1.1,0-1.6,0h-20V338
					c0.1,0,0.3-0.1,0.4-0.1c15.1-2.6,26.5-15.7,26.5-31.6v-2.8c0,0,0,0,0,0l-0.1-14.5c1.9-15.9-10.9-20.6-13.2-28.8
					c-2.9-10.5-4.1-15.9-4.6-20.4c0.1-2.3,0.1-4.7-0.1-7.2c0,0-0.5,1.8,0.1,7.2c-1.1,17.9-11.6,27.1-27.1,29.7
					c-5,0.9-9.1,3.4-12.3,6.5c-8,7.7-11,19.3-11,19.3v10.8c0,15.9,11.7,29.2,26.9,31.6h0v7.3h-20c-0.8,0-1.6,0-2.3,0.1
					c-0.5,0-1,0.1-1.5,0.1h0c-2.8,0.3-5.6,0.8-8.2,1.6c-3.2,1-6.3,2.3-9.1,4c-3.5,2-6.7,4.6-9.5,7.6c7.9-11.5,6.2-20.6,6.2-20.6
					v-84.3c0-23.3,18.9-42.2,42.2-42.2h18.9c23.3,0,42.2,18.9,42.2,42.2v84.3C361.5,338,359.8,347.7,367.9,358.7z"/>
				<path class="st5" d="M276.4,272.5c4.8-5.9,11.6-11.2,20.9-12.8c13.5-2.3,17.9-10.1,18.6-19.5"/>
				<path class="st6" d="M343.9,289.1c1.9-15.9-10.9-20.6-13.2-28.8c-2.9-10.5-4.1-15.9-4.6-20.4c-1.1,17.9-11.6,27.1-27.1,29.7
					c-5,0.9-9.1,3.4-12.3,6.5c-8,7.7-11,19.3-11,19.3v10.8c0,15.9,11.7,29.2,26.9,31.6h14c0.1,0,0.3-0.1,0.4-0.1v0.1
					c0.1,0,0.3-0.1,0.4-0.1c15.1-2.6,26.5-15.7,26.5-31.6v-2.8c0,0,0,0,0,0L343.9,289.1z M294.1,289c-1.6,0-3-1.3-3-3
					c0-1.6,1.3-3,3-3c0,0,0,0,0,0h0.1c1.6,0,3,1.4,3,3C297.1,287.7,295.8,289,294.1,289z M325.5,289c-1.6,0-3-1.3-3-3
					c0-1.6,1.3-3,3-3c0,0,0,0,0,0h0.1c1.6,0,3,1.4,3,3C328.5,287.7,327.1,289,325.5,289z"/>
				<path class="st5" d="M296.2,249c0,0,9.4,0.5,11.1-8.8"/>
				<path class="st5" d="M312.3,302.7c0.4,0.6,0.6,1.4,0.5,2.2c-0.2,2-1.9,3.4-3.8,3.2c-2-0.2-3.4-1.9-3.2-3.8
					c0.1-0.7,0.3-1.3,0.6-1.8"/>
				<path class="st5" d="M301.5,283.4c-1.8-1.2-4.5-2-7.4-2.1"/>
				<path class="st5" d="M286.7,283.4c2.3-1.5,4.9-2.1,7.4-2.1"/>
				<path class="st6" d="M297.1,286c0,1.6-1.3,3-3,3c-1.6,0-3-1.3-3-3c0-1.6,1.3-3,3-3c0,0,0,0,0,0h0.1
					C295.8,283.1,297.1,284.4,297.1,286z"/>
				<path class="st5" d="M332.9,283.4c-1.8-1.2-4.5-2-7.4-2.1"/>
				<path class="st5" d="M318,283.4c2.3-1.5,4.9-2.1,7.4-2.1"/>
				<path class="st6" d="M328.5,286c0,1.6-1.4,3-3,3c-1.6,0-3-1.3-3-3c0-1.6,1.3-3,3-3c0,0,0,0,0,0h0.1
					C327.1,283.1,328.5,284.4,328.5,286z"/>
				<path class="st5" d="M305,319.5c0,0,3.6,2.7,9.2,0"/>
				<path class="st5" d="M286.7,276.2c0,0,6.2-3.6,16.1,0"/>
				<path class="st5" d="M316,276.2c0,0,6.4-6.2,17-0.8"/>
			</g>
		</g>
	</g>
</g>
<g>
	<path class="st0" d="M215,204c0,9.2,7.4,16.6,16.6,16.6c9.2,0,16.6-7.4,16.6-16.6"/>
	<line class="st8" x1="247.9" y1="204" x2="215.3" y2="204"/>
</g>
<g>
	<path class="st0" d="M167,204c0,9.2,7.4,16.6,16.6,16.6c9.2,0,16.6-7.4,16.6-16.6"/>
	<line class="st8" x1="199.9" y1="204" x2="167.3" y2="204"/>
</g>
<path class="st9" d="M199.5,205.8c0-4,3.6-7.3,8.1-7.3c4.5,0,8.1,3.3,8.1,7.3"/>
<line class="st10" x1="237.2" y1="209.8" x2="231.6" y2="214.9"/>
<line class="st10" x1="237.7" y1="207.5" x2="229.6" y2="214.9"/>
<line class="st10" x1="189.7" y1="208.7" x2="182.3" y2="215.4"/>
<line class="st10" x1="190.2" y1="210.5" x2="182.8" y2="217.2"/>
<ellipse class="st4" cx="200.5" cy="205.7" rx="0.3" ry="0.9"/>
<ellipse class="st4" cx="215.3" cy="205.7" rx="0.3" ry="0.9"/>
</svg>
