<?xml version="1.0" encoding="utf-8"?>
<!-- Generator: Adobe Illustrator 25.0.1, SVG Export Plug-In . SVG Version: 6.00 Build 0)  -->
<svg version="1.1" id="Layer_1" xmlns="http://www.w3.org/2000/svg" xmlns:xlink="http://www.w3.org/1999/xlink" x="0px" y="0px"
	 viewBox="0 0 512.84 407.97" style="enable-background:new 0 0 512.84 407.97;" xml:space="preserve">
<style type="text/css">
	.st0{fill:none;stroke:#CF202F;stroke-miterlimit:10;}
	.st1{fill:none;stroke:#CF202F;stroke-miterlimit:10;stroke-dasharray:5.9738,5.9738;}
	.st2{fill:#CF202F;}
	.st3{fill:#231F20;}
	.st4{fill:#FFFFFF;}
	.st5{fill:#E6E7E8;}
	.st6{fill:#FCD9DE;}
	.st7{fill:#FFFFFF;stroke:#231F20;stroke-linecap:round;stroke-linejoin:round;stroke-miterlimit:10;}
	.st8{clip-path:url(#SVGID_2_);}
	.st9{fill:#CF202F;stroke:#231F20;stroke-width:1.5;stroke-linecap:round;stroke-linejoin:round;stroke-miterlimit:10;}
	.st10{fill:none;stroke:#231F20;stroke-width:1.5;stroke-linecap:round;stroke-linejoin:round;stroke-miterlimit:10;}
	.st11{fill:#FFFFFF;stroke:#231F20;stroke-width:1.5;stroke-linecap:round;stroke-linejoin:round;stroke-miterlimit:10;}
	.st12{fill:#CF202F;stroke:#231F20;stroke-width:1.5448;stroke-linecap:round;stroke-linejoin:round;stroke-miterlimit:10;}
	.st13{fill:none;stroke:#231F20;stroke-linecap:round;stroke-linejoin:round;stroke-miterlimit:10;}
</style>
<g>
	<g>
		<path class="st0" d="M400.6,349.57c-0.7,0.7-1.5,1.3-2.2,2"/>
		<path class="st1" d="M393.7,355.37c-20.7,16.4-48.5,28.9-79.5,36.7c-5.5,1.4-11.2,2.6-16.9,3.7c-15.1,2.8-30.8,4.5-46.6,5
			c-0.1,0-0.3,0-0.4,0c-3.4,0.1-6.7,0.1-10.1,0.1c-34.2-0.2-68.4-6.2-98.4-19.2c-6.2-2.7-12.2-5.6-17.9-8.9
			c-6.6-3.7-12.9-7.9-18.9-12.4c-1.2-0.9-6.7-5.8-14-14c-21.9-24.7-59.9-79.5-46.2-146.8c17.9-89.8,124.1-159.5,189.2-138.8
			c12.1,3.8,23,9.5,33,16.2c27.3,18.3,48.4,44.5,70.8,62.8c13.7,11.2,27.9,19.4,44.4,21.2c4.6,0.5,9,1.8,13.2,3.8
			c7.9,3.7,15.2,10,21.5,18c29.2,37.2,37.1,113.2-11.7,162.5"/>
		<path class="st0" d="M403.1,347.17c-0.7,0.7-1.4,1.4-2.2,2.1"/>
		<g>
			
				<rect x="400.03" y="346.42" transform="matrix(0.7517 -0.6595 0.6595 0.7517 -131.1585 350.9701)" class="st2" width="1" height="6.5"/>
		</g>
	</g>
</g>
<path class="st3" d="M394.5,348.26c-20.29,18.55-49.8,32.69-83.1,40.99c-5.33,1.33-10.76,2.46-16.19,3.48
	c-14.55,2.66-29.51,4.3-44.67,4.82c-0.1,0-0.31,0-0.41,0c-3.28,0.1-6.46,0.1-9.73,0.1c-32.79-0.2-65.58-5.94-94.37-18.44
	c-5.94-2.56-11.68-5.43-17.21-8.5c-6.35-3.59-12.4-7.58-18.14-11.89c-1.23-0.92-6.46-5.64-13.42-13.42
	c-21.01-23.67-57.38-76.23-44.26-140.68C70.4,118.74,172.15,52.03,234.55,71.81c11.58,3.69,22.03,9.12,31.66,15.57
	c26.23,17.52,46.31,42.62,67.83,60.15c13.12,10.66,26.74,18.55,42.52,20.29c4.41,0.51,8.61,1.74,12.6,3.69
	c7.58,3.59,14.55,9.53,20.6,17.21C438.56,225.3,445.83,301.23,394.5,348.26z"/>
<g>
	<path class="st4" d="M-524.34,89.45c0,0-5-3.6-9.9,0.5c-4.9,4-1.8,31.5,3.3,35.5c0,0,9.5,1,9-12.8
		C-522.44,99.05-524.34,89.45-524.34,89.45z"/>
	<path class="st5" d="M-437.24,321.35h-9.5c0-0.1,0-0.1-0.1-0.2c-32-0.2-64-5.8-92.1-18c-5.8-2.5-11.4-5.3-16.8-8.3
		c-4.5-33.6-10.8-90.5-4.8-104.4c0.4-0.9,0.8-1.7,1.4-2.2c0-0.1,0.1-0.1,0.1-0.1c2.7-2.6,21-5.9,33.6-7.9l0,0
		c6.7-1.1,11.8-1.7,11.8-1.7l20.7,0.1c0,0,3.8,0.5,9.3,1.5c11.6,2.1,30.5,6.3,35.5,12.6c0.9,1.1,1.9,7.1,2.9,15.9
		c0,0.2,0.1,0.4,0.1,0.6c0.3,2.1,0.5,4.4,0.7,6.8c2,20.9,4.1,51.7,5.5,75.3l0,0c0.1,1.1,0.1,2.3,0.2,3.3c0.3,5.1,0.6,9.9,0.8,14v0.1
		c0.3,5.2,0.5,9.4,0.7,12.4C-437.24,321.15-437.24,321.25-437.24,321.35z"/>
	<polygon class="st6" points="-493.24,151.75 -511.94,152.45 -513.64,178.55 -492.94,178.65 	"/>
	<path class="st3" d="M-513.04,170.15l-12.3,10.1l11.8,10.1l10.3-11.8l8.7,11.8l10.9-10.3l-9.3-9.9
		C-492.94,170.15-501.94,179.65-513.04,170.15z"/>
	<path class="st6" d="M-525.34,100.75c0,0-12.3,52,22.1,56.5s28-62.4,17.6-62.9C-496.04,93.75-523.84,90.95-525.34,100.75z"/>
	<path class="st4" d="M-516.44,94.95c0,0,38.8,11.6,48.1-5.9c10-18.9-13.3-29-24.5-11.3c0,0-35.9-11-37.1,12.6
		C-530.64,103.55-516.44,94.95-516.44,94.95z"/>
	<path class="st6" d="M-525.34,122.75c0,0-4.9-4.2-8.3-1c-3.4,3.2,0.6,14.1,8.3,13C-517.64,133.75-525.34,122.75-525.34,122.75z"/>
	<path class="st4" d="M-530.14,119.75c0,0,1.7,1.3,2.7,5.8c0,0,1.9,0.8,3.3-0.7c1.5-1.5,5.3-20.6,4.6-27.1c-0.8-6.5-10.3-4.8-11.2,3
		C-531.64,108.55-530.14,119.75-530.14,119.75z"/>
	<path class="st6" d="M-481.44,122.75c0,0,4.9-4.2,8.3-1s-0.6,14.1-8.3,13C-489.24,133.75-481.44,122.75-481.44,122.75z"/>
	<path class="st4" d="M-474.94,120.65c0,0-3.2,0.4-4.2,4.8c0,0,0,0.8-1.4-0.7c-1.5-1.5-0.2-21.8,0.6-28.2c0.8-6.5,5.2-3.7,6,4.2
		C-473.04,108.65-474.94,120.65-474.94,120.65z"/>
	<path class="st4" d="M-511.14,91.05c-0.1,0.4-1.6,14.1-11.5,13c-10-1.1-2.1-17.3-2.1-17.3L-511.14,91.05z"/>
	<path class="st4" d="M-485.64,95.55c0,0-0.6,8.9,6,11.2s2.3-14.4,2.3-14.4L-485.64,95.55z"/>
	<path class="st5" d="M-538.84,303.25c-5.8-2.5-11.4-5.3-16.8-8.3c-6.2-3.5-12.1-7.4-17.7-11.6c-1.2-0.9-6.3-5.5-13.1-13.1
		c6.5-29.7,19.7-69.8,26-79.7c0.7-1.2,1.2-2,1.4-2.2c0-0.1,0.1-0.1,0.1-0.1L-538.84,303.25z"/>
</g>
<g>
	<path class="st2" d="M141.33,82.9c0,0-77.9,1.5-70.1,41.6s70.5,41.3,100.6,19.8C192.43,129.6,194.13,82.7,141.33,82.9z"/>
	<polygon class="st2" points="79.73,125.2 63.13,149.9 98.83,141.5 	"/>
</g>
<g>
	<path class="st5" d="M105.63,137.3l-3.6-30.9l7.9-0.9l1.3,11.6l10.1-1.2l-1.3-11.5l7.9-0.9l3.5,30.9l-7.9,0.9l-1.4-12.3l-10.1,1.2
		l1.4,12.3L105.63,137.3z"/>
	<path class="st5" d="M133.53,102.8l17.5-2l0.8,6.9l-9.6,1.1l0.6,4.8l9.3-1.1l0.8,6.9l-9.3,1.1l0.6,5.3l9.6-1.1l0.8,6.9l-17.5,2
		L133.53,102.8z"/>
	<path class="st5" d="M155.73,100.3l7.9-0.9l2.7,23.9l9.1-1l0.8,6.9l-17,2L155.73,100.3z"/>
	<path class="st5" d="M176.03,97.9l7.9-0.9l2.7,23.9l9.1-1l0.8,6.9l-17,2L176.03,97.9z"/>
	<path class="st5" d="M194.93,111.7c-1.2-10.1,5.9-17.2,14.4-18.2c9.5-1.1,17.2,5.6,18.1,14.1s-4.9,16.8-14.5,17.9
		C203.23,126.7,195.93,119.7,194.93,111.7L194.93,111.7z M202.83,110.4c0.5,4.7,4.3,8.8,9.6,8.2c5.6-0.6,7.7-6,7.3-10
		c-0.5-4-3.8-8.8-9.4-8.2C204.73,101.1,202.33,106.1,202.83,110.4L202.83,110.4z"/>
	<path class="st5" d="M240.03,111.5l-7.1,0.8l-2.4-20.7l7.1-0.8L240.03,111.5z M241.23,121.7l-7.1,0.8l-0.8-7.1l7.1-0.8
		L241.23,121.7z"/>
</g>
<path class="st2" d="M-536.17,222.12C-536.17,222.22-536.17,222.22-536.17,222.12c-0.4,1.6-0.8,3.3-1.3,5c-0.3,1.4-0.7,2.8-1.1,4.2
	c-0.9,3.4-1.8,7-2.8,10.7c-4.9,18.5-10.6,38.5-14.3,51.2c-14.2,2.6-28.8,4.2-43.6,4.7v0.3h-9.8c0-0.1,0-0.1-0.1-0.2
	c-0.7-2.8-1.6-6.7-2.7-11.4c-1.1-4.8-2.4-10.3-3.7-16.3c-2.3-10.6-4.8-22.6-6.8-34.1c-0.6-3.7-1.2-7.4-1.8-10.9
	c-2.7-18.2-3.6-33.2,0-36.4c1.7-1.5,4.8-2.3,7.6-2.8l0,0c3.1-0.5,5.7-0.5,5.7-0.5l3.2,0.2l62.7,4.3c0,0,9.3,2.1,12.7,7.1
	C-531.07,198.82-532.97,208.82-536.17,222.12z"/>
<path class="st6" d="M-567.87,161.42l-15.9,2.3l-2.2,19.2l-24.8,2.8c0,0,0,10.2,20.7,14.4c32.9,6.7,45.2-9.9,45.2-9.9l-24-6.4
	L-567.87,161.42z"/>
<path class="st6" d="M-573.97,108.72c0,0-20.5,6.7-23.6,34.8c-3.3,29.8,23.5,28.1,36,17.1
	C-540.87,142.12-543.77,100.62-573.97,108.72z"/>
<path class="st6" d="M-557.27,148.62c0,0,4.4-3.7,8.5-0.1c4.1,3.6-3.3,12.4-10.7,8.6C-566.77,153.32-557.27,148.62-557.27,148.62z"
	/>
<path class="st4" d="M-574.07,104.72c0,0-3.5-14.7-17.4-9.8c-12.5,4.5-9,26.5,11.5,33c15.3,4.9,24.3-0.3,24.3-0.3s-4.2,7.1-3.4,12.6
	c0.8,5.5-0.3,9.7-0.3,9.7s3.6,0.8,7.5-3c0,0,15.8-11.2,11.6-27.2C-544.47,103.82-563.37,100.92-574.07,104.72z"/>
<path class="st4" d="M-552.07,108.52c0.7-2.3,6.6-26.9,32.7-27.7c26.2-0.8,43.7,42.8,2.3,55.1c-7.6,2.3-27.6,0.6-33.1-3.8
	C-555.67,127.62-552.07,108.52-552.07,108.52z"/>
<path class="st6" d="M-623.97,189.02c-8.8-3.3-36.6,51.5-43.3,80.5s77,14.4,77,14.4l-3.2-12.1c0,0-45.1-2-46.2-6.2
	c-1.1-4.2,15.7-40.2,15.7-40.2S-621.27,190.02-623.97,189.02z"/>
<polygon class="st2" points="-544.77,190.22 -506.47,186.92 -502.37,209.52 -541.27,233.02 "/>
<path class="st2" d="M-616.47,186.22c0,0-6.4-3.2-24.3,15.5l-12.9,19.9l24.7,20.7l16.8-14.7L-616.47,186.22z"/>
<path class="st5" d="M-521.27,227.52l-18.5,62.2c-5.2,1.3-10.5,2.4-15.8,3.4c-14.2,2.6-28.8,4.2-43.6,4.7l0.5-12.5v-0.2l0.5-13.6
	l1.8-45.7l54.6,1.2l4.3,0.1l5.7,0.1L-521.27,227.52z"/>
<path class="st6" d="M-604.97,272.12l7.1-7.7l-0.3,7.2l24.1-6c0,0,3.9,3.9,3.4,6.5s-9,11.9-32.9,13.6L-604.97,272.12z"/>
<g>
	<g>
		<path class="st0" d="M419.83,352.96c-0.75,0.75-1.61,1.39-2.35,2.14"/>
		<path class="st1" d="M412.45,359.17c-22.16,17.55-51.91,30.93-85.09,39.28c-5.89,1.5-11.99,2.78-18.09,3.96
			c-16.16,3-32.97,4.82-49.88,5.35c-0.11,0-0.32,0-0.43,0c-3.64,0.11-7.17,0.11-10.81,0.11c-36.61-0.21-73.21-6.64-105.32-20.55
			c-6.64-2.89-13.06-5.99-19.16-9.53c-7.06-3.96-13.81-8.46-20.23-13.27c-1.28-0.96-7.17-6.21-14.98-14.98
			C65.01,323.1,24.34,264.44,39,192.41C58.16,96.29,171.83,21.69,241.51,43.85c12.95,4.07,24.62,10.17,35.32,17.34
			c29.22,19.59,51.8,47.63,75.78,67.22c14.66,11.99,29.86,20.76,47.52,22.69c4.92,0.54,9.63,1.93,14.13,4.07
			c8.46,3.96,16.27,10.7,23.01,19.27c31.25,39.82,39.71,121.16-12.52,173.93"/>
		<path class="st0" d="M422.51,350.39c-0.75,0.75-1.5,1.5-2.35,2.25"/>
		<g>
			
				<rect x="419.22" y="349.59" transform="matrix(0.7517 -0.6595 0.6595 0.7517 -128.6263 364.4934)" class="st2" width="1.07" height="6.96"/>
		</g>
	</g>
</g>
<path class="st7" d="M388.24,344.74c11.89-2.28,45.27-46.21,45.27-46.21s24.94-9.37,25.99-12.08c0.58-1.43,0.32-4.1,0.02-6.26
	c-0.33-1.88-2.16-3.11-4.01-2.6l-16.28,4.11c0,0,3.08-9.37,0.58-10.73c-2.39-1.52-5.06,6.68-5.06,6.68s-5.03,13.21-8.26,15.44
	c-2.15,1.52-35.01,26.97-49.55,29.37"/>
<g>
	<defs>
		<path id="SVGID_1_" d="M394.25,348.34c-20.29,18.55-49.8,32.69-83.1,40.99c-5.33,1.33-10.76,2.46-16.19,3.48
			c-14.55,2.66-29.51,4.3-44.67,4.82c-0.1,0-0.31,0-0.41,0c-3.28,0.1-6.46,0.1-9.73,0.1c-32.79-0.2-65.58-5.94-94.37-18.44
			c-5.94-2.56-11.68-5.43-17.21-8.5c-6.35-3.59-12.4-7.58-18.14-11.89c-1.23-0.92-6.46-5.64-13.42-13.42
			C76,321.8,39.62,269.24,52.74,204.79C70.16,118.82,171.91,52.12,234.31,71.9c11.58,3.69,22.03,9.12,31.66,15.57
			c26.23,17.52,46.31,42.62,67.83,60.15c13.12,10.66,26.74,18.55,42.52,20.29c4.41,0.51,8.61,1.74,12.6,3.69
			c7.58,3.59,14.55,9.53,20.6,17.21C438.31,225.39,445.59,301.31,394.25,348.34z"/>
	</defs>
	<clipPath id="SVGID_2_">
		<use xlink:href="#SVGID_1_"  style="overflow:visible;"/>
	</clipPath>
	<g class="st8">
		<g>
			<g>
				<g>
					<path class="st9" d="M231.6,270.67c1.04,1.62,1.64,3.55,1.64,5.61c0,1.02-0.15,2.01-0.43,2.95c1.42,1.77,2.25,4.01,2.25,6.45
						c0,5.75-4.67,10.42-10.44,10.42c-1.91,0-3.7-0.51-5.24-1.43c-0.05,1.43-0.37,2.78-0.94,4.01c-1.64,3.58-5.27,6.07-9.47,6.07
						c-3.05,0-5.82-1.31-7.71-3.41c-0.24-0.24-0.46-0.51-0.65-0.78c-0.03-0.03-0.05-0.05-0.07-0.08c-0.27,0.41-0.6,0.78-0.94,1.14
						c-0.63,0.63-1.33,1.19-2.1,1.64c-1.57,0.96-3.41,1.5-5.37,1.5c-1.96,0-3.79-0.54-5.36-1.5c-0.24-0.14-0.48-0.29-0.7-0.46
						c-0.55-0.38-1.04-0.82-1.5-1.3c-1.83,3.02-5.13,5.03-8.92,5.03c-4.88,0-8.97-3.33-10.1-7.85c-0.22-0.82-0.34-1.69-0.34-2.58
						c0-0.82,0.1-1.62,0.29-2.39c-1.07,0.39-2.25,0.6-3.46,0.6c-5.75,0-10.42-4.66-10.42-10.42c0-2.44,0.84-4.67,2.23-6.45
						c-0.53-1.23-0.8-2.58-0.8-3.98c0-2.76,1.06-5.25,2.81-7.13c-2.92-1.02-5.02-3.82-5.02-7.13v-1.14c0-0.53,0.03-1.04,0.14-1.53
						c0.31-1.47,1.04-2.78,2.06-3.8c1.36-1.38,3.28-2.22,5.34-2.22v-8.05c6.47,2.41,17.84,5.25,28.49,1.04v5.61
						c0,2.9,2.35,5.25,5.25,5.25c2.92,0,5.27-2.35,5.27-5.25v-5.95c10.92,4.33,23.13,1.38,29.84-0.97c0,3.05,0.02,5.89,0.02,8.29
						h0.09c5.82,0,10.54,4.72,10.54,10.54C237.9,265.33,235.3,269.04,231.6,270.67z"/>
				</g>
				<g>
					<path class="st10" d="M227.36,205.73c0,0.89,0,3.72-0.03,7.62"/>
					<path class="st11" d="M227.32,213.35c-0.02,7.59-0.07,19.28-0.07,28.83c-6.7,2.35-18.92,5.31-29.84,0.97v5.95
						c0,2.9-2.35,5.25-5.27,5.25c-2.9,0-5.25-2.35-5.25-5.25v-5.61c-10.65,4.21-22.02,1.36-28.49-1.04v-34.27
						c0,0,3.39-6.53,15.05-7.32c11.65-0.77,8.6,8.89,23.97,3.67c10.83-3.68,19.31-0.75,24.75,3.41
						C224.42,209.67,226.16,211.6,227.32,213.35z"/>
				</g>
			</g>
			<g>
				<g>
					<path class="st11" d="M263.45,341.33v60.61H123.22v-60.61c0-9.23,2.92-17.78,7.92-24.74c3.51-4.93,8.07-9.09,13.32-12.13
						c1.69-0.99,3.45-1.86,5.27-2.61c6.96,17.86,24.33,30.52,44.65,30.52c20.01,0,37.17-12.28,44.34-29.72
						c1.14,0.49,2.25,1.07,3.34,1.71c5.39,3.11,10.05,7.37,13.61,12.45C260.59,323.74,263.45,332.19,263.45,341.33z"/>
				</g>
				<g>
					<line class="st10" x1="162.06" y1="298.85" x2="162.01" y2="298.75"/>
					<line class="st10" x1="224.68" y1="298.75" x2="224.63" y2="298.85"/>
				</g>
			</g>
			<path class="st11" d="M238.72,302.66c-7.16,17.43-24.33,29.72-44.34,29.72c-20.32,0-37.69-12.66-44.65-30.52
				c1.3-0.53,2.61-0.99,3.97-1.4c2.66-0.8,5.48-1.35,8.34-1.6c0.49-0.05,1.01-0.08,1.5-0.1c0.65-0.05,1.33-0.07,2.01-0.07
				c1.13,4.52,5.22,7.85,10.1,7.85c3.79,0,7.1-2.01,8.92-5.03c0.46,0.48,0.96,0.92,1.5,1.3c0.22,0.17,0.46,0.32,0.7,0.46
				c1.57,0.96,3.4,1.5,5.36,1.5c1.96,0,3.8-0.54,5.37-1.5c0.77-0.44,1.47-1.01,2.1-1.64c0.34-0.36,0.67-0.73,0.94-1.14
				c0.02,0.03,0.03,0.05,0.07,0.08c0.19,0.27,0.41,0.55,0.65,0.78c1.89,2.1,4.66,3.41,7.71,3.41c4.2,0,7.83-2.49,9.47-6.07h2.35
				c1.28,0,2.54,0.05,3.82,0.17h0.02c1.4,0.12,2.75,0.31,4.11,0.56v0.02c1.43,0.26,2.85,0.61,4.21,1.02
				C234.95,301.06,236.87,301.77,238.72,302.66z"/>
			<line class="st10" x1="200.62" y1="300.48" x2="200.62" y2="315.21"/>
			<line class="st10" x1="186.09" y1="315.21" x2="186.09" y2="302.8"/>
			<path class="st10" d="M186.08,261.02c0,0,6.08,5.33,11.33,0"/>
			<line class="st10" x1="186.89" y1="243.5" x2="186.89" y2="238.15"/>
			<line class="st10" x1="197.41" y1="243.16" x2="197.41" y2="238.16"/>
			<g>
				<path class="st10" d="M166.97,231.34c0-4.32,10.58-8.07,12.95,0"/>
				<path class="st10" d="M203.94,231.34c0-4.32,10.58-8.07,12.95,0"/>
				<line class="st10" x1="166.97" y1="219.79" x2="179.92" y2="219.79"/>
				<line class="st10" x1="203.94" y1="219.79" x2="216.89" y2="219.79"/>
			</g>
			<path class="st9" d="M227.36,213.4c-0.02-0.02-0.02-0.03-0.03-0.05c-1.16-1.76-2.9-3.68-5.15-5.41
				c-5.44-4.16-13.92-7.1-24.75-3.41c-15.37,5.22-12.32-4.43-23.97-3.67c-11.65,0.78-15.05,7.32-15.05,7.32v-0.17l0.02-18.7
				c-0.02-10.25-7.57-15.93-7.57-15.93c14.62-12.01,29.07,0.07,29.07,0.07c2.15-10.18-1.35-12.54-1.35-12.54
				c17.5-5.22,27.69,9.14,27.69,9.14c3.14-1.57,13.17-6,13.17-6C229.18,171.23,227.36,213.4,227.36,213.4z"/>
			<path class="st10" d="M186.89,165.73c0,0,9.32,1.32,13.49,9.23"/>
			<path class="st10" d="M216.89,171.45c0,0,5.75,15.23,5.28,36.52"/>
			<g>
				<path class="st11" d="M235.05,241.6v1.14c0,4.2-3.36,7.58-7.56,7.58v-16.27c2.08,0,3.97,0.84,5.36,2.22
					c0.36,0.36,0.68,0.75,0.95,1.18v0.02c0.49,0.75,0.87,1.59,1.06,2.49c0.02,0.03,0.05,0.08,0.05,0.12
					C235,240.56,235.05,241.08,235.05,241.6z"/>
			</g>
			<g>
				<path class="st11" d="M158.4,234.05v16.27c-4.2,0-7.56-3.38-7.56-7.58v-1.14c0-0.53,0.05-1.04,0.14-1.54
					c0-0.03,0.03-0.09,0.05-0.12c0.19-0.9,0.56-1.74,1.06-2.49v-0.02c0.27-0.43,0.6-0.82,0.96-1.18
					C154.43,234.88,156.32,234.05,158.4,234.05z"/>
			</g>
			<path class="st10" d="M149.73,301.86c1.3-0.53,2.61-0.99,3.97-1.4c2.66-0.8,5.48-1.35,8.34-1.6c0.49-0.05,1.01-0.08,1.5-0.1
				c0.65-0.05,1.33-0.07,2.01-0.07c1.13,4.52,5.22,7.85,10.1,7.85c3.79,0,7.1-2.01,8.92-5.03c0.46,0.48,0.96,0.92,1.5,1.3
				c0.22,0.17,0.46,0.32,0.7,0.46c1.57,0.96,3.4,1.5,5.36,1.5c1.96,0,3.8-0.54,5.37-1.5c0.77-0.44,1.47-1.01,2.1-1.64
				c0.34-0.36,0.67-0.73,0.94-1.14c0.02,0.03,0.03,0.05,0.07,0.08c0.19,0.27,0.41,0.55,0.65,0.78c1.89,2.1,4.66,3.41,7.71,3.41
				c4.2,0,7.83-2.49,9.47-6.07h2.35c1.28,0,2.54,0.05,3.82,0.17h0.02c1.4,0.12,2.75,0.31,4.11,0.56v0.02
				c1.43,0.26,2.85,0.61,4.21,1.02c1.98,0.6,3.91,1.31,5.75,2.2"/>
		</g>
		<g>
			<g>
				<g>
					<path class="st11" d="M357.87,290.57v48.1H341.8c-0.3-10.45-8.37-66.32-9.87-81c0.6,0.14,1.18,0.3,1.76,0.47
						c7.38,2.19,13.7,6.84,18.02,12.98C355.59,276.61,357.87,283.31,357.87,290.57z"/>
					<path class="st11" d="M272.57,257.65c-1.9,13.79-8.54,70.56-9.5,81.02h-16.46v-48.1c0-7.32,2.31-14.11,6.28-19.63
						c4.32-6.07,10.59-10.64,17.9-12.81C271.36,257.96,271.96,257.8,272.57,257.65z"/>
					<path class="st9" d="M341.8,338.66h-78.73c0.96-10.46,7.61-67.22,9.5-81.02c0.76-0.18,1.53-0.34,2.3-0.46
						c1.81-0.3,3.68-0.46,5.58-0.46h1.8c-1.45,2.96-2.26,6.29-2.26,9.81c0,12.36,10.02,22.38,22.38,22.38s22.38-10.02,22.38-22.38
						c0-3.52-0.81-6.85-2.26-9.81h1.54c2.37,0,4.68,0.24,6.92,0.72c0.33,0.07,0.66,0.14,0.99,0.22
						C333.43,272.35,341.5,328.22,341.8,338.66z"/>
					<path class="st11" d="M324.74,266.54c0,12.36-10.02,22.38-22.38,22.38s-22.38-10.02-22.38-22.38c0-3.52,0.81-6.85,2.26-9.81
						h14.21v-5.85c1.34,0.23,2.72,0.34,4.13,0.34h3.3c1.39,0,2.76-0.11,4.1-0.34v5.85h14.49
						C323.93,259.69,324.74,263.02,324.74,266.54z"/>
					<g>
						<line class="st10" x1="296.46" y1="264.42" x2="296.46" y2="256.72"/>
						<line class="st10" x1="307.99" y1="264.42" x2="307.99" y2="256.72"/>
					</g>
				</g>
				<g>
					<path class="st10" d="M329.59,210.37v12.91c0,0,0.01,0,0.03,0"/>
					<path class="st11" d="M329.61,210.37v15.12c0,2.53-0.36,4.98-1.05,7.3c-0.01,0.08-0.04,0.18-0.08,0.26
						c-0.65,2.17-1.61,4.21-2.77,6.09h-0.01c-0.12,0.22-0.27,0.43-0.41,0.65c-3.9,5.81-10.1,9.94-17.29,11.09
						c-1.34,0.23-2.71,0.34-4.1,0.34h-3.3c-1.41,0-2.79-0.11-4.13-0.34c-7.07-1.14-13.17-5.17-17.07-10.83
						c-0.23-0.33-0.45-0.66-0.65-1c-1.03-1.65-1.88-3.41-2.52-5.29c-0.04-0.12-0.08-0.23-0.11-0.35c-0.81-2.49-1.25-5.14-1.25-7.91
						v-15.12c0,0,1.84-6.16,9.41-12.6h0.01c1.98-1.67,4.36-3.37,7.22-4.98c13.71-7.76,18.59-9.75,19.25-13.51
						c0,0,1.64,8.45,10.36,14.47c2,1.38,3.53,2.9,4.72,4.41C330.45,204.13,329.64,210.37,329.61,210.37z"/>
				</g>
				<path class="st11" d="M274.87,210.37v12.91c-3.32,0-6-2.68-6-6.01v-0.91c0-0.42,0.04-0.82,0.12-1.22
					c0.24-1.16,0.81-2.21,1.64-3.02C271.72,211.04,273.22,210.37,274.87,210.37z"/>
				<path class="st11" d="M335.58,216.37v0.91c0,3.32-2.67,6-5.97,6.01v-12.91c1.44,0.01,2.75,0.51,3.79,1.37
					c0.15,0.12,0.28,0.26,0.42,0.39c0.83,0.81,1.39,1.85,1.64,3.03C335.54,215.56,335.58,215.97,335.58,216.37z"/>
			</g>
			<path class="st11" d="M360.17,220.03c0,0-3.54,22.89-34.47,19.11c1.16-1.88,2.13-3.93,2.77-6.09c0.04-0.08,0.07-0.18,0.08-0.26
				c0.69-2.31,1.05-4.76,1.05-7.3v-2.21c3.3-0.01,5.97-2.69,5.97-6.01v-0.91c0-0.41-0.04-0.81-0.12-1.2
				c-0.24-1.18-0.81-2.22-1.64-3.03c-0.13-0.13-0.27-0.27-0.42-0.39c-1.04-0.85-2.36-1.35-3.79-1.37c0.03,0,0.84-6.24-3.78-12.21
				c-1.19-1.51-2.72-3.03-4.72-4.41c-8.72-6.02-10.36-14.47-10.36-14.47c-0.66,3.76-5.54,5.75-19.25,13.51
				c-2.86,1.61-5.24,3.32-7.22,4.98h-0.01c-7.57,6.44-9.41,12.6-9.41,12.6c-1.65,0-3.15,0.66-4.24,1.76
				c-0.83,0.81-1.39,1.85-1.64,3.02c-0.08,0.39-0.12,0.8-0.12,1.22v0.91c0,3.33,2.68,6.01,6,6.01v2.21c0,2.76,0.43,5.41,1.25,7.91
				c0.03,0.12,0.07,0.23,0.11,0.35c0.64,1.88,1.49,3.64,2.52,5.29c-32.91,1.65-34.88-18.6-34.88-18.6
				c12.98-3.62,17.19-18.22,17.38-26.06c0.11-4.75,0-16.34,0-16.34c0-18.7,15.15-33.84,33.84-33.84h14.31
				c18.69,0,33.84,15.15,33.84,33.84c0,0-0.14,11.59,0,16.34C343.46,202.08,346.79,214.15,360.17,220.03z"/>
			<line class="st10" x1="278.76" y1="239.05" x2="278.74" y2="239.05"/>
			<path class="st10" d="M323.77,212.84c-1.46-5.05-10.76-6.64-14.09,0"/>
			<path class="st10" d="M294.07,212.84c-1.46-5.05-10.76-6.64-14.09,0"/>
			<path class="st10" d="M300.73,217.34v10.2c0,1.8,1.46,3.25,3.25,3.25c1.8,0,3.25-1.46,3.25-3.25v-3.47"/>
			<path class="st10" d="M311.86,237.83c0,0-8.85,3.92-16.82,0"/>
			<path class="st10" d="M300.73,169.56c0,11.76-32.27,22.08-30.67,34.58"/>
			<path class="st10" d="M268.87,192.9c0,0,0.77-7.09,14.31-19.17c5.87-5.88,8.54-10,8.54-16.04"/>
			<path class="st10" d="M294.07,198.99c-4.02-0.84-7.23-1.18-9.77-1.22"/>
			<path class="st10" d="M311.04,198.99c7.34-1.54,11.98-1.38,14.8-0.83"/>
		</g>
		<g>
			<g>
				<g>
					<path class="st11" d="M76.45,268.1v12.91c-3.32,0-6-2.68-6-6.01v-0.91c0-0.42,0.04-0.82,0.12-1.22
						c0.24-1.16,0.81-2.21,1.64-3.02C73.3,268.77,74.8,268.1,76.45,268.1z"/>
				</g>
				<g>
					<path class="st11" d="M137.19,274.1v0.91c0,3.33-2.68,6.01-6,6.01V268.1c1.65,0,3.15,0.66,4.25,1.76
						c0.79,0.78,1.35,1.8,1.6,2.92c0.01,0.03,0.03,0.07,0.03,0.1C137.15,273.28,137.19,273.68,137.19,274.1z"/>
				</g>
				<g>
					<path class="st11" d="M131.17,281.02v-7.68c-0.18-6.05,0-17.1,0-20.16c-6.73-16.2-13.51-22.97-13.51-22.97
						s-17.48,4.15-26.03,8.92c-8.18,4.14-13.56,8.01-14.62,14.05c-0.36,1.71-0.56,3.48-0.56,5.31v24.73
						c0,12.79,9.36,23.4,21.59,25.38h11.53c0.12-0.01,0.24-0.04,0.35-0.07c12.08-2.08,21.27-12.63,21.27-25.31v-2.21
						C131.18,281.02,131.18,281.02,131.17,281.02z M91.09,267.91c-1.33,0-2.4-1.07-2.4-2.4c0-1.33,1.07-2.41,2.4-2.41
						c1.32,0,2.41,1.08,2.41,2.41C93.49,266.85,92.41,267.91,91.09,267.91z M117.6,267.91c-1.34,0-2.41-1.07-2.41-2.4
						c0-1.33,1.07-2.41,2.41-2.41c1.33,0,2.4,1.08,2.4,2.41C120,266.85,118.93,267.91,117.6,267.91z"/>
					<path class="st11" d="M136.2,230.02c-0.6-3.14-1.65-5.89-3.11-8.27c0-0.01-0.01-0.03-0.01-0.04
						C121.12,202.99,116.93,199,116.93,199l-8.81,8.38c0.07-3.56-1.19-8.38-1.19-8.38c-1.1,1.79-16.5,14.09-16.5,14.09l-1.12-5.52
						c0,0-2.96,5.05-8.91,8.56c-11.78,5.89-9.82,17.12-9.82,17.12v39.64c0.24-1.16,0.81-2.21,1.64-3.02
						c1.08-1.1,2.59-1.76,4.24-1.76v-9.61c0-1.83,0.19-3.6,0.56-5.31c1.05-6.04,6.44-9.91,14.62-14.05
						c8.56-4.77,26.03-8.92,26.03-8.92s6.78,6.77,13.51,22.97c0,3.06-0.18,14.11,0,20.16v-5.24c0,0,0.01,0,0.03,0
						c1.65,0,3.15,0.66,4.25,1.76c0.79,0.78,1.35,1.8,1.6,2.92C137.1,270.69,137.9,238.93,136.2,230.02z M123.14,228.18
						c0.27,0.43,4.56,7.57,6.15,12.01L123.14,228.18z"/>
					<path class="st10" d="M137.04,272.9c0,0,0-0.04,0-0.11"/>
				</g>
			</g>
			<g>
				<path class="st10" d="M100.92,272.94v10.2c0,1.8,1.46,3.25,3.25,3.25c1.8,0,3.25-1.46,3.25-3.25v-10.2"/>
				<path class="st10" d="M97.48,293.35c0,0,5.76,6.07,13.39,0"/>
				<g>
					<g>
						<path class="st11" d="M93.49,265.52c0,1.33-1.08,2.4-2.41,2.4c-1.33,0-2.4-1.07-2.4-2.4c0-1.33,1.07-2.41,2.4-2.41
							C92.41,263.11,93.49,264.19,93.49,265.52z"/>
						<path class="st10" d="M84.63,265.53c0,0,3.63-4.8,12.25-1.06"/>
					</g>
					<g>
						<path class="st11" d="M120,265.52c0,1.33-1.07,2.4-2.4,2.4c-1.34,0-2.41-1.07-2.41-2.4c0-1.33,1.07-2.41,2.41-2.41
							C118.93,263.11,120,264.19,120,265.52z"/>
						<path class="st10" d="M111.47,265.53c0,0,3.64-4.8,12.25-1.06"/>
					</g>
				</g>
				<g>
					<line class="st10" x1="118.13" y1="250.96" x2="124.25" y2="253.91"/>
					<path class="st10" d="M84.09,256.1c0,0,4.18-2.95,6.09-3.66"/>
				</g>
			</g>
			<path class="st10" d="M75.96,233.44c0,0-0.38-6.32,3.09-8.88c2.86-2.11,3.33-2.49,6.33-5.8"/>
			<g>
				<g>
					<path class="st11" d="M129,314.59l-19.76,81.8H99.11l-19.76-81.8c0.39-0.04,0.79-0.07,1.18-0.08c0.61-0.04,1.23-0.05,1.85-0.05
						h16.02v-5.85h11.18c0.12-0.01,0.24-0.04,0.35-0.07v5.92h16.03C126.99,314.46,128,314.5,129,314.59z"/>
					<path class="st9" d="M99.11,396.39H90.5l-14.81-53.81l3.61-4.7l-13.93-18.84c2.29-1.34,4.75-2.41,7.34-3.18
						c2.13-0.63,4.34-1.07,6.63-1.27L99.11,396.39z"/>
					<path class="st11" d="M90.5,396.39H48.53v-48.1c0-7.32,2.32-14.11,6.28-19.63c2.79-3.91,6.39-7.22,10.56-9.63l13.93,18.84
						l-3.61,4.7L90.5,396.39z"/>
					<path class="st11" d="M159.8,348.3v48.1h-42.13l14.7-53.81l-3.63-4.7l14.08-18.92c4.29,2.46,7.99,5.85,10.82,9.88
						C157.53,334.34,159.8,341.04,159.8,348.3z"/>
					<path class="st9" d="M128.74,337.89l3.63,4.7l-14.7,53.81h-8.43l19.76-81.8c1.11,0.1,2.19,0.24,3.26,0.45v0.01
						c1.14,0.2,2.26,0.49,3.36,0.81c2.54,0.76,4.95,1.8,7.2,3.1L128.74,337.89z"/>
					<g>
						<line class="st10" x1="98.41" y1="324.87" x2="98.41" y2="314.46"/>
						<line class="st10" x1="109.95" y1="324.87" x2="109.95" y2="314.46"/>
					</g>
				</g>
				<g>
					<line class="st10" x1="79.35" y1="314.59" x2="79.31" y2="314.51"/>
					<line class="st10" x1="129.04" y1="314.51" x2="129" y2="314.59"/>
				</g>
			</g>
		</g>
		<g>
			<g>
				<g>
					<g>
						<path class="st11" d="M283.11,320.03l-17.04,81.91h-12.74l-16.93-81.89c0.59-0.04,1.22-0.06,1.84-0.06h16.01v-5.85h11.51
							c0,0,0.01,0,0.03,0V320h16.03C282.24,320,282.67,320.02,283.11,320.03z"/>
						<path class="st11" d="M315.65,353.85v48.1h-49.59l17.04-81.91c0.59,0.02,1.16,0.06,1.75,0.11c1.12,0.1,2.19,0.25,3.26,0.45
							v0.01c1.14,0.2,2.26,0.49,3.37,0.81c1.33,0.39,2.6,0.86,3.86,1.41h0.01c1.15,0.52,2.26,1.07,3.33,1.69
							c2.92,1.68,5.56,3.78,7.84,6.23c0.69,0.96,1.5,1.94,2.41,2.91l0.01,0.01c0.19,0.24,0.37,0.49,0.54,0.73
							C313.39,339.89,315.65,346.59,315.65,353.85z"/>
						<path class="st11" d="M253.32,401.94h-48.94v-48.1c0-6.96,2.08-13.43,5.7-18.79c1.38-1.5,2.54-2.97,3.52-4.4
							c2.23-2.37,4.81-4.43,7.64-6.07c2.29-1.34,4.75-2.41,7.34-3.18c2.11-0.64,4.33-1.07,6.62-1.27h0.01
							c0.39-0.04,0.78-0.07,1.18-0.08L253.32,401.94z"/>
						<path class="st10" d="M213.61,330.66c-0.97,1.43-2.14,2.9-3.52,4.4c0.19-0.29,0.38-0.57,0.58-0.84
							C211.56,332.96,212.55,331.78,213.61,330.66z"/>
						<path class="st10" d="M265.78,314.09v0.07c-0.01,0-0.01,0-0.01,0h-0.32C265.56,314.14,265.67,314.12,265.78,314.09z"/>
						<path class="st10" d="M308.94,333.65c-0.91-0.98-1.72-1.95-2.41-2.91C307.39,331.66,308.21,332.63,308.94,333.65z"/>
						<g>
							<line class="st10" x1="254.27" y1="330.41" x2="254.27" y2="320"/>
							<line class="st10" x1="265.8" y1="330.41" x2="265.8" y2="320"/>
						</g>
					</g>
					<g>
						<line class="st10" x1="235.2" y1="320.14" x2="235.16" y2="320.06"/>
						<line class="st10" x1="284.9" y1="320.06" x2="284.86" y2="320.14"/>
					</g>
				</g>
			</g>
			<path class="st12" d="M306.53,330.74c-2.27-2.45-4.91-4.55-7.84-6.23c-1.07-0.62-2.18-1.18-3.33-1.69h-0.01
				c-1.26-0.54-2.53-1.02-3.86-1.41c-1.11-0.33-2.23-0.61-3.37-0.81v-0.01c-1.07-0.2-2.14-0.35-3.26-0.45
				c-0.58-0.05-1.15-0.09-1.75-0.11c-0.43-0.01-0.87-0.03-1.3-0.03h-16.03v-5.85c0.11-0.01,0.22-0.04,0.31-0.07
				c12.08-2.09,21.27-12.63,21.27-25.32v-2.21c0,0,0,0-0.03,0l-0.07-11.62c1.54-12.79-8.75-16.49-10.56-23.07
				c-2.33-8.44-3.3-12.72-3.67-16.34c0.11-1.83,0.1-3.75-0.05-5.77c0,0-0.41,1.46,0.05,5.77c-0.87,14.39-9.29,21.73-21.71,23.82
				c-4.05,0.69-7.31,2.69-9.91,5.22c-6.42,6.21-8.8,15.51-8.8,15.51v8.66c0,12.79,9.37,23.41,21.61,25.38h0.03V320h-16.01
				c-0.62,0-1.25,0.01-1.84,0.06c-0.39,0.01-0.79,0.04-1.18,0.08h-0.01c-2.29,0.2-4.51,0.64-6.62,1.27
				c-2.59,0.77-5.05,1.84-7.34,3.18c-2.83,1.64-5.4,3.7-7.64,6.07c6.36-9.25,5-16.5,5-16.5v-67.64c0-18.7,15.16-33.84,33.84-33.84
				h15.14c18.69,0,33.84,15.15,33.84,33.84v67.64C301.42,314.16,300.03,321.94,306.53,330.74z"/>
			<path class="st10" d="M233.19,261.59c3.88-4.74,9.33-8.97,16.78-10.23c10.87-1.83,14.32-8.08,14.91-15.64"/>
			<path class="st11" d="M287.26,274.95c1.54-12.79-8.75-16.49-10.56-23.07c-2.33-8.44-3.3-12.72-3.67-16.34
				c-0.87,14.39-9.29,21.73-21.71,23.82c-4.05,0.69-7.31,2.69-9.91,5.22c-6.42,6.21-8.8,15.51-8.8,15.51v8.66
				c0,12.79,9.37,23.41,21.61,25.38h11.22c0.12-0.01,0.23-0.04,0.34-0.07v0.07c0.11-0.01,0.22-0.04,0.31-0.07
				c12.08-2.09,21.27-12.63,21.27-25.32v-2.21c0,0,0,0-0.03,0L287.26,274.95z M247.35,274.87c-1.33,0-2.4-1.07-2.4-2.4
				c0-1.31,1.06-2.4,2.37-2.41c0.01,0,0.01,0,0.01,0h0.06c1.31,0.03,2.37,1.09,2.37,2.41C249.77,273.8,248.68,274.87,247.35,274.87z
				 M272.49,274.87c-1.31,0-2.4-1.07-2.4-2.4c0-1.31,1.07-2.4,2.37-2.41c0,0,0.01,0,0.03,0h0.04c1.31,0.03,2.38,1.09,2.38,2.41
				C274.92,273.8,273.82,274.87,272.49,274.87z"/>
			<path class="st10" d="M249.03,242.74c0,0,7.57,0.41,8.92-7.02"/>
			<path class="st10" d="M261.98,285.87c0.31,0.5,0.47,1.11,0.42,1.74c-0.13,1.57-1.5,2.73-3.07,2.61c-1.57-0.13-2.74-1.5-2.61-3.07
				c0.04-0.53,0.23-1.01,0.51-1.41"/>
			<path class="st10" d="M253.32,270.36c-1.46-0.93-3.61-1.62-5.93-1.65"/>
			<path class="st10" d="M241.38,270.36c1.87-1.2,3.97-1.67,5.94-1.65"/>
			<path class="st11" d="M249.77,272.48c0,1.33-1.08,2.4-2.41,2.4c-1.33,0-2.4-1.07-2.4-2.4c0-1.31,1.06-2.4,2.37-2.41
				c0.01,0,0.01,0,0.01,0h0.06C248.71,270.09,249.77,271.16,249.77,272.48z"/>
			<path class="st10" d="M278.48,270.36c-1.46-0.93-3.63-1.62-5.94-1.65"/>
			<path class="st10" d="M266.54,270.36c1.87-1.2,3.95-1.67,5.93-1.65"/>
			<path class="st11" d="M274.92,272.48c0,1.33-1.1,2.4-2.42,2.4c-1.31,0-2.4-1.07-2.4-2.4c0-1.31,1.07-2.4,2.37-2.41
				c0,0,0.01,0,0.03,0h0.04C273.85,270.09,274.92,271.16,274.92,272.48z"/>
			<path class="st10" d="M256.05,299.36c0,0,2.86,2.17,7.4,0"/>
			<path class="st10" d="M241.39,264.61c0,0,4.97-2.87,12.88,0"/>
			<path class="st10" d="M264.88,264.61c0,0,5.13-4.97,13.6-0.64"/>
		</g>
		<g>
			<path class="st10" d="M342.83,278.01c0,1.31-1.07,2.38-2.38,2.38c-1.31,0-2.38-1.07-2.38-2.38c0-0.83,0.42-1.56,1.05-1.99
				c0,0,0.01-0.01,0.03-0.01c0.36-0.24,0.81-0.39,1.3-0.39c0.22,0,0.42,0.03,0.61,0.1h0.01
				C342.09,275.97,342.83,276.9,342.83,278.01z"/>
			<path class="st10" d="M370.58,278.01c0,1.31-1.07,2.38-2.38,2.38c-1.31,0-2.38-1.07-2.38-2.38c0-0.83,0.42-1.56,1.05-1.99
				c0,0,0.01-0.01,0.03-0.01c0.36-0.24,0.81-0.39,1.3-0.39c0.22,0,0.42,0.03,0.61,0.1h0.01
				C369.84,275.97,370.58,276.9,370.58,278.01z"/>
			<g>
				<path class="st11" d="M370.58,327.71c0,8.75-7.08,15.82-15.82,15.84c0,0-0.01-0.01-0.01-0.03c0,0.01,0,0.03,0,0.03
					c-8.76-0.01-15.82-7.09-15.82-15.84c0-2.8,0.73-5.43,2-7.7h8.05v-5.85c1.34,0.23,2.72,0.34,4.13,0.34h3.3
					c1.39,0,2.76-0.11,4.1-0.34V320h8.07C369.85,322.28,370.58,324.9,370.58,327.71z"/>
				<path class="st9" d="M402.02,401.94h-93.76c0,0-2.23-46.77,8.56-56.15c11.38-7.19,10.57-25.33,10.57-25.33
					c1.82-0.3,3.68-0.46,5.58-0.46h7.96c-1.27,2.27-2,4.9-2,7.7c0,8.75,7.07,15.82,15.81,15.84h0.03
					c8.75-0.01,15.82-7.09,15.82-15.84c0-2.8-0.73-5.43-2-7.7h7.96c2.37,0,4.68,0.24,6.92,0.72c0,0-0.82,17.88,10.56,25.07
					C404.79,355.17,402.02,401.94,402.02,401.94z"/>
				<path class="st11" d="M316.81,345.79c-10.79,9.38-8.56,56.15-8.56,56.15h-9.14v-48.1c0-7.32,2.31-14.11,6.28-19.63
					c4.32-6.06,10.59-10.64,17.9-12.81c1.33-0.41,2.69-0.72,4.09-0.95C327.39,320.46,328.2,338.6,316.81,345.79z"/>
				<g>
					<line class="st10" x1="348.97" y1="327.7" x2="348.97" y2="320"/>
					<line class="st10" x1="360.51" y1="327.7" x2="360.51" y2="320"/>
				</g>
			</g>
			<g>
				<path class="st11" d="M382.1,286.57v-12.91c-0.57-0.08-1.12-0.16-1.66-0.26c-0.72-0.11-1.44-0.23-2.13-0.37
					c-0.76-0.13-1.49-0.28-2.21-0.43c-1.33-0.27-2.61-0.57-3.83-0.89c-0.62-0.15-1.22-0.31-1.8-0.49c-0.11-0.03-0.23-0.05-0.34-0.09
					c-0.54-0.15-1.08-0.31-1.6-0.49c-0.68-0.2-1.33-0.42-1.96-0.65c-0.45-0.16-0.89-0.32-1.33-0.49c-0.16-0.05-0.31-0.11-0.46-0.18
					c-0.03,0-0.04-0.01-0.07-0.03c-0.58-0.23-1.14-0.45-1.68-0.68c0,0-0.01,0-0.01-0.01c-0.57-0.24-1.12-0.49-1.65-0.74
					c-0.54-0.24-1.06-0.49-1.56-0.76c-0.5-0.26-0.99-0.51-1.45-0.79c-0.99-0.54-1.92-1.11-2.77-1.68c-0.37-0.24-0.73-0.49-1.07-0.75
					c-0.54-0.38-1.06-0.79-1.54-1.18c-0.36-0.28-0.7-0.58-1.04-0.87c-0.84-0.74-1.58-1.48-2.25-2.19c-0.33-0.34-0.61-0.68-0.88-1
					c-0.85-1.03-1.56-2.02-2.11-2.95c-0.16-0.26-0.31-0.51-0.46-0.77c-0.15-0.28-0.3-0.57-0.43-0.84c-0.08-0.14-0.13-0.27-0.19-0.39
					c-0.12-0.26-0.24-0.51-0.34-0.76c-0.2-0.49-0.37-0.95-0.51-1.34c-0.05-0.19-0.11-0.36-0.15-0.54c-0.04-0.11-0.07-0.22-0.1-0.33
					c-0.03-0.12-0.05-0.24-0.08-0.34c-0.03-0.15-0.05-0.27-0.08-0.38c-0.01-0.09-0.03-0.18-0.04-0.24
					c-0.01-0.15-0.03-0.22-0.03-0.22c-0.15,0.72-0.3,1.41-0.45,2.08c-1.69,7.2-4.13,12.05-6.61,15.3c-0.12,0.16-0.23,0.31-0.35,0.46
					c-0.35,0.45-0.72,0.85-1.06,1.25c-0.36,0.38-0.7,0.73-1.06,1.05c-0.18,0.16-0.35,0.33-0.51,0.47c-0.01,0-0.03,0.03-0.03,0.03
					c-0.5,0.43-0.99,0.81-1.46,1.14c-0.01,0.01-0.03,0.03-0.03,0.03c-0.2,0.15-0.42,0.3-0.64,0.42c-0.2,0.14-0.41,0.26-0.61,0.38
					c-0.2,0.11-0.39,0.22-0.58,0.31c-0.19,0.11-0.38,0.19-0.56,0.27c-0.27,0.12-0.53,0.23-0.76,0.33c-0.24,0.1-0.46,0.18-0.68,0.24
					c-0.27,0.08-0.51,0.15-0.72,0.19c-0.11,0.03-0.2,0.05-0.28,0.07c-0.35,0.07-0.54,0.08-0.54,0.08v15.12
					c0,2.76,0.43,5.41,1.25,7.91c0.03,0.12,0.07,0.23,0.11,0.35c0.77,2.26,1.84,4.37,3.17,6.29c3.9,5.66,10,9.69,17.07,10.83
					c1.34,0.23,2.72,0.34,4.13,0.34h3.3c1.39,0,2.76-0.11,4.1-0.34c7.19-1.15,13.39-5.28,17.29-11.09c1.37-2.06,2.46-4.32,3.2-6.74
					c0.04-0.08,0.07-0.18,0.08-0.26c0.69-2.31,1.06-4.77,1.06-7.3v-2.21C382.12,286.57,382.12,286.57,382.1,286.57z M340.45,280.39
					c-1.31,0-2.38-1.07-2.38-2.38c0-0.83,0.42-1.56,1.05-1.99c0,0,0.01-0.01,0.03-0.01c0.36-0.24,0.81-0.39,1.3-0.39
					c0.22,0,0.42,0.03,0.61,0.1h0.01c1.02,0.26,1.76,1.19,1.76,2.3C342.83,279.32,341.76,280.39,340.45,280.39z M368.2,280.39
					c-1.31,0-2.38-1.07-2.38-2.38c0-0.83,0.42-1.56,1.05-1.99c0,0,0.01-0.01,0.03-0.01c0.36-0.24,0.81-0.39,1.3-0.39
					c0.22,0,0.42,0.03,0.61,0.1h0.01c1.02,0.26,1.76,1.19,1.76,2.3C370.58,279.32,369.51,280.39,368.2,280.39z"/>
				<path class="st11" d="M328.63,296.68c-0.39,0.11-0.81,0.16-1.23,0.16c-2.65,0-4.82-2.15-4.82-4.82c0-2.65,2.15-4.79,4.81-4.81
					v1.56C327.39,291.53,327.82,294.19,328.63,296.68z"/>
				<path class="st11" d="M331.91,303.33c-0.68,1.84-2.44,3.14-4.51,3.14c-2.65,0-4.82-2.15-4.82-4.82c0-2.65,2.17-4.81,4.82-4.81
					c0.46,0,0.91,0.07,1.34,0.19C329.51,299.29,330.58,301.4,331.91,303.33z"/>
				<path class="st11" d="M332.21,311.28c0,2.66-2.15,4.81-4.81,4.81c-2.66,0-4.81-2.15-4.81-4.81c0-2.66,2.15-4.81,4.81-4.81
					C330.06,306.46,332.21,308.62,332.21,311.28z"/>
				<path class="st11" d="M332.21,320.9c0,2.66-2.15,4.81-4.81,4.81c-2.66,0-4.81-2.15-4.81-4.81c0-2.66,2.15-4.81,4.81-4.81
					C330.06,316.09,332.21,318.24,332.21,320.9z"/>
				<path class="st11" d="M332.21,330.53c0,2.66-2.15,4.81-4.81,4.81c-2.66,0-4.81-2.15-4.81-4.81c0-2.66,2.15-4.81,4.81-4.81
					C330.06,325.71,332.21,327.87,332.21,330.53z"/>
			</g>
			<path class="st10" d="M357.69,285.86c0.35,0.47,0.56,1.06,0.56,1.7c0,1.57-1.27,2.84-2.84,2.84s-2.85-1.27-2.85-2.84
				c0-0.53,0.15-1.03,0.4-1.45"/>
			<path class="st11" d="M327.39,273.65v12.91c-3.32,0-6-2.68-6-6.01v-0.91c0-0.42,0.04-0.83,0.12-1.22
				c0.24-1.16,0.81-2.21,1.64-3.02C324.23,274.32,325.73,273.65,327.39,273.65z"/>
			<path class="st11" d="M388.1,279.65v0.91c0,3.32-2.67,6-5.97,6.01v-12.91c1.43,0.01,2.75,0.52,3.79,1.37
				c0.15,0.12,0.28,0.26,0.42,0.39c0.82,0.81,1.39,1.85,1.64,3.03C388.06,278.84,388.1,279.24,388.1,279.65z"/>
			<path class="st11" d="M344.29,224.38v25.18c-0.15,0.72-0.3,1.41-0.45,2.08c-1.69,7.2-4.13,12.05-6.61,15.3
				c-0.12,0.16-0.23,0.31-0.35,0.46c-0.35,0.45-0.72,0.85-1.06,1.25c-0.36,0.38-0.7,0.73-1.06,1.05c-0.18,0.16-0.35,0.33-0.51,0.47
				c-0.01,0-0.03,0.03-0.03,0.03c-0.85,0.51-1.34,1-1.46,1.14c-0.01,0.01-0.03,0.03-0.03,0.03c-0.2,0.15-0.42,0.3-0.64,0.42
				c-0.2,0.14-0.41,0.26-0.61,0.38c-0.2,0.11-0.39,0.22-0.58,0.31c-0.19,0.11-0.38,0.19-0.56,0.27c-0.27,0.12-0.53,0.23-0.76,0.33
				c-0.24,0.1-0.46,0.18-0.68,0.24c-0.27,0.08-0.51,0.15-0.72,0.19c-0.11,0.03-0.2,0.05-0.28,0.07c-0.35,0.07-0.54,0.08-0.54,0.08
				c-1.65,0-3.15,0.66-4.24,1.76v-24.62C323.15,237.87,332.19,227.06,344.29,224.38z"/>
			<path class="st10" d="M334.24,270.2c-0.5,0.43-0.99,0.81-1.46,1.14C332.9,271.2,333.38,270.71,334.24,270.2z"/>
			<path class="st11" d="M385.92,250.79v24.23c-1.04-0.85-2.36-1.35-3.79-1.37c-0.01,0-0.01,0-0.03,0
				c-0.57-0.08-1.12-0.16-1.66-0.26c-0.72-0.11-1.44-0.23-2.13-0.37c-0.76-0.13-1.49-0.28-2.21-0.43c-1.33-0.27-2.61-0.57-3.83-0.89
				c-0.62-0.15-1.22-0.31-1.8-0.49c-0.11-0.03-0.23-0.05-0.34-0.09c-0.54-0.16-1.07-0.31-1.6-0.49c-0.68-0.2-1.33-0.42-1.96-0.65
				c-0.45-0.16-0.89-0.32-1.33-0.49c-0.16-0.05-0.31-0.11-0.46-0.18c-0.03,0-0.04-0.01-0.07-0.03c-0.58-0.23-1.14-0.45-1.68-0.68
				c0,0-0.01,0-0.01-0.01c-0.57-0.24-1.12-0.49-1.65-0.74c-0.54-0.24-1.06-0.5-1.56-0.76c-0.5-0.26-0.99-0.51-1.45-0.79
				c-0.99-0.54-1.92-1.11-2.77-1.68c-0.37-0.24-0.73-0.49-1.07-0.75c-0.54-0.38-1.06-0.79-1.54-1.18c-0.36-0.28-0.7-0.58-1.04-0.87
				c-0.84-0.74-1.58-1.48-2.25-2.19c-0.31-0.34-0.6-0.66-0.88-1c-0.85-1.03-1.56-2.02-2.11-2.95c-0.16-0.26-0.31-0.51-0.46-0.77
				c-0.15-0.28-0.3-0.57-0.43-0.84c-0.07-0.12-0.13-0.26-0.19-0.39c-0.12-0.26-0.24-0.51-0.34-0.76c-0.2-0.49-0.37-0.95-0.51-1.34
				c-0.05-0.19-0.11-0.36-0.15-0.54c-0.04-0.11-0.07-0.22-0.1-0.33c-0.03-0.12-0.05-0.24-0.08-0.34c-0.03-0.15-0.05-0.27-0.08-0.38
				c-0.01-0.09-0.03-0.18-0.04-0.24c-0.01-0.15-0.03-0.22-0.03-0.22v-25.18c0.57-0.14,1.14-0.24,1.72-0.34
				c1.37-0.22,2.77-0.33,4.21-0.33h8.62C373.8,223.71,385.92,235.83,385.92,250.79z"/>
			<g>
				<g>
					<path class="st10" d="M347.07,278.12c-2.34-1.82-4.36-2.41-6-2.41"/>
					<path class="st10" d="M341.06,275.71c-0.7,0-1.35,0.12-1.91,0.3"/>
					<path class="st10" d="M339.12,276.02c-2.03,0.64-3.13,2.1-3.13,2.1"/>
					<path class="st11" d="M342.83,278.01c0,1.31-1.07,2.38-2.38,2.38c-1.31,0-2.38-1.07-2.38-2.38c0-0.83,0.42-1.56,1.05-1.99
						c0,0,0.01-0.01,0.03-0.01c0.36-0.24,0.81-0.39,1.3-0.39c0.22,0,0.42,0.03,0.61,0.1h0.01
						C342.09,275.97,342.83,276.9,342.83,278.01z"/>
				</g>
				<g>
					<path class="st10" d="M374.82,278.12c-2.34-1.82-4.36-2.41-6-2.41"/>
					<path class="st10" d="M368.81,275.71c-0.7,0-1.35,0.12-1.91,0.3"/>
					<path class="st10" d="M366.87,276.02c-2.03,0.64-3.13,2.1-3.13,2.1"/>
					<path class="st11" d="M370.58,278.01c0,1.31-1.07,2.38-2.38,2.38c-1.31,0-2.38-1.07-2.38-2.38c0-0.83,0.42-1.56,1.05-1.99
						c0,0,0.01-0.01,0.03-0.01c0.36-0.24,0.81-0.39,1.3-0.39c0.22,0,0.42,0.03,0.61,0.1h0.01
						C369.84,275.97,370.58,276.9,370.58,278.01z"/>
				</g>
			</g>
			<path class="st10" d="M346.56,296.97c0,0-2.71,3.5,1.69,4.29c4.4,0.79,19.97,1.58,16.24-4.29"/>
			<path class="st10" d="M334.26,270.17c2.19-1.35,6.84-2.97,14.03,0.51"/>
			<path class="st10" d="M364.79,269.32c-2.19,0.81-3.28,2.04-3.28,2.04"/>
			<g>
				<path class="st10" d="M326.29,335.21c0,0-4.85,2.83-2.95,10.44"/>
				<path class="st10" d="M328.5,335.21c0,0,4.47,2.83,2.57,10.44"/>
				<line class="st10" x1="327.4" y1="335.34" x2="327.4" y2="343.96"/>
			</g>
			<g>
				<g>
					<path class="st11" d="M386.95,291.39c0,2.65-2.17,4.81-4.82,4.81c-0.37,0-0.72-0.04-1.06-0.12c0.69-2.31,1.06-4.77,1.06-7.3
						v-2.21C384.78,286.57,386.95,288.72,386.95,291.39z"/>
					<path class="st11" d="M386.95,301.01c0,2.65-2.17,4.81-4.82,4.81c-1.91,0-3.57-1.12-4.33-2.75c1.37-2.06,2.46-4.32,3.2-6.74
						c0.36-0.09,0.74-0.13,1.14-0.13C384.78,296.19,386.95,298.34,386.95,301.01z"/>
					<path class="st11" d="M386.94,310.63c0,2.66-2.15,4.81-4.81,4.81c-2.66,0-4.81-2.15-4.81-4.81c0-2.66,2.15-4.81,4.81-4.81
						C384.79,305.82,386.94,307.97,386.94,310.63z"/>
					<path class="st11" d="M386.94,320.26c0,2.66-2.15,4.81-4.81,4.81c-2.66,0-4.81-2.15-4.81-4.81c0-2.66,2.15-4.81,4.81-4.81
						C384.79,315.44,386.94,317.6,386.94,320.26z"/>
					<path class="st11" d="M386.94,329.88c0,2.66-2.15,4.81-4.81,4.81c-2.66,0-4.81-2.15-4.81-4.81c0-2.66,2.15-4.81,4.81-4.81
						C384.79,325.07,386.94,327.22,386.94,329.88z"/>
				</g>
				<g>
					<path class="st10" d="M381.2,334.69c0,0-4.85,2.83-2.95,10.44"/>
					<path class="st10" d="M383.41,334.69c0,0,4.47,2.83,2.57,10.44"/>
					<line class="st10" x1="382.3" y1="334.82" x2="382.3" y2="343.44"/>
				</g>
			</g>
			<path class="st10" d="M355.4,254.85c0,0,7.75,9.37,22.41,11.3"/>
			<path class="st10" d="M364.79,254.85c0,0,6.26,5.24,12.53,5.65"/>
		</g>
	</g>
</g>
<path class="st13" d="M450.85,270.27c1.55-0.35,3.25-0.01,4.55,0.93"/>
<path class="st13" d="M450.2,267.44c2.17-0.94,4.84-0.59,6.69,0.88"/>
<path class="st13" d="M461.45,288.11c0.29,1.2-0.09,2.53-0.96,3.4"/>
<path class="st13" d="M465.81,286.73c0.99,2.73,0.21,5.96-1.86,8.01l-0.22,0.22"/>
</svg>
