<?xml version="1.0" encoding="utf-8"?>
<!-- Generator: Adobe Illustrator 25.0.1, SVG Export Plug-In . SVG Version: 6.00 Build 0)  -->
<svg version="1.1" id="Layer_1" xmlns="http://www.w3.org/2000/svg" xmlns:xlink="http://www.w3.org/1999/xlink" x="0px" y="0px"
	 viewBox="0 0 512.84 407.97" style="enable-background:new 0 0 512.84 407.97;" xml:space="preserve">
<style type="text/css">
	.st0{fill:#FFFFFF;}
	.st1{fill:#E6E7E8;}
	.st2{fill:#FCD9DE;}
	.st3{fill:#231F20;}
	.st4{fill:#CF202F;}
	.st5{fill:#FFFFFF;stroke:#231F20;stroke-linecap:round;stroke-linejoin:round;stroke-miterlimit:10;}
	.st6{clip-path:url(#SVGID_2_);}
	.st7{fill:#CF202F;stroke:#231F20;stroke-width:1.5;stroke-linecap:round;stroke-linejoin:round;stroke-miterlimit:10;}
	.st8{fill:none;stroke:#231F20;stroke-width:1.5;stroke-linecap:round;stroke-linejoin:round;stroke-miterlimit:10;}
	.st9{fill:#FFFFFF;stroke:#231F20;stroke-width:1.5;stroke-linecap:round;stroke-linejoin:round;stroke-miterlimit:10;}
	.st10{fill:#CF202F;stroke:#231F20;stroke-width:1.5448;stroke-linecap:round;stroke-linejoin:round;stroke-miterlimit:10;}
	.st11{fill:none;stroke:#231F20;stroke-linecap:round;stroke-linejoin:round;stroke-miterlimit:10;}
	.st12{fill:none;stroke:#231F20;stroke-miterlimit:10;}
	.st13{fill:none;stroke:#FFFFFF;stroke-width:0.75;stroke-linecap:round;stroke-linejoin:round;stroke-miterlimit:10;}
</style>
<g>
	<path class="st0" d="M-524.34,89.45c0,0-5-3.6-9.9,0.5c-4.9,4-1.8,31.5,3.3,35.5c0,0,9.5,1,9-12.8
		C-522.44,99.05-524.34,89.45-524.34,89.45z"/>
	<path class="st1" d="M-437.24,321.35h-9.5c0-0.1,0-0.1-0.1-0.2c-32-0.2-64-5.8-92.1-18c-5.8-2.5-11.4-5.3-16.8-8.3
		c-4.5-33.6-10.8-90.5-4.8-104.4c0.4-0.9,0.8-1.7,1.4-2.2c0-0.1,0.1-0.1,0.1-0.1c2.7-2.6,21-5.9,33.6-7.9l0,0
		c6.7-1.1,11.8-1.7,11.8-1.7l20.7,0.1c0,0,3.8,0.5,9.3,1.5c11.6,2.1,30.5,6.3,35.5,12.6c0.9,1.1,1.9,7.1,2.9,15.9
		c0,0.2,0.1,0.4,0.1,0.6c0.3,2.1,0.5,4.4,0.7,6.8c2,20.9,4.1,51.7,5.5,75.3l0,0c0.1,1.1,0.1,2.3,0.2,3.3c0.3,5.1,0.6,9.9,0.8,14v0.1
		c0.3,5.2,0.5,9.4,0.7,12.4C-437.24,321.15-437.24,321.25-437.24,321.35z"/>
	<polygon class="st2" points="-493.24,151.75 -511.94,152.45 -513.64,178.55 -492.94,178.65 	"/>
	<path class="st3" d="M-513.04,170.15l-12.3,10.1l11.8,10.1l10.3-11.8l8.7,11.8l10.9-10.3l-9.3-9.9
		C-492.94,170.15-501.94,179.65-513.04,170.15z"/>
	<path class="st2" d="M-525.34,100.75c0,0-12.3,52,22.1,56.5s28-62.4,17.6-62.9C-496.04,93.75-523.84,90.95-525.34,100.75z"/>
	<path class="st0" d="M-516.44,94.95c0,0,38.8,11.6,48.1-5.9c10-18.9-13.3-29-24.5-11.3c0,0-35.9-11-37.1,12.6
		C-530.64,103.55-516.44,94.95-516.44,94.95z"/>
	<path class="st2" d="M-525.34,122.75c0,0-4.9-4.2-8.3-1c-3.4,3.2,0.6,14.1,8.3,13C-517.64,133.75-525.34,122.75-525.34,122.75z"/>
	<path class="st0" d="M-530.14,119.75c0,0,1.7,1.3,2.7,5.8c0,0,1.9,0.8,3.3-0.7c1.5-1.5,5.3-20.6,4.6-27.1c-0.8-6.5-10.3-4.8-11.2,3
		C-531.64,108.55-530.14,119.75-530.14,119.75z"/>
	<path class="st2" d="M-481.44,122.75c0,0,4.9-4.2,8.3-1s-0.6,14.1-8.3,13C-489.24,133.75-481.44,122.75-481.44,122.75z"/>
	<path class="st0" d="M-474.94,120.65c0,0-3.2,0.4-4.2,4.8c0,0,0,0.8-1.4-0.7c-1.5-1.5-0.2-21.8,0.6-28.2c0.8-6.5,5.2-3.7,6,4.2
		C-473.04,108.65-474.94,120.65-474.94,120.65z"/>
	<path class="st0" d="M-511.14,91.05c-0.1,0.4-1.6,14.1-11.5,13c-10-1.1-2.1-17.3-2.1-17.3L-511.14,91.05z"/>
	<path class="st0" d="M-485.64,95.55c0,0-0.6,8.9,6,11.2s2.3-14.4,2.3-14.4L-485.64,95.55z"/>
	<path class="st1" d="M-538.84,303.25c-5.8-2.5-11.4-5.3-16.8-8.3c-6.2-3.5-12.1-7.4-17.7-11.6c-1.2-0.9-6.3-5.5-13.1-13.1
		c6.5-29.7,19.7-69.8,26-79.7c0.7-1.2,1.2-2,1.4-2.2c0-0.1,0.1-0.1,0.1-0.1L-538.84,303.25z"/>
</g>
<path class="st4" d="M-536.17,222.12C-536.17,222.22-536.17,222.22-536.17,222.12c-0.4,1.6-0.8,3.3-1.3,5c-0.3,1.4-0.7,2.8-1.1,4.2
	c-0.9,3.4-1.8,7-2.8,10.7c-4.9,18.5-10.6,38.5-14.3,51.2c-14.2,2.6-28.8,4.2-43.6,4.7v0.3h-9.8c0-0.1,0-0.1-0.1-0.2
	c-0.7-2.8-1.6-6.7-2.7-11.4c-1.1-4.8-2.4-10.3-3.7-16.3c-2.3-10.6-4.8-22.6-6.8-34.1c-0.6-3.7-1.2-7.4-1.8-10.9
	c-2.7-18.2-3.6-33.2,0-36.4c1.7-1.5,4.8-2.3,7.6-2.8l0,0c3.1-0.5,5.7-0.5,5.7-0.5l3.2,0.2l62.7,4.3c0,0,9.3,2.1,12.7,7.1
	C-531.07,198.82-532.97,208.82-536.17,222.12z"/>
<path class="st2" d="M-567.87,161.42l-15.9,2.3l-2.2,19.2l-24.8,2.8c0,0,0,10.2,20.7,14.4c32.9,6.7,45.2-9.9,45.2-9.9l-24-6.4
	L-567.87,161.42z"/>
<path class="st2" d="M-573.97,108.72c0,0-20.5,6.7-23.6,34.8c-3.3,29.8,23.5,28.1,36,17.1
	C-540.87,142.12-543.77,100.62-573.97,108.72z"/>
<path class="st2" d="M-557.27,148.62c0,0,4.4-3.7,8.5-0.1c4.1,3.6-3.3,12.4-10.7,8.6C-566.77,153.32-557.27,148.62-557.27,148.62z"
	/>
<path class="st0" d="M-574.07,104.72c0,0-3.5-14.7-17.4-9.8c-12.5,4.5-9,26.5,11.5,33c15.3,4.9,24.3-0.3,24.3-0.3s-4.2,7.1-3.4,12.6
	c0.8,5.5-0.3,9.7-0.3,9.7s3.6,0.8,7.5-3c0,0,15.8-11.2,11.6-27.2C-544.47,103.82-563.37,100.92-574.07,104.72z"/>
<path class="st0" d="M-552.07,108.52c0.7-2.3,6.6-26.9,32.7-27.7c26.2-0.8,43.7,42.8,2.3,55.1c-7.6,2.3-27.6,0.6-33.1-3.8
	C-555.67,127.62-552.07,108.52-552.07,108.52z"/>
<path class="st2" d="M-623.97,189.02c-8.8-3.3-36.6,51.5-43.3,80.5s77,14.4,77,14.4l-3.2-12.1c0,0-45.1-2-46.2-6.2
	c-1.1-4.2,15.7-40.2,15.7-40.2S-621.27,190.02-623.97,189.02z"/>
<polygon class="st4" points="-544.77,190.22 -506.47,186.92 -502.37,209.52 -541.27,233.02 "/>
<path class="st4" d="M-616.47,186.22c0,0-6.4-3.2-24.3,15.5l-12.9,19.9l24.7,20.7l16.8-14.7L-616.47,186.22z"/>
<path class="st1" d="M-521.27,227.52l-18.5,62.2c-5.2,1.3-10.5,2.4-15.8,3.4c-14.2,2.6-28.8,4.2-43.6,4.7l0.5-12.5v-0.2l0.5-13.6
	l1.8-45.7l54.6,1.2l4.3,0.1l5.7,0.1L-521.27,227.52z"/>
<path class="st2" d="M-604.97,272.12l7.1-7.7l-0.3,7.2l24.1-6c0,0,3.9,3.9,3.4,6.5s-9,11.9-32.9,13.6L-604.97,272.12z"/>
<g>
	<path class="st3" d="M415.19,338.12c-23.61,21.59-57.96,38.05-96.73,47.71c-6.2,1.55-12.52,2.86-18.84,4.06
		c-16.94,3.1-34.35,5.01-52,5.61c-0.12,0-0.36,0-0.48,0c-3.82,0.12-7.51,0.12-11.33,0.12c-38.17-0.24-76.33-6.92-109.85-21.47
		c-6.92-2.98-13.6-6.32-20.04-9.9c-7.39-4.17-14.43-8.83-21.11-13.84c-1.43-1.07-7.51-6.56-15.62-15.62
		C44.74,307.23,2.4,246.05,17.67,171.03C37.94,70.96,156.38-6.68,229.01,16.34c13.48,4.29,25.64,10.61,36.85,18.13
		c30.53,20.39,53.91,49.62,78.96,70.01c15.27,12.4,31.13,21.59,49.5,23.62c5.13,0.6,10.02,2.03,14.67,4.29
		c8.83,4.17,16.94,11.09,23.97,20.04C466.47,195,474.94,283.38,415.19,338.12z"/>
	<path class="st3" d="M415.19,338.12c-23.61,21.59-57.96,38.05-96.73,47.71c-6.2,1.55-12.52,2.86-18.84,4.06
		c-16.94,3.1-34.35,5.01-52,5.61c-0.12,0-0.36,0-0.48,0c-3.82,0.12-7.51,0.12-11.33,0.12c-38.17-0.24-76.33-6.92-109.85-21.47
		c-6.92-2.98-13.6-6.32-20.04-9.9c-7.39-4.17-14.43-8.83-21.11-13.84c-1.43-1.07-7.51-6.56-15.62-15.62
		C44.74,307.23,2.4,246.05,17.67,171.03C37.94,70.96,156.38-6.68,229.01,16.34c13.48,4.29,25.64,10.61,36.85,18.13
		c30.53,20.39,53.91,49.62,78.96,70.01c15.27,12.4,31.13,21.59,49.5,23.62c5.13,0.6,10.02,2.03,14.67,4.29
		c8.83,4.17,16.94,11.09,23.97,20.04C466.47,195,474.94,283.38,415.19,338.12z"/>
	<g>
		<path class="st4" d="M120.5,29.25c0,0-90.68,1.75-81.6,48.42s82.06,48.07,117.1,23.05C179.98,83.61,181.96,29.02,120.5,29.25z"/>
		<polygon class="st4" points="48.8,78.49 29.47,107.24 71.03,97.46 		"/>
	</g>
	<g>
		<path class="st1" d="M79.66,92.57l-4.9-42.08l10.76-1.23l1.77,15.8l13.75-1.63l-1.77-15.66l10.76-1.23l4.77,42.08l-10.76,1.23
			l-1.91-16.75l-13.75,1.63l1.91,16.75L79.66,92.57z"/>
		<path class="st1" d="M117.65,45.59l23.83-2.72l1.09,9.4l-13.07,1.5l0.82,6.54l12.66-1.5l1.09,9.4l-12.66,1.5l0.82,7.22l13.07-1.5
			l1.09,9.4l-23.83,2.72L117.65,45.59z"/>
		<path class="st1" d="M147.88,42.18l10.76-1.23l3.68,32.55l12.39-1.36l1.09,9.4l-23.15,2.72L147.88,42.18z"/>
		<path class="st1" d="M175.53,38.92l10.76-1.23l3.68,32.55l12.39-1.36l1.09,9.4l-23.15,2.72L175.53,38.92z"/>
		<path class="st1" d="M201.26,57.71c-1.63-13.75,8.03-23.42,19.61-24.78c12.94-1.5,23.42,7.63,24.65,19.2S238.85,75,225.77,76.5
			C212.57,78.13,202.62,68.6,201.26,57.71L201.26,57.71z M212.02,55.94c0.68,6.4,5.86,11.98,13.07,11.17
			c7.63-0.82,10.49-8.17,9.94-13.62c-0.68-5.45-5.17-11.98-12.8-11.17C214.61,43.27,211.34,50.08,212.02,55.94L212.02,55.94z"/>
		<path class="st1" d="M262.68,57.44l-9.67,1.09l-3.27-28.19l9.67-1.09L262.68,57.44z M264.31,71.33l-9.67,1.09l-1.09-9.67
			l9.67-1.09L264.31,71.33z"/>
	</g>
	<path class="st5" d="M407.91,334.02c13.83-2.65,52.7-53.78,52.7-53.78s29.03-10.91,30.25-14.06c0.67-1.67,0.37-4.77,0.02-7.29
		c-0.38-2.19-2.52-3.62-4.67-3.03l-18.95,4.78c0,0,3.58-10.91,0.68-12.49c-2.78-1.77-5.9,7.78-5.9,7.78s-5.86,15.37-9.62,17.97
		c-2.5,1.77-40.75,31.4-57.67,34.19"/>
	<g>
		<defs>
			<path id="SVGID_1_" d="M414.9,338.22c-23.61,21.59-57.96,38.05-96.73,47.71c-6.2,1.55-12.52,2.86-18.84,4.06
				c-16.94,3.1-34.35,5.01-52,5.61c-0.12,0-0.36,0-0.48,0c-3.82,0.12-7.51,0.12-11.33,0.12c-38.17-0.24-76.33-6.92-109.85-21.47
				c-6.92-2.98-13.6-6.32-20.04-9.9c-7.39-4.17-14.43-8.83-21.11-13.84c-1.43-1.07-7.51-6.56-15.62-15.62
				c-24.45-27.55-66.79-88.74-51.52-163.75C37.66,71.06,156.09-6.58,228.72,16.44c13.48,4.29,25.64,10.61,36.85,18.13
				c30.53,20.39,53.91,49.62,78.96,70.01c15.27,12.4,31.13,21.59,49.5,23.61c5.13,0.6,10.02,2.03,14.67,4.29
				c8.83,4.17,16.94,11.09,23.97,20.04C466.19,195.1,474.65,283.48,414.9,338.22z"/>
		</defs>
		<clipPath id="SVGID_2_">
			<use xlink:href="#SVGID_1_"  style="overflow:visible;"/>
		</clipPath>
		<g class="st6">
			<g>
				<g>
					<g>
						<path class="st7" d="M225.58,247.81c1.21,1.89,1.91,4.13,1.91,6.53c0,1.19-0.18,2.34-0.5,3.43c1.65,2.07,2.62,4.67,2.62,7.51
							c0,6.69-5.44,12.13-12.15,12.13c-2.22,0-4.31-0.6-6.1-1.67c-0.06,1.67-0.44,3.24-1.09,4.67c-1.91,4.17-6.14,7.07-11.02,7.07
							c-3.55,0-6.77-1.53-8.97-3.97c-0.28-0.28-0.54-0.6-0.76-0.91c-0.04-0.04-0.06-0.06-0.08-0.1c-0.32,0.48-0.69,0.91-1.09,1.33
							c-0.74,0.73-1.55,1.39-2.44,1.91c-1.83,1.11-3.97,1.75-6.26,1.75c-2.28,0-4.41-0.63-6.23-1.75c-0.28-0.16-0.56-0.34-0.81-0.54
							c-0.64-0.44-1.21-0.95-1.75-1.51c-2.13,3.51-5.98,5.86-10.38,5.86c-5.68,0-10.45-3.87-11.76-9.13c-0.26-0.95-0.4-1.97-0.4-3
							c0-0.95,0.12-1.89,0.34-2.78c-1.25,0.46-2.62,0.69-4.03,0.69c-6.69,0-12.13-5.42-12.13-12.13c0-2.84,0.97-5.44,2.6-7.51
							c-0.62-1.43-0.93-3-0.93-4.63c0-3.22,1.23-6.12,3.28-8.3c-3.4-1.19-5.84-4.45-5.84-8.3v-1.33c0-0.61,0.04-1.21,0.16-1.79
							c0.36-1.71,1.21-3.24,2.4-4.43c1.59-1.61,3.81-2.58,6.22-2.58v-9.37c7.53,2.8,20.77,6.12,33.16,1.21v6.53
							c0,3.38,2.74,6.12,6.12,6.12c3.4,0,6.14-2.74,6.14-6.12v-6.93c12.71,5.04,26.93,1.61,34.73-1.13c0,3.55,0.02,6.85,0.02,9.65
							h0.1c6.77,0,12.27,5.5,12.27,12.27C232.91,241.6,229.89,245.91,225.58,247.81z"/>
					</g>
					<g>
						<path class="st8" d="M220.63,172.22c0,1.03,0,4.33-0.04,8.88"/>
						<path class="st9" d="M220.59,181.09c-0.02,8.84-0.08,22.44-0.08,33.56c-7.8,2.74-22.02,6.18-34.73,1.13v6.93
							c0,3.38-2.74,6.12-6.14,6.12c-3.38,0-6.12-2.74-6.12-6.12v-6.53c-12.39,4.9-25.64,1.59-33.16-1.21v-39.89
							c0,0,3.95-7.61,17.51-8.52c13.56-0.89,10.01,10.35,27.9,4.27c12.61-4.29,22.48-0.87,28.81,3.97
							C217.22,176.8,219.24,179.05,220.59,181.09z"/>
					</g>
				</g>
				<g>
					<g>
						<path class="st9" d="M262.65,330.06v70.55H99.43v-70.55c0-10.74,3.4-20.69,9.21-28.79c4.09-5.74,9.39-10.58,15.51-14.12
							c1.97-1.15,4.01-2.16,6.14-3.04c8.1,20.79,28.32,35.52,51.97,35.52c23.29,0,43.27-14.3,51.61-34.59
							c1.33,0.58,2.62,1.25,3.89,1.99c6.28,3.61,11.7,8.58,15.85,14.5C259.31,309.59,262.65,319.42,262.65,330.06z"/>
					</g>
					<g>
						<line class="st8" x1="144.63" y1="280.61" x2="144.57" y2="280.49"/>
						<line class="st8" x1="217.52" y1="280.49" x2="217.46" y2="280.61"/>
					</g>
				</g>
				<path class="st9" d="M233.86,285.05c-8.34,20.29-28.32,34.59-51.61,34.59c-23.65,0-43.87-14.73-51.97-35.52
					c1.51-0.62,3.04-1.15,4.63-1.63c3.1-0.93,6.37-1.57,9.71-1.87c0.58-0.06,1.17-0.1,1.75-0.12c0.75-0.06,1.55-0.08,2.34-0.08
					c1.31,5.26,6.08,9.13,11.76,9.13c4.41,0,8.26-2.34,10.38-5.86c0.54,0.55,1.11,1.07,1.75,1.51c0.26,0.2,0.54,0.38,0.81,0.54
					c1.83,1.11,3.95,1.75,6.23,1.75c2.28,0,4.43-0.63,6.26-1.75c0.89-0.52,1.71-1.17,2.44-1.91c0.4-0.42,0.78-0.85,1.09-1.33
					c0.02,0.04,0.04,0.06,0.08,0.1c0.22,0.32,0.48,0.64,0.76,0.91c2.2,2.44,5.42,3.97,8.97,3.97c4.88,0,9.11-2.9,11.02-7.07h2.74
					c1.49,0,2.96,0.06,4.45,0.2h0.02c1.63,0.14,3.2,0.36,4.79,0.66v0.02c1.67,0.3,3.32,0.72,4.9,1.19
					C229.47,283.18,231.71,284.01,233.86,285.05z"/>
				<line class="st8" x1="189.52" y1="282.5" x2="189.52" y2="299.66"/>
				<line class="st8" x1="172.6" y1="299.66" x2="172.6" y2="285.21"/>
				<path class="st8" d="M172.6,236.57c0,0,7.08,6.21,13.18,0"/>
				<line class="st8" x1="173.53" y1="216.18" x2="173.53" y2="209.96"/>
				<line class="st8" x1="185.78" y1="215.78" x2="185.78" y2="209.96"/>
				<g>
					<path class="st8" d="M193.38,202.03c0-5.03,12.31-9.4,15.08,0"/>
					<line class="st8" x1="150.34" y1="188.58" x2="165.42" y2="188.58"/>
					<path class="st8" d="M193.38,188.58c0,0,3.91-2.41,5.81-2.45c0.99-0.02,2.82,2.49,4.78,3.08c2.19,0.65,4.48-0.63,4.48-0.63"/>
				</g>
				<path class="st7" d="M140.37,174.88c0,0,3.95-7.41,17.51-8.32c13.56-0.89,10.01,10.35,27.9,4.27
					c12.61-4.29,22.48-0.87,28.81,3.97c2.62,2.01,4.65,4.25,6,6.29c0.02,0.02,0.02,0.04,0.04,0.06c0,0,2.12-49.09-9.23-57.45
					c0,0-11.68,5.16-15.33,6.99c0,0-11.86-16.72-32.23-10.64c0,0,4.07,2.74,1.57,14.59c0,0-22.92-13.73-39.94,0.25
					c0,0,27.42,0,28.86,6.09c0,0-33.38-11.47-36.68,8.6l17.14,8.07L140.37,174.88z"/>
				<path class="st8" d="M173.53,125.66c0,0,10.84,1.54,15.71,10.75"/>
				<path class="st8" d="M208.46,132.31c0,0,6.69,17.72,6.15,42.51"/>
				<g>
					<path class="st9" d="M229.59,213.98v1.33c0,4.88-3.91,8.82-8.8,8.82v-18.94c2.42,0,4.63,0.97,6.24,2.58
						c0.42,0.42,0.79,0.87,1.11,1.37v0.02c0.58,0.87,1.01,1.85,1.23,2.9c0.02,0.04,0.06,0.1,0.06,0.14
						C229.53,212.77,229.59,213.36,229.59,213.98z"/>
				</g>
				<g>
					<path class="st9" d="M140.37,205.18v18.94c-4.88,0-8.8-3.93-8.8-8.82v-1.33c0-0.62,0.06-1.21,0.16-1.79
						c0-0.04,0.04-0.1,0.06-0.14c0.22-1.05,0.65-2.03,1.23-2.9v-0.02c0.32-0.5,0.7-0.95,1.11-1.37
						C135.74,206.15,137.95,205.18,140.37,205.18z"/>
				</g>
				<path class="st8" d="M130.28,284.11c1.51-0.62,3.04-1.15,4.63-1.63c3.1-0.93,6.37-1.57,9.71-1.87c0.58-0.06,1.17-0.1,1.75-0.12
					c0.75-0.06,1.55-0.08,2.34-0.08c1.31,5.26,6.08,9.13,11.76,9.13c4.41,0,8.26-2.34,10.38-5.86c0.54,0.55,1.11,1.07,1.75,1.51
					c0.26,0.2,0.54,0.38,0.81,0.54c1.83,1.11,3.95,1.75,6.23,1.75c2.28,0,4.43-0.63,6.26-1.75c0.89-0.52,1.71-1.17,2.44-1.91
					c0.4-0.42,0.78-0.85,1.09-1.33c0.02,0.04,0.04,0.06,0.08,0.1c0.22,0.32,0.48,0.64,0.76,0.91c2.2,2.44,5.42,3.97,8.97,3.97
					c4.88,0,9.11-2.9,11.02-7.07h2.74c1.49,0,2.96,0.06,4.45,0.2h0.02c1.63,0.14,3.2,0.36,4.79,0.66v0.02
					c1.67,0.3,3.32,0.72,4.9,1.19c2.3,0.69,4.55,1.53,6.69,2.56"/>
			</g>
			<g>
				<g>
					<g>
						<path class="st9" d="M372.55,270.97v55.98h-18.7c-0.35-12.16-9.74-77.19-11.49-94.29c0.69,0.16,1.37,0.35,2.05,0.55
							c8.59,2.55,15.95,7.96,20.97,15.11C369.9,254.73,372.55,262.53,372.55,270.97z"/>
						<path class="st9" d="M273.26,232.65c-2.21,16.06-9.94,82.13-11.06,94.3h-19.16v-55.98c0-8.53,2.69-16.42,7.31-22.85
							c5.03-7.06,12.32-12.39,20.83-14.91C271.86,233.01,272.55,232.82,273.26,232.65z"/>
						<path class="st7" d="M353.85,326.96H262.2c1.12-12.18,8.86-78.25,11.06-94.3c0.88-0.2,1.78-0.39,2.68-0.54
							c2.11-0.35,4.29-0.54,6.49-0.54h2.1c-1.69,3.45-2.63,7.33-2.63,11.42c0,14.39,11.66,26.05,26.05,26.05
							c14.39,0,26.05-11.66,26.05-26.05c0-4.1-0.94-7.97-2.63-11.42h1.8c2.76,0,5.45,0.28,8.05,0.83c0.38,0.08,0.77,0.16,1.15,0.25
							C344.11,249.76,353.5,314.79,353.85,326.96z"/>
						<path class="st9" d="M333.99,243c0,14.39-11.66,26.05-26.05,26.05c-14.39,0-26.05-11.66-26.05-26.05
							c0-4.1,0.95-7.97,2.63-11.42h16.55v-6.81c1.56,0.27,3.17,0.39,4.81,0.39h3.84c1.62,0,3.21-0.13,4.77-0.39v6.81h16.86
							C333.05,235.03,333.99,238.91,333.99,243z"/>
						<g>
							<line class="st8" x1="301.07" y1="240.54" x2="301.07" y2="231.57"/>
							<line class="st8" x1="314.49" y1="240.54" x2="314.49" y2="231.57"/>
						</g>
					</g>
					<g>
						<path class="st8" d="M339.63,177.63v15.03c0,0,0.02,0,0.03,0"/>
						<path class="st9" d="M339.66,177.63v17.6c0,2.95-0.42,5.8-1.23,8.49c-0.02,0.1-0.05,0.21-0.1,0.3
							c-0.76,2.52-1.87,4.9-3.23,7.09h-0.02c-0.14,0.25-0.32,0.5-0.47,0.76c-4.54,6.76-11.76,11.57-20.12,12.91
							c-1.56,0.27-3.15,0.39-4.77,0.39h-3.84c-1.64,0-3.25-0.13-4.81-0.39c-8.23-1.32-15.33-6.02-19.87-12.61
							c-0.27-0.38-0.52-0.77-0.76-1.17c-1.2-1.92-2.19-3.97-2.93-6.16c-0.05-0.14-0.1-0.27-0.13-0.41c-0.95-2.9-1.45-5.99-1.45-9.2
							v-17.6c0,0,2.14-7.17,10.95-14.67h0.02c2.3-1.94,5.07-3.92,8.4-5.8c15.96-9.03,21.63-11.35,22.41-15.73
							c0,0,1.91,9.83,12.05,16.84c2.33,1.61,4.11,3.37,5.5,5.14C340.64,170.36,339.7,177.63,339.66,177.63z"/>
					</g>
					<path class="st9" d="M275.94,177.63v15.03c-3.86,0-6.98-3.12-6.98-7v-1.06c0-0.49,0.05-0.96,0.14-1.42
						c0.28-1.36,0.94-2.57,1.91-3.51C272.27,178.4,274.02,177.63,275.94,177.63z"/>
					<path class="st9" d="M346.61,184.61v1.06c0,3.86-3.1,6.98-6.95,7v-15.03c1.67,0.02,3.2,0.6,4.41,1.59
						c0.17,0.14,0.33,0.3,0.49,0.46c0.96,0.95,1.62,2.16,1.91,3.53C346.57,183.66,346.61,184.13,346.61,184.61z"/>
				</g>
				<path class="st9" d="M375.23,188.86c0,0-4.11,26.65-40.12,22.25c1.36-2.19,2.47-4.57,3.23-7.09c0.05-0.09,0.08-0.2,0.1-0.3
					c0.8-2.69,1.23-5.55,1.23-8.49v-2.57c3.85-0.02,6.95-3.14,6.95-7v-1.06c0-0.47-0.05-0.94-0.14-1.4
					c-0.28-1.37-0.94-2.58-1.91-3.53c-0.16-0.16-0.32-0.32-0.49-0.46c-1.21-0.99-2.74-1.58-4.41-1.59c0.03,0,0.98-7.26-4.4-14.21
					c-1.39-1.76-3.17-3.53-5.5-5.14c-10.15-7.01-12.05-16.84-12.05-16.84c-0.77,4.38-6.44,6.7-22.41,15.73
					c-3.33,1.88-6.1,3.86-8.4,5.8h-0.02c-8.81,7.5-10.95,14.67-10.95,14.67c-1.92,0-3.67,0.77-4.93,2.05
					c-0.96,0.95-1.62,2.16-1.91,3.51c-0.1,0.46-0.14,0.93-0.14,1.42v1.06c0,3.88,3.12,7,6.98,7v2.57c0,3.21,0.5,6.3,1.45,9.2
					c0.03,0.14,0.08,0.27,0.13,0.41c0.74,2.19,1.73,4.24,2.93,6.16c-38.31,1.92-40.61-21.65-40.61-21.65
					c15.11-4.21,20.01-21.21,20.23-30.33c0.13-5.53,0-19.02,0-19.02c0-21.76,17.63-39.39,39.39-39.39h16.66
					c21.76,0,39.39,17.63,39.39,39.39c0,0-0.16,13.49,0,19.02C355.78,167.97,359.66,182.02,375.23,188.86z"/>
				<line class="st8" x1="280.46" y1="211" x2="280.45" y2="211"/>
				<path class="st8" d="M332.86,180.5c-1.7-5.88-12.53-7.73-16.4,0"/>
				<path class="st8" d="M298.29,180.5c-1.7-5.88-12.53-7.73-16.4,0"/>
				<path class="st8" d="M306.04,185.73v11.87c0,2.09,1.7,3.79,3.79,3.79s3.79-1.7,3.79-3.79v-4.04"/>
				<path class="st8" d="M319,209.58c0,0-10.31,4.56-19.58,0"/>
				<path class="st8" d="M306.04,130.12c0,13.68-37.56,25.71-35.7,40.26"/>
				<path class="st8" d="M268.96,157.29c0,0,0.89-8.25,16.66-22.31c6.84-6.84,9.94-11.64,9.94-18.67"/>
				<path class="st8" d="M298.29,164.37c-4.68-0.98-8.41-1.37-11.38-1.42"/>
				<path class="st8" d="M318.05,164.37c8.54-1.8,13.94-1.61,17.22-0.96"/>
			</g>
			<g>
				<g>
					<g>
						<path class="st9" d="M44.98,244.82v15.03c-3.86,0-6.98-3.12-6.98-7v-1.06c0-0.49,0.05-0.96,0.14-1.42
							c0.28-1.36,0.94-2.57,1.91-3.51C41.31,245.59,43.06,244.82,44.98,244.82z"/>
					</g>
					<g>
						<path class="st9" d="M115.68,251.8v1.06c0,3.88-3.12,7-6.98,7v-15.03c1.92,0,3.67,0.77,4.95,2.05
							c0.91,0.91,1.58,2.09,1.86,3.4c0.02,0.03,0.03,0.08,0.03,0.11C115.64,250.84,115.68,251.31,115.68,251.8z"/>
					</g>
					<g>
						<path class="st9" d="M108.67,259.85v-8.93c-0.2-7.04,0-19.9,0-23.46c-7.83-18.86-15.73-26.74-15.73-26.74
							s-20.34,4.84-30.3,10.38c-9.52,4.82-15.79,9.33-17.02,16.36c-0.42,1.99-0.65,4.05-0.65,6.18v28.79
							c0,14.89,10.89,27.24,25.13,29.54h13.43c0.14-0.02,0.28-0.05,0.41-0.08c14.06-2.43,24.75-14.7,24.75-29.47v-2.57
							C108.69,259.85,108.69,259.85,108.67,259.85z M62.02,244.6c-1.55,0-2.79-1.24-2.79-2.79c0-1.54,1.25-2.8,2.79-2.8
							c1.54,0,2.8,1.26,2.8,2.8C64.82,243.36,63.56,244.6,62.02,244.6z M92.88,244.6c-1.56,0-2.81-1.24-2.81-2.79
							c0-1.54,1.24-2.8,2.81-2.8c1.54,0,2.79,1.26,2.79,2.8C95.67,243.36,94.43,244.6,92.88,244.6z"/>
						<path class="st8" d="M115.51,250.4c0,0,0-0.05,0-0.13"/>
						<path class="st9" d="M129.12,214.76c1.68-2.04,2.69-4.66,2.69-7.51c0-4.1-2.09-7.72-5.26-9.84c0.26-0.98,0.42-2,0.42-3.07
							c0-6.53-5.3-11.83-11.83-11.83c-0.51,0-1.01,0.04-1.51,0.11c0.24-0.93,0.38-1.91,0.38-2.91c0-6.53-5.3-11.83-11.83-11.83
							c-2.14,0-4.14,0.58-5.88,1.57c-0.92-1.2-1.67-2.15-2.27-2.88c-1.9-3.99-5.96-6.76-10.68-6.76c-4.47,0-8.35,2.48-10.36,6.13
							c-2.17-2.54-5.39-4.16-8.99-4.16c-5.53,0-10.16,3.8-11.45,8.92c-0.13,0-0.25-0.02-0.38-0.02c-6.53,0-11.83,5.3-11.83,11.83
							c0,0.02,0,0.03,0,0.05c-6.11,0.46-10.94,5.55-10.94,11.78c0,1.77,0.4,3.43,1.09,4.94c-3.84,1.96-6.47,5.93-6.47,10.53
							c0,2.62,0.86,5.03,2.3,6.99c-3.52,2.05-5.89,5.85-5.89,10.22c0,6.53,5.3,11.83,11.83,11.83c2.14,0,4.14-0.58,5.87-1.57v13.1
							c0.28-1.36,0.94-2.57,1.91-3.51c1.26-1.28,3.01-2.05,4.93-2.05v-11.19c0-2.13,0.22-4.19,0.65-6.18
							c1.23-7.03,7.5-11.53,17.02-16.36c9.96-5.55,30.3-10.38,30.3-10.38s7.9,7.88,15.73,26.74c0,3.56-0.2,16.42,0,23.46v-6.1
							c0,0,0.02,0,0.03,0c1.92,0,3.67,0.77,4.95,2.05c0.91,0.91,1.58,2.09,1.86,3.4c0.03-1,0.2-7.82,0.26-16.23
							c1.64,0.85,3.49,1.34,5.46,1.34c6.53,0,11.83-5.3,11.83-11.83C133.06,220.06,131.53,216.93,129.12,214.76z M99.33,198.35
							c0.31,0.5,5.31,8.81,7.15,13.98L99.33,198.35z"/>
					</g>
				</g>
				<g>
					<path class="st8" d="M73.46,250.45v11.87c0,2.09,1.7,3.79,3.79,3.79c2.09,0,3.79-1.7,3.79-3.79v-11.87"/>
					<path class="st8" d="M69.46,274.21c0,0,6.71,7.06,15.58,0"/>
					<g>
						<g>
							<path class="st9" d="M64.82,241.81c0,1.54-1.26,2.79-2.8,2.79c-1.55,0-2.79-1.24-2.79-2.79c0-1.54,1.25-2.8,2.79-2.8
								C63.56,239.01,64.82,240.27,64.82,241.81z"/>
							<path class="st8" d="M54.5,241.83c0,0,4.23-5.59,14.26-1.24"/>
						</g>
						<g>
							<path class="st9" d="M95.67,241.81c0,1.54-1.24,2.79-2.79,2.79c-1.56,0-2.81-1.24-2.81-2.79c0-1.54,1.24-2.8,2.81-2.8
								C94.43,239.01,95.67,240.27,95.67,241.81z"/>
							<path class="st8" d="M85.74,241.83c0,0,4.23-5.59,14.26-1.24"/>
						</g>
					</g>
					<g>
						<line class="st8" x1="93.49" y1="224.87" x2="100.62" y2="228.3"/>
						<path class="st8" d="M53.88,230.85c0,0,4.87-3.43,7.08-4.26"/>
					</g>
				</g>
				<path class="st8" d="M44.41,204.48c0,0-0.44-7.36,3.59-10.34c3.32-2.46,3.87-2.89,7.36-6.75"/>
				<g>
					<g>
						<path class="st9" d="M106.15,298.93l-23.01,95.22H71.36l-23.01-95.22c0.46-0.05,0.91-0.08,1.37-0.1
							c0.71-0.05,1.43-0.06,2.16-0.06h18.64v-6.81h13.02c0.14-0.02,0.28-0.05,0.41-0.08v6.89h18.66
							C103.8,298.78,104.99,298.82,106.15,298.93z"/>
						<path class="st7" d="M71.36,394.15H61.34L44.1,331.52l4.21-5.47l-16.21-21.93c2.66-1.56,5.53-2.8,8.54-3.7
							c2.47-0.74,5.06-1.24,7.72-1.48L71.36,394.15z"/>
						<path class="st9" d="M61.34,394.15H12.49v-55.98c0-8.53,2.7-16.42,7.31-22.85c3.25-4.55,7.44-8.4,12.29-11.21l16.21,21.93
							l-4.21,5.47L61.34,394.15z"/>
						<path class="st9" d="M142,338.17v55.98H92.96l17.11-62.63l-4.22-5.47l16.39-22.03c4.99,2.87,9.3,6.8,12.59,11.5
							C139.35,321.92,142,329.72,142,338.17z"/>
						<path class="st7" d="M105.85,326.05l4.22,5.47l-17.11,62.63h-9.82l23.01-95.22c1.29,0.11,2.55,0.28,3.8,0.52v0.02
							c1.32,0.24,2.63,0.57,3.91,0.94c2.96,0.88,5.77,2.1,8.38,3.61L105.85,326.05z"/>
						<g>
							<line class="st8" x1="70.55" y1="310.89" x2="70.55" y2="298.78"/>
							<line class="st8" x1="83.97" y1="310.89" x2="83.97" y2="298.78"/>
						</g>
					</g>
					<g>
						<line class="st8" x1="48.35" y1="298.93" x2="48.3" y2="298.84"/>
						<line class="st8" x1="106.2" y1="298.84" x2="106.15" y2="298.93"/>
					</g>
				</g>
			</g>
			<g>
				<path class="st8" d="M355.05,256.36c0,1.53-1.24,2.77-2.77,2.77c-1.53,0-2.77-1.24-2.77-2.77c0-0.96,0.49-1.81,1.23-2.32
					c0,0,0.02-0.02,0.03-0.02c0.42-0.28,0.94-0.46,1.51-0.46c0.25,0,0.49,0.03,0.71,0.11H353
					C354.18,253.97,355.05,255.06,355.05,256.36z"/>
				<path class="st8" d="M387.35,256.36c0,1.53-1.24,2.77-2.77,2.77c-1.53,0-2.77-1.24-2.77-2.77c0-0.96,0.49-1.81,1.23-2.32
					c0,0,0.02-0.02,0.03-0.02c0.42-0.28,0.94-0.46,1.51-0.46c0.25,0,0.49,0.03,0.71,0.11h0.02
					C386.48,253.97,387.35,255.06,387.35,256.36z"/>
				<g>
					<path class="st9" d="M387.35,314.2c0,10.18-8.24,18.42-18.42,18.44c0,0-0.02-0.02-0.02-0.03c0,0.02,0,0.03,0,0.03
						c-10.19-0.02-18.42-8.26-18.42-18.44c0-3.26,0.85-6.32,2.33-8.97h9.38v-6.81c1.56,0.27,3.17,0.39,4.81,0.39h3.85
						c1.62,0,3.21-0.12,4.77-0.39v6.81h9.39C386.5,307.88,387.35,310.94,387.35,314.2z"/>
					<path class="st7" d="M423.94,400.61H314.8c0,0-2.6-54.44,9.96-65.36c13.25-8.37,12.31-29.48,12.31-29.48
						c2.11-0.35,4.29-0.54,6.49-0.54h9.27c-1.48,2.65-2.33,5.7-2.33,8.97c0,10.18,8.23,18.42,18.4,18.44h0.03
						c10.18-0.02,18.42-8.26,18.42-18.44c0-3.26-0.85-6.32-2.33-8.97h9.27c2.76,0,5.45,0.28,8.05,0.84c0,0-7.68,19.59,5.57,27.95
						C420.45,344.94,423.94,400.61,423.94,400.61z"/>
					<path class="st9" d="M329.79,336.54c-12.56,10.92-14.99,64.08-14.99,64.08h-10.64v-55.99c0-8.53,2.69-16.42,7.31-22.85
						c5.03-7.06,12.32-12.38,20.83-14.91c1.54-0.47,3.14-0.84,4.76-1.1C337.07,305.77,343.04,328.17,329.79,336.54z"/>
					<g>
						<line class="st8" x1="362.2" y1="314.19" x2="362.2" y2="305.23"/>
						<line class="st8" x1="375.62" y1="314.19" x2="375.62" y2="305.23"/>
					</g>
				</g>
				<g>
					<path class="st9" d="M400.76,266.31v-15.03c-0.66-0.09-1.31-0.19-1.94-0.3c-0.84-0.13-1.67-0.27-2.47-0.43
						c-0.88-0.16-1.73-0.33-2.57-0.5c-1.54-0.32-3.04-0.66-4.46-1.04c-0.72-0.17-1.42-0.36-2.1-0.57c-0.13-0.03-0.27-0.06-0.39-0.11
						c-0.63-0.17-1.26-0.36-1.86-0.57c-0.79-0.24-1.54-0.49-2.29-0.76c-0.52-0.19-1.04-0.38-1.54-0.57
						c-0.19-0.06-0.36-0.13-0.54-0.2c-0.03,0-0.05-0.02-0.08-0.03c-0.68-0.27-1.32-0.52-1.95-0.79c0,0-0.02,0-0.02-0.02
						c-0.66-0.28-1.31-0.57-1.92-0.87c-0.63-0.28-1.23-0.57-1.81-0.88c-0.58-0.3-1.15-0.6-1.68-0.91c-1.15-0.63-2.24-1.29-3.23-1.95
						c-0.43-0.28-0.85-0.57-1.24-0.87c-0.63-0.44-1.23-0.91-1.8-1.37c-0.42-0.33-0.82-0.68-1.21-1.01
						c-0.98-0.87-1.84-1.72-2.62-2.55c-0.38-0.39-0.71-0.79-1.02-1.17c-0.99-1.2-1.81-2.35-2.46-3.43c-0.19-0.3-0.36-0.6-0.54-0.9
						c-0.17-0.33-0.35-0.66-0.5-0.98c-0.09-0.16-0.16-0.32-0.22-0.46c-0.14-0.3-0.28-0.6-0.39-0.88c-0.24-0.57-0.43-1.1-0.6-1.56
						c-0.06-0.22-0.13-0.42-0.17-0.63c-0.05-0.13-0.08-0.25-0.11-0.38c-0.03-0.14-0.06-0.28-0.09-0.39
						c-0.03-0.17-0.06-0.32-0.1-0.44c-0.02-0.11-0.03-0.2-0.05-0.28c-0.02-0.17-0.03-0.25-0.03-0.25c-0.17,0.84-0.35,1.64-0.52,2.43
						c-1.97,8.38-4.81,14.02-7.69,17.81c-0.14,0.19-0.27,0.36-0.41,0.54c-0.41,0.52-0.84,0.99-1.23,1.45
						c-0.42,0.44-0.82,0.85-1.23,1.23c-0.2,0.19-0.41,0.38-0.6,0.55c-0.02,0-0.03,0.03-0.03,0.03c-0.58,0.5-1.15,0.95-1.7,1.32
						c-0.02,0.02-0.03,0.03-0.03,0.03c-0.24,0.17-0.49,0.35-0.74,0.49c-0.24,0.16-0.47,0.3-0.71,0.44
						c-0.24,0.13-0.46,0.25-0.68,0.36c-0.22,0.12-0.44,0.22-0.65,0.31c-0.32,0.14-0.61,0.27-0.88,0.38
						c-0.28,0.11-0.54,0.2-0.79,0.28c-0.32,0.1-0.6,0.17-0.84,0.22c-0.13,0.03-0.24,0.06-0.33,0.08c-0.41,0.08-0.63,0.09-0.63,0.09
						v17.6c0,3.21,0.5,6.3,1.45,9.2c0.03,0.14,0.08,0.27,0.13,0.41c0.9,2.63,2.14,5.09,3.69,7.33c4.54,6.59,11.64,11.28,19.87,12.61
						c1.56,0.27,3.17,0.39,4.81,0.39h3.85c1.62,0,3.21-0.12,4.77-0.39c8.37-1.34,15.58-6.14,20.12-12.9
						c1.59-2.4,2.87-5.03,3.72-7.85c0.05-0.09,0.08-0.2,0.09-0.3c0.8-2.69,1.23-5.55,1.23-8.49v-2.57
						C400.78,266.31,400.78,266.31,400.76,266.31z M352.28,259.13c-1.53,0-2.77-1.24-2.77-2.77c0-0.96,0.49-1.81,1.23-2.32
						c0,0,0.02-0.02,0.03-0.02c0.42-0.28,0.94-0.46,1.51-0.46c0.25,0,0.49,0.03,0.71,0.11H353c1.18,0.3,2.05,1.39,2.05,2.68
						C355.05,257.88,353.8,259.13,352.28,259.13z M384.58,259.13c-1.53,0-2.77-1.24-2.77-2.77c0-0.96,0.49-1.81,1.23-2.32
						c0,0,0.02-0.02,0.03-0.02c0.42-0.28,0.94-0.46,1.51-0.46c0.25,0,0.49,0.03,0.71,0.11h0.02c1.18,0.3,2.05,1.39,2.05,2.68
						C387.35,257.88,386.11,259.13,384.58,259.13z"/>
					<path class="st9" d="M338.52,278.08c-0.46,0.13-0.94,0.19-1.43,0.19c-3.09,0-5.61-2.51-5.61-5.61c0-3.09,2.51-5.58,5.59-5.59
						v1.81C337.07,272.1,337.57,275.18,338.52,278.08z"/>
					<path class="st9" d="M342.33,285.82c-0.79,2.14-2.84,3.66-5.25,3.66c-3.09,0-5.61-2.51-5.61-5.61c0-3.09,2.52-5.59,5.61-5.59
						c0.54,0,1.06,0.08,1.56,0.22C339.54,281.13,340.79,283.58,342.33,285.82z"/>
					<path class="st9" d="M342.69,295.07c0,3.09-2.51,5.6-5.6,5.6c-3.09,0-5.6-2.51-5.6-5.6c0-3.09,2.51-5.6,5.6-5.6
						C340.18,289.47,342.69,291.98,342.69,295.07z"/>
					<path class="st9" d="M342.69,306.28c0,3.09-2.51,5.6-5.6,5.6c-3.09,0-5.6-2.51-5.6-5.6c0-3.09,2.51-5.6,5.6-5.6
						C340.18,300.68,342.69,303.19,342.69,306.28z"/>
					<path class="st9" d="M342.69,317.48c0,3.09-2.51,5.6-5.6,5.6c-3.09,0-5.6-2.51-5.6-5.6c0-3.09,2.51-5.6,5.6-5.6
						C340.18,311.88,342.69,314.39,342.69,317.48z"/>
				</g>
				<path class="st8" d="M372.34,265.49c0.41,0.55,0.65,1.24,0.65,1.98c0,1.83-1.48,3.31-3.31,3.31c-1.83,0-3.31-1.48-3.31-3.31
					c0-0.62,0.17-1.2,0.46-1.69"/>
				<path class="st9" d="M337.07,251.28v15.03c-3.86,0-6.98-3.12-6.98-7v-1.06c0-0.49,0.05-0.96,0.14-1.42
					c0.28-1.36,0.95-2.57,1.91-3.51C333.4,252.05,335.15,251.28,337.07,251.28z"/>
				<path class="st9" d="M407.74,258.26v1.06c0,3.86-3.11,6.98-6.95,7v-15.03c1.67,0.02,3.2,0.6,4.41,1.59
					c0.17,0.14,0.33,0.3,0.49,0.46c0.96,0.94,1.62,2.16,1.91,3.53C407.69,257.32,407.74,257.79,407.74,258.26z"/>
				<path class="st9" d="M356.75,193.92v29.31c-0.17,0.84-0.35,1.64-0.52,2.43c-1.97,8.38-4.81,14.02-7.69,17.81
					c-0.14,0.19-0.27,0.36-0.41,0.54c-0.41,0.52-0.84,0.99-1.23,1.45c-0.42,0.44-0.82,0.85-1.23,1.23c-0.2,0.19-0.41,0.38-0.6,0.55
					c-0.02,0-0.03,0.03-0.03,0.03c-0.99,0.6-1.56,1.17-1.7,1.32c-0.02,0.02-0.03,0.03-0.03,0.03c-0.24,0.17-0.49,0.35-0.74,0.49
					c-0.24,0.16-0.47,0.3-0.71,0.44c-0.24,0.13-0.46,0.25-0.68,0.36c-0.22,0.12-0.44,0.22-0.65,0.31c-0.32,0.14-0.61,0.27-0.88,0.38
					c-0.28,0.11-0.54,0.2-0.79,0.28c-0.32,0.1-0.6,0.17-0.84,0.22c-0.13,0.03-0.24,0.06-0.33,0.08c-0.41,0.08-0.63,0.09-0.63,0.09
					c-1.92,0-3.67,0.77-4.93,2.05v-28.66C332.14,209.63,342.66,197.04,356.75,193.92z"/>
				<path class="st8" d="M345.04,247.26c-0.58,0.5-1.15,0.95-1.7,1.32C343.48,248.43,344.05,247.86,345.04,247.26z"/>
				<path class="st9" d="M405.2,224.67v28.21c-1.21-0.99-2.74-1.58-4.41-1.59c-0.02,0-0.02,0-0.03,0c-0.66-0.09-1.31-0.19-1.94-0.3
					c-0.84-0.13-1.67-0.27-2.47-0.43c-0.88-0.16-1.73-0.33-2.57-0.5c-1.54-0.32-3.04-0.66-4.46-1.04c-0.72-0.17-1.42-0.36-2.1-0.57
					c-0.13-0.03-0.27-0.06-0.39-0.11c-0.63-0.19-1.24-0.36-1.86-0.57c-0.79-0.24-1.54-0.49-2.29-0.76
					c-0.52-0.19-1.04-0.38-1.54-0.57c-0.19-0.06-0.36-0.13-0.54-0.2c-0.03,0-0.05-0.02-0.08-0.03c-0.68-0.27-1.32-0.52-1.95-0.79
					c0,0-0.02,0-0.02-0.02c-0.66-0.28-1.31-0.57-1.92-0.87c-0.63-0.28-1.23-0.58-1.81-0.88c-0.58-0.3-1.15-0.6-1.68-0.91
					c-1.15-0.63-2.24-1.29-3.23-1.95c-0.43-0.28-0.85-0.57-1.24-0.87c-0.63-0.44-1.23-0.91-1.8-1.37c-0.42-0.33-0.82-0.68-1.21-1.01
					c-0.98-0.87-1.84-1.72-2.62-2.55c-0.36-0.39-0.69-0.77-1.02-1.17c-0.99-1.2-1.81-2.35-2.46-3.43c-0.19-0.3-0.36-0.6-0.54-0.9
					c-0.17-0.33-0.35-0.66-0.5-0.98c-0.08-0.14-0.16-0.3-0.22-0.46c-0.14-0.3-0.28-0.6-0.39-0.88c-0.24-0.57-0.43-1.1-0.6-1.56
					c-0.06-0.22-0.13-0.42-0.17-0.63c-0.05-0.13-0.08-0.25-0.11-0.38c-0.03-0.14-0.06-0.28-0.09-0.39c-0.03-0.17-0.06-0.32-0.1-0.44
					c-0.02-0.11-0.03-0.2-0.05-0.28c-0.02-0.17-0.03-0.25-0.03-0.25v-29.31c0.66-0.16,1.32-0.28,2-0.39
					c1.59-0.25,3.23-0.38,4.9-0.38h10.04C391.1,193.15,405.2,207.26,405.2,224.67z"/>
				<g>
					<g>
						<path class="st8" d="M359.98,256.48c-2.73-2.11-5.07-2.81-6.98-2.81"/>
						<path class="st8" d="M352.98,253.68c-0.82,0-1.58,0.14-2.22,0.35"/>
						<path class="st8" d="M350.73,254.04c-2.36,0.74-3.64,2.44-3.64,2.44"/>
						<path class="st9" d="M355.05,256.36c0,1.53-1.24,2.77-2.77,2.77c-1.53,0-2.77-1.24-2.77-2.77c0-0.96,0.49-1.81,1.23-2.32
							c0,0,0.02-0.02,0.03-0.02c0.42-0.28,0.94-0.46,1.51-0.46c0.25,0,0.49,0.03,0.71,0.11H353
							C354.18,253.97,355.05,255.06,355.05,256.36z"/>
					</g>
					<g>
						<path class="st8" d="M392.28,256.48c-2.73-2.11-5.07-2.81-6.98-2.81"/>
						<path class="st8" d="M385.29,253.68c-0.82,0-1.58,0.14-2.22,0.35"/>
						<path class="st8" d="M383.03,254.04c-2.36,0.74-3.64,2.44-3.64,2.44"/>
						<path class="st9" d="M387.35,256.36c0,1.53-1.24,2.77-2.77,2.77c-1.53,0-2.77-1.24-2.77-2.77c0-0.96,0.49-1.81,1.23-2.32
							c0,0,0.02-0.02,0.03-0.02c0.42-0.28,0.94-0.46,1.51-0.46c0.25,0,0.49,0.03,0.71,0.11h0.02
							C386.48,253.97,387.35,255.06,387.35,256.36z"/>
					</g>
				</g>
				<path class="st8" d="M359.39,278.42c0,0-3.15,4.07,1.97,4.99c5.12,0.92,23.24,1.84,18.91-4.99"/>
				<path class="st8" d="M345.07,247.23c2.55-1.58,7.96-3.45,16.33,0.6"/>
				<path class="st8" d="M380.61,246.24c-2.55,0.94-3.81,2.38-3.81,2.38"/>
				<g>
					<path class="st8" d="M335.8,322.93c0,0-5.65,3.29-3.43,12.16"/>
					<path class="st8" d="M338.37,322.93c0,0,5.2,3.29,2.99,12.16"/>
					<line class="st8" x1="337.08" y1="323.09" x2="337.08" y2="333.12"/>
				</g>
				<g>
					<g>
						<path class="st9" d="M406.4,271.92c0,3.09-2.52,5.59-5.61,5.59c-0.43,0-0.84-0.05-1.23-0.14c0.8-2.69,1.23-5.55,1.23-8.49
							v-2.57C403.88,266.31,406.4,268.82,406.4,271.92z"/>
						<path class="st9" d="M406.4,283.13c0,3.09-2.52,5.6-5.61,5.6c-2.22,0-4.16-1.31-5.04-3.2c1.59-2.4,2.87-5.03,3.72-7.85
							c0.42-0.11,0.87-0.16,1.32-0.16C403.88,277.52,406.4,280.02,406.4,283.13z"/>
						<path class="st9" d="M406.4,294.32c0,3.09-2.51,5.6-5.6,5.6c-3.09,0-5.6-2.51-5.6-5.6c0-3.09,2.51-5.6,5.6-5.6
							C403.89,288.72,406.4,291.23,406.4,294.32z"/>
						<path class="st9" d="M406.4,305.53c0,3.09-2.51,5.6-5.6,5.6c-3.09,0-5.6-2.51-5.6-5.6c0-3.09,2.51-5.6,5.6-5.6
							C403.89,299.92,406.4,302.43,406.4,305.53z"/>
						<path class="st9" d="M406.4,316.73c0,3.09-2.51,5.6-5.6,5.6c-3.09,0-5.6-2.51-5.6-5.6c0-3.09,2.51-5.6,5.6-5.6
							C403.89,311.13,406.4,313.64,406.4,316.73z"/>
					</g>
					<g>
						<path class="st8" d="M399.71,322.33c0,0-5.65,3.29-3.43,12.16"/>
						<path class="st8" d="M402.28,322.33c0,0,5.2,3.29,2.99,12.16"/>
						<line class="st8" x1="401" y1="322.49" x2="401" y2="332.52"/>
					</g>
				</g>
				<path class="st8" d="M369.68,229.39c0,0,9.02,10.91,26.09,13.16"/>
				<path class="st8" d="M380.61,229.39c0,0,7.28,6.1,14.58,6.58"/>
			</g>
			<g>
				<g>
					<g>
						<g>
							<path class="st9" d="M285.53,305.26l-19.84,95.35h-14.83l-19.71-95.31c0.69-0.05,1.42-0.06,2.14-0.06h18.64v-6.81h13.4
								c0,0,0.02,0,0.03,0v6.81h18.66C284.52,305.23,285.03,305.25,285.53,305.26z"/>
							<path class="st9" d="M323.41,344.63v55.99h-57.72l19.84-95.35c0.69,0.02,1.36,0.06,2.03,0.13c1.31,0.11,2.55,0.29,3.8,0.52
								v0.02c1.32,0.24,2.63,0.57,3.92,0.95c1.55,0.46,3.03,1.01,4.49,1.64h0.02c1.34,0.6,2.63,1.25,3.88,1.97
								c3.4,1.95,6.48,4.4,9.12,7.25c0.8,1.12,1.75,2.25,2.81,3.39l0.02,0.02c0.22,0.28,0.43,0.57,0.63,0.85
								C320.78,328.38,323.41,336.18,323.41,344.63z"/>
							<path class="st9" d="M250.86,400.61H193.9v-55.99c0-8.1,2.43-15.63,6.63-21.87c1.61-1.75,2.96-3.45,4.1-5.12
								c2.6-2.76,5.6-5.15,8.89-7.06c2.66-1.56,5.53-2.81,8.54-3.7c2.46-0.74,5.04-1.25,7.7-1.48h0.02
								c0.46-0.05,0.91-0.08,1.37-0.09L250.86,400.61z"/>
							<path class="st8" d="M204.63,317.64c-1.13,1.67-2.49,3.37-4.1,5.12c0.22-0.33,0.44-0.66,0.68-0.98
								C202.25,320.31,203.4,318.94,204.63,317.64z"/>
							<path class="st8" d="M265.36,298.35v0.08c-0.02,0-0.02,0-0.02,0h-0.38C265.11,298.41,265.23,298.38,265.36,298.35z"/>
							<path class="st8" d="M315.6,321.12c-1.06-1.14-2-2.27-2.81-3.39C313.8,318.8,314.74,319.94,315.6,321.12z"/>
							<g>
								<line class="st8" x1="251.96" y1="317.35" x2="251.96" y2="305.23"/>
								<line class="st8" x1="265.39" y1="317.35" x2="265.39" y2="305.23"/>
							</g>
						</g>
						<g>
							<line class="st8" x1="229.77" y1="305.39" x2="229.72" y2="305.3"/>
							<line class="st8" x1="287.62" y1="305.3" x2="287.57" y2="305.39"/>
						</g>
					</g>
				</g>
				<path class="st10" d="M312.79,317.73c-2.65-2.85-5.72-5.29-9.12-7.25c-1.24-0.72-2.54-1.37-3.88-1.97h-0.02
					c-1.46-0.63-2.95-1.18-4.49-1.64c-1.29-0.38-2.6-0.71-3.92-0.95v-0.02c-1.24-0.23-2.49-0.41-3.8-0.52
					c-0.68-0.06-1.34-0.11-2.03-0.13c-0.5-0.02-1.01-0.03-1.51-0.03h-18.66v-6.81c0.13-0.02,0.25-0.05,0.36-0.08
					c14.06-2.43,24.75-14.7,24.75-29.47v-2.57c0,0,0,0-0.03,0l-0.08-13.52c1.8-14.89-10.18-19.19-12.29-26.85
					c-2.71-9.83-3.84-14.81-4.27-19.02c0.13-2.13,0.11-4.37-0.06-6.72c0,0-0.47,1.7,0.06,6.72c-1.01,16.75-10.81,25.29-25.27,27.73
					c-4.71,0.8-8.51,3.14-11.53,6.08c-7.47,7.23-10.24,18.06-10.24,18.06v10.08c0,14.89,10.91,27.25,25.15,29.54h0.03v6.81h-18.64
					c-0.72,0-1.45,0.02-2.14,0.06c-0.46,0.02-0.91,0.05-1.37,0.09h-0.02c-2.66,0.24-5.25,0.74-7.7,1.48
					c-3.01,0.9-5.88,2.14-8.54,3.7c-3.29,1.91-6.29,4.3-8.89,7.06c7.41-10.76,5.82-19.21,5.82-19.21v-78.74
					c0-21.76,17.65-39.39,39.39-39.39h17.62c21.76,0,39.39,17.63,39.39,39.39v78.74C306.85,298.43,305.23,307.49,312.79,317.73z"/>
				<path class="st8" d="M227.42,237.24c4.52-5.52,10.86-10.44,19.53-11.91c12.65-2.14,16.67-9.4,17.36-18.2"/>
				<path class="st9" d="M290.37,252.79c1.8-14.89-10.18-19.19-12.29-26.85c-2.71-9.83-3.84-14.81-4.27-19.02
					c-1.01,16.75-10.81,25.29-25.27,27.73c-4.71,0.8-8.51,3.14-11.53,6.08c-7.47,7.23-10.24,18.06-10.24,18.06v10.08
					c0,14.89,10.91,27.25,25.15,29.54h13.06c0.14-0.02,0.27-0.05,0.39-0.08v0.08c0.13-0.02,0.25-0.05,0.36-0.08
					c14.06-2.43,24.75-14.7,24.75-29.47v-2.57c0,0,0,0-0.03,0L290.37,252.79z M243.91,252.7c-1.54,0-2.79-1.24-2.79-2.79
					c0-1.53,1.23-2.79,2.76-2.8c0.02,0,0.02,0,0.02,0h0.06c1.53,0.03,2.76,1.27,2.76,2.8C246.72,251.46,245.46,252.7,243.91,252.7z
					 M273.18,252.7c-1.53,0-2.79-1.24-2.79-2.79c0-1.53,1.24-2.79,2.76-2.8c0,0,0.02,0,0.03,0h0.05c1.53,0.03,2.77,1.27,2.77,2.8
					C276,251.46,274.72,252.7,273.18,252.7z"/>
				<path class="st8" d="M245.87,215.3c0,0,8.81,0.47,10.38-8.17"/>
				<path class="st8" d="M260.93,265.5c0.36,0.58,0.55,1.29,0.49,2.02c-0.15,1.83-1.74,3.18-3.57,3.03
					c-1.83-0.15-3.18-1.75-3.03-3.57c0.05-0.62,0.27-1.18,0.6-1.65"/>
				<path class="st8" d="M250.86,247.45c-1.7-1.09-4.21-1.89-6.9-1.92"/>
				<path class="st8" d="M236.96,247.45c2.18-1.4,4.62-1.94,6.92-1.92"/>
				<path class="st9" d="M246.72,249.91c0,1.54-1.26,2.79-2.81,2.79c-1.54,0-2.79-1.24-2.79-2.79c0-1.53,1.23-2.79,2.76-2.8
					c0.02,0,0.02,0,0.02,0h0.06C245.49,247.14,246.72,248.38,246.72,249.91z"/>
				<path class="st8" d="M280.14,247.45c-1.7-1.09-4.22-1.89-6.92-1.92"/>
				<path class="st8" d="M266.24,247.45c2.17-1.4,4.6-1.94,6.9-1.92"/>
				<path class="st9" d="M276,249.91c0,1.54-1.28,2.79-2.82,2.79c-1.53,0-2.79-1.24-2.79-2.79c0-1.53,1.24-2.79,2.76-2.8
					c0,0,0.02,0,0.03,0h0.05C274.75,247.14,276,248.38,276,249.91z"/>
				<path class="st8" d="M254.04,281.2c0,0,3.33,2.52,8.61,0"/>
				<path class="st8" d="M236.97,240.76c0,0,5.78-3.34,14.99,0"/>
				<path class="st8" d="M264.31,240.76c0,0,5.97-5.78,15.83-0.74"/>
			</g>
		</g>
	</g>
	<path class="st11" d="M480.79,247.35c1.81-0.41,3.79-0.01,5.29,1.08"/>
	<path class="st11" d="M480.02,244.05c2.52-1.09,5.63-0.68,7.79,1.02"/>
	<path class="st11" d="M493.12,268.11c0.34,1.39-0.1,2.94-1.12,3.95"/>
	<path class="st11" d="M498.2,266.5c1.16,3.18,0.24,6.94-2.16,9.32l-0.26,0.26"/>
	<g>
		<path class="st3" d="M186.89,194.35c0,8.55,6.93,15.47,15.47,15.47c8.55,0,15.47-6.93,15.47-15.47"/>
		<line class="st3" x1="217.6" y1="194.35" x2="187.13" y2="194.35"/>
	</g>
	<g>
		<path class="st3" d="M142.08,194.35c0,8.55,6.93,15.47,15.47,15.47c8.55,0,15.47-6.93,15.47-15.47"/>
		<line class="st3" x1="172.79" y1="194.35" x2="142.32" y2="194.35"/>
	</g>
	<path class="st12" d="M172.38,196.01c0-3.76,3.4-6.8,7.6-6.8c4.2,0,7.6,3.05,7.6,6.8"/>
	<line class="st13" x1="207.62" y1="199.69" x2="202.36" y2="204.47"/>
	<line class="st13" x1="208.08" y1="197.56" x2="200.47" y2="204.47"/>
	<line class="st13" x1="163.21" y1="198.69" x2="156.31" y2="204.96"/>
	<line class="st13" x1="163.74" y1="200.36" x2="156.84" y2="206.63"/>
	<ellipse class="st7" cx="173.33" cy="195.88" rx="0.31" ry="0.85"/>
	<ellipse class="st7" cx="187.13" cy="195.88" rx="0.31" ry="0.85"/>
</g>
</svg>
