<?xml version="1.0" encoding="utf-8"?>
<!-- Generator: Adobe Illustrator 24.0.3, SVG Export Plug-In . SVG Version: 6.00 Build 0)  -->
<svg version="1.1" id="Layer_1" xmlns="http://www.w3.org/2000/svg" xmlns:xlink="http://www.w3.org/1999/xlink" x="0px" y="0px"
	 viewBox="0 0 482 358" style="enable-background:new 0 0 482 358;" xml:space="preserve">
<style type="text/css">
	.st0{fill:none;stroke:#CF202F;stroke-miterlimit:10;}
	.st1{fill:none;stroke:#CF202F;stroke-miterlimit:10;stroke-dasharray:5.9738,5.9738;}
	.st2{fill:#CF202F;}
	.st3{fill:#231F20;}
	.st4{fill:#FFFFFF;}
	.st5{fill:#E6E7E8;}
	.st6{fill:#FCD9DE;}
</style>
<g>
	<g>
		<g>
			<path class="st0" d="M400.6,299.6c-0.7,0.7-1.5,1.3-2.2,2"/>
			<path class="st1" d="M393.7,305.4c-20.7,16.4-48.5,28.9-79.5,36.7c-5.5,1.4-11.2,2.6-16.9,3.7c-15.1,2.8-30.8,4.5-46.6,5
				c-0.1,0-0.3,0-0.4,0c-3.4,0.1-6.7,0.1-10.1,0.1c-34.2-0.2-68.4-6.2-98.4-19.2c-6.2-2.7-12.2-5.6-17.9-8.9
				c-6.6-3.7-12.9-7.9-18.9-12.4c-1.2-0.9-6.7-5.8-14-14c-21.9-24.7-59.9-79.5-46.2-146.8C62.7,59.8,168.9-9.9,234,10.8
				c12.1,3.8,23,9.5,33,16.2c27.3,18.3,48.4,44.5,70.8,62.8c13.7,11.2,27.9,19.4,44.4,21.2c4.6,0.5,9,1.8,13.2,3.8
				c7.9,3.7,15.2,10,21.5,18c29.2,37.2,37.1,113.2-11.7,162.5"/>
			<path class="st0" d="M403.1,297.2c-0.7,0.7-1.4,1.4-2.2,2.1"/>
			<g>
				
					<rect x="400" y="296.4" transform="matrix(0.7517 -0.6595 0.6595 0.7517 -98.1488 338.5829)" class="st2" width="1" height="6.5"/>
			</g>
		</g>
	</g>
	<path class="st3" d="M387.2,299.6c-19.8,18.1-48.6,31.9-81.1,40c-5.2,1.3-10.5,2.4-15.8,3.4c-14.2,2.6-28.8,4.2-43.6,4.7
		c-0.1,0-0.3,0-0.4,0c-3.2,0.1-6.3,0.1-9.5,0.1c-32-0.2-64-5.8-92.1-18c-5.8-2.5-11.4-5.3-16.8-8.3c-6.2-3.5-12.1-7.4-17.7-11.6
		c-1.2-0.9-6.3-5.5-13.1-13.1c-20.5-23.1-56-74.4-43.2-137.3c17-83.9,116.3-149,177.2-129.7c11.3,3.6,21.5,8.9,30.9,15.2
		c25.6,17.1,45.2,41.6,66.2,58.7c12.8,10.4,26.1,18.1,41.5,19.8c4.3,0.5,8.4,1.7,12.3,3.6c7.4,3.5,14.2,9.3,20.1,16.8
		C430.2,179.6,437.3,253.7,387.2,299.6z"/>
	<g>
		<path class="st4" d="M159.2,116.1c0,0-5-3.6-9.9,0.5c-4.9,4-1.8,31.5,3.3,35.5c0,0,9.5,1,9-12.8
			C161.1,125.7,159.2,116.1,159.2,116.1z"/>
		<path class="st5" d="M246.3,348h-9.5c0-0.1,0-0.1-0.1-0.2c-32-0.2-64-5.8-92.1-18c-5.8-2.5-11.4-5.3-16.8-8.3
			c-4.5-33.6-10.8-90.5-4.8-104.4c0.4-0.9,0.8-1.7,1.4-2.2c0-0.1,0.1-0.1,0.1-0.1c2.7-2.6,21-5.9,33.6-7.9h0
			c6.7-1.1,11.8-1.7,11.8-1.7l20.7,0.1c0,0,3.8,0.5,9.3,1.5c11.6,2.1,30.5,6.3,35.5,12.6c0.9,1.1,1.9,7.1,2.9,15.9
			c0,0.2,0.1,0.4,0.1,0.6c0.3,2.1,0.5,4.4,0.7,6.8c2,20.9,4.1,51.7,5.5,75.3v0c0.1,1.1,0.1,2.3,0.2,3.3c0.3,5.1,0.6,9.9,0.8,14v0.1
			c0.3,5.2,0.5,9.4,0.7,12.4C246.3,347.8,246.3,347.9,246.3,348z"/>
		<polygon class="st6" points="190.3,178.4 171.6,179.1 169.9,205.2 190.6,205.3 		"/>
		<path class="st3" d="M170.5,196.8l-12.3,10.1l11.8,10.1l10.3-11.8L189,217l10.9-10.3l-9.3-9.9
			C190.6,196.8,181.6,206.3,170.5,196.8z"/>
		<path class="st6" d="M158.2,127.4c0,0-12.3,52,22.1,56.5c34.4,4.5,28-62.4,17.6-62.9C187.5,120.4,159.7,117.6,158.2,127.4z"/>
		<path class="st4" d="M167.1,121.6c0,0,38.8,11.6,48.1-5.9c10-18.9-13.3-29-24.5-11.3c0,0-35.9-11-37.1,12.6
			C152.9,130.2,167.1,121.6,167.1,121.6z"/>
		<path class="st6" d="M158.2,149.4c0,0-4.9-4.2-8.3-1c-3.4,3.2,0.6,14.1,8.3,13C165.9,160.4,158.2,149.4,158.2,149.4z"/>
		<path class="st4" d="M153.4,146.4c0,0,1.7,1.3,2.7,5.8c0,0,1.9,0.8,3.3-0.7c1.5-1.5,5.3-20.6,4.6-27.1c-0.8-6.5-10.3-4.8-11.2,3
			S153.4,146.4,153.4,146.4z"/>
		<path class="st6" d="M202.1,149.4c0,0,4.9-4.2,8.3-1c3.4,3.2-0.6,14.1-8.3,13C194.3,160.4,202.1,149.4,202.1,149.4z"/>
		<path class="st4" d="M208.6,147.3c0,0-3.2,0.4-4.2,4.8c0,0,0,0.8-1.4-0.7c-1.5-1.5-0.2-21.8,0.6-28.2c0.8-6.5,5.2-3.7,6,4.2
			C210.5,135.3,208.6,147.3,208.6,147.3z"/>
		<path class="st4" d="M172.4,117.7c-0.1,0.4-1.6,14.1-11.5,13c-10-1.1-2.1-17.3-2.1-17.3L172.4,117.7z"/>
		<path class="st4" d="M197.9,122.2c0,0-0.6,8.9,6,11.2c6.6,2.3,2.3-14.4,2.3-14.4L197.9,122.2z"/>
		<path class="st5" d="M144.7,329.9c-5.8-2.5-11.4-5.3-16.8-8.3c-6.2-3.5-12.1-7.4-17.7-11.6c-1.2-0.9-6.3-5.5-13.1-13.1
			c6.5-29.7,19.7-69.8,26-79.7c0.7-1.2,1.2-2,1.4-2.2c0-0.1,0.1-0.1,0.1-0.1L144.7,329.9z"/>
	</g>
	<g>
		<path class="st2" d="M313.3,34.1c0,0-77.9,1.5-70.1,41.6s70.5,41.3,100.6,19.8C364.4,80.8,366.1,33.9,313.3,34.1z"/>
		<polygon class="st2" points="251.7,76.4 235.1,101.1 270.8,92.7 		"/>
	</g>
	<g>
		<path class="st3" d="M277.6,88.5L274,57.6l7.9-0.9l1.3,11.6l10.1-1.2L292,55.6l7.9-0.9l3.5,30.9l-7.9,0.9l-1.4-12.3l-10.1,1.2
			l1.4,12.3L277.6,88.5z"/>
		<path class="st3" d="M305.5,54l17.5-2l0.8,6.9l-9.6,1.1l0.6,4.8l9.3-1.1l0.8,6.9l-9.3,1.1l0.6,5.3l9.6-1.1l0.8,6.9l-17.5,2
			L305.5,54z"/>
		<path class="st3" d="M327.7,51.5l7.9-0.9l2.7,23.9l9.1-1l0.8,6.9l-17,2L327.7,51.5z"/>
		<path class="st3" d="M348,49.1l7.9-0.9l2.7,23.9l9.1-1l0.8,6.9l-17,2L348,49.1z"/>
		<path class="st3" d="M366.9,62.9c-1.2-10.1,5.9-17.2,14.4-18.2c9.5-1.1,17.2,5.6,18.1,14.1s-4.9,16.8-14.5,17.9
			C375.2,77.9,367.9,70.9,366.9,62.9L366.9,62.9z M374.8,61.6c0.5,4.7,4.3,8.8,9.6,8.2c5.6-0.6,7.7-6,7.3-10c-0.5-4-3.8-8.8-9.4-8.2
			C376.7,52.3,374.3,57.3,374.8,61.6L374.8,61.6z"/>
		<path class="st3" d="M412,62.7l-7.1,0.8l-2.4-20.7l7.1-0.8L412,62.7z M413.2,72.9l-7.1,0.8l-0.8-7.1l7.1-0.8L413.2,72.9z"/>
	</g>
	<g>
		<g>
			<path class="st2" d="M309.7,272C309.7,272.1,309.7,272.1,309.7,272c-0.4,1.6-0.8,3.3-1.3,5c-0.3,1.4-0.7,2.8-1.1,4.2
				c-0.9,3.4-1.8,7-2.8,10.7c-4.9,18.5-10.6,38.5-14.3,51.2c-14.2,2.6-28.8,4.2-43.6,4.7v0.3h-9.8c0-0.1,0-0.1-0.1-0.2
				c-0.7-2.8-1.6-6.7-2.7-11.4c-1.1-4.8-2.4-10.3-3.7-16.3c-2.3-10.6-4.8-22.6-6.8-34.1c-0.6-3.7-1.2-7.4-1.8-10.9
				c-2.7-18.2-3.6-33.2,0-36.4c1.7-1.5,4.8-2.3,7.6-2.8c0,0,0,0,0,0c3.1-0.5,5.7-0.5,5.7-0.5l3.2,0.2l62.7,4.3c0,0,9.3,2.1,12.7,7.1
				C314.8,248.7,312.9,258.7,309.7,272z"/>
			<path class="st6" d="M380.9,121.4c0,0,5,21.9,2.7,27.7c-1.5,3.9-6.2,56.6-23.3,72.6c-12.5,11.7-29.8,21.3-46.5,25.6l-4.2,24.8
				c0,0,50.8-20.7,64.5-34.2s23.6-87.8,23.6-87.8s24.7-34.4,23.7-38.9c-0.5-2.4-3.2-5.7-5.5-8.3c-2.1-2.2-5.6-2.2-7.6,0.1
				l-17.9,19.8c0,0-4.2-15.1-8.7-14.7C377.2,108.2,380.9,121.4,380.9,121.4z"/>
			<path class="st6" d="M278,211.3l-15.9,2.3l-2.2,19.2l-24.8,2.8c0,0,0,10.2,20.7,14.4c32.9,6.7,45.2-9.9,45.2-9.9l-24-6.4
				L278,211.3z"/>
			<path class="st6" d="M271.9,158.6c0,0-20.5,6.7-23.6,34.8c-3.3,29.8,23.5,28.1,36,17.1C305,192,302.1,150.5,271.9,158.6z"/>
			<path class="st6" d="M288.6,198.5c0,0,4.4-3.7,8.5-0.1c4.1,3.6-3.3,12.4-10.7,8.6C279.1,203.2,288.6,198.5,288.6,198.5z"/>
			<path class="st4" d="M271.8,154.6c0,0-3.5-14.7-17.4-9.8c-12.5,4.5-9,26.5,11.5,33c15.3,4.9,24.3-0.3,24.3-0.3s-4.2,7.1-3.4,12.6
				c0.8,5.5-0.3,9.7-0.3,9.7s3.6,0.8,7.5-3c0,0,15.8-11.2,11.6-27.2C301.4,153.7,282.5,150.8,271.8,154.6z"/>
			<path class="st4" d="M293.8,158.4c0.7-2.3,6.6-26.9,32.7-27.7c26.2-0.8,43.7,42.8,2.3,55.1c-7.6,2.3-27.6,0.6-33.1-3.8
				C290.2,177.5,293.8,158.4,293.8,158.4z"/>
		</g>
		<path class="st6" d="M221.9,238.9c-8.8-3.3-36.6,51.5-43.3,80.5c-6.7,29,77,14.4,77,14.4l-3.2-12.1c0,0-45.1-2-46.2-6.2
			c-1.1-4.2,15.7-40.2,15.7-40.2S224.6,239.9,221.9,238.9z"/>
		<polygon class="st2" points="301.1,240.1 339.4,236.8 343.5,259.4 304.6,282.9 		"/>
		<path class="st2" d="M229.4,236.1c0,0-6.4-3.2-24.3,15.5l-12.9,19.9l24.7,20.7l16.8-14.7L229.4,236.1z"/>
		<path class="st5" d="M324.6,277.4l-18.5,62.2c-5.2,1.3-10.5,2.4-15.8,3.4c-14.2,2.6-28.8,4.2-43.6,4.7l0.5-12.5V335l0.5-13.6
			l1.8-45.7l54.6,1.2l4.3,0.1l5.7,0.1L324.6,277.4z"/>
		<path class="st6" d="M240.9,322l7.1-7.7l-0.3,7.2l24.1-6c0,0,3.9,3.9,3.4,6.5c-0.5,2.6-9,11.9-32.9,13.6L240.9,322z"/>
	</g>
</g>
<g>
</g>
<g>
</g>
<g>
</g>
<g>
</g>
<g>
</g>
<g>
</g>
<g>
</g>
</svg>
