<?xml version="1.0" encoding="utf-8"?>
<!-- Generator: Adobe Illustrator 24.0.3, SVG Export Plug-In . SVG Version: 6.00 Build 0)  -->
<svg version="1.1" id="Layer_1" xmlns="http://www.w3.org/2000/svg" xmlns:xlink="http://www.w3.org/1999/xlink" x="0px" y="0px"
	 viewBox="0 0 63.6 52.2" style="enable-background:new 0 0 63.6 52.2;" xml:space="preserve">
<style type="text/css">
	.st0{fill:#231F20;}
	.st1{fill:#CE0E2D;}
</style>
<g>
	<g>
		<path class="st0" d="M7.8,45.2c0-1.1-0.9-2.1-2-2.1c-1.3,0-2.1,1-2.1,2.1c0,1.1,0.8,2.1,2,2.1C7,47.3,7.8,46.2,7.8,45.2L7.8,45.2z
			 M2.1,39.4h1.6v2.4v0.8c0.7-0.8,1.6-1.1,2.3-1.1c1.6,0,3.4,1.2,3.4,3.6c0,2.3-1.6,3.6-3.5,3.6c-1.1,0-1.9-0.5-2.3-1.2v1H2.1V39.4z
			"/>
		<path class="st0" d="M17.4,46.1c-0.4,1.5-1.7,2.7-3.5,2.7c-2.2,0-3.6-1.7-3.6-3.6c0-2,1.5-3.6,3.6-3.6c1.7,0,3.2,1.1,3.6,2.7h-1.7
			c-0.3-0.7-0.9-1.2-1.8-1.2c-0.6,0-1.1,0.2-1.4,0.6c-0.3,0.4-0.6,0.9-0.6,1.5c0,1.2,0.9,2.1,2,2.1c1,0,1.6-0.6,1.8-1.2H17.4z"/>
		<path class="st0" d="M21.6,43.6c0-0.4-0.2-0.7-0.8-0.7c-0.5,0-0.8,0.3-0.8,0.7c0,0.4,0.5,0.7,1.2,0.9c1.1,0.3,2.3,0.6,2.3,2.1
			c0,1.4-1.2,2.3-2.6,2.3c-1.1,0-2.5-0.5-2.6-2.2h1.6c0.1,0.7,0.7,0.9,1,0.9c0.5,0,0.9-0.3,0.9-0.8c0-0.6-0.5-0.7-1.8-1.2
			c-0.9-0.3-1.7-0.8-1.7-1.8c0-1.3,1.1-2.2,2.4-2.2c0.9,0,2.3,0.4,2.4,2H21.6z"/>
		<path class="st0" d="M24.4,41.8h1.2v1c0.3-0.6,1.1-1.2,2-1.2c0.6,0,1.3,0.2,1.7,0.7c0.2,0.2,0.4,0.5,0.4,0.7
			c0.1-0.2,0.2-0.4,0.5-0.7c0.4-0.4,1.1-0.7,1.8-0.7c0.6,0,1.3,0.2,1.8,0.7c0.6,0.6,0.7,1.3,0.7,2.5v3.7h-1.3v-3.7
			c0-0.6-0.1-1.1-0.4-1.5c-0.2-0.3-0.6-0.6-1.2-0.6c-0.6,0-1.1,0.2-1.3,0.6c-0.3,0.4-0.3,0.8-0.3,1.4v3.7h-1.3v-3.7
			c0-0.6,0-1-0.3-1.3c-0.2-0.4-0.6-0.7-1.3-0.7c-0.6,0-1.1,0.3-1.3,0.7c-0.2,0.4-0.4,0.8-0.4,1.4v3.7h-1.3V41.8z"/>
		<path class="st0" d="M41.3,44.6c-0.1-0.9-1-1.9-2.2-1.9c-1.3,0-2.2,1-2.2,1.9H41.3z M36.9,45.6c0.1,1.4,1.3,2.1,2.3,2.1
			c0.9,0,1.6-0.4,1.9-1.1h1.3c-0.3,0.7-0.8,1.3-1.4,1.7c-0.6,0.4-1.2,0.6-1.9,0.6c-2.2,0-3.6-1.8-3.6-3.6c0-1.9,1.5-3.6,3.6-3.6
			c1,0,1.8,0.4,2.5,1c0.8,0.8,1.1,1.9,1,3H36.9z"/>
		<path class="st0" d="M44.5,45.2c0,1.2,0.9,2.4,2.4,2.4c0.7,0,1.3-0.3,1.7-0.7c0.4-0.4,0.7-1,0.7-1.7c0-0.7-0.3-1.3-0.7-1.7
			c-0.4-0.4-1-0.7-1.7-0.7C45.5,42.8,44.5,43.9,44.5,45.2L44.5,45.2z M50.4,48.6h-1.2v-1.2c-0.4,0.7-1.1,1.4-2.5,1.4
			c-2.1,0-3.5-1.6-3.5-3.6c0-2.1,1.5-3.6,3.4-3.6c1.4,0,2.2,0.8,2.5,1.3v-1.2v-2.3h1.3V48.6z"/>
		<path class="st0" d="M51.9,41.8h1.3v6.7h-1.3V41.8z M51.9,39.4h1.3v1.4h-1.3V39.4z"/>
		<path class="st0" d="M55.5,45.2c0,1,0.7,2.3,2.4,2.3c1,0,1.8-0.6,2.1-1.3c0.1-0.3,0.2-0.7,0.2-1c0-0.3,0-0.7-0.2-1
			c-0.3-0.8-1.1-1.4-2.2-1.4C56.5,42.8,55.5,44,55.5,45.2L55.5,45.2z M61.5,48.6h-1.3v-1.2c-0.5,0.9-1.4,1.4-2.5,1.4
			c-2.2,0-3.5-1.7-3.5-3.6c0-2.1,1.5-3.6,3.5-3.6c1.3,0,2.2,0.7,2.5,1.4v-1.2h1.3V48.6z"/>
		<path class="st1" d="M10.2,34.3c-0.6,0-1.2-0.2-1.7-0.6c-1.1-0.9-1.3-2.6-0.3-3.7L28,6.2c2.4-2.9,6.6-3.7,9.8-1.8
			c3.4,1.9,4.9,6.1,3.4,9.8c0,0,0,0,0,0l-4.5,11.1c-0.5,1.3,0,2.7,1.1,3.4c1.1,0.7,2.5,0.4,3.5-0.6l8.7-10.4
			c0.9-1.1,2.6-1.3,3.7-0.3c1.1,0.9,1.3,2.6,0.3,3.7l-8.7,10.4c0,0,0,0,0,0c-2.6,3-7,3.7-10.3,1.7c-3.3-2.1-4.7-6.2-3.2-9.9
			c0,0,0,0,0,0l4.5-11.1c0.5-1.2,0-2.5-1.1-3.2c-1.1-0.6-2.4-0.4-3.2,0.6L12.2,33.4C11.7,34,10.9,34.3,10.2,34.3"/>
	</g>
</g>
</svg>
