<?xml version="1.0" encoding="utf-8"?>
<!-- Generator: Adobe Illustrator 25.0.1, SVG Export Plug-In . SVG Version: 6.00 Build 0)  -->
<svg version="1.1" id="Layer_1" xmlns="http://www.w3.org/2000/svg" xmlns:xlink="http://www.w3.org/1999/xlink" x="0px" y="0px"
	 viewBox="0 0 1613.59 1548.31" style="enable-background:new 0 0 1613.59 1548.31;" xml:space="preserve">
<style type="text/css">
	.st0{fill:#FFFFFF;}
	.st1{fill:none;stroke:#CF2031;stroke-width:0.75;stroke-miterlimit:10;}
	.st2{fill:#231F20;}
	.st3{fill:#CF2031;}
	.st4{fill:none;stroke:#E4E5E6;stroke-width:0.75;stroke-miterlimit:10;}
	.st5{font-family:'MyriadPro-Regular';}
	.st6{font-size:16.241px;}
	.st7{font-size:14.3526px;}
</style>
<rect x="165.89" y="98.51" class="st0" width="543.75" height="1245.6"/>
<rect x="165.89" y="98.51" class="st1" width="543.75" height="1245.6"/>
<rect x="82.95" y="1344.11" class="st0" width="709.62" height="62.67"/>
<rect x="82.95" y="1344.11" class="st1" width="709.62" height="62.67"/>
<rect x="194" y="996.66" class="st0" width="487.53" height="322.67"/>
<rect x="194" y="996.66" class="st1" width="487.53" height="322.67"/>
<rect x="194" y="124.35" class="st0" width="487.53" height="844.05"/>
<rect x="194" y="124.35" class="st1" width="487.53" height="844.05"/>
<g>
	<path class="st2" d="M379.72,1164.68c0-2.62-2.02-4.89-4.81-4.89c-2.97,0-4.83,2.33-4.83,4.93c0,2.68,1.87,4.95,4.75,4.94
		c3.12,0,4.89-2.48,4.89-4.95V1164.68z M366.4,1151.18l3.82,0l0,5.62l0,1.92c1.57-1.95,3.87-2.48,5.33-2.48
		c3.79,0,7.98,2.76,7.99,8.41c0.01,5.42-3.78,8.57-8.14,8.57c-2.5,0-4.46-1.22-5.3-2.79l0,2.3l-3.67,0L366.4,1151.18z"/>
	<path class="st2" d="M402.34,1166.87c-0.9,3.55-4.07,6.32-8.21,6.33c-5.07,0-8.56-3.92-8.57-8.5c-0.01-4.72,3.63-8.47,8.4-8.48
		c4.02-0.01,7.43,2.53,8.37,6.42l-3.9,0.01c-0.67-1.69-2.21-2.88-4.31-2.88c-1.4-0.03-2.47,0.47-3.4,1.37
		c-0.82,0.88-1.31,2.16-1.31,3.55c0,2.88,2.02,4.92,4.72,4.92c2.39,0,3.73-1.43,4.31-2.74L402.34,1166.87z"/>
	<path class="st2" d="M412.12,1161.01c-0.03-0.84-0.47-1.72-1.95-1.71c-1.28,0-1.89,0.81-1.89,1.6c0.03,1.02,1.2,1.57,2.71,2.01
		c2.56,0.69,5.33,1.45,5.36,4.89c0.06,3.29-2.7,5.39-6.05,5.39c-2.48,0-5.82-1.28-6.12-5.15l3.82,0c0.15,1.72,1.63,2.07,2.36,2.07
		c1.19,0,2.21-0.79,2.18-1.87c0-1.37-1.19-1.75-4.14-2.76c-2.15-0.67-3.9-1.86-3.93-4.16c0-3.14,2.64-5.09,5.73-5.1
		c2.15,0,5.36,0.95,5.68,4.8L412.12,1161.01z"/>
	<path class="st2" d="M418.7,1156.84l2.85,0l0,2.24c0.67-1.34,2.5-2.71,4.8-2.71c1.46,0,2.97,0.44,4.08,1.69
		c0.41,0.41,0.85,1.25,1.02,1.54c0.26-0.46,0.58-1.02,1.14-1.57c1.02-1.02,2.47-1.66,4.19-1.67c1.45,0,3.09,0.4,4.25,1.6
		c1.4,1.42,1.75,2.94,1.75,5.97l0.01,8.74l-3.03,0l-0.01-8.62c0-1.31-0.18-2.62-0.88-3.52c-0.55-0.81-1.4-1.31-2.82-1.31
		c-1.34,0-2.47,0.56-3.06,1.52c-0.64,0.99-0.73,1.86-0.72,3.2l0.01,8.74l-3.06,0l-0.01-8.74c0.03-1.31-0.12-2.27-0.64-3.14
		c-0.58-0.93-1.52-1.54-3-1.57c-1.43-0.03-2.47,0.67-3,1.54c-0.58,0.85-0.84,1.95-0.84,3.23l0.01,8.68l-3.03,0L418.7,1156.84z"/>
	<path class="st2" d="M458.56,1163.32c-0.15-2.09-2.25-4.45-5.24-4.39c-3.09,0-5.09,2.25-5.24,4.4L458.56,1163.32z M448.03,1165.69
		c0.15,3.2,2.95,4.83,5.33,4.83c2.13,0,3.7-1.02,4.57-2.69l3.15,0c-0.76,1.75-1.86,3.06-3.2,3.94c-1.34,0.9-2.91,1.34-4.51,1.34
		c-5.18,0.01-8.39-4.16-8.39-8.35c-0.01-4.54,3.54-8.42,8.35-8.43c2.27,0,4.34,0.84,5.86,2.32c1.86,1.89,2.65,4.36,2.39,7.02
		L448.03,1165.69z"/>
	<path class="st2" d="M466.08,1164.71c0.03,2.91,2.07,5.56,5.57,5.56c1.54,0,2.97-0.64,3.96-1.67c1.02-1.02,1.6-2.42,1.54-3.99
		c0-1.57-0.61-2.94-1.61-3.9c-0.99-0.99-2.36-1.57-3.9-1.57c-3.35,0-5.56,2.57-5.56,5.54V1164.71z M480.01,1172.62l-2.91,0l0-2.77
		c-0.87,1.63-2.65,3.23-5.91,3.24c-4.98,0-8.13-3.84-8.13-8.41c-0.01-4.92,3.54-8.36,8.06-8.37c3.23,0,5.21,1.8,5.86,3.05l0-2.8
		l-0.01-5.5l3.03,0L480.01,1172.62z"/>
</g>
<path class="st2" d="M483.43,1156.77l0.01,15.84l3.03,0l-0.01-15.84H483.43z M483.42,1151.07l0,3.2l3.03,0l0-3.2L483.42,1151.07z"/>
<g>
	<path class="st2" d="M491.97,1164.74c0.03,2.36,1.69,5.5,5.54,5.5c2.42,0,4.13-1.34,4.92-3.15c0.35-0.73,0.52-1.54,0.55-2.36
		c0.03-0.81-0.12-1.63-0.47-2.36c-0.76-1.83-2.54-3.26-5.07-3.25c-3.32,0-5.47,2.63-5.47,5.59V1164.74z M505.98,1172.59l-3.03,0
		l0-2.77c-1.1,2.13-3.37,3.23-5.88,3.24c-5.09,0-8.13-3.95-8.13-8.38c0-4.84,3.51-8.39,8.11-8.4c3.15,0,5.16,1.74,5.89,3.26l0-2.8
		l3.03,0L505.98,1172.59z"/>
	<path class="st3" d="M386.85,1139.25c-1.4,0-2.82-0.47-3.98-1.44c-2.63-2.2-2.99-6.11-0.79-8.74l46.69-55.99
		c5.67-6.81,15.41-8.61,23.14-4.29c8.05,4.5,11.54,14.36,8.11,22.92c-0.01,0.01-0.01,0.02-0.01,0.04l-10.62,26.03
		c-1.17,2.96-0.06,6.32,2.64,8c2.6,1.62,5.94,0.99,8.14-1.52l20.51-24.51c2.2-2.63,6.12-2.98,8.74-0.78
		c2.63,2.2,2.98,6.12,0.78,8.74l-20.55,24.56c-0.02,0.02-0.04,0.05-0.06,0.07c-6.19,7.16-16.33,8.83-24.12,3.98
		c-7.82-4.87-11.02-14.61-7.6-23.16c0-0.01,0.01-0.03,0.02-0.04l10.61-26.04c1.11-2.79-0.03-5.99-2.65-7.46
		c-2.53-1.41-5.7-0.82-7.55,1.4l-46.69,55.99C390.38,1138.49,388.62,1139.25,386.85,1139.25"/>
</g>
<g>
	<line class="st4" x1="372.98" y1="416.08" x2="242.15" y2="173.74"/>
	<line class="st4" x1="637.96" y1="906.89" x2="535.84" y2="717.74"/>
	<line class="st4" x1="513.1" y1="405.73" x2="632.79" y2="190.11"/>
	<line class="st4" x1="242.64" y1="909.15" x2="350.98" y2="713.98"/>
</g>
<g>
	<g>
		<path class="st1" d="M1347.79,98.68l-544.2,53.25c-32.87,2.43-58.3,29.81-58.3,62.77v292.59c0,37.26,32.19,66.36,69.25,62.62
			l544.2,0.32c32.15-3.24,56.63-30.31,56.63-62.62V161.45C1415.37,124.86,1384.28,95.98,1347.79,98.68z M1342.9,507.28l-525.14,0.62
			V215.77l525.14-0.62V507.28z"/>
		<g>
			<g>
				<path class="st2" d="M1277.25,193.47c0-1.36-1.05-2.54-2.5-2.54c-1.54,0-2.5,1.21-2.5,2.56c0,1.39,0.97,2.57,2.46,2.56
					c1.62,0,2.54-1.29,2.54-2.57V193.47z M1270.34,186.46l1.98,0l0,2.91l0,1c0.81-1.01,2.01-1.28,2.76-1.29
					c1.96,0,4.14,1.43,4.14,4.36c0,2.81-1.96,4.44-4.22,4.44c-1.3,0-2.31-0.63-2.75-1.45l0,1.19l-1.9,0L1270.34,186.46z"/>
				<path class="st2" d="M1288.99,194.6c-0.47,1.84-2.11,3.28-4.26,3.28c-2.63,0-4.44-2.03-4.44-4.41c0-2.45,1.88-4.4,4.36-4.4
					c2.08,0,3.85,1.31,4.34,3.33l-2.02,0c-0.35-0.88-1.15-1.49-2.24-1.49c-0.72-0.01-1.28,0.24-1.77,0.71
					c-0.42,0.45-0.68,1.12-0.68,1.84c0,1.5,1.05,2.55,2.45,2.55c1.24,0,1.93-0.74,2.23-1.42L1288.99,194.6z"/>
				<path class="st2" d="M1294.06,191.56c-0.01-0.44-0.24-0.89-1.01-0.89c-0.67,0-0.98,0.42-0.98,0.83
					c0.02,0.53,0.62,0.82,1.41,1.04c1.33,0.36,2.76,0.75,2.78,2.53c0.03,1.71-1.4,2.79-3.14,2.8c-1.28,0-3.02-0.66-3.18-2.67l1.98,0
					c0.08,0.89,0.85,1.07,1.22,1.07c0.62,0,1.15-0.41,1.13-0.97c0-0.71-0.62-0.91-2.15-1.43c-1.12-0.35-2.02-0.96-2.04-2.16
					c0-1.63,1.37-2.64,2.97-2.64c1.12,0,2.78,0.49,2.95,2.49L1294.06,191.56z"/>
				<path class="st2" d="M1297.47,189.4l1.48,0l0,1.16c0.35-0.69,1.3-1.41,2.49-1.41c0.76,0,1.54,0.23,2.11,0.87
					c0.21,0.21,0.44,0.65,0.53,0.8c0.14-0.24,0.3-0.53,0.59-0.82c0.53-0.53,1.28-0.86,2.17-0.86c0.75,0,1.6,0.21,2.2,0.83
					c0.73,0.74,0.91,1.53,0.91,3.09l0,4.53l-1.57,0l0-4.47c0-0.68-0.09-1.36-0.46-1.83c-0.29-0.42-0.72-0.68-1.46-0.68
					c-0.69,0-1.28,0.29-1.59,0.79c-0.33,0.51-0.38,0.97-0.37,1.66l0,4.53l-1.59,0l0-4.53c0.01-0.68-0.06-1.18-0.33-1.63
					c-0.3-0.48-0.79-0.8-1.56-0.81c-0.74-0.01-1.28,0.35-1.55,0.8c-0.3,0.44-0.44,1.01-0.44,1.68l0,4.5l-1.57,0L1297.47,189.4z"/>
				<path class="st2" d="M1318.14,192.76c-0.08-1.09-1.17-2.31-2.72-2.28c-1.6,0-2.64,1.16-2.72,2.28L1318.14,192.76z
					 M1312.68,193.99c0.08,1.66,1.53,2.5,2.77,2.5c1.1,0,1.92-0.53,2.37-1.39l1.63,0c-0.39,0.91-0.96,1.59-1.66,2.04
					c-0.69,0.47-1.51,0.7-2.34,0.7c-2.69,0-4.35-2.16-4.35-4.33c0-2.36,1.84-4.37,4.33-4.37c1.18,0,2.25,0.44,3.04,1.21
					c0.97,0.98,1.38,2.26,1.24,3.64L1312.68,193.99z"/>
				<path class="st2" d="M1322.04,193.48c0.02,1.51,1.07,2.88,2.89,2.88c0.8,0,1.54-0.33,2.05-0.86c0.53-0.53,0.83-1.25,0.8-2.07
					c0-0.82-0.32-1.53-0.83-2.02c-0.51-0.51-1.22-0.81-2.02-0.81c-1.74,0-2.88,1.33-2.88,2.87V193.48z M1329.26,197.58l-1.51,0
					l0-1.44c-0.45,0.85-1.37,1.68-3.06,1.68c-2.58,0-4.22-1.99-4.22-4.36c0-2.55,1.84-4.34,4.18-4.34c1.68,0,2.7,0.93,3.04,1.58
					l0-1.45l0-2.85l1.57,0L1329.26,197.58z"/>
			</g>
			<path class="st2" d="M1331.04,189.36l0.01,8.22l1.57,0l-0.01-8.21H1331.04z M1331.03,186.4l0,1.66l1.57,0l0-1.66L1331.03,186.4z"
				/>
			<g>
				<path class="st2" d="M1335.46,193.5c0.02,1.22,0.88,2.85,2.87,2.85c1.25,0,2.14-0.7,2.55-1.63c0.18-0.38,0.27-0.8,0.28-1.22
					c0.01-0.42-0.06-0.85-0.24-1.22c-0.39-0.95-1.32-1.69-2.63-1.69c-1.72,0-2.84,1.36-2.84,2.9V193.5z M1342.73,197.57l-1.57,0
					l0-1.44c-0.57,1.1-1.75,1.68-3.05,1.68c-2.64,0-4.22-2.05-4.22-4.34c0-2.51,1.82-4.35,4.21-4.35c1.63,0,2.68,0.9,3.05,1.69
					l0-1.45l1.57,0L1342.73,197.57z"/>
				<path class="st3" d="M1280.95,180.28c-0.73,0-1.46-0.24-2.06-0.75c-1.37-1.14-1.55-3.17-0.41-4.53l24.21-29.04
					c2.94-3.53,7.99-4.47,12-2.22c4.17,2.34,5.98,7.45,4.21,11.89c0,0.01-0.01,0.01-0.01,0.02l-5.51,13.5
					c-0.61,1.53-0.03,3.28,1.37,4.15c1.35,0.84,3.08,0.51,4.22-0.79l10.64-12.71c1.14-1.36,3.17-1.54,4.53-0.4
					c1.36,1.14,1.54,3.17,0.4,4.53l-10.66,12.74c-0.01,0.01-0.02,0.03-0.03,0.04c-3.21,3.71-8.47,4.58-12.51,2.06
					c-4.06-2.52-5.71-7.58-3.94-12.01c0-0.01,0.01-0.01,0.01-0.02l5.5-13.5c0.58-1.45-0.01-3.11-1.37-3.87
					c-1.31-0.73-2.95-0.43-3.92,0.73l-24.21,29.04C1282.78,179.88,1281.87,180.28,1280.95,180.28"/>
			</g>
		</g>
		<g>
			<text transform="matrix(1 0 0 1 814.1857 528.9708)" class="st3 st5 st6">bcs-media.co</text>
			<g>
				<text transform="matrix(1 0 0 1 904.0304 528.9708)" class="st3 st5 st6">m</text>
			</g>
		</g>
	</g>
	<g>
		<line class="st4" x1="1163.07" y1="322.54" x2="1312.62" y2="241.8"/>
		<line class="st4" x1="860.21" y1="486.05" x2="976.92" y2="423.03"/>
		<line class="st4" x1="1169.46" y1="409" x2="1302.51" y2="482.85"/>
		<line class="st4" x1="858.81" y1="242.1" x2="979.25" y2="308.96"/>
	</g>
</g>
<g>
	<g>
		<path class="st0" d="M1363.59,670.13v538.39c0,16.56-12.81,30.96-30.94,34.76l-277.04,58.15c-25.22,5.29-49.39-11.72-49.39-34.76
			V729.92c0-16.48,12.68-30.82,30.69-34.71l277.04-59.79C1339.23,629.97,1363.59,647,1363.59,670.13"/>
		<path class="st1" d="M1363.59,670.13v538.39c0,16.56-12.81,30.96-30.94,34.76l-277.04,58.15c-25.22,5.29-49.39-11.72-49.39-34.76
			V729.92c0-16.48,12.68-30.82,30.69-34.71l277.04-59.79C1339.23,629.97,1363.59,647,1363.59,670.13z"/>
	</g>
	<polygon class="st0" points="1312.48,738.57 1313.02,1198.23 1057.32,1198.23 1056.78,738.57 	"/>
	<polygon class="st1" points="1312.48,738.57 1313.02,1198.23 1057.32,1198.23 1056.78,738.57 	"/>
	<g>
		<g>
			<path class="st2" d="M1256.15,717.61c0-1.2-0.92-2.24-2.21-2.24c-1.36,0-2.21,1.07-2.21,2.26c0,1.23,0.86,2.27,2.18,2.27
				c1.43,0,2.24-1.14,2.24-2.27V717.61z M1250.04,711.42l1.75,0l0,2.58l0,0.88c0.72-0.89,1.77-1.14,2.44-1.14
				c1.74,0,3.66,1.27,3.66,3.85c0,2.48-1.73,3.93-3.73,3.93c-1.15,0-2.04-0.56-2.43-1.28l0,1.05l-1.68,0L1250.04,711.42z"/>
			<path class="st2" d="M1266.52,718.61c-0.41,1.63-1.87,2.9-3.76,2.9c-2.32,0-3.92-1.8-3.93-3.89c0-2.16,1.66-3.88,3.85-3.89
				c1.84,0,3.41,1.16,3.83,2.94l-1.79,0c-0.31-0.77-1.01-1.32-1.98-1.32c-0.64-0.01-1.13,0.21-1.56,0.63
				c-0.37,0.4-0.6,0.99-0.6,1.63c0,1.32,0.92,2.26,2.16,2.25c1.09,0,1.71-0.66,1.97-1.26L1266.52,718.61z"/>
			<path class="st2" d="M1271,715.92c-0.01-0.39-0.21-0.79-0.89-0.79c-0.59,0-0.87,0.37-0.87,0.73c0.01,0.47,0.55,0.72,1.24,0.92
				c1.17,0.32,2.44,0.66,2.46,2.24c0.03,1.51-1.24,2.47-2.77,2.47c-1.14,0-2.67-0.58-2.81-2.36l1.75,0
				c0.07,0.79,0.75,0.95,1.08,0.95c0.55,0,1.02-0.36,1-0.86c0-0.63-0.55-0.8-1.9-1.26c-0.99-0.31-1.79-0.85-1.8-1.91
				c0-1.44,1.21-2.34,2.63-2.34c0.99,0,2.46,0.44,2.6,2.2L1271,715.92z"/>
			<path class="st2" d="M1274.01,714.01l1.31,0l0,1.03c0.31-0.61,1.15-1.24,2.2-1.24c0.67,0,1.36,0.2,1.87,0.77
				c0.19,0.19,0.39,0.57,0.47,0.71c0.12-0.21,0.27-0.47,0.52-0.72c0.47-0.47,1.13-0.76,1.92-0.76c0.67,0,1.41,0.19,1.95,0.73
				c0.64,0.65,0.8,1.35,0.8,2.73l0,4l-1.39,0l0-3.95c0-0.6-0.08-1.2-0.4-1.61c-0.25-0.37-0.64-0.6-1.29-0.6
				c-0.61,0-1.13,0.25-1.4,0.7c-0.29,0.45-0.33,0.85-0.33,1.47l0,4l-1.4,0l0-4c0.01-0.6-0.06-1.04-0.3-1.44
				c-0.27-0.43-0.7-0.71-1.38-0.72c-0.65-0.01-1.13,0.31-1.37,0.71c-0.27,0.39-0.39,0.89-0.38,1.48l0,3.98l-1.39,0L1274.01,714.01z"
				/>
			<path class="st2" d="M1292.29,716.98c-0.07-0.96-1.03-2.04-2.4-2.01c-1.41,0-2.34,1.03-2.4,2.02L1292.29,716.98z M1287.46,718.07
				c0.07,1.47,1.35,2.21,2.44,2.21c0.97,0,1.7-0.47,2.09-1.23l1.44,0c-0.35,0.8-0.85,1.4-1.47,1.8c-0.61,0.41-1.33,0.62-2.07,0.62
				c-2.38,0-3.85-1.9-3.85-3.83c0-2.08,1.62-3.86,3.83-3.86c1.04,0,1.99,0.38,2.68,1.07c0.85,0.87,1.22,2,1.1,3.22L1287.46,718.07z"
				/>
			<path class="st2" d="M1295.73,717.62c0.01,1.33,0.95,2.55,2.55,2.55c0.71,0,1.36-0.3,1.81-0.76c0.47-0.47,0.73-1.11,0.7-1.83
				c0-0.72-0.28-1.35-0.74-1.79c-0.45-0.45-1.08-0.72-1.79-0.72c-1.54,0-2.55,1.18-2.55,2.54V717.62z M1302.11,721.25l-1.33,0
				l0-1.27c-0.4,0.75-1.21,1.48-2.71,1.48c-2.28,0-3.73-1.76-3.73-3.85c0-2.26,1.62-3.83,3.69-3.83c1.48,0,2.39,0.82,2.68,1.4
				l0-1.28l0-2.52l1.39,0L1302.11,721.25z"/>
		</g>
		<path class="st2" d="M1303.68,713.98l0.01,7.26l1.39,0l-0.01-7.26H1303.68z M1303.68,711.37l0,1.47l1.39,0l0-1.47L1303.68,711.37z
			"/>
		<g>
			<path class="st2" d="M1307.6,717.64c0.01,1.08,0.78,2.52,2.54,2.52c1.11,0,1.89-0.62,2.25-1.44c0.16-0.33,0.24-0.71,0.25-1.08
				c0.01-0.37-0.05-0.75-0.21-1.08c-0.35-0.84-1.16-1.49-2.32-1.49c-1.52,0-2.51,1.2-2.51,2.56V717.64z M1314.02,721.23l-1.39,0
				l0-1.27c-0.51,0.98-1.55,1.48-2.69,1.48c-2.34,0-3.73-1.81-3.73-3.84c0-2.22,1.61-3.85,3.72-3.85c1.44,0,2.36,0.8,2.7,1.49
				l0-1.28l1.39,0L1314.02,721.23z"/>
			<path class="st3" d="M1259.42,705.95c-0.64,0-1.29-0.22-1.82-0.66c-1.21-1.01-1.37-2.8-0.36-4.01l21.4-25.66
				c2.6-3.12,7.06-3.95,10.61-1.96c3.69,2.06,5.29,6.58,3.72,10.51c0,0,0,0.01-0.01,0.02l-4.87,11.93c-0.54,1.36-0.03,2.9,1.21,3.67
				c1.19,0.74,2.72,0.45,3.73-0.7l9.4-11.24c1.01-1.2,2.8-1.36,4.01-0.36s1.36,2.8,0.36,4.01l-9.42,11.25
				c-0.01,0.01-0.02,0.02-0.03,0.03c-2.84,3.28-7.49,4.05-11.06,1.82c-3.58-2.23-5.05-6.7-3.48-10.62c0-0.01,0.01-0.01,0.01-0.02
				l4.86-11.93c0.51-1.28-0.01-2.75-1.21-3.42c-1.16-0.65-2.61-0.38-3.46,0.64l-21.4,25.66
				C1261.04,705.6,1260.23,705.95,1259.42,705.95"/>
		</g>
	</g>
	<g>
		<text transform="matrix(1 0 0 1 1056.3623 1216.6798)" class="st3 st5 st7">bcs-media.co</text>
	</g>
	<text transform="matrix(1 0 0 1 1135.7568 1216.6798)" class="st3 st5 st7">m</text>
</g>
<g>
	<line class="st4" x1="1234.73" y1="1051.61" x2="1306.08" y2="1183.77"/>
	<line class="st4" x1="1090.24" y1="783.97" x2="1145.92" y2="887.11"/>
	<line class="st4" x1="1158.33" y1="1057.26" x2="1093.06" y2="1174.84"/>
	<line class="st4" x1="1310.72" y1="782.73" x2="1251.64" y2="889.16"/>
</g>
<g>
	<g>
		<g>
			<path class="st0" d="M922.94,1356.22l-258.71-0.71c-22.91-0.06-41.43-18.69-41.37-41.59l1.8-655.98
				c0.06-22.91,18.69-41.43,41.59-41.36l258.71,0.71c22.91,0.06,41.43,18.69,41.37,41.59l-1.8,655.97
				C964.47,1337.76,945.85,1356.28,922.94,1356.22"/>
			<path class="st1" d="M922.94,1356.22l-258.71-0.71c-22.91-0.06-41.43-18.69-41.37-41.59l1.8-655.98
				c0.06-22.91,18.69-41.43,41.59-41.36l258.71,0.71c22.91,0.06,41.43,18.69,41.37,41.59l-1.8,655.97
				C964.47,1337.76,945.85,1356.28,922.94,1356.22z"/>
			<path class="st0" d="M919.48,1132.35l-250.55-0.69c-9.24-0.03-16.71-7.54-16.69-16.78l1.21-440.59
				c0.03-9.24,7.54-16.71,16.78-16.69l250.55,0.69c9.24,0.03,16.71,7.54,16.69,16.78l-1.21,440.59
				C936.23,1124.9,928.72,1132.37,919.48,1132.35"/>
			<path class="st1" d="M919.48,1132.35l-250.55-0.69c-9.24-0.03-16.71-7.54-16.69-16.78l1.21-440.59
				c0.03-9.24,7.54-16.71,16.78-16.69l250.55,0.69c9.24,0.03,16.71,7.54,16.69,16.78l-1.21,440.59
				C936.23,1124.9,928.72,1132.37,919.48,1132.35z"/>
			<path class="st0" d="M994.94,1401.88l-402.95-1.11c-6.17-0.02-11.17-5.04-11.15-11.21l0.06-23.1
				c0.02-6.18,5.04-11.17,11.21-11.15l402.95,1.11c6.18,0.02,11.17,5.04,11.15,11.21l-0.06,23.1
				C1006.13,1396.91,1001.11,1401.9,994.94,1401.88"/>
			<path class="st1" d="M994.94,1401.88l-402.95-1.11c-6.17-0.02-11.17-5.04-11.15-11.21l0.06-23.1
				c0.02-6.18,5.04-11.17,11.21-11.15l402.95,1.11c6.18,0.02,11.17,5.04,11.15,11.21l-0.06,23.1
				C1006.13,1396.91,1001.11,1401.9,994.94,1401.88z"/>
			<path class="st2" d="M741.64,1280.36c0-2.51-1.93-4.69-4.61-4.68c-2.85,0-4.63,2.24-4.62,4.72c0,2.57,1.79,4.74,4.55,4.73
				c2.99,0,4.68-2.37,4.68-4.74V1280.36z M728.88,1267.43l3.65,0l0.01,5.38l0,1.84c1.5-1.87,3.71-2.37,5.1-2.37
				c3.63,0,7.64,2.64,7.65,8.05c0.01,5.19-3.62,8.2-7.8,8.21c-2.4,0-4.27-1.17-5.08-2.67l0,2.21l-3.51,0L728.88,1267.43z"/>
			<path class="st2" d="M763.31,1282.46c-0.86,3.4-3.9,6.06-7.86,6.06c-4.85,0.01-8.2-3.76-8.21-8.13c0-4.52,3.48-8.12,8.05-8.12
				c3.85,0,7.11,2.42,8.01,6.15l-3.74,0c-0.64-1.62-2.12-2.76-4.13-2.76c-1.34-0.03-2.37,0.45-3.26,1.32
				c-0.78,0.83-1.25,2.06-1.25,3.4c0,2.76,1.93,4.71,4.52,4.71c2.29,0,3.57-1.37,4.13-2.63L763.31,1282.46z"/>
			<path class="st2" d="M772.67,1276.84c-0.03-0.81-0.45-1.64-1.87-1.64c-1.23,0-1.81,0.78-1.81,1.54c0.03,0.98,1.14,1.5,2.59,1.92
				c2.46,0.67,5.11,1.39,5.14,4.68c0.06,3.15-2.59,5.16-5.79,5.17c-2.37,0-5.58-1.22-5.86-4.93l3.66,0
				c0.14,1.64,1.56,1.98,2.26,1.98c1.14,0,2.12-0.76,2.09-1.78c0-1.31-1.15-1.67-3.96-2.65c-2.06-0.64-3.74-1.78-3.77-3.98
				c0-3.01,2.53-4.88,5.49-4.89c2.07,0,5.13,0.91,5.44,4.6L772.67,1276.84z"/>
			<path class="st2" d="M778.97,1272.85l2.73,0l0,2.15c0.64-1.28,2.4-2.6,4.6-2.6c1.4,0,2.85,0.41,3.91,1.61
				c0.39,0.39,0.81,1.2,0.98,1.48c0.25-0.45,0.56-0.98,1.09-1.51c0.98-0.98,2.37-1.59,4.02-1.59c1.39,0,2.95,0.39,4.07,1.53
				c1.34,1.37,1.67,2.82,1.68,5.72l0.01,8.37h-2.9l-0.01-8.25c0-1.26-0.17-2.51-0.84-3.38c-0.53-0.78-1.34-1.25-2.71-1.25
				c-1.28,0-2.37,0.53-2.93,1.45c-0.61,0.95-0.69,1.79-0.69,3.07l0.01,8.37l-2.93,0l-0.01-8.37c0.03-1.26-0.11-2.18-0.62-3.01
				c-0.56-0.89-1.45-1.48-2.87-1.5c-1.37-0.03-2.37,0.64-2.87,1.48c-0.56,0.81-0.81,1.87-0.81,3.1l0.01,8.31l-2.9,0L778.97,1272.85z
				"/>
			<path class="st2" d="M817.15,1279.05c-0.14-2.01-2.15-4.26-5.03-4.2c-2.95,0-4.88,2.15-5.01,4.22L817.15,1279.05z
				 M807.06,1281.32c0.14,3.07,2.82,4.63,5.11,4.62c2.03,0,3.54-0.98,4.38-2.57l3.01,0c-0.72,1.67-1.78,2.93-3.07,3.77
				c-1.28,0.87-2.79,1.28-4.32,1.29c-4.96,0-8.03-3.98-8.04-8c0-4.35,3.39-8.06,8-8.07c2.17,0,4.16,0.8,5.61,2.22
				c1.79,1.81,2.54,4.18,2.29,6.72L807.06,1281.32z"/>
			<path class="st2" d="M824.35,1280.39c0.03,2.79,1.99,5.32,5.33,5.32c1.48,0,2.84-0.62,3.79-1.59c0.98-0.98,1.53-2.32,1.47-3.82
				c0-1.51-0.59-2.82-1.54-3.74c-0.95-0.95-2.26-1.5-3.74-1.5c-3.21,0.01-5.33,2.46-5.32,5.31V1280.39z M837.69,1287.96l-2.79,0
				l0-2.65c-0.83,1.56-2.53,3.1-5.66,3.1c-4.77,0-7.78-3.67-7.79-8.05c0-4.71,3.39-8.01,7.72-8.01c3.1,0,4.99,1.72,5.61,2.92l0-2.68
				l-0.01-5.27l2.9,0L837.69,1287.96z"/>
		</g>
		<path class="st2" d="M840.96,1272.78l0.01,15.17h2.9l-0.01-15.17L840.96,1272.78z M840.96,1267.32l0,3.07l2.9,0l0-3.07
			L840.96,1267.32z"/>
		<g>
			<path class="st2" d="M849.14,1280.42c0.03,2.26,1.62,5.27,5.3,5.27c2.31,0,3.96-1.29,4.71-3.02c0.33-0.7,0.5-1.48,0.53-2.26
				c0.03-0.78-0.11-1.56-0.45-2.26c-0.73-1.76-2.43-3.12-4.86-3.12c-3.18,0-5.24,2.52-5.24,5.36V1280.42z M862.56,1287.93l-2.9,0
				l0-2.65c-1.06,2.04-3.23,3.1-5.63,3.1c-4.88,0-7.79-3.79-7.79-8.03c0-4.63,3.37-8.03,7.77-8.04c3.01,0,4.94,1.67,5.63,3.12
				l0-2.68l2.9,0L862.56,1287.93z"/>
			<path class="st3" d="M748.47,1256c-1.35,0-2.7-0.45-3.81-1.38c-2.52-2.1-2.86-5.85-0.76-8.37l44.72-53.62
				c5.43-6.52,14.76-8.25,22.17-4.11c7.71,4.31,11.05,13.75,7.77,21.95c0,0.01-0.01,0.02-0.01,0.04l-10.17,24.93
				c-1.12,2.83-0.06,6.05,2.53,7.66c2.49,1.55,5.69,0.95,7.8-1.46l19.64-23.48c2.11-2.52,5.85-2.85,8.38-0.75
				c2.52,2.11,2.85,5.86,0.74,8.38l-19.68,23.52c-0.02,0.03-0.04,0.05-0.06,0.07c-5.92,6.85-15.64,8.46-23.11,3.81
				c-7.49-4.66-10.55-13.99-7.28-22.18c0-0.01,0.01-0.03,0.02-0.04l10.16-24.94c1.06-2.67-0.03-5.74-2.54-7.14
				c-2.42-1.35-5.46-0.79-7.23,1.34l-44.72,53.62C751.86,1255.27,750.17,1256,748.47,1256"/>
		</g>
	</g>
	<g>
		<line class="st4" x1="827.09" y1="986.16" x2="903.28" y2="1127.29"/>
		<line class="st4" x1="672.79" y1="700.36" x2="732.25" y2="810.5"/>
		<line class="st4" x1="745.5" y1="992.19" x2="675.8" y2="1117.76"/>
		<line class="st4" x1="908.23" y1="699.04" x2="845.14" y2="812.69"/>
	</g>
</g>
</svg>
