<?xml version="1.0" encoding="utf-8"?>
<!-- Generator: Adobe Illustrator 24.0.3, SVG Export Plug-In . SVG Version: 6.00 Build 0)  -->
<svg version="1.1" id="Layer_1" xmlns="http://www.w3.org/2000/svg" xmlns:xlink="http://www.w3.org/1999/xlink" x="0px" y="0px"
	 viewBox="0 0 240 214" style="enable-background:new 0 0 240 214;" xml:space="preserve">
<style type="text/css">
	.st0{fill:#CE202F;}
</style>
<g>
	<path class="st0" d="M200.3,46.4c-10.1-15-30.6-20.2-47.4-15.6c-17.4,4.6-30.3,18.9-35.8,35.5c-4.3-14.1-13.8-27.8-28.1-31.5
		c-21.7-5.8-42.2,10.7-50.4,29.6c-17.4,39.7,4.9,89.2,41.6,109.7c-3.4,0-6.4,0-9.8,0h-0.3c-0.6-0.3-1.2,0-1.5,0.6
		c-0.9,0.9-0.9,3.1,0.6,3.1c1.2,0.3,2.8,0.3,4,0.6c9.8,3.4,19.9,5.5,30.3,6.4c2.4,0.3,3.4-3.1,1.8-4.3c-3.7-4-7.3-8.3-10.7-12.5
		c-1.8-2.4-3.4-5.2-5.5-7.3c-0.3-0.9-0.9-1.5-1.2-2.4c-1.5-3.1-6.4-0.3-4.6,2.8c1.8,4,4,7.9,5.8,11.9c-29-18.3-53.2-47.7-50.4-84.4
		c1.5-21.1,14.1-44.9,37.3-47.7c25.1-3.1,31.8,20.2,38.5,38.8c1.2,2.1,5.5,2.1,5.2-0.9c0-1.2-0.3-2.4-0.6-4
		c7-17.1,18.6-33.3,37.9-37.3c26.3-5.5,45.5,16.2,41.9,41.6c-4.3,30.6-29.3,53.5-49.8,76.4c-0.9-2.1-0.9-5.2-0.9-7.6
		c0-1.8-3.1-2.4-3.4-0.6c-0.9,4-1.5,8.6,0.6,12.2c-1.5,1.8-3.1,3.7-4.6,5.2c0-0.3,0-0.9-0.3-1.5c-0.3-2.1-0.6-4-0.9-6.1
		c-0.3-1.8-3.4-1.2-3.1,0.3c0.3,2.8,0.3,5.5,0.6,8.6c0,0.9,0.3,1.8,0.6,2.4c-0.9,1.2-2.1,2.8-3.1,4c-1.8,2.8,2.1,5.5,4.3,3.4
		c1.5-1.5,3.1-2.8,4.6-4.3c0.6,0,0.9,0,1.5,0c3.1,0,6.1,0.6,9.2,0.3c4-0.3,4-6.1,0-6.4c-1.2,0-2.8,0-4.3,0c0.6-0.6,1.5-1.5,2.1-2.1
		c0.6,0,1.2,0,2.1,0c4.3,0.3,8.9,0.9,13.1-0.3c2.4-0.6,2.4-4.3,0-5.2c-3.1-0.9-6.4-0.6-9.5-0.3c14.7-15.3,28.4-32.4,38.5-49.5
		C206.4,90.4,213.2,65.3,200.3,46.4z"/>
</g>
</svg>
