<?xml version="1.0" encoding="utf-8"?>
<!-- Generator: Adobe Illustrator 25.0.1, SVG Export Plug-In . SVG Version: 6.00 Build 0)  -->
<svg version="1.1" id="Layer_1" xmlns="http://www.w3.org/2000/svg" xmlns:xlink="http://www.w3.org/1999/xlink" x="0px" y="0px"
	 viewBox="0 0 4776 1080" style="enable-background:new 0 0 4776 1080;" xml:space="preserve">
<style type="text/css">
	.st0{opacity:0.26;}
	.st1{fill:#CE0E2D;}
</style>
<g class="st0">
	<path class="st1" d="M4540.89,141.5c0-3.57,2.89-6.48,6.45-6.48c3.57,0,6.46,2.86,6.46,6.41v0.07c0,3.57-2.89,6.45-6.46,6.45
		C4543.78,147.95,4540.89,145.07,4540.89,141.5"/>
	<path class="st1" d="M4540.89,272.88c0-3.57,2.89-6.53,6.45-6.53c3.57,0,6.46,2.82,6.46,6.39v0.14c0,3.56-2.89,6.45-6.46,6.45
		C4543.78,279.33,4540.89,276.44,4540.89,272.88 M4540.89,404.26c0-3.57,2.89-6.52,6.45-6.52c3.57,0,6.46,2.82,6.46,6.39v0.13
		c0,3.56-2.89,6.45-6.46,6.45C4543.78,410.7,4540.89,407.81,4540.89,404.26 M4540.89,535.64c0-3.57,2.89-6.53,6.45-6.53
		c3.57,0,6.46,2.83,6.46,6.39v0.14c0,3.56-2.89,6.45-6.46,6.45C4543.78,542.09,4540.89,539.2,4540.89,535.64 M4540.89,667.02
		c0-3.57,2.89-6.52,6.45-6.52c3.57,0,6.46,2.83,6.46,6.39v0.13c0,3.56-2.89,6.45-6.46,6.45
		C4543.78,673.46,4540.89,670.57,4540.89,667.02 M4540.89,798.4c0-3.57,2.89-6.52,6.45-6.52c3.57,0,6.46,2.82,6.46,6.38v0.14
		c0,3.57-2.89,6.45-6.46,6.45C4543.78,804.85,4540.89,801.97,4540.89,798.4"/>
	<path class="st1" d="M4540.89,929.72c0-3.57,2.89-6.48,6.45-6.48c3.57,0,6.46,2.86,6.46,6.41v0.07c0,3.57-2.89,6.45-6.46,6.45
		C4543.78,936.17,4540.89,933.29,4540.89,929.72"/>
	<path class="st1" d="M4397.17,141.5c0-3.57,2.89-6.48,6.45-6.48c3.57,0,6.46,2.86,6.46,6.41v0.07c0,3.57-2.89,6.45-6.46,6.45
		C4400.06,147.95,4397.17,145.07,4397.17,141.5"/>
	<path class="st1" d="M4397.17,272.88c0-3.57,2.89-6.53,6.45-6.53c3.57,0,6.46,2.82,6.46,6.39v0.14c0,3.56-2.89,6.45-6.46,6.45
		C4400.06,279.33,4397.17,276.44,4397.17,272.88 M4397.17,404.26c0-3.57,2.89-6.52,6.45-6.52c3.57,0,6.46,2.82,6.46,6.39v0.13
		c0,3.56-2.89,6.45-6.46,6.45C4400.06,410.7,4397.17,407.81,4397.17,404.26 M4397.17,535.64c0-3.57,2.89-6.53,6.45-6.53
		c3.57,0,6.46,2.83,6.46,6.39v0.14c0,3.56-2.89,6.45-6.46,6.45C4400.06,542.09,4397.17,539.2,4397.17,535.64 M4397.17,667.02
		c0-3.57,2.89-6.52,6.45-6.52c3.57,0,6.46,2.83,6.46,6.39v0.13c0,3.56-2.89,6.45-6.46,6.45
		C4400.06,673.46,4397.17,670.57,4397.17,667.02 M4397.17,798.4c0-3.57,2.89-6.52,6.45-6.52c3.57,0,6.46,2.82,6.46,6.38v0.14
		c0,3.57-2.89,6.45-6.46,6.45C4400.06,804.85,4397.17,801.97,4397.17,798.4"/>
	<path class="st1" d="M4397.17,929.72c0-3.57,2.89-6.48,6.45-6.48c3.57,0,6.46,2.86,6.46,6.41v0.07c0,3.57-2.89,6.45-6.46,6.45
		C4400.06,936.17,4397.17,933.29,4397.17,929.72"/>
</g>
<g class="st0">
	<path class="st1" d="M1117.99,297.73c4.04,0,7.34,3.27,7.34,7.3c0,4.04-3.23,7.31-7.26,7.31h-0.08c-4.04,0-7.3-3.27-7.3-7.31
		C1110.7,301,1113.96,297.73,1117.99,297.73"/>
	<path class="st1" d="M969.24,297.73c4.04,0,7.39,3.27,7.39,7.3c0,4.04-3.19,7.31-7.23,7.31h-0.16c-4.03,0-7.3-3.27-7.3-7.31
		C961.95,301,965.22,297.73,969.24,297.73 M820.49,297.73c4.04,0,7.38,3.27,7.38,7.3c0,4.04-3.19,7.31-7.23,7.31h-0.14
		c-4.03,0-7.3-3.27-7.3-7.31C813.2,301,816.48,297.73,820.49,297.73 M671.73,297.73c4.04,0,7.39,3.27,7.39,7.3
		c0,4.04-3.21,7.31-7.23,7.31h-0.16c-4.03,0-7.3-3.27-7.3-7.31C664.44,301,667.72,297.73,671.73,297.73 M522.98,297.73
		c4.04,0,7.38,3.27,7.38,7.3c0,4.04-3.21,7.31-7.23,7.31h-0.14c-4.03,0-7.3-3.27-7.3-7.31C515.7,301,518.96,297.73,522.98,297.73
		 M374.23,297.73c4.04,0,7.38,3.27,7.38,7.3c0,4.04-3.2,7.31-7.22,7.31h-0.16c-4.04,0-7.3-3.27-7.3-7.31
		C366.94,301,370.2,297.73,374.23,297.73"/>
	<path class="st1" d="M225.55,297.73c4.04,0,7.34,3.27,7.34,7.3c0,4.04-3.23,7.31-7.26,7.31h-0.08c-4.04,0-7.3-3.27-7.3-7.31
		C218.25,301,221.51,297.73,225.55,297.73"/>
	<path class="st1" d="M1117.99,135.02c4.04,0,7.34,3.27,7.34,7.3c0,4.04-3.23,7.31-7.26,7.31h-0.08c-4.04,0-7.3-3.27-7.3-7.31
		C1110.7,138.29,1113.96,135.02,1117.99,135.02"/>
	<path class="st1" d="M969.24,135.02c4.04,0,7.39,3.27,7.39,7.3c0,4.04-3.19,7.31-7.23,7.31h-0.16c-4.03,0-7.3-3.27-7.3-7.31
		C961.95,138.29,965.22,135.02,969.24,135.02 M820.49,135.02c4.04,0,7.38,3.27,7.38,7.3c0,4.04-3.19,7.31-7.23,7.31h-0.14
		c-4.03,0-7.3-3.27-7.3-7.31C813.2,138.29,816.48,135.02,820.49,135.02 M671.73,135.02c4.04,0,7.39,3.27,7.39,7.3
		c0,4.04-3.21,7.31-7.23,7.31h-0.16c-4.03,0-7.3-3.27-7.3-7.31C664.44,138.29,667.72,135.02,671.73,135.02 M522.98,135.02
		c4.04,0,7.38,3.27,7.38,7.3c0,4.04-3.21,7.31-7.23,7.31h-0.14c-4.03,0-7.3-3.27-7.3-7.31C515.7,138.29,518.96,135.02,522.98,135.02
		 M374.23,135.02c4.04,0,7.38,3.27,7.38,7.3c0,4.04-3.2,7.31-7.22,7.31h-0.16c-4.04,0-7.3-3.27-7.3-7.31
		C366.94,138.29,370.2,135.02,374.23,135.02"/>
	<path class="st1" d="M225.55,135.02c4.04,0,7.34,3.27,7.34,7.3c0,4.04-3.23,7.31-7.26,7.31h-0.08c-4.04,0-7.3-3.27-7.3-7.31
		C218.25,138.29,221.51,135.02,225.55,135.02"/>
</g>
</svg>
