<?xml version="1.0" encoding="utf-8"?>
<!-- Generator: Adobe Illustrator 24.0.3, SVG Export Plug-In . SVG Version: 6.00 Build 0)  -->
<svg version="1.1" id="Layer_1" xmlns="http://www.w3.org/2000/svg" xmlns:xlink="http://www.w3.org/1999/xlink" x="0px" y="0px"
	 viewBox="0 0 3488 1080" style="enable-background:new 0 0 3488 1080;" xml:space="preserve">
<style type="text/css">
	.st0{fill:#CE0E2D;}
</style>
<g>
	<path class="st0" d="M193.61,643.15c0-1.77,1.43-3.22,3.2-3.22c1.77,0,3.2,1.42,3.2,3.18v0.03c0,1.77-1.43,3.2-3.2,3.2
		C195.04,646.34,193.61,644.92,193.61,643.15"/>
	<path class="st0" d="M193.61,708.33c0-1.77,1.43-3.24,3.2-3.24c1.77,0,3.2,1.4,3.2,3.17v0.07c0,1.76-1.43,3.2-3.2,3.2
		C195.04,711.53,193.61,710.1,193.61,708.33 M193.61,773.51c0-1.77,1.43-3.23,3.2-3.23c1.77,0,3.2,1.4,3.2,3.17v0.06
		c0,1.76-1.43,3.2-3.2,3.2C195.04,776.71,193.61,775.28,193.61,773.51 M193.61,838.7c0-1.77,1.43-3.24,3.2-3.24
		c1.77,0,3.2,1.41,3.2,3.17v0.07c0,1.76-1.43,3.2-3.2,3.2C195.04,841.9,193.61,840.47,193.61,838.7 M193.61,903.88
		c0-1.77,1.43-3.23,3.2-3.23c1.77,0,3.2,1.41,3.2,3.17v0.06c0,1.76-1.43,3.2-3.2,3.2C195.04,907.08,193.61,905.65,193.61,903.88
		 M193.61,969.07c0-1.77,1.43-3.23,3.2-3.23c1.77,0,3.2,1.4,3.2,3.16v0.07c0,1.77-1.43,3.2-3.2,3.2
		C195.04,972.27,193.61,970.84,193.61,969.07"/>
	<path class="st0" d="M193.61,1034.22c0-1.77,1.43-3.22,3.2-3.22c1.77,0,3.2,1.42,3.2,3.18v0.03c0,1.77-1.43,3.2-3.2,3.2
		C195.04,1037.42,193.61,1035.99,193.61,1034.22"/>
	<path class="st0" d="M122.3,643.15c0-1.77,1.43-3.22,3.2-3.22c1.77,0,3.2,1.42,3.2,3.18v0.03c0,1.77-1.43,3.2-3.2,3.2
		C123.74,646.34,122.3,644.92,122.3,643.15"/>
	<path class="st0" d="M122.3,708.33c0-1.77,1.43-3.24,3.2-3.24c1.77,0,3.2,1.4,3.2,3.17v0.07c0,1.76-1.43,3.2-3.2,3.2
		C123.74,711.53,122.3,710.1,122.3,708.33 M122.3,773.51c0-1.77,1.43-3.23,3.2-3.23c1.77,0,3.2,1.4,3.2,3.17v0.06
		c0,1.76-1.43,3.2-3.2,3.2C123.74,776.71,122.3,775.28,122.3,773.51 M122.3,838.7c0-1.77,1.43-3.24,3.2-3.24
		c1.77,0,3.2,1.41,3.2,3.17v0.07c0,1.76-1.43,3.2-3.2,3.2C123.74,841.9,122.3,840.47,122.3,838.7 M122.3,903.88
		c0-1.77,1.43-3.23,3.2-3.23c1.77,0,3.2,1.41,3.2,3.17v0.06c0,1.76-1.43,3.2-3.2,3.2C123.74,907.08,122.3,905.65,122.3,903.88
		 M122.3,969.07c0-1.77,1.43-3.23,3.2-3.23c1.77,0,3.2,1.4,3.2,3.16v0.07c0,1.77-1.43,3.2-3.2,3.2
		C123.74,972.27,122.3,970.84,122.3,969.07"/>
	<path class="st0" d="M122.3,1034.22c0-1.77,1.43-3.22,3.2-3.22c1.77,0,3.2,1.42,3.2,3.18v0.03c0,1.77-1.43,3.2-3.2,3.2
		C123.74,1037.42,122.3,1035.99,122.3,1034.22"/>
	<path class="st0" d="M51,643.15c0-1.77,1.43-3.22,3.2-3.22c1.77,0,3.2,1.42,3.2,3.18v0.03c0,1.77-1.43,3.2-3.2,3.2
		C52.43,646.34,51,644.92,51,643.15"/>
	<path class="st0" d="M51,708.33c0-1.77,1.43-3.24,3.2-3.24c1.77,0,3.2,1.4,3.2,3.17v0.07c0,1.76-1.43,3.2-3.2,3.2
		C52.43,711.53,51,710.1,51,708.33 M51,773.51c0-1.77,1.43-3.23,3.2-3.23c1.77,0,3.2,1.4,3.2,3.17v0.06c0,1.76-1.43,3.2-3.2,3.2
		C52.43,776.71,51,775.28,51,773.51 M51,838.7c0-1.77,1.43-3.24,3.2-3.24c1.77,0,3.2,1.41,3.2,3.17v0.07c0,1.76-1.43,3.2-3.2,3.2
		C52.43,841.9,51,840.47,51,838.7 M51,903.88c0-1.77,1.43-3.23,3.2-3.23c1.77,0,3.2,1.41,3.2,3.17v0.06c0,1.76-1.43,3.2-3.2,3.2
		C52.43,907.08,51,905.65,51,903.88 M51,969.07c0-1.77,1.43-3.23,3.2-3.23c1.77,0,3.2,1.4,3.2,3.16v0.07c0,1.77-1.43,3.2-3.2,3.2
		C52.43,972.27,51,970.84,51,969.07"/>
	<path class="st0" d="M51,1034.22c0-1.77,1.43-3.22,3.2-3.22c1.77,0,3.2,1.42,3.2,3.18v0.03c0,1.77-1.43,3.2-3.2,3.2
		C52.43,1037.42,51,1035.99,51,1034.22"/>
</g>
<g>
	<path class="st0" d="M3363.61,57.15c0-1.77,1.43-3.22,3.2-3.22c1.77,0,3.2,1.42,3.2,3.18v0.03c0,1.77-1.43,3.2-3.2,3.2
		C3365.04,60.34,3363.61,58.92,3363.61,57.15"/>
	<path class="st0" d="M3363.61,122.33c0-1.77,1.43-3.24,3.2-3.24c1.77,0,3.2,1.4,3.2,3.17v0.07c0,1.76-1.43,3.2-3.2,3.2
		C3365.04,125.53,3363.61,124.1,3363.61,122.33 M3363.61,187.51c0-1.77,1.43-3.23,3.2-3.23c1.77,0,3.2,1.4,3.2,3.17v0.06
		c0,1.76-1.43,3.2-3.2,3.2C3365.04,190.71,3363.61,189.28,3363.61,187.51 M3363.61,252.7c0-1.77,1.43-3.24,3.2-3.24
		c1.77,0,3.2,1.41,3.2,3.17v0.07c0,1.76-1.43,3.2-3.2,3.2C3365.04,255.9,3363.61,254.47,3363.61,252.7 M3363.61,317.88
		c0-1.77,1.43-3.23,3.2-3.23c1.77,0,3.2,1.41,3.2,3.17v0.06c0,1.76-1.43,3.2-3.2,3.2C3365.04,321.08,3363.61,319.65,3363.61,317.88
		 M3363.61,383.07c0-1.77,1.43-3.23,3.2-3.23c1.77,0,3.2,1.4,3.2,3.16v0.07c0,1.77-1.43,3.2-3.2,3.2
		C3365.04,386.27,3363.61,384.84,3363.61,383.07"/>
	<path class="st0" d="M3363.61,448.22c0-1.77,1.43-3.22,3.2-3.22c1.77,0,3.2,1.42,3.2,3.18v0.03c0,1.77-1.43,3.2-3.2,3.2
		C3365.04,451.42,3363.61,449.99,3363.61,448.22"/>
	<path class="st0" d="M3292.3,57.15c0-1.77,1.43-3.22,3.2-3.22c1.77,0,3.2,1.42,3.2,3.18v0.03c0,1.77-1.43,3.2-3.2,3.2
		C3293.74,60.34,3292.3,58.92,3292.3,57.15"/>
	<path class="st0" d="M3292.3,122.33c0-1.77,1.43-3.24,3.2-3.24c1.77,0,3.2,1.4,3.2,3.17v0.07c0,1.76-1.43,3.2-3.2,3.2
		C3293.74,125.53,3292.3,124.1,3292.3,122.33 M3292.3,187.51c0-1.77,1.43-3.23,3.2-3.23c1.77,0,3.2,1.4,3.2,3.17v0.06
		c0,1.76-1.43,3.2-3.2,3.2C3293.74,190.71,3292.3,189.28,3292.3,187.51 M3292.3,252.7c0-1.77,1.43-3.24,3.2-3.24
		c1.77,0,3.2,1.41,3.2,3.17v0.07c0,1.76-1.43,3.2-3.2,3.2C3293.74,255.9,3292.3,254.47,3292.3,252.7 M3292.3,317.88
		c0-1.77,1.43-3.23,3.2-3.23c1.77,0,3.2,1.41,3.2,3.17v0.06c0,1.76-1.43,3.2-3.2,3.2C3293.74,321.08,3292.3,319.65,3292.3,317.88
		 M3292.3,383.07c0-1.77,1.43-3.23,3.2-3.23c1.77,0,3.2,1.4,3.2,3.16v0.07c0,1.77-1.43,3.2-3.2,3.2
		C3293.74,386.27,3292.3,384.84,3292.3,383.07"/>
	<path class="st0" d="M3292.3,448.22c0-1.77,1.43-3.22,3.2-3.22c1.77,0,3.2,1.42,3.2,3.18v0.03c0,1.77-1.43,3.2-3.2,3.2
		C3293.74,451.42,3292.3,449.99,3292.3,448.22"/>
	<path class="st0" d="M3221,57.15c0-1.77,1.43-3.22,3.2-3.22c1.77,0,3.2,1.42,3.2,3.18v0.03c0,1.77-1.43,3.2-3.2,3.2
		C3222.43,60.34,3221,58.92,3221,57.15"/>
	<path class="st0" d="M3221,122.33c0-1.77,1.43-3.24,3.2-3.24c1.77,0,3.2,1.4,3.2,3.17v0.07c0,1.76-1.43,3.2-3.2,3.2
		C3222.43,125.53,3221,124.1,3221,122.33 M3221,187.51c0-1.77,1.43-3.23,3.2-3.23c1.77,0,3.2,1.4,3.2,3.17v0.06
		c0,1.76-1.43,3.2-3.2,3.2C3222.43,190.71,3221,189.28,3221,187.51 M3221,252.7c0-1.77,1.43-3.24,3.2-3.24c1.77,0,3.2,1.41,3.2,3.17
		v0.07c0,1.76-1.43,3.2-3.2,3.2C3222.43,255.9,3221,254.47,3221,252.7 M3221,317.88c0-1.77,1.43-3.23,3.2-3.23
		c1.77,0,3.2,1.41,3.2,3.17v0.06c0,1.76-1.43,3.2-3.2,3.2C3222.43,321.08,3221,319.65,3221,317.88 M3221,383.07
		c0-1.77,1.43-3.23,3.2-3.23c1.77,0,3.2,1.4,3.2,3.16v0.07c0,1.77-1.43,3.2-3.2,3.2C3222.43,386.27,3221,384.84,3221,383.07"/>
	<path class="st0" d="M3221,448.22c0-1.77,1.43-3.22,3.2-3.22c1.77,0,3.2,1.42,3.2,3.18v0.03c0,1.77-1.43,3.2-3.2,3.2
		C3222.43,451.42,3221,449.99,3221,448.22"/>
</g>
</svg>
