<?xml version="1.0" encoding="utf-8"?>
<!-- Generator: Adobe Illustrator 25.0.1, SVG Export Plug-In . SVG Version: 6.00 Build 0)  -->
<svg version="1.1" id="Layer_1" xmlns="http://www.w3.org/2000/svg" xmlns:xlink="http://www.w3.org/1999/xlink" x="0px" y="0px"
	 viewBox="0 0 4776 1080" style="enable-background:new 0 0 4776 1080;" xml:space="preserve">
<style type="text/css">
	.st0{fill:#CE0E2D;}
</style>
<g>
	<path class="st0" d="M4540.89,141.5c0-3.57,2.89-6.48,6.45-6.48c3.57,0,6.46,2.86,6.46,6.41v0.07c0,3.57-2.89,6.45-6.46,6.45
		C4543.78,147.95,4540.89,145.07,4540.89,141.5"/>
	<path class="st0" d="M4540.89,272.88c0-3.57,2.89-6.53,6.45-6.53c3.57,0,6.46,2.82,6.46,6.39v0.14c0,3.56-2.89,6.45-6.46,6.45
		C4543.78,279.33,4540.89,276.44,4540.89,272.88 M4540.89,404.26c0-3.57,2.89-6.52,6.45-6.52c3.57,0,6.46,2.82,6.46,6.39v0.13
		c0,3.56-2.89,6.45-6.46,6.45C4543.78,410.7,4540.89,407.81,4540.89,404.26 M4540.89,535.64c0-3.57,2.89-6.53,6.45-6.53
		c3.57,0,6.46,2.83,6.46,6.39v0.14c0,3.56-2.89,6.45-6.46,6.45C4543.78,542.09,4540.89,539.2,4540.89,535.64 M4540.89,667.02
		c0-3.57,2.89-6.52,6.45-6.52c3.57,0,6.46,2.83,6.46,6.39v0.13c0,3.56-2.89,6.45-6.46,6.45
		C4543.78,673.46,4540.89,670.57,4540.89,667.02 M4540.89,798.4c0-3.57,2.89-6.52,6.45-6.52c3.57,0,6.46,2.82,6.46,6.38v0.14
		c0,3.57-2.89,6.45-6.46,6.45C4543.78,804.85,4540.89,801.97,4540.89,798.4"/>
	<path class="st0" d="M4540.89,929.72c0-3.57,2.89-6.48,6.45-6.48c3.57,0,6.46,2.86,6.46,6.41v0.07c0,3.57-2.89,6.45-6.46,6.45
		C4543.78,936.17,4540.89,933.29,4540.89,929.72"/>
	<path class="st0" d="M4397.17,141.5c0-3.57,2.89-6.48,6.45-6.48c3.57,0,6.46,2.86,6.46,6.41v0.07c0,3.57-2.89,6.45-6.46,6.45
		C4400.06,147.95,4397.17,145.07,4397.17,141.5"/>
	<path class="st0" d="M4397.17,272.88c0-3.57,2.89-6.53,6.45-6.53c3.57,0,6.46,2.82,6.46,6.39v0.14c0,3.56-2.89,6.45-6.46,6.45
		C4400.06,279.33,4397.17,276.44,4397.17,272.88 M4397.17,404.26c0-3.57,2.89-6.52,6.45-6.52c3.57,0,6.46,2.82,6.46,6.39v0.13
		c0,3.56-2.89,6.45-6.46,6.45C4400.06,410.7,4397.17,407.81,4397.17,404.26 M4397.17,535.64c0-3.57,2.89-6.53,6.45-6.53
		c3.57,0,6.46,2.83,6.46,6.39v0.14c0,3.56-2.89,6.45-6.46,6.45C4400.06,542.09,4397.17,539.2,4397.17,535.64 M4397.17,667.02
		c0-3.57,2.89-6.52,6.45-6.52c3.57,0,6.46,2.83,6.46,6.39v0.13c0,3.56-2.89,6.45-6.46,6.45
		C4400.06,673.46,4397.17,670.57,4397.17,667.02 M4397.17,798.4c0-3.57,2.89-6.52,6.45-6.52c3.57,0,6.46,2.82,6.46,6.38v0.14
		c0,3.57-2.89,6.45-6.46,6.45C4400.06,804.85,4397.17,801.97,4397.17,798.4"/>
	<path class="st0" d="M4397.17,929.72c0-3.57,2.89-6.48,6.45-6.48c3.57,0,6.46,2.86,6.46,6.41v0.07c0,3.57-2.89,6.45-6.46,6.45
		C4400.06,936.17,4397.17,933.29,4397.17,929.72"/>
	<path class="st0" d="M4253.46,141.5c0-3.57,2.89-6.48,6.45-6.48c3.57,0,6.46,2.86,6.46,6.41v0.07c0,3.57-2.89,6.45-6.46,6.45
		C4256.35,147.95,4253.46,145.07,4253.46,141.5"/>
	<path class="st0" d="M4253.46,272.88c0-3.57,2.89-6.53,6.45-6.53c3.57,0,6.46,2.82,6.46,6.39v0.14c0,3.56-2.89,6.45-6.46,6.45
		C4256.35,279.33,4253.46,276.44,4253.46,272.88 M4253.46,404.26c0-3.57,2.89-6.52,6.45-6.52c3.57,0,6.46,2.82,6.46,6.39v0.13
		c0,3.56-2.89,6.45-6.46,6.45C4256.35,410.7,4253.46,407.81,4253.46,404.26 M4253.46,535.64c0-3.57,2.89-6.53,6.45-6.53
		c3.57,0,6.46,2.83,6.46,6.39v0.14c0,3.56-2.89,6.45-6.46,6.45C4256.35,542.09,4253.46,539.2,4253.46,535.64 M4253.46,667.02
		c0-3.57,2.89-6.52,6.45-6.52c3.57,0,6.46,2.83,6.46,6.39v0.13c0,3.56-2.89,6.45-6.46,6.45
		C4256.35,673.46,4253.46,670.57,4253.46,667.02 M4253.46,798.4c0-3.57,2.89-6.52,6.45-6.52c3.57,0,6.46,2.82,6.46,6.38v0.14
		c0,3.57-2.89,6.45-6.46,6.45C4256.35,804.85,4253.46,801.97,4253.46,798.4"/>
	<path class="st0" d="M4253.46,929.72c0-3.57,2.89-6.48,6.45-6.48c3.57,0,6.46,2.86,6.46,6.41v0.07c0,3.57-2.89,6.45-6.46,6.45
		C4256.35,936.17,4253.46,933.29,4253.46,929.72"/>
</g>
<g>
	<path class="st0" d="M1564.2,460.46c4.04,0,7.34,3.27,7.34,7.3c0,4.04-3.23,7.31-7.26,7.31h-0.08c-4.04,0-7.3-3.27-7.3-7.31
		C1556.9,463.73,1560.16,460.46,1564.2,460.46"/>
	<path class="st0" d="M1415.45,460.46c4.04,0,7.39,3.27,7.39,7.3c0,4.04-3.19,7.31-7.23,7.31h-0.16c-4.03,0-7.3-3.27-7.3-7.31
		C1408.15,463.73,1411.42,460.46,1415.45,460.46 M1266.7,460.46c4.04,0,7.38,3.27,7.38,7.3c0,4.04-3.19,7.31-7.23,7.31h-0.14
		c-4.03,0-7.3-3.27-7.3-7.31C1259.4,463.73,1262.68,460.46,1266.7,460.46 M1117.94,460.46c4.04,0,7.39,3.27,7.39,7.3
		c0,4.04-3.21,7.31-7.23,7.31h-0.16c-4.03,0-7.3-3.27-7.3-7.31C1110.64,463.73,1113.92,460.46,1117.94,460.46 M969.19,460.46
		c4.04,0,7.38,3.27,7.38,7.3c0,4.04-3.21,7.31-7.23,7.31h-0.14c-4.03,0-7.3-3.27-7.3-7.31C961.9,463.73,965.17,460.46,969.19,460.46
		 M820.43,460.46c4.04,0,7.38,3.27,7.38,7.3c0,4.04-3.2,7.31-7.22,7.31h-0.16c-4.04,0-7.3-3.27-7.3-7.31
		C813.14,463.73,816.4,460.46,820.43,460.46"/>
	<path class="st0" d="M671.75,460.46c4.04,0,7.34,3.27,7.34,7.3c0,4.04-3.23,7.31-7.26,7.31h-0.08c-4.04,0-7.3-3.27-7.3-7.31
		C664.45,463.73,667.71,460.46,671.75,460.46"/>
	<path class="st0" d="M1564.2,297.73c4.04,0,7.34,3.27,7.34,7.3c0,4.04-3.23,7.31-7.26,7.31h-0.08c-4.04,0-7.3-3.27-7.3-7.31
		C1556.9,301,1560.16,297.73,1564.2,297.73"/>
	<path class="st0" d="M1415.45,297.73c4.04,0,7.39,3.27,7.39,7.3c0,4.04-3.19,7.31-7.23,7.31h-0.16c-4.03,0-7.3-3.27-7.3-7.31
		C1408.15,301,1411.42,297.73,1415.45,297.73 M1266.7,297.73c4.04,0,7.38,3.27,7.38,7.3c0,4.04-3.19,7.31-7.23,7.31h-0.14
		c-4.03,0-7.3-3.27-7.3-7.31C1259.4,301,1262.68,297.73,1266.7,297.73 M1117.94,297.73c4.04,0,7.39,3.27,7.39,7.3
		c0,4.04-3.21,7.31-7.23,7.31h-0.16c-4.03,0-7.3-3.27-7.3-7.31C1110.64,301,1113.92,297.73,1117.94,297.73 M969.19,297.73
		c4.04,0,7.38,3.27,7.38,7.3c0,4.04-3.21,7.31-7.23,7.31h-0.14c-4.03,0-7.3-3.27-7.3-7.31C961.9,301,965.17,297.73,969.19,297.73
		 M820.43,297.73c4.04,0,7.38,3.27,7.38,7.3c0,4.04-3.2,7.31-7.22,7.31h-0.16c-4.04,0-7.3-3.27-7.3-7.31
		C813.14,301,816.4,297.73,820.43,297.73"/>
	<path class="st0" d="M671.75,297.73c4.04,0,7.34,3.27,7.34,7.3c0,4.04-3.23,7.31-7.26,7.31h-0.08c-4.04,0-7.3-3.27-7.3-7.31
		C664.45,301,667.71,297.73,671.75,297.73"/>
	<path class="st0" d="M1564.2,135.02c4.04,0,7.34,3.27,7.34,7.3c0,4.04-3.23,7.31-7.26,7.31h-0.08c-4.04,0-7.3-3.27-7.3-7.31
		C1556.9,138.29,1560.16,135.02,1564.2,135.02"/>
	<path class="st0" d="M1415.45,135.02c4.04,0,7.39,3.27,7.39,7.3c0,4.04-3.19,7.31-7.23,7.31h-0.16c-4.03,0-7.3-3.27-7.3-7.31
		C1408.15,138.29,1411.42,135.02,1415.45,135.02 M1266.7,135.02c4.04,0,7.38,3.27,7.38,7.3c0,4.04-3.19,7.31-7.23,7.31h-0.14
		c-4.03,0-7.3-3.27-7.3-7.31C1259.4,138.29,1262.68,135.02,1266.7,135.02 M1117.94,135.02c4.04,0,7.39,3.27,7.39,7.3
		c0,4.04-3.21,7.31-7.23,7.31h-0.16c-4.03,0-7.3-3.27-7.3-7.31C1110.64,138.29,1113.92,135.02,1117.94,135.02 M969.19,135.02
		c4.04,0,7.38,3.27,7.38,7.3c0,4.04-3.21,7.31-7.23,7.31h-0.14c-4.03,0-7.3-3.27-7.3-7.31C961.9,138.29,965.17,135.02,969.19,135.02
		 M820.43,135.02c4.04,0,7.38,3.27,7.38,7.3c0,4.04-3.2,7.31-7.22,7.31h-0.16c-4.04,0-7.3-3.27-7.3-7.31
		C813.14,138.29,816.4,135.02,820.43,135.02"/>
	<path class="st0" d="M671.75,135.02c4.04,0,7.34,3.27,7.34,7.3c0,4.04-3.23,7.31-7.26,7.31h-0.08c-4.04,0-7.3-3.27-7.3-7.31
		C664.45,138.29,667.71,135.02,671.75,135.02"/>
</g>
</svg>
