<?xml version="1.0" encoding="utf-8"?>
<!-- Generator: Adobe Illustrator 24.3.0, SVG Export Plug-In . SVG Version: 6.00 Build 0)  -->
<svg version="1.1" id="Layer_1" xmlns="http://www.w3.org/2000/svg" xmlns:xlink="http://www.w3.org/1999/xlink" x="0px" y="0px"
	 viewBox="0 0 4776 1080" style="enable-background:new 0 0 4776 1080;" xml:space="preserve">
<style type="text/css">
	.st0{opacity:0.39;}
	.st1{fill:#CE0E2D;}
</style>
<g class="st0">
	<path class="st1" d="M492.6,208.8c1.8,0,3.3,1.5,3.3,3.3c0,1.8-1.5,3.3-3.3,3.3h0c-1.8,0-3.3-1.5-3.3-3.3
		C489.3,210.3,490.8,208.8,492.6,208.8"/>
	<path class="st1" d="M424.9,208.8c1.8,0,3.4,1.5,3.4,3.3c0,1.8-1.5,3.3-3.3,3.3h-0.1c-1.8,0-3.3-1.5-3.3-3.3
		C421.5,210.3,423,208.8,424.9,208.8 M357.1,208.8c1.8,0,3.4,1.5,3.4,3.3c0,1.8-1.5,3.3-3.3,3.3h-0.1c-1.8,0-3.3-1.5-3.3-3.3
		C353.7,210.3,355.2,208.8,357.1,208.8 M289.3,208.8c1.8,0,3.4,1.5,3.4,3.3c0,1.8-1.5,3.3-3.3,3.3h-0.1c-1.8,0-3.3-1.5-3.3-3.3
		C285.9,210.3,287.4,208.8,289.3,208.8 M221.5,208.8c1.8,0,3.4,1.5,3.4,3.3c0,1.8-1.5,3.3-3.3,3.3h-0.1c-1.8,0-3.3-1.5-3.3-3.3
		C218.2,210.3,219.6,208.8,221.5,208.8 M153.7,208.8c1.8,0,3.4,1.5,3.4,3.3c0,1.8-1.5,3.3-3.3,3.3h-0.1c-1.8,0-3.3-1.5-3.3-3.3
		C150.4,210.3,151.9,208.8,153.7,208.8"/>
	<path class="st1" d="M85.9,208.8c1.8,0,3.3,1.5,3.3,3.3c0,1.8-1.5,3.3-3.3,3.3h0c-1.8,0-3.3-1.5-3.3-3.3
		C82.6,210.3,84.1,208.8,85.9,208.8"/>
	<path class="st1" d="M492.6,134.7c1.8,0,3.3,1.5,3.3,3.3s-1.5,3.3-3.3,3.3h0c-1.8,0-3.3-1.5-3.3-3.3
		C489.3,136.1,490.8,134.7,492.6,134.7"/>
	<path class="st1" d="M424.9,134.7c1.8,0,3.4,1.5,3.4,3.3s-1.5,3.3-3.3,3.3h-0.1c-1.8,0-3.3-1.5-3.3-3.3
		C421.5,136.1,423,134.7,424.9,134.7 M357.1,134.7c1.8,0,3.4,1.5,3.4,3.3s-1.5,3.3-3.3,3.3h-0.1c-1.8,0-3.3-1.5-3.3-3.3
		C353.7,136.1,355.2,134.7,357.1,134.7 M289.3,134.7c1.8,0,3.4,1.5,3.4,3.3s-1.5,3.3-3.3,3.3h-0.1c-1.8,0-3.3-1.5-3.3-3.3
		C285.9,136.1,287.4,134.7,289.3,134.7 M221.5,134.7c1.8,0,3.4,1.5,3.4,3.3s-1.5,3.3-3.3,3.3h-0.1c-1.8,0-3.3-1.5-3.3-3.3
		C218.2,136.1,219.6,134.7,221.5,134.7 M153.7,134.7c1.8,0,3.4,1.5,3.4,3.3s-1.5,3.3-3.3,3.3h-0.1c-1.8,0-3.3-1.5-3.3-3.3
		C150.4,136.1,151.9,134.7,153.7,134.7"/>
	<path class="st1" d="M85.9,134.7c1.8,0,3.3,1.5,3.3,3.3s-1.5,3.3-3.3,3.3h0c-1.8,0-3.3-1.5-3.3-3.3
		C82.6,136.1,84.1,134.7,85.9,134.7"/>
	<path class="st1" d="M492.6,60.5c1.8,0,3.3,1.5,3.3,3.3s-1.5,3.3-3.3,3.3h0c-1.8,0-3.3-1.5-3.3-3.3C489.3,62,490.8,60.5,492.6,60.5
		"/>
	<path class="st1" d="M424.9,60.5c1.8,0,3.4,1.5,3.4,3.3s-1.5,3.3-3.3,3.3h-0.1c-1.8,0-3.3-1.5-3.3-3.3S423,60.5,424.9,60.5
		 M357.1,60.5c1.8,0,3.4,1.5,3.4,3.3s-1.5,3.3-3.3,3.3h-0.1c-1.8,0-3.3-1.5-3.3-3.3S355.2,60.5,357.1,60.5 M289.3,60.5
		c1.8,0,3.4,1.5,3.4,3.3s-1.5,3.3-3.3,3.3h-0.1c-1.8,0-3.3-1.5-3.3-3.3S287.4,60.5,289.3,60.5 M221.5,60.5c1.8,0,3.4,1.5,3.4,3.3
		s-1.5,3.3-3.3,3.3h-0.1c-1.8,0-3.3-1.5-3.3-3.3S219.6,60.5,221.5,60.5 M153.7,60.5c1.8,0,3.4,1.5,3.4,3.3s-1.5,3.3-3.3,3.3h-0.1
		c-1.8,0-3.3-1.5-3.3-3.3S151.9,60.5,153.7,60.5"/>
	<path class="st1" d="M85.9,60.5c1.8,0,3.3,1.5,3.3,3.3s-1.5,3.3-3.3,3.3h0c-1.8,0-3.3-1.5-3.3-3.3C82.6,62,84.1,60.5,85.9,60.5"/>
</g>
<g class="st0">
	<path class="st1" d="M958.4,208.8c1.8,0,3.3,1.5,3.3,3.3c0,1.8-1.5,3.3-3.3,3.3h0c-1.8,0-3.3-1.5-3.3-3.3
		C955.1,210.3,956.6,208.8,958.4,208.8"/>
	<path class="st1" d="M890.7,208.8c1.8,0,3.4,1.5,3.4,3.3c0,1.8-1.5,3.3-3.3,3.3h-0.1c-1.8,0-3.3-1.5-3.3-3.3
		C887.3,210.3,888.8,208.8,890.7,208.8 M822.9,208.8c1.8,0,3.4,1.5,3.4,3.3c0,1.8-1.5,3.3-3.3,3.3h-0.1c-1.8,0-3.3-1.5-3.3-3.3
		C819.5,210.3,821,208.8,822.9,208.8 M755.1,208.8c1.8,0,3.4,1.5,3.4,3.3c0,1.8-1.5,3.3-3.3,3.3h-0.1c-1.8,0-3.3-1.5-3.3-3.3
		C751.7,210.3,753.2,208.8,755.1,208.8 M687.3,208.8c1.8,0,3.4,1.5,3.4,3.3c0,1.8-1.5,3.3-3.3,3.3h-0.1c-1.8,0-3.3-1.5-3.3-3.3
		C684,210.3,685.4,208.8,687.3,208.8 M619.5,208.8c1.8,0,3.4,1.5,3.4,3.3c0,1.8-1.5,3.3-3.3,3.3h-0.1c-1.8,0-3.3-1.5-3.3-3.3
		C616.2,210.3,617.7,208.8,619.5,208.8"/>
	<path class="st1" d="M551.7,208.8c1.8,0,3.3,1.5,3.3,3.3c0,1.8-1.5,3.3-3.3,3.3h0c-1.8,0-3.3-1.5-3.3-3.3
		C548.4,210.3,549.9,208.8,551.7,208.8"/>
	<path class="st1" d="M958.4,134.7c1.8,0,3.3,1.5,3.3,3.3s-1.5,3.3-3.3,3.3h0c-1.8,0-3.3-1.5-3.3-3.3
		C955.1,136.1,956.6,134.7,958.4,134.7"/>
	<path class="st1" d="M890.7,134.7c1.8,0,3.4,1.5,3.4,3.3s-1.5,3.3-3.3,3.3h-0.1c-1.8,0-3.3-1.5-3.3-3.3
		C887.3,136.1,888.8,134.7,890.7,134.7 M822.9,134.7c1.8,0,3.4,1.5,3.4,3.3s-1.5,3.3-3.3,3.3h-0.1c-1.8,0-3.3-1.5-3.3-3.3
		C819.5,136.1,821,134.7,822.9,134.7 M755.1,134.7c1.8,0,3.4,1.5,3.4,3.3s-1.5,3.3-3.3,3.3h-0.1c-1.8,0-3.3-1.5-3.3-3.3
		C751.7,136.1,753.2,134.7,755.1,134.7 M687.3,134.7c1.8,0,3.4,1.5,3.4,3.3s-1.5,3.3-3.3,3.3h-0.1c-1.8,0-3.3-1.5-3.3-3.3
		C684,136.1,685.4,134.7,687.3,134.7 M619.5,134.7c1.8,0,3.4,1.5,3.4,3.3s-1.5,3.3-3.3,3.3h-0.1c-1.8,0-3.3-1.5-3.3-3.3
		C616.2,136.1,617.7,134.7,619.5,134.7"/>
	<path class="st1" d="M551.7,134.7c1.8,0,3.3,1.5,3.3,3.3s-1.5,3.3-3.3,3.3h0c-1.8,0-3.3-1.5-3.3-3.3
		C548.4,136.1,549.9,134.7,551.7,134.7"/>
	<path class="st1" d="M958.4,60.5c1.8,0,3.3,1.5,3.3,3.3s-1.5,3.3-3.3,3.3h0c-1.8,0-3.3-1.5-3.3-3.3C955.1,62,956.6,60.5,958.4,60.5
		"/>
	<path class="st1" d="M890.7,60.5c1.8,0,3.4,1.5,3.4,3.3s-1.5,3.3-3.3,3.3h-0.1c-1.8,0-3.3-1.5-3.3-3.3S888.8,60.5,890.7,60.5
		 M822.9,60.5c1.8,0,3.4,1.5,3.4,3.3s-1.5,3.3-3.3,3.3h-0.1c-1.8,0-3.3-1.5-3.3-3.3S821,60.5,822.9,60.5 M755.1,60.5
		c1.8,0,3.4,1.5,3.4,3.3s-1.5,3.3-3.3,3.3h-0.1c-1.8,0-3.3-1.5-3.3-3.3S753.2,60.5,755.1,60.5 M687.3,60.5c1.8,0,3.4,1.5,3.4,3.3
		s-1.5,3.3-3.3,3.3h-0.1c-1.8,0-3.3-1.5-3.3-3.3S685.4,60.5,687.3,60.5 M619.5,60.5c1.8,0,3.4,1.5,3.4,3.3s-1.5,3.3-3.3,3.3h-0.1
		c-1.8,0-3.3-1.5-3.3-3.3S617.7,60.5,619.5,60.5"/>
	<path class="st1" d="M551.7,60.5c1.8,0,3.3,1.5,3.3,3.3s-1.5,3.3-3.3,3.3h0c-1.8,0-3.3-1.5-3.3-3.3C548.4,62,549.9,60.5,551.7,60.5
		"/>
</g>
<g>
	<path class="st1" d="M4707.7,1005.1c2.5,0,4.5,2,4.5,4.5s-2,4.5-4.4,4.5h0c-2.5,0-4.5-2-4.5-4.5S4705.2,1005.1,4707.7,1005.1"/>
	<path class="st1" d="M4616.5,1005.1c2.5,0,4.5,2,4.5,4.5s-2,4.5-4.4,4.5h-0.1c-2.5,0-4.5-2-4.5-4.5S4614,1005.1,4616.5,1005.1
		 M4525.3,1005.1c2.5,0,4.5,2,4.5,4.5s-2,4.5-4.4,4.5h-0.1c-2.5,0-4.5-2-4.5-4.5S4522.8,1005.1,4525.3,1005.1 M4434.1,1005.1
		c2.5,0,4.5,2,4.5,4.5s-2,4.5-4.4,4.5h-0.1c-2.5,0-4.5-2-4.5-4.5S4431.6,1005.1,4434.1,1005.1 M4342.9,1005.1c2.5,0,4.5,2,4.5,4.5
		s-2,4.5-4.4,4.5h-0.1c-2.5,0-4.5-2-4.5-4.5S4340.5,1005.1,4342.9,1005.1 M4251.7,1005.1c2.5,0,4.5,2,4.5,4.5s-2,4.5-4.4,4.5h-0.1
		c-2.5,0-4.5-2-4.5-4.5S4249.3,1005.1,4251.7,1005.1"/>
	<path class="st1" d="M4160.6,1005.1c2.5,0,4.5,2,4.5,4.5s-2,4.5-4.4,4.5h0c-2.5,0-4.5-2-4.5-4.5
		C4156.1,1007.1,4158.1,1005.1,4160.6,1005.1"/>
	<path class="st1" d="M4707.7,905.3c2.5,0,4.5,2,4.5,4.5s-2,4.5-4.4,4.5h0c-2.5,0-4.5-2-4.5-4.5
		C4703.2,907.3,4705.2,905.3,4707.7,905.3"/>
	<path class="st1" d="M4616.5,905.3c2.5,0,4.5,2,4.5,4.5s-2,4.5-4.4,4.5h-0.1c-2.5,0-4.5-2-4.5-4.5
		C4612,907.3,4614,905.3,4616.5,905.3 M4525.3,905.3c2.5,0,4.5,2,4.5,4.5s-2,4.5-4.4,4.5h-0.1c-2.5,0-4.5-2-4.5-4.5
		C4520.8,907.3,4522.8,905.3,4525.3,905.3 M4434.1,905.3c2.5,0,4.5,2,4.5,4.5s-2,4.5-4.4,4.5h-0.1c-2.5,0-4.5-2-4.5-4.5
		C4429.6,907.3,4431.6,905.3,4434.1,905.3 M4342.9,905.3c2.5,0,4.5,2,4.5,4.5s-2,4.5-4.4,4.5h-0.1c-2.5,0-4.5-2-4.5-4.5
		C4338.5,907.3,4340.5,905.3,4342.9,905.3 M4251.7,905.3c2.5,0,4.5,2,4.5,4.5s-2,4.5-4.4,4.5h-0.1c-2.5,0-4.5-2-4.5-4.5
		C4247.3,907.3,4249.3,905.3,4251.7,905.3"/>
	<path class="st1" d="M4160.6,905.3c2.5,0,4.5,2,4.5,4.5s-2,4.5-4.4,4.5h0c-2.5,0-4.5-2-4.5-4.5
		C4156.1,907.3,4158.1,905.3,4160.6,905.3"/>
	<path class="st1" d="M4707.7,805.6c2.5,0,4.5,2,4.5,4.5s-2,4.5-4.4,4.5h0c-2.5,0-4.5-2-4.5-4.5S4705.2,805.6,4707.7,805.6"/>
	<path class="st1" d="M4616.5,805.6c2.5,0,4.5,2,4.5,4.5s-2,4.5-4.4,4.5h-0.1c-2.5,0-4.5-2-4.5-4.5S4614,805.6,4616.5,805.6
		 M4525.3,805.6c2.5,0,4.5,2,4.5,4.5s-2,4.5-4.4,4.5h-0.1c-2.5,0-4.5-2-4.5-4.5S4522.8,805.6,4525.3,805.6 M4434.1,805.6
		c2.5,0,4.5,2,4.5,4.5s-2,4.5-4.4,4.5h-0.1c-2.5,0-4.5-2-4.5-4.5S4431.6,805.6,4434.1,805.6 M4342.9,805.6c2.5,0,4.5,2,4.5,4.5
		s-2,4.5-4.4,4.5h-0.1c-2.5,0-4.5-2-4.5-4.5S4340.5,805.6,4342.9,805.6 M4251.7,805.6c2.5,0,4.5,2,4.5,4.5s-2,4.5-4.4,4.5h-0.1
		c-2.5,0-4.5-2-4.5-4.5S4249.3,805.6,4251.7,805.6"/>
	<path class="st1" d="M4160.6,805.6c2.5,0,4.5,2,4.5,4.5s-2,4.5-4.4,4.5h0c-2.5,0-4.5-2-4.5-4.5
		C4156.1,807.6,4158.1,805.6,4160.6,805.6"/>
</g>
<g>
	<path class="st1" d="M4077.5,1008.6c2.5,0,4.5,2,4.5,4.5s-2,4.5-4.4,4.5h0c-2.5,0-4.5-2-4.5-4.5S4075,1008.6,4077.5,1008.6"/>
	<path class="st1" d="M3986.3,1008.6c2.5,0,4.5,2,4.5,4.5s-2,4.5-4.4,4.5h-0.1c-2.5,0-4.5-2-4.5-4.5S3983.8,1008.6,3986.3,1008.6
		 M3895.1,1008.6c2.5,0,4.5,2,4.5,4.5s-2,4.5-4.4,4.5h-0.1c-2.5,0-4.5-2-4.5-4.5S3892.6,1008.6,3895.1,1008.6 M3803.9,1008.6
		c2.5,0,4.5,2,4.5,4.5s-2,4.5-4.4,4.5h-0.1c-2.5,0-4.5-2-4.5-4.5S3801.4,1008.6,3803.9,1008.6 M3712.7,1008.6c2.5,0,4.5,2,4.5,4.5
		s-2,4.5-4.4,4.5h-0.1c-2.5,0-4.5-2-4.5-4.5S3710.3,1008.6,3712.7,1008.6 M3621.5,1008.6c2.5,0,4.5,2,4.5,4.5s-2,4.5-4.4,4.5h-0.1
		c-2.5,0-4.5-2-4.5-4.5S3619.1,1008.6,3621.5,1008.6"/>
	<path class="st1" d="M3530.4,1008.6c2.5,0,4.5,2,4.5,4.5s-2,4.5-4.4,4.5h0c-2.5,0-4.5-2-4.5-4.5
		C3525.9,1010.6,3527.9,1008.6,3530.4,1008.6"/>
	<path class="st1" d="M4077.5,908.8c2.5,0,4.5,2,4.5,4.5s-2,4.5-4.4,4.5h0c-2.5,0-4.5-2-4.5-4.5C4073,910.9,4075,908.8,4077.5,908.8
		"/>
	<path class="st1" d="M3986.3,908.8c2.5,0,4.5,2,4.5,4.5s-2,4.5-4.4,4.5h-0.1c-2.5,0-4.5-2-4.5-4.5
		C3981.8,910.9,3983.8,908.8,3986.3,908.8 M3895.1,908.8c2.5,0,4.5,2,4.5,4.5s-2,4.5-4.4,4.5h-0.1c-2.5,0-4.5-2-4.5-4.5
		C3890.6,910.9,3892.6,908.8,3895.1,908.8 M3803.9,908.8c2.5,0,4.5,2,4.5,4.5s-2,4.5-4.4,4.5h-0.1c-2.5,0-4.5-2-4.5-4.5
		C3799.4,910.9,3801.4,908.8,3803.9,908.8 M3712.7,908.8c2.5,0,4.5,2,4.5,4.5s-2,4.5-4.4,4.5h-0.1c-2.5,0-4.5-2-4.5-4.5
		C3708.3,910.9,3710.3,908.8,3712.7,908.8 M3621.5,908.8c2.5,0,4.5,2,4.5,4.5s-2,4.5-4.4,4.5h-0.1c-2.5,0-4.5-2-4.5-4.5
		C3617.1,910.9,3619.1,908.8,3621.5,908.8"/>
	<path class="st1" d="M3530.4,908.8c2.5,0,4.5,2,4.5,4.5s-2,4.5-4.4,4.5h0c-2.5,0-4.5-2-4.5-4.5
		C3525.9,910.9,3527.9,908.8,3530.4,908.8"/>
	<path class="st1" d="M4077.5,809.1c2.5,0,4.5,2,4.5,4.5s-2,4.5-4.4,4.5h0c-2.5,0-4.5-2-4.5-4.5S4075,809.1,4077.5,809.1"/>
	<path class="st1" d="M3986.3,809.1c2.5,0,4.5,2,4.5,4.5s-2,4.5-4.4,4.5h-0.1c-2.5,0-4.5-2-4.5-4.5S3983.8,809.1,3986.3,809.1
		 M3895.1,809.1c2.5,0,4.5,2,4.5,4.5s-2,4.5-4.4,4.5h-0.1c-2.5,0-4.5-2-4.5-4.5S3892.6,809.1,3895.1,809.1 M3803.9,809.1
		c2.5,0,4.5,2,4.5,4.5s-2,4.5-4.4,4.5h-0.1c-2.5,0-4.5-2-4.5-4.5S3801.4,809.1,3803.9,809.1 M3712.7,809.1c2.5,0,4.5,2,4.5,4.5
		s-2,4.5-4.4,4.5h-0.1c-2.5,0-4.5-2-4.5-4.5S3710.3,809.1,3712.7,809.1 M3621.5,809.1c2.5,0,4.5,2,4.5,4.5s-2,4.5-4.4,4.5h-0.1
		c-2.5,0-4.5-2-4.5-4.5S3619.1,809.1,3621.5,809.1"/>
	<path class="st1" d="M3530.4,809.1c2.5,0,4.5,2,4.5,4.5s-2,4.5-4.4,4.5h0c-2.5,0-4.5-2-4.5-4.5
		C3525.9,811.1,3527.9,809.1,3530.4,809.1"/>
</g>
</svg>
