<?xml version="1.0" encoding="utf-8"?>
<!-- Generator: Adobe Illustrator 24.0.3, SVG Export Plug-In . SVG Version: 6.00 Build 0)  -->
<svg version="1.1" id="Layer_1" xmlns="http://www.w3.org/2000/svg" xmlns:xlink="http://www.w3.org/1999/xlink" x="0px" y="0px"
	 viewBox="0 0 240 214" style="enable-background:new 0 0 240 214;" xml:space="preserve">
<style type="text/css">
	.st0{fill:#CE202F;}
</style>
<g>
	<path class="st0" d="M168.8,129l-17,11.2c-2.1-3.7-6.2-6.1-10.7-6.1h-15c-3.2,0-4.7-2.3-6.3-3.4c-11.6-10-29.1-10-40.7,0l-3.3,2.8
		H44.2c-1.7,0-3.1,1.4-3.1,3.1v37c0,1.7,1.4,3.1,3.1,3.1h32l55.2,9.2c0.8,0.1,1.6-0.1,2.3-0.5l63.9-46.5c1.4-1,1.7-2.9,0.7-4.3
		C191.5,125,178.6,122.7,168.8,129z M131.1,179.5l-54.2-9c-0.2,0-0.3,0-0.5,0H47.3v-30.8h29.8c1.9,0,2.4-1.3,6.2-4.3
		c9.3-8.1,23.3-8.1,32.6,0c1.3,0.9,4.3,4.9,10.3,4.9h15c3.3,0,6.2,2.6,6.2,6c0,3.3-2.8,6-6.2,6h-37c-1.7,0-3.1,1.4-3.1,3.1
		c0,1.7,1.4,3.1,3.1,3.1h37c6.7,0,12.2-5.3,12.3-11.9l18.7-12.4c6.1-4,13.9-3.2,19,1.6L131.1,179.5z"/>
	<path class="st0" d="M141.6,88.5c0,1.7-1.4,3.1-3.1,3.1c-1.7,0-3.1-1.4-3.1-3.1s1.4-3.1,3.1-3.1C140.2,85.4,141.6,86.8,141.6,88.5z
		"/>
	<path class="st0" d="M101.2,103.9h73.9c1.7,0,3.1-1.4,3.1-3.1v-12l9.3-47.7c0.2-1.2-0.3-2.5-1.3-3.2s-2.4-0.7-3.4,0l-25.2,16.8
		l-16.8-25.2c-0.6-0.9-1.5-1.4-2.6-1.4s-2,0.5-2.6,1.4L119,54.7L93.8,37.9c-1-0.7-2.4-0.7-3.4,0c-1,0.7-1.6,1.9-1.3,3.1l9,47.8v12
		C98.1,102.5,99.5,103.9,101.2,103.9z M118.1,61.5c1.4,0.9,3.3,0.6,4.3-0.9l15.9-23.9l15.9,23.9c0.9,1.4,2.9,1.8,4.3,0.9l21.6-14.4
		l-7.5,38.3h-20.3c-1.7,0-3.1,1.4-3.1,3.1s1.4,3.1,3.1,3.1h19.7v6.2h-67.8v-6.2h20.3c1.7,0,3.1-1.4,3.1-3.1s-1.4-3.1-3.1-3.1h-20.9
		l-7.3-38.3L118.1,61.5z"/>
</g>
</svg>
