<?xml version="1.0" encoding="utf-8"?>
<!-- Generator: Adobe Illustrator 25.0.1, SVG Export Plug-In . SVG Version: 6.00 Build 0)  -->
<svg version="1.1" id="Layer_1" xmlns="http://www.w3.org/2000/svg" xmlns:xlink="http://www.w3.org/1999/xlink" x="0px" y="0px"
	 viewBox="0 0 50 50" style="enable-background:new 0 0 50 50;" xml:space="preserve">
<style type="text/css">
	.st0{fill:#CE0E2D;}
	.st1{fill:#FFFFFF;stroke:#CE0E2D;stroke-width:0.5;stroke-miterlimit:10;}
	.st2{fill:#D30712;}
</style>
<circle class="st0" cx="68.5" cy="-60.98" r="21.75"/>
<g>
	<g>
		<g>
			<path class="st1" d="M53.97-71.2c-2.73,3.88-3.79,8.59-2.97,13.27s3.4,8.75,7.28,11.48c3.88,2.73,8.59,3.79,13.27,2.97
				s8.75-3.4,11.48-7.28s3.79-8.59,2.97-13.27s-3.4-8.75-7.28-11.48c-3.88-2.73-8.59-3.79-13.27-2.97S56.7-75.08,53.97-71.2z
				 M84.97-63.85c1.58,9.08-4.52,17.76-13.61,19.34s-17.76-4.52-19.34-13.61c-1.58-9.08,4.52-17.76,13.61-19.34
				C74.72-79.03,83.39-72.93,84.97-63.85z"/>
		</g>
	</g>
	<g>
		<g>
			<path class="st1" d="M55.1-58.65c0.55,3.18,2.23,6.07,4.71,8.13c0.22,0.18,0.55,0.15,0.73-0.07c0.18-0.22,0.15-0.55-0.07-0.73
				c-2.29-1.9-3.84-4.57-4.35-7.51c-1.19-6.82,3.4-13.34,10.22-14.53s13.34,3.4,14.53,10.22s-3.4,13.34-10.22,14.53
				c-2.94,0.51-5.97-0.04-8.54-1.56c-0.25-0.15-0.57-0.06-0.71,0.18c-0.15,0.25-0.06,0.57,0.18,0.71c2.78,1.64,6.06,2.24,9.25,1.69
				c7.39-1.29,12.35-8.34,11.07-15.73c-1.29-7.39-8.34-12.35-15.73-11.07C58.78-73.09,53.82-66.04,55.1-58.65z"/>
		</g>
	</g>
</g>
<g>
	<g>
		<g>
			<path class="st2" d="M16.34,36.68c-0.8,0-1.43-0.22-1.87-0.67c-1.07-1.1-0.84-3.46,0.64-6.49c2.88-5.9,9.65-12.76,15.08-15.27
				c2.48-1.15,4.37-1.24,5.33-0.27c1.07,1.1,0.84,3.46-0.64,6.49c-2.88,5.9-9.65,12.76-15.08,15.27
				C18.46,36.37,17.29,36.68,16.34,36.68z M30.22,14.31l0.03,0.06c-5.41,2.51-12.15,9.33-15.02,15.21
				c-1.45,2.98-1.69,5.29-0.66,6.35c0.92,0.94,2.76,0.83,5.19-0.29c5.41-2.51,12.15-9.33,15.02-15.21c1.45-2.98,1.69-5.29,0.66-6.35
				c-0.92-0.94-2.76-0.83-5.19,0.29L30.22,14.31z"/>
		</g>
	</g>
	<g>
		<g>
			<path class="st2" d="M15.77,36.84c-0.93,0-1.65-0.27-2.12-0.8c-1.09-1.25-0.69-3.83,1.1-7.07c3.39-6.12,10.72-12.9,16.36-15.11
				c2.47-0.97,4.33-0.94,5.24,0.1c1.09,1.25,0.69,3.83-1.1,7.07c-3.39,6.12-10.72,12.9-16.36,15.11
				C17.69,36.61,16.64,36.84,15.77,36.84z M34.23,13.28c-0.85,0-1.89,0.23-3.08,0.7c-5.61,2.2-12.92,8.95-16.29,15.05
				c-1.77,3.2-2.18,5.72-1.12,6.93c0.87,0.99,2.68,1.01,5.1,0.06c5.61-2.2,12.92-8.95,16.29-15.05c1.77-3.2,2.18-5.72,1.12-6.93
				C35.81,13.53,35.12,13.28,34.23,13.28z"/>
		</g>
	</g>
	<g>
		<g>
			<path class="st2" d="M15.25,36.96c-1.1,0-1.93-0.32-2.43-0.96c-1.11-1.42-0.52-4.21,1.62-7.67c3.91-6.31,11.81-12.95,17.61-14.81
				c2.45-0.79,4.27-0.62,5.12,0.48c1.11,1.42,0.52,4.21-1.62,7.67c-3.91,6.31-11.81,12.95-17.61,14.81
				C16.93,36.8,16.02,36.96,15.25,36.96z M34.75,13.16c-0.76,0-1.66,0.16-2.66,0.48c-5.78,1.85-13.65,8.47-17.54,14.76
				c-2.11,3.41-2.71,6.15-1.63,7.53c0.82,1.05,2.59,1.2,4.99,0.43c5.78-1.85,13.65-8.47,17.54-14.76c2.11-3.41,2.71-6.15,1.63-7.53
				C36.61,13.47,35.81,13.16,34.75,13.16z"/>
		</g>
	</g>
	<g>
		<g>
			<path class="st2" d="M14.76,37.05c-1.29,0-2.23-0.39-2.76-1.17c-1.11-1.61-0.31-4.62,2.2-8.27c4.44-6.46,12.89-12.9,18.83-14.37
				c2.45-0.6,4.17-0.3,4.98,0.87c1.11,1.61,0.31,4.62-2.2,8.27c-4.44,6.46-12.89,12.9-18.83,14.37
				C16.15,36.95,15.41,37.05,14.76,37.05z M35.24,13.07c-0.64,0-1.37,0.1-2.19,0.3c-5.92,1.46-14.34,7.88-18.76,14.32
				c-2.48,3.6-3.28,6.57-2.2,8.13c0.78,1.12,2.45,1.41,4.85,0.82c5.92-1.46,14.34-7.88,18.76-14.32c2.48-3.6,3.28-6.57,2.2-8.13
				C37.39,13.44,36.49,13.07,35.24,13.07z"/>
		</g>
	</g>
	<g>
		<g>
			<path class="st2" d="M14.37,37.1c-1.54,0-2.63-0.48-3.2-1.42c-1.1-1.82-0.07-5.05,2.83-8.88c4.99-6.57,13.97-12.75,20.02-13.77
				l0.01,0.06l-0.01-0.06c2.4-0.4,4.06,0.03,4.81,1.27c1.1,1.82,0.07,5.05-2.83,8.88c-4.99,6.57-13.97,12.75-20.02,13.77
				C15.4,37.06,14.86,37.1,14.37,37.1z M35.63,13.02c-0.48,0-1.01,0.05-1.59,0.14c-6.02,1.02-14.97,7.17-19.94,13.72
				c-2.83,3.73-3.88,6.99-2.83,8.74c0.72,1.19,2.34,1.61,4.68,1.21c6.02-1.02,14.97-7.17,19.94-13.72c2.83-3.73,3.88-6.99,2.83-8.74
				C38.18,13.48,37.12,13.02,35.63,13.02z"/>
		</g>
	</g>
	<g>
		<g>
			<path class="st2" d="M14.1,37.13c-1.86,0-3.14-0.59-3.74-1.72c-1.06-2.02,0.26-5.57,3.53-9.48c5.54-6.64,15.03-12.48,21.14-13.02
				c2.33-0.2,3.93,0.38,4.61,1.68c1.06,2.02-0.26,5.57-3.53,9.48c-5.54,6.64-15.03,12.48-21.14,13.02
				C14.67,37.12,14.38,37.13,14.1,37.13z M35.03,12.97l0.01,0.06C28.95,13.56,19.5,19.38,13.98,26c-3.23,3.87-4.54,7.37-3.51,9.34
				c0.66,1.26,2.21,1.82,4.49,1.62C21.05,36.44,30.5,30.62,36.02,24c3.23-3.87,4.54-7.37,3.51-9.34c-0.66-1.26-2.21-1.82-4.49-1.62
				L35.03,12.97z"/>
		</g>
	</g>
	<g>
		<g>
			<path class="st2" d="M13.96,37.13C13.96,37.13,13.96,37.13,13.96,37.13c-2.26,0-3.78-0.73-4.39-2.12c-1-2.28,0.6-6.04,4.28-10.06
				c6.1-6.67,16.05-12.09,22.19-12.09c0,0,0,0,0,0c2.26,0,3.78,0.73,4.39,2.12c1,2.28-0.6,6.04-4.28,10.06
				C30.05,31.71,20.1,37.13,13.96,37.13z M36.04,12.99c-6.11,0-16.02,5.4-22.1,12.05c-3.65,3.99-5.24,7.7-4.26,9.93
				c0.59,1.34,2.07,2.04,4.28,2.04c0,0,0,0,0,0c6.11,0,16.02-5.4,22.1-12.05c3.65-3.99,5.24-7.7,4.26-9.93
				C39.73,13.69,38.25,12.99,36.04,12.99C36.04,12.99,36.04,12.99,36.04,12.99z"/>
		</g>
	</g>
	<g>
		<g>
			<path class="st2" d="M13.97,37.14c-0.35,0-0.7-0.02-1.03-0.05c-2.18-0.21-3.61-1.1-4.14-2.57C7.88,31.97,9.79,28,13.89,23.9
				c6.66-6.64,17.05-11.57,23.17-10.99c2.18,0.21,3.61,1.1,4.14,2.57c0.92,2.56-0.99,6.53-5.09,10.62
				C29.81,32.38,20.17,37.14,13.97,37.14z M36.03,12.99c-6.17,0-15.77,4.74-22.05,11c-4.07,4.06-5.96,7.98-5.06,10.49
				c0.51,1.42,1.91,2.28,4.04,2.48c6.08,0.58,16.43-4.33,23.07-10.95c4.07-4.06,5.96-7.98,5.06-10.49
				c-0.51-1.42-1.91-2.28-4.04-2.48C36.72,13,36.38,12.99,36.03,12.99z"/>
		</g>
	</g>
	<g>
		<g>
			<path class="st2" d="M14.14,37.14c-0.79,0-1.53-0.07-2.21-0.2c-2.09-0.42-3.43-1.47-3.87-3.04c-0.79-2.86,1.44-7.02,5.96-11.14
				c7.21-6.56,18-10.92,24.04-9.71c2.09,0.42,3.43,1.47,3.87,3.04c0.79,2.86-1.44,7.02-5.96,11.14
				C29.57,33.06,20.36,37.14,14.14,37.14z M35.85,12.98c-6.19,0-15.36,4.07-21.74,9.88c-4.49,4.09-6.71,8.2-5.93,11.01
				c0.42,1.52,1.73,2.54,3.77,2.95c0.68,0.14,1.41,0.2,2.2,0.2c6.19,0,15.36-4.07,21.74-9.88c4.49-4.09,6.71-8.2,5.93-11.01
				c-0.42-1.52-1.73-2.54-3.77-2.95C37.37,13.04,36.63,12.98,35.85,12.98z"/>
		</g>
	</g>
	<g>
		<g>
			<path class="st2" d="M14.52,37.18c-1.33,0-2.54-0.16-3.58-0.49c-2.01-0.64-3.24-1.87-3.57-3.55c-0.62-3.18,1.96-7.51,6.89-11.59
				c7.76-6.42,18.88-10.12,24.8-8.23c2.01,0.64,3.24,1.87,3.57,3.55c0.62,3.18-1.96,7.51-6.89,11.59
				C29.35,33.74,20.69,37.18,14.52,37.18z M35.47,12.94c-6.13,0-14.76,3.43-21.13,8.7c-4.9,4.05-7.46,8.34-6.85,11.47
				c0.32,1.64,1.52,2.83,3.48,3.46c5.88,1.87,16.95-1.81,24.68-8.21c4.9-4.05,7.46-8.34,6.85-11.47c-0.32-1.64-1.52-2.83-3.48-3.46
				C37.99,13.1,36.78,12.94,35.47,12.94z"/>
		</g>
	</g>
	<g>
		<g>
			<path class="st2" d="M15.13,37.26c-1.98,0-3.74-0.3-5.15-0.95c-1.92-0.87-3.04-2.29-3.24-4.11c-0.38-3.5,2.56-7.97,7.87-11.96
				c8.29-6.22,19.69-9.17,25.43-6.56c1.92,0.87,3.04,2.29,3.24,4.11c0.38,3.5-2.56,7.97-7.87,11.96
				C29.16,34.44,21.15,37.26,15.13,37.26z M34.87,12.85c-5.99,0-13.97,2.82-20.19,7.49c-5.27,3.96-8.2,8.39-7.82,11.85
				c0.19,1.77,1.29,3.16,3.16,4.01c5.69,2.59,17.04-0.35,25.3-6.55c5.27-3.96,8.2-8.39,7.82-11.85c-0.19-1.77-1.29-3.16-3.16-4.01
				C38.57,13.16,36.83,12.85,34.87,12.85z"/>
		</g>
	</g>
	<g>
		<g>
			<path class="st2" d="M15.97,37.43c-2.75,0-5.16-0.51-6.93-1.6c-1.83-1.12-2.82-2.76-2.86-4.74c-0.09-3.83,3.23-8.4,8.88-12.21
				c8.8-5.95,20.42-8.06,25.9-4.7c1.83,1.12,2.82,2.76,2.86,4.74c0.09,3.83-3.23,8.4-8.88,12.21
				C28.99,35.16,21.73,37.43,15.97,37.43z M34.03,12.69c-5.74,0-12.96,2.26-18.91,6.28C9.51,22.77,6.22,27.3,6.3,31.09
				c0.04,1.93,1.01,3.54,2.8,4.64c5.45,3.34,17.01,1.23,25.77-4.7c5.61-3.79,8.91-8.32,8.82-12.11c-0.04-1.93-1.01-3.54-2.8-4.64
				C39.14,13.2,36.75,12.69,34.03,12.69z"/>
		</g>
	</g>
	<g>
		<g>
			<path class="st2" d="M17.03,37.69c-3.63,0-6.79-0.81-8.88-2.49c-1.74-1.4-2.58-3.28-2.43-5.45c0.28-4.14,3.98-8.75,9.9-12.33
				c9.29-5.61,21.05-6.79,26.22-2.63c1.74,1.4,2.58,3.28,2.43,5.45c-0.28,4.14-3.98,8.75-9.9,12.33
				C28.83,35.92,22.41,37.69,17.03,37.69z M32.97,12.43c-5.35,0-11.75,1.77-17.28,5.11c-5.89,3.56-9.57,8.13-9.84,12.23
				c-0.14,2.12,0.68,3.97,2.39,5.34c5.13,4.13,16.83,2.94,26.08-2.64c5.89-3.56,9.57-8.13,9.84-12.23c0.14-2.12-0.68-3.97-2.39-5.34
				C39.7,13.23,36.57,12.43,32.97,12.43z"/>
		</g>
	</g>
	<g>
		<g>
			<path class="st2" d="M18.27,38.09c-4.61,0-8.61-1.21-10.95-3.64c-1.64-1.71-2.31-3.88-1.93-6.26c0.7-4.41,4.78-9,10.91-12.27
				c9.74-5.2,21.56-5.36,26.35-0.37c1.64,1.71,2.31,3.88,1.93,6.26c-0.7,4.41-4.78,9-10.91,12.27
				C28.68,36.75,23.14,38.09,18.27,38.09z M31.73,12.03c-4.84,0-10.37,1.34-15.35,4c-6.1,3.25-10.15,7.81-10.85,12.18
				c-0.37,2.35,0.28,4.47,1.89,6.16c4.75,4.96,16.51,4.78,26.21-0.39c6.1-3.25,10.15-7.81,10.85-12.18
				c0.37-2.35-0.28-4.47-1.89-6.16C40.27,13.23,36.31,12.03,31.73,12.03z"/>
		</g>
	</g>
	<g>
		<g>
			<path class="st2" d="M19.62,38.65c-5.65,0-10.57-1.74-13.04-5.09c-1.53-2.07-1.99-4.56-1.31-7.19
				c1.18-4.62,5.62-9.11,11.88-12.01c10.16-4.71,21.95-3.77,26.29,2.1l0,0c1.53,2.07,1.99,4.56,1.31,7.19
				c-1.18,4.62-5.62,9.11-11.88,12.01C28.51,37.66,23.85,38.64,19.62,38.65z M30.39,11.47c-4.22,0-8.86,0.98-13.2,2.99
				c-6.23,2.89-10.65,7.34-11.82,11.93c-0.66,2.6-0.22,5.05,1.29,7.09c4.3,5.82,16.03,6.74,26.14,2.06
				c6.23-2.89,10.65-7.34,11.82-11.93c0.66-2.6,0.22-5.05-1.29-7.09C40.87,13.2,36,11.47,30.39,11.47z"/>
		</g>
	</g>
	<g>
		<g>
			<path class="st2" d="M20.95,39.38c-6.71,0-12.57-2.44-15.06-6.87c-1.4-2.49-1.6-5.34-0.57-8.25c1.69-4.74,6.46-9.06,12.77-11.53
				c10.53-4.13,22.2-2,26.01,4.76c1.4,2.49,1.6,5.34,0.57,8.25c-1.69,4.74-6.46,9.06-12.77,11.53
				C28.27,38.7,24.49,39.38,20.95,39.38z M29.05,10.74c-3.52,0-7.28,0.68-10.91,2.1c-6.27,2.46-11.02,6.75-12.7,11.46
				C4.42,27.17,4.62,29.99,6,32.45c3.78,6.71,15.38,8.82,25.86,4.71c6.27-2.46,11.02-6.75,12.7-11.46c1.02-2.87,0.83-5.69-0.56-8.15
				l0,0C41.53,13.16,35.71,10.74,29.05,10.74z"/>
		</g>
	</g>
	<g>
		<g>
			<path class="st2" d="M22.2,40.3c-7.74,0-14.53-3.34-16.88-8.98c-1.24-2.98-1.12-6.23,0.35-9.42c2.2-4.77,7.26-8.82,13.53-10.83
				c10.85-3.48,22.29-0.06,25.5,7.62c1.24,2.98,1.12,6.23-0.35,9.42c-2.2,4.77-7.26,8.82-13.53,10.83C27.92,39.86,25,40.3,22.2,40.3
				z M27.81,9.82c-2.79,0-5.71,0.44-8.58,1.36c-6.23,2-11.26,6.02-13.45,10.76c-1.46,3.16-1.58,6.38-0.35,9.32
				c2.33,5.59,9.08,8.9,16.77,8.9c2.79,0,5.71-0.44,8.58-1.36c6.23-2,11.26-6.02,13.45-10.76c1.46-3.16,1.58-6.38,0.35-9.32
				C42.24,13.14,35.5,9.82,27.81,9.82z"/>
		</g>
	</g>
	<g>
		<g>
			<path class="st2" d="M23.26,41.41c-8.73,0-16.38-4.46-18.43-11.43c-1.03-3.53-0.53-7.23,1.47-10.7
				c2.74-4.76,7.89-8.37,14.12-9.91c11.12-2.74,22.21,2.04,24.74,10.66c1.03,3.53,0.53,7.23-1.47,10.7
				c-2.74,4.76-7.89,8.37-14.12,9.91C27.45,41.16,25.33,41.41,23.26,41.41z M26.74,8.72c-2.05,0-4.17,0.25-6.28,0.77
				c-6.2,1.53-11.32,5.12-14.05,9.85c-1.98,3.44-2.48,7.1-1.46,10.6c2.03,6.92,9.63,11.34,18.31,11.35c2.05,0,4.17-0.25,6.28-0.77
				c6.2-1.53,11.32-5.12,14.05-9.85c1.98-3.44,2.48-7.1,1.46-10.6C43.02,13.14,35.42,8.72,26.74,8.72z"/>
		</g>
	</g>
	<g>
		<g>
			<path class="st2" d="M24.1,42.7c-9.68,0-18.07-5.83-19.62-14.23c-0.76-4.11,0.24-8.38,2.8-12.04c3.19-4.56,8.49-7.76,14.53-8.79
				c11.31-1.91,21.95,4.31,23.71,13.88c0.76,4.11-0.24,8.38-2.8,12.04c-3.19,4.56-8.49,7.76-14.53,8.79
				C26.82,42.59,25.45,42.7,24.1,42.7z M25.9,7.42c-1.34,0-2.7,0.11-4.07,0.34c-6.01,1.02-11.28,4.2-14.45,8.74
				c-2.54,3.63-3.53,7.87-2.78,11.95c1.54,8.34,9.88,14.13,19.5,14.13c1.34,0,2.7-0.11,4.07-0.34c6.01-1.02,11.28-4.2,14.45-8.74
				c2.54-3.63,3.53-7.87,2.78-11.95l0,0C43.86,13.21,35.52,7.42,25.9,7.42z"/>
		</g>
	</g>
	<g>
		<g>
			<path class="st2" d="M24.68,44.18c-10.6,0-19.56-7.45-20.43-17.36c-0.92-10.53,7.64-19.9,19.07-20.9
				c5.54-0.48,10.92,1.04,15.16,4.31c4.23,3.26,6.81,7.87,7.26,12.97c0.45,5.1-1.29,10.08-4.9,14.03c-3.6,3.95-8.64,6.39-14.18,6.87
				C26,44.15,25.34,44.18,24.68,44.18z M25.34,5.94c-0.66,0-1.33,0.03-2,0.09C11.97,7.03,3.46,16.35,4.38,26.8
				c0.86,9.85,9.78,17.25,20.31,17.25c0.65,0,1.31-0.03,1.98-0.09c5.51-0.48,10.52-2.91,14.1-6.83c3.58-3.92,5.31-8.87,4.87-13.94
				c-0.44-5.07-3-9.64-7.21-12.88C34.71,7.46,30.13,5.94,25.34,5.94z"/>
		</g>
	</g>
	<g>
		<g>
			<path class="st2" d="M25,45.82C13.52,45.82,4.18,36.48,4.18,25C4.18,13.52,13.52,4.18,25,4.18c11.48,0,20.82,9.34,20.82,20.82
				C45.82,36.48,36.48,45.82,25,45.82z M25,4.3C13.59,4.3,4.3,13.59,4.3,25c0,11.41,9.29,20.7,20.7,20.7S45.7,36.41,45.7,25
				C45.7,13.59,36.41,4.3,25,4.3z"/>
		</g>
	</g>
</g>
</svg>
