<?xml version="1.0" encoding="utf-8"?>
<!-- Generator: Adobe Illustrator 24.0.3, SVG Export Plug-In . SVG Version: 6.00 Build 0)  -->
<svg version="1.1" id="Layer_1" xmlns="http://www.w3.org/2000/svg" xmlns:xlink="http://www.w3.org/1999/xlink" x="0px" y="0px"
	 viewBox="0 0 50 50" style="enable-background:new 0 0 50 50;" xml:space="preserve">
<style type="text/css">
	.st0{fill:#CE0E2D;}
	.st1{fill:#FFFFFF;}
</style>
<circle class="st0" cx="25" cy="25" r="21.75"/>
<g>
	<g>
		<g>
			<path class="st1" d="M25,16.46c-3.52,0-6.38,2.85-6.39,6.37c0.01,0.68,0.13,1.36,0.34,2.01c0.31,0.69,0.66,1.36,1.07,2.01
				c0.93,1.63,2.35,4.09,2.35,5.01c0,0.25,0.2,0.46,0.46,0.46h4.37c0.25,0,0.46-0.2,0.46-0.46c0-0.92,1.41-3.38,2.35-5.01
				c0.4-0.64,0.76-1.31,1.07-2.01c0.21-0.65,0.32-1.33,0.34-2.01C31.38,19.3,28.52,16.45,25,16.46z M30.19,24.54
				c-0.3,0.63-0.63,1.25-0.99,1.84c-1.18,2.05-2.18,3.86-2.41,5.01h-3.56c-0.24-1.14-1.24-2.95-2.41-5c-0.37-0.6-0.7-1.21-0.99-1.84
				c-0.18-0.56-0.27-1.14-0.29-1.72c0-3.02,2.45-5.48,5.48-5.48s5.48,2.45,5.48,5.48C30.46,23.41,30.36,23.99,30.19,24.54z"/>
		</g>
	</g>
	<g>
		<g>
			<path class="st1" d="M27.22,37.59c-0.13-0.22-0.41-0.29-0.62-0.17l-0.62,0.36h-1.95l-0.62-0.36c-0.22-0.13-0.5-0.05-0.62,0.17
				c-0.13,0.22-0.05,0.5,0.17,0.62l0.73,0.42c0.07,0.04,0.15,0.06,0.23,0.06h2.19c0.08,0,0.16-0.02,0.23-0.06l0.73-0.42
				C27.27,38.09,27.35,37.81,27.22,37.59z"/>
		</g>
	</g>
	<g>
		<g>
			<path class="st1" d="M27.28,33.26c-0.03-0.25-0.25-0.43-0.5-0.41l0,0l-3.65,0.37c-0.25,0.03-0.43,0.25-0.41,0.5
				c0.02,0.23,0.22,0.41,0.45,0.41c0.02,0,0.03,0,0.05,0l3.65-0.37C27.12,33.74,27.31,33.51,27.28,33.26z"/>
		</g>
	</g>
	<g>
		<g>
			<path class="st1" d="M27.28,34.63c-0.03-0.25-0.25-0.43-0.5-0.41l0,0l-3.65,0.37c-0.25,0.03-0.43,0.25-0.41,0.5
				c0.02,0.23,0.22,0.41,0.45,0.41c0.02,0,0.03,0,0.05,0l3.65-0.37C27.12,35.11,27.31,34.88,27.28,34.63z"/>
		</g>
	</g>
	<g>
		<g>
			<path class="st1" d="M27.28,36c-0.03-0.25-0.25-0.43-0.5-0.41l0,0l-3.65,0.37c-0.25,0.03-0.43,0.25-0.41,0.5
				c0.02,0.23,0.22,0.41,0.45,0.41c0.02,0,0.03,0,0.05,0l3.65-0.37C27.12,36.47,27.31,36.25,27.28,36z"/>
		</g>
	</g>
	<g>
		<g>
			<path class="st1" d="M25,11.31c-0.25,0-0.46,0.2-0.46,0.46v3.19c0,0.25,0.2,0.46,0.46,0.46s0.46-0.2,0.46-0.46v-3.19
				C25.46,11.51,25.25,11.31,25,11.31z"/>
		</g>
	</g>
	<g>
		<g>
			<path class="st1" d="M33.4,14.78c-0.18-0.18-0.46-0.19-0.65-0.01c0,0-0.01,0.01-0.01,0.01l-2.26,2.26
				c-0.18,0.18-0.19,0.46-0.01,0.65c0.18,0.18,0.46,0.19,0.65,0.01c0,0,0.01-0.01,0.01-0.01l2.26-2.26
				C33.57,15.25,33.58,14.96,33.4,14.78z"/>
		</g>
	</g>
	<g>
		<g>
			<path class="st1" d="M36.41,22.72h-3.19c-0.25,0-0.46,0.2-0.46,0.46s0.2,0.46,0.46,0.46h3.19c0.25,0,0.46-0.2,0.46-0.46
				S36.66,22.72,36.41,22.72z"/>
		</g>
	</g>
	<g>
		<g>
			<path class="st1" d="M33.39,30.92l-2.26-2.26c-0.18-0.18-0.47-0.18-0.65,0c-0.18,0.18-0.18,0.47,0,0.65l2.26,2.26
				c0.18,0.18,0.47,0.17,0.65-0.01C33.56,31.38,33.56,31.1,33.39,30.92z"/>
		</g>
	</g>
	<g>
		<g>
			<path class="st1" d="M19.5,28.66c-0.18-0.17-0.46-0.17-0.63,0l-2.26,2.26c-0.18,0.18-0.18,0.47,0,0.65
				c0.09,0.09,0.2,0.13,0.32,0.13c0.12,0,0.24-0.05,0.32-0.13l2.26-2.26C19.69,29.13,19.68,28.84,19.5,28.66z"/>
		</g>
	</g>
	<g>
		<g>
			<path class="st1" d="M16.78,22.72h-3.19c-0.25,0-0.46,0.2-0.46,0.46s0.2,0.46,0.46,0.46h3.19c0.25,0,0.46-0.2,0.46-0.46
				S17.04,22.72,16.78,22.72z"/>
		</g>
	</g>
	<g>
		<g>
			<path class="st1" d="M19.51,17.04l-2.26-2.26c-0.18-0.18-0.46-0.19-0.65-0.01c-0.18,0.18-0.19,0.46-0.01,0.65
				c0,0,0.01,0.01,0.01,0.01l2.26,2.26c0.09,0.09,0.2,0.13,0.32,0.13c0.25,0,0.46-0.2,0.46-0.46C19.65,17.24,19.6,17.13,19.51,17.04
				z"/>
		</g>
	</g>
	<g>
		<g>
			<path class="st1" d="M27.87,23.65c-0.09-0.03-0.19-0.03-0.28,0L25,24.52l-2.59-0.86c-0.24-0.08-0.5,0.05-0.58,0.29
				c-0.03,0.09-0.03,0.19,0,0.28l1.83,5.93c0.07,0.24,0.33,0.38,0.57,0.3c0.24-0.07,0.38-0.33,0.3-0.57l-1.57-5.09l1.9,0.63
				c0.09,0.03,0.19,0.03,0.29,0l1.9-0.63l-1.57,5.09c-0.07,0.24,0.06,0.5,0.3,0.57c0.24,0.07,0.5-0.06,0.57-0.3l1.83-5.93
				C28.25,23.98,28.11,23.73,27.87,23.65z"/>
		</g>
	</g>
</g>
</svg>
