<?xml version="1.0" encoding="utf-8"?>
<!-- Generator: Adobe Illustrator 25.0.1, SVG Export Plug-In . SVG Version: 6.00 Build 0)  -->
<svg version="1.1" id="Layer_1" xmlns="http://www.w3.org/2000/svg" xmlns:xlink="http://www.w3.org/1999/xlink" x="0px" y="0px"
	 viewBox="0 0 50 50" style="enable-background:new 0 0 50 50;" xml:space="preserve">
<style type="text/css">
	.st0{fill:#CE0E2D;}
	.st1{fill:#FFFFFF;}
</style>
<circle class="st0" cx="25" cy="25" r="21.75"/>
<g>
	<g>
		<g>
			<path class="st1" d="M76.25-26.99c-3.52,0-6.38,2.85-6.39,6.37c0.01,0.68,0.13,1.36,0.34,2.01c0.31,0.69,0.66,1.36,1.07,2.01
				c0.93,1.63,2.35,4.09,2.35,5.01c0,0.25,0.2,0.46,0.46,0.46h4.37c0.25,0,0.46-0.2,0.46-0.46c0-0.92,1.41-3.38,2.35-5.01
				c0.4-0.64,0.76-1.31,1.07-2.01c0.21-0.65,0.32-1.33,0.34-2.01C82.63-24.15,79.77-27,76.25-26.99z M81.44-18.91
				c-0.3,0.63-0.63,1.25-0.99,1.84c-1.18,2.05-2.18,3.86-2.41,5.01h-3.56c-0.24-1.14-1.24-2.95-2.41-5c-0.37-0.6-0.7-1.21-0.99-1.84
				c-0.18-0.56-0.27-1.14-0.29-1.72c0-3.02,2.45-5.48,5.48-5.48s5.48,2.45,5.48,5.48C81.71-20.04,81.61-19.46,81.44-18.91z"/>
		</g>
	</g>
	<g>
		<g>
			<path class="st1" d="M78.47-5.86c-0.13-0.22-0.41-0.29-0.62-0.17l-0.62,0.36h-1.95l-0.62-0.36c-0.22-0.13-0.5-0.05-0.62,0.17
				c-0.13,0.22-0.05,0.5,0.17,0.62l0.73,0.42c0.07,0.04,0.15,0.06,0.23,0.06h2.19c0.08,0,0.16-0.02,0.23-0.06l0.73-0.42
				C78.52-5.36,78.6-5.64,78.47-5.86z"/>
		</g>
	</g>
	<g>
		<g>
			<path class="st1" d="M78.53-10.19c-0.03-0.25-0.25-0.43-0.5-0.41l0,0l-3.65,0.37c-0.25,0.03-0.43,0.25-0.41,0.5
				c0.02,0.23,0.22,0.41,0.45,0.41c0.02,0,0.03,0,0.05,0l3.65-0.37C78.37-9.71,78.56-9.94,78.53-10.19z"/>
		</g>
	</g>
	<g>
		<g>
			<path class="st1" d="M78.53-8.82c-0.03-0.25-0.25-0.43-0.5-0.41l0,0l-3.65,0.37c-0.25,0.03-0.43,0.25-0.41,0.5
				c0.02,0.23,0.22,0.41,0.45,0.41c0.02,0,0.03,0,0.05,0l3.65-0.37C78.37-8.34,78.56-8.57,78.53-8.82z"/>
		</g>
	</g>
	<g>
		<g>
			<path class="st1" d="M78.53-7.45c-0.03-0.25-0.25-0.43-0.5-0.41l0,0l-3.65,0.37c-0.25,0.03-0.43,0.25-0.41,0.5
				c0.02,0.23,0.22,0.41,0.45,0.41c0.02,0,0.03,0,0.05,0l3.65-0.37C78.37-6.98,78.56-7.2,78.53-7.45z"/>
		</g>
	</g>
	<g>
		<g>
			<path class="st1" d="M76.25-32.14c-0.25,0-0.46,0.2-0.46,0.46v3.19c0,0.25,0.2,0.46,0.46,0.46c0.26,0,0.46-0.2,0.46-0.46v-3.19
				C76.71-31.94,76.5-32.14,76.25-32.14z"/>
		</g>
	</g>
	<g>
		<g>
			<path class="st1" d="M84.65-28.67c-0.18-0.18-0.46-0.19-0.65-0.01l-0.01,0.01l-2.26,2.26c-0.18,0.18-0.19,0.46-0.01,0.65
				c0.18,0.18,0.46,0.19,0.65,0.01l0.01-0.01l2.26-2.26C84.82-28.2,84.83-28.49,84.65-28.67z"/>
		</g>
	</g>
	<g>
		<g>
			<path class="st1" d="M87.66-20.73h-3.19c-0.25,0-0.46,0.2-0.46,0.46s0.2,0.46,0.46,0.46h3.19c0.25,0,0.46-0.2,0.46-0.46
				S87.91-20.73,87.66-20.73z"/>
		</g>
	</g>
	<g>
		<g>
			<path class="st1" d="M84.64-12.53l-2.26-2.26c-0.18-0.18-0.47-0.18-0.65,0s-0.18,0.47,0,0.65l2.26,2.26
				c0.18,0.18,0.47,0.17,0.65-0.01C84.81-12.07,84.81-12.35,84.64-12.53z"/>
		</g>
	</g>
	<g>
		<g>
			<path class="st1" d="M70.75-14.79c-0.18-0.17-0.46-0.17-0.63,0l-2.26,2.26c-0.18,0.18-0.18,0.47,0,0.65
				c0.09,0.09,0.2,0.13,0.32,0.13s0.24-0.05,0.32-0.13l2.26-2.26C70.94-14.32,70.93-14.61,70.75-14.79z"/>
		</g>
	</g>
	<g>
		<g>
			<path class="st1" d="M68.03-20.73h-3.19c-0.25,0-0.46,0.2-0.46,0.46s0.2,0.46,0.46,0.46h3.19c0.25,0,0.46-0.2,0.46-0.46
				S68.29-20.73,68.03-20.73z"/>
		</g>
	</g>
	<g>
		<g>
			<path class="st1" d="M70.76-26.41l-2.26-2.26c-0.18-0.18-0.46-0.19-0.65-0.01c-0.18,0.18-0.19,0.46-0.01,0.65l0.01,0.01
				l2.26,2.26c0.09,0.09,0.2,0.13,0.32,0.13c0.25,0,0.46-0.2,0.46-0.46C70.9-26.21,70.85-26.32,70.76-26.41z"/>
		</g>
	</g>
	<g>
		<g>
			<path class="st1" d="M79.12-19.8c-0.09-0.03-0.19-0.03-0.28,0l-2.59,0.87l-2.59-0.86c-0.24-0.08-0.5,0.05-0.58,0.29
				c-0.03,0.09-0.03,0.19,0,0.28l1.83,5.93c0.07,0.24,0.33,0.38,0.57,0.3c0.24-0.07,0.38-0.33,0.3-0.57l-1.57-5.09l1.9,0.63
				c0.09,0.03,0.19,0.03,0.29,0l1.9-0.63l-1.57,5.09c-0.07,0.24,0.06,0.5,0.3,0.57s0.5-0.06,0.57-0.3l1.83-5.93
				C79.5-19.47,79.36-19.72,79.12-19.8z"/>
		</g>
	</g>
</g>
<g>
	<g>
		<g>
			<path class="st1" d="M12.38,33.79c0.39,0.56,0.83,1.1,1.29,1.6l1.41-1.31c-0.41-0.44-0.79-0.91-1.13-1.4L12.38,33.79z"/>
			<path class="st1" d="M11.5,24.92c0.01-6.75,5-12.46,11.69-13.37l-0.25-1.91c-8.44,1.14-14.37,8.9-13.23,17.34
				c0.24,1.77,0.78,3.48,1.6,5.06l1.71-0.89C12.01,29.23,11.49,27.09,11.5,24.92z"/>
			<path class="st1" d="M15.16,36.8c0.53,0.44,1.08,0.84,1.66,1.2l1.02-1.64c-0.51-0.32-1-0.67-1.46-1.05L15.16,36.8z"/>
			<path class="st1" d="M31.37,10.88c-1.37-0.62-2.83-1.04-4.32-1.24l-0.25,1.91c7.38,1.02,12.54,7.83,11.53,15.21
				c-0.92,6.66-6.6,11.63-13.33,11.65c-1.92,0-3.81-0.4-5.56-1.2l-0.8,1.76c7.76,3.51,16.9,0.07,20.41-7.69S39.12,14.4,31.37,10.88z
				"/>
		</g>
	</g>
</g>
</svg>
