<?xml version="1.0" encoding="utf-8"?>
<!-- Generator: Adobe Illustrator 24.0.3, SVG Export Plug-In . SVG Version: 6.00 Build 0)  -->
<svg version="1.1" xmlns="http://www.w3.org/2000/svg" xmlns:xlink="http://www.w3.org/1999/xlink" x="0px" y="0px"
	 viewBox="0 0 3206.2 894" style="enable-background:new 0 0 3206.2 894;" xml:space="preserve">
<style type="text/css">
	.st0{display:none;}
	.st1{opacity:0.4;}
	.st2{fill:none;stroke:#CE202F;stroke-miterlimit:10;}
</style>
<g id="Layer_1" class="st0">
	<image style="display:inline;overflow:visible;" width="807" height="894" xlink:href="service-3-bg.png" >
	</image>
</g>
<g id="Layer_2">
	<g class="st1">
		<path class="st2" d="M0,9.8c0,0,1365-32.6,1719.9,112.3c582.6,237.9,1486.2-28.5,1486.2-28.5"/>
		<path class="st2" d="M0,19.5c0,0,1366.4-35,1719.7,109.6c578.5,236.5,1486.5-28.7,1486.5-28.7"/>
		<path class="st2" d="M0,29.1c0,0,1367.8-37.4,1719.5,106.8C2293.8,371,3206.2,107,3206.2,107"/>
		<path class="st2" d="M0,38.8c0,0,1369.3-39.9,1719.3,104c570.1,233.7,1486.9-29.1,1486.9-29.1"/>
		<path class="st2" d="M0,48.5c0,0,1370.7-42.3,1719.1,101.2c566,232.3,1487.1-29.3,1487.1-29.3"/>
		<path class="st2" d="M0,58.1c0,0,1372.1-44.7,1718.9,98.4c561.8,230.9,1487.3-29.5,1487.3-29.5"/>
		<path class="st2" d="M0,67.8c0,0,1373.6-47.1,1718.6,95.6c557.7,229.5,1487.5-29.7,1487.5-29.7"/>
		<path class="st2" d="M0,77.5c0,0,1375-49.5,1718.4,92.8c553.5,228.1,1487.8-29.9,1487.8-29.9"/>
		<path class="st2" d="M0,87.1c0,0,1376.4-51.9,1718.2,90c549.4,226.8,1488-30,1488-30"/>
		<path class="st2" d="M0,96.8c0,0,1377.9-54.3,1718,87.3c545.2,225.4,1488.2-30.2,1488.2-30.2"/>
		<path class="st2" d="M0,106.5c0,0,1379.3-56.8,1717.8,84.5c541.1,224,1488.4-30.4,1488.4-30.4"/>
		<path class="st2" d="M0,116.2c0,0,1380.7-59.2,1717.5,81.7c536.9,222.6,1488.6-30.6,1488.6-30.6"/>
		<path class="st2" d="M0,125.8c0,0,1382.2-61.6,1717.3,78.9c532.8,221.2,1488.8-30.8,1488.8-30.8"/>
		<path class="st2" d="M0,135.5c0,0,1383.6-64,1717.1,76.1c528.6,219.8,1489.1-31,1489.1-31"/>
		<path class="st2" d="M0,145.2c0,0,1385-66.4,1716.9,73.3c524.5,218.4,1489.3-31.2,1489.3-31.2"/>
		<path class="st2" d="M0,154.8c0,0,1386.2-68.1,1716.7,70.5C2236.5,443.5,3206.2,194,3206.2,194"/>
		<path class="st2" d="M0,164.5c0,0,1387.6-70.5,1716.5,67.7c515.7,216.8,1489.7-31.5,1489.7-31.5"/>
		<path class="st2" d="M0,174.2c0,0,1389-72.9,1716.2,65c511.5,215.4,1489.9-31.7,1489.9-31.7"/>
		<path class="st2" d="M0,183.8c0,0,1390.4-75.2,1716,62.2c507.3,214.1,1490.2-31.9,1490.2-31.9"/>
		<path class="st2" d="M0,193.5c0,0,1391.8-77.6,1715.8,59.4c503.1,212.8,1490.4-32.1,1490.4-32.1"/>
		<path class="st2" d="M0,203.2c0,0,1393.2-80,1715.6,56.6c499,211.4,1490.6-32.3,1490.6-32.3"/>
		<path class="st2" d="M0,212.8c0,0,1394.6-82.4,1715.4,53.8c494.8,210.1,1490.8-32.5,1490.8-32.5"/>
		<path class="st2" d="M0,222.5c0,0,1396.1-84.7,1715.2,51c490.6,208.7,1491-32.7,1491-32.7"/>
		<path class="st2" d="M0,232.2c0,0,1397.5-87.1,1714.9,48.2c486.4,207.4,1491.2-32.9,1491.2-32.9"/>
		<path class="st2" d="M0,241.9c0,0,1398.9-89.5,1714.7,45.4c482.3,206.1,1491.5-33,1491.5-33"/>
		<path class="st2" d="M0,251.5c0,0,1400.3-91.9,1714.5,42.6c478.1,204.7,1491.7-33.2,1491.7-33.2"/>
		<path class="st2" d="M0,261.2c0,0,1401.7-94.3,1714.3,39.9c473.9,203.4,1491.9-33.4,1491.9-33.4"/>
		<path class="st2" d="M0,270.9c0,0,1403.1-96.6,1714.1,37.1c469.7,202,1492.1-33.6,1492.1-33.6"/>
		<path class="st2" d="M0,280.5c0,0,1404.6-99,1713.8,34.3C2179.4,515.5,3206.2,281,3206.2,281"/>
		<path class="st2" d="M0,290.2c0,0,1406-101.4,1713.6,31.5c461.4,199.3,1492.6-34,1492.6-34"/>
		<path class="st2" d="M0,299.9c0,0,1407.4-103.8,1713.4,28.7c457.2,198,1492.8-34.2,1492.8-34.2"/>
		<path class="st2" d="M0,309.5c0,0,1408.8-106.2,1713.2,25.9c453.1,196.6,1493-34.3,1493-34.3"/>
		<path class="st2" d="M0,319.2c0,0,1410.2-108.5,1713,23.1c448.9,195.2,1493.2-34.5,1493.2-34.5"/>
		<path class="st2" d="M0,328.9c0,0,1411.7-110.9,1712.8,20.3c444.7,193.9,1493.4-34.7,1493.4-34.7"/>
		<path class="st2" d="M0,338.5c0,0,1413.1-113.3,1712.5,17.6c440.5,192.5,1493.6-34.9,1493.6-34.9"/>
		<path class="st2" d="M0,348.2c0,0,1414.5-115.7,1712.3,14.8c436.4,191.2,1493.9-35.1,1493.9-35.1"/>
		<path class="st2" d="M0,357.9c0,0,1415.9-118.1,1712.1,12c432.2,189.8,1494.1-35.3,1494.1-35.3"/>
		<path class="st2" d="M0,367.6c0,0,1417.3-120.5,1711.9,9.2c428,188.4,1494.3-35.5,1494.3-35.5"/>
		<path class="st2" d="M0,377.2c0,0,1418.7-122.9,1711.7,6.4C2135.5,570.7,3206.2,348,3206.2,348"/>
		<path class="st2" d="M0,386.9c0,0,1420.2-125.3,1711.5,3.6c419.7,185.7,1494.7-35.8,1494.7-35.8"/>
		<path class="st2" d="M0,396.6c0,0,1421.6-127.7,1711.2,0.8c415.5,184.3,1494.9-36,1494.9-36"/>
		<path class="st2" d="M0,406.2c0,0,1423-130,1711-2c411.4,183,1495.2-36.2,1495.2-36.2"/>
		<path class="st2" d="M0,415.9c0,0,1424.4-132.4,1710.8-4.7c407.2,181.6,1495.4-36.4,1495.4-36.4"/>
		<path class="st2" d="M0,425.6c0,0,1425.9-134.8,1710.6-7.5c403.1,180.2,1495.6-36.6,1495.6-36.6"/>
		<path class="st2" d="M0,435.2c0,0,1427.3-137.2,1710.4-10.3c398.9,178.8,1495.8-36.8,1495.8-36.8"/>
		<path class="st2" d="M0,444.9c0,0,1428.7-139.6,1710.1-13.1c394.7,177.4,1496-37,1496-37"/>
		<path class="st2" d="M0,454.6c0,0,1430.1-142,1709.9-15.9c390.6,176.1,1496.3-37.2,1496.3-37.2"/>
		<path class="st2" d="M0,464.2c0,0,1431.5-144.4,1709.7-18.7c386.4,174.7,1496.5-37.3,1496.5-37.3"/>
		<path class="st2" d="M0,473.9c0,0,1433-146.8,1709.5-21.5c382.3,173.3,1496.7-37.5,1496.7-37.5"/>
		<path class="st2" d="M0,483.6c0,0,1434.4-149.2,1709.3-24.3c378.1,171.9,1496.9-37.7,1496.9-37.7"/>
		<path class="st2" d="M0,493.3c0,0,1435.8-151.6,1709.1-27.1c373.9,170.5,1497.1-37.9,1497.1-37.9"/>
		<path class="st2" d="M0,502.9c0,0,1437.3-154,1708.8-29.8C2078.6,642.2,3206.2,435,3206.2,435"/>
		<path class="st2" d="M0,512.6c0,0,1438.7-156.4,1708.6-32.6c365.6,167.7,1497.6-38.3,1497.6-38.3"/>
		<path class="st2" d="M0,522.3c0,0,1440.1-158.9,1708.4-35.4c361.5,166.3,1497.8-38.5,1497.8-38.5"/>
		<path class="st2" d="M0,531.9c0,0,1441.5-161.3,1708.2-38.2c357.3,164.9,1498-38.7,1498-38.7"/>
		<path class="st2" d="M0,541.6c0,0,1443-163.7,1708-41c353.2,163.5,1498.2-38.8,1498.2-38.8"/>
		<path class="st2" d="M0,551.3c0,0,1444.4-166.1,1707.7-43.8c349,162.1,1498.4-39,1498.4-39"/>
		<path class="st2" d="M0,560.9c0,0,1445.8-168.5,1707.5-46.6c344.9,160.7,1498.6-39.2,1498.6-39.2"/>
		<path class="st2" d="M0,570.6c0,0,1447.3-170.9,1707.3-49.4c340.7,159.3,1498.9-39.4,1498.9-39.4"/>
		<path class="st2" d="M0,580.3c0,0,1448.7-173.3,1707.1-52.1c336.6,157.9,1499.1-39.6,1499.1-39.6"/>
		<path class="st2" d="M0,590c0,0,1450.1-175.8,1706.9-54.9c332.4,156.4,1499.3-39.8,1499.3-39.8"/>
		<path class="st2" d="M0,599.6c0,0,1451.6-178.2,1706.7-57.7c328.3,155,1499.5-40,1499.5-40"/>
		<path class="st2" d="M0,609.3c0,0,1453-180.6,1706.4-60.5c324.2,153.6,1499.7-40.2,1499.7-40.2"/>
		<path class="st2" d="M0,619c0,0,1454.4-183,1706.2-63.3c320,152.2,1500-40.3,1500-40.3"/>
		<path class="st2" d="M0,628.6c0,0,1455.9-185.5,1706-66.1C2021.9,713.3,3206.2,522,3206.2,522"/>
		<path class="st2" d="M0,638.3c0,0,1457.3-187.9,1705.8-68.9c311.7,149.3,1500.4-40.7,1500.4-40.7"/>
		<path class="st2" d="M0,648c0,0,1458.7-190.3,1705.6-71.7c307.6,147.9,1500.6-40.9,1500.6-40.9"/>
		<path class="st2" d="M0,657.6c0,0,1460.2-192.8,1705.4-74.4c303.5,146.5,1500.8-41.1,1500.8-41.1"/>
		<path class="st2" d="M0,667.3c0,0,1461.6-195.2,1705.1-77.2c299.3,145,1501-41.3,1501-41.3"/>
		<path class="st2" d="M0,677c0,0,1463.1-197.7,1704.9-80c295.2,143.6,1501.3-41.5,1501.3-41.5"/>
		<path class="st2" d="M0,686.6c0,0,1464.5-200.1,1704.7-82.8c291.1,142.1,1501.5-41.6,1501.5-41.6"/>
		<path class="st2" d="M0,696.3c0,0,1466-202.5,1704.5-85.6c286.9,140.7,1501.7-41.8,1501.7-41.8"/>
		<path class="st2" d="M0,706c0,0,1467.4-205,1704.3-88.4c282.8,139.2,1501.9-42,1501.9-42"/>
		<path class="st2" d="M0,715.7c0,0,1468.9-207.4,1704-91.2c278.7,137.8,1502.1-42.2,1502.1-42.2"/>
		<path class="st2" d="M0,725.3c0,0,1470.3-209.9,1703.8-94C1978.4,767.7,3206.2,589,3206.2,589"/>
		<path class="st2" d="M0,735c0,0,1471.8-212.4,1703.6-96.8c270.4,134.9,1502.6-42.6,1502.6-42.6"/>
		<path class="st2" d="M0,744.7c0,0,1473.2-214.8,1703.4-99.5c266.3,133.4,1502.8-42.8,1502.8-42.8"/>
		<path class="st2" d="M0,754.3c0,0,1474.7-217.3,1703.2-102.3c262.2,131.9,1503-43,1503-43"/>
		<path class="st2" d="M0,764c0,0,1476.1-219.8,1703-105.1c258.1,130.4,1503.2-43.1,1503.2-43.1"/>
		<path class="st2" d="M0,773.7c0,0,1477.6-222.2,1702.7-107.9c254,129,1503.4-43.3,1503.4-43.3"/>
		<path class="st2" d="M0,783.3c0,0,1479.1-224.7,1702.5-110.7c249.8,127.5,1503.7-43.5,1503.7-43.5"/>
		<path class="st2" d="M0,793c0,0,1480.5-227.2,1702.3-113.5c245.7,126,1503.9-43.7,1503.9-43.7"/>
		<path class="st2" d="M0,802.7c0,0,1482-229.7,1702.1-116.3c241.6,124.5,1504.1-43.9,1504.1-43.9"/>
		<path class="st2" d="M0,812.3c0,0,1483.5-232.2,1701.9-119.1c237.5,123,1504.3-44.1,1504.3-44.1"/>
		<path class="st2" d="M0,822c0,0,1484.9-234.7,1701.7-121.8c233.4,121.5,1504.5-44.3,1504.5-44.3"/>
		<path class="st2" d="M0,831.7c0,0,1486.4-237.2,1701.4-124.6c229.3,120,1504.7-44.5,1504.7-44.5"/>
		<path class="st2" d="M0,841.4c0,0,1487.9-239.7,1701.2-127.4c225.2,118.5,1505-44.6,1505-44.6"/>
		<path class="st2" d="M0,851c0,0,1489.4-242.2,1701-130.2c221.1,117,1505.2-44.8,1505.2-44.8"/>
		<path class="st2" d="M0,860.7c0,0,1491.1-245.1,1700.8-133c217.2,115.2,1505.4-45,1505.4-45"/>
		<path class="st2" d="M0,870.4c0,0,1492.5-247.5,1700.6-135.8c213.1,113.8,1505.6-45.2,1505.6-45.2"/>
		<path class="st2" d="M0,880c0,0,1493.9-249.9,1700.3-138.6c208.9,112.4,1505.8-45.4,1505.8-45.4"/>
		<path class="st2" d="M0,889.7c0,0,1495.4-252.3,1700.1-141.4s1506.1-45.6,1506.1-45.6"/>
	</g>
</g>
</svg>
