<?xml version="1.0" encoding="utf-8"?>
<!-- Generator: Adobe Illustrator 24.0.3, SVG Export Plug-In . SVG Version: 6.00 Build 0)  -->
<svg version="1.1" id="Layer_1" xmlns="http://www.w3.org/2000/svg" xmlns:xlink="http://www.w3.org/1999/xlink" x="0px" y="0px"
	 viewBox="0 0 3206.2 894" style="enable-background:new 0 0 3206.2 894;" xml:space="preserve">
<style type="text/css">
	.st0{display:none;}
	.st1{opacity:0.57;}
	.st2{fill:none;stroke:#CE202F;stroke-miterlimit:10;}
</style>
<g id="Layer_1_1_" class="st0">
	
		<image style="display:inline;overflow:visible;enable-background:new    ;" width="807" height="894" xlink:href="service-3-bg.png" >
	</image>
</g>
<g class="st1">
	<path class="st2" d="M3206.2,894c0,0-817-33.4-655.9-101.2C2742.7,711.7,372.6,564.4,0,894"/>
	<path class="st2" d="M3206.2,876.5c0,0-815.3-26.5-655.9-96.9c93.5-40.9-431.9-95.3-1034.1-102.6c-335.5-4-694.6,6.2-984.3,43.1
		C284.3,751.6,88.6,801.9,0,876.5"/>
	<path class="st2" d="M3206.2,858.9c0,0-813.9-20.2-655.9-92.6c92.2-42.2-432.5-94.8-1034-102.1c-335.6-4-694.4,5.3-984.1,41.9
		C284.7,737.5,89.9,787.1,0,858.9"/>
	<path class="st2" d="M3206.2,841.4c0,0-812.3-13.6-655.9-88.2c91-43.4-433.2-94.3-1033.8-101.5c-335.6-4.1-694.1,4.5-983.8,40.7
		C285,723.3,91.2,772.2,0,841.4"/>
	<path class="st2" d="M3206.2,823.9c0,0-810.8-7-655.9-83.9c89.8-44.6-433.9-93.8-1033.7-101c-335.7-4.1-693.9,3.6-983.6,39.5
		C285.4,709.2,92.5,757.3,0,823.9"/>
	<path class="st2" d="M3206.2,806.4c0,0-809.2-0.4-655.9-79.5c88.5-45.7-434.6-93.3-1033.6-100.5c-335.7-4.1-693.6,2.8-983.4,38.4
		C285.7,695,93.8,742.4,0,806.4"/>
	<path class="st2" d="M3206.2,788.8c0,0-807.7,6.2-655.9-75.2c87.3-46.8-435.3-92.8-1033.5-100c-335.7-4.1-693.4,2-983.2,37.2
		C286.1,680.9,95.2,727.5,0,788.8"/>
	<path class="st2" d="M3206.2,771.3c0,0-806.1,12.8-655.9-70.9c86.1-48-436-92.3-1033.4-99.5c-335.8-4.1-693.1,1.1-982.9,36
		C286.5,666.7,96.5,712.6,0,771.3"/>
	<path class="st2" d="M3206.2,753.8c0,0-804.6,19.5-655.9-66.5c84.9-49.1-436.6-91.7-1033.3-99c-335.8-4.1-692.9,0.3-982.7,34.8
		C286.8,652.6,97.8,697.8,0,753.8"/>
	<path class="st2" d="M3206.2,736.2c0,0-803,26.2-655.9-62.2c83.6-50.2-437.3-91.2-1033.2-98.5c-335.9-4.1-692.6-0.6-982.5,33.6
		C287.2,638.4,99.1,682.9,0,736.2"/>
	<path class="st2" d="M3206.2,718.7c0,0-801.5,32.8-655.9-57.9c82.4-51.3-438-90.7-1033.1-98c-335.9-4.1-692.4-1.4-982.3,32.5
		C287.5,624.3,100.4,668,0,718.7"/>
	<path class="st2" d="M3206.2,701.2c0,0-799.9,39.5-655.9-53.5c81.2-52.4-438.7-90.2-1032.9-97.5c-336-4.1-692.1-2.2-982,31.3
		C287.9,610.1,101.8,653.1,0,701.2"/>
	<path class="st2" d="M3206.2,683.6c0,0-798.4,46.2-655.9-49.2c79.9-53.5-439.4-89.7-1032.8-97c-336-4.1-691.9-3.1-981.8,30.1
		C288.3,595.9,103.1,638.2,0,683.6"/>
	<path class="st2" d="M3206.2,666.1c0,0-796.8,52.9-655.9-44.9c78.7-54.6-440-89.2-1032.7-96.5c-336-4.1-691.6-3.9-981.6,28.9
		c-247.4,28-431.6,69.6-536,112.4"/>
	<path class="st2" d="M3206.2,648.6c0,0-795.3,59.7-655.9-40.5c77.5-55.7-440.7-88.7-1032.6-95.9c-336.1-4.1-691.4-4.7-981.3,27.8
		C289,567.6,105.7,608.4,0,648.6"/>
	<path class="st2" d="M3206.2,631.1c0,0-793.7,66.4-655.9-36.2c76.3-56.8-441.4-88.2-1032.5-95.4c-336.1-4.1-691.1-5.6-981.1,26.6
		C289.3,553.5,107.1,593.6,0,631.1"/>
	<path class="st2" d="M3206.2,613.5c0,0-792.2,73.2-655.9-31.8c75-57.8-442.1-87.7-1032.4-94.9c-336.2-4.1-690.9-6.4-980.9,25.4
		C289.7,539.3,108.4,578.7,0,613.5"/>
	<path class="st2" d="M3206.2,596c0,0-790.6,79.9-655.9-27.5c73.8-58.9-442.8-87.2-1032.3-94.4c-336.2-4.1-690.6-7.3-980.7,24.2
		C290.1,525.2,109.7,563.8,0,596"/>
	<path class="st2" d="M3206.2,578.5c0,0-789.1,86.7-655.9-23.2c72.6-59.9-443.5-86.6-1032.2-93.9c-336.2-4.1-690.4-8.1-980.4,23
		C290.4,511,111,548.9,0,578.5"/>
	<path class="st2" d="M3206.2,560.9c0,0-787.5,93.5-655.9-18.8c71.4-61-444.1-86.1-1032.1-93.4c-336.3-4.2-690.1-8.9-980.2,21.9
		C290.8,496.9,112.3,534,0,560.9"/>
	<path class="st2" d="M3206.2,543.4c0,0-785.9,100.3-655.9-14.5c70.2-62-444.8-85.6-1031.9-92.9c-336.3-4.2-689.9-9.8-980,20.7
		c-247.2,26-424.7,62.4-538.4,86.7"/>
	<path class="st2" d="M3206.2,525.9c0,0-784.3,107.1-655.9-10.2c69-63-445.5-85.1-1031.8-92.4c-336.4-4.2-689.6-10.6-979.7,19.5
		C291.5,468.6,115,504.3,0,525.9"/>
	<path class="st2" d="M3206.2,508.4c0,0-782.7,113.9-655.9-5.8c67.8-64-446.2-84.6-1031.7-91.9c-336.4-4.2-689.4-11.5-979.5,18.3
		C291.9,454.4,116.3,489.4,0,508.4"/>
	<path class="st2" d="M3206.2,490.8c0,0-781.1,120.8-655.9-1.5c66.6-65.1-446.9-84.1-1031.6-91.4c-336.5-4.2-689.1-12.3-979.3,17.1
		C292.2,440.3,117.6,474.5,0,490.8"/>
	<path class="st2" d="M3206.2,473.3c0,0-779.5,127.6-655.9,2.9c65.4-66.1-447.5-83.6-1031.5-90.8c-336.5-4.2-688.9-13.1-979.1,16
		c-247.1,24.8-420.8,58.3-539.7,72"/>
	<path class="st2" d="M3206.2,455.8c0,0-777.9,134.5-655.9,7.2c64.3-67.1-448.2-83.1-1031.4-90.3c-336.5-4.2-688.6-14-978.8,14.8
		C292.9,411.9,120.3,444.7,0,455.8"/>
	<path class="st2" d="M3206.2,438.2c0,0-776.2,141.4-655.9,11.5c63.1-68.1-448.9-82.6-1031.3-89.8c-336.6-4.2-688.4-14.8-978.6,13.6
		C293.3,397.8,121.6,429.8,0,438.2"/>
	<path class="st2" d="M3206.2,420.7c0,0-774.6,148.2-655.9,15.9c61.9-69.1-449.6-82.1-1031.2-89.3c-336.6-4.2-688.1-15.7-978.4,12.4
		c-247.1,23.9-417.8,55.3-540.8,61"/>
	<path class="st2" d="M3206.2,403.2c0,0-772.9,155.1-655.9,20.2c60.8-70-450.3-81.5-1031-88.8c-336.7-4.2-687.9-16.5-978.2,11.3
		C294,369.5,124.2,400.1,0,403.2"/>
	<path class="st2" d="M3206.2,385.6c0,0-771.3,162-655.9,24.5c59.6-71-450.9-81-1030.9-88.3c-336.7-4.2-687.6-17.3-977.9,10.1
		c-247,23.4-415.9,53.2-541.4,53.7"/>
	<path class="st2" d="M3206.2,368.1c0,0-769.6,168.9-655.9,28.9c58.4-72-451.6-80.5-1030.8-87.8c-336.7-4.2-687.4-18.2-977.7,8.9
		c-247,23.1-414.9,52.2-541.8,50"/>
	<path class="st2" d="M3206.2,350.6c0,0-767.9,175.8-655.9,33.2c57.3-73-452.3-80-1030.7-87.3c-336.8-4.2-687.1-19-977.5,7.7
		C295.1,327,128.2,355.4,0,350.6"/>
	<path class="st2" d="M3206.2,333.1c0,0-766.2,182.8-655.9,37.6c56.2-74-453-79.5-1030.6-86.8c-336.8-4.2-686.9-19.9-977.2,6.5
		c-247,22.5-412.9,50.1-542.4,42.7"/>
	<path class="st2" d="M3206.2,315.5c0,0-764.5,189.7-655.9,41.9c55-74.9-453.7-79-1030.5-86.3c-336.9-4.2-686.6-20.7-977,5.4
		c-247,22.2-411.9,49.1-542.8,39"/>
	<path class="st2" d="M3206.2,298c0,0-762.7,196.6-655.9,46.2c53.9-75.9-454.4-78.5-1030.4-85.7c-336.9-4.2-686.4-21.5-976.8,4.2
		C296.2,284.6,132.2,310.8,0,298"/>
	<path class="st2" d="M3206.2,280.5c0,0-761,203.6-655.9,50.6c52.8-76.9-455-78-1030.3-85.2c-336.9-4.3-686.1-22.4-976.6,3
		c-246.9,21.6-410,47.1-543.5,31.7"/>
	<path class="st2" d="M3206.2,262.9c0,0-759.2,210.5-655.9,54.9c51.7-77.8-455.7-77.5-1030.2-84.7c-337-4.3-685.9-23.2-976.3,1.8
		c-246.9,21.3-409,46-543.8,28"/>
	<path class="st2" d="M3206.2,245.4c0,0-757.4,217.4-655.9,59.2c50.6-78.8-456.4-77-1030-84.2c-337-4.3-685.6-24-976.1,0.6
		c-246.9,21-408,45-544.1,24.3"/>
	<path class="st2" d="M3206.2,227.9c0,0-755.7,224.4-655.9,63.6c49.5-79.7-457.1-76.5-1029.9-83.7c-337.1-4.3-685.4-24.9-975.9-0.5
		c-246.8,20.7-407,44-544.5,20.7"/>
	<path class="st2" d="M3206.2,210.4c0,0-753.9,231.3-655.9,67.9c48.4-80.7-457.8-75.9-1029.8-83.2c-337.1-4.3-685.1-25.7-975.7-1.7
		c-246.8,20.4-406.1,43-544.8,17"/>
	<path class="st2" d="M3206.2,192.8c0,0-752,238.3-655.9,72.2c47.3-81.7-458.4-75.4-1029.7-82.7c-337.2-4.3-684.9-26.6-975.4-2.9
		C298.4,199.6,140.1,221.4,0,192.8"/>
	<path class="st2" d="M3206.2,175.3c0,0-750.2,245.2-655.9,76.6c46.2-82.6-459.1-74.9-1029.6-82.2c-337.2-4.3-684.6-27.4-975.2-4.1
		C298.7,185.5,141.4,206.6,0,175.3"/>
	<path class="st2" d="M3206.2,157.8c0,0-748.4,252.2-655.9,80.9c45.1-83.6-459.8-74.4-1029.5-81.7c-337.2-4.3-684.4-28.2-975-5.2
		c-246.8,19.5-403.1,39.9-545.8,6"/>
	<path class="st2" d="M3206.2,140.2c0,0-746.5,259.1-655.9,85.3c44.1-84.6-460.5-73.9-1029.4-81.2c-337.3-4.3-684.1-29.1-974.7-6.4
		C299.4,157.2,144.1,176.8,0,140.2"/>
	<path class="st2" d="M3206.2,122.7c0,0-744.6,266.1-655.9,89.6c43-85.5-461.2-73.4-1029.3-80.6c-337.3-4.3-683.9-29.9-974.5-7.6
		C299.8,143,145.4,161.9,0,122.7"/>
	<path class="st2" d="M3206.2,105.2c0,0-742.8,273-655.9,93.9c41.9-86.5-461.9-72.9-1029.1-80.1c-337.4-4.3-683.6-30.8-974.3-8.8
		C300.2,128.9,146.7,147,0,105.2"/>
	<path class="st2" d="M3206.2,87.6c0,0-740.9,280-655.9,98.3c40.9-87.5-462.5-72.4-1029-79.6c-337.4-4.3-683.4-31.6-974.1-10
		C300.5,114.7,148,132.1,0,87.6"/>
	<path class="st2" d="M3206.2,70.1c0,0-738.9,286.9-655.9,102.6c39.8-88.4-463.2-71.9-1028.9-79.1c-337.4-4.3-683.1-32.4-973.8-11.1
		C300.9,100.5,149.3,117.3,0,70.1"/>
	<path class="st2" d="M3206.2,52.6c0,0-737,293.8-655.9,106.9c38.8-89.4-463.9-71.4-1028.8-78.6C1184,76.6,838.6,47.6,547.9,68.6
		C301.2,86.4,150.7,102.4,0,52.6"/>
	<path class="st2" d="M3206.2,35.1c0,0-735.1,300.8-655.9,111.3c37.8-90.4-464.6-70.8-1028.7-78.1C1184.1,63.9,839,34.1,548.2,54.7
		C301.6,72.2,152,87.5,0,35.1"/>
	<path class="st2" d="M3206.2,17.5c0,0-732.9,307.8-655.9,115.6c36.9-91.3-465.3-70.3-1028.6-77.6c-337.6-4.3-682.4-35-973.2-14.7
		C302,58.1,153.3,72.6,0,17.5"/>
	<path class="st2" d="M3206.2,0c0,0-731.2,314.7-655.9,120c35.7-92.3-465.9-69.8-1028.5-77.1C1184.2,38.5,839.7,7.1,548.9,27
		C302.3,43.9,154.6,57.7,0,0"/>
</g>
</svg>
