<?xml version="1.0" encoding="utf-8"?>
<!-- Generator: Adobe Illustrator 25.2.3, SVG Export Plug-In . SVG Version: 6.00 Build 0)  -->
<svg version="1.1" id="Layer_1" xmlns="http://www.w3.org/2000/svg" xmlns:xlink="http://www.w3.org/1999/xlink" x="0px" y="0px"
	 viewBox="0 0 2504 381" style="enable-background:new 0 0 2504 381;" xml:space="preserve">
<style type="text/css">
	.st0{fill:#FFFFFF;stroke:#CE0E2D;stroke-width:1.2993;stroke-miterlimit:10;}
	.st1{fill:#CE0E2D;}
</style>
<polyline class="st0" points="2489.3,446.3 2489.3,202.8 2490,202.7 2490,128 2463.9,128.3 2464.5,178.3 2442.5,178.3 2442.5,177 
	2411.8,177.3 2411.8,178.3 2384.7,178.3 2384.4,147.1 2359.9,147.4 2359.7,134.9 2317.8,135.4 2318.3,178.3 2286.1,178.3 
	2286,171.2 2271.2,171.3 2270.3,94.4 2241.7,94.7 2241.6,88.2 2231.9,88.3 2232,96.8 2218.2,97 2218.4,108.4 2201.5,108.6 
	2201.4,101.6 2192.7,101.7 2192.8,106.2 2180,106.4 2179.7,82.4 2129.7,82.9 2129.9,101.4 2123.2,101.5 2122.8,60.5 2118.2,60.5 
	2118.1,53.6 2113,53.6 2112.8,38.1 2092.4,38.3 2092.6,56.3 2086.4,56.4 2086.8,94.4 2084.3,96.9 2084.6,117.9 2080.5,117.9 
	2080.8,147.9 2070.1,148 2069.2,72.1 2063.6,72.1 2063.5,64.6 2051.2,64.8 2051.3,70.7 2033.4,70.9 2033.9,108.9 2030.3,108.9 
	2030.2,98 1985.2,98.4 1985.3,108.9 1980.2,109 1981,178.3 1966.1,178.3 1966.1,173.6 1962,173.6 1961.9,166.6 1953.7,166.7 
	1953.8,172.7 1947.7,172.8 1947.7,178.3 1939.6,178.3 1939.5,175.4 1891.6,176.2 1891.6,178.3 1535.3,178.3 1535.4,176.2 
	1487.4,175.4 1487.4,178.3 1479.2,178.3 1479.3,172.8 1473.1,172.7 1473.2,166.7 1465,166.6 1464.9,173.6 1460.8,173.6 
	1460.8,178.3 1446,178.3 1446.7,109 1441.6,108.9 1441.7,98.4 1396.8,98 1396.7,108.9 1393.1,108.9 1393.5,70.9 1375.6,70.7 
	1375.7,64.8 1363.4,64.6 1363.3,72.1 1357.7,72.1 1356.9,148 1346.1,147.9 1346.5,117.9 1342.4,117.9 1342.6,96.9 1340.1,94.4 
	1340.5,56.4 1334.4,56.3 1334.6,38.3 1314.1,38.1 1314,53.6 1308.8,53.6 1308.8,60.5 1304.2,60.5 1303.7,101.5 1297.1,101.4 
	1297.3,82.9 1247.2,82.4 1246.9,106.4 1234.1,106.2 1234.2,101.7 1225.5,101.6 1225.4,108.6 1208.6,108.4 1208.7,97 1194.9,96.8 
	1195,88.3 1185.3,88.2 1185.2,94.7 1156.6,94.4 1155.7,171.3 1140.9,171.2 1140.8,178.3 1108.6,178.3 1109.1,135.4 1067.2,134.9 
	1067.1,147.4 1042.5,147.1 1042.2,178.3 1015.1,178.3 1015.1,177.3 984.4,177 984.4,178.3 962.5,178.3 963,128.3 908.8,127.7 
	908.3,178.3 895,178.3 895.1,168.6 872.6,168.3 872.5,178.3 787.5,178.3 787.7,160.3 773.4,160.1 773.4,165.1 750.9,164.9 
	750.8,171.9 743.6,171.8 743.8,161.3 709,160.9 708.8,177.9 691.4,177.7 691.6,153.1 643.7,152.2 643.4,178.3 635.2,178.3 
	635.5,149.6 629.4,149.6 629.5,143.6 621.3,143.5 621.2,150.5 617.1,150.5 616.9,169.4 613.3,169.4 613.2,178.3 602,178.3 603,85.9 
	597.9,85.8 598,75.3 553.1,74.8 552.9,85.8 549.4,85.8 549.8,47.8 531.9,47.6 532,41.6 519.7,41.5 519.6,49 514,48.9 513.1,124.9 
	502.4,124.8 502.7,94.8 498.7,94.7 498.9,73.8 496.4,71.2 496.8,33.3 490.7,33.2 490.9,15.2 470.4,15 470.2,30.5 465.1,30.4 
	465,37.4 460.4,37.4 460,78.3 453.3,78.3 453.6,59.8 403.5,59.3 403.2,83.2 390.4,83.1 390.5,78.6 381.8,78.5 381.7,85.5 
	364.8,85.3 365,73.8 351.2,73.7 351.3,65.2 341.6,65.1 341.5,71.6 312.9,71.3 312,148.2 297.2,148.1 297.1,156 289.4,156 
	289.4,163.2 269.4,163 269.3,178.3 264.7,178.3 265.4,112.2 223.5,111.8 223.3,124.3 198.8,124 198.3,167.5 182.5,167.3 
	182.5,162.1 171.3,162 171.4,154.2 140.7,153.9 140.6,161.6 124.8,161.5 124.7,167.7 118.6,167.6 119.3,105.2 65.1,104.6 
	64.4,172.6 51.1,172.4 51.4,145.4 28.9,145.2 28.5,178.2 28.5,466.5 "/>
<g>
	<path class="st1" d="M1248.5,426.9c0.8,0,1.5,0.7,1.5,1.5c0,0.8-0.6,1.5-1.4,1.5h0c-0.8,0-1.4-0.7-1.4-1.5
		C1247.1,427.5,1247.7,426.9,1248.5,426.9"/>
	<path class="st1" d="M1219.1,426.9c0.8,0,1.5,0.7,1.5,1.5c0,0.8-0.6,1.5-1.4,1.5h0c-0.8,0-1.4-0.7-1.4-1.5
		C1217.6,427.5,1218.3,426.9,1219.1,426.9 M1189.6,426.9c0.8,0,1.5,0.7,1.5,1.5c0,0.8-0.6,1.5-1.4,1.5h0c-0.8,0-1.4-0.7-1.4-1.5
		C1188.1,427.5,1188.8,426.9,1189.6,426.9 M1160.1,426.9c0.8,0,1.5,0.7,1.5,1.5c0,0.8-0.6,1.5-1.4,1.5h0c-0.8,0-1.4-0.7-1.4-1.5
		C1158.7,427.5,1159.3,426.9,1160.1,426.9 M1130.6,426.9c0.8,0,1.5,0.7,1.5,1.5c0,0.8-0.6,1.5-1.4,1.5h0c-0.8,0-1.4-0.7-1.4-1.5
		C1129.2,427.5,1129.8,426.9,1130.6,426.9 M1101.1,426.9c0.8,0,1.5,0.7,1.5,1.5c0,0.8-0.6,1.5-1.4,1.5h0c-0.8,0-1.4-0.7-1.4-1.5
		C1099.7,427.5,1100.3,426.9,1101.1,426.9"/>
	<path class="st1" d="M1071.7,426.9c0.8,0,1.5,0.7,1.5,1.5c0,0.8-0.6,1.5-1.4,1.5h0c-0.8,0-1.4-0.7-1.4-1.5
		C1070.2,427.5,1070.9,426.9,1071.7,426.9"/>
	<path class="st1" d="M1248.5,394c0.8,0,1.5,0.7,1.5,1.5c0,0.8-0.6,1.5-1.4,1.5h0c-0.8,0-1.4-0.7-1.4-1.5
		C1247.1,394.7,1247.7,394,1248.5,394"/>
	<path class="st1" d="M1219.1,394c0.8,0,1.5,0.7,1.5,1.5c0,0.8-0.6,1.5-1.4,1.5h0c-0.8,0-1.4-0.7-1.4-1.5
		C1217.6,394.7,1218.3,394,1219.1,394 M1189.6,394c0.8,0,1.5,0.7,1.5,1.5c0,0.8-0.6,1.5-1.4,1.5h0c-0.8,0-1.4-0.7-1.4-1.5
		C1188.1,394.7,1188.8,394,1189.6,394 M1160.1,394c0.8,0,1.5,0.7,1.5,1.5c0,0.8-0.6,1.5-1.4,1.5h0c-0.8,0-1.4-0.7-1.4-1.5
		C1158.7,394.7,1159.3,394,1160.1,394 M1130.6,394c0.8,0,1.5,0.7,1.5,1.5c0,0.8-0.6,1.5-1.4,1.5h0c-0.8,0-1.4-0.7-1.4-1.5
		C1129.2,394.7,1129.8,394,1130.6,394 M1101.1,394c0.8,0,1.5,0.7,1.5,1.5c0,0.8-0.6,1.5-1.4,1.5h0c-0.8,0-1.4-0.7-1.4-1.5
		C1099.7,394.7,1100.3,394,1101.1,394"/>
	<path class="st1" d="M1071.7,394c0.8,0,1.5,0.7,1.5,1.5c0,0.8-0.6,1.5-1.4,1.5h0c-0.8,0-1.4-0.7-1.4-1.5
		C1070.2,394.7,1070.9,394,1071.7,394"/>
	<path class="st1" d="M1248.5,361.2c0.8,0,1.5,0.7,1.5,1.5c0,0.8-0.6,1.5-1.4,1.5h0c-0.8,0-1.4-0.7-1.4-1.5
		C1247.1,361.8,1247.7,361.2,1248.5,361.2"/>
	<path class="st1" d="M1219.1,361.2c0.8,0,1.5,0.7,1.5,1.5c0,0.8-0.6,1.5-1.4,1.5h0c-0.8,0-1.4-0.7-1.4-1.5
		C1217.6,361.8,1218.3,361.2,1219.1,361.2 M1189.6,361.2c0.8,0,1.5,0.7,1.5,1.5c0,0.8-0.6,1.5-1.4,1.5h0c-0.8,0-1.4-0.7-1.4-1.5
		C1188.1,361.8,1188.8,361.2,1189.6,361.2 M1160.1,361.2c0.8,0,1.5,0.7,1.5,1.5c0,0.8-0.6,1.5-1.4,1.5h0c-0.8,0-1.4-0.7-1.4-1.5
		C1158.7,361.8,1159.3,361.2,1160.1,361.2 M1130.6,361.2c0.8,0,1.5,0.7,1.5,1.5c0,0.8-0.6,1.5-1.4,1.5h0c-0.8,0-1.4-0.7-1.4-1.5
		C1129.2,361.8,1129.8,361.2,1130.6,361.2 M1101.1,361.2c0.8,0,1.5,0.7,1.5,1.5c0,0.8-0.6,1.5-1.4,1.5h0c-0.8,0-1.4-0.7-1.4-1.5
		C1099.7,361.8,1100.3,361.2,1101.1,361.2"/>
	<path class="st1" d="M1071.7,361.2c0.8,0,1.5,0.7,1.5,1.5c0,0.8-0.6,1.5-1.4,1.5h0c-0.8,0-1.4-0.7-1.4-1.5
		C1070.2,361.8,1070.9,361.2,1071.7,361.2"/>
</g>
</svg>
