<?xml version="1.0" encoding="utf-8"?>
<!-- Generator: Adobe Illustrator 24.0.3, SVG Export Plug-In . SVG Version: 6.00 Build 0)  -->
<svg version="1.1" id="Layer_1" xmlns="http://www.w3.org/2000/svg" xmlns:xlink="http://www.w3.org/1999/xlink" x="0px" y="0px"
	 viewBox="0 0 255.7 221.2" style="enable-background:new 0 0 255.7 221.2;" xml:space="preserve">
<style type="text/css">
	.st0{fill:none;stroke:#CE0E2D;stroke-width:2;stroke-miterlimit:10;}
</style>
<g>
	<polyline class="st0" points="176.3,152.5 176.3,142.9 163.4,130 153.7,130 	"/>
	<polyline class="st0" points="202.1,81.5 192.4,81.5 173.1,100.9 153.7,100.9 	"/>
	<line class="st0" x1="205.3" y1="110.6" x2="153.7" y2="110.6"/>
	<polyline class="st0" points="202.1,139.6 192.4,139.6 173.1,120.3 153.7,120.3 	"/>
	<polyline class="st0" points="176.3,68.6 176.3,78.3 163.4,91.2 153.7,91.2 	"/>
	<polyline class="st0" points="79.5,152.5 79.5,142.9 92.4,130 102.1,130 	"/>
	<polyline class="st0" points="53.6,81.5 63.3,81.5 82.7,100.9 102.1,100.9 	"/>
	<line class="st0" x1="50.4" y1="110.6" x2="102.1" y2="110.6"/>
	<polyline class="st0" points="53.6,139.6 63.3,139.6 82.7,120.3 102.1,120.3 	"/>
	<polyline class="st0" points="79.5,68.6 79.5,78.3 92.4,91.2 102.1,91.2 	"/>
	<rect x="111.7" y="94.5" class="st0" width="32.3" height="32.3"/>
	<line class="st0" x1="127.9" y1="33.1" x2="127.9" y2="84.8"/>
	<polyline class="st0" points="147.2,39.6 147.2,52.5 137.6,62.2 137.6,84.8 	"/>
	<polyline class="st0" points="108.5,39.6 108.5,52.5 118.2,62.2 118.2,84.8 	"/>
	<polyline class="st0" points="147.2,84.8 147.2,71.9 160.1,59 160.1,49.3 	"/>
	<polyline class="st0" points="108.5,84.8 108.5,71.9 95.6,59 95.6,49.3 	"/>
	<line class="st0" x1="127.9" y1="188" x2="127.9" y2="136.4"/>
	<polyline class="st0" points="147.2,181.6 147.2,165.5 137.6,155.8 137.6,136.4 	"/>
	<polyline class="st0" points="108.5,181.6 108.5,165.5 118.2,155.8 118.2,136.4 	"/>
	<polyline class="st0" points="147.2,136.4 147.2,146.1 160.1,159 160.1,171.9 	"/>
	<polyline class="st0" points="108.5,136.4 108.5,146.1 95.6,159 95.6,171.9 	"/>
</g>
</svg>
