<?xml version="1.0" encoding="utf-8"?>
<!-- Generator: Adobe Illustrator 24.0.3, SVG Export Plug-In . SVG Version: 6.00 Build 0)  -->
<svg version="1.1" id="Layer_1" xmlns="http://www.w3.org/2000/svg" xmlns:xlink="http://www.w3.org/1999/xlink" x="0px" y="0px"
	 viewBox="0 0 482 358" style="enable-background:new 0 0 482 358;" xml:space="preserve">
<style type="text/css">
	.st0{display:none;}
	.st1{display:inline;}
	.st2{fill:none;stroke:#CF202F;stroke-miterlimit:10;}
	.st3{fill:none;stroke:#CF202F;stroke-miterlimit:10;stroke-dasharray:5.9738,5.9738;}
	.st4{fill:#CF202F;}
	.st5{fill:#231F20;}
	.st6{fill:#FFFFFF;}
	.st7{fill:#E6E7E8;}
	.st8{fill:#FCD9DE;}
	.st9{fill:#FF7E00;}
	.st10{fill:#29AE85;}
	.st11{fill:#0487E8;}
	.st12{fill:#F13C79;}
	.st13{opacity:0.6;}
	.st14{fill:url(#SVGID_1_);}
	.st15{fill:url(#SVGID_2_);}
	.st16{fill:url(#SVGID_3_);}
	.st17{fill:#B7B7B7;}
</style>
<g id="Layer_2_1_" class="st0">
	<g class="st1">
		<g>
			<g>
				<path class="st2" d="M-116.3,307.7c-0.7,0.7-1.5,1.3-2.2,2"/>
				<path class="st3" d="M-123.1,313.5c-20.7,16.4-48.5,28.9-79.5,36.7c-5.5,1.4-11.2,2.6-16.9,3.7c-15.1,2.8-30.8,4.5-46.6,5
					c-0.1,0-0.3,0-0.4,0c-3.4,0.1-6.7,0.1-10.1,0.1c-34.2-0.2-68.4-6.2-98.4-19.2c-6.2-2.7-12.2-5.6-17.9-8.9
					c-6.6-3.7-12.9-7.9-18.9-12.4c-1.2-0.9-6.7-5.8-14-14c-21.9-24.7-59.9-79.5-46.2-146.8C-454.1,67.9-348-1.8-282.8,18.8
					c12.1,3.8,23,9.5,33,16.2c27.3,18.3,48.4,44.5,70.8,62.8c13.7,11.2,27.9,19.4,44.4,21.2c4.6,0.5,9,1.8,13.2,3.8
					c7.9,3.7,15.2,10,21.5,18C-70.7,178-62.8,254-111.6,303.3"/>
				<path class="st2" d="M-113.7,305.3c-0.7,0.7-1.4,1.4-2.2,2.1"/>
				<g>
					
						<rect x="-116.8" y="304.4" transform="matrix(0.7517 -0.6595 0.6595 0.7517 -231.7877 -0.3312)" class="st4" width="1" height="6.5"/>
				</g>
			</g>
		</g>
		<path class="st5" d="M-129.7,307.7c-19.8,18.1-48.6,31.9-81.1,40c-5.2,1.3-10.5,2.4-15.8,3.4c-14.2,2.6-28.8,4.2-43.6,4.7
			c-0.1,0-0.3,0-0.4,0c-3.2,0.1-6.3,0.1-9.5,0.1c-32-0.2-64-5.8-92.1-18c-5.8-2.5-11.4-5.3-16.8-8.3c-6.2-3.5-12.1-7.4-17.7-11.6
			c-1.2-0.9-6.3-5.5-13.1-13.1c-20.5-23.1-56-74.4-43.2-137.3c17-83.9,116.3-149,177.2-129.7c11.3,3.6,21.5,8.9,30.9,15.2
			c25.6,17.1,45.2,41.6,66.2,58.7c12.8,10.4,26.1,18.1,41.5,19.8c4.3,0.5,8.4,1.7,12.3,3.6c7.4,3.5,14.2,9.3,20.1,16.8
			C-86.7,187.6-79.6,261.8-129.7,307.7z"/>
		<g>
			<path class="st6" d="M-357.7,124.2c0,0-5-3.6-9.9,0.5c-4.9,4-1.8,31.5,3.3,35.5c0,0,9.5,1,9-12.8
				C-355.7,133.7-357.7,124.2-357.7,124.2z"/>
			<path class="st7" d="M-270.6,356.1h-9.5c0-0.1,0-0.1-0.1-0.2c-32-0.2-64-5.8-92.1-18c-5.8-2.5-11.4-5.3-16.8-8.3
				c-4.5-33.6-10.8-90.5-4.8-104.4c0.4-0.9,0.8-1.7,1.4-2.2c0-0.1,0.1-0.1,0.1-0.1c2.7-2.6,21-5.9,33.6-7.9l0,0
				c6.7-1.1,11.8-1.7,11.8-1.7l20.7,0.1c0,0,3.8,0.5,9.3,1.5c11.6,2.1,30.5,6.3,35.5,12.6c0.9,1.1,1.9,7.1,2.9,15.9
				c0,0.2,0.1,0.4,0.1,0.6c0.3,2.1,0.5,4.4,0.7,6.8c2,20.9,4.1,51.7,5.5,75.3l0,0c0.1,1.1,0.1,2.3,0.2,3.3c0.3,5.1,0.6,9.9,0.8,14
				v0.1c0.3,5.2,0.5,9.4,0.7,12.4C-270.6,355.9-270.6,356-270.6,356.1z"/>
			<polygon class="st8" points="-326.6,186.4 -345.3,187.2 -346.9,213.2 -326.3,213.3 			"/>
			<path class="st5" d="M-346.4,204.9l-12.3,10.1l11.8,10.1l10.3-11.8l8.8,11.8l10.9-10.3l-9.3-9.9
				C-326.3,204.9-335.3,214.4-346.4,204.9z"/>
			<path class="st8" d="M-358.7,135.5c0,0-12.3,52,22.1,56.5s28-62.4,17.6-62.9C-329.4,128.5-357.1,125.6-358.7,135.5z"/>
			<path class="st6" d="M-349.8,129.7c0,0,38.8,11.6,48.1-5.9c10-18.9-13.3-29-24.5-11.3c0,0-35.9-11-37.1,12.6
				C-364,138.2-349.8,129.7-349.8,129.7z"/>
			<path class="st8" d="M-358.7,157.4c0,0-4.9-4.2-8.3-1s0.6,14.1,8.3,13C-350.9,168.4-358.7,157.4-358.7,157.4z"/>
			<path class="st6" d="M-363.4,154.4c0,0,1.7,1.3,2.7,5.8c0,0,1.9,0.8,3.3-0.7c1.5-1.5,5.3-20.6,4.6-27.1c-0.8-6.5-10.3-4.8-11.2,3
				C-364.8,143.3-363.4,154.4-363.4,154.4z"/>
			<path class="st8" d="M-314.8,157.4c0,0,4.9-4.2,8.3-1s-0.6,14.1-8.3,13C-322.5,168.4-314.8,157.4-314.8,157.4z"/>
			<path class="st6" d="M-308.2,155.4c0,0-3.2,0.4-4.2,4.8c0,0,0,0.8-1.4-0.7c-1.5-1.5-0.2-21.8,0.6-28.2s5.2-3.7,6,4.2
				C-306.3,143.3-308.2,155.4-308.2,155.4z"/>
			<path class="st6" d="M-344.4,125.7c-0.1,0.4-1.6,14.1-11.5,13c-10-1.1-2.1-17.3-2.1-17.3L-344.4,125.7z"/>
			<path class="st6" d="M-319,130.3c0,0-0.6,8.9,6,11.2s2.3-14.4,2.3-14.4L-319,130.3z"/>
			<path class="st7" d="M-372.1,337.9c-5.8-2.5-11.4-5.3-16.8-8.3c-6.2-3.5-12.1-7.4-17.7-11.6c-1.2-0.9-6.3-5.5-13.1-13.1
				c6.5-29.7,19.7-69.8,26-79.7c0.7-1.2,1.2-2,1.4-2.2c0-0.1,0.1-0.1,0.1-0.1L-372.1,337.9z"/>
		</g>
		<g>
			<path class="st4" d="M-203.5,42.1c0,0-77.9,1.5-70.1,41.6s70.5,41.3,100.6,19.8C-152.4,88.9-150.8,41.9-203.5,42.1z"/>
			<polygon class="st4" points="-265.2,84.4 -281.7,109.2 -246,100.8 			"/>
		</g>
		<g>
			<path class="st5" d="M-239.3,96.5l-3.5-30.9l7.9-0.9l1.3,11.6l10.1-1.2l-1.3-11.6l7.9-0.9l3.5,30.9l-7.9,0.9l-1.4-12.3l-10.1,1.2
				l1.4,12.3L-239.3,96.5z"/>
			<path class="st5" d="M-211.4,62.1l17.5-2l0.8,6.9l-9.6,1.1l0.6,4.8l9.3-1.1l0.8,6.9l-9.3,1.1l0.6,5.3l9.6-1.1l0.8,6.9l-17.5,2
				L-211.4,62.1z"/>
			<path class="st5" d="M-189.1,59.5l7.9-0.9l2.7,23.9l9.1-1l0.8,6.9l-17,2L-189.1,59.5z"/>
			<path class="st5" d="M-168.8,57.2l7.9-0.9l2.7,23.9l9.1-1l0.8,6.9l-17,2L-168.8,57.2z"/>
			<path class="st5" d="M-149.9,71c-1.2-10.1,5.9-17.2,14.4-18.2c9.5-1.1,17.2,5.6,18.1,14.1s-4.9,16.8-14.5,17.9
				C-141.6,85.9-149,78.9-149.9,71L-149.9,71z M-142.1,69.7c0.5,4.7,4.3,8.8,9.6,8.2c5.6-0.6,7.7-6,7.3-10c-0.5-4-3.8-8.8-9.4-8.2
				C-140.1,60.3-142.6,65.3-142.1,69.7L-142.1,69.7z"/>
			<path class="st5" d="M-104.8,70.8l-7.1,0.8l-2.4-20.7l7.1-0.8L-104.8,70.8z M-103.6,81l-7.1,0.8l-0.8-7.1l7.1-0.8L-103.6,81z"/>
		</g>
		<g>
			<g>
				<path class="st4" d="M-207.2,280.1L-207.2,280.1c-0.4,1.6-0.8,3.3-1.3,5c-0.3,1.4-0.7,2.8-1.1,4.2c-0.9,3.4-1.8,7-2.8,10.7
					c-4.9,18.5-10.6,38.5-14.3,51.2c-14.2,2.6-28.8,4.2-43.6,4.7v0.3h-9.8c0-0.1,0-0.1-0.1-0.2c-0.7-2.8-1.6-6.7-2.7-11.4
					c-1.1-4.8-2.4-10.3-3.7-16.3c-2.3-10.6-4.8-22.6-6.8-34.1c-0.6-3.7-1.2-7.4-1.8-10.9c-2.7-18.2-3.6-33.2,0-36.4
					c1.7-1.5,4.8-2.3,7.6-2.8l0,0c3.1-0.5,5.7-0.5,5.7-0.5l3.2,0.2l62.7,4.3c0,0,9.3,2.1,12.7,7.1C-202,256.8-204,266.7-207.2,280.1
					z"/>
				<path class="st8" d="M-135.9,129.4c0,0,5,21.9,2.7,27.7c-1.5,3.9-6.2,56.6-23.3,72.6c-12.5,11.7-29.8,21.3-46.5,25.6l-4.2,24.8
					c0,0,50.8-20.7,64.5-34.2c13.8-13.6,23.6-87.8,23.6-87.8s24.7-34.4,23.7-38.9c-0.5-2.4-3.2-5.7-5.5-8.3
					c-2.1-2.2-5.6-2.2-7.6,0.1l-17.9,19.8c0,0-4.2-15.1-8.7-14.7C-139.6,116.3-135.9,129.4-135.9,129.4z"/>
				<path class="st8" d="M-238.8,219.4l-15.9,2.3l-2.2,19.2l-24.8,2.8c0,0,0,10.2,20.7,14.4c32.9,6.7,45.2-9.9,45.2-9.9l-24-6.4
					L-238.8,219.4z"/>
				<path class="st8" d="M-245,166.6c0,0-20.5,6.7-23.6,34.8c-3.3,29.8,23.5,28.1,36,17.1C-211.8,200.1-214.8,158.6-245,166.6z"/>
				<path class="st8" d="M-228.2,206.6c0,0,4.4-3.7,8.5-0.1c4.1,3.6-3.3,12.4-10.7,8.6C-237.8,211.3-228.2,206.6-228.2,206.6z"/>
				<path class="st6" d="M-245,162.6c0,0-3.5-14.7-17.4-9.8c-12.5,4.5-9,26.5,11.5,33c15.3,4.9,24.3-0.3,24.3-0.3s-4.2,7.1-3.4,12.6
					s-0.3,9.7-0.3,9.7s3.6,0.8,7.5-3c0,0,15.8-11.2,11.6-27.2C-215.5,161.7-234.3,158.9-245,162.6z"/>
				<path class="st6" d="M-223.1,166.5c0.7-2.3,6.6-26.9,32.7-27.7c26.2-0.8,43.7,42.8,2.3,55.1c-7.6,2.3-27.6,0.6-33.1-3.8
					C-226.7,185.6-223.1,166.5-223.1,166.5z"/>
			</g>
			<path class="st8" d="M-295,246.9c-8.8-3.3-36.6,51.5-43.3,80.5c-6.7,29,77,14.4,77,14.4l-3.2-12.1c0,0-45.1-2-46.2-6.2
				s15.7-40.2,15.7-40.2S-292.3,247.9-295,246.9z"/>
			<polygon class="st4" points="-215.8,248.2 -177.4,244.9 -173.3,267.5 -212.2,290.9 			"/>
			<path class="st4" d="M-287.4,244.1c0,0-6.4-3.2-24.3,15.5l-12.9,19.9l24.7,20.7l16.8-14.7L-287.4,244.1z"/>
			<path class="st7" d="M-192.3,285.5l-18.5,62.2c-5.2,1.3-10.5,2.4-15.8,3.4c-14.2,2.6-28.8,4.2-43.6,4.7l0.5-12.5v-0.2l0.5-13.6
				l1.8-45.7l54.6,1.2l4.3,0.1l5.7,0.1L-192.3,285.5z"/>
			<path class="st8" d="M-276,330l7.1-7.7l-0.3,7.2l24.1-6c0,0,3.9,3.9,3.4,6.5s-9,11.9-32.9,13.6L-276,330z"/>
		</g>
	</g>
</g>
<g id="Layer_1_1_" class="st0">
	<g class="st1">
		<path class="st9" d="M93.4,150.9v44.5h-15v-33.2h-7.6v-11.3H93.4z"/>
		<path class="st10" d="M206.4,184.2v11.6h-35.6v-9.2l16.1-14.9c1.4-1.3,2.3-2.4,2.8-3.4c0.5-0.9,0.7-1.8,0.7-2.7
			c0-1.1-0.4-2-1.1-2.6c-0.7-0.6-1.8-0.9-3.2-0.9s-2.6,0.4-3.8,1.1c-1.2,0.7-2.1,1.7-2.7,3.1l-11.3-5.7c1.7-3.2,4.2-5.7,7.4-7.5
			c3.3-1.8,7.2-2.8,11.8-2.8c3.5,0,6.6,0.6,9.3,1.7c2.7,1.1,4.8,2.8,6.4,4.9c1.5,2.1,2.3,4.6,2.3,7.3c0,2.5-0.5,4.8-1.6,6.9
			c-1,2.1-3.1,4.6-6.1,7.3l-6.4,5.8L206.4,184.2L206.4,184.2z"/>
		<path class="st11" d="M311.5,172.6c1.8,2.2,2.8,4.9,2.8,8c0,2.7-0.7,5.2-2.2,7.5s-3.7,4.2-6.8,5.6c-3.1,1.4-6.8,2.2-11.4,2.2
			c-3.1,0-6.3-0.3-9.4-1s-5.8-1.7-8.2-3l5.1-11.1c1.8,1.1,3.8,1.9,5.9,2.4c2.1,0.6,4.1,0.8,6.1,0.8c1.7,0,3.1-0.3,4.2-0.9
			c1.1-0.6,1.6-1.4,1.6-2.5c0-2-1.8-3-5.3-3H288v-9.2l6.5-6.7h-15.9v-11.3h33.2v9.2l-8.3,8.4C307,168.8,309.6,170.4,311.5,172.6z"/>
		<path class="st12" d="M423.7,187.7h-5.9v7.6h-14.6v-7.6h-23.1v-9.5l18.9-27.3h15.4l-16.8,25.2h6v-6.8h14.1v6.8h5.9v11.6H423.7z"/>
		<g class="st13">
			
				<image style="overflow:visible;enable-background:new    ;" width="1917" height="558" xlink:href="8EDD62736A0C876A.png"  transform="matrix(0.2394 0 0 0.2394 10.2731 112.241)">
			</image>
		</g>
		<g>
			<g>
				
					<linearGradient id="SVGID_1_" gradientUnits="userSpaceOnUse" x1="26.2" y1="184.6" x2="464.6001" y2="184.6" gradientTransform="matrix(1 0 0 -1 0 358)">
					<stop  offset="0" style="stop-color:#FFD100"/>
					<stop  offset="0.2264" style="stop-color:#FF5500"/>
					<stop  offset="0.5199" style="stop-color:#00BF9E"/>
					<stop  offset="0.7811" style="stop-color:#0579FA"/>
					<stop  offset="1" style="stop-color:#FF3872"/>
				</linearGradient>
				<path class="st14" d="M407.7,230.1c-31.3,0-56.7-25.4-56.7-56.7c0-28.4-23.1-51.6-51.6-51.6c-28.4,0-51.6,23.1-51.6,51.6
					c0,31.3-25.4,56.7-56.7,56.7s-56.7-25.4-56.7-56.7c0-28.4-23.1-51.6-51.6-51.6S31.4,145,31.4,173.4c0,1.4-1.1,2.6-2.6,2.6
					c-1.4,0-2.6-1.1-2.6-2.6c0-31.3,25.4-56.7,56.7-56.7s56.7,25.4,56.7,56.7c0,28.4,23.1,51.6,51.6,51.6
					c28.4,0,51.6-23.1,51.6-51.6c0-31.3,25.4-56.7,56.7-56.7s56.7,25.4,56.7,56.7c0,28.4,23.1,51.6,51.6,51.6s51.6-23.1,51.6-51.6
					c0-1.4,1.1-2.6,2.6-2.6c1.4,0,2.6,1.1,2.6,2.6C464.4,204.7,439,230.1,407.7,230.1z"/>
			</g>
			<g>
				
					<linearGradient id="SVGID_2_" gradientUnits="userSpaceOnUse" x1="26.3224" y1="184.6" x2="464.4087" y2="184.6" gradientTransform="matrix(1 0 0 -1 0 358)">
					<stop  offset="0" style="stop-color:#FFD100"/>
					<stop  offset="0.2264" style="stop-color:#FF5500"/>
					<stop  offset="0.5199" style="stop-color:#00BF9E"/>
					<stop  offset="0.7811" style="stop-color:#0579FA"/>
					<stop  offset="1" style="stop-color:#FF3872"/>
				</linearGradient>
				<circle class="st15" cx="461.9" cy="173.4" r="9.6"/>
			</g>
			<g>
				
					<linearGradient id="SVGID_3_" gradientUnits="userSpaceOnUse" x1="26.3201" y1="184.6" x2="464.4094" y2="184.6" gradientTransform="matrix(1 0 0 -1 0 358)">
					<stop  offset="0" style="stop-color:#FFD100"/>
					<stop  offset="0.2264" style="stop-color:#FF5500"/>
					<stop  offset="0.5199" style="stop-color:#00BF9E"/>
					<stop  offset="0.7811" style="stop-color:#0579FA"/>
					<stop  offset="1" style="stop-color:#FF3872"/>
				</linearGradient>
				<path class="st16" d="M19.3,173.4c0,5.3,4.3,9.6,9.6,9.6s9.6-4.3,9.6-9.6s-4.3-9.6-9.6-9.6C23.6,163.8,19.3,168.1,19.3,173.4z"
					/>
			</g>
		</g>
		<g>
			<path class="st9" d="M78.4,207.4v-1.3c0-0.6-0.3-0.9-0.8-0.9h-0.3c-0.5,0-0.8,0.3-0.8,0.9v2.4c0,0.3,0.1,0.4,0.2,0.5
				s0.3,0.2,0.5,0.4l1.8,1c0.4,0.2,0.7,0.4,0.9,0.5c0.2,0.1,0.3,0.3,0.4,0.5s0.1,0.5,0.1,1v3.1c0,1.6-0.8,2.4-2.3,2.4h-1.2
				c-1.5,0-2.3-0.9-2.3-2.7v-0.7h1.9v0.8c0,0.6,0.3,0.8,0.9,0.8h0.3c0.5,0,0.8-0.3,0.8-0.8v-2.5c0-0.3-0.1-0.4-0.2-0.5
				s-0.3-0.2-0.5-0.4l-1.8-1c-0.4-0.2-0.7-0.4-0.9-0.5c-0.2-0.1-0.3-0.3-0.4-0.6c-0.1-0.2-0.1-0.5-0.1-0.9v-3c0-1.6,0.8-2.5,2.3-2.5
				H78c1.5,0,2.3,0.8,2.3,2.5v1.4h-1.9V207.4z"/>
			<path class="st9" d="M85.4,205.2v12.7h-1.9v-12.7h-1.8v-1.7h5.6v1.7H85.4z"/>
			<path class="st9" d="M88.7,217.9v-14.4h4.8v1.7h-2.9v4.4h2.5v1.7h-2.5v4.8h2.9v1.7h-4.8V217.9z"/>
			<path class="st9" d="M95.3,203.5h3.5c1.6,0,2.3,0.8,2.3,2.5v4.3c0,1.6-0.8,2.5-2.3,2.5h-1.6v5.2h-1.9V203.5z M97.3,211h1.2
				c0.5,0,0.8-0.3,0.8-0.8v-4c0-0.6-0.3-0.8-0.9-0.8h-1.1V211z"/>
		</g>
		<g>
			<path class="st10" d="M181.2,131.9v-1.3c0-0.6-0.3-0.9-0.8-0.9H180c-0.5,0-0.8,0.3-0.8,0.9v2.4c0,0.3,0.1,0.4,0.2,0.5
				c0.1,0.1,0.3,0.2,0.5,0.4l1.8,1c0.4,0.2,0.7,0.4,0.9,0.5s0.3,0.3,0.4,0.5c0.1,0.2,0.1,0.5,0.1,1v3.1c0,1.6-0.8,2.4-2.3,2.4h-1.2
				c-1.5,0-2.3-0.9-2.3-2.7V139h1.9v0.8c0,0.6,0.3,0.8,0.9,0.8h0.3c0.5,0,0.8-0.3,0.8-0.8v-2.5c0-0.3-0.1-0.4-0.2-0.5
				c-0.1-0.1-0.3-0.2-0.5-0.4l-1.8-1c-0.4-0.2-0.7-0.4-0.9-0.5s-0.3-0.3-0.4-0.6c-0.1-0.2-0.1-0.5-0.1-0.9v-3c0-1.6,0.8-2.5,2.3-2.5
				h1.2c1.5,0,2.3,0.8,2.3,2.5v1.4L181.2,131.9L181.2,131.9z"/>
			<path class="st10" d="M188.2,129.7v12.7h-1.9v-12.7h-1.8V128h5.6v1.7H188.2z"/>
			<path class="st10" d="M191.6,142.4V128h4.8v1.7h-2.9v4.4h2.5v1.7h-2.5v4.8h2.9v1.7h-4.8V142.4z"/>
			<path class="st10" d="M198.1,128h3.5c1.6,0,2.3,0.8,2.3,2.5v4.3c0,1.6-0.8,2.5-2.3,2.5H200v5.2h-1.9V128z M200.1,135.4h1.2
				c0.5,0,0.8-0.3,0.8-0.8v-4c0-0.6-0.3-0.8-0.9-0.8h-1.1V135.4z"/>
		</g>
		<g>
			<path class="st11" d="M287.5,207.4v-1.3c0-0.6-0.3-0.9-0.8-0.9h-0.3c-0.6,0-0.8,0.3-0.8,0.9v2.4c0,0.3,0.1,0.4,0.2,0.5
				s0.3,0.2,0.5,0.4l1.8,1c0.4,0.2,0.7,0.4,0.9,0.5c0.2,0.1,0.3,0.3,0.4,0.5s0.1,0.5,0.1,1v3.1c0,1.6-0.8,2.4-2.3,2.4H286
				c-1.5,0-2.3-0.9-2.3-2.7v-0.7h1.9v0.8c0,0.6,0.3,0.8,0.9,0.8h0.3c0.5,0,0.8-0.3,0.8-0.8v-2.5c0-0.3-0.1-0.4-0.2-0.5
				s-0.3-0.2-0.5-0.4l-1.8-1c-0.4-0.2-0.7-0.4-0.9-0.5c-0.2-0.1-0.3-0.3-0.4-0.6c-0.1-0.2-0.1-0.5-0.1-0.9v-3c0-1.6,0.8-2.5,2.3-2.5
				h1.2c1.5,0,2.3,0.8,2.3,2.5v1.4h-2V207.4z"/>
			<path class="st11" d="M294.5,205.2v12.7h-1.9v-12.7h-1.9v-1.7h5.6v1.7H294.5z"/>
			<path class="st11" d="M297.9,217.9v-14.4h4.8v1.7h-2.9v4.4h2.5v1.7h-2.5v4.8h2.9v1.7h-4.8V217.9z"/>
			<path class="st11" d="M304.4,203.5h3.5c1.6,0,2.3,0.8,2.3,2.5v4.3c0,1.6-0.8,2.5-2.3,2.5h-1.6v5.2h-1.9V203.5z M306.4,211h1.2
				c0.5,0,0.8-0.3,0.8-0.8v-4c0-0.6-0.3-0.8-0.9-0.8h-1.1V211z"/>
		</g>
		<g>
			<path class="st12" d="M396.8,131.9v-1.3c0-0.6-0.3-0.9-0.8-0.9h-0.3c-0.6,0-0.8,0.3-0.8,0.9v2.4c0,0.3,0.1,0.4,0.2,0.5
				s0.3,0.2,0.5,0.4l1.8,1c0.4,0.2,0.7,0.4,0.9,0.5c0.2,0.1,0.3,0.3,0.4,0.5s0.1,0.5,0.1,1v3.1c0,1.6-0.8,2.4-2.3,2.4h-1.2
				c-1.5,0-2.3-0.9-2.3-2.7V139h1.9v0.8c0,0.6,0.3,0.8,0.9,0.8h0.3c0.5,0,0.8-0.3,0.8-0.8v-2.5c0-0.3-0.1-0.4-0.2-0.5
				s-0.3-0.2-0.5-0.4l-1.8-1c-0.4-0.2-0.7-0.4-0.9-0.5c-0.2-0.1-0.3-0.3-0.4-0.6c-0.1-0.2-0.1-0.5-0.1-0.9v-3c0-1.6,0.8-2.5,2.3-2.5
				h1.2c1.5,0,2.3,0.8,2.3,2.5v1.4L396.8,131.9L396.8,131.9z"/>
			<path class="st12" d="M403.8,129.7v12.7h-1.9v-12.7H400V128h5.6v1.7H403.8z"/>
			<path class="st12" d="M407.2,142.4V128h4.8v1.7h-2.9v4.4h2.5v1.7h-2.5v4.8h2.9v1.7h-4.8V142.4z"/>
			<path class="st12" d="M413.8,128h3.5c1.6,0,2.3,0.8,2.3,2.5v4.3c0,1.6-0.8,2.5-2.3,2.5h-1.6v5.2h-1.9V128z M415.7,135.4h1.2
				c0.5,0,0.8-0.3,0.8-0.8v-4c0-0.6-0.3-0.8-0.9-0.8h-1.1V135.4z"/>
		</g>
	</g>
</g>
<path id="Shape" class="st8" d="M237.5,337.7c-2-0.7-3.8-1.9-5.1-3.5L83.7,158.4c-1.7-2-2.6-4.4-2.6-7h58.6L237.5,337.7z"/>
<path id="Shape_1_" class="st17" d="M239.7,338.2c-0.8-0.1-1.5-0.3-2.3-0.5l-97.8-186.2h61.9L239.7,338.2z"/>
<path id="Shape_2_" class="st8" d="M400.9,151.4c0,2.6-0.9,5-2.6,7L249.7,334.2c-1.4,1.6-3.1,2.8-5.1,3.5l97.8-186.2h58.5V151.4z"/>
<path id="Shape_3_" class="st17" d="M324.9,58.7l-14.5,30.2l-30,62.5L241,57.7h79.1C321.8,57.7,323.4,58,324.9,58.7z"/>
<path id="Shape_4_" class="st17" d="M241,57.7l-39.4,93.8l-30-62.5l-14.5-30.2c1.5-0.7,3.1-1,4.8-1L241,57.7z"/>
<path id="Shape_5_" class="st8" d="M280.4,151.4h-78.9L241,57.7L280.4,151.4z"/>
<path id="Shape_6_" class="st8" d="M280.4,151.4l-38.1,186.7c-0.9,0.1-1.7,0.1-2.6,0l-38.2-186.7L280.4,151.4L280.4,151.4z"/>
<path id="Shape_7_" class="st8" d="M398.3,144.4l-69.5-82.7c-1.1-1.3-2.4-2.3-3.9-3l-14.5,30.2l-30,62.5h120.5
	C400.9,148.8,400,146.3,398.3,144.4z"/>
<path id="Shape_8_" class="st8" d="M157.1,58.7c-1.5,0.7-2.8,1.7-3.9,3l-69.5,82.7c-1.7,2-2.6,4.5-2.6,7.1h120.5l-30-62.5
	L157.1,58.7z"/>
<path id="Shape_9_" class="st17" d="M342.3,151.4l-97.8,186.2c-0.7,0.2-1.5,0.4-2.2,0.5l38.1-186.7L342.3,151.4L342.3,151.4z"/>
<path id="Shape_10_" class="st6" d="M83.7,158.4l148.7,175.8c3,3.5,7.8,4.9,12.2,3.5c1.3-0.5,1.3,0.2,4.6-3.3
	c-0.1-0.1-0.2-0.1-0.2-0.2L100.2,158.4c-3.5-4.1-3.5-10,0-14.1l69.5-82.7c2.1-2.6,5.3-4,8.7-4h-16.5c-3.3,0-6.5,1.5-8.7,4
	l-69.5,82.7C80.2,148.4,80.2,154.4,83.7,158.4L83.7,158.4z"/>
<path id="Rectangle-path" class="st6" d="M79.4,140.8l28.4-33.8l8.4,7.1l-28.4,33.8L79.4,140.8z"/>
<g>
	<path id="Shape_11_" class="st4" d="M102.1,131.1c2-2.3,1.7-5.8-0.7-7.8c-2.3-2-5.8-1.7-7.8,0.7c-2,2.3-1.7,5.8,0.7,7.8
		c1.1,0.9,2.6,1.4,4,1.3S101.1,132.2,102.1,131.1L102.1,131.1z"/>
	<path id="Shape_12_" class="st4" d="M87.2,140.2c-1.1-0.9-2.6-1.4-4-1.3c-1.5,0.1-2.8,0.8-3.8,2c-5.2,6.1-5.1,15.1,0.1,21.2
		l148.7,175.8c3.2,3.8,7.9,5.9,12.9,5.9s9.7-2.2,12.9-5.9L402.5,162c5.2-6.1,5.2-15,0-21.2L333,58.1c-3.2-3.8-7.9-6-12.9-6H161.9
		c-5,0-9.7,2.2-12.9,6L107.9,107c-1.9,2.3-1.5,5.7,0.8,7.7c2.3,1.9,5.7,1.7,7.7-0.6l39-46.4l37.5,78.2h-44.2l12.8-25.1
		c0.9-1.8,0.8-3.9-0.3-5.5c-1.1-1.7-2.9-2.6-4.9-2.5s-3.7,1.2-4.6,3l-15.4,30.1H88.9C89.5,143.8,88.9,141.6,87.2,140.2L87.2,140.2z
		 M89.6,156.9h46.7L191,261.2c0.9,1.8,2.7,3,4.7,3.1s3.9-0.9,4.9-2.6c1.1-1.7,1.1-3.8,0.1-5.6l-52-99.2H197l34.2,167.5L89.6,156.9z
		 M245.5,330.7c-0.4,0.4-0.9,0.8-1.5,1.1L208.3,157h65.3l-26.8,131.3c-0.4,2,0.2,4,1.7,5.3s3.6,1.8,5.5,1.1c1.9-0.6,3.3-2.3,3.6-4.2
		L284.8,157h48.3l-52,99.2c-1,1.7-0.9,3.9,0.1,5.6c1.1,1.7,2.9,2.7,4.9,2.6s3.8-1.3,4.7-3.1L345.6,157h46.7L245.5,330.7z
		 M392.4,145.9H289.2l37.5-78.2L392.4,145.9z M280.7,138l-31.4-74.8h67.4L280.7,138z M232.7,63.2L201.3,138l-36-74.8
		C165.3,63.2,232.7,63.2,232.7,63.2z M241,71.9l31.1,74h-62.2L241,71.9z"/>
	<path id="Shape_13_" class="st4" d="M97.6,338.9c0,3,2.5,5.5,5.5,5.5h11c3,0,5.5-2.5,5.5-5.5s-2.5-5.5-5.5-5.5h-11
		C100.1,333.4,97.6,335.9,97.6,338.9z"/>
	<path id="Shape_14_" class="st4" d="M136.2,344.4h49.6c3,0,5.5-2.5,5.5-5.5s-2.5-5.5-5.5-5.5h-49.6c-3,0-5.5,2.5-5.5,5.5
		S133.2,344.4,136.2,344.4z"/>
	<path id="Shape_15_" class="st4" d="M367.8,333.4c-3,0-5.5,2.5-5.5,5.5s2.5,5.5,5.5,5.5h11c3,0,5.5-2.5,5.5-5.5s-2.5-5.5-5.5-5.5
		H367.8z"/>
	<path id="Shape_16_" class="st4" d="M296.1,333.4c-3,0-5.5,2.5-5.5,5.5s2.5,5.5,5.5,5.5h49.6c3,0,5.5-2.5,5.5-5.5s-2.5-5.5-5.5-5.5
		H296.1z"/>
	<path id="Shape_17_" class="st4" d="M373.4,13.6c-3,0-5.5,2.5-5.5,5.5v11c0,3,2.5,5.5,5.5,5.5s5.5-2.5,5.5-5.5v-11
		C378.9,16,376.4,13.6,373.4,13.6z"/>
	<path id="Shape_18_" class="st4" d="M373.4,57.7c-3,0-5.5,2.5-5.5,5.5v11c0,3,2.5,5.5,5.5,5.5s5.5-2.5,5.5-5.5v-11
		C378.9,60.1,376.4,57.7,373.4,57.7z"/>
	<path id="Shape_19_" class="st4" d="M356.8,41.1h-11c-3,0-5.5,2.5-5.5,5.5s2.5,5.5,5.5,5.5h11c3,0,5.5-2.5,5.5-5.5
		S359.9,41.1,356.8,41.1z"/>
	<path id="Shape_20_" class="st4" d="M400.9,41.1h-11c-3,0-5.5,2.5-5.5,5.5s2.5,5.5,5.5,5.5h11c3,0,5.5-2.5,5.5-5.5
		S404,41.1,400.9,41.1z"/>
	<path id="Shape_21_" class="st4" d="M108.6,245.2c-3,0-5.5,2.5-5.5,5.5v11c0,3,2.5,5.5,5.5,5.5s5.5-2.5,5.5-5.5v-11
		C114.2,247.6,111.7,245.2,108.6,245.2z"/>
	<path id="Shape_22_" class="st4" d="M108.6,289.3c-3,0-5.5,2.5-5.5,5.5v11c0,3,2.5,5.5,5.5,5.5s5.5-2.5,5.5-5.5v-11
		C114.2,291.8,111.7,289.3,108.6,289.3z"/>
	<path id="Shape_23_" class="st4" d="M92.1,272.8h-11c-3,0-5.5,2.5-5.5,5.5s2.5,5.5,5.5,5.5h11c3,0,5.5-2.5,5.5-5.5
		C97.6,275.2,95.1,272.8,92.1,272.8z"/>
	<path id="Shape_24_" class="st4" d="M136.2,272.8h-11c-3,0-5.5,2.5-5.5,5.5s2.5,5.5,5.5,5.5h11c3,0,5.5-2.5,5.5-5.5
		C141.7,275.2,139.3,272.8,136.2,272.8z"/>
</g>
</svg>
