<?xml version="1.0" encoding="utf-8"?>
<!-- Generator: Adobe Illustrator 25.0.1, SVG Export Plug-In . SVG Version: 6.00 Build 0)  -->
<svg version="1.1" xmlns="http://www.w3.org/2000/svg" xmlns:xlink="http://www.w3.org/1999/xlink" x="0px" y="0px"
	 viewBox="0 0 500 500" style="enable-background:new 0 0 500 500;" xml:space="preserve">
<style type="text/css">
	.st0{fill:#E0E0E0;}
	.st1{clip-path:url(#SVGID_2_);}
	.st2{fill:#DB7F7B;}
	.st3{fill:#1B2258;}
	.st4{fill:#F2F5F8;}
	.st5{fill:#E3A81E;}
	.st6{fill:#70A1BD;}
	.st7{fill:none;stroke:#2D2D2D;stroke-linecap:round;stroke-miterlimit:10;}
	.st8{fill:#38668A;}
	.st9{fill:#FFFFFF;}
	.st10{fill:#C13F4F;}
	.st11{fill:none;stroke:#1B2258;stroke-miterlimit:10;}
	.st12{fill:#B0E8E1;}
	.st13{opacity:0.44;fill:#FFFFFF;}
	.st14{opacity:0.42;fill:none;stroke:#FFFFFF;stroke-linecap:round;stroke-miterlimit:10;}
	.st15{fill:#6BA7B3;}
	.st16{fill:none;stroke:#171616;stroke-width:0.5;stroke-linecap:round;stroke-miterlimit:10;}
	.st17{clip-path:url(#SVGID_4_);fill:#1B2258;}
	.st18{fill:none;stroke:#FFFFFF;stroke-width:2;stroke-miterlimit:10;}
	.st19{fill:#A2C3BF;}
	.st20{fill:#FF7575;}
	.st21{fill:#F2E4C2;}
	.st22{fill:none;stroke:#222540;stroke-width:0.5;stroke-miterlimit:10;}
	.st23{fill:none;stroke:#222540;stroke-miterlimit:10;}
</style>
<g id="BACKGROUND">
	<path class="st0" d="M474.23,247.95c-1.16,152.75-102.2,227.39-228.26,228.26C78.12,477.37,14.97,373.98,17.71,247.95
		C21.2,88.22,119.91,19.69,245.97,19.69C398.73,19.69,475.19,121.89,474.23,247.95z"/>
</g>
<g id="OBJECTS">
	<g>
		<defs>
			<rect id="SVGID_1_" width="500" height="500"/>
		</defs>
		<clipPath id="SVGID_2_">
			<use xlink:href="#SVGID_1_"  style="overflow:visible;"/>
		</clipPath>
		<g class="st1">
			<g>
				<path class="st2" d="M112.61,368.82c-0.13-0.08-0.26-0.15-0.39-0.23c-1.38-0.77-3-1.03-4.58-1.18
					c-8.61-0.84-15.77,2.39-19.38,10.33c-2.13,4.69-3.29,9.75-4.38,14.77c-1.2,5.54-2.31,11.42-0.42,16.77
					c2.02,5.7,7.34,9.89,13.22,11.49c11.27,3.06,29.77-3.99,27.88-18.09C123.29,393.14,122.28,374.69,112.61,368.82z"/>
				<path class="st2" d="M182.04,298.91c-12.65,8.8-21.87,21.58-32.09,32.99c-5.81,6.49,4.06,15.41,9.92,8.86
					c10.21-11.41,17.61-20.25,28.78-30.83C195.04,303.88,193.53,290.92,182.04,298.91z"/>
				<path class="st2" d="M188.62,349.24c-4.62,3.29-8.14,7.76-12.27,11.93c-6.07,6.13-11.98,12.42-17.73,18.84
					c-5.43,6.06,3.79,14.4,9.27,8.28c9.56-10.68,20.64-20.25,29.29-31.63c1.78-2.34,3.66-5.13,2.91-7.97
					c-0.46-1.76-1.99-3.19-3.79-3.55C193.06,344.49,190.94,347.58,188.62,349.24z"/>
				<path class="st2" d="M185.92,319.25c-1.11,0.78-2.16,1.73-3.15,2.68c-4.34,4.18-8.61,8.42-12.8,12.75
					c-3.55,3.66-10.42,7.9-6.43,13.73c1.7,2.48,5.16,3.62,8.02,2.65c1.72-0.58,3.13-1.8,4.47-3c7.36-6.59,15.54-14.17,19.6-23.3
					c0.62-1.4,1.15-3.02,0.49-4.4c-0.32-0.67-0.89-1.19-1.5-1.6C191.39,316.59,188.49,317.45,185.92,319.25z"/>
				<path class="st2" d="M113.2,356.42c-3.23,3.38-1.46,8.67,2.08,10.62c8.84-12.48,19.58-23.19,30.75-33.53
					c-9.76,7.35-19.82,14.34-30.15,20.94c19.61-18.87,37.14-35.2,58.43-52.19c2.87-2.29,7.19-7.53,5.13-10.92
					c-1.71-2.81-6.48-4.46-9.33-2.19c-22.42,17.89-44.01,36.73-64.65,56.61C99.87,351.16,107.13,359.09,113.2,356.42z"/>
				<path class="st2" d="M57.85,441.83c1.53-2.06,3.07-4.1,4.64-6.13c9.16-11.87,19.26-23.06,28.49-34.79
					c6.74-8.56,13.8-19.85,26.47-18.26c3.59,0.45,6.91,2.1,10.06,3.87c5.31,2.99,10.46,6.46,14.38,11.09
					c14.13,16.68-2.56,33.7-10.32,48.98c-9.65,19.02-17.64,38.89-23.84,59.31c-3.19,10.53-5.95,21.3-11.12,31.01
					c-5.47,10.27-12.56,15.74-22.36,21.26c-7.42,4.18-15.52,11.32-24.23,12.51c-12.41,1.69-24.32-7.83-28.85-19.5
					c-4.53-11.67-3.12-24.82-0.08-36.96C27.74,487.62,41.64,463.71,57.85,441.83z"/>
				<g>
					<path class="st3" d="M143.08,435.79l64.45-27.35c3.65-1.55,5.34-5.73,3.78-9.35l-64.52-148.77c-1.57-3.61-5.8-5.28-9.45-3.73
						l-64.45,27.35c-3.65,1.55-5.34,5.73-3.78,9.35l64.52,148.77C135.19,435.65,139.45,437.33,143.08,435.79z"/>
					<path class="st4" d="M141.72,433.43l65.03-27.6c2.14-0.91,3.14-3.37,2.22-5.49l-64.91-149.68c-0.92-2.12-3.4-3.1-5.55-2.19
						l-65.03,27.6c-2.14,0.91-3.14,3.37-2.22,5.49l64.91,149.68C137.08,433.35,139.58,434.34,141.72,433.43z"/>
					<path class="st3" d="M124.3,252.67l1.02,3.25c0.67,2.13-0.62,4.52-2.98,5.52l-28.24,11.98c-2.36,1-5,0.28-6.1-1.67l-1.68-2.98
						L124.3,252.67z"/>
					<polygon class="st5" points="124.59,404.54 197.38,373.65 157.62,281.95 84.83,312.84 					"/>
					<polygon class="st6" points="130.52,411.13 197.95,382.52 196.79,379.85 129.36,408.46 					"/>
					<polygon class="st5" points="133.13,417.14 200.55,388.53 199.39,385.86 131.97,414.47 					"/>
				</g>
				<path class="st2" d="M87.01,382.81c1.93-7,2.18-14.12,1.32-21.35c-0.9-7.62-2.1-14.65-5.2-21.78c-1.65-3.81,0.97-7.03,5.16-6.49
					c3.85,0.49,5.73,3.79,8.05,6.49c1.79,2.09,3.6,4.2,4.88,6.63c2.5,4.74,2.75,10.15,3.04,15.38c0.28,4.95,1.41,9.18,2.32,13.97
					c0.72,3.77,1.44,7.58,1.18,11.41c-0.25,3.77-1.48,7.46-3.52,10.65c-1.62,2.52-3.98,4.85-6.97,5.25
					c-2.63,0.35-5.31-0.92-7.1-2.86c-3.69-4-5.31-10.47-3.7-15.53C86.67,383.99,86.85,383.4,87.01,382.81z"/>
				<path class="st7" d="M106.9,368.68c10.01,13.27,9.71,31.95,2.27,46.78"/>
				<path class="st7" d="M123.6,408.09c-2.51-0.52-4.9,1.27-6.59,3.18"/>
			</g>
			<g>
				<ellipse class="st6" cx="143.26" cy="342.64" rx="26.46" ry="26.18"/>
				<path class="st8" d="M143.26,342.64l8.68,24.73c-2.79,0.96-5.73,1.45-8.68,1.45c-14.52,0-26.46-11.82-26.46-26.18
					s11.95-26.18,26.46-26.18c14.52,0,26.46,11.82,26.46,26.18H143.26z"/>
				<path class="st9" d="M143.26,342.64l-25.77,15.69c-2.93-4.72-4.49-10.15-4.49-15.69c0-16.42,13.66-29.93,30.26-29.93
					s30.26,13.51,30.26,29.93H143.26z"/>
				<path class="st10" d="M143.26,342.64l-26.37,2.14c-0.55-6.66,1.49-13.29,5.72-18.5c4.22-5.22,10.31-8.64,17-9.57L143.26,342.64z
					"/>
			</g>
			<path class="st11" d="M99.84,293.56c1.92,1.1,4.7,0.26,5.66-1.72c0.57-1.18,0.62-2.71,1.68-3.49c1.94-1.43,4.69,1.19,7.01,0.5
				c1.39-0.41,2.13-1.86,2.84-3.12c0.71-1.26,1.81-2.6,3.26-2.5c1.12,0.08,2.02,1.02,3.13,1.19c1.02,0.16,2.05-0.38,2.72-1.15
				c0.67-0.77,1.04-1.75,1.35-2.73c0.28-0.88,0.7-1.94,1.62-2.08c0.67-0.1,1.27,0.34,1.86,0.67c0.82,0.47,1.79,0.75,2.72,0.59
				c0.93-0.16,1.81-0.82,2.04-1.72"/>
		</g>
		<g class="st1">
			<path class="st2" d="M521,355.44c4.88,1.27,9.8,2.27,14.82,2.78c14.19,1.44,29.8-1.83,39.25-12.52
				c6.3-7.13,9.11-16.62,11.43-25.85c0.81-3.25,1.59-6.69,0.66-9.91c-1.61-5.59-7.6-8.52-13.06-10.51
				c-24.25-8.85-50.02-12.45-74.44-20.74c-11.99-4.07-22.94-9.34-33.57-16.2c-12.18-7.86-21.16-4.48-35.04,2.45
				c-6.72,3.36-14.56,7.25-19.13,13.44c-9.55,12.94,7.84,19.91,14.98,27.96c9.66,10.9,14.6,21.42,28.55,28.26
				c12.32,6.04,25.93,8.79,39.08,12.7C503.36,349.93,512.1,353.12,521,355.44z"/>
			<path class="st2" d="M410.5,209.69c0.45-2.32,1.76-4.09,2.95-6.05c1.44-2.37,2.78-4.81,4.17-7.21
				c-0.03,0.05,9.61,7.33,10.36,7.93c3.83,3.09,7.21,6.74,10.02,10.78c3.94,5.64,6.81,12.05,8.32,18.77
				c1.67,7.45,1.9,11.64-3.42,17.49c-3.8,4.19-8.89,4.21-14.37,4.15c-7.31-0.09-13.08-2.54-14.57-9.91
				c-1.98-9.77-2.66-19.66-3.66-29.55C410.08,214.03,410.09,211.77,410.5,209.69z"/>
			<path class="st2" d="M337.63,218.64c-0.14-0.25-0.25-0.51-0.35-0.78c-1.26-3.46,1.29-7.77,4.05-9.81
				c4.5-3.33,12.01-5.97,17.59-4.22c1.24,0.39,2.49,0.96,3.23,2.03c5.36,7.8-12.01,15.42-17.34,15.96
				c-1.04,0.11-2.11,0.14-3.13-0.09C339.97,221.34,338.47,220.17,337.63,218.64z"/>
			<path class="st2" d="M339.2,237.52c-0.55-1.04-0.81-2.36-0.64-3.98c0.55-5.2,6.58-7.54,10.63-9.52c2.34-1.14,4.63-2.61,7.22-2.79
				c4.11-0.29,7.15,2.34,7.55,6.42c0.33,3.39-0.96,6.06-4.12,7.32c-3.69,1.47-7.48,2.91-11.17,4.54
				C344.99,241.13,340.82,240.55,339.2,237.52z"/>
			<path class="st2" d="M361.64,281.61c-4.62,1.03-7.97-4.01-6.6-8.16c0.67-2.01,2.24-3.57,3.72-5.09
				c6.43-6.56,11.31-15.95,19.1-20.81c7.23-4.51,16.3-5.34,24.59-4.16c0.9,0.13,1.83,0.3,2.58,0.82c0.9,0.63,1.41,1.67,1.85,2.67
				c1.12,2.55,2.09,5.16,3.06,7.77c2.98,8.05,5.44,15.33,13.1,20.29c1.86,1.2,3.93,2.1,5.63,3.52c1.7,1.42,3.03,3.56,2.7,5.75
				c-0.29,1.92-1.85,3.49-3.67,4.19c-1.81,0.7-3.84,0.65-5.75,0.29c-6.33-1.18-11.67-5.5-15.8-10.44
				c-3.22-3.84-7.27-13.93-11.73-15.94c-3.56-1.61-9.64,1.98-13.16,2.76c-0.64,0.14-1.29,0.29-1.82,0.67c-0.54,0.4-0.89,1-1.24,1.58
				C375.05,272.56,367.88,280.22,361.64,281.61z"/>
			<path class="st2" d="M416.57,218.43c-3.22-6.72-7.07-13.29-9.25-20.45c-2-6.6-0.93-13.45-2.67-19.98
				c-1.43-5.37-3.31-10.71-5.83-15.67c-1.65-3.25-8.82-9.77-9.21-12.77c-1.99-15.63,22.44,3.32,25.5,5.43
				c8.93,6.15,11.6,9.75,15.29,19.81c3.69,10.08,7.81,20.05,13.34,29.28c2.28,3.8,4.8,7.49,6.42,11.61
				c2.06,5.23,8.08,34.98-4.67,32.01c-7.33-1.71-10.48-8.35-15.46-13.09c-4.99-4.75-9.92-8.83-13.02-15.26
				C416.87,219.06,416.72,218.75,416.57,218.43z"/>
			<path class="st2" d="M460.27,294.25c5.47-5.21,8.2-11.66,8.04-19.26c-0.12-5.78-1.66-11.42-3.19-16.99
				c-1.52-5.53-3.04-11.07-4.55-16.6c-1.33-4.83-3.05-8.74-5.09-13.24c-1.91-4.22-4.12-12.34-8.53-14.39
				c-7.23-3.36-16.92,6.28-21.08,11.08c-3.4,3.92-6.2,9.65-10.89,12.22c-4.78,2.61-11.92,2.23-16.09,5.67
				c-10.97,9.04,4.63,34.89,9.1,44.57c1.43,3.09,2.94,6.2,5.23,8.72c2.81,3.1,6.59,5.11,10.3,7.05c5.83,3.07,12.85,7,19.36,4.5
				C449.51,305.03,455.22,299.06,460.27,294.25z"/>
			<g>
				<path class="st3" d="M357.7,268.54l56.07-2.73c5.67-0.28,10.05-5.1,9.77-10.77l-6.86-140.85c-0.28-5.67-5.1-10.05-10.77-9.77
					l-56.07,2.73c-5.67,0.28-10.05,5.1-9.77,10.77l6.86,140.85C347.21,264.42,352.06,268.81,357.7,268.54z"/>
				<path class="st4" d="M357.42,266.07l56.4-2.75c4.25-0.21,7.54-3.82,7.33-8.08l-6.89-141.51c-0.21-4.25-3.82-7.54-8.08-7.33
					l-56.4,2.75c-4.25,0.21-7.54,3.82-7.33,8.08l6.89,141.51C349.55,262.98,353.19,266.28,357.42,266.07z"/>
				<path class="st3" d="M396.63,105.33l-0.17,3.12c-0.11,2.04-1.98,3.69-4.3,3.8l-27.86,1.36c-2.33,0.11-4.34-1.35-4.65-3.37
					l-0.47-3.09L396.63,105.33z"/>
				
					<rect x="345.97" y="134.01" transform="matrix(-0.9988 0.0486 -0.0486 -0.9988 772.541 358.2672)" class="st12" width="71.89" height="109.04"/>
				<path class="st2" d="M389.74,255.5c0.14,2.78-2.01,5.14-4.79,5.28c-2.78,0.14-5.14-2.01-5.28-4.79
					c-0.14-2.78,2.01-5.14,4.79-5.28C387.24,250.57,389.6,252.72,389.74,255.5z"/>
				<g>
					<g>
						<g>
							<path class="st8" d="M386.16,156.64c0.04,2.74-2.15,4.98-4.89,5.02c-2.74,0.04-4.98-2.15-5.02-4.89
								c0-0.17,0.03-0.34,0.04-0.5c-1.93,0.35-3.8,0.88-5.58,1.58c0.11,0.15,0.23,0.28,0.33,0.44c1.4,2.35,0.63,5.39-1.72,6.79
								c-2.35,1.4-5.39,0.63-6.79-1.72c-0.09-0.16-0.15-0.32-0.23-0.49c-1.49,1.26-2.85,2.65-4.06,4.17
								c0.18,0.07,0.37,0.14,0.54,0.24c2.39,1.34,3.24,4.36,1.9,6.74c-1.34,2.39-4.36,3.24-6.74,1.9c-0.18-0.1-0.33-0.23-0.49-0.34
								c-0.66,1.82-1.15,3.72-1.44,5.69c0.21-0.03,0.43-0.07,0.65-0.07c2.74-0.04,4.98,2.15,5.02,4.89
								c0.04,2.74-2.15,4.98-4.89,5.02c-0.23,0-0.45-0.03-0.67-0.06c0.35,1.97,0.89,3.88,1.6,5.7c0.19-0.15,0.37-0.31,0.59-0.44
								c2.35-1.4,5.39-0.63,6.79,1.72c1.4,2.35,0.63,5.39-1.72,6.79c-0.22,0.13-0.44,0.22-0.67,0.31c1.28,1.52,2.71,2.92,4.27,4.16
								c0.09-0.24,0.18-0.49,0.31-0.72c1.34-2.39,4.36-3.24,6.74-1.9c2.39,1.34,3.24,4.36,1.9,6.74c-0.13,0.23-0.29,0.44-0.45,0.64
								c1.86,0.67,3.8,1.16,5.81,1.46c-0.05-0.27-0.09-0.53-0.09-0.81c-0.04-2.74,2.15-4.98,4.89-5.02
								c2.74-0.04,4.98,2.15,5.02,4.89c0,0.27-0.03,0.53-0.07,0.78c2-0.36,3.92-0.92,5.76-1.65c-0.17-0.2-0.34-0.41-0.48-0.65
								c-1.4-2.35-0.63-5.39,1.72-6.79c2.35-1.4,5.39-0.63,6.79,1.72c0.13,0.22,0.23,0.45,0.32,0.68c1.52-1.29,2.9-2.73,4.13-4.3
								c-0.24-0.09-0.47-0.18-0.7-0.3c-2.39-1.34-3.24-4.36-1.9-6.74c1.34-2.39,4.36-3.24,6.74-1.9c0.21,0.12,0.39,0.26,0.58,0.4
								c0.65-1.84,1.13-3.77,1.41-5.75c-0.23,0.04-0.46,0.08-0.7,0.08c-2.74,0.04-4.98-2.15-5.02-4.89
								c-0.04-2.74,2.15-4.98,4.89-5.02c0.21,0,0.41,0.03,0.62,0.05c-0.36-1.95-0.91-3.84-1.63-5.63c-0.16,0.13-0.32,0.26-0.51,0.37
								c-2.35,1.4-5.39,0.63-6.79-1.72c-1.4-2.35-0.63-5.39,1.72-6.79c0.16-0.1,0.33-0.16,0.5-0.23c-1.27-1.48-2.67-2.83-4.2-4.03
								c-0.07,0.17-0.13,0.35-0.23,0.52c-1.34,2.39-4.36,3.24-6.74,1.9c-2.39-1.34-3.24-4.36-1.9-6.74c0.09-0.15,0.2-0.28,0.3-0.43
								c-1.8-0.64-3.69-1.11-5.63-1.4C386.13,156.28,386.16,156.45,386.16,156.64z M401.9,185.54c0.15,11.15-8.77,20.31-19.92,20.46
								c-11.15,0.15-20.31-8.77-20.46-19.92c-0.15-11.15,8.77-20.31,19.92-20.46C392.59,165.47,401.75,174.39,401.9,185.54z"/>
						</g>
						<path class="st3" d="M403.93,180.17c-3.11-12.27-15.61-19.72-27.88-16.61c-12.27,3.11-19.72,15.61-16.61,27.88
							c3.11,12.27,15.61,19.72,27.88,16.62C399.59,204.94,407.04,192.44,403.93,180.17z M385.47,200.75
							c-8.24,2.09-16.64-2.92-18.73-11.16c-2.09-8.24,2.92-16.64,11.16-18.73c8.24-2.09,16.64,2.92,18.73,11.16
							C398.72,190.26,393.71,198.66,385.47,200.75z"/>
					</g>
				</g>
			</g>
			<path class="st2" d="M410.83,237.23c-0.38-1.1-1.41-5.43-2.18-6.18c-1.71-1.67-6.42-1.77-8.88-2.55
				c-6.27-1.97-12.18-5.06-17.35-9.12c-2.27-1.78-4.5-3.9-5.28-6.68c-0.78-2.78,0.5-6.31,3.29-7.05c1.19-0.32,2.46-0.1,3.67,0.11
				c9.57,1.62,18.92,1.02,28.48,1.75c7,0.53,12.41,8.55,16.32,14.29c2.18,3.2,2.72,7.11,4,10.68c3.16,8.81,4.27,17.4,7.76,26.18
				c1.77,4.44,3.11,9.28,2.14,13.96c-0.97,4.68-4.89,9.03-9.67,9.05c-2.55,0.01-4.98-1.18-7.01-2.73
				c-7.43-5.7-9.92-15.62-11.93-24.77C412.91,248.29,412.53,242.21,410.83,237.23z"/>
			<path class="st13" d="M367.89,110.2c0.04,0.81-0.58,1.49-1.39,1.53s-1.49-0.58-1.53-1.39s0.58-1.49,1.39-1.53
				S367.85,109.39,367.89,110.2z"/>
			<line class="st14" x1="371.97" y1="110.29" x2="388.72" y2="109.48"/>
			<path class="st7" d="M419.87,209.44c2.15,2.43,14.57,17.53,16.64,23.08"/>
			<path class="st7" d="M416.29,264.72c2.44,4.49,3.37,9.32,3.63,14.39c0.21,4.03,0.12,8.5,2.81,11.52"/>
			<path class="st7" d="M353.91,125.29c0.84,2.33,4.18,3.29,6.13,1.75c1.24-0.98,2.08-2.79,3.66-2.83c1.87-0.05,2.81,2.43,4.6,2.98
				c2.85,0.87,5.1-3.54,8.05-3.14c1.93,0.27,3.12,2.51,5.04,2.81c2.71,0.42,4.61-3.16,7.35-3.26c2.08-0.07,3.62,1.85,5.52,2.7
				c3,1.33,6.97-0.64,7.72-3.84"/>
		</g>
	</g>
	<g>
		<rect x="238.64" y="296.51" class="st15" width="98.72" height="59.23"/>
		<polyline class="st16" points="336.38,299.01 287.02,328.62 237.66,299.01 		"/>
	</g>
	<g>
		<path class="st3" d="M44.59,124.43L44.59,124.43c-4.12,0.8-8.12-1.89-8.92-6.01l-0.89-4.59c-0.8-4.12,1.89-8.12,6.01-8.92l0,0
			c4.12-0.8,8.12,1.89,8.92,6.01l0.89,4.59C51.4,119.64,48.71,123.63,44.59,124.43z"/>
		<path class="st10" d="M74.75,164.19c0.5-0.91,0.3-2.02-0.48-2.71c-1.56-1.38-2.5-3.35-2.29-5.79c0.08-0.94,0.39-1.9,0.88-2.78
			c0.33-0.61,0.19-1.37-0.33-1.83c-2.69-2.38-2.98-6.55-1.34-9.49c0.45-0.82,0.65-1.76,0.42-2.67c-0.72-2.83-1.49-5.54-2.29-8.07
			c-1.34-4.25-5.64-6.52-7.83-10.04c-2.25-3.61-3.4-7.99-7.46-9.02c-1.83-0.46-3.75,0.07-5.24,1.23c-1.37,1.06-3.43,2.25-3.89,4.65
			c-0.34,1.77,0.06,3.88,0.93,5.5c14.54,27.28,14.94,44.3,15.29,53.65c0.08,2.24-0.17,6.42-0.71,9.85c-0.27,1.72,0.74,3.56,2.1,3.73
			c4.78,0.59,10.51-2.35,10.88-5.68c0.95-3.66,1.53-7.44,1.83-11.27c0.05-0.62-0.13-1.24-0.48-1.75
			C73.29,169.56,73.44,166.58,74.75,164.19z"/>
		<path class="st15" d="M163.26,141.86c-35.03-6.96-66.41-9.7-101.95-10.11l-7.56-37.8c32.02-12.9,60.17-27.61,90.88-47.74
			L163.26,141.86z"/>
		<g>
			<defs>
				<path id="SVGID_5_" d="M163.26,141.86c-35.03-6.96-66.41-9.7-101.95-10.11l-7.56-37.8c32.02-12.9,60.17-27.61,90.88-47.74
					L163.26,141.86z"/>
			</defs>
			<clipPath id="SVGID_3_">
				<use xlink:href="#SVGID_5_"  style="overflow:visible;"/>
			</clipPath>
		</g>
		<path class="st8" d="M140.38,96.98c5.15,26.41,15.5,46.62,23.12,45.13c7.62-1.49,9.63-24.1,4.48-50.51
			c-5.15-26.41-15.5-46.62-23.12-45.13C137.24,47.95,135.23,70.56,140.38,96.98z"/>
		<path class="st11" d="M130.38,55.6c-4.09,6.5-4.59,23.86-0.76,43.53c3.71,19.03,10.37,34.53,16.44,39.58"/>
		<path class="st8" d="M67.54,132.09l-1.43,0.28c-11.29,2.2-22.23-5.17-24.43-16.46l0,0c-2.2-11.29,5.17-22.23,16.46-24.43
			l1.43-0.28L67.54,132.09z"/>
		<g>
			<defs>
				<path id="SVGID_7_" d="M140.38,96.98c5.15,26.41,15.5,46.62,23.12,45.13c7.62-1.49,9.63-24.1,4.48-50.51
					c-5.15-26.41-15.5-46.62-23.12-45.13C137.24,47.95,135.23,70.56,140.38,96.98z"/>
			</defs>
			<clipPath id="SVGID_4_">
				<use xlink:href="#SVGID_7_"  style="overflow:visible;"/>
			</clipPath>
			<path class="st17" d="M157.22,93.78c1.58,8.09-3.39,15.86-11.09,17.36c-7.7,1.5-15.22-3.84-16.79-11.92
				c-1.58-8.09,3.39-15.86,11.09-17.36C148.12,80.36,155.64,85.7,157.22,93.78z"/>
		</g>
		<path class="st18" d="M140.38,96.98c5.15,26.41,15.5,46.62,23.12,45.13c7.62-1.49,9.63-24.1,4.48-50.51
			c-5.15-26.41-15.5-46.62-23.12-45.13C137.24,47.95,135.23,70.56,140.38,96.98z"/>
	</g>
	<g>
		<rect x="220.25" y="314.89" class="st5" width="98.72" height="59.23"/>
		<polyline class="st16" points="318,317.39 268.64,347 219.28,317.39 		"/>
	</g>
	<g>
		<g>
			
				<rect x="40.92" y="214.45" transform="matrix(0.9285 -0.3714 0.3714 0.9285 -85.8929 33.786)" class="st19" width="7.68" height="50.81"/>
			
				<rect x="58.36" y="216.06" transform="matrix(0.9285 -0.3714 0.3714 0.9285 -83.7072 40.0855)" class="st6" width="7.68" height="42.54"/>
			
				<rect x="75.15" y="214.26" transform="matrix(0.9285 -0.3714 0.3714 0.9285 -80.9569 46.0224)" class="st20" width="7.68" height="37.81"/>
			
				<rect x="93.32" y="226.01" transform="matrix(0.9285 -0.3715 0.3715 0.9285 -80.6198 52.9594)" class="st10" width="7.68" height="19.5"/>
		</g>
		<line class="st11" x1="44.96" y1="267.93" x2="118.01" y2="238.7"/>
	</g>
	<g>
		<polyline class="st11" points="166.59,108.23 190.25,77.57 218.22,129.2 232.2,85.64 251.11,106.03 272.35,58.63 294.59,122.75 		
			"/>
		
			<ellipse transform="matrix(0.9718 -0.236 0.236 0.9718 -20.3224 73.0169)" class="st5" cx="294.85" cy="121.4" rx="12.76" ry="12.76"/>
		<circle class="st10" cx="231.93" cy="86.45" r="6.76"/>
		<path class="st5" d="M173.58,107.96c0,3.42-2.77,6.18-6.18,6.18c-3.42,0-6.18-2.77-6.18-6.18c0-3.42,2.77-6.18,6.18-6.18
			C170.81,101.77,173.58,104.54,173.58,107.96z"/>
		
			<ellipse transform="matrix(0.2421 -0.9702 0.9702 0.2421 67.4759 243.678)" class="st10" cx="189.72" cy="78.65" rx="11.83" ry="11.83"/>
		<circle class="st10" cx="271.93" cy="58.1" r="9.95"/>
		<circle class="st5" cx="251.52" cy="108.28" r="8.84"/>
		<circle class="st5" cx="218.22" cy="126.75" r="7.86"/>
	</g>
	<g>
		<g>
			<path class="st15" d="M384.6,350.76l0.01-0.23c0.1-2.45,1.24-4.56,2.84-5.39c6.02-3.15,10.53-11.26,11.03-20.98l-32.15-1.33
				c-0.3,9.73,3.53,18.18,9.27,21.82c1.53,0.97,2.49,3.16,2.39,5.61l-0.01,0.23c-0.1,2.45-1.24,4.56-2.84,5.39
				c-6.02,3.15-10.53,11.26-11.03,20.98l32.15,1.33c0.3-9.73-3.53-18.18-9.27-21.82C385.46,355.4,384.5,353.2,384.6,350.76z"/>
		</g>
		<g>
			<path class="st15" d="M400.43,382.67l-40.86-1.69l0.22-4.35c0.56-10.97,5.78-20.6,13.3-24.56c0.18-0.16,0.54-0.79,0.58-1.77
				l0.01-0.23c0.04-0.98-0.27-1.64-0.43-1.81c-7.16-4.57-11.57-14.6-11.23-25.57l0.14-4.35l40.86,1.69l-0.22,4.35
				c-0.56,10.96-5.78,20.6-13.3,24.56c-0.18,0.16-0.54,0.79-0.58,1.77l-0.01,0.23c-0.04,0.98,0.27,1.64,0.43,1.81
				c7.16,4.57,11.57,14.59,11.23,25.57L400.43,382.67z M368.96,372.74l22.8,0.94c-0.73-6.09-3.35-11.31-7.07-13.67
				c-1.61-1.02-2.85-2.6-3.59-4.5c-0.9,1.83-2.26,3.31-3.95,4.19C373.23,361.74,370.18,366.73,368.96,372.74z M373.08,352.09
				L373.08,352.09L373.08,352.09z M389.35,352.76L389.35,352.76L389.35,352.76z M389.51,348.92L389.51,348.92L389.51,348.92z
				 M373.23,348.25L373.23,348.25L373.23,348.25z M370.83,327.33c0.73,6.09,3.35,11.31,7.07,13.67c1.61,1.02,2.85,2.6,3.59,4.5
				c0.9-1.83,2.26-3.31,3.95-4.19c3.91-2.04,6.95-7.03,8.18-13.04L370.83,327.33z"/>
		</g>
		<g>
			<path class="st3" d="M386.99,356.37c-1.53-0.97-2.49-3.16-2.39-5.61l0.01-0.23c0.1-2.45,1.24-4.56,2.84-5.39
				c2.69-1.41,5.08-3.81,6.95-6.91l-25.16-1.04c1.6,3.24,3.79,5.83,6.36,7.46c1.53,0.97,2.49,3.16,2.39,5.61l-0.01,0.23
				c-0.1,2.45-1.24,4.56-2.84,5.39c-6.02,3.15-10.53,11.26-11.03,20.98l32.15,1.33C396.56,368.46,392.73,360,386.99,356.37z"/>
		</g>
		<g>
			<path class="st10" d="M402.22,384.7l-43.85-1.81c-1.6-0.07-2.84-1.42-2.77-3.01l0,0c0.07-1.6,1.42-2.84,3.01-2.77l43.85,1.81
				c1.6,0.07,2.84,1.42,2.77,3.01l0,0C405.17,383.52,403.82,384.77,402.22,384.7z"/>
		</g>
		<g>
			<path class="st10" d="M404.26,324.68l-43.85-1.81c-1.6-0.07-2.84-1.41-2.77-3.01l0,0c0.07-1.6,1.42-2.84,3.01-2.77l43.85,1.81
				c1.6,0.07,2.84,1.41,2.77,3.01l0,0C407.21,323.5,405.86,324.75,404.26,324.68z"/>
		</g>
	</g>
	<g>
		<g>
			<g>
				<path class="st3" d="M259.14,412.55c-0.09,2.48-2.17,4.41-4.64,4.32c-2.48-0.09-4.41-2.17-4.32-4.64
					c0.01-0.16,0.04-0.3,0.06-0.45c-1.76,0.23-3.47,0.63-5.11,1.18c0.09,0.14,0.2,0.26,0.28,0.41c1.16,2.19,0.33,4.9-1.86,6.07
					c-2.19,1.16-4.9,0.33-6.07-1.86c-0.08-0.15-0.12-0.3-0.18-0.45c-1.4,1.07-2.69,2.27-3.86,3.59c0.16,0.08,0.32,0.14,0.48,0.24
					c2.1,1.31,2.74,4.08,1.42,6.18c-1.31,2.1-4.08,2.74-6.18,1.42c-0.16-0.1-0.29-0.22-0.43-0.33c-0.68,1.62-1.2,3.32-1.56,5.08
					c0.2-0.02,0.39-0.05,0.59-0.04c2.48,0.09,4.41,2.17,4.32,4.64c-0.09,2.48-2.17,4.41-4.64,4.32c-0.21-0.01-0.4-0.05-0.6-0.08
					c0.23,1.8,0.63,3.55,1.19,5.22c0.18-0.13,0.35-0.26,0.55-0.37c2.19-1.16,4.9-0.33,6.07,1.86c1.16,2.19,0.33,4.9-1.86,6.07
					c-0.2,0.11-0.41,0.18-0.62,0.25c1.09,1.43,2.33,2.76,3.68,3.95c0.09-0.22,0.19-0.43,0.32-0.64c1.31-2.1,4.08-2.74,6.18-1.42
					c2.1,1.31,2.74,4.08,1.42,6.18c-0.13,0.2-0.28,0.38-0.43,0.56c1.65,0.69,3.39,1.22,5.19,1.57c-0.03-0.24-0.06-0.49-0.05-0.74
					c0.09-2.48,2.17-4.41,4.64-4.32c2.48,0.09,4.41,2.17,4.32,4.64c-0.01,0.24-0.05,0.47-0.1,0.7c1.82-0.24,3.59-0.66,5.28-1.24
					c-0.15-0.19-0.29-0.39-0.41-0.61c-1.16-2.19-0.33-4.9,1.86-6.07c2.19-1.16,4.9-0.33,6.07,1.86c0.11,0.21,0.18,0.42,0.26,0.63
					c1.43-1.1,2.74-2.35,3.92-3.71c-0.21-0.09-0.42-0.18-0.62-0.31c-2.1-1.31-2.74-4.08-1.42-6.18c1.31-2.1,4.08-2.74,6.18-1.42
					c0.18,0.12,0.34,0.25,0.5,0.39c0.67-1.64,1.19-3.36,1.53-5.14c-0.21,0.02-0.42,0.05-0.64,0.04c-2.48-0.09-4.41-2.17-4.32-4.64
					c0.09-2.48,2.17-4.41,4.64-4.32c0.19,0.01,0.37,0.05,0.56,0.08c-0.24-1.78-0.66-3.51-1.23-5.17c-0.15,0.11-0.3,0.23-0.47,0.32
					c-2.19,1.16-4.9,0.33-6.07-1.86c-1.16-2.19-0.33-4.9,1.86-6.07c0.15-0.08,0.31-0.13,0.46-0.19c-1.08-1.39-2.29-2.67-3.62-3.83
					c-0.07,0.15-0.13,0.31-0.23,0.46c-1.31,2.1-4.08,2.74-6.18,1.42c-2.1-1.31-2.74-4.08-1.42-6.18c0.09-0.14,0.19-0.25,0.29-0.37
					c-1.6-0.66-3.28-1.17-5.03-1.51C259.12,412.22,259.14,412.38,259.14,412.55z M272.09,439.37c-0.36,10.09-8.83,17.98-18.92,17.62
					c-10.09-0.36-17.98-8.83-17.62-18.92c0.36-10.09,8.83-17.98,18.92-17.62C264.56,420.81,272.45,429.28,272.09,439.37z"/>
			</g>
			<path class="st3" d="M274.17,434.61c-2.27-11.23-13.25-18.52-24.48-16.25c-11.23,2.27-18.52,13.25-16.25,24.48
				c2.27,11.23,13.25,18.52,24.48,16.25C269.15,456.82,276.44,445.84,274.17,434.61z M256.57,452.41
				c-7.54,1.52-14.92-3.37-16.44-10.92c-1.52-7.54,3.37-14.92,10.92-16.44c7.54-1.52,14.92,3.37,16.44,10.92
				C269.01,443.5,264.11,450.88,256.57,452.41z"/>
		</g>
	</g>
	<g>
		<g>
			<g>
				<path class="st15" d="M322.75,394.65c-0.12,3.4-2.98,6.07-6.38,5.95c-3.4-0.12-6.07-2.98-5.95-6.38
					c0.01-0.21,0.06-0.42,0.08-0.62c-2.42,0.32-4.77,0.87-7.03,1.63c0.13,0.19,0.27,0.36,0.38,0.57c1.6,3.01,0.45,6.74-2.55,8.34
					c-3.01,1.6-6.74,0.45-8.34-2.55c-0.11-0.2-0.17-0.41-0.25-0.62c-1.92,1.47-3.7,3.13-5.3,4.94c0.22,0.1,0.45,0.19,0.66,0.32
					c2.89,1.81,3.76,5.61,1.96,8.5c-1.81,2.89-5.61,3.76-8.5,1.96c-0.22-0.13-0.4-0.3-0.59-0.46c-0.93,2.22-1.65,4.56-2.14,6.98
					c0.27-0.03,0.54-0.06,0.81-0.05c3.4,0.12,6.07,2.98,5.95,6.38c-0.12,3.4-2.98,6.07-6.38,5.95c-0.28-0.01-0.55-0.07-0.83-0.11
					c0.31,2.48,0.87,4.88,1.64,7.18c0.24-0.18,0.48-0.36,0.76-0.51c3.01-1.6,6.74-0.45,8.34,2.55c1.6,3.01,0.45,6.74-2.55,8.34
					c-0.28,0.15-0.56,0.25-0.85,0.35c1.5,1.97,3.2,3.79,5.06,5.43c0.13-0.3,0.26-0.6,0.43-0.88c1.81-2.89,5.61-3.76,8.5-1.96
					c2.89,1.81,3.76,5.61,1.96,8.5c-0.18,0.28-0.39,0.53-0.6,0.77c2.27,0.95,4.66,1.68,7.13,2.17c-0.04-0.33-0.08-0.67-0.07-1.02
					c0.12-3.4,2.98-6.07,6.38-5.95c3.4,0.12,6.07,2.98,5.95,6.38c-0.01,0.33-0.07,0.65-0.13,0.97c2.5-0.33,4.93-0.9,7.26-1.7
					c-0.2-0.26-0.4-0.54-0.56-0.84c-1.6-3.01-0.45-6.74,2.55-8.34c3.01-1.6,6.74-0.45,8.34,2.55c0.15,0.28,0.25,0.58,0.36,0.87
					c1.96-1.51,3.77-3.22,5.39-5.09c-0.29-0.12-0.58-0.25-0.85-0.42c-2.89-1.81-3.76-5.61-1.96-8.5c1.81-2.89,5.61-3.76,8.5-1.96
					c0.25,0.16,0.47,0.35,0.69,0.54c0.92-2.25,1.63-4.61,2.1-7.07c-0.29,0.03-0.58,0.07-0.87,0.06c-3.4-0.12-6.07-2.98-5.95-6.38
					c0.12-3.4,2.98-6.07,6.38-5.95c0.26,0.01,0.51,0.06,0.76,0.1c-0.33-2.45-0.9-4.82-1.69-7.1c-0.21,0.15-0.42,0.31-0.65,0.43
					c-3.01,1.6-6.74,0.45-8.34-2.55c-1.6-3.01-0.45-6.74,2.55-8.34c0.21-0.11,0.43-0.18,0.64-0.26c-1.48-1.91-3.15-3.68-4.97-5.27
					c-0.1,0.21-0.18,0.43-0.31,0.63c-1.81,2.89-5.61,3.76-8.5,1.96c-2.89-1.81-3.76-5.61-1.96-8.5c0.12-0.19,0.26-0.34,0.4-0.51
					c-2.2-0.9-4.52-1.6-6.91-2.08C322.72,394.2,322.76,394.42,322.75,394.65z M340.56,431.53c-0.49,13.87-12.14,24.72-26.01,24.23
					c-13.87-0.49-24.72-12.14-24.23-26.01c0.49-13.87,12.13-24.72,26.01-24.23C330.21,406.02,341.05,417.66,340.56,431.53z"/>
			</g>
			<path class="st7" d="M343.42,424.99c-3.12-15.44-18.21-25.46-33.65-22.34c-15.44,3.12-25.46,18.21-22.34,33.65
				c3.12,15.44,18.21,25.46,33.65,22.34C336.51,455.52,346.54,440.42,343.42,424.99z M319.22,449.45
				c-10.37,2.09-20.51-4.64-22.61-15.01c-2.09-10.37,4.64-20.51,15.01-22.61c10.37-2.09,20.51,4.64,22.61,15.01
				C336.32,437.21,329.59,447.35,319.22,449.45z"/>
		</g>
	</g>
	<g>
		<g>
			<ellipse class="st5" cx="243.82" cy="238.69" rx="38.68" ry="18.49"/>
			<path class="st5" d="M251.39,249.07c-0.56,5.2-0.56,10.47,0.02,15.68c0.37,3.35,1,6.72,2.41,9.75c1.41,3.04,3.7,5.73,6.68,7.06
				c-4.88,0.46-9.67-2.38-12.69-6.39c-3.02-4.01-4.51-9.04-5.38-14.05c-0.87-5.01-1.18-10.12-2.16-15.11"/>
		</g>
		<path class="st11" d="M216.27,239.02c2.98,4.38,10.05,5.13,13.88,1.48c0.87-0.83,1.6-1.93,1.55-3.13c-0.05-1.2-1.2-2.37-2.37-2.08
			c-1.02,0.26-1.54,1.49-1.33,2.52c0.21,1.03,0.97,1.85,1.78,2.52c2.92,2.4,6.89,3.34,10.65,2.96c3.66-0.37,7.71-2.66,7.87-6.34
			c0.05-1.2-0.46-2.53-1.58-2.97c-1.72-0.68-3.52,1.42-3.22,3.25c0.31,1.82,1.91,3.14,3.53,4.03c4.61,2.54,10.3,3.03,15.27,1.3
			c2.42-0.84,4.86-2.43,5.48-4.92"/>
	</g>
	<g>
		<g>
			<path class="st10" d="M240.49,188.45c0-14.56-24.4-26.37-54.5-26.37c-30.1,0-54.5,11.81-54.5,26.37
				c0,11.56,13.59,18.25,22.83,21.46c6.41,2.23,12.63,2.85,19.27,3.8c0.01,6.96-0.52,13.99-2.45,20.68
				c-1.93,6.69-5.34,13.06-10.46,17.79c7.7-2.82,14.49-8.76,17.96-16.03c4.13-8.67,7.88-21.33,7.71-21.33
				C216.28,214.72,240.49,202.95,240.49,188.45z"/>
		</g>
		<path class="st11" d="M145.15,192.54c5.21,3.55,12.7,3.32,17.68-0.55c1.26-0.98,2.4-2.23,2.79-3.77c0.39-1.55-0.19-3.41-1.62-4.11
			c-1.81-0.88-4.12,0.57-4.68,2.5c-0.57,1.93,0.2,4.03,1.36,5.69c2.82,4.05,8.12,6.2,12.97,5.27c4.85-0.93,8.97-4.89,10.1-9.7
			c0.25-1.06,0.35-2.23-0.13-3.21c-1.29-2.63-5.85-1.52-6.73,1.28c-0.88,2.8,0.86,5.79,3.07,7.71c3.61,3.13,8.68,4.49,13.37,3.6
			c4.69-0.89,8.91-4.02,11.12-8.26c0.78-1.5,1.33-3.21,1-4.87s-1.77-3.17-3.46-3.13c-1.9,0.05-3.28,1.96-3.58,3.83
			c-0.83,5.18,4.57,9.76,9.82,9.78c5.25,0.03,9.97-3.18,13.77-6.8"/>
	</g>
	<g>
		<g>
			<path class="st15" d="M300.58,170.33c-3.44-10.67-15.14-16.37-25.74-12.3c-8.94,3.43-14.19,13.09-12.15,22.45
				c1.47,6.74,6.12,11.78,11.91,14.1c3.55,1.42,6.48,4.06,8.02,7.56l4.3,9.74l11.63-3.75l-2.2-10.42
				c-0.78-3.72,0.02-7.56,2.07-10.77C301.47,182.18,302.45,176.14,300.58,170.33z"/>
			<path class="st3" d="M293.53,212.49L293.53,212.49c-4.05,1.31-8.4-0.92-9.7-4.97l-1.03-3.18l14.67-4.73l1.03,3.18
				C299.81,206.84,297.58,211.18,293.53,212.49z"/>
			<line class="st21" x1="282.3" y1="208.47" x2="300.3" y2="202.67"/>
			<line class="st21" x1="283.46" y1="212.07" x2="301.46" y2="206.27"/>
			<path class="st22" d="M287.81,204.45c-2.42-4.25-4.83-8.5-7.25-12.75c-2.24-3.94-5.54-7.74-7.26-11.87
				c-0.88-2.12,1.36-3.21,3.01-2.26c1.22,0.7,2.09,2.44,2.45,3.75c-0.42-1.55-0.49-3.2-0.2-4.78c0.06-0.32,0.14-0.65,0.36-0.89
				c0.35-0.38,0.98-0.4,1.44-0.16c0.46,0.24,0.79,0.68,1.04,1.13c0.7,1.21,1.04,2.63,0.97,4.03c0.03-1.65,0.22-3.3,0.56-4.92
				c0.2-0.94,0.73-2.09,1.69-2.01c0.66,0.05,1.1,0.7,1.37,1.32c0.52,1.22,0.75,2.56,0.66,3.88c-0.24-1.63-0.14-3.31,0.3-4.9
				c0.21-0.76,0.62-1.62,1.4-1.73c0.54-0.08,1.07,0.25,1.39,0.69c1.24,1.74,1.15,4.22,1.41,6.29c0.39,3.16,0.79,6.32,1.18,9.47
				c0.55,4.45,1.11,8.89,1.66,13.34"/>
		</g>
		<path class="st7" d="M251.56,180.64c3.53-0.6,2.39-0.4,5.98-1.01"/>
		<path class="st7" d="M250.59,163.86c1.97,0.34,4.16,2.09,5.77,3.27"/>
		<path class="st7" d="M267.45,150.37c0.75,1.38,1.8,3.71,2.55,5.08"/>
		<path class="st7" d="M279.57,145.97c0.58,3.28,0.98,5.53,1.22,6.87"/>
		<path class="st7" d="M301.26,153.03c-2.26,2.95-2.11,2.75-4.43,5.79"/>
		<path class="st7" d="M304.09,166.32c3.58-0.88,2.69-0.66,6.28-1.54"/>
	</g>
	<path class="st23" d="M305.02,259.73c0-4.29,3.48-7.77,7.77-7.77s7.77,3.48,7.77,7.77"/>
	<circle class="st23" cx="100.42" cy="195.5" r="3.11"/>
	<g>
		<circle class="st5" cx="350.67" cy="66.46" r="20.99"/>
		<g>
			<path class="st3" d="M349.44,78.04c-0.11,0.02-0.2,0.03-0.26,0.03c-0.07,0-0.13,0-0.2,0c-0.67,0-1.28-0.02-1.82-0.07
				c-0.54-0.04-1.05-0.11-1.51-0.2c-0.47-0.09-0.92-0.2-1.35-0.33c-0.43-0.13-0.88-0.27-1.34-0.42c0.04-0.48,0.14-0.96,0.28-1.45
				c0.14-0.49,0.3-0.96,0.47-1.42c0.74,0.24,1.5,0.45,2.28,0.64c0.78,0.18,1.73,0.28,2.83,0.28c1.78,0,3.11-0.35,3.97-1.04
				c0.87-0.69,1.3-1.65,1.3-2.87c0-0.61-0.09-1.12-0.28-1.53c-0.18-0.41-0.46-0.77-0.83-1.07c-0.37-0.3-0.84-0.58-1.4-0.83
				c-0.56-0.25-1.23-0.54-1.99-0.86l-1.56-0.65c-0.65-0.26-1.25-0.55-1.79-0.88c-0.54-0.33-1.02-0.71-1.42-1.16
				c-0.4-0.44-0.71-0.97-0.93-1.58c-0.22-0.61-0.33-1.34-0.33-2.18c0-1.67,0.5-3.04,1.51-4.1c1.01-1.06,2.46-1.73,4.35-1.99V51.2
				c0.33-0.09,0.69-0.13,1.11-0.13c0.43,0,0.83,0.04,1.17,0.13v3.03c0.91,0.04,1.81,0.14,2.69,0.29c0.88,0.15,1.63,0.35,2.26,0.59
				c-0.11,0.91-0.35,1.81-0.72,2.7c-0.59-0.22-1.26-0.41-2.02-0.57c-0.76-0.16-1.64-0.24-2.64-0.24c-1.37,0-2.42,0.26-3.16,0.78
				c-0.74,0.52-1.11,1.33-1.11,2.41c0,0.52,0.1,0.97,0.29,1.35c0.2,0.38,0.48,0.72,0.86,1.01c0.38,0.29,0.84,0.56,1.37,0.8
				c0.53,0.24,1.13,0.5,1.81,0.78l1.24,0.52c0.78,0.33,1.49,0.66,2.12,1.01c0.63,0.35,1.17,0.76,1.61,1.24
				c0.45,0.48,0.79,1.04,1.04,1.69c0.25,0.65,0.37,1.44,0.37,2.38c0,1.85-0.53,3.35-1.58,4.51c-1.05,1.16-2.54,1.93-4.45,2.3v3.75
				c-0.17,0.04-0.36,0.08-0.55,0.1c-0.2,0.02-0.38,0.03-0.55,0.03c-0.2,0-0.39-0.01-0.59-0.03c-0.2-0.02-0.39-0.05-0.59-0.1V78.04z"
				/>
		</g>
	</g>
	<g>
		<circle class="st9" cx="325.56" cy="80.55" r="20.99"/>
		<g>
			<path class="st10" d="M324.33,92.13c-0.11,0.02-0.2,0.03-0.26,0.03c-0.07,0-0.13,0-0.2,0c-0.67,0-1.28-0.02-1.82-0.07
				c-0.54-0.04-1.05-0.11-1.51-0.2c-0.47-0.09-0.92-0.2-1.35-0.33c-0.43-0.13-0.88-0.27-1.34-0.42c0.04-0.48,0.14-0.96,0.28-1.45
				c0.14-0.49,0.3-0.96,0.47-1.42c0.74,0.24,1.5,0.45,2.28,0.64c0.78,0.18,1.73,0.28,2.83,0.28c1.78,0,3.11-0.35,3.97-1.04
				c0.87-0.69,1.3-1.65,1.3-2.87c0-0.61-0.09-1.12-0.28-1.53c-0.18-0.41-0.46-0.77-0.83-1.08c-0.37-0.3-0.84-0.58-1.4-0.83
				c-0.56-0.25-1.23-0.54-1.99-0.86l-1.56-0.65c-0.65-0.26-1.25-0.55-1.79-0.88c-0.54-0.33-1.02-0.71-1.42-1.16
				c-0.4-0.44-0.71-0.97-0.93-1.58c-0.22-0.61-0.33-1.34-0.33-2.18c0-1.67,0.5-3.04,1.51-4.1c1.01-1.06,2.46-1.73,4.35-1.99v-3.16
				c0.33-0.09,0.69-0.13,1.11-0.13c0.43,0,0.82,0.04,1.17,0.13v3.03c0.91,0.04,1.81,0.14,2.69,0.29c0.88,0.15,1.63,0.35,2.26,0.59
				c-0.11,0.91-0.35,1.81-0.72,2.7c-0.59-0.22-1.26-0.41-2.02-0.57c-0.76-0.16-1.64-0.24-2.64-0.24c-1.37,0-2.42,0.26-3.16,0.78
				c-0.74,0.52-1.11,1.33-1.11,2.41c0,0.52,0.1,0.97,0.29,1.35c0.2,0.38,0.48,0.72,0.86,1.01c0.38,0.29,0.84,0.56,1.37,0.8
				c0.53,0.24,1.13,0.5,1.81,0.78l1.24,0.52c0.78,0.33,1.49,0.66,2.12,1.01c0.63,0.35,1.17,0.76,1.61,1.24
				c0.45,0.48,0.79,1.04,1.04,1.69c0.25,0.65,0.37,1.44,0.37,2.38c0,1.85-0.53,3.35-1.58,4.51c-1.05,1.16-2.54,1.93-4.45,2.3v3.75
				c-0.17,0.04-0.36,0.08-0.55,0.1c-0.2,0.02-0.38,0.03-0.55,0.03c-0.2,0-0.39-0.01-0.59-0.03c-0.2-0.02-0.39-0.05-0.59-0.1V92.13z"
				/>
		</g>
	</g>
	<g>
		<circle class="st5" cx="48.05" cy="343.55" r="20.99"/>
		<g>
			<path class="st8" d="M46.82,355.13c-0.11,0.02-0.2,0.03-0.26,0.03c-0.07,0-0.13,0-0.2,0c-0.67,0-1.28-0.02-1.82-0.07
				c-0.54-0.04-1.05-0.11-1.51-0.2c-0.47-0.09-0.92-0.2-1.35-0.33c-0.43-0.13-0.88-0.27-1.34-0.42c0.04-0.48,0.14-0.96,0.28-1.45
				c0.14-0.49,0.3-0.96,0.47-1.42c0.74,0.24,1.5,0.45,2.28,0.64c0.78,0.18,1.73,0.28,2.83,0.28c1.78,0,3.11-0.35,3.97-1.04
				c0.87-0.69,1.3-1.65,1.3-2.87c0-0.61-0.09-1.12-0.28-1.53c-0.18-0.41-0.46-0.77-0.83-1.08c-0.37-0.3-0.84-0.58-1.4-0.83
				c-0.56-0.25-1.23-0.54-1.99-0.86l-1.56-0.65c-0.65-0.26-1.25-0.55-1.79-0.88c-0.54-0.33-1.02-0.71-1.42-1.16
				c-0.4-0.44-0.71-0.97-0.93-1.58c-0.22-0.61-0.33-1.34-0.33-2.18c0-1.67,0.5-3.04,1.51-4.1c1.01-1.06,2.46-1.73,4.35-1.99v-3.16
				c0.33-0.09,0.69-0.13,1.11-0.13c0.43,0,0.82,0.04,1.17,0.13v3.03c0.91,0.04,1.81,0.14,2.69,0.29c0.88,0.15,1.63,0.35,2.26,0.59
				c-0.11,0.91-0.35,1.81-0.72,2.7c-0.59-0.22-1.26-0.41-2.02-0.57c-0.76-0.16-1.64-0.24-2.64-0.24c-1.37,0-2.42,0.26-3.16,0.78
				c-0.74,0.52-1.11,1.33-1.11,2.41c0,0.52,0.1,0.97,0.29,1.35c0.2,0.38,0.48,0.72,0.86,1.01c0.38,0.29,0.84,0.56,1.37,0.8
				c0.53,0.24,1.13,0.5,1.81,0.78l1.24,0.52c0.78,0.33,1.49,0.66,2.12,1.01c0.63,0.35,1.17,0.76,1.61,1.24
				c0.45,0.48,0.79,1.04,1.04,1.69c0.25,0.65,0.37,1.44,0.37,2.38c0,1.85-0.53,3.35-1.58,4.51c-1.05,1.16-2.54,1.93-4.45,2.3v3.75
				c-0.17,0.04-0.36,0.08-0.55,0.1c-0.2,0.02-0.38,0.03-0.55,0.03c-0.2,0-0.39-0.01-0.59-0.03c-0.2-0.02-0.39-0.05-0.59-0.1V355.13z
				"/>
		</g>
	</g>
	<path class="st23" d="M196.76,279.42c-2,0-3.63-1.62-3.63-3.63c0-2,1.62-3.63,3.63-3.63"/>
	<path class="st23" d="M439.69,361.77c0,2.57-2.09,4.66-4.66,4.66c-2.57,0-4.66-2.09-4.66-4.66c0-2.57,2.09-4.66,4.66-4.66
		C437.61,357.11,439.69,359.2,439.69,361.77z"/>
	<path class="st23" d="M428.3,373.17c0,2-1.62,3.63-3.63,3.63c-2,0-3.63-1.62-3.63-3.63"/>
	<path class="st23" d="M373.52,412.2c1.99-2.63,5.14-4.32,8.68-4.32c6.01,0,10.88,4.87,10.88,10.88c0,6.01-4.87,10.88-10.88,10.88
		c-3.57,0-6.74-1.72-8.72-4.38"/>
	<circle class="st23" cx="187.44" cy="447.76" r="3.63"/>
	<path class="st23" d="M26.34,296.51c0,2-1.62,3.63-3.63,3.63c-2,0-3.63-1.62-3.63-3.63s1.62-3.63,3.63-3.63
		C24.72,292.88,26.34,294.51,26.34,296.51z"/>
	<path class="st23" d="M199.86,30.63c2.55-2.95,7-3.27,9.95-0.73c2.95,2.55,3.27,7,0.73,9.95"/>
	<path class="st23" d="M198.31,44.51c0,1-0.81,1.81-1.81,1.81c-1,0-1.81-0.81-1.81-1.81c0-1,0.81-1.81,1.81-1.81
		C197.5,42.7,198.31,43.51,198.31,44.51z"/>
	<circle class="st23" cx="231.98" cy="49.95" r="6.73"/>
</g>
</svg>
