<?xml version="1.0" encoding="utf-8"?>
<!-- Generator: Adobe Illustrator 25.0.1, SVG Export Plug-In . SVG Version: 6.00 Build 0)  -->
<svg version="1.1" id="Layer_1" xmlns="http://www.w3.org/2000/svg" xmlns:xlink="http://www.w3.org/1999/xlink" x="0px" y="0px"
	 viewBox="0 0 936 958.34" style="enable-background:new 0 0 936 958.34;" xml:space="preserve">
<style type="text/css">
	.st0{fill:#313942;}
	.st1{fill:#ADADAD;}
	.st2{fill:#CF202F;}
	.st3{fill:#989898;}
	.st4{fill:#EDEDEE;}
	.st5{fill:none;stroke:#313942;stroke-width:3;stroke-miterlimit:10;}
	.st6{fill:#CF2031;}
	.st7{fill:none;stroke:#E4E5E6;stroke-width:0.75;stroke-miterlimit:10;}
</style>
<g>
	<path class="st0" d="M520.43,637.29c-0.76,0-1.49-0.4-1.89-1.09c-0.61-1.05-0.25-2.38,0.8-2.99l23.36-13.49
		c1.05-0.61,2.4-0.25,2.99,0.8c0.61,1.05,0.25,2.38-0.8,2.99L521.53,637C521.19,637.21,520.81,637.29,520.43,637.29z"/>
</g>
<g>
	<path class="st0" d="M364.44,727.36c-0.76,0-1.49-0.4-1.89-1.09c-0.61-1.05-0.25-2.38,0.8-2.99l40.11-23.15
		c1.03-0.61,2.38-0.25,2.99,0.8c0.61,1.05,0.25,2.38-0.8,2.99l-40.11,23.15C365.2,727.25,364.82,727.36,364.44,727.36z"/>
</g>
<g>
	<g>
		<path class="st0" d="M351.22,585.78c-0.76,0-1.49-0.4-1.89-1.09c-0.61-1.05-0.25-2.38,0.8-2.99l3.79-2.19
			c1.03-0.61,2.38-0.25,2.99,0.8c0.61,1.05,0.25,2.38-0.8,2.99l-3.79,2.19C351.98,585.69,351.6,585.78,351.22,585.78z"/>
	</g>
	<g>
		<path class="st0" d="M371.55,574.06c-0.76,0-1.49-0.4-1.89-1.09c-0.61-1.05-0.25-2.38,0.8-2.99l6.61-3.81
			c1.03-0.61,2.38-0.25,2.99,0.8c0.61,1.05,0.25,2.38-0.8,2.99l-6.61,3.81C372.29,573.97,371.91,574.06,371.55,574.06z
			 M394.68,560.7c-0.76,0-1.49-0.4-1.89-1.09c-0.61-1.05-0.25-2.4,0.8-2.99l6.61-3.81c1.05-0.61,2.38-0.25,2.99,0.8
			c0.61,1.05,0.25,2.4-0.8,2.99l-6.61,3.81C395.42,560.61,395.04,560.7,394.68,560.7z M417.81,547.35c-0.76,0-1.49-0.4-1.89-1.09
			c-0.61-1.05-0.25-2.38,0.8-2.99l6.61-3.81c1.05-0.61,2.38-0.25,2.99,0.8c0.61,1.05,0.25,2.38-0.8,2.99l-6.61,3.81
			C418.56,547.25,418.18,547.35,417.81,547.35z"/>
	</g>
	<g>
		<path class="st0" d="M440.93,533.99c-0.76,0-1.49-0.4-1.89-1.09c-0.61-1.05-0.25-2.38,0.8-2.99l3.79-2.19
			c1.05-0.61,2.38-0.25,2.99,0.8c0.61,1.05,0.25,2.38-0.8,2.99l-3.79,2.19C441.69,533.91,441.31,533.99,440.93,533.99z"/>
	</g>
</g>
<g>
	<g>
		<path class="st0" d="M333.38,724.69c-1.22,0-2.19-0.99-2.19-2.19v-4.38c0-1.22,0.99-2.19,2.19-2.19c1.22,0,2.19,0.99,2.19,2.19
			v4.38C335.57,723.72,334.58,724.69,333.38,724.69z"/>
	</g>
	<g>
		<path class="st0" d="M333.38,701.22c-1.22,0-2.19-0.99-2.19-2.19v-7.64c0-1.22,0.99-2.19,2.19-2.19c1.22,0,2.19,0.99,2.19,2.19
			v7.64C335.57,700.25,334.58,701.22,333.38,701.22z M333.38,674.52c-1.22,0-2.19-0.99-2.19-2.19v-7.64c0-1.22,0.99-2.19,2.19-2.19
			c1.22,0,2.19,0.99,2.19,2.19v7.64C335.57,673.53,334.58,674.52,333.38,674.52z M333.38,647.79c-1.22,0-2.19-0.99-2.19-2.19v-7.64
			c0-1.22,0.99-2.19,2.19-2.19c1.22,0,2.19,0.99,2.19,2.19v7.64C335.57,646.83,334.58,647.79,333.38,647.79z"/>
	</g>
	<g>
		<path class="st0" d="M333.38,621.09c-1.22,0-2.19-0.99-2.19-2.19v-4.38c0-1.22,0.99-2.19,2.19-2.19c1.22,0,2.19,0.99,2.19,2.19
			v4.38C335.57,620.12,334.58,621.09,333.38,621.09z"/>
	</g>
</g>
<g>
	<g>
		<path class="st0" d="M444.74,809.6c-0.38,0-0.76-0.08-1.09-0.29l-3.79-2.19c-1.05-0.61-1.41-1.94-0.8-2.99
			c0.61-1.05,1.94-1.41,2.99-0.8l3.79,2.19c1.05,0.61,1.41,1.94,0.8,2.99C446.24,809.2,445.5,809.6,444.74,809.6z"/>
	</g>
	<g>
		<path class="st0" d="M424.41,797.87c-0.38,0-0.76-0.08-1.09-0.29l-6.61-3.81c-1.05-0.61-1.41-1.94-0.8-2.99
			c0.61-1.05,1.94-1.41,2.99-0.8l6.61,3.81c1.05,0.61,1.41,1.94,0.8,2.99C425.91,797.47,425.17,797.87,424.41,797.87z
			 M401.29,784.51c-0.38,0-0.76-0.08-1.09-0.29l-6.61-3.81c-1.05-0.61-1.41-1.96-0.8-2.99c0.61-1.05,1.94-1.41,2.99-0.8l6.61,3.81
			c1.05,0.61,1.41,1.96,0.8,2.99C402.78,784.11,402.04,784.51,401.29,784.51z M378.14,771.15c-0.38,0-0.76-0.08-1.09-0.29
			l-6.61-3.81c-1.05-0.61-1.41-1.94-0.8-2.99c0.61-1.05,1.94-1.41,2.99-0.8l6.61,3.81c1.05,0.61,1.41,1.94,0.8,2.99
			C379.63,770.75,378.9,771.15,378.14,771.15z"/>
	</g>
	<g>
		<path class="st0" d="M355.01,757.79c-0.38,0-0.76-0.08-1.09-0.29l-3.79-2.19c-1.05-0.61-1.41-1.94-0.8-2.99
			c0.61-1.05,1.94-1.41,2.99-0.8l3.79,2.19c1.05,0.61,1.41,1.94,0.8,2.99C356.51,757.41,355.77,757.79,355.01,757.79z"/>
	</g>
</g>
<g>
	<path class="st0" d="M498.28,799.28c-0.76,0-1.49-0.4-1.89-1.09c-0.61-1.05-0.25-2.38,0.8-2.99l75.67-43.69
		c1.05-0.61,2.38-0.25,2.99,0.8c0.61,1.05,0.25,2.38-0.8,2.99l-75.67,43.69C499.03,799.2,498.65,799.28,498.28,799.28z"/>
</g>
<g>
	<g>
		<path class="st0" d="M591.79,621.09c-1.22,0-2.19-0.99-2.19-2.19v-4.38c0-1.22,0.99-2.19,2.19-2.19c1.22,0,2.19,0.99,2.19,2.19
			v4.38C593.98,620.12,593.01,621.09,591.79,621.09z"/>
	</g>
	<g>
		<path class="st0" d="M591.79,701.22c-1.22,0-2.19-0.99-2.19-2.19v-7.64c0-1.22,0.99-2.19,2.19-2.19c1.22,0,2.19,0.99,2.19,2.19
			v7.64C593.98,700.25,593.01,701.22,591.79,701.22z M591.79,674.52c-1.22,0-2.19-0.99-2.19-2.19v-7.64c0-1.22,0.99-2.19,2.19-2.19
			c1.22,0,2.19,0.99,2.19,2.19v7.64C593.98,673.53,593.01,674.52,591.79,674.52z M591.79,647.79c-1.22,0-2.19-0.99-2.19-2.19v-7.64
			c0-1.22,0.99-2.19,2.19-2.19c1.22,0,2.19,0.99,2.19,2.19v7.64C593.98,646.83,593.01,647.79,591.79,647.79z"/>
	</g>
	<g>
		<path class="st0" d="M591.79,724.69c-1.22,0-2.19-0.99-2.19-2.19v-4.38c0-1.22,0.99-2.19,2.19-2.19c1.22,0,2.19,0.99,2.19,2.19
			v4.38C593.98,723.72,593.01,724.69,591.79,724.69z"/>
	</g>
</g>
<g>
	<path class="st0" d="M573.95,585.8c-0.38,0-0.76-0.08-1.09-0.29l-83.44-48.17c-1.05-0.61-1.41-1.94-0.8-2.99
		c0.61-1.05,1.96-1.41,2.99-0.8l83.44,48.17c1.05,0.61,1.41,1.94,0.8,2.99C575.44,585.4,574.7,585.8,573.95,585.8z"/>
</g>
<g>
	<path class="st0" d="M462.59,542.11c-12.56,0-22.81-10.23-22.81-22.81c0-12.56,10.23-22.81,22.81-22.81
		c12.58,0,22.81,10.23,22.81,22.81C485.4,531.89,475.15,542.11,462.59,542.11z M462.59,500.89c-10.16,0-18.41,8.27-18.41,18.41
		c0,10.16,8.27,18.41,18.41,18.41c10.16,0,18.41-8.27,18.41-18.41C481,509.14,472.75,500.89,462.59,500.89z"/>
</g>
<g>
	<path class="st1" d="M483.19,817.72c0,11.38-9.24,20.6-20.6,20.6c-11.38,0-20.6-9.24-20.6-20.6c0-11.38,9.24-20.6,20.6-20.6
		C473.97,797.1,483.19,806.33,483.19,817.72z"/>
	<path class="st1" d="M462.59,840.51c-12.56,0-22.81-10.23-22.81-22.81c0-12.56,10.23-22.81,22.81-22.81
		c12.58,0,22.81,10.23,22.81,22.81S475.15,840.51,462.59,840.51z M462.59,799.28c-10.16,0-18.41,8.27-18.41,18.41
		s8.27,18.41,18.41,18.41c10.16,0,18.41-8.27,18.41-18.41S472.75,799.28,462.59,799.28z"/>
</g>
<g>
	<path class="st0" d="M591.79,765.91c-12.56,0-22.79-10.23-22.79-22.81c0-12.56,10.23-22.81,22.79-22.81
		c12.58,0,22.81,10.23,22.81,22.81C614.6,755.68,604.38,765.91,591.79,765.91z M591.79,724.69c-10.16,0-18.41,8.27-18.41,18.41
		s8.27,18.41,18.41,18.41c10.16,0,18.41-8.27,18.41-18.41S601.96,724.69,591.79,724.69z"/>
</g>
<g>
	<path class="st2" d="M612.41,593.9c0,11.38-9.24,20.6-20.6,20.6c-11.38,0-20.6-9.24-20.6-20.6c0-11.38,9.24-20.6,20.6-20.6
		S612.41,582.52,612.41,593.9z"/>
	<path class="st0" d="M591.79,616.71c-12.56,0-22.79-10.23-22.79-22.81c0-12.58,10.23-22.81,22.79-22.81
		c12.58,0,22.81,10.23,22.81,22.81C614.6,606.49,604.38,616.71,591.79,616.71z M591.79,575.49c-10.16,0-18.41,8.27-18.41,18.41
		c0,10.16,8.27,18.41,18.41,18.41c10.16,0,18.41-8.27,18.41-18.41C610.23,583.76,601.96,575.49,591.79,575.49z"/>
</g>
<g>
	<path class="st2" d="M353.98,743.1c0,11.38-9.24,20.6-20.6,20.6c-11.38,0-20.6-9.24-20.6-20.6c0-11.36,9.24-20.6,20.6-20.6
		C344.74,722.5,353.98,731.71,353.98,743.1z"/>
	<path class="st0" d="M333.38,765.91c-12.56,0-22.81-10.23-22.81-22.81c0-12.56,10.23-22.81,22.81-22.81
		c12.56,0,22.81,10.23,22.81,22.81C356.17,755.68,345.94,765.91,333.38,765.91z M333.38,724.69c-10.16,0-18.41,8.27-18.41,18.41
		s8.27,18.41,18.41,18.41c10.16,0,18.41-8.27,18.41-18.41S343.52,724.69,333.38,724.69z"/>
</g>
<g>
	<path class="st1" d="M353.98,593.9c0,11.38-9.24,20.6-20.6,20.6c-11.38,0-20.6-9.24-20.6-20.6c0-11.38,9.24-20.6,20.6-20.6
		C344.74,573.3,353.98,582.52,353.98,593.9z"/>
	<path class="st1" d="M333.38,616.71c-12.56,0-22.81-10.23-22.81-22.81c0-12.58,10.23-22.81,22.81-22.81
		c12.56,0,22.81,10.23,22.81,22.81C356.17,606.49,345.94,616.71,333.38,616.71z M333.38,575.49c-10.16,0-18.41,8.27-18.41,18.41
		c0,10.16,8.27,18.41,18.41,18.41c10.16,0,18.41-8.27,18.41-18.41S343.52,575.49,333.38,575.49z"/>
</g>
<g>
	<g>
		<path class="st2" d="M520.35,667.97c-1.18,0.63-5.81,0.55-5.83-0.21c-0.02-0.8-0.61-1.18-0.97-1.77c-0.63-1.03-6.5-11.07-7.85-13
			c-0.23-0.34-0.23-0.57,0.11-0.78c-0.06-0.99-0.63-1.43-1.62-1.26c-0.53,0.08-1.01,0.27-1.58,0.19
			c-1.62-0.25-16.94-5.05-17.21-4.25c-0.17-0.21,0.02-0.74-0.38-0.67c-0.76,0.15-1.47-0.25-2.27,0c-0.95,0.29-10.67,6.94-11.72,7.51
			c-0.27,0.15-0.51,0.32-0.72,0.59c-1.01,1.26-1.52,2.8-2.53,4.06c-0.46,0.59-0.34,7.89-0.42,8.88c0,0.13,0.23,0.32,0.4,0.38
			c1.07,0.48,6.57,6.63,8.19,6c0.55-0.21,1.14-0.53,1.75-0.17c0.44,0.25,10.44,1.09,10.48,2.42c0.02,0.59-0.06,1.18-0.27,1.68
			c-0.55,1.3-0.11,2.27,0.88,3.14c0.63,0.53,2.31,7.81,1.79,8.86c-0.88,1.75,2.15,12.69,2.82,13.68c0.65,0.95,1.56,1.89,1.33,3.32
			c-0.15,0.88,0.72,1.43,1.66,1.26c0.72-0.13,7.89-4.25,9.43-5.62c0.13-0.13,0.08-0.29,0.02-0.44c-0.38-1.07,6.54-10.16,6.67-11.22
			c0.15-1.12,1.52-11.72,3.07-13.61c0.74-0.88,1.96-1.24,2.53-2.27c0.86-1.56,1.64-3.18,2.48-4.73c0.27-0.51,0.34-1.01,0.32-1.58
			C520.94,667.91,520.75,667.74,520.35,667.97z"/>
	</g>
	<g>
		<path class="st2" d="M403.56,664.08c0.46,0.23,0.99,0.25,1.26-0.06c0.46-0.53,0.86-0.36,1.3-0.11c0.42,0.25,0.93,0.36,1.2,0.86
			c0.59,1.12,4.65,3.43,5.18,4.38c0.59,1.01,1.89,1.6,3.11,2.04c0.36,0.13,2.8,0.61,2.93,1.09c0.36,1.33,0.23,2.57-0.69,3.68
			c-0.74,0.88-1.45,1.77-1.91,2.84c-0.17,0.38,4.17,11.2,4.55,11.83c0.25,0.42,0.61,0.69,1.05,0.93c0.95,0.51,2.02,0.84,2.76,1.73
			c0.59,0.72,1.54,9.87,1.7,11.11c0.23,1.66,0.67,3.32,0.38,5.03c-0.13,0.72-0.23,1.39,0.23,2.02c0.11,0.15,0.17,0.38,0.13,0.55
			c-0.19,0.82,3.7,10.08,4.9,11.07c0.59,0.48,1.79,0.63,2.34,0.08c0.15-0.15,0.25-0.29,0.13-0.48c-0.59-0.78-0.13-1.47,0.23-2.13
			c0.44-0.8,3.45-9.22,3.83-10c0.38-0.8,1.58-2.36,1.98-2.92c1.24-1.79,2.27-3.7,2.9-5.83c0.04-0.17,4.99-4.17,5.3-4.95
			c0.86-2.06,2.61-9.68,3.43-10.52c0.51-0.51,0.72-1.12,0.84-1.79c0.21-1.12-0.17-1.73-1.26-2.04c-0.9-0.27-1.7-0.69-2.27-1.49
			c-0.11-0.17-0.23-0.32-0.44-0.34c-1.3-0.17-14.6-8.02-15.28-9.13c-0.29-0.48-0.67-0.9-1.18-1.07c-0.76-0.25-1.24-0.88-1.98-1.16
			c-0.38-0.13-2.59-1.18-3.77-0.51c-0.04,0.02-0.25-0.25-0.36-0.4c-0.38-0.46-3.45-0.21-3.98-0.13c-1.05,0.15-1.56,0.8-2.02,1.66
			c-0.32,0.59-0.84,1.09-1.6,0.4c-0.65-0.63-4.71-1.66-4.55-2.67c0.15-0.82,4.55-12.44,4.63-12.9c0.02-0.17-0.11-0.38-0.11-0.55
			c0-1.22-0.74-2.55,0.34-3.66c0.84-0.88,1.85-1.56,2.93-2.1c1.18-0.59,2.21-2.97,2.46-2.65c0.29-0.32,0.67-0.53,0.74-0.99
			c0.02-0.15,0.02-0.44,0.19-0.36c0.82,0.4,1.07-0.38,1.28-0.76c0.61-1.01,1.54-1.39,2.59-1.6c0.23-0.04,4.25-2.27,4.52-1.94
			c0.25,0.29,0.63,0.27,0.84,0.02c0.86-1.01,2.23-1.03,3.3-1.6c0.65-0.36,3.62-4.59,5.3-5.6c0.4-0.25-2.23-4.9-2.02-5.53
			c0.06-0.21-11.45-8.1-11.24-8.75c0.21-0.63-0.08-0.76-0.63-0.59c-0.23,0.08-3.58,3.79-4.84,2.61c-0.08-0.08-0.32-0.06-0.46,0
			c-0.78,0.29-1.49,0-2.25-0.17c-1.07-0.25-2.06-0.06-2.84,0.8c-0.19,0.21-0.46,0.55-0.65,0.13c-0.36-0.84-0.93-0.8-1.64-0.63
			c-0.19,0.04-0.38,0.04-0.59,0.04c-9.6,9.41-16.35,21.67-18.92,35.42C399.96,660.13,402.95,663.77,403.56,664.08z"/>
	</g>
	<g>
		<path class="st2" d="M508.73,620.25c-0.29,0.02-0.55,0.02-0.65,0.02c0.23,0.4-2.06,0.51-2.38,0.32c-1.58-0.88-7.11-1.96-8.23-1.98
			c-3.05-0.04-9.2,5.39-10.52,5.83c-1.2,0.4,18.96,22.28,19.76,21.82c0.65-0.38,0.95-0.02,1.05,0.76c0.15,1.26-1.94,5.18-1.94,5.18
			c-0.02,0.72,0.48,1.14,0.97,1.43c0.42,0.23,7.64,9.87,7.74,11.91c0.02,0.29,0.25,0.57,0.4,0.86c0.21,0.44,0.48,0.53,0.99,0.46
			c1.05-0.17,1.89-0.74,2.8-1.2c0.19-0.11,0.36-0.48,0.48-0.46c1.49,0.25,2.06-0.86,2.82-1.77c-0.42-0.27-0.88,0.04-1.35-0.32
			c0.46,0,0.82-0.04,1.16,0c1.49,0.21,2.55-0.4,3.39-1.64c0.44-0.65,0.69-1.45,1.35-1.96c0.63-0.51,0.53-0.86-0.06-1.43
			c-0.42-0.4,0.65-0.88,1.83-1.26C525.82,642.55,518.77,629.84,508.73,620.25z"/>
	</g>
	<g>
		<path class="st0" d="M462.65,737.52c-7.34,0-14.71-1.18-21.86-3.58c-1.16-0.38-1.77-1.62-1.39-2.78c0.38-1.16,1.62-1.77,2.78-1.39
			c16.37,5.45,33.88,4.21,49.33-3.51c15.42-7.72,26.94-20.98,32.39-37.35c6.5-19.51,3.24-41.16-8.71-57.93
			c-0.69-0.99-0.46-2.36,0.51-3.05c0.99-0.69,2.36-0.48,3.05,0.51c12.75,17.91,16.22,41.03,9.3,61.87
			c-5.83,17.49-18.1,31.65-34.57,39.9C483.71,735.06,473.21,737.52,462.65,737.52z"/>
	</g>
	<g>
		<path class="st0" d="M402.91,700.68c-0.8,0-1.58-0.44-1.96-1.2c-8.29-16.5-9.64-35.23-3.81-52.76
			c12.02-36.09,51.16-55.66,87.25-43.66c3.83,1.28,7.55,2.88,11.07,4.78c1.07,0.57,1.47,1.91,0.88,2.97
			c-0.57,1.07-1.91,1.45-2.97,0.88c-3.28-1.77-6.78-3.28-10.37-4.48c-33.8-11.26-70.45,7.09-81.71,40.89
			c-5.47,16.41-4.21,33.94,3.56,49.41c0.55,1.07,0.11,2.4-0.97,2.95C403.56,700.59,403.22,700.68,402.91,700.68z"/>
	</g>
</g>
<g>
	<path class="st0" d="M462.59,790.19c-1.22,0-2.19-0.99-2.19-2.19v-52.69c0-1.22,0.99-2.19,2.19-2.19s2.19,0.99,2.19,2.19v52.69
		C464.77,789.2,463.79,790.19,462.59,790.19z"/>
</g>
<g>
	<path class="st0" d="M462.59,603.9c-1.22,0-2.19-0.99-2.19-2.19v-48.13c0-1.22,0.99-2.19,2.19-2.19s2.19,0.99,2.19,2.19v48.13
		C464.77,602.93,463.79,603.9,462.59,603.9z"/>
</g>
<g>
	<path class="st0" d="M560.71,727.36c-0.38,0-0.76-0.08-1.09-0.29l-40.28-23.25c-1.05-0.61-1.41-1.94-0.8-2.99
		c0.61-1.05,1.96-1.41,2.99-0.8l40.28,23.25c1.05,0.61,1.41,1.94,0.8,2.99C562.2,726.96,561.47,727.36,560.71,727.36z"/>
</g>
<g>
	<path class="st0" d="M404.74,637.31c-0.38,0-0.76-0.08-1.09-0.29l-53.53-30.91c-1.05-0.61-1.41-1.94-0.8-2.99
		c0.61-1.05,1.96-1.41,2.99-0.8l53.53,30.91c1.05,0.61,1.41,1.94,0.8,2.99C406.23,636.91,405.5,637.31,404.74,637.31z"/>
</g>
<g>
	<polygon class="st3" points="136.41,889.16 178.75,889.16 117.96,915.91 	"/>
</g>
<g>
	<path class="st1" d="M221.09,891.35h-84.68c-11.38,0-20.66-9.26-20.66-20.66v-37.84c0-11.38,9.26-20.66,20.66-20.66h84.68
		c11.38,0,20.66,9.26,20.66,20.66v37.84C241.76,882.09,232.5,891.35,221.09,891.35z M136.41,816.58c-8.96,0-16.27,7.3-16.27,16.29
		v37.84c0,8.96,7.3,16.27,16.27,16.27h84.68c8.99,0,16.29-7.3,16.29-16.27v-37.84c0-8.99-7.3-16.29-16.29-16.29L136.41,816.58
		L136.41,816.58z"/>
</g>
<g>
	<path class="st1" d="M152.07,839.16c0,3.09-2.5,5.62-5.62,5.62c-3.09,0-5.62-2.5-5.62-5.62c0-3.09,2.5-5.62,5.62-5.62
		C149.57,833.54,152.07,836.05,152.07,839.16z"/>
</g>
<g>
	<path class="st1" d="M161.5,866.45h-30.05c0-8.29,6.73-15.02,15.02-15.02C154.76,851.43,161.5,858.16,161.5,866.45z"/>
</g>
<g>
	<path class="st0" d="M223.28,841.08h-43.56c-1.22,0-2.19-0.99-2.19-2.19c0-1.22,0.99-2.19,2.19-2.19h43.56
		c1.22,0,2.19,0.99,2.19,2.19S224.5,841.08,223.28,841.08z"/>
</g>
<g>
	<g>
		<path class="st0" d="M174.8,849.66h-4.38c-1.22,0-2.19-0.99-2.19-2.19c0-1.22,0.99-2.19,2.19-2.19h4.38
			c1.22,0,2.19,0.99,2.19,2.19C176.99,848.69,176.02,849.66,174.8,849.66z"/>
	</g>
	<g>
		<path class="st0" d="M210.09,849.66h-8.82c-1.22,0-2.19-0.99-2.19-2.19c0-1.22,0.99-2.19,2.19-2.19h8.82
			c1.22,0,2.19,0.99,2.19,2.19C212.28,848.69,211.29,849.66,210.09,849.66z M192.43,849.66h-8.82c-1.22,0-2.19-0.99-2.19-2.19
			c0-1.22,0.99-2.19,2.19-2.19h8.82c1.22,0,2.19,0.99,2.19,2.19C194.64,848.69,193.65,849.66,192.43,849.66z"/>
	</g>
	<g>
		<path class="st0" d="M223.28,849.66h-4.38c-1.22,0-2.19-0.99-2.19-2.19c0-1.22,0.99-2.19,2.19-2.19h4.38
			c1.22,0,2.19,0.99,2.19,2.19C225.47,848.69,224.5,849.66,223.28,849.66z"/>
	</g>
</g>
<g>
	<g>
		<path class="st0" d="M174.8,858.27h-4.38c-1.22,0-2.19-0.99-2.19-2.19c0-1.22,0.99-2.19,2.19-2.19h4.38
			c1.22,0,2.19,0.99,2.19,2.19C176.99,857.28,176.02,858.27,174.8,858.27z"/>
	</g>
	<g>
		<path class="st0" d="M210.09,858.27h-8.82c-1.22,0-2.19-0.99-2.19-2.19c0-1.22,0.99-2.19,2.19-2.19h8.82
			c1.22,0,2.19,0.99,2.19,2.19C212.28,857.28,211.29,858.27,210.09,858.27z M192.43,858.27h-8.82c-1.22,0-2.19-0.99-2.19-2.19
			c0-1.22,0.99-2.19,2.19-2.19h8.82c1.22,0,2.19,0.99,2.19,2.19C194.64,857.28,193.65,858.27,192.43,858.27z"/>
	</g>
	<g>
		<path class="st0" d="M223.28,858.27h-4.38c-1.22,0-2.19-0.99-2.19-2.19c0-1.22,0.99-2.19,2.19-2.19h4.38
			c1.22,0,2.19,0.99,2.19,2.19C225.47,857.28,224.5,858.27,223.28,858.27z"/>
	</g>
</g>
<g>
	<g>
		<path class="st0" d="M174.8,866.85h-4.38c-1.22,0-2.19-0.99-2.19-2.19c0-1.22,0.99-2.19,2.19-2.19h4.38
			c1.22,0,2.19,0.99,2.19,2.19C176.99,865.89,176.02,866.85,174.8,866.85z"/>
	</g>
	<g>
		<path class="st0" d="M210.09,866.85h-8.82c-1.22,0-2.19-0.99-2.19-2.19c0-1.22,0.99-2.19,2.19-2.19h8.82
			c1.22,0,2.19,0.99,2.19,2.19C212.28,865.89,211.29,866.85,210.09,866.85z M192.43,866.85h-8.82c-1.22,0-2.19-0.99-2.19-2.19
			c0-1.22,0.99-2.19,2.19-2.19h8.82c1.22,0,2.19,0.99,2.19,2.19C194.64,865.89,193.65,866.85,192.43,866.85z"/>
	</g>
	<g>
		<path class="st0" d="M223.28,866.85h-4.38c-1.22,0-2.19-0.99-2.19-2.19c0-1.22,0.99-2.19,2.19-2.19h4.38
			c1.22,0,2.19,0.99,2.19,2.19C225.47,865.89,224.5,866.85,223.28,866.85z"/>
	</g>
</g>
<g>
	<path class="st0" d="M497.1,907.34c-0.8,0-1.6-0.25-2.29-0.74c-1.39-0.97-2.02-2.63-1.62-4.27l6.1-24.83
		c-4.73-5.98-7.32-13.38-7.32-21c0-18.67,15.19-33.84,33.84-33.84c5.58,0,11.09,1.39,15.97,4c1.07,0.57,1.47,1.89,0.9,2.97
		c-0.57,1.07-1.89,1.47-2.97,0.9c-4.25-2.27-9.05-3.47-13.91-3.47c-16.25,0-29.46,13.22-29.46,29.46c0,6.97,2.48,13.74,7.03,19.07
		c0.55,0.65,0.67,1.56,0.34,2.31l-6.06,24.62l23.74-16.14c0.44-0.38,1.05-0.57,1.6-0.51c4.76,0.46,9.66-0.25,14.1-2.1
		c1.12-0.46,2.4,0.06,2.86,1.18c0.46,1.12-0.06,2.4-1.18,2.86c-4.86,2-10.14,2.86-15.36,2.48l-24.07,16.37
		C498.68,907.11,497.88,907.34,497.1,907.34z"/>
</g>
<g>
	<path class="st1" d="M567.11,824.85c17.49,0,31.65,14.18,31.65,31.65c0,7.81-2.84,14.96-7.53,20.48l0.02-0.02l6.38,25.88
		c0.4,1.64-1.43,2.9-2.82,1.96L570.1,888h0.02c-0.99,0.08-2,0.15-3.01,0.15c-17.49,0-31.65-14.18-31.65-31.65
		S549.62,824.85,567.11,824.85z"/>
</g>
<g>
	<path class="st0" d="M267.09,732.77h-69.78c-6.86,0-12.42-5.58-12.42-12.44V612.67c0-6.86,5.58-12.44,12.42-12.44h69.78
		c6.86,0,12.44,5.58,12.44,12.44v107.66C279.53,727.19,273.95,732.77,267.09,732.77z M197.31,604.63c-4.44,0-8.04,3.6-8.04,8.04
		v107.66c0,4.44,3.6,8.04,8.04,8.04h69.78c4.44,0,8.04-3.6,8.04-8.04V612.67c0-4.44-3.6-8.04-8.04-8.04H197.31z"/>
</g>
<g>
	<rect x="198.91" y="621.36" class="st2" width="66.56" height="90.3"/>
</g>
<g>
	<path class="st0" d="M232.2,726.5c-3.41,0-6.21-2.78-6.21-6.21c0-3.43,2.78-6.21,6.21-6.21c3.41,0,6.21,2.78,6.21,6.21
		C238.41,723.72,235.61,726.5,232.2,726.5z M232.2,718.48c-1.01,0-1.81,0.82-1.81,1.81c0,1.01,0.82,1.81,1.81,1.81
		c1.01,0,1.81-0.82,1.81-1.81C234.01,719.3,233.19,718.48,232.2,718.48z"/>
</g>
<g>
	<path class="st0" d="M232.2,616.57c-1.79,0-3.24-1.45-3.24-3.24c0-1.79,1.45-3.24,3.24-3.24c1.79,0,3.24,1.45,3.24,3.24
		C235.44,615.11,233.99,616.57,232.2,616.57z"/>
</g>
<g>
	<path class="st0" d="M698.33,701.77h-44.04c-4.52,0-8.23-3.68-8.23-8.23v-84.89c0-4.52,3.68-8.21,8.23-8.21h44.04
		c4.52,0,8.23,3.68,8.23,8.21v84.91C706.56,698.09,702.88,701.77,698.33,701.77z M654.29,604.82c-2.1,0-3.83,1.73-3.83,3.83v84.91
		c0,2.1,1.73,3.83,3.83,3.83h44.04c2.1,0,3.83-1.73,3.83-3.83v-84.89c0-2.1-1.73-3.83-3.83-3.83h-44.04V604.82z"/>
</g>
<g>
	<rect x="656.46" y="618.08" class="st1" width="39.71" height="65.3"/>
</g>
<g>
	<path class="st0" d="M676.32,695.73c-2.9,0-5.26-2.36-5.26-5.26c0-2.9,2.36-5.26,5.26-5.26s5.26,2.36,5.26,5.26
		C681.56,693.37,679.23,695.73,676.32,695.73z M676.32,689.61c-0.48,0-0.86,0.4-0.86,0.86c0,0.97,1.75,0.97,1.75,0
		C677.19,689.99,676.81,689.61,676.32,689.61z"/>
</g>
<g>
	<path class="st0" d="M676.32,614.92c-1.91,0-3.49-1.56-3.49-3.49s1.56-3.49,3.49-3.49c1.91,0,3.49,1.56,3.49,3.49
		S678.24,614.92,676.32,614.92z"/>
</g>
<g>
	<polygon class="st2" points="723.9,918.81 668.45,918.81 677.33,894.67 715.02,894.67 	"/>
</g>
<g>
	<path class="st0" d="M758.1,896.88H634.24c-5.87,0-10.65-4.78-10.65-10.65v-78.7c0-5.87,4.78-10.65,10.65-10.65H758.1
		c5.87,0,10.65,4.78,10.65,10.65v78.7C768.77,892.09,763.97,896.88,758.1,896.88z M634.24,801.26c-3.45,0-6.27,2.82-6.27,6.27v78.7
		c0,3.45,2.82,6.27,6.27,6.27H758.1c3.45,0,6.27-2.82,6.27-6.27v-78.7c0-3.45-2.82-6.27-6.27-6.27H634.24L634.24,801.26z"/>
</g>
<g>
	<g>
		<path class="st0" d="M756.31,886.51h-4.38c-1.22,0-2.19-0.99-2.19-2.19s0.99-2.19,2.19-2.19h2.19v-2.19
			c0-1.22,0.99-2.19,2.19-2.19c1.22,0,2.19,0.99,2.19,2.19v4.38C758.52,885.52,757.53,886.51,756.31,886.51z"/>
	</g>
	<g>
		<path class="st0" d="M743.35,886.51h-8.59c-1.22,0-2.19-0.99-2.19-2.19s0.99-2.19,2.19-2.19h8.59c1.22,0,2.19,0.99,2.19,2.19
			S744.57,886.51,743.35,886.51z M726.2,886.51h-8.59c-1.22,0-2.19-0.99-2.19-2.19s0.99-2.19,2.19-2.19h8.59
			c1.22,0,2.19,0.99,2.19,2.19S727.42,886.51,726.2,886.51z M709.04,886.51h-8.59c-1.22,0-2.19-0.99-2.19-2.19s0.99-2.19,2.19-2.19
			h8.59c1.22,0,2.19,0.99,2.19,2.19S710.24,886.51,709.04,886.51z M691.87,886.51h-8.59c-1.22,0-2.19-0.99-2.19-2.19
			s0.99-2.19,2.19-2.19h8.59c1.22,0,2.19,0.99,2.19,2.19S693.09,886.51,691.87,886.51z M674.72,886.51h-8.59
			c-1.22,0-2.19-0.99-2.19-2.19s0.99-2.19,2.19-2.19h8.59c1.22,0,2.19,0.99,2.19,2.19S675.94,886.51,674.72,886.51z M657.57,886.51
			h-8.59c-1.22,0-2.19-0.99-2.19-2.19s0.99-2.19,2.19-2.19h8.59c1.22,0,2.19,0.99,2.19,2.19S658.77,886.51,657.57,886.51z"/>
	</g>
	<g>
		<path class="st0" d="M640.42,886.51h-4.38c-1.22,0-2.19-0.99-2.19-2.19v-4.38c0-1.22,0.99-2.19,2.19-2.19
			c1.22,0,2.19,0.99,2.19,2.19v2.19h2.19c1.22,0,2.19,0.99,2.19,2.19S641.62,886.51,640.42,886.51z"/>
	</g>
	<g>
		<path class="st0" d="M636.02,872.68c-1.22,0-2.19-0.99-2.19-2.19v-9.45c0-1.22,0.99-2.19,2.19-2.19c1.22,0,2.19,0.99,2.19,2.19
			v9.45C638.21,871.69,637.25,872.68,636.02,872.68z M636.02,853.79c-1.22,0-2.19-0.99-2.19-2.19v-9.45c0-1.22,0.99-2.19,2.19-2.19
			c1.22,0,2.19,0.99,2.19,2.19v9.45C638.21,852.82,637.25,853.79,636.02,853.79z M636.02,834.91c-1.22,0-2.19-0.99-2.19-2.19v-9.45
			c0-1.22,0.99-2.19,2.19-2.19c1.22,0,2.19,0.99,2.19,2.19v9.45C638.21,833.92,637.25,834.91,636.02,834.91z"/>
	</g>
	<g>
		<path class="st0" d="M636.02,816.01c-1.22,0-2.19-0.99-2.19-2.19v-4.38c0-1.22,0.99-2.19,2.19-2.19h4.38
			c1.22,0,2.19,0.99,2.19,2.19c0,1.22-0.99,2.19-2.19,2.19h-2.19v2.19C638.21,815.02,637.25,816.01,636.02,816.01z"/>
	</g>
	<g>
		<path class="st0" d="M743.35,811.64h-8.59c-1.22,0-2.19-0.99-2.19-2.19c0-1.22,0.99-2.19,2.19-2.19h8.59
			c1.22,0,2.19,0.99,2.19,2.19C745.56,810.65,744.57,811.64,743.35,811.64z M726.2,811.64h-8.59c-1.22,0-2.19-0.99-2.19-2.19
			c0-1.22,0.99-2.19,2.19-2.19h8.59c1.22,0,2.19,0.99,2.19,2.19S727.42,811.64,726.2,811.64z M709.04,811.64h-8.59
			c-1.22,0-2.19-0.99-2.19-2.19c0-1.22,0.99-2.19,2.19-2.19h8.59c1.22,0,2.19,0.99,2.19,2.19
			C711.23,810.65,710.24,811.64,709.04,811.64z M691.87,811.64h-8.59c-1.22,0-2.19-0.99-2.19-2.19c0-1.22,0.99-2.19,2.19-2.19h8.59
			c1.22,0,2.19,0.99,2.19,2.19C694.08,810.65,693.09,811.64,691.87,811.64z M674.72,811.64h-8.59c-1.22,0-2.19-0.99-2.19-2.19
			c0-1.22,0.99-2.19,2.19-2.19h8.59c1.22,0,2.19,0.99,2.19,2.19S675.94,811.64,674.72,811.64z M657.57,811.64h-8.59
			c-1.22,0-2.19-0.99-2.19-2.19c0-1.22,0.99-2.19,2.19-2.19h8.59c1.22,0,2.19,0.99,2.19,2.19S658.77,811.64,657.57,811.64z"/>
	</g>
	<g>
		<path class="st0" d="M756.31,816.01c-1.22,0-2.19-0.99-2.19-2.19v-2.19h-2.19c-1.22,0-2.19-0.99-2.19-2.19
			c0-1.22,0.99-2.19,2.19-2.19h4.38c1.22,0,2.19,0.99,2.19,2.19v4.38C758.52,815.02,757.53,816.01,756.31,816.01z"/>
	</g>
	<g>
		<path class="st0" d="M756.31,872.68c-1.22,0-2.19-0.99-2.19-2.19v-9.45c0-1.22,0.99-2.19,2.19-2.19c1.22,0,2.19,0.99,2.19,2.19
			v9.45C758.52,871.69,757.53,872.68,756.31,872.68z M756.31,853.79c-1.22,0-2.19-0.99-2.19-2.19v-9.45c0-1.22,0.99-2.19,2.19-2.19
			c1.22,0,2.19,0.99,2.19,2.19v9.45C758.52,852.82,757.53,853.79,756.31,853.79z M756.31,834.91c-1.22,0-2.19-0.99-2.19-2.19v-9.45
			c0-1.22,0.99-2.19,2.19-2.19c1.22,0,2.19,0.99,2.19,2.19v9.45C758.52,833.92,757.53,834.91,756.31,834.91z"/>
	</g>
</g>
<g>
	<path class="st0" d="M732.47,921h-72.56c-1.22,0-2.19-0.99-2.19-2.19c0-1.22,0.99-2.19,2.19-2.19h72.56c1.22,0,2.19,0.99,2.19,2.19
		C734.65,920.03,733.67,921,732.47,921z"/>
</g>
<g>
	<rect x="645.6" y="818.29" class="st2" width="101.51" height="57.17"/>
</g>
<g>
	
		<ellipse transform="matrix(0.2255 -0.9742 0.9742 0.2255 -572.3539 989.9409)" class="st2" cx="336.45" cy="854.96" rx="32.05" ry="32.05"/>
</g>
<g>
	<g>
		<path class="st0" d="M336.52,918.87c-23.86,0-45.56-13.13-56.65-34.28c-0.57-1.07-0.15-2.4,0.93-2.97
			c1.07-0.57,2.4-0.15,2.97,0.93c10.33,19.7,30.55,31.94,52.78,31.94c32.83,0,59.53-26.7,59.53-59.53c0-1.22,0.99-2.19,2.19-2.19
			c1.2,0,2.19,0.99,2.19,2.19C400.45,890.19,371.76,918.87,336.52,918.87z"/>
	</g>
	<g>
		<path class="st0" d="M418.33,877.25c-0.57,0-1.12-0.21-1.56-0.65l-18.54-18.54L379.7,876.6c-0.86,0.86-2.25,0.86-3.09,0
			c-0.86-0.86-0.86-2.25,0-3.09l20.1-20.1c0.86-0.86,2.25-0.86,3.09,0l20.1,20.1c0.86,0.86,0.86,2.25,0,3.09
			C419.47,877.04,418.9,877.25,418.33,877.25z"/>
	</g>
</g>
<g>
	<g>
		<path class="st0" d="M274.77,857.15c-1.22,0-2.19-0.99-2.19-2.19c0-35.25,28.68-63.93,63.93-63.93c23.86,0,45.58,13.13,56.65,34.3
			c0.57,1.07,0.15,2.4-0.93,2.97c-1.07,0.57-2.4,0.15-2.97-0.93c-10.33-19.7-30.55-31.94-52.78-31.94
			c-32.83,0-59.53,26.7-59.53,59.53C276.96,856.16,276,857.15,274.77,857.15z"/>
	</g>
	<g>
		<path class="st0" d="M274.77,857.15c-0.57,0-1.12-0.21-1.56-0.65l-20.1-20.1c-0.86-0.86-0.86-2.25,0-3.09
			c0.86-0.86,2.25-0.86,3.09,0l18.54,18.54l18.54-18.54c0.86-0.86,2.25-0.86,3.09,0c0.86,0.86,0.86,2.25,0,3.09l-20.1,20.1
			C275.91,856.92,275.34,857.15,274.77,857.15z"/>
	</g>
</g>
<g>
	<rect x="735.12" y="541.69" class="st2" width="23.99" height="191.58"/>
</g>
<g>
	<path class="st0" d="M759.11,543.88h-23.99c-1.22,0-2.19-0.99-2.19-2.19v-12.08c0-1.22,0.99-2.19,2.19-2.19h23.99
		c1.22,0,2.19,0.99,2.19,2.19v12.08C761.3,542.89,760.33,543.88,759.11,543.88z M737.33,539.5h19.59v-7.7h-19.59V539.5z"/>
</g>
<g>
	<path class="st0" d="M747.11,784.49L747.11,784.49c-1.01,0-1.89-0.69-2.13-1.66l-11.99-49.03c-0.17-0.65-0.02-1.35,0.4-1.87
		c0.42-0.53,1.05-0.84,1.73-0.84h23.99c0.67,0,1.3,0.32,1.73,0.84c0.42,0.53,0.57,1.22,0.4,1.87l-11.99,49.03
		C749.01,783.8,748.12,784.49,747.11,784.49z M737.92,735.46l9.2,37.6l9.2-37.6H737.92z"/>
</g>
<path class="st0" d="M675.25,584.01c-0.86,0-1.66-0.51-2.02-1.35c-1.12-2.65-2.29-5.3-3.54-7.89c-0.53-1.09-0.06-2.4,1.03-2.92
	c1.09-0.53,2.4-0.06,2.93,1.03c1.26,2.67,2.48,5.37,3.62,8.08c0.46,1.12-0.06,2.4-1.18,2.86
	C675.82,583.97,675.52,584.01,675.25,584.01z M246.96,583.46c-0.29,0-0.57-0.06-0.86-0.17c-1.12-0.46-1.64-1.77-1.16-2.88
	c1.16-2.71,2.38-5.41,3.66-8.08c0.53-1.09,1.85-1.54,2.93-1.03c1.09,0.53,1.56,1.83,1.03,2.92c-1.26,2.61-2.44,5.24-3.58,7.89
	C248.62,582.96,247.8,583.46,246.96,583.46z M661.09,556.84c-0.72,0-1.43-0.36-1.85-1.03c-1.54-2.44-3.14-4.86-4.8-7.24
	c-0.69-0.99-0.44-2.36,0.55-3.05c0.99-0.69,2.36-0.44,3.05,0.55c1.7,2.44,3.32,4.9,4.9,7.39c0.65,1.03,0.34,2.38-0.69,3.03
	C661.89,556.74,661.49,556.84,661.09,556.84z M261.2,556.36c-0.4,0-0.8-0.11-1.18-0.34c-1.03-0.65-1.33-2-0.67-3.03
	c1.58-2.48,3.22-4.95,4.9-7.37c0.69-0.99,2.06-1.24,3.05-0.55c0.99,0.69,1.24,2.06,0.55,3.05c-1.66,2.36-3.26,4.76-4.8,7.2
	C262.63,556,261.92,556.36,261.2,556.36z M642.74,532.27c-0.61,0-1.22-0.25-1.66-0.76c-1.89-2.19-3.85-4.31-5.85-6.42
	c-0.84-0.88-0.8-2.27,0.08-3.09c0.88-0.82,2.27-0.8,3.09,0.08c2.04,2.15,4.04,4.33,5.98,6.57c0.8,0.9,0.69,2.29-0.21,3.09
	C643.77,532.1,643.26,532.27,642.74,532.27z M279.57,531.87c-0.51,0-1.03-0.19-1.45-0.55c-0.9-0.8-1.01-2.19-0.21-3.09
	c1.94-2.21,3.94-4.38,5.98-6.52c0.84-0.88,2.23-0.9,3.09-0.06s0.9,2.23,0.06,3.09c-2,2.08-3.96,4.21-5.85,6.38
	C280.79,531.61,280.18,531.87,279.57,531.87z M620.92,510.7c-0.51,0-1.01-0.17-1.43-0.53c-2.19-1.87-4.44-3.7-6.71-5.51
	c-0.95-0.76-1.12-2.13-0.36-3.07c0.76-0.95,2.13-1.12,3.07-0.36c2.31,1.83,4.59,3.7,6.84,5.62c0.93,0.78,1.03,2.17,0.25,3.09
	C622.16,510.42,621.55,510.7,620.92,510.7z M301.42,510.38c-0.61,0-1.24-0.25-1.66-0.78c-0.78-0.93-0.67-2.29,0.25-3.09
	c2.23-1.91,4.52-3.79,6.86-5.6c0.95-0.76,2.34-0.59,3.07,0.38c0.74,0.95,0.59,2.34-0.38,3.07c-2.27,1.79-4.52,3.62-6.71,5.49
	C302.43,510.21,301.92,510.38,301.42,510.38z M596.32,492.41c-0.4,0-0.82-0.11-1.18-0.34c-2.44-1.56-4.9-3.07-7.39-4.55
	c-1.05-0.61-1.39-1.96-0.78-3.01c0.61-1.05,1.96-1.39,3.01-0.78c2.55,1.49,5.05,3.05,7.53,4.63c1.01,0.65,1.33,2,0.67,3.03
	C597.75,492.07,597.03,492.41,596.32,492.41z M326.06,492.16c-0.72,0-1.43-0.36-1.85-1.01c-0.65-1.01-0.36-2.38,0.67-3.03
	c2.48-1.58,4.99-3.11,7.53-4.63c1.05-0.61,2.38-0.25,3.01,0.78c0.61,1.05,0.27,2.38-0.78,3.01c-2.5,1.47-4.97,2.99-7.41,4.55
	C326.88,492.05,326.48,492.16,326.06,492.16z M569.49,477.57c-0.32,0-0.63-0.06-0.93-0.21c-2.61-1.22-5.26-2.42-7.91-3.56
	c-1.12-0.48-1.62-1.77-1.16-2.88c0.48-1.12,1.77-1.64,2.88-1.16c2.71,1.16,5.41,2.38,8.06,3.62c1.09,0.51,1.56,1.81,1.05,2.93
	C571.11,477.11,570.31,477.57,569.49,477.57z M352.93,477.36c-0.82,0-1.62-0.46-1.98-1.26c-0.51-1.09-0.04-2.4,1.05-2.92
	c2.65-1.24,5.35-2.44,8.08-3.6c1.12-0.48,2.4,0.04,2.88,1.16c0.48,1.12-0.04,2.4-1.16,2.88c-2.67,1.14-5.32,2.31-7.93,3.54
	C353.54,477.3,353.22,477.36,352.93,477.36z M540.99,466.27c-0.23,0-0.46-0.04-0.67-0.11c-2.74-0.9-5.51-1.75-8.31-2.55
	c-1.16-0.34-1.83-1.56-1.49-2.71c0.34-1.16,1.54-1.83,2.71-1.49c2.84,0.82,5.66,1.68,8.46,2.59c1.16,0.38,1.77,1.62,1.41,2.76
	C542.76,465.71,541.92,466.27,540.99,466.27z M381.44,466.13c-0.93,0-1.79-0.59-2.08-1.52c-0.38-1.16,0.25-2.38,1.41-2.76
	c2.8-0.9,5.62-1.77,8.46-2.57c1.16-0.32,2.38,0.34,2.71,1.52c0.34,1.16-0.34,2.38-1.52,2.71c-2.8,0.8-5.58,1.64-8.31,2.53
	C381.88,466.11,381.65,466.13,381.44,466.13z M511.32,458.57c-0.15,0-0.27-0.02-0.42-0.04c-2.84-0.55-5.68-1.07-8.56-1.54
	c-1.2-0.19-2-1.33-1.81-2.5c0.19-1.2,1.35-2.02,2.5-1.81c2.93,0.46,5.83,0.99,8.71,1.56c1.18,0.23,1.96,1.39,1.73,2.57
	C513.26,457.86,512.35,458.57,511.32,458.57z M411.14,458.49c-1.03,0-1.94-0.74-2.15-1.77c-0.23-1.18,0.55-2.34,1.73-2.57
	c2.88-0.57,5.79-1.07,8.69-1.54c1.22-0.21,2.31,0.63,2.5,1.81c0.19,1.2-0.63,2.31-1.81,2.5c-2.86,0.46-5.72,0.97-8.56,1.52
	C411.41,458.47,411.26,458.49,411.14,458.49z M480.94,454.49c-0.06,0-0.11,0-0.17,0c-2.88-0.21-5.77-0.38-8.69-0.51
	c-1.2-0.04-2.15-1.07-2.1-2.27c0.04-1.2,0.88-2.25,2.29-2.1c2.95,0.13,5.89,0.29,8.82,0.53c1.2,0.08,2.1,1.14,2.02,2.36
	C483.02,453.61,482.07,454.49,480.94,454.49z M441.52,454.45c-1.14,0-2.1-0.88-2.19-2.04c-0.08-1.2,0.82-2.25,2.02-2.34
	c2.93-0.21,5.87-0.38,8.82-0.51c1.16-0.13,2.23,0.88,2.27,2.1c0.04,1.2-0.88,2.23-2.1,2.27c-2.9,0.13-5.81,0.27-8.67,0.48
	C441.63,454.45,441.56,454.45,441.52,454.45z"/>
<g>
	<path class="st2" d="M249.84,523.13c16.62-16.62,16.62-43.58,0-60.23c-16.62-16.62-43.58-16.62-60.23,0
		c-15.72,15.72-16.56,40.63-2.59,57.36l5.45,5.45C209.2,539.69,234.14,538.83,249.84,523.13z M200.24,512.51
		c-10.77-10.77-10.77-28.22,0-38.97c10.77-10.77,28.22-10.77,38.97,0c10.77,10.77,10.77,28.22,0,38.97
		C228.46,523.28,211.01,523.28,200.24,512.51z"/>
</g>
<g>
	<path class="st0" d="M135.15,592.66c-0.57,0-1.12-0.21-1.56-0.65l-12.9-12.9c-0.86-0.86-0.86-2.25,0-3.09l52.97-52.9
		c0.86-0.86,2.25-0.86,3.09,0l12.9,12.9c0.42,0.42,0.65,0.97,0.65,1.56c0,0.59-0.23,1.14-0.65,1.56l-52.94,52.92
		C136.29,592.45,135.72,592.66,135.15,592.66z M125.37,577.59l9.79,9.79l49.83-49.83l-9.79-9.79L125.37,577.59z"/>
</g>
<g>
	<path class="st0" d="M181.66,533.3c-0.57,0-1.12-0.21-1.56-0.65c-0.86-0.86-0.86-2.25,0-3.09l8.1-8.1c0.86-0.86,2.25-0.86,3.09,0
		c0.86,0.86,0.86,2.25,0,3.09l-8.1,8.1C182.77,533.07,182.21,533.3,181.66,533.3z"/>
</g>
<path class="st0" d="M646.68,272.36c0-3.17,2.57-5.74,5.74-5.74c3.17,0,5.74,2.58,5.74,5.74c0,3.17-2.58,5.74-5.74,5.74
	S646.7,275.52,646.68,272.36z M649.52,272.37c0,1.59,1.29,2.89,2.89,2.89c1.59,0,2.89-1.29,2.89-2.89c0-1.59-1.29-2.89-2.89-2.89
	C650.83,269.47,649.52,270.77,649.52,272.37z"/>
<path class="st0" d="M639.44,291.78c0-7.16,5.83-12.98,12.98-12.98c7.16,0,12.98,5.83,12.98,12.98c0,0.77-0.63,1.41-1.41,1.41
	h-23.12C640.08,293.19,639.44,292.57,639.44,291.78z M652.42,281.64c-5.11,0-9.35,3.81-10.04,8.73h20.09
	C661.77,285.44,657.53,281.64,652.42,281.64z"/>
<path class="st0" d="M619.95,272.36c0-3.17,2.58-5.74,5.74-5.74c3.17,0,5.74,2.58,5.74,5.74c0,3.17-2.58,5.74-5.74,5.74
	C622.52,278.09,619.95,275.52,619.95,272.36z M622.79,272.37c0,1.59,1.29,2.89,2.89,2.89c1.59,0,2.89-1.29,2.89-2.89
	c0-1.59-1.29-2.89-2.89-2.89C624.08,269.47,622.78,270.77,622.79,272.37z"/>
<path class="st0" d="M612.69,291.78c0-7.16,5.83-12.98,12.98-12.98c7.16,0,12.98,5.83,12.98,12.98c0,0.77-0.63,1.41-1.41,1.41
	h-23.12C613.34,293.19,612.71,292.57,612.69,291.78z M625.68,281.64c-5.11,0-9.35,3.81-10.04,8.73h20.09
	C635.04,285.44,630.8,281.64,625.68,281.64z"/>
<path class="st0" d="M673.43,300.69c0-3.17,2.58-5.74,5.74-5.74c3.17,0,5.74,2.58,5.74,5.74s-2.58,5.72-5.74,5.72
	C676,306.42,673.43,303.85,673.43,300.69z M676.27,300.68c0,1.59,1.29,2.89,2.89,2.89c1.59,0,2.89-1.29,2.89-2.89
	c0-1.59-1.29-2.89-2.89-2.89S676.26,299.09,676.27,300.68z"/>
<path class="st0" d="M666.17,320.1c0-7.16,5.83-12.98,12.98-12.98c7.16,0,12.98,5.83,12.98,12.98c0,0.77-0.63,1.41-1.41,1.41H667.6
	C666.83,321.52,666.19,320.88,666.17,320.1z M679.17,309.95c-5.11,0-9.35,3.81-10.04,8.73h20.09
	C688.52,313.76,684.28,309.95,679.17,309.95z"/>
<path class="st0" d="M646.68,300.69c0-3.17,2.57-5.74,5.74-5.74c3.17,0,5.74,2.58,5.74,5.74s-2.58,5.72-5.74,5.72
	S646.7,303.85,646.68,300.69z M649.52,300.68c0,1.59,1.29,2.89,2.89,2.89c1.59,0,2.89-1.29,2.89-2.89c0-1.59-1.29-2.89-2.89-2.89
	C650.83,297.79,649.52,299.09,649.52,300.68z"/>
<path class="st0" d="M639.44,320.1c0-7.16,5.83-12.98,12.98-12.98c7.16,0,12.98,5.83,12.98,12.98c0,0.77-0.63,1.41-1.41,1.41h-23.12
	C640.08,321.52,639.44,320.88,639.44,320.1z M652.42,309.95c-5.11,0-9.35,3.81-10.04,8.73h20.09
	C661.77,313.76,657.53,309.95,652.42,309.95z"/>
<circle class="st1" cx="625.68" cy="300.68" r="4.31"/>
<path class="st1" d="M625.68,308.55c6.37,0,11.55,5.16,11.55,11.55h-23.12C614.12,313.71,619.3,308.54,625.68,308.55z"/>
<path class="st0" d="M593.2,300.69c0-3.17,2.57-5.74,5.74-5.74s5.74,2.58,5.74,5.74s-2.58,5.72-5.74,5.72
	S593.22,303.85,593.2,300.69z M596.04,300.68c0,1.59,1.3,2.89,2.89,2.89s2.89-1.29,2.89-2.89c0-1.59-1.29-2.89-2.89-2.89
	C597.35,297.79,596.04,299.09,596.04,300.68z"/>
<path class="st0" d="M585.96,320.1c0-7.16,5.82-12.98,12.98-12.98s12.98,5.83,12.98,12.98c0,0.77-0.63,1.41-1.41,1.41h-23.12
	C586.6,321.52,585.97,320.88,585.96,320.1z M598.94,309.95c-5.11,0-9.35,3.81-10.04,8.73h20.09
	C608.3,313.76,604.05,309.95,598.94,309.95z"/>
<path class="st0" d="M673.43,328.99c0-3.15,2.58-5.72,5.74-5.72c3.17,0,5.74,2.57,5.74,5.72c0,3.17-2.58,5.74-5.74,5.74
	C676,334.73,673.43,332.16,673.43,328.99z M676.27,328.99c0,1.59,1.29,2.89,2.89,2.89c1.59,0,2.89-1.29,2.89-2.89
	c0-1.59-1.29-2.89-2.89-2.89S676.26,327.4,676.27,328.99z"/>
<path class="st0" d="M666.17,348.41c0-7.16,5.83-12.98,12.98-12.98c7.16,0,12.98,5.83,12.98,12.98c0,0.77-0.63,1.41-1.41,1.41H667.6
	C666.83,349.83,666.19,349.19,666.17,348.41z M679.17,338.27c-5.11,0-9.35,3.81-10.04,8.73h20.09
	C688.52,342.07,684.28,338.27,679.17,338.27z"/>
<path class="st0" d="M646.68,328.99c0-3.15,2.57-5.72,5.74-5.72c3.17,0,5.74,2.57,5.74,5.72c0,3.17-2.58,5.74-5.74,5.74
	S646.7,332.16,646.68,328.99z M649.52,328.99c0,1.59,1.29,2.89,2.89,2.89c1.59,0,2.89-1.29,2.89-2.89c0-1.59-1.29-2.89-2.89-2.89
	C650.83,326.1,649.52,327.4,649.52,328.99z"/>
<path class="st0" d="M639.44,348.41c0-7.16,5.83-12.98,12.98-12.98c7.16,0,12.98,5.83,12.98,12.98c0,0.77-0.63,1.41-1.41,1.41
	h-23.12C640.08,349.83,639.44,349.19,639.44,348.41z M652.42,338.27c-5.11,0-9.35,3.81-10.04,8.73h20.09
	C661.77,342.07,657.53,338.27,652.42,338.27z"/>
<path class="st0" d="M593.2,328.99c0-3.15,2.57-5.72,5.74-5.72s5.74,2.57,5.74,5.72c0,3.17-2.58,5.74-5.74,5.74
	S593.22,332.16,593.2,328.99z M596.04,328.99c0,1.59,1.3,2.89,2.89,2.89s2.89-1.29,2.89-2.89c0-1.59-1.29-2.89-2.89-2.89
	C597.35,326.1,596.04,327.4,596.04,328.99z"/>
<path class="st0" d="M585.96,348.41c0-7.16,5.82-12.98,12.98-12.98s12.98,5.83,12.98,12.98c0,0.77-0.63,1.41-1.41,1.41h-23.12
	C586.6,349.83,585.97,349.19,585.96,348.41z M598.94,338.27c-5.11,0-9.35,3.81-10.04,8.73h20.09
	C608.3,342.07,604.05,338.27,598.94,338.27z"/>
<path class="st0" d="M638.58,393.62c-0.26-0.46-0.24-1.02,0.04-1.45l0.84-1.32c0.04-0.23,0.14-0.43,0.27-0.61
	c0.27-0.34,0.45-0.71,0.56-1.09l6.71-24.51c0.45-1.64-0.52-3.34-2.16-3.79c-1.63-0.46-3.34,0.52-3.79,2.16l-2.83,10.33
	c-0.16,0.57-0.68,0.99-1.28,1.03c-0.61,0.04-1.17-0.3-1.4-0.86c-0.26-0.6-0.79-1.06-1.44-1.24c-0.61-0.18-1.05-0.73-1.05-1.37
	v-30.39c0-1.7-1.39-3.09-3.09-3.09s-3.09,1.39-3.09,3.09v30.25c0,0.77-0.63,1.41-1.41,1.41h-0.64c-0.77,0-1.41-0.63-1.41-1.41
	v-20.25c0-1.7-1.39-3.09-3.09-3.09s-3.09,1.39-3.09,3.09v20.25c0,0.77-0.63,1.41-1.41,1.41h-0.64c-0.77,0-1.41-0.63-1.41-1.41v-13.1
	c0-1.7-1.39-3.09-3.09-3.09s-3.09,1.39-3.09,3.09v13.1c0,0.77-0.63,1.41-1.41,1.41h-0.64c-0.77,0-1.41-0.63-1.41-1.41v-8.09
	c0-1.7-1.39-3.09-3.09-3.09s-3.09,1.39-3.09,3.09v8.37c0,0.57-0.34,1.09-0.87,1.3c-0.82,0.34-1.33,1.13-1.33,2
	c0,0.77-0.63,1.41-1.41,1.41c-0.77,0-1.41-0.63-1.41-1.41c0-1.69,0.84-3.23,2.2-4.15v-7.53c0-3.28,2.66-5.93,5.93-5.93
	c1.41,0,2.72,0.5,3.74,1.33v-0.41c0-3.28,2.66-5.93,5.93-5.93c1.41,0,2.72,0.5,3.74,1.33v-2.56c0-3.28,2.66-5.93,5.93-5.93
	c1.41,0,2.72,0.5,3.74,1.33v-5.42c0-3.28,2.66-5.93,5.93-5.93c3.28,0,5.93,2.66,5.93,5.93v29.44c0.08,0.05,0.18,0.11,0.27,0.16
	l2.15-7.86c0.86-3.15,4.12-5,7.27-4.15c1.52,0.42,2.79,1.41,3.57,2.79c0.79,1.37,0.99,2.98,0.57,4.5l-6.71,24.51
	c-0.15,0.53-0.38,1.05-0.68,1.52c34.6-1.74,62.34-30.63,62.34-65.58c0-36.21-29.45-65.66-65.66-65.66h-0.2
	c-0.77,0-1.3-0.63-1.3-1.41c0-0.77,0.73-1.41,1.52-1.41c37.77,0,68.5,30.73,68.5,68.5c0,37.34-30.36,68.07-67.7,68.49h-0.01
	C639.41,394.35,638.94,394.07,638.58,393.62z"/>
<circle class="st2" cx="671.5" cy="364.36" r="9.19"/>
<path class="st0" d="M653.61,382.24c-0.56-0.54-0.56-1.44,0-2l10.4-10.4c0.54-0.56,1.44-0.54,2,0s0.56,1.44,0,2l-10.4,10.4
	c-0.29,0.29-0.64,0.42-1.01,0.42C654.24,382.66,653.89,382.53,653.61,382.24z"/>
<g>
	<circle class="st2" cx="513.37" cy="316.28" r="7.15"/>
</g>
<g>
	<path class="st2" d="M494.2,351.1h38.33c0-10.59-8.58-19.16-19.16-19.16C502.78,331.94,494.2,340.52,494.2,351.1z"/>
</g>
<g>
	<circle class="st1" cx="549.63" cy="320.56" r="4.8"/>
</g>
<g>
	<path class="st1" d="M536.77,343.93h25.71c0-7.09-5.75-12.86-12.86-12.86C542.52,331.07,536.77,336.83,536.77,343.93z"/>
</g>
<polygon class="st2" points="289.65,288.66 262.31,288.66 301.57,305.93 "/>
<path class="st2" d="M289.65,290.07h-54.69c-7.35,0-13.35-5.98-13.35-13.35v-24.44c0-7.35,5.98-13.35,13.35-13.35h54.69
	c7.35,0,13.35,5.98,13.35,13.35v24.44C303,284.09,297,290.07,289.65,290.07z M234.96,241.78c-5.8,0-10.52,4.72-10.52,10.51v24.44
	c0,5.8,4.72,10.52,10.52,10.52h54.69c5.8,0,10.52-4.72,10.52-10.52v-24.44c0-5.79-4.72-10.51-10.52-10.51H234.96z"/>
<path class="st2" d="M280.17,256.37c0,2,1.62,3.63,3.63,3.63c2,0,3.63-1.62,3.63-3.63c0-2-1.62-3.63-3.63-3.63
	S280.17,254.35,280.17,256.37z"/>
<path class="st2" d="M274.08,273.99h19.41c0-5.35-4.35-9.7-9.7-9.7S274.08,268.64,274.08,273.99z"/>
<path class="st0" d="M262.31,256.45h-28.13c-0.79,0-1.41-0.64-1.41-1.41c0-0.79,0.64-1.41,1.41-1.41h28.13
	c0.79,0,1.41,0.64,1.41,1.41C263.72,255.81,263.08,256.45,262.31,256.45z"/>
<g>
	<path class="st0" d="M268.31,261.99h-2.83c-0.79,0-1.41-0.64-1.41-1.41c0-0.79,0.64-1.41,1.41-1.41h2.83
		c0.79,0,1.41,0.64,1.41,1.41C269.73,261.37,269.1,261.99,268.31,261.99z"/>
</g>
<g>
	<path class="st0" d="M259.79,261.99h-5.69c-0.79,0-1.41-0.64-1.41-1.41c0-0.79,0.64-1.41,1.41-1.41h5.69
		c0.79,0,1.41,0.64,1.41,1.41C261.21,261.37,260.57,261.99,259.79,261.99z M248.4,261.99h-5.69c-0.79,0-1.41-0.64-1.41-1.41
		c0-0.79,0.64-1.41,1.41-1.41h5.69c0.79,0,1.41,0.64,1.41,1.41C249.82,261.37,249.18,261.99,248.4,261.99z"/>
</g>
<g>
	<path class="st0" d="M237,261.99h-2.83c-0.79,0-1.41-0.64-1.41-1.41c0-0.79,0.64-1.41,1.41-1.41H237c0.79,0,1.41,0.64,1.41,1.41
		C238.43,261.37,237.79,261.99,237,261.99z"/>
</g>
<g>
	<path class="st0" d="M268.31,267.55h-2.83c-0.79,0-1.41-0.64-1.41-1.41c0-0.79,0.64-1.41,1.41-1.41h2.83
		c0.79,0,1.41,0.64,1.41,1.41S269.1,267.55,268.31,267.55z"/>
</g>
<g>
	<path class="st0" d="M259.79,267.55h-5.69c-0.79,0-1.41-0.64-1.41-1.41c0-0.79,0.64-1.41,1.41-1.41h5.69
		c0.79,0,1.41,0.64,1.41,1.41C261.21,266.91,260.57,267.55,259.79,267.55z M248.4,267.55h-5.69c-0.79,0-1.41-0.64-1.41-1.41
		c0-0.79,0.64-1.41,1.41-1.41h5.69c0.79,0,1.41,0.64,1.41,1.41C249.82,266.91,249.18,267.55,248.4,267.55z"/>
</g>
<g>
	<path class="st0" d="M237,267.55h-2.83c-0.79,0-1.41-0.64-1.41-1.41c0-0.79,0.64-1.41,1.41-1.41H237c0.79,0,1.41,0.64,1.41,1.41
		C238.43,266.91,237.79,267.55,237,267.55z"/>
</g>
<g>
	<path class="st0" d="M268.31,273.1h-2.83c-0.79,0-1.41-0.64-1.41-1.41c0-0.79,0.64-1.41,1.41-1.41h2.83c0.79,0,1.41,0.64,1.41,1.41
		C269.73,272.47,269.1,273.1,268.31,273.1z"/>
</g>
<g>
	<path class="st0" d="M259.79,273.1h-5.69c-0.79,0-1.41-0.64-1.41-1.41c0-0.79,0.64-1.41,1.41-1.41h5.69c0.79,0,1.41,0.64,1.41,1.41
		C261.21,272.47,260.57,273.1,259.79,273.1z M248.4,273.1h-5.69c-0.79,0-1.41-0.64-1.41-1.41c0-0.79,0.64-1.41,1.41-1.41h5.69
		c0.79,0,1.41,0.64,1.41,1.41C249.82,272.47,249.18,273.1,248.4,273.1z"/>
</g>
<g>
	<path class="st0" d="M237,273.1h-2.83c-0.79,0-1.41-0.64-1.41-1.41c0-0.79,0.64-1.41,1.41-1.41H237c0.79,0,1.41,0.64,1.41,1.41
		C238.43,272.47,237.79,273.1,237,273.1z"/>
</g>
<path class="st0" d="M453.59,401.12l-1.4-2.46c11.91-6.78,16.49-14.28,16.54-14.35l2.43,1.45
	C470.96,386.09,466.2,393.94,453.59,401.12z"/>
<g>
	<path class="st0" d="M403.48,435.11c-39.21,0-71.11-31.9-71.11-71.11s31.9-71.11,71.11-71.11c39.21,0,71.11,31.9,71.11,71.11
		S442.69,435.11,403.48,435.11z M403.48,295.73c-37.65,0-68.27,30.62-68.27,68.27s30.62,68.27,68.27,68.27
		c37.65,0,68.27-30.63,68.27-68.27S441.13,295.73,403.48,295.73z"/>
</g>
<g>
	<rect x="402.06" y="372.74" class="st0" width="2.83" height="60.96"/>
</g>
<g>
	<rect x="402.06" y="294.32" class="st0" width="2.83" height="60.96"/>
</g>
<g>
	<rect x="412.2" y="362.59" class="st0" width="60.96" height="2.83"/>
</g>
<g>
	<rect x="364.97" y="362.59" class="st0" width="29.78" height="2.83"/>
</g>
<g>
	<rect x="333.8" y="362.59" class="st0" width="13.73" height="2.83"/>
</g>
<g>
	<path class="st0" d="M381.73,431.69c-0.98-0.58-23.87-14.65-26.64-58.86l2.83-0.18c2.69,42.74,25.04,56.47,25.25,56.61
		L381.73,431.69z"/>
</g>
<g>
	<path class="st0" d="M357.92,355.39l-2.83-0.18c2.77-44.23,25.66-58.29,26.64-58.88l1.44,2.43
		C382.96,298.9,360.6,312.76,357.92,355.39z"/>
</g>
<g>
	<path class="st0" d="M425.24,431.69l-1.45-2.42c0.08-0.05,8.75-5.41,15.9-19.46l2.53,1.28
		C434.64,425.91,425.62,431.46,425.24,431.69z"/>
</g>
<g>
	<path class="st0" d="M448.44,394.54l-2.73-0.72c2.39-8.98,3.6-19.01,3.6-29.81c0-49.21-25.27-65.09-25.52-65.25l1.45-2.42
		c1.1,0.67,26.9,16.73,26.9,67.67C452.14,375.04,450.88,385.31,448.44,394.54z"/>
</g>
<g>
	<path class="st0" d="M403.48,412.66c-51.12,0-67.02-25.81-67.67-26.9l2.43-1.44c0.15,0.26,15.86,25.52,65.24,25.52
		c12.12,0,23.24-1.52,33.04-4.5l0.83,2.7C427.29,411.1,415.89,412.66,403.48,412.66z"/>
</g>
<g>
	<path class="st0" d="M338.23,343.71l-2.42-1.45c0.67-1.1,16.74-26.9,67.67-26.9c50.94,0,67.01,25.8,67.67,26.9l-2.42,1.45
		c-0.15-0.26-16.04-25.52-65.25-25.52C354.26,318.19,338.39,343.45,338.23,343.71z"/>
</g>
<g>
	<path class="st1" d="M364.97,364c0,4.82-3.9,8.73-8.73,8.73s-8.73-3.9-8.73-8.73c0-4.82,3.9-8.73,8.73-8.73
		C361.06,355.28,364.97,359.19,364.97,364z"/>
</g>
<g>
	<path class="st2" d="M412.2,364c0,4.82-3.9,8.73-8.73,8.73s-8.73-3.9-8.73-8.73c0-4.82,3.9-8.73,8.73-8.73
		C408.3,355.28,412.2,359.19,412.2,364z"/>
</g>
<g>
	<path class="st1" d="M453.32,402.52c0,4.82-3.9,8.73-8.73,8.73s-8.73-3.9-8.73-8.73c0-4.82,3.9-8.73,8.73-8.73
		C449.4,393.79,453.32,397.7,453.32,402.52z"/>
</g>
<path class="st0" d="M289.49,360.93h-5.38c-0.94,0-1.7-0.76-1.7-1.7v-10.75c0-0.94,0.76-1.7,1.7-1.7h5.38c3.9,0,7.08,3.17,7.08,7.08
	C296.56,357.76,293.4,360.93,289.49,360.93z M285.81,357.53h3.68c2.03,0,3.68-1.64,3.68-3.68c0-2.03-1.64-3.68-3.68-3.68h-3.68
	V357.53z"/>
<path class="st1" d="M249.52,331.8h-66.09c-2.31,0-4.17,1.86-4.17,4.17v35.76c0,2.31,1.86,4.17,4.17,4.17h10.91l-13.78,44.19
	c-0.65,2.08,0.91,4.2,3.09,4.2H196c1.41,0,2.66-0.92,3.09-2.27l11.96-38.37c1.44-4.61,5.71-7.75,10.53-7.75h27.94l27.94,15.71
	v-75.53L249.52,331.8z"/>
<path class="st0" d="M312.45,355.56h-12.48c-0.94,0-1.7-0.76-1.7-1.7s0.76-1.7,1.7-1.7h12.48c0.94,0,1.7,0.76,1.7,1.7
	S313.39,355.56,312.45,355.56z"/>
<path class="st0" d="M300.1,341.67c-0.53,0-1.06-0.26-1.4-0.73c-0.53-0.77-0.35-1.82,0.42-2.36l12.22-8.52
	c0.76-0.53,1.82-0.35,2.36,0.42c0.53,0.77,0.35,1.82-0.42,2.36l-12.22,8.52C300.78,341.56,300.44,341.67,300.1,341.67z"/>
<path class="st0" d="M312.31,377.96c-0.34,0-0.68-0.1-0.96-0.3l-12.22-8.52c-0.77-0.53-0.95-1.59-0.42-2.36
	c0.53-0.77,1.59-0.96,2.36-0.42l12.22,8.52c0.77,0.53,0.95,1.59,0.42,2.36C313.39,377.72,312.86,377.96,312.31,377.96z"/>
<path class="st0" d="M225.63,377.62c-0.94,0-1.7-0.76-1.7-1.7v-44.1c0-0.94,0.76-1.7,1.7-1.7s1.7,0.76,1.7,1.7v44.1
	C227.33,376.86,226.58,377.62,225.63,377.62z"/>
<path class="st0" d="M179.26,371.49h-1.79c-8.15,0-14.79-6.63-14.79-14.77v-5.71c0-8.15,6.63-14.77,14.79-14.77h1.79
	c0.94,0,1.7,0.76,1.7,1.7v31.87C180.95,370.74,180.19,371.49,179.26,371.49z M177.45,339.62c-6.28,0-11.39,5.11-11.39,11.38v5.71
	c0,6.28,5.11,11.38,11.39,11.38h0.1L177.45,339.62z"/>
<path class="st0" d="M280.46,393.32h-2.98c-0.94,0-1.7-0.76-1.7-1.7v-75.53c0-0.94,0.76-1.7,1.7-1.7h2.98
	c2.96,0,5.35,2.41,5.35,5.35v68.2C285.81,390.91,283.41,393.32,280.46,393.32z M279.17,389.92h1.28c1.09,0,1.97-0.88,1.97-1.97
	v-68.2c0-1.09-0.88-1.96-1.97-1.96h-1.28V389.92z"/>
<g>
	<path class="st3" d="M554.92,403.46c0,8.03-6.51,14.54-14.54,14.54c-8.03,0-14.54-6.51-14.54-14.54s6.51-14.54,14.54-14.54
		C548.41,388.91,554.92,395.42,554.92,403.46z"/>
</g>
<g>
	<path class="st0" d="M543.3,440.02c-0.54,0-1.05-0.31-1.28-0.8l-3.63-7.62c-1.83-0.11-3.66-0.39-5.41-0.84l-5.8,6.13
		c-0.41,0.43-1.03,0.57-1.59,0.33c-1.45-0.63-2.85-1.33-4.13-2.09c-0.5-0.3-0.77-0.9-0.67-1.48l1.55-8.3
		c-0.72-0.6-1.4-1.21-2.04-1.83c-0.63-0.63-1.25-1.32-1.83-2.04l-8.3,1.55c-0.57,0.11-1.17-0.15-1.48-0.67
		c-0.76-1.29-1.45-2.64-2.09-4.13c-0.23-0.54-0.11-1.18,0.33-1.59l6.13-5.8c-0.46-1.75-0.73-3.57-0.84-5.41l-7.62-3.63
		c-0.53-0.26-0.86-0.82-0.8-1.41c0.14-1.51,0.38-3.04,0.73-4.58c0.14-0.58,0.61-1.02,1.2-1.09l8.36-1.09
		c0.67-1.7,1.49-3.33,2.5-4.88l-4.04-7.41c-0.29-0.52-0.2-1.17,0.18-1.62c0.5-0.57,1.03-1.14,1.59-1.7c0.54-0.54,1.11-1.07,1.7-1.58
		c0.45-0.39,1.09-0.46,1.62-0.18l7.41,4.04c1.55-0.99,3.18-1.83,4.88-2.5l1.09-8.36c0.08-0.58,0.52-1.07,1.1-1.2
		c1.54-0.34,3.09-0.58,4.58-0.73c0.58-0.07,1.16,0.27,1.41,0.8l3.63,7.62c1.83,0.11,3.66,0.39,5.42,0.86l5.79-6.13
		c0.41-0.43,1.03-0.57,1.59-0.33c1.45,0.63,2.85,1.33,4.13,2.09c0.52,0.3,0.77,0.9,0.67,1.48l-1.55,8.3c0.72,0.6,1.4,1.21,2.04,1.83
		c0.63,0.63,1.25,1.32,1.83,2.04l8.3-1.55c0.58-0.11,1.17,0.16,1.48,0.67c0.77,1.29,1.47,2.68,2.09,4.13
		c0.23,0.54,0.11,1.18-0.33,1.59l-6.13,5.8c0.14,0.53,0.26,1.07,0.37,1.6c0.15,0.76-0.35,1.51-1.11,1.66s-1.51-0.35-1.66-1.11
		c-0.15-0.73-0.33-1.47-0.53-2.2c-0.15-0.52,0-1.06,0.38-1.43l6.01-5.69c-0.33-0.71-0.68-1.39-1.03-2.05l-8.15,1.52
		c-0.52,0.1-1.06-0.11-1.37-0.53c-0.68-0.88-1.4-1.71-2.15-2.45c-0.73-0.73-1.56-1.45-2.45-2.15c-0.42-0.33-0.63-0.86-0.53-1.39
		l1.52-8.15c-0.67-0.37-1.35-0.71-2.05-1.03l-5.69,6.02c-0.37,0.38-0.91,0.53-1.43,0.38c-2.07-0.61-4.23-0.95-6.42-1.01
		c-0.53-0.01-1.01-0.33-1.24-0.8l-3.56-7.49c-0.75,0.1-1.51,0.22-2.28,0.37l-1.07,8.21c-0.07,0.53-0.43,0.98-0.94,1.16
		c-2.04,0.72-3.98,1.71-5.78,2.95c-0.43,0.3-1.01,0.34-1.48,0.08l-7.27-3.97c-0.29,0.26-0.56,0.53-0.83,0.8s-0.54,0.56-0.8,0.83
		l3.97,7.27c0.26,0.46,0.22,1.03-0.08,1.48c-1.24,1.81-2.23,3.75-2.95,5.78c-0.18,0.5-0.63,0.86-1.16,0.92l-8.21,1.07
		c-0.15,0.76-0.27,1.52-0.37,2.27l7.49,3.56c0.48,0.23,0.79,0.71,0.8,1.24c0.05,2.19,0.39,4.35,1.01,6.42
		c0.15,0.52,0,1.06-0.38,1.43l-6.02,5.69c0.33,0.72,0.68,1.4,1.03,2.05l8.15-1.52c0.52-0.08,1.06,0.11,1.37,0.53
		c0.68,0.88,1.4,1.71,2.15,2.45c0.73,0.73,1.56,1.45,2.45,2.15c0.42,0.33,0.63,0.86,0.53,1.39l-1.52,8.15
		c0.65,0.37,1.35,0.71,2.05,1.05l5.69-6.02c0.37-0.38,0.91-0.53,1.43-0.38c2.07,0.61,4.21,0.95,6.4,1.01
		c0.53,0.01,1.01,0.33,1.24,0.8l3.56,7.49c0.75-0.1,1.51-0.22,2.28-0.37l1.07-8.21c0.07-0.53,0.43-0.98,0.94-1.16
		c1.01-0.35,2.01-0.79,2.96-1.28c0.69-0.35,1.55-0.08,1.9,0.61c0.35,0.69,0.08,1.55-0.63,1.9c-0.8,0.41-1.63,0.79-2.49,1.11
		l-1.09,8.36c-0.08,0.58-0.52,1.07-1.1,1.2c-1.55,0.34-3.09,0.6-4.58,0.73C543.38,440.02,543.34,440.02,543.3,440.02z"/>
</g>
<g>
	<path class="st1" d="M530.89,418.16c-0.37,0-0.72-0.14-1.01-0.42l-3.86-3.86c-0.56-0.56-0.56-1.45,0-2l4.81-4.81
		c1.97-1.97,1.97-5.18,0-7.15l-4.81-4.81c-0.56-0.56-0.56-1.45,0-2l3.86-3.86c0.53-0.53,1.47-0.53,2,0l4.81,4.81
		c1.92,1.92,5.25,1.92,7.15,0l4.81-4.81c0.27-0.27,0.63-0.42,1.01-0.42l0,0c0.38,0,0.73,0.15,1.01,0.42l3.86,3.86
		c0.56,0.56,0.56,1.45,0,2l-4.81,4.81c-0.95,0.95-1.48,2.23-1.48,3.57s0.53,2.62,1.48,3.57l4.81,4.81c0.56,0.56,0.56,1.45,0,2
		l-3.86,3.86c-0.56,0.56-1.45,0.56-2,0l-4.81-4.81c-1.9-1.92-5.25-1.92-7.15,0l-4.81,4.81
		C531.62,418.03,531.26,418.16,530.89,418.16z M540.28,408.62c2.11,0,4.09,0.82,5.57,2.31l3.81,3.81l1.86-1.86l-3.81-3.81
		c-1.49-1.5-2.31-3.47-2.31-5.57s0.82-4.09,2.31-5.57l3.81-3.81l-1.86-1.86l-3.81,3.81c-2.98,2.98-8.17,2.98-11.16,0l-3.81-3.81
		l-1.86,1.86l3.81,3.81c3.07,3.07,3.07,8.09,0,11.16l-3.81,3.81l1.86,1.86l3.81-3.81C536.19,409.45,538.18,408.62,540.28,408.62z"/>
</g>
<g>
	<path class="st0" d="M590.16,452.13c-0.03,0-0.07,0-0.1,0c-0.99-0.07-1.98-0.19-2.95-0.38c-0.58-0.11-1.03-0.58-1.13-1.17
		l-0.77-4.93c-0.92-0.35-1.81-0.77-2.64-1.25l-4.32,2.5c-0.52,0.3-1.16,0.24-1.62-0.14c-0.79-0.67-1.52-1.35-2.16-2.04
		c-0.41-0.43-0.49-1.07-0.22-1.6l2.28-4.46c-0.27-0.41-0.52-0.83-0.75-1.25c-0.23-0.43-0.45-0.87-0.64-1.32l-4.97-0.52
		c-0.6-0.07-1.09-0.49-1.22-1.06c-0.23-0.94-0.42-1.93-0.54-2.92c-0.07-0.58,0.23-1.16,0.76-1.43l4.46-2.26
		c0.05-0.96,0.18-1.94,0.38-2.89l-3.72-3.34c-0.45-0.39-0.58-1.03-0.37-1.58c0.35-0.9,0.79-1.81,1.29-2.69
		c0.29-0.52,0.88-0.8,1.45-0.71l4.92,0.79c0.61-0.76,1.29-1.47,2.01-2.12l-1.05-4.88c-0.12-0.58,0.14-1.18,0.64-1.5
		c0.42-0.26,0.84-0.52,1.29-0.76c0.43-0.23,0.88-0.45,1.32-0.67c0.54-0.26,1.18-0.14,1.6,0.29l3.52,3.53
		c0.94-0.26,1.9-0.43,2.88-0.54l2.03-4.55c0.23-0.54,0.75-0.86,1.39-0.84c1.01,0.07,2,0.2,2.95,0.38c0.58,0.12,1.03,0.58,1.13,1.17
		l0.77,4.93c0.92,0.35,1.81,0.77,2.64,1.25l4.32-2.5c0.52-0.3,1.16-0.24,1.62,0.14c0.79,0.65,1.52,1.35,2.16,2.04
		c0.41,0.43,0.49,1.07,0.22,1.6l-2.28,4.46c0.27,0.41,0.52,0.83,0.75,1.25c0.23,0.43,0.45,0.87,0.64,1.32l4.97,0.52
		c0.6,0.07,1.09,0.49,1.22,1.06c0.23,0.92,0.42,1.92,0.53,2.92c0.07,0.58-0.23,1.16-0.76,1.43l-4.44,2.26
		c-0.05,0.96-0.18,1.94-0.39,2.89l3.72,3.34c0.45,0.39,0.58,1.03,0.37,1.58c-0.35,0.9-0.79,1.81-1.29,2.69
		c-0.29,0.52-0.87,0.82-1.45,0.71l-4.92-0.79c-0.61,0.76-1.29,1.47-2.01,2.12l1.05,4.88c0.12,0.58-0.14,1.18-0.64,1.5
		c-0.42,0.26-0.84,0.52-1.29,0.76c-0.43,0.23-0.88,0.46-1.33,0.67c-0.54,0.24-1.17,0.14-1.6-0.29l-3.52-3.53
		c-0.95,0.26-1.9,0.43-2.88,0.54l-2.03,4.57C591.22,451.8,590.72,452.13,590.16,452.13z M588.63,449.12
		c0.22,0.03,0.43,0.05,0.65,0.08l1.96-4.4c0.22-0.49,0.68-0.82,1.22-0.84c1.3-0.07,2.61-0.31,3.87-0.72
		c0.5-0.16,1.06-0.03,1.44,0.35l3.4,3.41c0.1-0.05,0.19-0.11,0.3-0.15c0.1-0.05,0.19-0.11,0.29-0.16l-1.02-4.72
		c-0.11-0.52,0.08-1.06,0.49-1.4c1.03-0.84,1.94-1.79,2.72-2.85c0.31-0.43,0.86-0.65,1.37-0.57l4.76,0.76
		c0.1-0.19,0.19-0.39,0.29-0.6l-3.59-3.22c-0.39-0.35-0.56-0.91-0.42-1.41c0.34-1.29,0.52-2.6,0.52-3.9c0-0.53,0.3-1.02,0.77-1.26
		l4.29-2.19c-0.04-0.22-0.07-0.43-0.12-0.64l-4.81-0.5c-0.53-0.05-0.98-0.39-1.17-0.9c-0.23-0.61-0.5-1.21-0.83-1.79
		c-0.31-0.58-0.67-1.14-1.06-1.67c-0.31-0.43-0.35-1.01-0.11-1.48l2.2-4.29c-0.16-0.15-0.31-0.3-0.48-0.45l-4.17,2.42
		c-0.46,0.27-1.03,0.26-1.48-0.04c-1.1-0.71-2.3-1.28-3.56-1.69c-0.5-0.16-0.87-0.6-0.97-1.13l-0.75-4.77
		c-0.22-0.03-0.43-0.05-0.65-0.08l-1.96,4.4c-0.22,0.49-0.68,0.82-1.22,0.84c-1.32,0.07-2.61,0.31-3.87,0.72
		c-0.5,0.16-1.06,0.03-1.44-0.35l-3.41-3.41c-0.1,0.05-0.19,0.1-0.29,0.15c-0.1,0.05-0.19,0.11-0.3,0.16l1.01,4.72
		c0.11,0.52-0.08,1.06-0.49,1.4c-1.03,0.84-1.94,1.79-2.72,2.85c-0.31,0.43-0.84,0.65-1.37,0.57l-4.76-0.76
		c-0.1,0.19-0.19,0.39-0.29,0.6l3.59,3.22c0.39,0.35,0.56,0.91,0.42,1.41c-0.34,1.29-0.52,2.6-0.52,3.9c0,0.53-0.3,1.02-0.77,1.26
		l-4.29,2.19c0.04,0.22,0.07,0.43,0.12,0.64l4.81,0.5c0.53,0.05,0.98,0.41,1.17,0.9c0.23,0.61,0.5,1.21,0.83,1.79
		c0.31,0.58,0.67,1.14,1.06,1.67c0.31,0.43,0.35,1.01,0.11,1.48l-2.2,4.29c0.16,0.15,0.31,0.3,0.48,0.45l4.17-2.42
		c0.46-0.27,1.03-0.26,1.48,0.04c1.1,0.71,2.3,1.28,3.56,1.69c0.5,0.16,0.87,0.6,0.97,1.13L588.63,449.12z"/>
</g>
<g>
	<path class="st2" d="M602.11,428.76c0,5.79-4.69,10.48-10.48,10.48s-10.48-4.69-10.48-10.48c0-5.79,4.69-10.48,10.48-10.48
		S602.11,422.97,602.11,428.76z"/>
</g>
<path class="st0" d="M823.05,506.31c-0.9,0.01-1.81-0.25-2.61-0.78l-33.87-22.7c-7.18,0.63-14.52-0.47-21.26-3.21
	c-1.07-0.43-1.58-1.65-1.14-2.72s1.65-1.58,2.72-1.14c6.33,2.59,13.32,3.52,20.06,2.86c0.6-0.08,1.2,0.15,1.63,0.55l34.19,22.92
	c0.18,0.12,0.36,0.12,0.52,0c0.18-0.12,0.24-0.28,0.18-0.5l-9-35.58c-0.31-0.7-0.21-1.54,0.31-2.15c6.39-7.62,9.87-17.25,9.81-27.16
	c-0.15-23.1-19.07-41.77-42.17-41.62c-6.9,0.05-13.73,1.8-19.74,5.09c-1.02,0.55-2.29,0.18-2.83-0.84
	c-0.55-1.02-0.18-2.29,0.84-2.83c6.61-3.61,14.12-5.55,21.7-5.6c25.41-0.17,46.21,20.37,46.37,45.76
	c0.07,10.53-3.49,20.78-10.06,29.01l8.84,34.9c0.47,1.88-0.24,3.81-1.83,4.93C824.9,506.02,823.98,506.3,823.05,506.31z"/>
<path class="st2" d="M725.03,393.3c-24.29,0.16-43.85,19.99-43.69,44.27c0.07,10.87,4.09,20.75,10.68,28.39l-0.04-0.02l-8.61,36.02
	c-0.55,2.27,2.01,4.02,3.93,2.7l34.16-23.55l-0.02-0.02c1.38,0.11,2.77,0.2,4.19,0.19c24.29-0.16,43.85-19.99,43.69-44.27
	C769.14,412.7,749.32,393.14,725.03,393.3z"/>
<path class="st0" d="M118.24,789.52c-0.79-0.03-1.39-0.7-1.36-1.47l1.31-32.43l-11.9-20.41c-0.09-0.15-0.15-0.32-0.17-0.48
	c-0.38-0.63-0.66-1.29-0.82-1.98l-6.8-29.37c-0.41-1.76-0.1-3.57,0.84-5.11c0.96-1.53,2.44-2.59,4.22-3.01
	c3.62-0.83,7.27,1.44,8.11,5.06l2.26,9.76c0.24-0.15,0.5-0.29,0.76-0.42l1.41-35.05c0.15-3.72,3.3-6.63,7.02-6.48
	c3.72,0.15,6.64,3.3,6.49,7.02l-0.18,6.93c1.25-1.08,2.9-1.69,4.66-1.62c3.72,0.15,6.63,3.3,6.48,7.02l-0.09,3.57
	c1.25-1.09,2.93-1.73,4.71-1.66c3.72,0.15,6.64,3.3,6.49,7.02l0,1.03c1.26-1.11,2.93-1.75,4.73-1.67c3.72,0.15,6.63,3.3,6.48,7.02
	l-0.37,9.09c1.56,1.1,2.49,2.92,2.42,4.87l-0.91,22.69c-0.01,0.2-0.06,0.39-0.15,0.58L155.36,757l-0.63,15.75
	c-0.03,0.79-0.7,1.39-1.47,1.36c-0.79-0.03-1.39-0.7-1.36-1.47l0.65-16.05c0.01-0.2,0.06-0.39,0.15-0.58l8.52-16.96l0.9-22.39
	c0.05-1.14-0.59-2.2-1.63-2.68c-0.52-0.24-0.84-0.77-0.82-1.34l0.4-9.93c0.09-2.16-1.61-4-3.77-4.08c-2.16-0.09-4,1.61-4.08,3.77
	l-0.61,9.7c-0.04,0.76-0.69,1.35-1.47,1.33c0,0,0,0-0.01,0c-0.76-0.03-1.36-0.65-1.36-1.41l0.09-15.64
	c0.09-2.21-1.61-4.05-3.76-4.14s-4,1.61-4.08,3.77l-1.05,15.55c-0.06,0.76-0.71,1.35-1.47,1.31c0,0,0,0-0.01,0
	c-0.77-0.03-1.37-0.68-1.36-1.46l0.63-24.02c0.09-2.19-1.61-4.02-3.77-4.11c-2.16-0.09-4,1.61-4.08,3.77l-1.25,24.04
	c-0.04,0.77-0.69,1.37-1.47,1.34l0,0c-0.77-0.03-1.37-0.68-1.36-1.46l0.97-35.91c0.09-2.19-1.61-4.01-3.77-4.1
	c-2.16-0.09-4,1.61-4.08,3.77l-1.45,36.03c-0.03,0.64-0.48,1.18-1.1,1.33c-0.85,0.2-1.58,0.77-1.95,1.54
	c-0.25,0.55-0.86,0.85-1.43,0.8c-0.6-0.06-1.1-0.51-1.23-1.08l-2.86-12.37c-0.49-2.11-2.61-3.44-4.71-2.94
	c-1.02,0.23-1.88,0.86-2.45,1.75c-0.55,0.89-0.73,1.94-0.49,2.97l6.8,29.37c0.12,0.48,0.33,0.95,0.65,1.4
	c0.14,0.2,0.23,0.43,0.26,0.66l11.88,20.37c0.14,0.24,0.2,0.5,0.19,0.77l-1.32,32.85C119.67,788.95,119.01,789.55,118.24,789.52z"/>
<path class="st0" d="M123.01,665.72c-0.79-0.03-1.39-0.7-1.36-1.47l0.53-13.2c0.03-0.79,0.7-1.39,1.47-1.36
	c0.79,0.03,1.39,0.7,1.36,1.47l-0.53,13.2C124.44,665.15,123.78,665.75,123.01,665.72z"/>
<path class="st0" d="M131.02,667.02c-0.37-0.01-0.71-0.16-0.99-0.46c-0.53-0.58-0.5-1.48,0.08-2l5.33-4.91
	c0.58-0.53,1.48-0.5,2,0.08c0.53,0.58,0.5,1.48-0.08,2l-5.33,4.91C131.75,666.91,131.37,667.03,131.02,667.02z"/>
<path class="st0" d="M115.44,666.39c-0.37-0.01-0.71-0.16-0.99-0.46l-4.35-4.72c-0.53-0.58-0.5-1.48,0.08-2
	c0.58-0.53,1.48-0.5,2,0.08l4.35,4.72c0.53,0.58,0.5,1.48-0.08,2C116.17,666.28,115.81,666.41,115.44,666.39z"/>
<path class="st0" d="M137.09,673.63l-4.05-0.16c-0.79-0.03-1.39-0.7-1.36-1.47c0.03-0.79,0.7-1.39,1.47-1.36l4.05,0.16
	c0.79,0.03,1.39,0.7,1.36,1.47C138.53,673.05,137.88,673.66,137.09,673.63z"/>
<path class="st0" d="M112.72,672.65l-4.03-0.16c-0.79-0.03-1.39-0.7-1.36-1.47c0.03-0.79,0.7-1.39,1.47-1.36l4.03,0.16
	c0.79,0.03,1.39,0.7,1.36,1.47C114.15,672.07,113.49,672.68,112.72,672.65z"/>
<g>
	<path class="st4" d="M-608.34,94.44c-0.37-0.56-0.92-0.63-1.52-0.54C-609.53,94.57-608.96,94.57-608.34,94.44z"/>
	<path class="st4" d="M-608.22,94.54c0-0.04,0.01-0.08,0.01-0.12c-0.04,0.01-0.09,0.02-0.13,0.02c0.02,0.04,0.05,0.05,0.08,0.09
		C-608.25,94.54-608.23,94.54-608.22,94.54z"/>
	<path class="st4" d="M-629.01,80.54c-0.09,0.05-0.21,0.06-0.35,0C-629.22,80.6-629.1,80.6-629.01,80.54z"/>
	<path class="st4" d="M-617.32,79.95c-0.05-0.04-0.1-0.08-0.16-0.12l0,0.01C-617.42,79.87-617.37,79.91-617.32,79.95z"/>
	<path class="st4" d="M-629.37,80.52L-629.37,80.52c0.01,0,0.01,0.02,0.02,0.03C-629.36,80.54-629.37,80.52-629.37,80.52z"/>
	<path class="st4" d="M-556.72,112.31c-0.78-1.69-1.63-3.35-2.51-4.99c-0.16-0.31-0.58-0.59-0.93-0.69
		c-0.63-0.18-1.33-0.39-1.95-0.26c-1.15,0.23-2.11-0.05-3.02-0.65c-1.11-0.73-2.59-0.86-3.47-1.92c-1.44-1.75-3.51-2.32-5.46-3.16
		c-0.89-0.38-1.81-0.49-2.74-0.35c-3.19,0.49-6.37,0.28-9.54-0.16c-0.36-0.05-0.79,0.08-1.13,0.25c-0.47,0.23-0.89,0.59-1.34,0.87
		c-0.34,0.21-0.74,0.06-0.96-0.37c-0.31-0.59-0.52-1.25-0.92-1.77c-0.3-0.39-0.85-0.88-1.26-0.86c-1.81,0.08-3.33-0.82-4.98-1.29
		c-1.29-0.36-2.57-0.61-3.94-0.53c-1.19,0.08-2.07,0.42-2.51,1.57c-0.04,0.11-0.18,0.23-0.28,0.24c-0.26,0.02-0.36-0.18-0.32-0.51
		c0.04-0.26,0.06-0.52,0.09-0.79c0.12-1.09-0.61-1.62-1.25-1.79c-1.01-0.27-2.05-0.42-3.07-0.61c-0.02,0.23-0.04,0.46-0.06,0.69
		c0.02,0,0.04,0,0.07,0l0.14,0.12l-0.21-0.04c0-0.02,0.01-0.04,0.01-0.07c-1.14-0.02-2.2,0.16-2.99,1.09
		c-0.38-0.59-0.97-0.58-1.58-0.55c0.75-0.94,1.75-1.51,2.85-1.93c0.16-1.03,0.34-2.05,0.44-3.08c0.07-0.67-0.04-1.33-0.57-1.84
		c-0.57-0.55-0.95-1.24-1.58-1.78c-1.22-1.04-2.17-2.34-2.63-3.93c-0.23-0.8-0.67-1.46-1.31-1.96c-0.11-0.09-0.22-0.17-0.33-0.26
		l-1.87,3.25l-0.71,1.24l0.04,0.62l-1.04,2.4l-0.24,0.73l-0.67,0.21l-0.19,0.62l-0.6,0.53l-0.45-0.14l-0.12-0.71l-0.44-0.38
		l-0.52,0.13l-0.43,0.54l-0.68-0.09l-0.41-0.41l0-0.27l-0.32-0.23l-0.29-0.82l-0.68-0.09l-0.29-0.43l-0.95,0.08l-0.69,0.32
		l-0.74,0.22l-0.69,0.02l-0.7-0.02l-0.64,0.47l0,0.59l0.69,0.55l0.59,1.05l-0.18,0.19l-0.47-0.01l-0.63-0.02l-0.39-0.19l-0.6-0.11
		l-0.15-0.12l0.37,0.32l-1.34,0.16l-0.32,0.07l-0.26-0.23l-0.58,0.11l-1.13,0.5l-0.18,1.01l-0.91,0.14l-0.74,0.16l-0.46,0.32
		l-0.36,0.63l-0.64,0.15l-0.18-0.15l-0.36,0.28l-0.42,0.41l-0.61-0.16l-1.14-0.69l-0.66-0.52l-0.18-0.67l-1.6-1.23l-0.09-0.75
		l-0.03-0.49l-0.13-0.84l0.06-0.87l0.31-1.06l0.39-0.91l0.43-1.11l-0.05-0.39l-0.51,0.13l-0.63-0.82l-0.75,0.09l-0.52-0.2l0.53-1.09
		l-0.14-0.91l-0.57-0.6l-0.77-0.08l-0.33,0.3l-0.42-0.18l-0.16,0.02l-0.3,1.22l-1.09,1.18l-0.69,0.48l-1.15,0.31l-0.89,0.73
		l-1.03-0.11l-1.04,0.56l-1.05,0.79l-1.29,0.24l-1.91,0.23l-1.27-0.29l-1.79-0.27l0.77,0.92l0.82,0.25l0.51,1.35l-0.49,0.76
		l0.02,0.92c0,0-0.03,0.49,0.16,0.64c0.2,0.16,0.55,0.56,0.55,0.56s1.09-0.13,1.41-0.04c0.32,0.1,0.95,0.2,1.35,0.24
		c0.4,0.04,0.77,0.17,0.32,0.45c-0.45,0.27-0.52,0.45-0.89,0.64c-0.38,0.17-0.84,0.4-1.12,0.57c-0.29,0.17-0.67,0.74-0.8,1.06
		c-0.14,0.33-0.38,0.88-0.66,1.14c-0.28,0.25-1.68,1.08-1.79,1.27c-0.11,0.19-0.85,1.02-1.15,1.46c-0.3,0.43-1.24,0.32-1.81,0.39
		c-0.42,0.05-2.21-1.02-3.08-1.56c-0.08,0.04-0.69,0.33-0.83,0.18c-0.15-0.16-0.37-2.77-1.62-2.54c-1.25,0.23-0.83,1.2-1.24,1.07
		c-0.41-0.12-0.94-0.46-1.48,0.13c-0.55,0.59-3.67,0.65-3.67,0.65s-0.12,1.2,0.51,1.66c0.63,0.46,1.31,0.24,1.42,0.85
		c0.11,0.6,0.86,1.66,0.14,1.53c-0.72-0.14-0.51-0.61-1.42-0.1c-0.91,0.5-1.48,0.57-1.35,1.26c0.12,0.69-0.29,1.68,1.24,2.34
		c1.53,0.66,1.98,1.85,2.04,2.72c0.06,0.87-1.37,9.3-1.37,9.3s-0.01-0.09-0.04-0.21l-0.41,1.24c0,0-1.55-0.43-1.89-0.3
		c-0.34,0.13-2.53,1-2.53,1l-2.73,1.55l-1.19,1.11l-0.7,0.79l0.07,1.4l-0.64,1.31c0,0,0.48,1.79,0.23,1.91
		c-0.25,0.12-0.71,0.7-1.23,0.76c-0.52,0.06-0.17,1.61-0.31,1.89c-0.14,0.28,0.21,1.74,0.58,1.96c0.38,0.22,2.42,3.33,2.42,3.33
		l-0.39,1.2c0,0,2.49-0.56,3.03-0.45c0.54,0.11,1.01,1.82,2.23,1.76c1.23-0.06,1.86,0.05,2.92-1.4c1.06-1.45,1.52-0.54,1.18,0.3
		c-0.34,0.83,0.67,3.44,0.94,4.21c0.27,0.76,2.58-0.57,2.88-0.25c0.12,0.13,0.66,0.69,1.29,1.36c-0.57-0.6-1.06-1.11-1.23-1.3
		l0.41-0.19l2.55-0.23l1.1-0.72l0.65-0.08l0.51-0.72l0.8,0.04l0.74-0.42l0.3-1.36l1.89-1.35l1.63-0.72l1.57-0.18l1.05-0.06
		l0.62,1.91l-0.1,1.4l0.06,1.64l1.24,1.58l1.84,1.57l1.54,0.74l0.98-0.65l1.44,0.43l1.76,0.32l0.95,0.81l1.63,0.34l1.29,0.31l0.45,1
		l1.01,0.15l2.14-0.32l1.54,0.74l0.26,1.69l0.34,1.21l-0.33,1.1l1.11,1.06l0.57,1.99l5.77-0.41l0.53,3.37l1.68,0.27l1.62,1.99
		l0.89,2.54l-0.7,1.93l-0.69,2.53l-0.04-0.02l0.31,0.44l-0.15,0.59l0.85,0.52l0.23,0.81l0.52,1l0.18,1.52l0.26,1.42l-0.15,0.94
		l0.45,0.43l1.11-0.31l0.47,0.21l1.05-0.08l0.78-0.09l0.59,0.15l1.53-0.84c0,0,0.97,0.77,1.54,0.7l0.52,1.44l0.99,2.39l0.76,1.54
		l0.63,0.1l1.2-1.02l0.97,0.37l0.49,0.42l0.05,1.54l-0.07,1.29l0.28,0.85l-0.07,1.53l0.57-0.35l1.47,0.09l0.06,0.52l0.87,1.49
		l0.11,0.42l0.1,0.82l0.5,2.25l-0.27,0.5l-0.46,0.02l-0.86,0.5l-0.32,0.7l-0.24-0.1l-1.43,1.06l0.01,0.4l-0.61,0.17l-0.49,0.35
		l-0.53,0.82l-0.58,0.4l0.13,0.55l-0.23,0.26l-0.72,0.08l-1.03,1.61l0.07,0.56l0.04,0.62l-0.4,0.01l-0.27,0.47l-0.56,1.42l-0.8,1.31
		l-0.05,0.37l-0.46,0.36l-0.02,0.43l0.23-0.03l0.67,0.09l1.58-0.62l0.6,0.29l0.44,0.41l0.5,0.6l0.72,0.21l0.52,0.77l0.94,1.28
		l0.32-0.07l0.64-0.77l0.37,0.02l0.89,1.12l0.66,0.25l1.14,0.13l0.78,0.74l0.22,0.7l0.39-0.05l1.8,0.65l1.25,1.58l0.86,0.56
		l-0.14,0.55l-0.63,1.4l0.37,0.35l0.04,0.33l0.6,0.59l0.98,0.78c0.1-0.14,0.18-0.29,0.31-0.42c0.89-0.9,1.24-2.02,1.41-3.23
		c0.18-1.31,0.35-2.63,0.53-3.95l0.09,0.09c0.01-0.05,0.02-0.09,0.02-0.13c-0.02,0.01-0.04,0.02-0.06,0.03
		c-0.44-1.06-0.38-1.58,0.38-2.14c0.26-0.2,0.6-0.29,0.92-0.41c0.1-1.03,0.3-2.03,0.78-2.95c0.11-0.2,0.38-0.42,0.59-0.44
		c0.15-0.01,0.38,0.27,0.48,0.46c0.17,0.33,0.27,0.68,0.4,1.02c0.72-0.17,1.01-0.79,1.19-1.39c0.78-2.69,1.65-5.32,3-7.81
		c0.89-1.65,1.32-3.52,0.08-5.32c-0.15-0.2-0.2-0.49-0.27-0.74c-0.66-2.32-0.47-4.45,1.26-6.31c0.72-0.78,1.42-1.59,2.07-2.43
		c1.08-1.41,2.48-2.46,4.02-3.2c0.87-0.41,1.59-0.84,2.18-1.58c0.49-0.62,1.17-1.09,1.26-1.98c0.02-0.15,0.4-0.39,0.59-0.37
		c0.82,0.09,1.56-0.19,2.33-0.39c0.75-0.2,1.58-0.1,2.36-0.21c1.48-0.21,2.79-0.64,3.64-2.09c0.38-0.64,1.24-0.98,1.82-1.53
		c0.39-0.37,0.59-0.88,0.37-1.45c-0.24-0.65-0.23-1.28,0.04-1.94c0.62-1.46,1.13-2.99,1.85-4.41c0.57-1.14,0.79-2.24,0.48-3.46
		c-0.24-0.91-0.37-1.9,0.09-2.73c0.89-1.62,0.86-3.34,0.73-5.07c-0.16-2.12-0.41-4.24-0.66-6.36c-0.18-1.45-0.46-2.88-0.62-4.34
		c-0.07-0.67,0.06-1.4,0.68-1.77c1.74-1.03,2.6-2.6,2.99-4.52c0.08-0.39,0.28-0.74,0.4-1.13c0.37-1.16,0.92-2.18,1.75-3.1
		c0.99-1.08,1.87-2.26,2.74-3.44c0.87-1.19,1.52-2.49,1.89-3.94C-556.29,116.44-556.24,113.33-556.72,112.31z M-611.7,97.35
		c-0.25,0.43-0.89,0.62-1.28,0.41c-0.38-0.21-0.45-0.59-0.36-0.96c0.07-0.3,0.24-0.58,0.39-0.86c0.06,0.19,0.11,0.39,0.2,0.56
		c0.2,0.39,0.54,0.52,0.93,0.35c0.16-0.06,0.3-0.17,0.44-0.27C-611.48,96.85-611.56,97.11-611.7,97.35z M-607.23,101.24
		c0-0.08-0.03-0.22,0.01-0.24c0.2-0.14,0.42-0.26,0.64-0.35c0.04-0.01,0.21,0.13,0.22,0.22c0.01,0.08-0.08,0.25-0.16,0.27
		C-606.75,101.21-607,101.21-607.23,101.24z M-605.15,110.04c-0.01,0.02-0.18,0.04-0.22,0c-0.24-0.29-0.46-0.59-0.7-0.88
		c-0.2-0.26-0.18-0.48,0.09-0.62c0.07-0.03,0.25,0.08,0.32,0.18c0.21,0.3,0.4,0.62,0.56,0.87
		C-605.12,109.79-605.12,109.92-605.15,110.04z M-597.02,155.66l-0.29-0.07l0.27-0.14L-597.02,155.66z"/>
	<path class="st4" d="M-594.91,200.93c0.02-0.01,0.04-0.02,0.05-0.03c-0.01-0.03-0.02-0.05-0.03-0.08c-0.02,0-0.03,0.02-0.05,0.02
		C-594.94,200.87-594.93,200.9-594.91,200.93z"/>
	<path class="st4" d="M-597.12,202.8c-0.34,0.49-0.71,0.98-0.99,1.51c-0.15,0.28-0.19,0.62-0.25,0.95c2.09-0.52,3.15-1.96,3.51-4.03
		c0.01-0.09-0.02-0.2-0.06-0.3c-0.31,0.17-0.65,0.3-0.9,0.53C-596.28,201.87-596.69,202.35-597.12,202.8z"/>
	<path class="st4" d="M-597.12,202.8c0.02-0.04,0.05-0.07,0.08-0.11c-0.03,0.01-0.06,0.02-0.09,0.04c0,0.03-0.02,0.07-0.02,0.11
		C-597.14,202.82-597.13,202.81-597.12,202.8z"/>
	<path class="st4" d="M-609.86,93.9c-0.02-0.03-0.04-0.05-0.06-0.09c-0.03,0.01-0.05,0.02-0.07,0.03c0,0.02-0.01,0.05-0.01,0.07
		C-609.96,93.91-609.91,93.91-609.86,93.9z"/>
</g>
<path class="st5" d="M589.98,44.92L348.2,68.58c-14.6,1.08-25.9,13.24-25.9,27.89v130c0,16.55,14.3,29.48,30.77,27.82l241.78,0.14
	c14.29-1.44,25.16-13.47,25.16-27.82V72.81C620.01,56.55,606.19,43.72,589.98,44.92z M587.81,226.46l-233.32,0.27V96.94l233.32-0.27
	V226.46z"/>
<g>
	<g>
		<path class="st6" d="M560.28,81.17c-0.32,0-0.65-0.11-0.92-0.33c-0.61-0.51-0.69-1.41-0.18-2.01l10.76-12.9
			c1.31-1.57,3.55-1.98,5.33-0.99c1.85,1.04,2.66,3.31,1.87,5.28c0,0,0,0.01,0,0.01l-2.45,6c-0.27,0.68-0.01,1.46,0.61,1.84
			c0.6,0.37,1.37,0.23,1.88-0.35l4.73-5.65c0.51-0.61,1.41-0.69,2.01-0.18c0.61,0.51,0.69,1.41,0.18,2.01l-4.73,5.66
			c0,0.01-0.01,0.01-0.01,0.02c-1.43,1.65-3.76,2.03-5.56,0.92c-1.8-1.12-2.54-3.37-1.75-5.34c0,0,0-0.01,0-0.01l2.45-6
			c0.26-0.64-0.01-1.38-0.61-1.72c-0.58-0.32-1.31-0.19-1.74,0.32l-10.76,12.9C561.1,81,560.69,81.17,560.28,81.17"/>
	</g>
</g>
<g>
	<line class="st7" x1="507.91" y1="144.38" x2="574.35" y2="108.51"/>
	<line class="st7" x1="373.35" y1="217.03" x2="425.21" y2="189.03"/>
	<line class="st7" x1="510.75" y1="182.79" x2="569.86" y2="215.61"/>
	<line class="st7" x1="372.73" y1="108.64" x2="426.24" y2="138.35"/>
</g>
<g>
	<path class="st2" d="M480.56,160.14l-16.61-12.07c-0.61-0.44-1.42-0.51-2.09-0.17c-0.67,0.34-1.09,1.03-1.09,1.78v24.14
		c0,0.76,0.42,1.45,1.09,1.79c0.28,0.14,0.6,0.22,0.91,0.22c0.41,0,0.83-0.13,1.18-0.39l16.61-12.06c0.52-0.39,0.83-0.98,0.83-1.62
		C481.39,161.11,481.08,160.52,480.56,160.14z"/>
	<path class="st2" d="M467.36,121.71c-22.09,0-40,17.9-40,40c0,22.09,17.9,39.98,40,39.98c22.09,0,39.99-17.9,39.99-39.98
		C507.36,139.62,489.45,121.71,467.36,121.71z M467.36,195.02c-18.4,0-33.32-14.91-33.32-33.31c0-18.39,14.92-33.32,33.32-33.32
		c18.4,0,33.31,14.92,33.31,33.32C500.68,180.11,485.76,195.02,467.36,195.02z"/>
</g>
</svg>
