<?xml version="1.0" encoding="utf-8"?>
<!-- Generator: Adobe Illustrator 21.0.0, SVG Export Plug-In . SVG Version: 6.00 Build 0)  -->
<svg version="1.1" id="Layer_1" xmlns="http://www.w3.org/2000/svg" xmlns:xlink="http://www.w3.org/1999/xlink" x="0px" y="0px"
	 viewBox="0 0 462.4 373.1" style="enable-background:new 0 0 462.4 373.1;" xml:space="preserve">
<style type="text/css">
	.st0{fill:#FFFFFF;}
</style>
<path class="st0" d="M52.3,326.4c0-8.3-6.4-15.5-15.2-15.5c-9.4,0-15.3,7.4-15.3,15.6c0,8.5,5.9,15.7,15,15.7
	C46.7,342.2,52.3,334.3,52.3,326.4L52.3,326.4z M10.2,283.6h12.1v17.8v6.1c5-6.2,12.3-7.8,16.9-7.8c12,0,25.3,8.8,25.3,26.6
	c0,17.2-12,27.1-25.8,27.1c-7.9,0-14.1-3.9-16.8-8.9v7.3H10.2V283.6z"/>
<path class="st0" d="M124,333.4c-2.9,11.2-12.9,20-26,20c-16,0-27.1-12.4-27.1-26.9c0-14.9,11.5-26.8,26.6-26.8
	c12.7,0,23.5,8,26.5,20.4h-12.4c-2.1-5.3-7-9.1-13.6-9.1c-4.4-0.1-7.8,1.5-10.8,4.3C84.6,318,83,322,83,326.5
	c0,9.1,6.4,15.6,14.9,15.6c7.6,0,11.8-4.5,13.6-8.7H124z"/>
<path class="st0" d="M154.9,314.9c-0.1-2.7-1.5-5.4-6.2-5.4c-4.1,0-6,2.6-6,5.1c0.1,3.2,3.8,5,8.6,6.4c8.1,2.2,16.9,4.6,17,15.5
	c0.2,10.4-8.6,17.1-19.2,17.1c-7.8,0-18.4-4.1-19.4-16.3h12.1c0.5,5.4,5.2,6.5,7.5,6.5c3.8,0,7-2.5,6.9-5.9c0-4.3-3.8-5.5-13.1-8.8
	c-6.8-2.1-12.4-5.9-12.4-13.2c0-10,8.4-16.1,18.2-16.1c6.8,0,17,3,18,15.2H154.9z"/>
<path class="st0" d="M175.8,301.7h9v7.1c2.1-4.2,7.9-8.6,15.2-8.6c4.6,0,9.4,1.4,12.9,5.4c1.3,1.3,2.7,4,3.2,4.9
	c0.8-1.5,1.8-3.2,3.6-5c3.2-3.2,7.8-5.3,13.3-5.3c4.6,0,9.8,1.3,13.5,5.1c4.4,4.5,5.5,9.3,5.5,18.9v27.7h-9.6v-27.3
	c0-4.1-0.6-8.3-2.8-11.2c-1.8-2.6-4.4-4.1-8.9-4.1c-4.2,0-7.8,1.7-9.7,4.8c-2,3.1-2.3,5.9-2.3,10.1v27.7h-9.7v-27.7
	c0.1-4.1-0.4-7.2-2-10c-1.8-3-4.8-4.9-9.5-5c-4.5-0.1-7.8,2.1-9.5,4.9c-1.8,2.7-2.7,6.2-2.7,10.2v27.5h-9.6V301.7z"/>
<path class="st0" d="M302,322.3c-0.5-6.6-7.1-14.1-16.6-13.9c-9.8,0-16.1,7.1-16.6,13.9H302z M268.6,329.8
	c0.5,10.1,9.3,15.3,16.9,15.3c6.7,0,11.7-3.2,14.5-8.5h10c-2.4,5.5-5.9,9.7-10.1,12.4c-4.2,2.9-9.2,4.2-14.3,4.2
	c-16.4,0-26.6-13.2-26.6-26.5c0-14.4,11.2-26.6,26.5-26.6c7.2,0,13.7,2.7,18.5,7.4c5.9,6,8.4,13.8,7.6,22.2H268.6z"/>
<path class="st0" d="M325.8,326.8c0.1,9.2,6.6,17.6,17.6,17.6c4.9,0,9.4-2,12.5-5.3c3.2-3.2,5.1-7.7,4.9-12.6c0-5-1.9-9.3-5.1-12.4
	c-3.1-3.1-7.5-5-12.4-5C332.8,309.1,325.8,317.3,325.8,326.8L325.8,326.8z M369.9,351.8h-9.2v-8.8c-2.8,5.2-8.4,10.2-18.7,10.2
	c-15.8,0-25.7-12.2-25.7-26.6c0-15.6,11.2-26.5,25.5-26.5c10.2,0,16.5,5.7,18.5,9.7V301v-17.4h9.6V351.8z"/>
<path class="st0" d="M380.7,301.7h9.6v50.2h-9.6V301.7z M380.7,283.6h9.6v10.1h-9.6V283.6z"/>
<path class="st0" d="M407.8,326.9c0.1,7.5,5.3,17.4,17.5,17.4c7.7,0,13.1-4.2,15.6-10c1.1-2.3,1.7-4.9,1.8-7.5s-0.4-5.2-1.5-7.5
	c-2.4-5.8-8-10.3-16-10.3C414.6,309.1,407.8,317.4,407.8,326.9L407.8,326.9z M452.1,351.8h-9.6v-8.8c-3.5,6.7-10.7,10.2-18.6,10.2
	c-16.1,0-25.7-12.5-25.7-26.6c0-15.3,11.2-26.6,25.7-26.6c10,0,16.3,5.5,18.6,10.3v-8.9h9.6V351.8z"/>
<path class="st0" d="M70.1,245.9c-4.4,0-8.9-1.5-12.6-4.6c-8.3-7-9.4-19.4-2.5-27.7L203,36.5c18-21.5,48.8-27.2,73.3-13.5
	c25.5,14.3,36.5,45.5,25.6,72.6c0,0,0,0.1,0,0.1l-33.7,82.4c-3.7,9.4-0.2,20,8.3,25.3c8.2,5.1,18.8,3.2,25.8-4.8l65-77.6
	c7-8.3,19.4-9.4,27.7-2.4c8.3,7,9.4,19.4,2.4,27.7L332.3,224c-0.1,0.1-0.1,0.2-0.2,0.2c-19.6,22.6-51.8,27.9-76.4,12.5
	c-24.7-15.4-34.8-46.3-24-73.4c0,0,0-0.1,0-0.1l33.7-82.4c3.5-8.8-0.1-19-8.4-23.6c-8-4.5-18-2.6-23.9,4.4l-148,177.2
	C81.3,243.5,75.7,245.9,70.1,245.9"/>
</svg>
