<?xml version="1.0" encoding="utf-8"?>
<!-- Generator: Adobe Illustrator 24.0.3, SVG Export Plug-In . SVG Version: 6.00 Build 0)  -->
<svg version="1.1" id="Layer_1" xmlns="http://www.w3.org/2000/svg" xmlns:xlink="http://www.w3.org/1999/xlink" x="0px" y="0px"
	 viewBox="0 0 1500 1500" style="enable-background:new 0 0 1500 1500;" xml:space="preserve">
<style type="text/css">
	.st0{fill:#C62031;}
</style>
<g>
	<g>
		<g>
			<path class="st0" d="M1174.2,305.4H423c-4,0-7.9,1.6-10.5,4.6c-5.6,6.7-3.1,16.2,3.8,19.9l175.2,94.3c0,0,0,0,0,0l40.8,271.9
				c1.5,9.4,12.6,14.3,20.5,8.7l171.1-121.6c0,0,0,0,0.1,0l121.3,66.7c5.8,3.2,13.2,1.4,17-4l127.5-183.3c4.1-5.9,2.7-14.1-3.3-18.2
				c-5.9-4.1-14-2.7-18.2,3.3L947.5,621.5c0,0-0.1,0-0.1,0l-241.8-133c0,0,0-0.1,0-0.1l435.3-145.1c0.1,0,0.1,0,0.1,0.1l-36.1,51.9
				c-4.1,5.9-3.1,14.2,2.6,18.5c5.9,4.4,14.3,2.9,18.4-3.1l59-84.8c0.4-0.5,0.7-1.1,1-1.7C1190.2,315.6,1183.7,305.4,1174.2,305.4z
				 M798.4,569.3c0,0,0,0.1,0,0.1l-136.2,96.8c0,0-0.1,0-0.1-0.1l21.3-159.9c0,0,0.1-0.1,0.1,0L798.4,569.3z M1007.4,360.3
				L668.9,473.1c-4.7,1.6-8.2,5.8-8.8,10.7l-15.6,117.1c0,0.1-0.1,0.1-0.1,0l-26.1-174.2c0,0,0-0.1,0.1-0.1l389.1-66.4
				C1007.5,360.2,1007.5,360.3,1007.4,360.3z M1019.5,331.6l-413.8,70.7c0,0,0,0,0,0l-131.2-70.6c-0.1,0,0-0.1,0-0.1h545
				C1019.6,331.5,1019.6,331.6,1019.5,331.6z"/>
		</g>
	</g>
	<g>
		<g>
			<g>
				<path class="st0" d="M547,827.7c-3.7,0.1-7.4,0.2-11.1,0.4c-7.2,0.5-12.6,6.7-12.2,13.9c0.4,6.9,6.2,12.2,13,12.2
					c0.3,0,0.6,0,0.9,0c3.3-0.2,6.6-0.3,9.8-0.4c7.2-0.1,13-6,12.9-13.2C560.2,833.4,554.2,827.6,547,827.7z"/>
			</g>
		</g>
		<g>
			<g>
				<path class="st0" d="M611.2,836.9c-6.8-2.2-13.9-4-21.1-5.5c-7.1-1.4-13.9,3.2-15.3,10.3c-1.4,7.1,3.2,13.9,10.3,15.3
					c6.2,1.2,12.3,2.8,18.1,4.7c6.8,2.2,14.2-1.6,16.4-8.4C621.8,846.5,618,839.2,611.2,836.9z"/>
			</g>
		</g>
		<g>
			<g>
				<path class="st0" d="M475.3,957.7c-1-6-1.6-12.1-1.8-18.2c-0.2-7.2-6.2-12.9-13.4-12.7c-7.2,0.2-12.9,6.1-12.7,13.4
					c0.2,7.4,0.9,14.8,2.1,22c1.2,7,8.1,11.9,15.1,10.7C471.7,971.6,476.5,964.8,475.3,957.7z"/>
			</g>
		</g>
		<g>
			<g>
				<path class="st0" d="M538.9,1038.3c-5.5-2-10.9-4.5-15.9-7.5c-6.2-3.7-14.2-1.7-17.9,4.5c-3.7,6.2-1.7,14.2,4.5,17.9
					c6.5,3.9,13.5,7.2,20.6,9.7c7.1,2.5,15-1.7,17-8.9C548.9,1047.6,545.3,1040.6,538.9,1038.3z"/>
			</g>
		</g>
		<g>
			<g>
				<path class="st0" d="M555.9,777.3c-4.5-5.6-12.7-6.6-18.3-2.1c-5.5,4.4-11,9.1-16.1,13.9c-5.3,4.9-5.6,13.2-0.7,18.4
					c4.8,5.2,13.2,5.5,18.4,0.7c4.7-4.3,9.6-8.6,14.6-12.5C559.4,791.2,560.4,782.9,555.9,777.3z"/>
			</g>
		</g>
		<g>
			<g>
				<path class="st0" d="M496.6,1007.2c-3.6-4.7-6.9-9.8-9.7-15.1c-3.4-6.4-11.3-8.8-17.6-5.4c-6.4,3.4-8.8,11.3-5.4,17.6
					c3.5,6.7,7.6,13,12.2,18.9c4.7,6.1,13.9,6.7,19.4,1.4C500.1,1020,500.6,1012.4,496.6,1007.2z"/>
			</g>
		</g>
		<g>
			<g>
				<path class="st0" d="M477,868.6c-6.6-2.8-14.3,0.3-17.1,6.9c-3.1,7.3-5.7,14.5-7.4,20.8c-1.9,7,2.2,14.1,9.2,16
					c1.1,0.3,2.3,0.5,3.4,0.5c5.7,0,11-3.8,12.6-9.6c1-3.6,2.8-9.5,6.2-17.4C486.7,879,483.6,871.4,477,868.6z"/>
			</g>
		</g>
		<g>
			<g>
				<path class="st0" d="M511,818.2c-5.7-4.4-13.9-3.4-18.3,2.3c-4.4,5.6-8.5,11.4-12.4,17.3c-4,6-2.3,14.1,3.7,18.1
					c5.9,3.9,14.2,2.2,18.1-3.7c3.5-5.3,7.3-10.6,11.2-15.6C517.7,830.8,516.7,822.6,511,818.2z"/>
			</g>
		</g>
		<g>
			<g>
				<path class="st0" d="M668.2,871.2c-5.1-5.3-10.9-10.3-17.3-14.7c-5.9-4.1-14-2.7-18.2,3.2c-4.1,5.9-2.7,14,3.2,18.2
					c5,3.5,9.5,7.4,13.5,11.5c4.9,5.1,13.3,5.3,18.5,0.3C673.1,884.6,673.2,876.4,668.2,871.2z"/>
			</g>
		</g>
		<g>
			<g>
				<path class="st0" d="M607.2,1051c-1.5-7-8.4-11.5-15.5-10c-5.4,1.2-11.1,1.9-17,2.3l-1,0.1c-7.2,0.4-12.7,6.5-12.4,13.7
					c0.3,7,6.1,12.4,13,12.4c0.2,0,0.4,0,0.7,0l1.3-0.1c7.1-0.4,14.1-1.4,20.8-2.8C604.3,1065,608.8,1058.1,607.2,1051z"/>
			</g>
		</g>
		<g>
			<g>
				<path class="st0" d="M696.2,933.5c-0.6-7.9-2.1-15.6-4.3-22.7c-2.1-6.9-9.5-10.7-16.3-8.6c-6.9,2.1-10.7,9.5-8.6,16.3
					c1.7,5.3,2.7,11,3.2,17c0.6,7.1,6.9,12.6,14,12C691.3,947,696.8,940.6,696.2,933.5z"/>
			</g>
		</g>
		<g>
			<g>
				<path class="st0" d="M682.5,962.1c-6.9-2-14.2,1.9-16.2,8.8c-1.7,5.8-3.9,11.4-6.6,16.8c-3.2,6.5-0.5,14.3,6,17.5
					c6.4,3.1,14.3,0.4,17.5-6c3.3-6.7,6-13.7,8.2-20.9C693.4,971.4,689.4,964.1,682.5,962.1z"/>
			</g>
		</g>
		<g>
			<g>
				<path class="st0" d="M609,748c-3.1-6.5-10.8-9.3-17.4-6.3c-6.4,3-12.8,6.3-18.9,9.7c-4.9,2.8-7.5,8.5-6.4,14
					c1.2,6,6.7,10.4,12.8,10.4c2.2,0,4.4-0.5,6.4-1.7c5.5-3.1,11.3-6.1,17.1-8.8C609.3,762.3,612.1,754.5,609,748z"/>
			</g>
		</g>
		<g>
			<g>
				<path class="st0" d="M657.1,1017c-5-5.2-13.2-5.4-18.5-0.5c-4.3,4.1-9,7.8-14,11c-6.1,3.9-7.8,12-3.9,18c3.9,6,12.1,7.7,18,3.9
					c6.3-4.1,12.3-8.8,17.8-14C661.9,1030.5,662.1,1022.2,657.1,1017z"/>
			</g>
		</g>
		<g>
			<g>
				<path class="st0" d="M657.8,732.7c-1.9-7-9-11.1-16-9.2c-3.5,0.9-7,1.9-10.5,3c-6.5,2-10.5,8.9-8.9,15.6
					c1.8,7.2,9.4,11.5,16.5,9.4c3.1-1,6.4-1.9,9.6-2.7C655.5,746.8,659.7,739.7,657.8,732.7z"/>
			</g>
		</g>
		<g>
			<g>
				<path class="st0" d="M364.4,1175.6c-1.5-2.9-3-5.9-4.4-8.9c-3-6.5-10.8-9.4-17.3-6.3c-6.5,3-9.4,10.8-6.3,17.3
					c1.5,3.3,3.2,6.6,4.8,9.8c3.3,6.3,11.3,8.9,17.6,5.6C365.2,1189.9,367.8,1182,364.4,1175.6z"/>
			</g>
		</g>
		<g>
			<g>
				<path class="st0" d="M347.1,1132.1c-1.7-5.9-3.1-12-4.3-17.9c-1.4-7.1-8.2-11.7-15.3-10.3c-7.1,1.4-11.7,8.2-10.3,15.3
					c1.3,6.7,2.9,13.4,4.8,20.1c1.9,6.8,9.3,10.9,16.1,9C345.1,1146.2,349.1,1139,347.1,1132.1z"/>
			</g>
		</g>
		<g>
			<g>
				<path class="st0" d="M327.1,1045.2c-7.2-0.4-13.4,5-13.9,12.2c-0.3,5.1-0.5,10.3-0.5,15.4c0,4.7-0.2,9.3,2.9,13.1
					c2.5,3.1,6.4,5,10.5,4.9c4-0.1,7.8-2,10.2-5.2c2.9-3.9,2.5-8.2,2.5-12.8c0-4.6,0.1-9.2,0.4-13.8
					C339.7,1051.9,334.3,1045.7,327.1,1045.2z"/>
			</g>
		</g>
		<g>
			<g>
				<path class="st0" d="M341.3,988.4c-6.9-2.2-14.2,1.6-16.4,8.4c-2.1,6.5-4,13.2-5.5,19.8c-1.7,7,2.7,14,9.7,15.7
					c6.9,1.6,14.1-2.8,15.7-9.7c1.4-6,3.1-11.9,5-17.8C351.9,998,348.1,990.6,341.3,988.4z"/>
			</g>
		</g>
		<g>
			<g>
				<path class="st0" d="M407.8,893.1c-5-5.2-13.2-5.4-18.5-0.4c-1.3,1.3-2.7,2.6-4,3.9c-3.5,3.5-7,7.3-10.4,11.1
					c-4.7,5.4-4.2,13.7,1.2,18.4c5.4,4.7,13.7,4.1,18.4-1.2c3-3.4,6-6.7,9.2-9.8c1.2-1.2,2.3-2.3,3.5-3.5
					C412.6,906.6,412.8,898.3,407.8,893.1z"/>
			</g>
		</g>
		<g>
			<g>
				<path class="st0" d="M368.6,936.6c-6.1-3.8-14.2-1.9-18,4.3c-3.6,5.8-7,11.9-10.1,18c-3.3,6.4-0.7,14.3,5.7,17.6
					c6.3,3.2,14.3,0.6,17.6-5.7c2.8-5.5,5.8-10.9,9.1-16.1C376.6,948.4,374.7,940.3,368.6,936.6z"/>
			</g>
		</g>
		<g>
			<g>
				<path class="st0" d="M448.9,865.5c-3.7-6.2-11.7-8.2-17.9-4.5c-3.1,1.9-6.3,3.9-9.4,5.9c-6,4-7.6,12.1-3.7,18.1
					c3.9,5.9,12.2,7.6,18.1,3.7c2.7-1.8,5.5-3.6,8.3-5.2C450.6,879.7,452.6,871.6,448.9,865.5z"/>
			</g>
		</g>
	</g>
</g>
<g>
</g>
<g>
</g>
<g>
</g>
<g>
</g>
<g>
</g>
<g>
</g>
</svg>
